G04 #@! TF.FileFunction,Legend,Top*
%FSLAX46Y46*%
G04 Gerber Fmt 4.6, Leading zero omitted, Abs format (unit mm)*
G04 Created by KiCad (PCBNEW 4.0.2+dfsg1-stable) date mar. 12 sept. 2017 23:56:27 CEST*
%MOMM*%
G01*
G04 APERTURE LIST*
%ADD10C,0.100000*%
%ADD11C,0.203200*%
%ADD12C,0.150000*%
%ADD13C,0.027940*%
%ADD14C,0.101600*%
%ADD15C,0.127000*%
%ADD16C,0.152400*%
%ADD17C,0.076200*%
%ADD18C,0.124460*%
G04 APERTURE END LIST*
D10*
D11*
X142694209Y-101722181D02*
X142694209Y-100722181D01*
X143075162Y-100722181D01*
X143170400Y-100769800D01*
X143218019Y-100817419D01*
X143265638Y-100912657D01*
X143265638Y-101055514D01*
X143218019Y-101150752D01*
X143170400Y-101198371D01*
X143075162Y-101245990D01*
X142694209Y-101245990D01*
X143694209Y-101722181D02*
X143694209Y-101055514D01*
X143694209Y-101245990D02*
X143741828Y-101150752D01*
X143789447Y-101103133D01*
X143884685Y-101055514D01*
X143979924Y-101055514D01*
X144456114Y-101722181D02*
X144360876Y-101674562D01*
X144313257Y-101626943D01*
X144265638Y-101531705D01*
X144265638Y-101245990D01*
X144313257Y-101150752D01*
X144360876Y-101103133D01*
X144456114Y-101055514D01*
X144598972Y-101055514D01*
X144694210Y-101103133D01*
X144741829Y-101150752D01*
X144789448Y-101245990D01*
X144789448Y-101531705D01*
X144741829Y-101626943D01*
X144694210Y-101674562D01*
X144598972Y-101722181D01*
X144456114Y-101722181D01*
X145646591Y-101055514D02*
X145646591Y-101865038D01*
X145598972Y-101960276D01*
X145551353Y-102007895D01*
X145456114Y-102055514D01*
X145313257Y-102055514D01*
X145218019Y-102007895D01*
X145646591Y-101674562D02*
X145551353Y-101722181D01*
X145360876Y-101722181D01*
X145265638Y-101674562D01*
X145218019Y-101626943D01*
X145170400Y-101531705D01*
X145170400Y-101245990D01*
X145218019Y-101150752D01*
X145265638Y-101103133D01*
X145360876Y-101055514D01*
X145551353Y-101055514D01*
X145646591Y-101103133D01*
D12*
X179889800Y-111350000D02*
X173889800Y-111350000D01*
X179889800Y-108810000D02*
X173889800Y-108810000D01*
X179889800Y-106270000D02*
X173889800Y-106270000D01*
X179889800Y-103730000D02*
X173889800Y-103730000D01*
X179889800Y-101190000D02*
X173889800Y-101190000D01*
X179889800Y-98650000D02*
X173889800Y-98650000D01*
X171349800Y-97380000D02*
X171349800Y-112620000D01*
X171349800Y-112620000D02*
X173889800Y-112620000D01*
X173889800Y-112620000D02*
X173889800Y-97380000D01*
X171349800Y-97380000D02*
X173889800Y-97380000D01*
D13*
X142341600Y-110096300D02*
X142595600Y-110096300D01*
X142189200Y-110121700D02*
X142824200Y-110121700D01*
X142189200Y-110147100D02*
X142824200Y-110147100D01*
X142163800Y-110172500D02*
X142849600Y-110172500D01*
X142163800Y-110197900D02*
X142849600Y-110197900D01*
X142163800Y-110223300D02*
X142849600Y-110223300D01*
X142163800Y-110248700D02*
X142849600Y-110248700D01*
X142163800Y-110274100D02*
X142849600Y-110274100D01*
X142163800Y-110299500D02*
X142849600Y-110299500D01*
X142138400Y-110324900D02*
X142875000Y-110324900D01*
X142138400Y-110350300D02*
X142875000Y-110350300D01*
X142138400Y-110375700D02*
X142875000Y-110375700D01*
X142138400Y-110401100D02*
X142875000Y-110401100D01*
X142138400Y-110426500D02*
X142875000Y-110426500D01*
X142113000Y-110451900D02*
X142875000Y-110451900D01*
X142113000Y-110477300D02*
X142900400Y-110477300D01*
X142113000Y-110502700D02*
X142900400Y-110502700D01*
X142113000Y-110528100D02*
X142900400Y-110528100D01*
X142113000Y-110553500D02*
X142900400Y-110553500D01*
X141071600Y-110578900D02*
X141147800Y-110578900D01*
X142113000Y-110578900D02*
X142900400Y-110578900D01*
X143840200Y-110578900D02*
X143941800Y-110578900D01*
X141046200Y-110604300D02*
X141173200Y-110604300D01*
X142087600Y-110604300D02*
X142900400Y-110604300D01*
X143789400Y-110604300D02*
X143967200Y-110604300D01*
X141020800Y-110629700D02*
X141224000Y-110629700D01*
X142087600Y-110629700D02*
X142900400Y-110629700D01*
X143764000Y-110629700D02*
X143992600Y-110629700D01*
X140970000Y-110655100D02*
X141249400Y-110655100D01*
X142087600Y-110655100D02*
X142925800Y-110655100D01*
X143713200Y-110655100D02*
X144043400Y-110655100D01*
X140944600Y-110680500D02*
X141300200Y-110680500D01*
X142087600Y-110680500D02*
X142925800Y-110680500D01*
X143687800Y-110680500D02*
X144068800Y-110680500D01*
X140919200Y-110705900D02*
X141325600Y-110705900D01*
X142087600Y-110705900D02*
X142925800Y-110705900D01*
X143637000Y-110705900D02*
X144094200Y-110705900D01*
X140893800Y-110731300D02*
X141351000Y-110731300D01*
X142062200Y-110731300D02*
X142925800Y-110731300D01*
X143611600Y-110731300D02*
X144119600Y-110731300D01*
X140868400Y-110756700D02*
X141401800Y-110756700D01*
X141986000Y-110756700D02*
X143027400Y-110756700D01*
X143560800Y-110756700D02*
X144145000Y-110756700D01*
X140843000Y-110782100D02*
X141427200Y-110782100D01*
X141909800Y-110782100D02*
X143103600Y-110782100D01*
X143535400Y-110782100D02*
X144170400Y-110782100D01*
X140817600Y-110807500D02*
X141478000Y-110807500D01*
X141833600Y-110807500D02*
X143154400Y-110807500D01*
X143484600Y-110807500D02*
X144195800Y-110807500D01*
X140792200Y-110832900D02*
X141503400Y-110832900D01*
X141782800Y-110832900D02*
X143230600Y-110832900D01*
X143459200Y-110832900D02*
X144221200Y-110832900D01*
X140766800Y-110858300D02*
X141528800Y-110858300D01*
X141732000Y-110858300D02*
X143281400Y-110858300D01*
X143433800Y-110858300D02*
X144246600Y-110858300D01*
X140741400Y-110883700D02*
X141579600Y-110883700D01*
X141681200Y-110883700D02*
X143332200Y-110883700D01*
X143383000Y-110883700D02*
X144272000Y-110883700D01*
X140716000Y-110909100D02*
X141605000Y-110909100D01*
X141630400Y-110909100D02*
X144297400Y-110909100D01*
X140690600Y-110934500D02*
X144297400Y-110934500D01*
X140690600Y-110959900D02*
X144322800Y-110959900D01*
X140665200Y-110985300D02*
X144322800Y-110985300D01*
X140665200Y-111010700D02*
X144322800Y-111010700D01*
X140690600Y-111036100D02*
X144322800Y-111036100D01*
X140690600Y-111061500D02*
X144297400Y-111061500D01*
X140716000Y-111086900D02*
X144297400Y-111086900D01*
X140741400Y-111112300D02*
X144272000Y-111112300D01*
X140741400Y-111137700D02*
X144246600Y-111137700D01*
X140766800Y-111163100D02*
X144221200Y-111163100D01*
X140792200Y-111188500D02*
X144221200Y-111188500D01*
X140817600Y-111213900D02*
X144195800Y-111213900D01*
X140817600Y-111239300D02*
X144170400Y-111239300D01*
X140843000Y-111264700D02*
X144170400Y-111264700D01*
X140868400Y-111290100D02*
X144145000Y-111290100D01*
X140868400Y-111315500D02*
X144119600Y-111315500D01*
X140893800Y-111340900D02*
X144094200Y-111340900D01*
X140919200Y-111366300D02*
X144094200Y-111366300D01*
X140919200Y-111391700D02*
X144068800Y-111391700D01*
X140944600Y-111417100D02*
X144043400Y-111417100D01*
X140970000Y-111442500D02*
X144018000Y-111442500D01*
X140970000Y-111467900D02*
X144018000Y-111467900D01*
X140995400Y-111493300D02*
X143992600Y-111493300D01*
X140995400Y-111518700D02*
X143992600Y-111518700D01*
X140995400Y-111544100D02*
X144018000Y-111544100D01*
X140970000Y-111569500D02*
X144043400Y-111569500D01*
X140970000Y-111594900D02*
X144043400Y-111594900D01*
X140944600Y-111620300D02*
X144068800Y-111620300D01*
X140944600Y-111645700D02*
X144068800Y-111645700D01*
X140919200Y-111671100D02*
X144094200Y-111671100D01*
X140919200Y-111696500D02*
X144094200Y-111696500D01*
X140893800Y-111721900D02*
X144119600Y-111721900D01*
X140893800Y-111747300D02*
X144119600Y-111747300D01*
X140868400Y-111772700D02*
X144119600Y-111772700D01*
X140868400Y-111798100D02*
X142392400Y-111798100D01*
X142621000Y-111798100D02*
X144145000Y-111798100D01*
X140868400Y-111823500D02*
X142316200Y-111823500D01*
X142697200Y-111823500D02*
X144145000Y-111823500D01*
X140843000Y-111848900D02*
X142240000Y-111848900D01*
X142773400Y-111848900D02*
X144170400Y-111848900D01*
X140843000Y-111874300D02*
X142189200Y-111874300D01*
X142824200Y-111874300D02*
X144170400Y-111874300D01*
X140843000Y-111899700D02*
X142163800Y-111899700D01*
X142849600Y-111899700D02*
X144170400Y-111899700D01*
X140817600Y-111925100D02*
X142113000Y-111925100D01*
X142900400Y-111925100D02*
X144195800Y-111925100D01*
X140817600Y-111950500D02*
X142087600Y-111950500D01*
X142925800Y-111950500D02*
X144272000Y-111950500D01*
X140817600Y-111975900D02*
X142062200Y-111975900D01*
X142951200Y-111975900D02*
X144424400Y-111975900D01*
X140792200Y-112001300D02*
X142036800Y-112001300D01*
X142976600Y-112001300D02*
X144551400Y-112001300D01*
X140639800Y-112026700D02*
X142011400Y-112026700D01*
X143002000Y-112026700D02*
X144703800Y-112026700D01*
X140487400Y-112052100D02*
X142011400Y-112052100D01*
X143002000Y-112052100D02*
X144805400Y-112052100D01*
X140335000Y-112077500D02*
X141986000Y-112077500D01*
X143027400Y-112077500D02*
X144805400Y-112077500D01*
X140208000Y-112102900D02*
X141960600Y-112102900D01*
X143052800Y-112102900D02*
X144830800Y-112102900D01*
X140182600Y-112128300D02*
X141960600Y-112128300D01*
X143052800Y-112128300D02*
X144830800Y-112128300D01*
X140182600Y-112153700D02*
X141935200Y-112153700D01*
X143078200Y-112153700D02*
X144830800Y-112153700D01*
X140182600Y-112179100D02*
X141935200Y-112179100D01*
X143078200Y-112179100D02*
X144830800Y-112179100D01*
X140182600Y-112204500D02*
X141909800Y-112204500D01*
X143103600Y-112204500D02*
X144830800Y-112204500D01*
X140182600Y-112229900D02*
X141909800Y-112229900D01*
X143103600Y-112229900D02*
X144830800Y-112229900D01*
X140182600Y-112255300D02*
X141909800Y-112255300D01*
X143103600Y-112255300D02*
X144830800Y-112255300D01*
X140182600Y-112280700D02*
X141909800Y-112280700D01*
X143129000Y-112280700D02*
X144830800Y-112280700D01*
X140182600Y-112306100D02*
X141884400Y-112306100D01*
X143129000Y-112306100D02*
X144830800Y-112306100D01*
X140182600Y-112331500D02*
X141884400Y-112331500D01*
X143129000Y-112331500D02*
X144856200Y-112331500D01*
X140157200Y-112356900D02*
X141884400Y-112356900D01*
X143129000Y-112356900D02*
X144856200Y-112356900D01*
X140157200Y-112382300D02*
X141884400Y-112382300D01*
X143129000Y-112382300D02*
X144856200Y-112382300D01*
X140157200Y-112407700D02*
X141884400Y-112407700D01*
X143129000Y-112407700D02*
X144856200Y-112407700D01*
X140157200Y-112433100D02*
X141884400Y-112433100D01*
X143129000Y-112433100D02*
X144856200Y-112433100D01*
X140157200Y-112458500D02*
X141884400Y-112458500D01*
X143129000Y-112458500D02*
X144856200Y-112458500D01*
X140157200Y-112483900D02*
X141884400Y-112483900D01*
X143129000Y-112483900D02*
X144856200Y-112483900D01*
X140157200Y-112509300D02*
X141884400Y-112509300D01*
X143129000Y-112509300D02*
X144856200Y-112509300D01*
X140157200Y-112534700D02*
X141884400Y-112534700D01*
X143129000Y-112534700D02*
X144856200Y-112534700D01*
X140157200Y-112560100D02*
X141909800Y-112560100D01*
X143129000Y-112560100D02*
X144856200Y-112560100D01*
X140182600Y-112585500D02*
X141909800Y-112585500D01*
X143103600Y-112585500D02*
X144856200Y-112585500D01*
X140182600Y-112610900D02*
X141909800Y-112610900D01*
X143103600Y-112610900D02*
X144830800Y-112610900D01*
X140182600Y-112636300D02*
X141935200Y-112636300D01*
X143103600Y-112636300D02*
X144830800Y-112636300D01*
X140182600Y-112661700D02*
X141935200Y-112661700D01*
X143078200Y-112661700D02*
X144830800Y-112661700D01*
X140182600Y-112687100D02*
X141935200Y-112687100D01*
X143078200Y-112687100D02*
X144805400Y-112687100D01*
X140182600Y-112712500D02*
X141960600Y-112712500D01*
X143052800Y-112712500D02*
X144653000Y-112712500D01*
X140284200Y-112737900D02*
X141986000Y-112737900D01*
X143052800Y-112737900D02*
X144500600Y-112737900D01*
X140411200Y-112763300D02*
X141986000Y-112763300D01*
X143027400Y-112763300D02*
X144322800Y-112763300D01*
X140563600Y-112788700D02*
X142011400Y-112788700D01*
X143002000Y-112788700D02*
X144221200Y-112788700D01*
X140690600Y-112814100D02*
X142036800Y-112814100D01*
X142976600Y-112814100D02*
X144221200Y-112814100D01*
X140792200Y-112839500D02*
X142062200Y-112839500D01*
X142976600Y-112839500D02*
X144221200Y-112839500D01*
X140817600Y-112864900D02*
X142062200Y-112864900D01*
X142951200Y-112864900D02*
X144195800Y-112864900D01*
X140817600Y-112890300D02*
X142113000Y-112890300D01*
X142900400Y-112890300D02*
X144195800Y-112890300D01*
X140817600Y-112915700D02*
X142138400Y-112915700D01*
X142875000Y-112915700D02*
X144195800Y-112915700D01*
X140817600Y-112941100D02*
X142163800Y-112941100D01*
X142849600Y-112941100D02*
X144195800Y-112941100D01*
X140843000Y-112966500D02*
X142214600Y-112966500D01*
X142798800Y-112966500D02*
X144170400Y-112966500D01*
X140843000Y-112991900D02*
X142265400Y-112991900D01*
X142748000Y-112991900D02*
X144170400Y-112991900D01*
X140843000Y-113017300D02*
X142290800Y-113017300D01*
X142748000Y-113017300D02*
X144170400Y-113017300D01*
X140868400Y-113042700D02*
X142290800Y-113042700D01*
X142748000Y-113042700D02*
X144145000Y-113042700D01*
X140868400Y-113068100D02*
X142290800Y-113068100D01*
X142748000Y-113068100D02*
X144145000Y-113068100D01*
X140868400Y-113093500D02*
X142265400Y-113093500D01*
X142773400Y-113093500D02*
X144119600Y-113093500D01*
X140893800Y-113118900D02*
X142265400Y-113118900D01*
X142773400Y-113118900D02*
X144119600Y-113118900D01*
X140893800Y-113144300D02*
X142265400Y-113144300D01*
X142773400Y-113144300D02*
X144119600Y-113144300D01*
X140919200Y-113169700D02*
X142240000Y-113169700D01*
X142798800Y-113169700D02*
X144094200Y-113169700D01*
X140919200Y-113195100D02*
X142240000Y-113195100D01*
X142798800Y-113195100D02*
X144094200Y-113195100D01*
X140944600Y-113220500D02*
X142214600Y-113220500D01*
X142824200Y-113220500D02*
X144068800Y-113220500D01*
X140944600Y-113245900D02*
X142214600Y-113245900D01*
X142824200Y-113245900D02*
X144068800Y-113245900D01*
X140970000Y-113271300D02*
X142214600Y-113271300D01*
X142824200Y-113271300D02*
X144043400Y-113271300D01*
X140970000Y-113296700D02*
X142189200Y-113296700D01*
X142849600Y-113296700D02*
X144068800Y-113296700D01*
X140995400Y-113322100D02*
X142189200Y-113322100D01*
X142849600Y-113322100D02*
X144068800Y-113322100D01*
X140995400Y-113347500D02*
X142189200Y-113347500D01*
X142875000Y-113347500D02*
X144094200Y-113347500D01*
X140995400Y-113372900D02*
X142163800Y-113372900D01*
X142875000Y-113372900D02*
X144119600Y-113372900D01*
X140995400Y-113398300D02*
X142163800Y-113398300D01*
X142875000Y-113398300D02*
X144145000Y-113398300D01*
X140970000Y-113423700D02*
X142163800Y-113423700D01*
X142900400Y-113423700D02*
X144145000Y-113423700D01*
X140944600Y-113449100D02*
X142138400Y-113449100D01*
X142900400Y-113449100D02*
X144170400Y-113449100D01*
X140919200Y-113474500D02*
X142138400Y-113474500D01*
X142900400Y-113474500D02*
X144195800Y-113474500D01*
X140919200Y-113499900D02*
X142138400Y-113499900D01*
X142925800Y-113499900D02*
X144195800Y-113499900D01*
X140893800Y-113525300D02*
X142113000Y-113525300D01*
X142925800Y-113525300D02*
X144221200Y-113525300D01*
X140868400Y-113550700D02*
X142113000Y-113550700D01*
X142951200Y-113550700D02*
X144246600Y-113550700D01*
X140843000Y-113576100D02*
X142113000Y-113576100D01*
X142951200Y-113576100D02*
X144246600Y-113576100D01*
X140843000Y-113601500D02*
X142087600Y-113601500D01*
X142951200Y-113601500D02*
X144272000Y-113601500D01*
X140817600Y-113626900D02*
X142087600Y-113626900D01*
X142976600Y-113626900D02*
X144297400Y-113626900D01*
X140792200Y-113652300D02*
X142062200Y-113652300D01*
X142976600Y-113652300D02*
X144297400Y-113652300D01*
X140792200Y-113677700D02*
X142062200Y-113677700D01*
X143002000Y-113677700D02*
X144322800Y-113677700D01*
X140766800Y-113703100D02*
X142062200Y-113703100D01*
X143002000Y-113703100D02*
X144348200Y-113703100D01*
X140741400Y-113728500D02*
X142036800Y-113728500D01*
X143002000Y-113728500D02*
X144373600Y-113728500D01*
X140716000Y-113753900D02*
X142036800Y-113753900D01*
X143027400Y-113753900D02*
X144373600Y-113753900D01*
X140716000Y-113779300D02*
X142036800Y-113779300D01*
X143027400Y-113779300D02*
X144399000Y-113779300D01*
X140690600Y-113804700D02*
X142011400Y-113804700D01*
X143052800Y-113804700D02*
X144399000Y-113804700D01*
X140665200Y-113830100D02*
X142011400Y-113830100D01*
X143052800Y-113830100D02*
X144399000Y-113830100D01*
X140665200Y-113855500D02*
X142011400Y-113855500D01*
X143052800Y-113855500D02*
X144373600Y-113855500D01*
X140665200Y-113880900D02*
X141986000Y-113880900D01*
X143078200Y-113880900D02*
X144348200Y-113880900D01*
X140665200Y-113906300D02*
X141986000Y-113906300D01*
X143078200Y-113906300D02*
X144322800Y-113906300D01*
X140690600Y-113931700D02*
X141986000Y-113931700D01*
X143078200Y-113931700D02*
X144297400Y-113931700D01*
X140716000Y-113957100D02*
X141960600Y-113957100D01*
X143103600Y-113957100D02*
X144297400Y-113957100D01*
X140741400Y-113982500D02*
X141960600Y-113982500D01*
X143103600Y-113982500D02*
X143459200Y-113982500D01*
X143510000Y-113982500D02*
X144272000Y-113982500D01*
X140766800Y-114007900D02*
X141960600Y-114007900D01*
X143129000Y-114007900D02*
X143383000Y-114007900D01*
X143586200Y-114007900D02*
X144246600Y-114007900D01*
X140792200Y-114033300D02*
X141554200Y-114033300D01*
X141681200Y-114033300D02*
X141935200Y-114033300D01*
X143129000Y-114033300D02*
X143332200Y-114033300D01*
X143611600Y-114033300D02*
X144221200Y-114033300D01*
X140817600Y-114058700D02*
X141503400Y-114058700D01*
X141757400Y-114058700D02*
X141935200Y-114058700D01*
X143129000Y-114058700D02*
X143281400Y-114058700D01*
X143637000Y-114058700D02*
X144195800Y-114058700D01*
X140843000Y-114084100D02*
X141452600Y-114084100D01*
X141808200Y-114084100D02*
X141909800Y-114084100D01*
X143154400Y-114084100D02*
X143230600Y-114084100D01*
X143662400Y-114084100D02*
X144221200Y-114084100D01*
X140868400Y-114109500D02*
X141427200Y-114109500D01*
X141859000Y-114109500D02*
X141909800Y-114109500D01*
X143154400Y-114109500D02*
X143179800Y-114109500D01*
X143662400Y-114109500D02*
X144221200Y-114109500D01*
X140893800Y-114134900D02*
X141376400Y-114134900D01*
X143713200Y-114134900D02*
X144221200Y-114134900D01*
X140919200Y-114160300D02*
X141351000Y-114160300D01*
X143738600Y-114160300D02*
X144221200Y-114160300D01*
X140919200Y-114185700D02*
X141300200Y-114185700D01*
X143764000Y-114185700D02*
X144221200Y-114185700D01*
X140919200Y-114211100D02*
X141274800Y-114211100D01*
X143814800Y-114211100D02*
X144221200Y-114211100D01*
X140919200Y-114236500D02*
X141249400Y-114236500D01*
X143865600Y-114236500D02*
X144195800Y-114236500D01*
X140944600Y-114261900D02*
X141224000Y-114261900D01*
X143916400Y-114261900D02*
X144195800Y-114261900D01*
X140944600Y-114287300D02*
X141198600Y-114287300D01*
X143941800Y-114287300D02*
X144170400Y-114287300D01*
X140970000Y-114312700D02*
X141198600Y-114312700D01*
X143967200Y-114312700D02*
X144170400Y-114312700D01*
X140995400Y-114338100D02*
X141173200Y-114338100D01*
X143992600Y-114338100D02*
X144145000Y-114338100D01*
X141020800Y-114363500D02*
X141173200Y-114363500D01*
X144018000Y-114363500D02*
X144119600Y-114363500D01*
X141046200Y-114388900D02*
X141147800Y-114388900D01*
X144043400Y-114388900D02*
X144094200Y-114388900D01*
X141071600Y-114414300D02*
X141147800Y-114414300D01*
X160695640Y-112440720D02*
X162346640Y-112440720D01*
X160670240Y-112466120D02*
X162346640Y-112466120D01*
X160644840Y-112491520D02*
X162346640Y-112491520D01*
X160619440Y-112516920D02*
X162346640Y-112516920D01*
X160594040Y-112542320D02*
X162346640Y-112542320D01*
X160568640Y-112567720D02*
X162346640Y-112567720D01*
X160543240Y-112593120D02*
X162346640Y-112593120D01*
X164073840Y-112593120D02*
X164099240Y-112593120D01*
X160517840Y-112618520D02*
X160822640Y-112618520D01*
X164048440Y-112618520D02*
X164124640Y-112618520D01*
X160492440Y-112643920D02*
X160797240Y-112643920D01*
X164048440Y-112643920D02*
X164124640Y-112643920D01*
X160467040Y-112669320D02*
X160771840Y-112669320D01*
X164023040Y-112669320D02*
X164150040Y-112669320D01*
X160441640Y-112694720D02*
X160746440Y-112694720D01*
X160822640Y-112694720D02*
X162499040Y-112694720D01*
X164023040Y-112694720D02*
X164150040Y-112694720D01*
X160416240Y-112720120D02*
X160721040Y-112720120D01*
X160797240Y-112720120D02*
X162499040Y-112720120D01*
X163997640Y-112720120D02*
X164175440Y-112720120D01*
X160390840Y-112745520D02*
X160695640Y-112745520D01*
X160771840Y-112745520D02*
X162448240Y-112745520D01*
X162473640Y-112745520D02*
X162499040Y-112745520D01*
X163997640Y-112745520D02*
X164175440Y-112745520D01*
X160365440Y-112770920D02*
X160670240Y-112770920D01*
X160746440Y-112770920D02*
X162422840Y-112770920D01*
X162473640Y-112770920D02*
X162499040Y-112770920D01*
X163972240Y-112770920D02*
X164200840Y-112770920D01*
X160340040Y-112796320D02*
X160644840Y-112796320D01*
X160721040Y-112796320D02*
X162397440Y-112796320D01*
X162473640Y-112796320D02*
X162499040Y-112796320D01*
X163972240Y-112796320D02*
X164200840Y-112796320D01*
X160314640Y-112821720D02*
X160619440Y-112821720D01*
X160695640Y-112821720D02*
X162372040Y-112821720D01*
X162473640Y-112821720D02*
X162499040Y-112821720D01*
X163946840Y-112821720D02*
X164226240Y-112821720D01*
X160289240Y-112847120D02*
X160594040Y-112847120D01*
X160670240Y-112847120D02*
X162346640Y-112847120D01*
X162473640Y-112847120D02*
X162499040Y-112847120D01*
X163946840Y-112847120D02*
X164226240Y-112847120D01*
X160263840Y-112872520D02*
X160568640Y-112872520D01*
X160644840Y-112872520D02*
X162321240Y-112872520D01*
X162473640Y-112872520D02*
X162499040Y-112872520D01*
X163921440Y-112872520D02*
X164251640Y-112872520D01*
X160238440Y-112897920D02*
X160543240Y-112897920D01*
X160619440Y-112897920D02*
X162295840Y-112897920D01*
X162473640Y-112897920D02*
X162499040Y-112897920D01*
X163921440Y-112897920D02*
X164251640Y-112897920D01*
X160213040Y-112923320D02*
X160517840Y-112923320D01*
X160594040Y-112923320D02*
X162270440Y-112923320D01*
X162422840Y-112923320D02*
X162499040Y-112923320D01*
X163896040Y-112923320D02*
X164277040Y-112923320D01*
X160187640Y-112948720D02*
X160492440Y-112948720D01*
X160568640Y-112948720D02*
X162245040Y-112948720D01*
X162422840Y-112948720D02*
X162499040Y-112948720D01*
X163896040Y-112948720D02*
X164277040Y-112948720D01*
X160187640Y-112974120D02*
X160492440Y-112974120D01*
X160543240Y-112974120D02*
X162219640Y-112974120D01*
X162372040Y-112974120D02*
X162499040Y-112974120D01*
X163870640Y-112974120D02*
X164302440Y-112974120D01*
X160187640Y-112999520D02*
X160467040Y-112999520D01*
X160517840Y-112999520D02*
X162194240Y-112999520D01*
X162346640Y-112999520D02*
X162499040Y-112999520D01*
X163870640Y-112999520D02*
X164302440Y-112999520D01*
X166461440Y-112999520D02*
X166715440Y-112999520D01*
X166893240Y-112999520D02*
X167147240Y-112999520D01*
X168163240Y-112999520D02*
X168442640Y-112999520D01*
X169458640Y-112999520D02*
X169915840Y-112999520D01*
X170474640Y-112999520D02*
X170728640Y-112999520D01*
X171262040Y-112999520D02*
X171617640Y-112999520D01*
X160187640Y-113024920D02*
X160416240Y-113024920D01*
X160492440Y-113024920D02*
X162168840Y-113024920D01*
X162321240Y-113024920D02*
X162499040Y-113024920D01*
X163845240Y-113024920D02*
X164327840Y-113024920D01*
X165394640Y-113024920D02*
X165826440Y-113024920D01*
X166461440Y-113024920D02*
X166715440Y-113024920D01*
X166893240Y-113024920D02*
X167147240Y-113024920D01*
X168137840Y-113024920D02*
X168442640Y-113024920D01*
X169382440Y-113024920D02*
X170017440Y-113024920D01*
X170474640Y-113024920D02*
X170728640Y-113024920D01*
X171236640Y-113024920D02*
X171592240Y-113024920D01*
X160187640Y-113050320D02*
X160416240Y-113050320D01*
X160467040Y-113050320D02*
X162143440Y-113050320D01*
X162295840Y-113050320D02*
X162499040Y-113050320D01*
X163845240Y-113050320D02*
X164327840Y-113050320D01*
X165293040Y-113050320D02*
X165902640Y-113050320D01*
X166461440Y-113050320D02*
X166715440Y-113050320D01*
X166893240Y-113050320D02*
X167147240Y-113050320D01*
X168137840Y-113050320D02*
X168468040Y-113050320D01*
X169331640Y-113050320D02*
X170068240Y-113050320D01*
X170474640Y-113050320D02*
X170728640Y-113050320D01*
X171211240Y-113050320D02*
X171566840Y-113050320D01*
X160187640Y-113075720D02*
X160390840Y-113075720D01*
X160441640Y-113075720D02*
X162118040Y-113075720D01*
X162270440Y-113075720D02*
X162499040Y-113075720D01*
X163819840Y-113075720D02*
X164353240Y-113075720D01*
X165242240Y-113075720D02*
X165978840Y-113075720D01*
X166461440Y-113075720D02*
X166715440Y-113075720D01*
X166893240Y-113075720D02*
X167147240Y-113075720D01*
X168137840Y-113075720D02*
X168468040Y-113075720D01*
X169280840Y-113075720D02*
X170119040Y-113075720D01*
X170474640Y-113075720D02*
X170728640Y-113075720D01*
X171185840Y-113075720D02*
X171541440Y-113075720D01*
X160187640Y-113101120D02*
X160365440Y-113101120D01*
X160441640Y-113101120D02*
X162092640Y-113101120D01*
X162245040Y-113101120D02*
X162448240Y-113101120D01*
X162473640Y-113101120D02*
X162499040Y-113101120D01*
X163819840Y-113101120D02*
X164353240Y-113101120D01*
X165191440Y-113101120D02*
X166029640Y-113101120D01*
X166461440Y-113101120D02*
X166715440Y-113101120D01*
X166893240Y-113101120D02*
X167147240Y-113101120D01*
X168112440Y-113101120D02*
X168468040Y-113101120D01*
X169230040Y-113101120D02*
X170119040Y-113101120D01*
X170474640Y-113101120D02*
X170728640Y-113101120D01*
X171160440Y-113101120D02*
X171516040Y-113101120D01*
X160187640Y-113126520D02*
X160365440Y-113126520D01*
X160441640Y-113126520D02*
X162067240Y-113126520D01*
X162219640Y-113126520D02*
X162422840Y-113126520D01*
X162473640Y-113126520D02*
X162499040Y-113126520D01*
X163794440Y-113126520D02*
X164378640Y-113126520D01*
X165166040Y-113126520D02*
X166080440Y-113126520D01*
X166461440Y-113126520D02*
X166715440Y-113126520D01*
X166893240Y-113126520D02*
X167147240Y-113126520D01*
X168112440Y-113126520D02*
X168493440Y-113126520D01*
X169204640Y-113126520D02*
X170119040Y-113126520D01*
X170474640Y-113126520D02*
X170728640Y-113126520D01*
X171135040Y-113126520D02*
X171490640Y-113126520D01*
X160187640Y-113151920D02*
X160365440Y-113151920D01*
X160441640Y-113151920D02*
X162041840Y-113151920D01*
X162194240Y-113151920D02*
X162397440Y-113151920D01*
X162473640Y-113151920D02*
X162499040Y-113151920D01*
X163794440Y-113151920D02*
X164378640Y-113151920D01*
X165115240Y-113151920D02*
X166105840Y-113151920D01*
X166461440Y-113151920D02*
X166715440Y-113151920D01*
X166893240Y-113151920D02*
X167147240Y-113151920D01*
X168112440Y-113151920D02*
X168493440Y-113151920D01*
X169153840Y-113151920D02*
X170093640Y-113151920D01*
X170474640Y-113151920D02*
X170728640Y-113151920D01*
X171109640Y-113151920D02*
X171465240Y-113151920D01*
X160187640Y-113177320D02*
X160365440Y-113177320D01*
X160441640Y-113177320D02*
X162016440Y-113177320D01*
X162168840Y-113177320D02*
X162372040Y-113177320D01*
X162473640Y-113177320D02*
X162499040Y-113177320D01*
X163769040Y-113177320D02*
X164404040Y-113177320D01*
X165089840Y-113177320D02*
X166105840Y-113177320D01*
X166461440Y-113177320D02*
X166715440Y-113177320D01*
X166893240Y-113177320D02*
X167147240Y-113177320D01*
X168087040Y-113177320D02*
X168518840Y-113177320D01*
X169128440Y-113177320D02*
X170093640Y-113177320D01*
X170474640Y-113177320D02*
X170728640Y-113177320D01*
X171109640Y-113177320D02*
X171439840Y-113177320D01*
X160187640Y-113202720D02*
X160365440Y-113202720D01*
X160441640Y-113202720D02*
X161991040Y-113202720D01*
X162143440Y-113202720D02*
X162346640Y-113202720D01*
X162473640Y-113202720D02*
X162499040Y-113202720D01*
X163769040Y-113202720D02*
X164404040Y-113202720D01*
X165064440Y-113202720D02*
X166105840Y-113202720D01*
X166461440Y-113202720D02*
X166715440Y-113202720D01*
X166893240Y-113202720D02*
X167147240Y-113202720D01*
X168087040Y-113202720D02*
X168518840Y-113202720D01*
X169103040Y-113202720D02*
X170068240Y-113202720D01*
X170474640Y-113202720D02*
X170728640Y-113202720D01*
X171084240Y-113202720D02*
X171414440Y-113202720D01*
X160187640Y-113228120D02*
X160365440Y-113228120D01*
X160441640Y-113228120D02*
X161965640Y-113228120D01*
X162118040Y-113228120D02*
X162321240Y-113228120D01*
X162448240Y-113228120D02*
X162499040Y-113228120D01*
X163743640Y-113228120D02*
X164429440Y-113228120D01*
X165039040Y-113228120D02*
X166080440Y-113228120D01*
X166461440Y-113228120D02*
X166715440Y-113228120D01*
X166893240Y-113228120D02*
X167147240Y-113228120D01*
X168087040Y-113228120D02*
X168518840Y-113228120D01*
X169103040Y-113228120D02*
X170068240Y-113228120D01*
X170474640Y-113228120D02*
X170728640Y-113228120D01*
X171058840Y-113228120D02*
X171389040Y-113228120D01*
X160187640Y-113253520D02*
X160365440Y-113253520D01*
X160441640Y-113253520D02*
X161940240Y-113253520D01*
X162092640Y-113253520D02*
X162295840Y-113253520D01*
X162422840Y-113253520D02*
X162499040Y-113253520D01*
X163743640Y-113253520D02*
X164429440Y-113253520D01*
X165013640Y-113253520D02*
X166055040Y-113253520D01*
X166461440Y-113253520D02*
X166715440Y-113253520D01*
X166893240Y-113253520D02*
X167147240Y-113253520D01*
X168061640Y-113253520D02*
X168544240Y-113253520D01*
X169077640Y-113253520D02*
X169534840Y-113253520D01*
X169890440Y-113253520D02*
X170068240Y-113253520D01*
X170474640Y-113253520D02*
X170728640Y-113253520D01*
X171033440Y-113253520D02*
X171363640Y-113253520D01*
X160187640Y-113278920D02*
X160365440Y-113278920D01*
X160441640Y-113278920D02*
X161914840Y-113278920D01*
X162067240Y-113278920D02*
X162270440Y-113278920D01*
X162397440Y-113278920D02*
X162499040Y-113278920D01*
X163718240Y-113278920D02*
X164073840Y-113278920D01*
X164099240Y-113278920D02*
X164454840Y-113278920D01*
X165013640Y-113278920D02*
X165470840Y-113278920D01*
X165775640Y-113278920D02*
X166055040Y-113278920D01*
X166461440Y-113278920D02*
X166715440Y-113278920D01*
X166893240Y-113278920D02*
X167147240Y-113278920D01*
X168061640Y-113278920D02*
X168544240Y-113278920D01*
X169052240Y-113278920D02*
X169484040Y-113278920D01*
X169966640Y-113278920D02*
X170042840Y-113278920D01*
X170474640Y-113278920D02*
X170728640Y-113278920D01*
X171008040Y-113278920D02*
X171338240Y-113278920D01*
X160187640Y-113304320D02*
X160365440Y-113304320D01*
X160441640Y-113304320D02*
X161356040Y-113304320D01*
X161559240Y-113304320D02*
X161889440Y-113304320D01*
X162041840Y-113304320D02*
X162245040Y-113304320D01*
X162372040Y-113304320D02*
X162499040Y-113304320D01*
X163718240Y-113304320D02*
X164073840Y-113304320D01*
X164099240Y-113304320D02*
X164454840Y-113304320D01*
X164988240Y-113304320D02*
X165394640Y-113304320D01*
X165877240Y-113304320D02*
X166029640Y-113304320D01*
X166461440Y-113304320D02*
X166715440Y-113304320D01*
X166893240Y-113304320D02*
X167147240Y-113304320D01*
X168036240Y-113304320D02*
X168544240Y-113304320D01*
X169026840Y-113304320D02*
X169433240Y-113304320D01*
X170474640Y-113304320D02*
X170728640Y-113304320D01*
X170982640Y-113304320D02*
X171338240Y-113304320D01*
X160187640Y-113329720D02*
X160365440Y-113329720D01*
X160441640Y-113329720D02*
X161279840Y-113329720D01*
X161635440Y-113329720D02*
X161864040Y-113329720D01*
X162016440Y-113329720D02*
X162219640Y-113329720D01*
X162346640Y-113329720D02*
X162499040Y-113329720D01*
X163692840Y-113329720D02*
X164048440Y-113329720D01*
X164124640Y-113329720D02*
X164480240Y-113329720D01*
X164962840Y-113329720D02*
X165369240Y-113329720D01*
X165928040Y-113329720D02*
X166029640Y-113329720D01*
X166461440Y-113329720D02*
X166715440Y-113329720D01*
X166893240Y-113329720D02*
X167147240Y-113329720D01*
X168036240Y-113329720D02*
X168569640Y-113329720D01*
X169026840Y-113329720D02*
X169382440Y-113329720D01*
X170474640Y-113329720D02*
X170728640Y-113329720D01*
X170957240Y-113329720D02*
X171312840Y-113329720D01*
X160187640Y-113355120D02*
X160365440Y-113355120D01*
X160441640Y-113355120D02*
X161254440Y-113355120D01*
X161686240Y-113355120D02*
X161838640Y-113355120D01*
X161991040Y-113355120D02*
X162194240Y-113355120D01*
X162321240Y-113355120D02*
X162499040Y-113355120D01*
X163692840Y-113355120D02*
X164048440Y-113355120D01*
X164124640Y-113355120D02*
X164480240Y-113355120D01*
X164962840Y-113355120D02*
X165318440Y-113355120D01*
X165978840Y-113355120D02*
X166004240Y-113355120D01*
X166461440Y-113355120D02*
X166715440Y-113355120D01*
X166893240Y-113355120D02*
X167147240Y-113355120D01*
X168036240Y-113355120D02*
X168290240Y-113355120D01*
X168315640Y-113355120D02*
X168569640Y-113355120D01*
X169001440Y-113355120D02*
X169357040Y-113355120D01*
X170474640Y-113355120D02*
X170728640Y-113355120D01*
X170931840Y-113355120D02*
X171287440Y-113355120D01*
X160187640Y-113380520D02*
X160365440Y-113380520D01*
X160441640Y-113380520D02*
X161203640Y-113380520D01*
X161711640Y-113380520D02*
X161813240Y-113380520D01*
X161965640Y-113380520D02*
X162168840Y-113380520D01*
X162295840Y-113380520D02*
X162499040Y-113380520D01*
X163667440Y-113380520D02*
X164023040Y-113380520D01*
X164150040Y-113380520D02*
X164505640Y-113380520D01*
X164937440Y-113380520D02*
X165293040Y-113380520D01*
X166461440Y-113380520D02*
X166715440Y-113380520D01*
X166893240Y-113380520D02*
X167147240Y-113380520D01*
X168010840Y-113380520D02*
X168264840Y-113380520D01*
X168315640Y-113380520D02*
X168595040Y-113380520D01*
X169001440Y-113380520D02*
X169331640Y-113380520D01*
X170474640Y-113380520D02*
X170728640Y-113380520D01*
X170931840Y-113380520D02*
X171262040Y-113380520D01*
X160187640Y-113405920D02*
X160365440Y-113405920D01*
X160441640Y-113405920D02*
X161178240Y-113405920D01*
X161737040Y-113405920D02*
X161787840Y-113405920D01*
X161940240Y-113405920D02*
X162143440Y-113405920D01*
X162270440Y-113405920D02*
X162499040Y-113405920D01*
X163667440Y-113405920D02*
X164023040Y-113405920D01*
X164150040Y-113405920D02*
X164505640Y-113405920D01*
X164937440Y-113405920D02*
X165267640Y-113405920D01*
X166461440Y-113405920D02*
X166715440Y-113405920D01*
X166893240Y-113405920D02*
X167147240Y-113405920D01*
X168010840Y-113405920D02*
X168264840Y-113405920D01*
X168315640Y-113405920D02*
X168595040Y-113405920D01*
X168976040Y-113405920D02*
X169306240Y-113405920D01*
X170474640Y-113405920D02*
X170728640Y-113405920D01*
X170906440Y-113405920D02*
X171236640Y-113405920D01*
X160187640Y-113431320D02*
X160365440Y-113431320D01*
X160441640Y-113431320D02*
X161152840Y-113431320D01*
X161381440Y-113431320D02*
X161559240Y-113431320D01*
X161762440Y-113431320D02*
X161787840Y-113431320D01*
X161914840Y-113431320D02*
X162118040Y-113431320D01*
X162245040Y-113431320D02*
X162499040Y-113431320D01*
X163642040Y-113431320D02*
X164023040Y-113431320D01*
X164175440Y-113431320D02*
X164531040Y-113431320D01*
X164912040Y-113431320D02*
X165242240Y-113431320D01*
X166461440Y-113431320D02*
X166715440Y-113431320D01*
X166893240Y-113431320D02*
X167147240Y-113431320D01*
X168010840Y-113431320D02*
X168264840Y-113431320D01*
X168341040Y-113431320D02*
X168595040Y-113431320D01*
X168976040Y-113431320D02*
X169306240Y-113431320D01*
X170474640Y-113431320D02*
X170728640Y-113431320D01*
X170881040Y-113431320D02*
X171211240Y-113431320D01*
X160187640Y-113456720D02*
X160365440Y-113456720D01*
X160441640Y-113456720D02*
X161127440Y-113456720D01*
X161330640Y-113456720D02*
X161610040Y-113456720D01*
X161889440Y-113456720D02*
X162092640Y-113456720D01*
X162219640Y-113456720D02*
X162499040Y-113456720D01*
X163642040Y-113456720D02*
X163997640Y-113456720D01*
X164175440Y-113456720D02*
X164531040Y-113456720D01*
X164912040Y-113456720D02*
X165216840Y-113456720D01*
X166461440Y-113456720D02*
X166715440Y-113456720D01*
X166893240Y-113456720D02*
X167147240Y-113456720D01*
X167985440Y-113456720D02*
X168239440Y-113456720D01*
X168341040Y-113456720D02*
X168620440Y-113456720D01*
X168976040Y-113456720D02*
X169280840Y-113456720D01*
X170474640Y-113456720D02*
X170728640Y-113456720D01*
X170855640Y-113456720D02*
X171185840Y-113456720D01*
X160187640Y-113482120D02*
X160365440Y-113482120D01*
X160441640Y-113482120D02*
X161102040Y-113482120D01*
X161305240Y-113482120D02*
X161635440Y-113482120D01*
X161864040Y-113482120D02*
X162067240Y-113482120D01*
X162194240Y-113482120D02*
X162499040Y-113482120D01*
X163616640Y-113482120D02*
X163997640Y-113482120D01*
X164200840Y-113482120D02*
X164556440Y-113482120D01*
X164912040Y-113482120D02*
X165216840Y-113482120D01*
X166461440Y-113482120D02*
X166715440Y-113482120D01*
X166893240Y-113482120D02*
X167147240Y-113482120D01*
X167985440Y-113482120D02*
X168239440Y-113482120D01*
X168341040Y-113482120D02*
X168620440Y-113482120D01*
X168976040Y-113482120D02*
X169280840Y-113482120D01*
X170474640Y-113482120D02*
X170728640Y-113482120D01*
X170830240Y-113482120D02*
X171160440Y-113482120D01*
X160187640Y-113507520D02*
X160365440Y-113507520D01*
X160441640Y-113507520D02*
X161076640Y-113507520D01*
X161279840Y-113507520D02*
X161660840Y-113507520D01*
X161864040Y-113507520D02*
X162041840Y-113507520D01*
X162168840Y-113507520D02*
X162499040Y-113507520D01*
X163616640Y-113507520D02*
X163972240Y-113507520D01*
X164200840Y-113507520D02*
X164581840Y-113507520D01*
X164912040Y-113507520D02*
X165191440Y-113507520D01*
X166461440Y-113507520D02*
X166715440Y-113507520D01*
X166893240Y-113507520D02*
X167147240Y-113507520D01*
X167960040Y-113507520D02*
X168239440Y-113507520D01*
X168366440Y-113507520D02*
X168620440Y-113507520D01*
X168950640Y-113507520D02*
X169255440Y-113507520D01*
X170474640Y-113507520D02*
X170728640Y-113507520D01*
X170804840Y-113507520D02*
X171135040Y-113507520D01*
X160187640Y-113532920D02*
X160365440Y-113532920D01*
X160441640Y-113532920D02*
X161051240Y-113532920D01*
X161254440Y-113532920D02*
X161686240Y-113532920D01*
X161864040Y-113532920D02*
X162016440Y-113532920D01*
X162143440Y-113532920D02*
X162499040Y-113532920D01*
X163591240Y-113532920D02*
X163972240Y-113532920D01*
X164226240Y-113532920D02*
X164581840Y-113532920D01*
X164886640Y-113532920D02*
X165191440Y-113532920D01*
X166461440Y-113532920D02*
X166715440Y-113532920D01*
X166893240Y-113532920D02*
X167147240Y-113532920D01*
X167960040Y-113532920D02*
X168214040Y-113532920D01*
X168366440Y-113532920D02*
X168645840Y-113532920D01*
X168950640Y-113532920D02*
X169255440Y-113532920D01*
X170474640Y-113532920D02*
X170728640Y-113532920D01*
X170779440Y-113532920D02*
X171109640Y-113532920D01*
X160187640Y-113558320D02*
X160365440Y-113558320D01*
X160441640Y-113558320D02*
X161025840Y-113558320D01*
X161254440Y-113558320D02*
X161686240Y-113558320D01*
X161864040Y-113558320D02*
X161965640Y-113558320D01*
X162118040Y-113558320D02*
X162499040Y-113558320D01*
X163591240Y-113558320D02*
X163946840Y-113558320D01*
X164226240Y-113558320D02*
X164607240Y-113558320D01*
X164886640Y-113558320D02*
X165191440Y-113558320D01*
X166461440Y-113558320D02*
X166715440Y-113558320D01*
X166893240Y-113558320D02*
X167147240Y-113558320D01*
X167960040Y-113558320D02*
X168214040Y-113558320D01*
X168366440Y-113558320D02*
X168645840Y-113558320D01*
X168950640Y-113558320D02*
X169230040Y-113558320D01*
X170474640Y-113558320D02*
X170728640Y-113558320D01*
X170754040Y-113558320D02*
X171084240Y-113558320D01*
X160187640Y-113583720D02*
X160365440Y-113583720D01*
X160441640Y-113583720D02*
X161000440Y-113583720D01*
X161229040Y-113583720D02*
X161686240Y-113583720D01*
X161864040Y-113583720D02*
X161940240Y-113583720D01*
X162092640Y-113583720D02*
X162499040Y-113583720D01*
X163565840Y-113583720D02*
X163946840Y-113583720D01*
X164251640Y-113583720D02*
X164607240Y-113583720D01*
X164886640Y-113583720D02*
X165166040Y-113583720D01*
X166461440Y-113583720D02*
X166715440Y-113583720D01*
X166893240Y-113583720D02*
X167147240Y-113583720D01*
X167934640Y-113583720D02*
X168214040Y-113583720D01*
X168391840Y-113583720D02*
X168645840Y-113583720D01*
X168950640Y-113583720D02*
X169230040Y-113583720D01*
X170474640Y-113583720D02*
X170728640Y-113583720D01*
X170754040Y-113583720D02*
X171058840Y-113583720D01*
X160187640Y-113609120D02*
X160365440Y-113609120D01*
X160441640Y-113609120D02*
X160975040Y-113609120D01*
X161229040Y-113609120D02*
X161711640Y-113609120D01*
X161864040Y-113609120D02*
X161914840Y-113609120D01*
X162067240Y-113609120D02*
X162499040Y-113609120D01*
X163565840Y-113609120D02*
X163921440Y-113609120D01*
X164251640Y-113609120D02*
X164632640Y-113609120D01*
X164886640Y-113609120D02*
X165166040Y-113609120D01*
X166461440Y-113609120D02*
X166715440Y-113609120D01*
X166893240Y-113609120D02*
X167147240Y-113609120D01*
X167934640Y-113609120D02*
X168188640Y-113609120D01*
X168391840Y-113609120D02*
X168671240Y-113609120D01*
X168950640Y-113609120D02*
X169230040Y-113609120D01*
X170474640Y-113609120D02*
X171033440Y-113609120D01*
X160187640Y-113634520D02*
X160365440Y-113634520D01*
X160441640Y-113634520D02*
X160949640Y-113634520D01*
X161229040Y-113634520D02*
X161711640Y-113634520D01*
X161864040Y-113634520D02*
X161889440Y-113634520D01*
X162041840Y-113634520D02*
X162499040Y-113634520D01*
X163540440Y-113634520D02*
X163921440Y-113634520D01*
X164277040Y-113634520D02*
X164632640Y-113634520D01*
X164886640Y-113634520D02*
X165166040Y-113634520D01*
X165521640Y-113634520D02*
X166156640Y-113634520D01*
X166461440Y-113634520D02*
X166715440Y-113634520D01*
X166893240Y-113634520D02*
X167147240Y-113634520D01*
X167934640Y-113634520D02*
X168188640Y-113634520D01*
X168391840Y-113634520D02*
X168671240Y-113634520D01*
X168950640Y-113634520D02*
X169230040Y-113634520D01*
X170474640Y-113634520D02*
X171008040Y-113634520D01*
X160187640Y-113659920D02*
X160365440Y-113659920D01*
X160441640Y-113659920D02*
X160924240Y-113659920D01*
X161229040Y-113659920D02*
X161711640Y-113659920D01*
X162016440Y-113659920D02*
X162499040Y-113659920D01*
X163540440Y-113659920D02*
X163896040Y-113659920D01*
X164277040Y-113659920D02*
X164658040Y-113659920D01*
X164886640Y-113659920D02*
X165166040Y-113659920D01*
X165521640Y-113659920D02*
X166156640Y-113659920D01*
X166461440Y-113659920D02*
X166715440Y-113659920D01*
X166893240Y-113659920D02*
X167147240Y-113659920D01*
X167909240Y-113659920D02*
X168188640Y-113659920D01*
X168417240Y-113659920D02*
X168696640Y-113659920D01*
X168950640Y-113659920D02*
X169230040Y-113659920D01*
X170474640Y-113659920D02*
X171008040Y-113659920D01*
X160187640Y-113685320D02*
X160365440Y-113685320D01*
X160441640Y-113685320D02*
X160898840Y-113685320D01*
X161229040Y-113685320D02*
X161711640Y-113685320D01*
X161991040Y-113685320D02*
X162499040Y-113685320D01*
X163515040Y-113685320D02*
X163896040Y-113685320D01*
X164302440Y-113685320D02*
X164658040Y-113685320D01*
X164886640Y-113685320D02*
X165166040Y-113685320D01*
X165521640Y-113685320D02*
X166156640Y-113685320D01*
X166461440Y-113685320D02*
X166715440Y-113685320D01*
X166893240Y-113685320D02*
X167147240Y-113685320D01*
X167909240Y-113685320D02*
X168163240Y-113685320D01*
X168417240Y-113685320D02*
X168696640Y-113685320D01*
X168950640Y-113685320D02*
X169230040Y-113685320D01*
X170474640Y-113685320D02*
X171033440Y-113685320D01*
X160187640Y-113710720D02*
X160365440Y-113710720D01*
X160441640Y-113710720D02*
X160873440Y-113710720D01*
X161051240Y-113710720D02*
X161076640Y-113710720D01*
X161229040Y-113710720D02*
X161711640Y-113710720D01*
X161965640Y-113710720D02*
X162499040Y-113710720D01*
X163515040Y-113710720D02*
X163870640Y-113710720D01*
X164302440Y-113710720D02*
X164683440Y-113710720D01*
X164886640Y-113710720D02*
X165166040Y-113710720D01*
X165521640Y-113710720D02*
X166156640Y-113710720D01*
X166461440Y-113710720D02*
X166715440Y-113710720D01*
X166893240Y-113710720D02*
X167147240Y-113710720D01*
X167909240Y-113710720D02*
X168163240Y-113710720D01*
X168417240Y-113710720D02*
X168696640Y-113710720D01*
X168950640Y-113710720D02*
X169230040Y-113710720D01*
X170474640Y-113710720D02*
X171058840Y-113710720D01*
X160187640Y-113736120D02*
X160365440Y-113736120D01*
X160441640Y-113736120D02*
X160848040Y-113736120D01*
X161025840Y-113736120D02*
X161076640Y-113736120D01*
X161229040Y-113736120D02*
X161711640Y-113736120D01*
X161940240Y-113736120D02*
X162499040Y-113736120D01*
X163489640Y-113736120D02*
X163870640Y-113736120D01*
X164327840Y-113736120D02*
X164683440Y-113736120D01*
X164886640Y-113736120D02*
X165166040Y-113736120D01*
X165521640Y-113736120D02*
X166156640Y-113736120D01*
X166461440Y-113736120D02*
X166715440Y-113736120D01*
X166893240Y-113736120D02*
X167147240Y-113736120D01*
X167883840Y-113736120D02*
X168163240Y-113736120D01*
X168442640Y-113736120D02*
X168722040Y-113736120D01*
X168950640Y-113736120D02*
X169230040Y-113736120D01*
X170474640Y-113736120D02*
X171084240Y-113736120D01*
X160187640Y-113761520D02*
X160365440Y-113761520D01*
X160441640Y-113761520D02*
X160822640Y-113761520D01*
X161000440Y-113761520D02*
X161076640Y-113761520D01*
X161229040Y-113761520D02*
X161711640Y-113761520D01*
X161914840Y-113761520D02*
X162499040Y-113761520D01*
X163489640Y-113761520D02*
X163870640Y-113761520D01*
X164327840Y-113761520D02*
X164708840Y-113761520D01*
X164886640Y-113761520D02*
X165166040Y-113761520D01*
X165521640Y-113761520D02*
X166156640Y-113761520D01*
X166461440Y-113761520D02*
X166715440Y-113761520D01*
X166893240Y-113761520D02*
X167147240Y-113761520D01*
X167883840Y-113761520D02*
X168137840Y-113761520D01*
X168442640Y-113761520D02*
X168722040Y-113761520D01*
X168950640Y-113761520D02*
X169230040Y-113761520D01*
X170474640Y-113761520D02*
X170728640Y-113761520D01*
X170754040Y-113761520D02*
X171084240Y-113761520D01*
X160187640Y-113786920D02*
X160365440Y-113786920D01*
X160441640Y-113786920D02*
X160797240Y-113786920D01*
X160975040Y-113786920D02*
X161076640Y-113786920D01*
X161229040Y-113786920D02*
X161686240Y-113786920D01*
X161889440Y-113786920D02*
X162499040Y-113786920D01*
X163464240Y-113786920D02*
X163845240Y-113786920D01*
X164353240Y-113786920D02*
X164708840Y-113786920D01*
X164886640Y-113786920D02*
X165166040Y-113786920D01*
X165521640Y-113786920D02*
X166156640Y-113786920D01*
X166461440Y-113786920D02*
X166715440Y-113786920D01*
X166893240Y-113786920D02*
X167147240Y-113786920D01*
X167858440Y-113786920D02*
X168137840Y-113786920D01*
X168442640Y-113786920D02*
X168722040Y-113786920D01*
X168950640Y-113786920D02*
X169230040Y-113786920D01*
X170474640Y-113786920D02*
X170728640Y-113786920D01*
X170779440Y-113786920D02*
X171109640Y-113786920D01*
X160187640Y-113812320D02*
X160365440Y-113812320D01*
X160441640Y-113812320D02*
X160771840Y-113812320D01*
X160949640Y-113812320D02*
X161076640Y-113812320D01*
X161254440Y-113812320D02*
X161686240Y-113812320D01*
X161864040Y-113812320D02*
X162499040Y-113812320D01*
X163464240Y-113812320D02*
X163845240Y-113812320D01*
X164353240Y-113812320D02*
X164734240Y-113812320D01*
X164886640Y-113812320D02*
X165166040Y-113812320D01*
X165521640Y-113812320D02*
X166156640Y-113812320D01*
X166461440Y-113812320D02*
X166715440Y-113812320D01*
X166893240Y-113812320D02*
X167147240Y-113812320D01*
X167858440Y-113812320D02*
X168747440Y-113812320D01*
X168950640Y-113812320D02*
X169230040Y-113812320D01*
X170474640Y-113812320D02*
X170728640Y-113812320D01*
X170804840Y-113812320D02*
X171135040Y-113812320D01*
X160187640Y-113837720D02*
X160365440Y-113837720D01*
X160441640Y-113837720D02*
X160746440Y-113837720D01*
X160924240Y-113837720D02*
X161076640Y-113837720D01*
X161254440Y-113837720D02*
X161660840Y-113837720D01*
X161838640Y-113837720D02*
X162499040Y-113837720D01*
X163438840Y-113837720D02*
X163819840Y-113837720D01*
X164378640Y-113837720D02*
X164734240Y-113837720D01*
X164886640Y-113837720D02*
X165166040Y-113837720D01*
X165521640Y-113837720D02*
X166156640Y-113837720D01*
X166461440Y-113837720D02*
X166715440Y-113837720D01*
X166893240Y-113837720D02*
X167147240Y-113837720D01*
X167858440Y-113837720D02*
X168747440Y-113837720D01*
X168950640Y-113837720D02*
X169255440Y-113837720D01*
X170474640Y-113837720D02*
X170728640Y-113837720D01*
X170830240Y-113837720D02*
X171160440Y-113837720D01*
X160187640Y-113863120D02*
X160365440Y-113863120D01*
X160441640Y-113863120D02*
X160721040Y-113863120D01*
X160898840Y-113863120D02*
X161076640Y-113863120D01*
X161279840Y-113863120D02*
X161660840Y-113863120D01*
X161813240Y-113863120D02*
X162499040Y-113863120D01*
X163438840Y-113863120D02*
X163819840Y-113863120D01*
X164378640Y-113863120D02*
X164759640Y-113863120D01*
X164886640Y-113863120D02*
X165191440Y-113863120D01*
X165902640Y-113863120D02*
X166156640Y-113863120D01*
X166461440Y-113863120D02*
X166715440Y-113863120D01*
X166893240Y-113863120D02*
X167147240Y-113863120D01*
X167833040Y-113863120D02*
X168747440Y-113863120D01*
X168950640Y-113863120D02*
X169255440Y-113863120D01*
X170474640Y-113863120D02*
X170728640Y-113863120D01*
X170830240Y-113863120D02*
X171185840Y-113863120D01*
X160187640Y-113888520D02*
X160365440Y-113888520D01*
X160441640Y-113888520D02*
X160695640Y-113888520D01*
X160873440Y-113888520D02*
X161051240Y-113888520D01*
X161305240Y-113888520D02*
X161610040Y-113888520D01*
X161787840Y-113888520D02*
X162499040Y-113888520D01*
X163413440Y-113888520D02*
X163794440Y-113888520D01*
X164404040Y-113888520D02*
X164759640Y-113888520D01*
X164886640Y-113888520D02*
X165191440Y-113888520D01*
X165902640Y-113888520D02*
X166156640Y-113888520D01*
X166461440Y-113888520D02*
X166715440Y-113888520D01*
X166893240Y-113888520D02*
X167147240Y-113888520D01*
X167833040Y-113888520D02*
X168772840Y-113888520D01*
X168950640Y-113888520D02*
X169255440Y-113888520D01*
X170474640Y-113888520D02*
X170728640Y-113888520D01*
X170855640Y-113888520D02*
X171211240Y-113888520D01*
X160187640Y-113913920D02*
X160365440Y-113913920D01*
X160441640Y-113913920D02*
X160670240Y-113913920D01*
X160848040Y-113913920D02*
X161025840Y-113913920D01*
X161356040Y-113913920D02*
X161584640Y-113913920D01*
X161762440Y-113913920D02*
X162499040Y-113913920D01*
X163413440Y-113913920D02*
X163794440Y-113913920D01*
X164404040Y-113913920D02*
X164785040Y-113913920D01*
X164912040Y-113913920D02*
X165191440Y-113913920D01*
X165902640Y-113913920D02*
X166156640Y-113913920D01*
X166461440Y-113913920D02*
X166715440Y-113913920D01*
X166893240Y-113913920D02*
X167147240Y-113913920D01*
X167833040Y-113913920D02*
X168772840Y-113913920D01*
X168976040Y-113913920D02*
X169280840Y-113913920D01*
X170474640Y-113913920D02*
X170728640Y-113913920D01*
X170881040Y-113913920D02*
X171236640Y-113913920D01*
X160187640Y-113939320D02*
X160365440Y-113939320D01*
X160441640Y-113939320D02*
X160670240Y-113939320D01*
X160822640Y-113939320D02*
X161000440Y-113939320D01*
X161152840Y-113939320D02*
X161178240Y-113939320D01*
X161432240Y-113939320D02*
X161483040Y-113939320D01*
X161762440Y-113939320D02*
X162499040Y-113939320D01*
X163388040Y-113939320D02*
X163769040Y-113939320D01*
X164429440Y-113939320D02*
X164785040Y-113939320D01*
X164912040Y-113939320D02*
X165216840Y-113939320D01*
X165902640Y-113939320D02*
X166156640Y-113939320D01*
X166461440Y-113939320D02*
X166715440Y-113939320D01*
X166893240Y-113939320D02*
X167147240Y-113939320D01*
X167807640Y-113939320D02*
X168798240Y-113939320D01*
X168976040Y-113939320D02*
X169280840Y-113939320D01*
X170474640Y-113939320D02*
X170728640Y-113939320D01*
X170906440Y-113939320D02*
X171262040Y-113939320D01*
X160187640Y-113964720D02*
X160365440Y-113964720D01*
X160441640Y-113964720D02*
X160644840Y-113964720D01*
X160797240Y-113964720D02*
X160975040Y-113964720D01*
X161127440Y-113964720D02*
X161203640Y-113964720D01*
X161737040Y-113964720D02*
X162499040Y-113964720D01*
X163388040Y-113964720D02*
X163769040Y-113964720D01*
X164429440Y-113964720D02*
X164810440Y-113964720D01*
X164912040Y-113964720D02*
X165242240Y-113964720D01*
X165902640Y-113964720D02*
X166156640Y-113964720D01*
X166461440Y-113964720D02*
X166715440Y-113964720D01*
X166893240Y-113964720D02*
X167147240Y-113964720D01*
X167807640Y-113964720D02*
X168798240Y-113964720D01*
X168976040Y-113964720D02*
X169306240Y-113964720D01*
X170474640Y-113964720D02*
X170728640Y-113964720D01*
X170931840Y-113964720D02*
X171287440Y-113964720D01*
X160187640Y-113990120D02*
X160365440Y-113990120D01*
X160441640Y-113990120D02*
X160619440Y-113990120D01*
X160771840Y-113990120D02*
X160949640Y-113990120D01*
X161102040Y-113990120D02*
X161229040Y-113990120D01*
X161686240Y-113990120D02*
X162499040Y-113990120D01*
X163362640Y-113990120D02*
X164302440Y-113990120D01*
X164454840Y-113990120D02*
X164810440Y-113990120D01*
X164912040Y-113990120D02*
X165242240Y-113990120D01*
X165902640Y-113990120D02*
X166156640Y-113990120D01*
X166461440Y-113990120D02*
X166715440Y-113990120D01*
X166893240Y-113990120D02*
X167147240Y-113990120D01*
X167807640Y-113990120D02*
X168798240Y-113990120D01*
X169001440Y-113990120D02*
X169331640Y-113990120D01*
X170474640Y-113990120D02*
X170728640Y-113990120D01*
X170957240Y-113990120D02*
X171312840Y-113990120D01*
X160187640Y-114015520D02*
X160365440Y-114015520D01*
X160441640Y-114015520D02*
X160594040Y-114015520D01*
X160746440Y-114015520D02*
X160924240Y-114015520D01*
X161076640Y-114015520D02*
X161254440Y-114015520D01*
X161660840Y-114015520D02*
X162499040Y-114015520D01*
X163362640Y-114015520D02*
X164302440Y-114015520D01*
X164454840Y-114015520D02*
X164835840Y-114015520D01*
X164937440Y-114015520D02*
X165267640Y-114015520D01*
X165902640Y-114015520D02*
X166156640Y-114015520D01*
X166461440Y-114015520D02*
X166715440Y-114015520D01*
X166893240Y-114015520D02*
X167147240Y-114015520D01*
X167782240Y-114015520D02*
X168823640Y-114015520D01*
X169001440Y-114015520D02*
X169357040Y-114015520D01*
X170474640Y-114015520D02*
X170728640Y-114015520D01*
X170982640Y-114015520D02*
X171312840Y-114015520D01*
X160187640Y-114040920D02*
X160365440Y-114040920D01*
X160441640Y-114040920D02*
X160568640Y-114040920D01*
X160721040Y-114040920D02*
X160898840Y-114040920D01*
X161051240Y-114040920D02*
X161330640Y-114040920D01*
X161610040Y-114040920D02*
X162499040Y-114040920D01*
X163337240Y-114040920D02*
X164327840Y-114040920D01*
X164480240Y-114040920D02*
X164835840Y-114040920D01*
X164937440Y-114040920D02*
X165293040Y-114040920D01*
X165902640Y-114040920D02*
X166156640Y-114040920D01*
X166461440Y-114040920D02*
X166715440Y-114040920D01*
X166893240Y-114040920D02*
X167147240Y-114040920D01*
X167782240Y-114040920D02*
X168061640Y-114040920D01*
X168544240Y-114040920D02*
X168823640Y-114040920D01*
X169001440Y-114040920D02*
X169382440Y-114040920D01*
X170474640Y-114040920D02*
X170728640Y-114040920D01*
X170982640Y-114040920D02*
X171338240Y-114040920D01*
X160187640Y-114066320D02*
X160365440Y-114066320D01*
X160441640Y-114066320D02*
X160543240Y-114066320D01*
X160695640Y-114066320D02*
X160873440Y-114066320D01*
X161025840Y-114066320D02*
X161406840Y-114066320D01*
X161508440Y-114066320D02*
X162499040Y-114066320D01*
X163337240Y-114066320D02*
X164327840Y-114066320D01*
X164480240Y-114066320D02*
X164861240Y-114066320D01*
X164962840Y-114066320D02*
X165318440Y-114066320D01*
X165902640Y-114066320D02*
X166156640Y-114066320D01*
X166461440Y-114066320D02*
X166715440Y-114066320D01*
X166893240Y-114066320D02*
X167147240Y-114066320D01*
X167756840Y-114066320D02*
X168036240Y-114066320D01*
X168544240Y-114066320D02*
X168823640Y-114066320D01*
X169026840Y-114066320D02*
X169407840Y-114066320D01*
X170474640Y-114066320D02*
X170728640Y-114066320D01*
X171008040Y-114066320D02*
X171363640Y-114066320D01*
X160187640Y-114091720D02*
X160365440Y-114091720D01*
X160441640Y-114091720D02*
X160517840Y-114091720D01*
X160670240Y-114091720D02*
X160848040Y-114091720D01*
X161000440Y-114091720D02*
X162499040Y-114091720D01*
X163311840Y-114091720D02*
X164353240Y-114091720D01*
X164505640Y-114091720D02*
X164861240Y-114091720D01*
X164962840Y-114091720D02*
X165343840Y-114091720D01*
X165902640Y-114091720D02*
X166156640Y-114091720D01*
X166461440Y-114091720D02*
X166715440Y-114091720D01*
X166893240Y-114091720D02*
X167147240Y-114091720D01*
X167756840Y-114091720D02*
X168036240Y-114091720D01*
X168544240Y-114091720D02*
X168849040Y-114091720D01*
X169052240Y-114091720D02*
X169433240Y-114091720D01*
X170474640Y-114091720D02*
X170728640Y-114091720D01*
X171033440Y-114091720D02*
X171389040Y-114091720D01*
X160187640Y-114117120D02*
X160365440Y-114117120D01*
X160441640Y-114117120D02*
X160492440Y-114117120D01*
X160644840Y-114117120D02*
X160822640Y-114117120D01*
X160975040Y-114117120D02*
X162499040Y-114117120D01*
X163311840Y-114117120D02*
X164353240Y-114117120D01*
X164505640Y-114117120D02*
X164886640Y-114117120D01*
X164988240Y-114117120D02*
X165369240Y-114117120D01*
X165877240Y-114117120D02*
X166156640Y-114117120D01*
X166461440Y-114117120D02*
X166715440Y-114117120D01*
X166893240Y-114117120D02*
X167147240Y-114117120D01*
X167756840Y-114117120D02*
X168036240Y-114117120D01*
X168569640Y-114117120D02*
X168849040Y-114117120D01*
X169052240Y-114117120D02*
X169484040Y-114117120D01*
X169966640Y-114117120D02*
X170068240Y-114117120D01*
X170474640Y-114117120D02*
X170728640Y-114117120D01*
X171058840Y-114117120D02*
X171414440Y-114117120D01*
X160187640Y-114142520D02*
X160365440Y-114142520D01*
X160441640Y-114142520D02*
X160467040Y-114142520D01*
X160619440Y-114142520D02*
X160797240Y-114142520D01*
X160949640Y-114142520D02*
X162499040Y-114142520D01*
X163286440Y-114142520D02*
X164378640Y-114142520D01*
X164531040Y-114142520D02*
X164886640Y-114142520D01*
X164988240Y-114142520D02*
X165420040Y-114142520D01*
X165851840Y-114142520D02*
X166156640Y-114142520D01*
X166461440Y-114142520D02*
X166715440Y-114142520D01*
X166893240Y-114142520D02*
X167147240Y-114142520D01*
X167731440Y-114142520D02*
X168010840Y-114142520D01*
X168569640Y-114142520D02*
X168874440Y-114142520D01*
X169077640Y-114142520D02*
X169560240Y-114142520D01*
X169890440Y-114142520D02*
X170068240Y-114142520D01*
X170474640Y-114142520D02*
X170728640Y-114142520D01*
X171084240Y-114142520D02*
X171439840Y-114142520D01*
X160187640Y-114167920D02*
X160365440Y-114167920D01*
X160441640Y-114167920D02*
X160467040Y-114167920D01*
X160594040Y-114167920D02*
X160771840Y-114167920D01*
X160924240Y-114167920D02*
X162499040Y-114167920D01*
X163286440Y-114167920D02*
X164378640Y-114167920D01*
X164531040Y-114167920D02*
X164912040Y-114167920D01*
X165013640Y-114167920D02*
X165496240Y-114167920D01*
X165775640Y-114167920D02*
X166156640Y-114167920D01*
X166461440Y-114167920D02*
X166715440Y-114167920D01*
X166893240Y-114167920D02*
X168010840Y-114167920D01*
X168569640Y-114167920D02*
X168874440Y-114167920D01*
X169103040Y-114167920D02*
X170093640Y-114167920D01*
X170474640Y-114167920D02*
X170728640Y-114167920D01*
X171109640Y-114167920D02*
X171465240Y-114167920D01*
X160187640Y-114193320D02*
X160365440Y-114193320D01*
X160441640Y-114193320D02*
X160467040Y-114193320D01*
X160568640Y-114193320D02*
X160746440Y-114193320D01*
X160898840Y-114193320D02*
X162499040Y-114193320D01*
X163261040Y-114193320D02*
X164404040Y-114193320D01*
X164556440Y-114193320D02*
X164912040Y-114193320D01*
X165039040Y-114193320D02*
X166156640Y-114193320D01*
X166461440Y-114193320D02*
X166715440Y-114193320D01*
X166893240Y-114193320D02*
X167985440Y-114193320D01*
X168595040Y-114193320D02*
X168874440Y-114193320D01*
X169103040Y-114193320D02*
X170093640Y-114193320D01*
X170474640Y-114193320D02*
X170728640Y-114193320D01*
X171135040Y-114193320D02*
X171490640Y-114193320D01*
X160187640Y-114218720D02*
X160365440Y-114218720D01*
X160441640Y-114218720D02*
X160467040Y-114218720D01*
X160543240Y-114218720D02*
X160721040Y-114218720D01*
X160873440Y-114218720D02*
X162499040Y-114218720D01*
X163261040Y-114218720D02*
X164404040Y-114218720D01*
X164556440Y-114218720D02*
X164937440Y-114218720D01*
X165064440Y-114218720D02*
X166156640Y-114218720D01*
X166461440Y-114218720D02*
X166715440Y-114218720D01*
X166893240Y-114218720D02*
X167985440Y-114218720D01*
X168595040Y-114218720D02*
X168899840Y-114218720D01*
X169128440Y-114218720D02*
X170119040Y-114218720D01*
X170474640Y-114218720D02*
X170728640Y-114218720D01*
X171160440Y-114218720D02*
X171516040Y-114218720D01*
X160187640Y-114244120D02*
X160365440Y-114244120D01*
X160441640Y-114244120D02*
X160467040Y-114244120D01*
X160517840Y-114244120D02*
X160695640Y-114244120D01*
X160848040Y-114244120D02*
X162499040Y-114244120D01*
X163235640Y-114244120D02*
X164429440Y-114244120D01*
X164581840Y-114244120D02*
X164937440Y-114244120D01*
X165089840Y-114244120D02*
X166156640Y-114244120D01*
X166461440Y-114244120D02*
X166715440Y-114244120D01*
X166893240Y-114244120D02*
X167985440Y-114244120D01*
X168620440Y-114244120D02*
X168899840Y-114244120D01*
X169153840Y-114244120D02*
X170119040Y-114244120D01*
X170474640Y-114244120D02*
X170728640Y-114244120D01*
X171160440Y-114244120D02*
X171541440Y-114244120D01*
X160187640Y-114269520D02*
X160340040Y-114269520D01*
X160441640Y-114269520D02*
X160467040Y-114269520D01*
X160492440Y-114269520D02*
X160670240Y-114269520D01*
X160822640Y-114269520D02*
X162499040Y-114269520D01*
X163235640Y-114269520D02*
X164429440Y-114269520D01*
X164581840Y-114269520D02*
X164962840Y-114269520D01*
X165089840Y-114269520D02*
X166131240Y-114269520D01*
X166461440Y-114269520D02*
X166715440Y-114269520D01*
X166893240Y-114269520D02*
X167960040Y-114269520D01*
X168620440Y-114269520D02*
X168899840Y-114269520D01*
X169204640Y-114269520D02*
X170119040Y-114269520D01*
X170474640Y-114269520D02*
X170728640Y-114269520D01*
X171185840Y-114269520D02*
X171541440Y-114269520D01*
X160187640Y-114294920D02*
X160314640Y-114294920D01*
X160441640Y-114294920D02*
X160644840Y-114294920D01*
X160797240Y-114294920D02*
X162473640Y-114294920D01*
X163235640Y-114294920D02*
X164429440Y-114294920D01*
X164607240Y-114294920D02*
X164962840Y-114294920D01*
X165140640Y-114294920D02*
X166105840Y-114294920D01*
X166461440Y-114294920D02*
X166715440Y-114294920D01*
X166893240Y-114294920D02*
X167960040Y-114294920D01*
X168620440Y-114294920D02*
X168925240Y-114294920D01*
X169230040Y-114294920D02*
X170144440Y-114294920D01*
X170474640Y-114294920D02*
X170728640Y-114294920D01*
X171211240Y-114294920D02*
X171566840Y-114294920D01*
X160187640Y-114320320D02*
X160289240Y-114320320D01*
X160441640Y-114320320D02*
X160619440Y-114320320D01*
X160771840Y-114320320D02*
X162448240Y-114320320D01*
X164607240Y-114320320D02*
X164988240Y-114320320D01*
X165166040Y-114320320D02*
X166055040Y-114320320D01*
X166461440Y-114320320D02*
X166715440Y-114320320D01*
X166893240Y-114320320D02*
X167960040Y-114320320D01*
X168645840Y-114320320D02*
X168925240Y-114320320D01*
X169280840Y-114320320D02*
X170144440Y-114320320D01*
X170474640Y-114320320D02*
X170728640Y-114320320D01*
X171236640Y-114320320D02*
X171592240Y-114320320D01*
X160187640Y-114345720D02*
X160263840Y-114345720D01*
X160441640Y-114345720D02*
X160594040Y-114345720D01*
X160746440Y-114345720D02*
X162422840Y-114345720D01*
X164632640Y-114345720D02*
X164988240Y-114345720D01*
X165191440Y-114345720D02*
X166029640Y-114345720D01*
X166461440Y-114345720D02*
X166715440Y-114345720D01*
X166893240Y-114345720D02*
X167934640Y-114345720D01*
X168645840Y-114345720D02*
X168925240Y-114345720D01*
X169306240Y-114345720D02*
X170068240Y-114345720D01*
X170474640Y-114345720D02*
X170728640Y-114345720D01*
X171262040Y-114345720D02*
X171617640Y-114345720D01*
X160441640Y-114371120D02*
X160568640Y-114371120D01*
X160721040Y-114371120D02*
X162397440Y-114371120D01*
X164632640Y-114371120D02*
X165013640Y-114371120D01*
X165242240Y-114371120D02*
X165978840Y-114371120D01*
X166461440Y-114371120D02*
X166715440Y-114371120D01*
X166893240Y-114371120D02*
X167934640Y-114371120D01*
X168671240Y-114371120D02*
X168950640Y-114371120D01*
X169382440Y-114371120D02*
X169992040Y-114371120D01*
X170474640Y-114371120D02*
X170728640Y-114371120D01*
X171287440Y-114371120D02*
X171643040Y-114371120D01*
X160441640Y-114396520D02*
X160543240Y-114396520D01*
X160695640Y-114396520D02*
X162372040Y-114396520D01*
X164658040Y-114396520D02*
X165013640Y-114396520D01*
X165318440Y-114396520D02*
X165902640Y-114396520D01*
X169458640Y-114396520D02*
X169890440Y-114396520D01*
X160441640Y-114421920D02*
X160517840Y-114421920D01*
X160670240Y-114421920D02*
X162346640Y-114421920D01*
X164658040Y-114421920D02*
X165039040Y-114421920D01*
X165394640Y-114421920D02*
X165826440Y-114421920D01*
X160441640Y-114447320D02*
X160492440Y-114447320D01*
X160644840Y-114447320D02*
X162321240Y-114447320D01*
X164683440Y-114447320D02*
X165039040Y-114447320D01*
X160441640Y-114472720D02*
X160467040Y-114472720D01*
X160619440Y-114472720D02*
X162295840Y-114472720D01*
X162956240Y-114472720D02*
X164429440Y-114472720D01*
X164683440Y-114472720D02*
X165064440Y-114472720D01*
X160441640Y-114498120D02*
X160467040Y-114498120D01*
X160594040Y-114498120D02*
X162270440Y-114498120D01*
X162956240Y-114498120D02*
X164429440Y-114498120D01*
X164708840Y-114498120D02*
X165064440Y-114498120D01*
X160441640Y-114523520D02*
X160467040Y-114523520D01*
X160568640Y-114523520D02*
X162245040Y-114523520D01*
X162956240Y-114523520D02*
X164429440Y-114523520D01*
X164708840Y-114523520D02*
X165089840Y-114523520D01*
X160441640Y-114548920D02*
X160467040Y-114548920D01*
X160543240Y-114548920D02*
X162219640Y-114548920D01*
X162956240Y-114548920D02*
X164429440Y-114548920D01*
X164734240Y-114548920D02*
X165089840Y-114548920D01*
X160441640Y-114574320D02*
X160467040Y-114574320D01*
X160517840Y-114574320D02*
X162194240Y-114574320D01*
X162956240Y-114574320D02*
X164429440Y-114574320D01*
X164734240Y-114574320D02*
X165115240Y-114574320D01*
X160441640Y-114599720D02*
X160467040Y-114599720D01*
X160492440Y-114599720D02*
X162168840Y-114599720D01*
X162956240Y-114599720D02*
X164429440Y-114599720D01*
X164759640Y-114599720D02*
X165140640Y-114599720D01*
X160441640Y-114625120D02*
X162143440Y-114625120D01*
X162956240Y-114625120D02*
X164429440Y-114625120D01*
X164759640Y-114625120D02*
X165140640Y-114625120D01*
X160441640Y-114650520D02*
X162118040Y-114650520D01*
X162956240Y-114650520D02*
X164429440Y-114650520D01*
X164785040Y-114650520D02*
X165166040Y-114650520D01*
X160441640Y-114675920D02*
X162092640Y-114675920D01*
X162956240Y-114675920D02*
X164429440Y-114675920D01*
X164785040Y-114675920D02*
X165166040Y-114675920D01*
X162956240Y-114701320D02*
X164429440Y-114701320D01*
X164810440Y-114701320D02*
X165191440Y-114701320D01*
X164810440Y-114726720D02*
X165191440Y-114726720D01*
X164835840Y-114752120D02*
X165216840Y-114752120D01*
X164835840Y-114777520D02*
X165216840Y-114777520D01*
X164861240Y-114802920D02*
X165242240Y-114802920D01*
X164861240Y-114828320D02*
X165242240Y-114828320D01*
X164886640Y-114853720D02*
X165267640Y-114853720D01*
X164886640Y-114879120D02*
X165267640Y-114879120D01*
X164912040Y-114904520D02*
X165293040Y-114904520D01*
D14*
X151968200Y-105308400D02*
X151968200Y-105105200D01*
X151968200Y-105105200D02*
X152146000Y-104927400D01*
X152146000Y-104927400D02*
X152349200Y-104927400D01*
X156997400Y-104927400D02*
X156616400Y-104927400D01*
X156997400Y-104927400D02*
X156997400Y-105308400D01*
X156997400Y-109956600D02*
X156997400Y-109575600D01*
X156997400Y-109956600D02*
X156616400Y-109956600D01*
X151968200Y-109956600D02*
X152349200Y-109956600D01*
X151968200Y-109956600D02*
X151968200Y-109575600D01*
D15*
X158572200Y-98920300D02*
X158572200Y-96634300D01*
X158572200Y-96634300D02*
X159842200Y-96634300D01*
X159842200Y-96634300D02*
X159842200Y-98920300D01*
X159842200Y-98920300D02*
X158572200Y-98920300D01*
X149034500Y-107162600D02*
X149034500Y-104876600D01*
X149034500Y-104876600D02*
X150304500Y-104876600D01*
X150304500Y-104876600D02*
X150304500Y-107162600D01*
X150304500Y-107162600D02*
X149034500Y-107162600D01*
X155105100Y-102793800D02*
X152819100Y-102793800D01*
X152819100Y-102793800D02*
X152819100Y-101523800D01*
X152819100Y-101523800D02*
X155105100Y-101523800D01*
X155105100Y-101523800D02*
X155105100Y-102793800D01*
D12*
X131607900Y-112875000D02*
X131607900Y-97125000D01*
X123097900Y-97125000D02*
X131607900Y-97125000D01*
X123097900Y-112875000D02*
X131607900Y-112875000D01*
X123097900Y-112875000D02*
X123097900Y-97125000D01*
D11*
X141381480Y-109573600D02*
X144876520Y-109573600D01*
X144876520Y-102973600D02*
X141381480Y-102973600D01*
D15*
X160312100Y-99352100D02*
X162598100Y-99352100D01*
X162598100Y-99352100D02*
X162598100Y-100622100D01*
X162598100Y-100622100D02*
X160312100Y-100622100D01*
X160312100Y-100622100D02*
X160312100Y-99352100D01*
X162725100Y-98094800D02*
X162217100Y-98856800D01*
X162725100Y-96316800D02*
X162725100Y-98920300D01*
X162725100Y-98920300D02*
X161201100Y-98920300D01*
X161201100Y-98920300D02*
X161201100Y-96316800D01*
X161201100Y-96316800D02*
X162725100Y-96316800D01*
X136105900Y-96926400D02*
X133819900Y-96926400D01*
X133819900Y-96926400D02*
X133819900Y-95656400D01*
X133819900Y-95656400D02*
X136105900Y-95656400D01*
X136105900Y-95656400D02*
X136105900Y-96926400D01*
X139852400Y-109982000D02*
X139852400Y-112268000D01*
X139852400Y-112268000D02*
X138582400Y-112268000D01*
X138582400Y-112268000D02*
X138582400Y-109982000D01*
X138582400Y-109982000D02*
X139852400Y-109982000D01*
X151206200Y-97078800D02*
X151206200Y-96062800D01*
X151206200Y-96062800D02*
X152730200Y-96062800D01*
X152730200Y-96062800D02*
X152730200Y-97078800D01*
X152730200Y-98094800D02*
X152730200Y-99110800D01*
X152730200Y-99110800D02*
X151206200Y-99110800D01*
X151206200Y-99110800D02*
X151206200Y-98094800D01*
X158267400Y-96443800D02*
X158267400Y-98729800D01*
X158267400Y-98729800D02*
X156997400Y-98729800D01*
X156997400Y-98729800D02*
X156997400Y-96443800D01*
X156997400Y-96443800D02*
X158267400Y-96443800D01*
X154101800Y-97078800D02*
X154609800Y-96316800D01*
X154101800Y-98856800D02*
X154101800Y-96253300D01*
X154101800Y-96253300D02*
X155625800Y-96253300D01*
X155625800Y-96253300D02*
X155625800Y-98856800D01*
X155625800Y-98856800D02*
X154101800Y-98856800D01*
X167754300Y-97053400D02*
X166738300Y-97053400D01*
X166738300Y-97053400D02*
X166738300Y-95529400D01*
X166738300Y-95529400D02*
X167754300Y-95529400D01*
X168770300Y-95529400D02*
X169786300Y-95529400D01*
X169786300Y-95529400D02*
X169786300Y-97053400D01*
X169786300Y-97053400D02*
X168770300Y-97053400D01*
X164071300Y-98920300D02*
X164071300Y-96634300D01*
X164071300Y-96634300D02*
X165341300Y-96634300D01*
X165341300Y-96634300D02*
X165341300Y-98920300D01*
X165341300Y-98920300D02*
X164071300Y-98920300D01*
X150253700Y-114985800D02*
X150380700Y-114985800D01*
X150380700Y-114985800D02*
X150380700Y-109651800D01*
X146570700Y-109651800D02*
X146570700Y-114985800D01*
X146570700Y-114985800D02*
X150253700Y-114985800D01*
X147967700Y-114985800D02*
X147967700Y-114477800D01*
X147967700Y-114477800D02*
X148983700Y-114477800D01*
X148983700Y-114477800D02*
X148983700Y-114985800D01*
X146570700Y-109651800D02*
X150380700Y-109651800D01*
X158508700Y-111379000D02*
X158508700Y-113665000D01*
X158508700Y-113665000D02*
X157238700Y-113665000D01*
X157238700Y-113665000D02*
X157238700Y-111379000D01*
X157238700Y-111379000D02*
X158508700Y-111379000D01*
D16*
X137147300Y-95580200D02*
X139687300Y-95580200D01*
X139687300Y-95580200D02*
X139687300Y-100660200D01*
X139687300Y-100660200D02*
X137147300Y-100660200D01*
X137147300Y-100660200D02*
X137147300Y-95580200D01*
D12*
X165806381Y-105738095D02*
X164806381Y-105738095D01*
X164806381Y-105357142D01*
X164854000Y-105261904D01*
X164901619Y-105214285D01*
X164996857Y-105166666D01*
X165139714Y-105166666D01*
X165234952Y-105214285D01*
X165282571Y-105261904D01*
X165330190Y-105357142D01*
X165330190Y-105738095D01*
X165806381Y-104214285D02*
X165806381Y-104785714D01*
X165806381Y-104500000D02*
X164806381Y-104500000D01*
X164949238Y-104595238D01*
X165044476Y-104690476D01*
X165092095Y-104785714D01*
D17*
X151971829Y-103278214D02*
X151971829Y-103895071D01*
X152008114Y-103967643D01*
X152044400Y-104003929D01*
X152116971Y-104040214D01*
X152262114Y-104040214D01*
X152334686Y-104003929D01*
X152370971Y-103967643D01*
X152407257Y-103895071D01*
X152407257Y-103278214D01*
X153169257Y-104040214D02*
X152733829Y-104040214D01*
X152951543Y-104040214D02*
X152951543Y-103278214D01*
X152878972Y-103387071D01*
X152806400Y-103459643D01*
X152733829Y-103495929D01*
D14*
X159479343Y-99961700D02*
X159515629Y-99997986D01*
X159551914Y-100106843D01*
X159551914Y-100179414D01*
X159515629Y-100288271D01*
X159443057Y-100360843D01*
X159370486Y-100397128D01*
X159225343Y-100433414D01*
X159116486Y-100433414D01*
X158971343Y-100397128D01*
X158898771Y-100360843D01*
X158826200Y-100288271D01*
X158789914Y-100179414D01*
X158789914Y-100106843D01*
X158826200Y-99997986D01*
X158862486Y-99961700D01*
X158789914Y-99707700D02*
X158789914Y-99235986D01*
X159080200Y-99489986D01*
X159080200Y-99381128D01*
X159116486Y-99308557D01*
X159152771Y-99272271D01*
X159225343Y-99235986D01*
X159406771Y-99235986D01*
X159479343Y-99272271D01*
X159515629Y-99308557D01*
X159551914Y-99381128D01*
X159551914Y-99598843D01*
X159515629Y-99671414D01*
X159479343Y-99707700D01*
X149941643Y-104025700D02*
X149977929Y-104061986D01*
X150014214Y-104170843D01*
X150014214Y-104243414D01*
X149977929Y-104352271D01*
X149905357Y-104424843D01*
X149832786Y-104461128D01*
X149687643Y-104497414D01*
X149578786Y-104497414D01*
X149433643Y-104461128D01*
X149361071Y-104424843D01*
X149288500Y-104352271D01*
X149252214Y-104243414D01*
X149252214Y-104170843D01*
X149288500Y-104061986D01*
X149324786Y-104025700D01*
X149506214Y-103372557D02*
X150014214Y-103372557D01*
X149215929Y-103553986D02*
X149760214Y-103735414D01*
X149760214Y-103263700D01*
X153835100Y-101122843D02*
X153798814Y-101159129D01*
X153689957Y-101195414D01*
X153617386Y-101195414D01*
X153508529Y-101159129D01*
X153435957Y-101086557D01*
X153399672Y-101013986D01*
X153363386Y-100868843D01*
X153363386Y-100759986D01*
X153399672Y-100614843D01*
X153435957Y-100542271D01*
X153508529Y-100469700D01*
X153617386Y-100433414D01*
X153689957Y-100433414D01*
X153798814Y-100469700D01*
X153835100Y-100505986D01*
X154125386Y-100505986D02*
X154161672Y-100469700D01*
X154234243Y-100433414D01*
X154415672Y-100433414D01*
X154488243Y-100469700D01*
X154524529Y-100505986D01*
X154560814Y-100578557D01*
X154560814Y-100651129D01*
X154524529Y-100759986D01*
X154089100Y-101195414D01*
X154560814Y-101195414D01*
D12*
X138145781Y-105728995D02*
X137145781Y-105728995D01*
X137145781Y-105348042D01*
X137193400Y-105252804D01*
X137241019Y-105205185D01*
X137336257Y-105157566D01*
X137479114Y-105157566D01*
X137574352Y-105205185D01*
X137621971Y-105252804D01*
X137669590Y-105348042D01*
X137669590Y-105728995D01*
X137241019Y-104776614D02*
X137193400Y-104728995D01*
X137145781Y-104633757D01*
X137145781Y-104395661D01*
X137193400Y-104300423D01*
X137241019Y-104252804D01*
X137336257Y-104205185D01*
X137431495Y-104205185D01*
X137574352Y-104252804D01*
X138145781Y-104824233D01*
X138145781Y-104205185D01*
D18*
X147613914Y-104364971D02*
X148230771Y-104364971D01*
X148303343Y-104328686D01*
X148339629Y-104292400D01*
X148375914Y-104219829D01*
X148375914Y-104074686D01*
X148339629Y-104002114D01*
X148303343Y-103965829D01*
X148230771Y-103929543D01*
X147613914Y-103929543D01*
X147686486Y-103602971D02*
X147650200Y-103566685D01*
X147613914Y-103494114D01*
X147613914Y-103312685D01*
X147650200Y-103240114D01*
X147686486Y-103203828D01*
X147759057Y-103167543D01*
X147831629Y-103167543D01*
X147940486Y-103203828D01*
X148375914Y-103639257D01*
X148375914Y-103167543D01*
D14*
X161328100Y-101580043D02*
X161291814Y-101616329D01*
X161182957Y-101652614D01*
X161110386Y-101652614D01*
X161001529Y-101616329D01*
X160928957Y-101543757D01*
X160892672Y-101471186D01*
X160856386Y-101326043D01*
X160856386Y-101217186D01*
X160892672Y-101072043D01*
X160928957Y-100999471D01*
X161001529Y-100926900D01*
X161110386Y-100890614D01*
X161182957Y-100890614D01*
X161291814Y-100926900D01*
X161328100Y-100963186D01*
X162017529Y-100890614D02*
X161654672Y-100890614D01*
X161618386Y-101253471D01*
X161654672Y-101217186D01*
X161727243Y-101180900D01*
X161908672Y-101180900D01*
X161981243Y-101217186D01*
X162017529Y-101253471D01*
X162053814Y-101326043D01*
X162053814Y-101507471D01*
X162017529Y-101580043D01*
X161981243Y-101616329D01*
X161908672Y-101652614D01*
X161727243Y-101652614D01*
X161654672Y-101616329D01*
X161618386Y-101580043D01*
D17*
X161382529Y-95170534D02*
X161382529Y-95787391D01*
X161418814Y-95859963D01*
X161455100Y-95896249D01*
X161527671Y-95932534D01*
X161672814Y-95932534D01*
X161745386Y-95896249D01*
X161781671Y-95859963D01*
X161817957Y-95787391D01*
X161817957Y-95170534D01*
X162507386Y-95424534D02*
X162507386Y-95932534D01*
X162325957Y-95134249D02*
X162144529Y-95678534D01*
X162616243Y-95678534D01*
D14*
X132067300Y-95877743D02*
X132031014Y-95914029D01*
X131922157Y-95950314D01*
X131849586Y-95950314D01*
X131740729Y-95914029D01*
X131668157Y-95841457D01*
X131631872Y-95768886D01*
X131595586Y-95623743D01*
X131595586Y-95514886D01*
X131631872Y-95369743D01*
X131668157Y-95297171D01*
X131740729Y-95224600D01*
X131849586Y-95188314D01*
X131922157Y-95188314D01*
X132031014Y-95224600D01*
X132067300Y-95260886D01*
X132720443Y-95188314D02*
X132575300Y-95188314D01*
X132502729Y-95224600D01*
X132466443Y-95260886D01*
X132393872Y-95369743D01*
X132357586Y-95514886D01*
X132357586Y-95805171D01*
X132393872Y-95877743D01*
X132430157Y-95914029D01*
X132502729Y-95950314D01*
X132647872Y-95950314D01*
X132720443Y-95914029D01*
X132756729Y-95877743D01*
X132793014Y-95805171D01*
X132793014Y-95623743D01*
X132756729Y-95551171D01*
X132720443Y-95514886D01*
X132647872Y-95478600D01*
X132502729Y-95478600D01*
X132430157Y-95514886D01*
X132393872Y-95551171D01*
X132357586Y-95623743D01*
X138092543Y-111252000D02*
X138128829Y-111288286D01*
X138165114Y-111397143D01*
X138165114Y-111469714D01*
X138128829Y-111578571D01*
X138056257Y-111651143D01*
X137983686Y-111687428D01*
X137838543Y-111723714D01*
X137729686Y-111723714D01*
X137584543Y-111687428D01*
X137511971Y-111651143D01*
X137439400Y-111578571D01*
X137403114Y-111469714D01*
X137403114Y-111397143D01*
X137439400Y-111288286D01*
X137475686Y-111252000D01*
X137403114Y-110998000D02*
X137403114Y-110490000D01*
X138165114Y-110816571D01*
D15*
X150678243Y-97053400D02*
X150714529Y-97089686D01*
X150750814Y-97198543D01*
X150750814Y-97271114D01*
X150714529Y-97379971D01*
X150641957Y-97452543D01*
X150569386Y-97488828D01*
X150424243Y-97525114D01*
X150315386Y-97525114D01*
X150170243Y-97488828D01*
X150097671Y-97452543D01*
X150025100Y-97379971D01*
X149988814Y-97271114D01*
X149988814Y-97198543D01*
X150025100Y-97089686D01*
X150061386Y-97053400D01*
X150315386Y-96617971D02*
X150279100Y-96690543D01*
X150242814Y-96726828D01*
X150170243Y-96763114D01*
X150133957Y-96763114D01*
X150061386Y-96726828D01*
X150025100Y-96690543D01*
X149988814Y-96617971D01*
X149988814Y-96472828D01*
X150025100Y-96400257D01*
X150061386Y-96363971D01*
X150133957Y-96327686D01*
X150170243Y-96327686D01*
X150242814Y-96363971D01*
X150279100Y-96400257D01*
X150315386Y-96472828D01*
X150315386Y-96617971D01*
X150351671Y-96690543D01*
X150387957Y-96726828D01*
X150460529Y-96763114D01*
X150605671Y-96763114D01*
X150678243Y-96726828D01*
X150714529Y-96690543D01*
X150750814Y-96617971D01*
X150750814Y-96472828D01*
X150714529Y-96400257D01*
X150678243Y-96363971D01*
X150605671Y-96327686D01*
X150460529Y-96327686D01*
X150387957Y-96363971D01*
X150351671Y-96400257D01*
X150315386Y-96472828D01*
D14*
X157977114Y-99783899D02*
X157977114Y-100146756D01*
X157215114Y-100146756D01*
X157977114Y-99130757D02*
X157977114Y-99566185D01*
X157977114Y-99348471D02*
X157215114Y-99348471D01*
X157323971Y-99421042D01*
X157396543Y-99493614D01*
X157432829Y-99566185D01*
D17*
X154283229Y-99168494D02*
X154283229Y-99785351D01*
X154319514Y-99857923D01*
X154355800Y-99894209D01*
X154428371Y-99930494D01*
X154573514Y-99930494D01*
X154646086Y-99894209D01*
X154682371Y-99857923D01*
X154718657Y-99785351D01*
X154718657Y-99168494D01*
X155008943Y-99168494D02*
X155480657Y-99168494D01*
X155226657Y-99458780D01*
X155335515Y-99458780D01*
X155408086Y-99495066D01*
X155444372Y-99531351D01*
X155480657Y-99603923D01*
X155480657Y-99785351D01*
X155444372Y-99857923D01*
X155408086Y-99894209D01*
X155335515Y-99930494D01*
X155117800Y-99930494D01*
X155045229Y-99894209D01*
X155008943Y-99857923D01*
D15*
X166286543Y-96418400D02*
X166322829Y-96454686D01*
X166359114Y-96563543D01*
X166359114Y-96636114D01*
X166322829Y-96744971D01*
X166250257Y-96817543D01*
X166177686Y-96853828D01*
X166032543Y-96890114D01*
X165923686Y-96890114D01*
X165778543Y-96853828D01*
X165705971Y-96817543D01*
X165633400Y-96744971D01*
X165597114Y-96636114D01*
X165597114Y-96563543D01*
X165633400Y-96454686D01*
X165669686Y-96418400D01*
X166359114Y-95692686D02*
X166359114Y-96128114D01*
X166359114Y-95910400D02*
X165597114Y-95910400D01*
X165705971Y-95982971D01*
X165778543Y-96055543D01*
X165814829Y-96128114D01*
D14*
X165029243Y-99936300D02*
X165065529Y-99972586D01*
X165101814Y-100081443D01*
X165101814Y-100154014D01*
X165065529Y-100262871D01*
X164992957Y-100335443D01*
X164920386Y-100371728D01*
X164775243Y-100408014D01*
X164666386Y-100408014D01*
X164521243Y-100371728D01*
X164448671Y-100335443D01*
X164376100Y-100262871D01*
X164339814Y-100154014D01*
X164339814Y-100081443D01*
X164376100Y-99972586D01*
X164412386Y-99936300D01*
X165101814Y-99573443D02*
X165101814Y-99428300D01*
X165065529Y-99355728D01*
X165029243Y-99319443D01*
X164920386Y-99246871D01*
X164775243Y-99210586D01*
X164484957Y-99210586D01*
X164412386Y-99246871D01*
X164376100Y-99283157D01*
X164339814Y-99355728D01*
X164339814Y-99500871D01*
X164376100Y-99573443D01*
X164412386Y-99609728D01*
X164484957Y-99646014D01*
X164666386Y-99646014D01*
X164738957Y-99609728D01*
X164775243Y-99573443D01*
X164811529Y-99500871D01*
X164811529Y-99355728D01*
X164775243Y-99283157D01*
X164738957Y-99246871D01*
X164666386Y-99210586D01*
D16*
X152503414Y-114601171D02*
X153120271Y-114601171D01*
X153192843Y-114564886D01*
X153229129Y-114528600D01*
X153265414Y-114456029D01*
X153265414Y-114310886D01*
X153229129Y-114238314D01*
X153192843Y-114202029D01*
X153120271Y-114165743D01*
X152503414Y-114165743D01*
X152503414Y-113440028D02*
X152503414Y-113802885D01*
X152866271Y-113839171D01*
X152829986Y-113802885D01*
X152793700Y-113730314D01*
X152793700Y-113548885D01*
X152829986Y-113476314D01*
X152866271Y-113440028D01*
X152938843Y-113403743D01*
X153120271Y-113403743D01*
X153192843Y-113440028D01*
X153229129Y-113476314D01*
X153265414Y-113548885D01*
X153265414Y-113730314D01*
X153229129Y-113802885D01*
X153192843Y-113839171D01*
D14*
X159441243Y-113011857D02*
X159477529Y-113048143D01*
X159513814Y-113157000D01*
X159513814Y-113229571D01*
X159477529Y-113338428D01*
X159404957Y-113411000D01*
X159332386Y-113447285D01*
X159187243Y-113483571D01*
X159078386Y-113483571D01*
X158933243Y-113447285D01*
X158860671Y-113411000D01*
X158788100Y-113338428D01*
X158751814Y-113229571D01*
X158751814Y-113157000D01*
X158788100Y-113048143D01*
X158824386Y-113011857D01*
X159513814Y-112286143D02*
X159513814Y-112721571D01*
X159513814Y-112503857D02*
X158751814Y-112503857D01*
X158860671Y-112576428D01*
X158933243Y-112649000D01*
X158969529Y-112721571D01*
X158751814Y-111814429D02*
X158751814Y-111741857D01*
X158788100Y-111669286D01*
X158824386Y-111633000D01*
X158896957Y-111596714D01*
X159042100Y-111560429D01*
X159223529Y-111560429D01*
X159368671Y-111596714D01*
X159441243Y-111633000D01*
X159477529Y-111669286D01*
X159513814Y-111741857D01*
X159513814Y-111814429D01*
X159477529Y-111887000D01*
X159441243Y-111923286D01*
X159368671Y-111959571D01*
X159223529Y-111995857D01*
X159042100Y-111995857D01*
X158896957Y-111959571D01*
X158824386Y-111923286D01*
X158788100Y-111887000D01*
X158751814Y-111814429D01*
D16*
X138774714Y-102352928D02*
X138012714Y-102352928D01*
X138012714Y-102062643D01*
X138049000Y-101990071D01*
X138085286Y-101953786D01*
X138157857Y-101917500D01*
X138266714Y-101917500D01*
X138339286Y-101953786D01*
X138375571Y-101990071D01*
X138411857Y-102062643D01*
X138411857Y-102352928D01*
X138012714Y-101663500D02*
X138012714Y-101191786D01*
X138303000Y-101445786D01*
X138303000Y-101336928D01*
X138339286Y-101264357D01*
X138375571Y-101228071D01*
X138448143Y-101191786D01*
X138629571Y-101191786D01*
X138702143Y-101228071D01*
X138738429Y-101264357D01*
X138774714Y-101336928D01*
X138774714Y-101554643D01*
X138738429Y-101627214D01*
X138702143Y-101663500D01*
X148833114Y-98682628D02*
X148071114Y-98682628D01*
X148071114Y-98392343D01*
X148107400Y-98319771D01*
X148143686Y-98283486D01*
X148216257Y-98247200D01*
X148325114Y-98247200D01*
X148397686Y-98283486D01*
X148433971Y-98319771D01*
X148470257Y-98392343D01*
X148470257Y-98682628D01*
X148325114Y-97594057D02*
X148833114Y-97594057D01*
X148034829Y-97775486D02*
X148579114Y-97956914D01*
X148579114Y-97485200D01*
M02*
