M48
;DRILL file {KiCad 4.0.2+dfsg1-stable} date mar. 12 sept. 2017 23:56:31 CEST
;FORMAT={-:-/ absolute / inch / decimal}
FMAT,2
INCH,TZ
T1C0.012
T2C0.039
T3C0.040
T4C0.043
T5C0.047
%
G90
G05
M72
T1
X5.2465Y-3.791
X5.459Y-4.0685
X5.481Y-4.44
X5.611Y-4.505
X5.8025Y-4.447
X5.8025Y-4.497
X5.8105Y-4.0275
X5.8475Y-4.144
X5.8475Y-4.204
X5.864Y-4.347
X5.901Y-4.347
X5.9305Y-3.8795
X5.937Y-4.2005
X5.9945Y-4.022
X6.006Y-4.372
X6.006Y-4.4095
X6.0635Y-4.067
X6.092Y-4.508
X6.097Y-3.842
X6.118Y-4.067
X6.147Y-4.04
X6.163Y-4.46
X6.2155Y-4.365
X6.2305Y-4.067
X6.2465Y-4.227
X6.2565Y-4.04
X6.2565Y-4.094
X6.268Y-3.783
X6.3765Y-3.842
X6.424Y-3.9365
X6.4845Y-3.783
X6.71Y-3.791
T2
X5.2435Y-3.8839
X5.2435Y-3.9839
X5.2435Y-4.0839
X5.2435Y-4.1839
X5.2435Y-4.2839
X5.2435Y-4.3839
X5.3435Y-3.8839
X5.3435Y-3.9839
X5.3435Y-4.0839
X5.3435Y-4.1839
X5.3435Y-4.2839
X5.3435Y-4.3839
T3
X5.4495Y-3.813
X5.4495Y-3.913
X5.576Y-3.813
X5.576Y-3.913
X5.676Y-3.813
X5.676Y-3.913
X5.776Y-3.813
X5.776Y-3.913
T4
X6.587Y-4.3839
T5
X6.587Y-3.8839
X6.587Y-3.9839
X6.587Y-4.0839
X6.587Y-4.1839
X6.587Y-4.2839
X6.687Y-3.8839
X6.687Y-3.9839
X6.687Y-4.0839
X6.687Y-4.1839
X6.687Y-4.2839
X6.687Y-4.3839
T0
M30
