G04 #@! TF.FileFunction,Copper,L2,Bot,Signal*
%FSLAX46Y46*%
G04 Gerber Fmt 4.6, Leading zero omitted, Abs format (unit mm)*
G04 Created by KiCad (PCBNEW 4.0.2+dfsg1-stable) date mar. 12 sept. 2017 23:56:27 CEST*
%MOMM*%
G01*
G04 APERTURE LIST*
%ADD10C,0.100000*%
%ADD11C,0.152400*%
%ADD12R,2.000000X1.900000*%
%ADD13C,1.900000*%
%ADD14C,1.750000*%
%ADD15R,1.750000X1.750000*%
%ADD16C,2.000000*%
%ADD17R,1.524000X1.524000*%
%ADD18C,1.524000*%
%ADD19C,0.711200*%
%ADD20C,0.406400*%
%ADD21C,0.203200*%
%ADD22C,0.200000*%
G04 APERTURE END LIST*
D10*
D11*
X130814366Y-114288843D02*
X130861985Y-114336462D01*
X131004842Y-114384081D01*
X131100080Y-114384081D01*
X131242938Y-114336462D01*
X131338176Y-114241224D01*
X131385795Y-114145986D01*
X131433414Y-113955510D01*
X131433414Y-113812652D01*
X131385795Y-113622176D01*
X131338176Y-113526938D01*
X131242938Y-113431700D01*
X131100080Y-113384081D01*
X131004842Y-113384081D01*
X130861985Y-113431700D01*
X130814366Y-113479319D01*
X129814366Y-114288843D02*
X129861985Y-114336462D01*
X130004842Y-114384081D01*
X130100080Y-114384081D01*
X130242938Y-114336462D01*
X130338176Y-114241224D01*
X130385795Y-114145986D01*
X130433414Y-113955510D01*
X130433414Y-113812652D01*
X130385795Y-113622176D01*
X130338176Y-113526938D01*
X130242938Y-113431700D01*
X130100080Y-113384081D01*
X130004842Y-113384081D01*
X129861985Y-113431700D01*
X129814366Y-113479319D01*
X129385795Y-114003129D02*
X128623890Y-114003129D01*
X128147700Y-114384081D02*
X128147700Y-113384081D01*
X128147700Y-113765033D02*
X128052462Y-113717414D01*
X127861985Y-113717414D01*
X127766747Y-113765033D01*
X127719128Y-113812652D01*
X127671509Y-113907890D01*
X127671509Y-114193605D01*
X127719128Y-114288843D01*
X127766747Y-114336462D01*
X127861985Y-114384081D01*
X128052462Y-114384081D01*
X128147700Y-114336462D01*
X127338176Y-113717414D02*
X127100081Y-114384081D01*
X126861985Y-113717414D02*
X127100081Y-114384081D01*
X127195319Y-114622176D01*
X127242938Y-114669795D01*
X127338176Y-114717414D01*
X126481033Y-114003129D02*
X125719128Y-114003129D01*
X125290557Y-114336462D02*
X125147700Y-114384081D01*
X124909604Y-114384081D01*
X124814366Y-114336462D01*
X124766747Y-114288843D01*
X124719128Y-114193605D01*
X124719128Y-114098367D01*
X124766747Y-114003129D01*
X124814366Y-113955510D01*
X124909604Y-113907890D01*
X125100081Y-113860271D01*
X125195319Y-113812652D01*
X125242938Y-113765033D01*
X125290557Y-113669795D01*
X125290557Y-113574557D01*
X125242938Y-113479319D01*
X125195319Y-113431700D01*
X125100081Y-113384081D01*
X124861985Y-113384081D01*
X124719128Y-113431700D01*
X124338176Y-114098367D02*
X123861985Y-114098367D01*
X124433414Y-114384081D02*
X124100081Y-113384081D01*
X123766747Y-114384081D01*
X138442391Y-114098367D02*
X137966200Y-114098367D01*
X138537629Y-114384081D02*
X138204296Y-113384081D01*
X137870962Y-114384081D01*
X137109057Y-113717414D02*
X137109057Y-114526938D01*
X137156676Y-114622176D01*
X137204295Y-114669795D01*
X137299534Y-114717414D01*
X137442391Y-114717414D01*
X137537629Y-114669795D01*
X137109057Y-114336462D02*
X137204295Y-114384081D01*
X137394772Y-114384081D01*
X137490010Y-114336462D01*
X137537629Y-114288843D01*
X137585248Y-114193605D01*
X137585248Y-113907890D01*
X137537629Y-113812652D01*
X137490010Y-113765033D01*
X137394772Y-113717414D01*
X137204295Y-113717414D01*
X137109057Y-113765033D01*
X136632867Y-114384081D02*
X136632867Y-113717414D01*
X136632867Y-113384081D02*
X136680486Y-113431700D01*
X136632867Y-113479319D01*
X136585248Y-113431700D01*
X136632867Y-113384081D01*
X136632867Y-113479319D01*
X136013820Y-114384081D02*
X136109058Y-114336462D01*
X136156677Y-114241224D01*
X136156677Y-113384081D01*
X135204295Y-114384081D02*
X135204295Y-113860271D01*
X135251914Y-113765033D01*
X135347152Y-113717414D01*
X135537629Y-113717414D01*
X135632867Y-113765033D01*
X135204295Y-114336462D02*
X135299533Y-114384081D01*
X135537629Y-114384081D01*
X135632867Y-114336462D01*
X135680486Y-114241224D01*
X135680486Y-114145986D01*
X135632867Y-114050748D01*
X135537629Y-114003129D01*
X135299533Y-114003129D01*
X135204295Y-113955510D01*
X134299533Y-114336462D02*
X134394771Y-114384081D01*
X134585248Y-114384081D01*
X134680486Y-114336462D01*
X134728105Y-114288843D01*
X134775724Y-114193605D01*
X134775724Y-113907890D01*
X134728105Y-113812652D01*
X134680486Y-113765033D01*
X134585248Y-113717414D01*
X134394771Y-113717414D01*
X134299533Y-113765033D01*
X133870962Y-114384081D02*
X133870962Y-113384081D01*
X133775724Y-114003129D02*
X133490009Y-114384081D01*
X133490009Y-113717414D02*
X133870962Y-114098367D01*
D12*
X167309800Y-111350000D03*
D13*
X167309800Y-108810000D03*
X167309800Y-106270000D03*
X167309800Y-103730000D03*
X167309800Y-101190000D03*
X167309800Y-98650000D03*
X169849800Y-111350000D03*
X169849800Y-108810000D03*
X169849800Y-106270000D03*
X169849800Y-103730000D03*
X169849800Y-101190000D03*
X169849800Y-98650000D03*
D14*
X135724900Y-98650000D03*
X135724900Y-101190000D03*
X135724900Y-103730000D03*
X135724900Y-106270000D03*
X135724900Y-108810000D03*
D15*
X135724900Y-111350000D03*
D16*
X133184900Y-98650000D03*
X133184900Y-101190000D03*
X133184900Y-103730000D03*
X133184900Y-106270000D03*
X133184900Y-108810000D03*
X133184900Y-111350000D03*
D17*
X138417300Y-96850200D03*
D18*
X138417300Y-99390200D03*
D17*
X146710400Y-96850200D03*
D18*
X146710400Y-99390200D03*
X144170400Y-96850200D03*
X144170400Y-99390200D03*
X141630400Y-96850200D03*
X141630400Y-99390200D03*
D19*
X156540200Y-113284000D03*
X133261100Y-96291400D03*
X149885400Y-110413800D03*
X158661100Y-107365800D03*
X150634700Y-98539300D03*
X159207200Y-96088200D03*
X154863800Y-97586800D03*
X163169600Y-99987100D03*
X161963100Y-97586800D03*
X164706300Y-96088200D03*
X170434000Y-96291400D03*
X139217400Y-112776000D03*
X152260300Y-102158800D03*
X150799800Y-106692700D03*
X148526500Y-105257600D03*
X138658600Y-103339900D03*
X154736800Y-114503200D03*
X157873700Y-110871000D03*
X152552400Y-111048800D03*
X148945600Y-110413800D03*
X147383500Y-114223800D03*
X147383500Y-112953800D03*
X147586700Y-102298500D03*
X148526500Y-106781600D03*
X158254700Y-103301800D03*
X155397200Y-103301800D03*
X154012900Y-103301800D03*
X158915100Y-103987600D03*
X158915100Y-102616000D03*
X156133800Y-102616000D03*
X152552400Y-112001300D03*
X142519400Y-114427000D03*
D20*
X158661100Y-107365800D02*
X158661100Y-110299500D01*
X158648400Y-113284000D02*
X156540200Y-113284000D01*
X159143700Y-112788700D02*
X158648400Y-113284000D01*
X159143700Y-110782100D02*
X159143700Y-112788700D01*
X158661100Y-110299500D02*
X159143700Y-110782100D01*
X143967200Y-105257600D02*
X145122900Y-105257600D01*
X148678900Y-101422200D02*
X149415500Y-102158800D01*
X146977100Y-101422200D02*
X148678900Y-101422200D01*
X146481800Y-101917500D02*
X146977100Y-101422200D01*
X146481800Y-103898700D02*
X146481800Y-101917500D01*
X145122900Y-105257600D02*
X146481800Y-103898700D01*
X157581600Y-96088200D02*
X156806900Y-95313500D01*
X134239000Y-95313500D02*
X133261100Y-96291400D01*
X156806900Y-95313500D02*
X134239000Y-95313500D01*
X149885400Y-110413800D02*
X149885400Y-109156500D01*
X150799800Y-108242100D02*
X150799800Y-106692700D01*
X149885400Y-109156500D02*
X150799800Y-108242100D01*
X158661100Y-107365800D02*
X158661100Y-106045000D01*
X163169600Y-101536500D02*
X163169600Y-99987100D01*
X158661100Y-106045000D02*
X163169600Y-101536500D01*
X159207200Y-96088200D02*
X161188400Y-96088200D01*
X161188400Y-96088200D02*
X161963100Y-96862900D01*
X154863800Y-97586800D02*
X151587200Y-97586800D01*
X151587200Y-97586800D02*
X150634700Y-98539300D01*
X154863800Y-97586800D02*
X156083000Y-97586800D01*
X157581600Y-96088200D02*
X159207200Y-96088200D01*
X156083000Y-97586800D02*
X157581600Y-96088200D01*
X161963100Y-97586800D02*
X161963100Y-98780600D01*
X161963100Y-98780600D02*
X163169600Y-99987100D01*
X161963100Y-97586800D02*
X161963100Y-96862900D01*
X162737800Y-96088200D02*
X164706300Y-96088200D01*
X161963100Y-96862900D02*
X162737800Y-96088200D01*
X170434000Y-96291400D02*
X171107100Y-96291400D01*
X169849800Y-101190000D02*
X171932600Y-99107200D01*
X171932600Y-97116900D02*
X171932600Y-99107200D01*
X171107100Y-96291400D02*
X171932600Y-97116900D01*
X139217400Y-112776000D02*
X139217400Y-110007400D01*
X139217400Y-110007400D02*
X143967200Y-105257600D01*
X152260300Y-102158800D02*
X149415500Y-102158800D01*
X148526500Y-103047800D02*
X148526500Y-105257600D01*
X149415500Y-102158800D02*
X148526500Y-103047800D01*
X138658600Y-103339900D02*
X142036800Y-103339900D01*
X143954500Y-105257600D02*
X143967200Y-105257600D01*
X142036800Y-103339900D02*
X143954500Y-105257600D01*
X148526500Y-105257600D02*
X149364700Y-105257600D01*
X149364700Y-105257600D02*
X150799800Y-106692700D01*
D21*
X138658600Y-103339900D02*
X137874800Y-103339900D01*
X137874800Y-103339900D02*
X135724900Y-101190000D01*
D20*
X167309800Y-101190000D02*
X167300700Y-101190000D01*
X167309800Y-101190000D02*
X167313400Y-101190000D01*
X167313400Y-101190000D02*
X168579800Y-99923600D01*
X169846200Y-101190000D02*
X168579800Y-99923600D01*
X169849800Y-101190000D02*
X169846200Y-101190000D01*
X167309800Y-101190000D02*
X167306200Y-101193600D01*
X151853900Y-114503200D02*
X154736800Y-114503200D01*
X151853900Y-114503200D02*
X150952200Y-113601500D01*
X148031200Y-113601500D02*
X150952200Y-113601500D01*
D21*
X152552400Y-111048800D02*
X156959300Y-111048800D01*
X157137100Y-110871000D02*
X157873700Y-110871000D01*
X156959300Y-111048800D02*
X157137100Y-110871000D01*
D20*
X148526500Y-109270800D02*
X148945600Y-109689900D01*
X148526500Y-106781600D02*
X148526500Y-109270800D01*
X148945600Y-109689900D02*
X148945600Y-110413800D01*
X148031200Y-113601500D02*
X148005800Y-113601500D01*
X148005800Y-113601500D02*
X147383500Y-114223800D01*
X148031200Y-113601500D02*
X147383500Y-112953800D01*
X147586700Y-105841800D02*
X147586700Y-102298500D01*
X148526500Y-106781600D02*
X147586700Y-105841800D01*
D21*
X158254700Y-103301800D02*
X155397200Y-103301800D01*
X158915100Y-103987600D02*
X154698700Y-103987600D01*
X154698700Y-103987600D02*
X154012900Y-103301800D01*
X156133800Y-102616000D02*
X158915100Y-102616000D01*
X156133800Y-102616000D02*
X156133800Y-102717600D01*
X152552400Y-112001300D02*
X144945100Y-112001300D01*
X144945100Y-112001300D02*
X142519400Y-114427000D01*
D22*
G36*
X173525000Y-114785000D02*
X155329660Y-114785000D01*
X155392286Y-114634179D01*
X155392514Y-114373365D01*
X155292915Y-114132318D01*
X155108652Y-113947733D01*
X154867779Y-113847714D01*
X154606965Y-113847486D01*
X154365918Y-113947085D01*
X154312911Y-114000000D01*
X152062332Y-114000000D01*
X151308016Y-113245684D01*
X151144766Y-113136604D01*
X150952200Y-113098300D01*
X148239632Y-113098300D01*
X148039149Y-112897817D01*
X148039214Y-112823965D01*
X147939615Y-112582918D01*
X147759911Y-112402900D01*
X152026949Y-112402900D01*
X152180548Y-112556767D01*
X152421421Y-112656786D01*
X152682235Y-112657014D01*
X152923282Y-112557415D01*
X153107867Y-112373152D01*
X153207886Y-112132279D01*
X153208114Y-111871465D01*
X153108515Y-111630418D01*
X153003309Y-111525028D01*
X153078067Y-111450400D01*
X156959300Y-111450400D01*
X157112986Y-111419830D01*
X157243274Y-111332774D01*
X157303448Y-111272600D01*
X157348249Y-111272600D01*
X157501848Y-111426467D01*
X157742721Y-111526486D01*
X158003535Y-111526714D01*
X158244582Y-111427115D01*
X158429167Y-111242852D01*
X158529186Y-111001979D01*
X158529414Y-110741165D01*
X158429815Y-110500118D01*
X158329872Y-110400000D01*
X166003923Y-110400000D01*
X166003923Y-112300000D01*
X166024842Y-112411173D01*
X166090545Y-112513279D01*
X166190797Y-112581778D01*
X166309800Y-112605877D01*
X168309800Y-112605877D01*
X168420973Y-112584958D01*
X168523079Y-112519255D01*
X168591578Y-112419003D01*
X168615677Y-112300000D01*
X168615677Y-111636500D01*
X168789484Y-112057143D01*
X169140807Y-112409081D01*
X169600069Y-112599783D01*
X170097350Y-112600217D01*
X170556943Y-112410316D01*
X170908881Y-112058993D01*
X171099583Y-111599731D01*
X171100017Y-111102450D01*
X170910116Y-110642857D01*
X170558793Y-110290919D01*
X170099531Y-110100217D01*
X169602250Y-110099783D01*
X169142657Y-110289684D01*
X168790719Y-110641007D01*
X168615677Y-111062555D01*
X168615677Y-110400000D01*
X168594758Y-110288827D01*
X168529055Y-110186721D01*
X168428803Y-110118222D01*
X168309800Y-110094123D01*
X166309800Y-110094123D01*
X166198627Y-110115042D01*
X166096521Y-110180745D01*
X166028022Y-110280997D01*
X166003923Y-110400000D01*
X158329872Y-110400000D01*
X158245552Y-110315533D01*
X158004679Y-110215514D01*
X157743865Y-110215286D01*
X157502818Y-110314885D01*
X157348033Y-110469400D01*
X157137100Y-110469400D01*
X156983414Y-110499970D01*
X156853126Y-110587026D01*
X156792952Y-110647200D01*
X153077851Y-110647200D01*
X152924252Y-110493333D01*
X152683379Y-110393314D01*
X152422565Y-110393086D01*
X152181518Y-110492685D01*
X151996933Y-110676948D01*
X151896914Y-110917821D01*
X151896686Y-111178635D01*
X151996285Y-111419682D01*
X152101491Y-111525072D01*
X152026733Y-111599700D01*
X144945100Y-111599700D01*
X144791414Y-111630270D01*
X144661126Y-111717326D01*
X142606976Y-113771476D01*
X142389565Y-113771286D01*
X142148518Y-113870885D01*
X141963933Y-114055148D01*
X141863914Y-114296021D01*
X141863686Y-114556835D01*
X141957962Y-114785000D01*
X139009067Y-114785000D01*
X139009067Y-112703100D01*
X132923333Y-112703100D01*
X132923333Y-114785000D01*
X132000091Y-114785000D01*
X132000091Y-112703100D01*
X123475000Y-112703100D01*
X123475000Y-103987452D01*
X131884674Y-103987452D01*
X132082171Y-104465429D01*
X132447547Y-104831444D01*
X132853885Y-105000170D01*
X132449471Y-105167271D01*
X132083456Y-105532647D01*
X131885126Y-106010279D01*
X131884674Y-106527452D01*
X132082171Y-107005429D01*
X132447547Y-107371444D01*
X132853885Y-107540170D01*
X132449471Y-107707271D01*
X132083456Y-108072647D01*
X131885126Y-108550279D01*
X131884674Y-109067452D01*
X132082171Y-109545429D01*
X132447547Y-109911444D01*
X132853885Y-110080170D01*
X132449471Y-110247271D01*
X132083456Y-110612647D01*
X131885126Y-111090279D01*
X131884674Y-111607452D01*
X132082171Y-112085429D01*
X132447547Y-112451444D01*
X132925179Y-112649774D01*
X133442352Y-112650226D01*
X133920329Y-112452729D01*
X134286344Y-112087353D01*
X134484674Y-111609721D01*
X134485126Y-111092548D01*
X134287629Y-110614571D01*
X134148302Y-110475000D01*
X134544023Y-110475000D01*
X134544023Y-112225000D01*
X134564942Y-112336173D01*
X134630645Y-112438279D01*
X134730897Y-112506778D01*
X134849900Y-112530877D01*
X136599900Y-112530877D01*
X136711073Y-112509958D01*
X136813179Y-112444255D01*
X136881678Y-112344003D01*
X136905777Y-112225000D01*
X136905777Y-110475000D01*
X136884858Y-110363827D01*
X136819155Y-110261721D01*
X136718903Y-110193222D01*
X136599900Y-110169123D01*
X134849900Y-110169123D01*
X134738727Y-110190042D01*
X134636621Y-110255745D01*
X134568122Y-110355997D01*
X134544023Y-110475000D01*
X134148302Y-110475000D01*
X133922253Y-110248556D01*
X133515915Y-110079830D01*
X133920329Y-109912729D01*
X134286344Y-109547353D01*
X134484674Y-109069721D01*
X134484697Y-109042697D01*
X134549696Y-109042697D01*
X134728202Y-109474715D01*
X135058447Y-109805536D01*
X135490153Y-109984796D01*
X135957597Y-109985204D01*
X136389615Y-109806698D01*
X136720436Y-109476453D01*
X136899696Y-109044747D01*
X136900104Y-108577303D01*
X136721598Y-108145285D01*
X136391353Y-107814464D01*
X135959647Y-107635204D01*
X135492203Y-107634796D01*
X135060185Y-107813302D01*
X134729364Y-108143547D01*
X134550104Y-108575253D01*
X134549696Y-109042697D01*
X134484697Y-109042697D01*
X134485126Y-108552548D01*
X134287629Y-108074571D01*
X133922253Y-107708556D01*
X133515915Y-107539830D01*
X133920329Y-107372729D01*
X134286344Y-107007353D01*
X134484674Y-106529721D01*
X134484697Y-106502697D01*
X134549696Y-106502697D01*
X134728202Y-106934715D01*
X135058447Y-107265536D01*
X135490153Y-107444796D01*
X135957597Y-107445204D01*
X136389615Y-107266698D01*
X136720436Y-106936453D01*
X136899696Y-106504747D01*
X136900104Y-106037303D01*
X136721598Y-105605285D01*
X136391353Y-105274464D01*
X135959647Y-105095204D01*
X135492203Y-105094796D01*
X135060185Y-105273302D01*
X134729364Y-105603547D01*
X134550104Y-106035253D01*
X134549696Y-106502697D01*
X134484697Y-106502697D01*
X134485126Y-106012548D01*
X134287629Y-105534571D01*
X133922253Y-105168556D01*
X133515915Y-104999830D01*
X133920329Y-104832729D01*
X134286344Y-104467353D01*
X134484674Y-103989721D01*
X134484697Y-103962697D01*
X134549696Y-103962697D01*
X134728202Y-104394715D01*
X135058447Y-104725536D01*
X135490153Y-104904796D01*
X135957597Y-104905204D01*
X136389615Y-104726698D01*
X136720436Y-104396453D01*
X136899696Y-103964747D01*
X136900104Y-103497303D01*
X136721598Y-103065285D01*
X136391353Y-102734464D01*
X136152079Y-102635109D01*
X136484453Y-102497435D01*
X136509210Y-102428335D01*
X146930986Y-102428335D01*
X147030585Y-102669382D01*
X147083500Y-102722389D01*
X147083500Y-105841800D01*
X147121804Y-106034366D01*
X147230884Y-106197616D01*
X147870851Y-106837583D01*
X147870786Y-106911435D01*
X147970385Y-107152482D01*
X148023300Y-107205489D01*
X148023300Y-109270800D01*
X148061604Y-109463366D01*
X148170684Y-109626616D01*
X148442400Y-109898332D01*
X148442400Y-109989772D01*
X148390133Y-110041948D01*
X148290114Y-110282821D01*
X148289886Y-110543635D01*
X148389485Y-110784682D01*
X148573748Y-110969267D01*
X148814621Y-111069286D01*
X149075435Y-111069514D01*
X149316482Y-110969915D01*
X149501067Y-110785652D01*
X149601086Y-110544779D01*
X149601314Y-110283965D01*
X149501715Y-110042918D01*
X149448800Y-109989911D01*
X149448800Y-109689900D01*
X149410496Y-109497334D01*
X149301416Y-109334084D01*
X149029700Y-109062368D01*
X149029700Y-109057550D01*
X166059583Y-109057550D01*
X166249484Y-109517143D01*
X166600807Y-109869081D01*
X167060069Y-110059783D01*
X167557350Y-110060217D01*
X168016943Y-109870316D01*
X168368881Y-109518993D01*
X168559583Y-109059731D01*
X168559584Y-109057550D01*
X168599583Y-109057550D01*
X168789484Y-109517143D01*
X169140807Y-109869081D01*
X169600069Y-110059783D01*
X170097350Y-110060217D01*
X170556943Y-109870316D01*
X170908881Y-109518993D01*
X171099583Y-109059731D01*
X171100017Y-108562450D01*
X170910116Y-108102857D01*
X170558793Y-107750919D01*
X170099531Y-107560217D01*
X169602250Y-107559783D01*
X169142657Y-107749684D01*
X168790719Y-108101007D01*
X168600017Y-108560269D01*
X168599583Y-109057550D01*
X168559584Y-109057550D01*
X168560017Y-108562450D01*
X168370116Y-108102857D01*
X168018793Y-107750919D01*
X167559531Y-107560217D01*
X167062250Y-107559783D01*
X166602657Y-107749684D01*
X166250719Y-108101007D01*
X166060017Y-108560269D01*
X166059583Y-109057550D01*
X149029700Y-109057550D01*
X149029700Y-107205628D01*
X149081967Y-107153452D01*
X149181986Y-106912579D01*
X149182214Y-106651765D01*
X149126758Y-106517550D01*
X166059583Y-106517550D01*
X166249484Y-106977143D01*
X166600807Y-107329081D01*
X167060069Y-107519783D01*
X167557350Y-107520217D01*
X168016943Y-107330316D01*
X168368881Y-106978993D01*
X168559583Y-106519731D01*
X168559584Y-106517550D01*
X168599583Y-106517550D01*
X168789484Y-106977143D01*
X169140807Y-107329081D01*
X169600069Y-107519783D01*
X170097350Y-107520217D01*
X170556943Y-107330316D01*
X170908881Y-106978993D01*
X171099583Y-106519731D01*
X171100017Y-106022450D01*
X170910116Y-105562857D01*
X170558793Y-105210919D01*
X170099531Y-105020217D01*
X169602250Y-105019783D01*
X169142657Y-105209684D01*
X168790719Y-105561007D01*
X168600017Y-106020269D01*
X168599583Y-106517550D01*
X168559584Y-106517550D01*
X168560017Y-106022450D01*
X168370116Y-105562857D01*
X168018793Y-105210919D01*
X167559531Y-105020217D01*
X167062250Y-105019783D01*
X166602657Y-105209684D01*
X166250719Y-105561007D01*
X166060017Y-106020269D01*
X166059583Y-106517550D01*
X149126758Y-106517550D01*
X149082615Y-106410718D01*
X148898352Y-106226133D01*
X148657479Y-106126114D01*
X148582581Y-106126049D01*
X148089900Y-105633368D01*
X148089900Y-103431635D01*
X153357186Y-103431635D01*
X153456785Y-103672682D01*
X153641048Y-103857267D01*
X153881921Y-103957286D01*
X154100629Y-103957477D01*
X154414726Y-104271574D01*
X154545014Y-104358630D01*
X154698700Y-104389200D01*
X158389649Y-104389200D01*
X158543248Y-104543067D01*
X158784121Y-104643086D01*
X159044935Y-104643314D01*
X159285982Y-104543715D01*
X159470567Y-104359452D01*
X159570586Y-104118579D01*
X159570709Y-103977550D01*
X166059583Y-103977550D01*
X166249484Y-104437143D01*
X166600807Y-104789081D01*
X167060069Y-104979783D01*
X167557350Y-104980217D01*
X168016943Y-104790316D01*
X168368881Y-104438993D01*
X168559583Y-103979731D01*
X168559584Y-103977550D01*
X168599583Y-103977550D01*
X168789484Y-104437143D01*
X169140807Y-104789081D01*
X169600069Y-104979783D01*
X170097350Y-104980217D01*
X170556943Y-104790316D01*
X170908881Y-104438993D01*
X171099583Y-103979731D01*
X171100017Y-103482450D01*
X170910116Y-103022857D01*
X170558793Y-102670919D01*
X170472401Y-102635046D01*
X170654524Y-102559608D01*
X170750827Y-102308815D01*
X169849800Y-101407789D01*
X168948773Y-102308815D01*
X169045076Y-102559608D01*
X169242661Y-102628363D01*
X169142657Y-102669684D01*
X168790719Y-103021007D01*
X168600017Y-103480269D01*
X168599583Y-103977550D01*
X168559584Y-103977550D01*
X168560017Y-103482450D01*
X168370116Y-103022857D01*
X168018793Y-102670919D01*
X167932401Y-102635046D01*
X168114524Y-102559608D01*
X168210827Y-102308815D01*
X167309800Y-101407789D01*
X166408773Y-102308815D01*
X166505076Y-102559608D01*
X166702661Y-102628363D01*
X166602657Y-102669684D01*
X166250719Y-103021007D01*
X166060017Y-103480269D01*
X166059583Y-103977550D01*
X159570709Y-103977550D01*
X159570814Y-103857765D01*
X159471215Y-103616718D01*
X159286952Y-103432133D01*
X159046079Y-103332114D01*
X158910274Y-103331995D01*
X158910327Y-103271596D01*
X159044935Y-103271714D01*
X159285982Y-103172115D01*
X159470567Y-102987852D01*
X159570586Y-102746979D01*
X159570814Y-102486165D01*
X159471215Y-102245118D01*
X159286952Y-102060533D01*
X159046079Y-101960514D01*
X158785265Y-101960286D01*
X158544218Y-102059885D01*
X158389433Y-102214400D01*
X156659251Y-102214400D01*
X156505652Y-102060533D01*
X156264779Y-101960514D01*
X156003965Y-101960286D01*
X155762918Y-102059885D01*
X155578333Y-102244148D01*
X155478314Y-102485021D01*
X155478173Y-102646270D01*
X155267365Y-102646086D01*
X155026318Y-102745685D01*
X154841733Y-102929948D01*
X154741714Y-103170821D01*
X154741486Y-103431635D01*
X154763176Y-103484128D01*
X154668424Y-103389376D01*
X154668614Y-103171965D01*
X154569015Y-102930918D01*
X154384752Y-102746333D01*
X154143879Y-102646314D01*
X153883065Y-102646086D01*
X153642018Y-102745685D01*
X153457433Y-102929948D01*
X153357414Y-103170821D01*
X153357186Y-103431635D01*
X148089900Y-103431635D01*
X148089900Y-102722528D01*
X148142167Y-102670352D01*
X148242186Y-102429479D01*
X148242414Y-102168665D01*
X148142815Y-101927618D01*
X147958552Y-101743033D01*
X147717679Y-101643014D01*
X147456865Y-101642786D01*
X147215818Y-101742385D01*
X147031233Y-101926648D01*
X146931214Y-102167521D01*
X146930986Y-102428335D01*
X136509210Y-102428335D01*
X136571524Y-102254413D01*
X135724900Y-101407789D01*
X134878276Y-102254413D01*
X134965347Y-102497435D01*
X135329341Y-102622089D01*
X135060185Y-102733302D01*
X134729364Y-103063547D01*
X134550104Y-103495253D01*
X134549696Y-103962697D01*
X134484697Y-103962697D01*
X134485126Y-103472548D01*
X134287629Y-102994571D01*
X133931334Y-102637653D01*
X134019726Y-102601040D01*
X134122177Y-102345066D01*
X133184900Y-101407789D01*
X132247623Y-102345066D01*
X132350074Y-102601040D01*
X132443029Y-102633702D01*
X132083456Y-102992647D01*
X131885126Y-103470279D01*
X131884674Y-103987452D01*
X123475000Y-103987452D01*
X123475000Y-100958703D01*
X131561795Y-100958703D01*
X131596833Y-101597445D01*
X131773860Y-102024826D01*
X132029834Y-102127277D01*
X132967111Y-101190000D01*
X133402689Y-101190000D01*
X134339966Y-102127277D01*
X134595940Y-102024826D01*
X134599475Y-102014764D01*
X134660487Y-102036624D01*
X135507111Y-101190000D01*
X135942689Y-101190000D01*
X136789313Y-102036624D01*
X137032335Y-101949553D01*
X137223481Y-101391402D01*
X137197043Y-100970658D01*
X165736492Y-100970658D01*
X165772314Y-101589433D01*
X165940192Y-101994724D01*
X166190985Y-102091027D01*
X167092011Y-101190000D01*
X167527589Y-101190000D01*
X168428615Y-102091027D01*
X168579800Y-102032973D01*
X168730985Y-102091027D01*
X169632011Y-101190000D01*
X170067589Y-101190000D01*
X170968615Y-102091027D01*
X171219408Y-101994724D01*
X171423108Y-101409342D01*
X171387286Y-100790567D01*
X171219408Y-100385276D01*
X170968615Y-100288973D01*
X170067589Y-101190000D01*
X169632011Y-101190000D01*
X168730985Y-100288973D01*
X168579800Y-100347027D01*
X168428615Y-100288973D01*
X167527589Y-101190000D01*
X167092011Y-101190000D01*
X166190985Y-100288973D01*
X165940192Y-100385276D01*
X165736492Y-100970658D01*
X137197043Y-100970658D01*
X137186481Y-100802589D01*
X137032335Y-100430447D01*
X136789313Y-100343376D01*
X135942689Y-101190000D01*
X135507111Y-101190000D01*
X134660487Y-100343376D01*
X134600026Y-100365038D01*
X134595940Y-100355174D01*
X134339966Y-100252723D01*
X133402689Y-101190000D01*
X132967111Y-101190000D01*
X132029834Y-100252723D01*
X131773860Y-100355174D01*
X131561795Y-100958703D01*
X123475000Y-100958703D01*
X123475000Y-98907452D01*
X131884674Y-98907452D01*
X132082171Y-99385429D01*
X132438466Y-99742347D01*
X132350074Y-99778960D01*
X132247623Y-100034934D01*
X133184900Y-100972211D01*
X134122177Y-100034934D01*
X134019726Y-99778960D01*
X133926771Y-99746298D01*
X134286344Y-99387353D01*
X134484674Y-98909721D01*
X134484697Y-98882697D01*
X134549696Y-98882697D01*
X134728202Y-99314715D01*
X135058447Y-99645536D01*
X135297721Y-99744891D01*
X134965347Y-99882565D01*
X134878276Y-100125587D01*
X135724900Y-100972211D01*
X136571524Y-100125587D01*
X136484453Y-99882565D01*
X136120459Y-99757911D01*
X136389615Y-99646698D01*
X136435875Y-99600518D01*
X137355116Y-99600518D01*
X137516455Y-99990989D01*
X137814940Y-100289995D01*
X138205128Y-100452015D01*
X138627618Y-100452384D01*
X139018089Y-100291045D01*
X139317095Y-99992560D01*
X139479115Y-99602372D01*
X139479116Y-99600518D01*
X140568216Y-99600518D01*
X140729555Y-99990989D01*
X141028040Y-100289995D01*
X141418228Y-100452015D01*
X141840718Y-100452384D01*
X142231189Y-100291045D01*
X142530195Y-99992560D01*
X142692215Y-99602372D01*
X142692216Y-99600518D01*
X143108216Y-99600518D01*
X143269555Y-99990989D01*
X143568040Y-100289995D01*
X143958228Y-100452015D01*
X144380718Y-100452384D01*
X144771189Y-100291045D01*
X145070195Y-99992560D01*
X145232215Y-99602372D01*
X145232216Y-99600518D01*
X145648216Y-99600518D01*
X145809555Y-99990989D01*
X146108040Y-100289995D01*
X146498228Y-100452015D01*
X146920718Y-100452384D01*
X147311189Y-100291045D01*
X147610195Y-99992560D01*
X147772215Y-99602372D01*
X147772584Y-99179882D01*
X147655928Y-98897550D01*
X166059583Y-98897550D01*
X166249484Y-99357143D01*
X166600807Y-99709081D01*
X166687199Y-99744954D01*
X166505076Y-99820392D01*
X166408773Y-100071185D01*
X167309800Y-100972211D01*
X168210827Y-100071185D01*
X168114524Y-99820392D01*
X167916939Y-99751637D01*
X168016943Y-99710316D01*
X168368881Y-99358993D01*
X168559583Y-98899731D01*
X168559584Y-98897550D01*
X168599583Y-98897550D01*
X168789484Y-99357143D01*
X169140807Y-99709081D01*
X169227199Y-99744954D01*
X169045076Y-99820392D01*
X168948773Y-100071185D01*
X169849800Y-100972211D01*
X170750827Y-100071185D01*
X170654524Y-99820392D01*
X170456939Y-99751637D01*
X170556943Y-99710316D01*
X170908881Y-99358993D01*
X171099583Y-98899731D01*
X171100017Y-98402450D01*
X170910116Y-97942857D01*
X170558793Y-97590919D01*
X170099531Y-97400217D01*
X169602250Y-97399783D01*
X169142657Y-97589684D01*
X168790719Y-97941007D01*
X168600017Y-98400269D01*
X168599583Y-98897550D01*
X168559584Y-98897550D01*
X168560017Y-98402450D01*
X168370116Y-97942857D01*
X168018793Y-97590919D01*
X167559531Y-97400217D01*
X167062250Y-97399783D01*
X166602657Y-97589684D01*
X166250719Y-97941007D01*
X166060017Y-98400269D01*
X166059583Y-98897550D01*
X147655928Y-98897550D01*
X147611245Y-98789411D01*
X147312760Y-98490405D01*
X146922572Y-98328385D01*
X146500082Y-98328016D01*
X146109611Y-98489355D01*
X145810605Y-98787840D01*
X145648585Y-99178028D01*
X145648216Y-99600518D01*
X145232216Y-99600518D01*
X145232584Y-99179882D01*
X145071245Y-98789411D01*
X144772760Y-98490405D01*
X144382572Y-98328385D01*
X143960082Y-98328016D01*
X143569611Y-98489355D01*
X143270605Y-98787840D01*
X143108585Y-99178028D01*
X143108216Y-99600518D01*
X142692216Y-99600518D01*
X142692584Y-99179882D01*
X142531245Y-98789411D01*
X142232760Y-98490405D01*
X141842572Y-98328385D01*
X141420082Y-98328016D01*
X141029611Y-98489355D01*
X140730605Y-98787840D01*
X140568585Y-99178028D01*
X140568216Y-99600518D01*
X139479116Y-99600518D01*
X139479484Y-99179882D01*
X139318145Y-98789411D01*
X139019660Y-98490405D01*
X138629472Y-98328385D01*
X138206982Y-98328016D01*
X137816511Y-98489355D01*
X137517505Y-98787840D01*
X137355485Y-99178028D01*
X137355116Y-99600518D01*
X136435875Y-99600518D01*
X136720436Y-99316453D01*
X136899696Y-98884747D01*
X136900104Y-98417303D01*
X136721598Y-97985285D01*
X136391353Y-97654464D01*
X135959647Y-97475204D01*
X135492203Y-97474796D01*
X135060185Y-97653302D01*
X134729364Y-97983547D01*
X134550104Y-98415253D01*
X134549696Y-98882697D01*
X134484697Y-98882697D01*
X134485126Y-98392548D01*
X134287629Y-97914571D01*
X133922253Y-97548556D01*
X133444621Y-97350226D01*
X132927448Y-97349774D01*
X132449471Y-97547271D01*
X132083456Y-97912647D01*
X131885126Y-98390279D01*
X131884674Y-98907452D01*
X123475000Y-98907452D01*
X123475000Y-96088200D01*
X137349423Y-96088200D01*
X137349423Y-97612200D01*
X137370342Y-97723373D01*
X137436045Y-97825479D01*
X137536297Y-97893978D01*
X137655300Y-97918077D01*
X139179300Y-97918077D01*
X139290473Y-97897158D01*
X139392579Y-97831455D01*
X139461078Y-97731203D01*
X139485177Y-97612200D01*
X139485177Y-97060518D01*
X140568216Y-97060518D01*
X140729555Y-97450989D01*
X141028040Y-97749995D01*
X141418228Y-97912015D01*
X141840718Y-97912384D01*
X142231189Y-97751045D01*
X142530195Y-97452560D01*
X142692215Y-97062372D01*
X142692216Y-97060518D01*
X143108216Y-97060518D01*
X143269555Y-97450989D01*
X143568040Y-97749995D01*
X143958228Y-97912015D01*
X144380718Y-97912384D01*
X144771189Y-97751045D01*
X145070195Y-97452560D01*
X145193254Y-97156200D01*
X145340400Y-97156200D01*
X145340400Y-97733138D01*
X145432962Y-97956604D01*
X145603995Y-98127637D01*
X145827461Y-98220200D01*
X146404400Y-98220200D01*
X146556400Y-98068200D01*
X146556400Y-97004200D01*
X146864400Y-97004200D01*
X146864400Y-98068200D01*
X147016400Y-98220200D01*
X147593339Y-98220200D01*
X147816805Y-98127637D01*
X147987838Y-97956604D01*
X148080400Y-97733138D01*
X148080400Y-97156200D01*
X147928400Y-97004200D01*
X146864400Y-97004200D01*
X146556400Y-97004200D01*
X145492400Y-97004200D01*
X145340400Y-97156200D01*
X145193254Y-97156200D01*
X145232215Y-97062372D01*
X145232584Y-96639882D01*
X145071245Y-96249411D01*
X144789588Y-95967262D01*
X145340400Y-95967262D01*
X145340400Y-96544200D01*
X145492400Y-96696200D01*
X146556400Y-96696200D01*
X146556400Y-95632200D01*
X146864400Y-95632200D01*
X146864400Y-96696200D01*
X147928400Y-96696200D01*
X148080400Y-96544200D01*
X148080400Y-95967262D01*
X147987838Y-95743796D01*
X147816805Y-95572763D01*
X147593339Y-95480200D01*
X147016400Y-95480200D01*
X146864400Y-95632200D01*
X146556400Y-95632200D01*
X146404400Y-95480200D01*
X145827461Y-95480200D01*
X145603995Y-95572763D01*
X145432962Y-95743796D01*
X145340400Y-95967262D01*
X144789588Y-95967262D01*
X144772760Y-95950405D01*
X144382572Y-95788385D01*
X143960082Y-95788016D01*
X143569611Y-95949355D01*
X143270605Y-96247840D01*
X143108585Y-96638028D01*
X143108216Y-97060518D01*
X142692216Y-97060518D01*
X142692584Y-96639882D01*
X142531245Y-96249411D01*
X142232760Y-95950405D01*
X141842572Y-95788385D01*
X141420082Y-95788016D01*
X141029611Y-95949355D01*
X140730605Y-96247840D01*
X140568585Y-96638028D01*
X140568216Y-97060518D01*
X139485177Y-97060518D01*
X139485177Y-96088200D01*
X139464258Y-95977027D01*
X139398555Y-95874921D01*
X139298303Y-95806422D01*
X139179300Y-95782323D01*
X137655300Y-95782323D01*
X137544127Y-95803242D01*
X137442021Y-95868945D01*
X137373522Y-95969197D01*
X137349423Y-96088200D01*
X123475000Y-96088200D01*
X123475000Y-95215000D01*
X173525000Y-95215000D01*
X173525000Y-114785000D01*
X173525000Y-114785000D01*
G37*
X173525000Y-114785000D02*
X155329660Y-114785000D01*
X155392286Y-114634179D01*
X155392514Y-114373365D01*
X155292915Y-114132318D01*
X155108652Y-113947733D01*
X154867779Y-113847714D01*
X154606965Y-113847486D01*
X154365918Y-113947085D01*
X154312911Y-114000000D01*
X152062332Y-114000000D01*
X151308016Y-113245684D01*
X151144766Y-113136604D01*
X150952200Y-113098300D01*
X148239632Y-113098300D01*
X148039149Y-112897817D01*
X148039214Y-112823965D01*
X147939615Y-112582918D01*
X147759911Y-112402900D01*
X152026949Y-112402900D01*
X152180548Y-112556767D01*
X152421421Y-112656786D01*
X152682235Y-112657014D01*
X152923282Y-112557415D01*
X153107867Y-112373152D01*
X153207886Y-112132279D01*
X153208114Y-111871465D01*
X153108515Y-111630418D01*
X153003309Y-111525028D01*
X153078067Y-111450400D01*
X156959300Y-111450400D01*
X157112986Y-111419830D01*
X157243274Y-111332774D01*
X157303448Y-111272600D01*
X157348249Y-111272600D01*
X157501848Y-111426467D01*
X157742721Y-111526486D01*
X158003535Y-111526714D01*
X158244582Y-111427115D01*
X158429167Y-111242852D01*
X158529186Y-111001979D01*
X158529414Y-110741165D01*
X158429815Y-110500118D01*
X158329872Y-110400000D01*
X166003923Y-110400000D01*
X166003923Y-112300000D01*
X166024842Y-112411173D01*
X166090545Y-112513279D01*
X166190797Y-112581778D01*
X166309800Y-112605877D01*
X168309800Y-112605877D01*
X168420973Y-112584958D01*
X168523079Y-112519255D01*
X168591578Y-112419003D01*
X168615677Y-112300000D01*
X168615677Y-111636500D01*
X168789484Y-112057143D01*
X169140807Y-112409081D01*
X169600069Y-112599783D01*
X170097350Y-112600217D01*
X170556943Y-112410316D01*
X170908881Y-112058993D01*
X171099583Y-111599731D01*
X171100017Y-111102450D01*
X170910116Y-110642857D01*
X170558793Y-110290919D01*
X170099531Y-110100217D01*
X169602250Y-110099783D01*
X169142657Y-110289684D01*
X168790719Y-110641007D01*
X168615677Y-111062555D01*
X168615677Y-110400000D01*
X168594758Y-110288827D01*
X168529055Y-110186721D01*
X168428803Y-110118222D01*
X168309800Y-110094123D01*
X166309800Y-110094123D01*
X166198627Y-110115042D01*
X166096521Y-110180745D01*
X166028022Y-110280997D01*
X166003923Y-110400000D01*
X158329872Y-110400000D01*
X158245552Y-110315533D01*
X158004679Y-110215514D01*
X157743865Y-110215286D01*
X157502818Y-110314885D01*
X157348033Y-110469400D01*
X157137100Y-110469400D01*
X156983414Y-110499970D01*
X156853126Y-110587026D01*
X156792952Y-110647200D01*
X153077851Y-110647200D01*
X152924252Y-110493333D01*
X152683379Y-110393314D01*
X152422565Y-110393086D01*
X152181518Y-110492685D01*
X151996933Y-110676948D01*
X151896914Y-110917821D01*
X151896686Y-111178635D01*
X151996285Y-111419682D01*
X152101491Y-111525072D01*
X152026733Y-111599700D01*
X144945100Y-111599700D01*
X144791414Y-111630270D01*
X144661126Y-111717326D01*
X142606976Y-113771476D01*
X142389565Y-113771286D01*
X142148518Y-113870885D01*
X141963933Y-114055148D01*
X141863914Y-114296021D01*
X141863686Y-114556835D01*
X141957962Y-114785000D01*
X139009067Y-114785000D01*
X139009067Y-112703100D01*
X132923333Y-112703100D01*
X132923333Y-114785000D01*
X132000091Y-114785000D01*
X132000091Y-112703100D01*
X123475000Y-112703100D01*
X123475000Y-103987452D01*
X131884674Y-103987452D01*
X132082171Y-104465429D01*
X132447547Y-104831444D01*
X132853885Y-105000170D01*
X132449471Y-105167271D01*
X132083456Y-105532647D01*
X131885126Y-106010279D01*
X131884674Y-106527452D01*
X132082171Y-107005429D01*
X132447547Y-107371444D01*
X132853885Y-107540170D01*
X132449471Y-107707271D01*
X132083456Y-108072647D01*
X131885126Y-108550279D01*
X131884674Y-109067452D01*
X132082171Y-109545429D01*
X132447547Y-109911444D01*
X132853885Y-110080170D01*
X132449471Y-110247271D01*
X132083456Y-110612647D01*
X131885126Y-111090279D01*
X131884674Y-111607452D01*
X132082171Y-112085429D01*
X132447547Y-112451444D01*
X132925179Y-112649774D01*
X133442352Y-112650226D01*
X133920329Y-112452729D01*
X134286344Y-112087353D01*
X134484674Y-111609721D01*
X134485126Y-111092548D01*
X134287629Y-110614571D01*
X134148302Y-110475000D01*
X134544023Y-110475000D01*
X134544023Y-112225000D01*
X134564942Y-112336173D01*
X134630645Y-112438279D01*
X134730897Y-112506778D01*
X134849900Y-112530877D01*
X136599900Y-112530877D01*
X136711073Y-112509958D01*
X136813179Y-112444255D01*
X136881678Y-112344003D01*
X136905777Y-112225000D01*
X136905777Y-110475000D01*
X136884858Y-110363827D01*
X136819155Y-110261721D01*
X136718903Y-110193222D01*
X136599900Y-110169123D01*
X134849900Y-110169123D01*
X134738727Y-110190042D01*
X134636621Y-110255745D01*
X134568122Y-110355997D01*
X134544023Y-110475000D01*
X134148302Y-110475000D01*
X133922253Y-110248556D01*
X133515915Y-110079830D01*
X133920329Y-109912729D01*
X134286344Y-109547353D01*
X134484674Y-109069721D01*
X134484697Y-109042697D01*
X134549696Y-109042697D01*
X134728202Y-109474715D01*
X135058447Y-109805536D01*
X135490153Y-109984796D01*
X135957597Y-109985204D01*
X136389615Y-109806698D01*
X136720436Y-109476453D01*
X136899696Y-109044747D01*
X136900104Y-108577303D01*
X136721598Y-108145285D01*
X136391353Y-107814464D01*
X135959647Y-107635204D01*
X135492203Y-107634796D01*
X135060185Y-107813302D01*
X134729364Y-108143547D01*
X134550104Y-108575253D01*
X134549696Y-109042697D01*
X134484697Y-109042697D01*
X134485126Y-108552548D01*
X134287629Y-108074571D01*
X133922253Y-107708556D01*
X133515915Y-107539830D01*
X133920329Y-107372729D01*
X134286344Y-107007353D01*
X134484674Y-106529721D01*
X134484697Y-106502697D01*
X134549696Y-106502697D01*
X134728202Y-106934715D01*
X135058447Y-107265536D01*
X135490153Y-107444796D01*
X135957597Y-107445204D01*
X136389615Y-107266698D01*
X136720436Y-106936453D01*
X136899696Y-106504747D01*
X136900104Y-106037303D01*
X136721598Y-105605285D01*
X136391353Y-105274464D01*
X135959647Y-105095204D01*
X135492203Y-105094796D01*
X135060185Y-105273302D01*
X134729364Y-105603547D01*
X134550104Y-106035253D01*
X134549696Y-106502697D01*
X134484697Y-106502697D01*
X134485126Y-106012548D01*
X134287629Y-105534571D01*
X133922253Y-105168556D01*
X133515915Y-104999830D01*
X133920329Y-104832729D01*
X134286344Y-104467353D01*
X134484674Y-103989721D01*
X134484697Y-103962697D01*
X134549696Y-103962697D01*
X134728202Y-104394715D01*
X135058447Y-104725536D01*
X135490153Y-104904796D01*
X135957597Y-104905204D01*
X136389615Y-104726698D01*
X136720436Y-104396453D01*
X136899696Y-103964747D01*
X136900104Y-103497303D01*
X136721598Y-103065285D01*
X136391353Y-102734464D01*
X136152079Y-102635109D01*
X136484453Y-102497435D01*
X136509210Y-102428335D01*
X146930986Y-102428335D01*
X147030585Y-102669382D01*
X147083500Y-102722389D01*
X147083500Y-105841800D01*
X147121804Y-106034366D01*
X147230884Y-106197616D01*
X147870851Y-106837583D01*
X147870786Y-106911435D01*
X147970385Y-107152482D01*
X148023300Y-107205489D01*
X148023300Y-109270800D01*
X148061604Y-109463366D01*
X148170684Y-109626616D01*
X148442400Y-109898332D01*
X148442400Y-109989772D01*
X148390133Y-110041948D01*
X148290114Y-110282821D01*
X148289886Y-110543635D01*
X148389485Y-110784682D01*
X148573748Y-110969267D01*
X148814621Y-111069286D01*
X149075435Y-111069514D01*
X149316482Y-110969915D01*
X149501067Y-110785652D01*
X149601086Y-110544779D01*
X149601314Y-110283965D01*
X149501715Y-110042918D01*
X149448800Y-109989911D01*
X149448800Y-109689900D01*
X149410496Y-109497334D01*
X149301416Y-109334084D01*
X149029700Y-109062368D01*
X149029700Y-109057550D01*
X166059583Y-109057550D01*
X166249484Y-109517143D01*
X166600807Y-109869081D01*
X167060069Y-110059783D01*
X167557350Y-110060217D01*
X168016943Y-109870316D01*
X168368881Y-109518993D01*
X168559583Y-109059731D01*
X168559584Y-109057550D01*
X168599583Y-109057550D01*
X168789484Y-109517143D01*
X169140807Y-109869081D01*
X169600069Y-110059783D01*
X170097350Y-110060217D01*
X170556943Y-109870316D01*
X170908881Y-109518993D01*
X171099583Y-109059731D01*
X171100017Y-108562450D01*
X170910116Y-108102857D01*
X170558793Y-107750919D01*
X170099531Y-107560217D01*
X169602250Y-107559783D01*
X169142657Y-107749684D01*
X168790719Y-108101007D01*
X168600017Y-108560269D01*
X168599583Y-109057550D01*
X168559584Y-109057550D01*
X168560017Y-108562450D01*
X168370116Y-108102857D01*
X168018793Y-107750919D01*
X167559531Y-107560217D01*
X167062250Y-107559783D01*
X166602657Y-107749684D01*
X166250719Y-108101007D01*
X166060017Y-108560269D01*
X166059583Y-109057550D01*
X149029700Y-109057550D01*
X149029700Y-107205628D01*
X149081967Y-107153452D01*
X149181986Y-106912579D01*
X149182214Y-106651765D01*
X149126758Y-106517550D01*
X166059583Y-106517550D01*
X166249484Y-106977143D01*
X166600807Y-107329081D01*
X167060069Y-107519783D01*
X167557350Y-107520217D01*
X168016943Y-107330316D01*
X168368881Y-106978993D01*
X168559583Y-106519731D01*
X168559584Y-106517550D01*
X168599583Y-106517550D01*
X168789484Y-106977143D01*
X169140807Y-107329081D01*
X169600069Y-107519783D01*
X170097350Y-107520217D01*
X170556943Y-107330316D01*
X170908881Y-106978993D01*
X171099583Y-106519731D01*
X171100017Y-106022450D01*
X170910116Y-105562857D01*
X170558793Y-105210919D01*
X170099531Y-105020217D01*
X169602250Y-105019783D01*
X169142657Y-105209684D01*
X168790719Y-105561007D01*
X168600017Y-106020269D01*
X168599583Y-106517550D01*
X168559584Y-106517550D01*
X168560017Y-106022450D01*
X168370116Y-105562857D01*
X168018793Y-105210919D01*
X167559531Y-105020217D01*
X167062250Y-105019783D01*
X166602657Y-105209684D01*
X166250719Y-105561007D01*
X166060017Y-106020269D01*
X166059583Y-106517550D01*
X149126758Y-106517550D01*
X149082615Y-106410718D01*
X148898352Y-106226133D01*
X148657479Y-106126114D01*
X148582581Y-106126049D01*
X148089900Y-105633368D01*
X148089900Y-103431635D01*
X153357186Y-103431635D01*
X153456785Y-103672682D01*
X153641048Y-103857267D01*
X153881921Y-103957286D01*
X154100629Y-103957477D01*
X154414726Y-104271574D01*
X154545014Y-104358630D01*
X154698700Y-104389200D01*
X158389649Y-104389200D01*
X158543248Y-104543067D01*
X158784121Y-104643086D01*
X159044935Y-104643314D01*
X159285982Y-104543715D01*
X159470567Y-104359452D01*
X159570586Y-104118579D01*
X159570709Y-103977550D01*
X166059583Y-103977550D01*
X166249484Y-104437143D01*
X166600807Y-104789081D01*
X167060069Y-104979783D01*
X167557350Y-104980217D01*
X168016943Y-104790316D01*
X168368881Y-104438993D01*
X168559583Y-103979731D01*
X168559584Y-103977550D01*
X168599583Y-103977550D01*
X168789484Y-104437143D01*
X169140807Y-104789081D01*
X169600069Y-104979783D01*
X170097350Y-104980217D01*
X170556943Y-104790316D01*
X170908881Y-104438993D01*
X171099583Y-103979731D01*
X171100017Y-103482450D01*
X170910116Y-103022857D01*
X170558793Y-102670919D01*
X170472401Y-102635046D01*
X170654524Y-102559608D01*
X170750827Y-102308815D01*
X169849800Y-101407789D01*
X168948773Y-102308815D01*
X169045076Y-102559608D01*
X169242661Y-102628363D01*
X169142657Y-102669684D01*
X168790719Y-103021007D01*
X168600017Y-103480269D01*
X168599583Y-103977550D01*
X168559584Y-103977550D01*
X168560017Y-103482450D01*
X168370116Y-103022857D01*
X168018793Y-102670919D01*
X167932401Y-102635046D01*
X168114524Y-102559608D01*
X168210827Y-102308815D01*
X167309800Y-101407789D01*
X166408773Y-102308815D01*
X166505076Y-102559608D01*
X166702661Y-102628363D01*
X166602657Y-102669684D01*
X166250719Y-103021007D01*
X166060017Y-103480269D01*
X166059583Y-103977550D01*
X159570709Y-103977550D01*
X159570814Y-103857765D01*
X159471215Y-103616718D01*
X159286952Y-103432133D01*
X159046079Y-103332114D01*
X158910274Y-103331995D01*
X158910327Y-103271596D01*
X159044935Y-103271714D01*
X159285982Y-103172115D01*
X159470567Y-102987852D01*
X159570586Y-102746979D01*
X159570814Y-102486165D01*
X159471215Y-102245118D01*
X159286952Y-102060533D01*
X159046079Y-101960514D01*
X158785265Y-101960286D01*
X158544218Y-102059885D01*
X158389433Y-102214400D01*
X156659251Y-102214400D01*
X156505652Y-102060533D01*
X156264779Y-101960514D01*
X156003965Y-101960286D01*
X155762918Y-102059885D01*
X155578333Y-102244148D01*
X155478314Y-102485021D01*
X155478173Y-102646270D01*
X155267365Y-102646086D01*
X155026318Y-102745685D01*
X154841733Y-102929948D01*
X154741714Y-103170821D01*
X154741486Y-103431635D01*
X154763176Y-103484128D01*
X154668424Y-103389376D01*
X154668614Y-103171965D01*
X154569015Y-102930918D01*
X154384752Y-102746333D01*
X154143879Y-102646314D01*
X153883065Y-102646086D01*
X153642018Y-102745685D01*
X153457433Y-102929948D01*
X153357414Y-103170821D01*
X153357186Y-103431635D01*
X148089900Y-103431635D01*
X148089900Y-102722528D01*
X148142167Y-102670352D01*
X148242186Y-102429479D01*
X148242414Y-102168665D01*
X148142815Y-101927618D01*
X147958552Y-101743033D01*
X147717679Y-101643014D01*
X147456865Y-101642786D01*
X147215818Y-101742385D01*
X147031233Y-101926648D01*
X146931214Y-102167521D01*
X146930986Y-102428335D01*
X136509210Y-102428335D01*
X136571524Y-102254413D01*
X135724900Y-101407789D01*
X134878276Y-102254413D01*
X134965347Y-102497435D01*
X135329341Y-102622089D01*
X135060185Y-102733302D01*
X134729364Y-103063547D01*
X134550104Y-103495253D01*
X134549696Y-103962697D01*
X134484697Y-103962697D01*
X134485126Y-103472548D01*
X134287629Y-102994571D01*
X133931334Y-102637653D01*
X134019726Y-102601040D01*
X134122177Y-102345066D01*
X133184900Y-101407789D01*
X132247623Y-102345066D01*
X132350074Y-102601040D01*
X132443029Y-102633702D01*
X132083456Y-102992647D01*
X131885126Y-103470279D01*
X131884674Y-103987452D01*
X123475000Y-103987452D01*
X123475000Y-100958703D01*
X131561795Y-100958703D01*
X131596833Y-101597445D01*
X131773860Y-102024826D01*
X132029834Y-102127277D01*
X132967111Y-101190000D01*
X133402689Y-101190000D01*
X134339966Y-102127277D01*
X134595940Y-102024826D01*
X134599475Y-102014764D01*
X134660487Y-102036624D01*
X135507111Y-101190000D01*
X135942689Y-101190000D01*
X136789313Y-102036624D01*
X137032335Y-101949553D01*
X137223481Y-101391402D01*
X137197043Y-100970658D01*
X165736492Y-100970658D01*
X165772314Y-101589433D01*
X165940192Y-101994724D01*
X166190985Y-102091027D01*
X167092011Y-101190000D01*
X167527589Y-101190000D01*
X168428615Y-102091027D01*
X168579800Y-102032973D01*
X168730985Y-102091027D01*
X169632011Y-101190000D01*
X170067589Y-101190000D01*
X170968615Y-102091027D01*
X171219408Y-101994724D01*
X171423108Y-101409342D01*
X171387286Y-100790567D01*
X171219408Y-100385276D01*
X170968615Y-100288973D01*
X170067589Y-101190000D01*
X169632011Y-101190000D01*
X168730985Y-100288973D01*
X168579800Y-100347027D01*
X168428615Y-100288973D01*
X167527589Y-101190000D01*
X167092011Y-101190000D01*
X166190985Y-100288973D01*
X165940192Y-100385276D01*
X165736492Y-100970658D01*
X137197043Y-100970658D01*
X137186481Y-100802589D01*
X137032335Y-100430447D01*
X136789313Y-100343376D01*
X135942689Y-101190000D01*
X135507111Y-101190000D01*
X134660487Y-100343376D01*
X134600026Y-100365038D01*
X134595940Y-100355174D01*
X134339966Y-100252723D01*
X133402689Y-101190000D01*
X132967111Y-101190000D01*
X132029834Y-100252723D01*
X131773860Y-100355174D01*
X131561795Y-100958703D01*
X123475000Y-100958703D01*
X123475000Y-98907452D01*
X131884674Y-98907452D01*
X132082171Y-99385429D01*
X132438466Y-99742347D01*
X132350074Y-99778960D01*
X132247623Y-100034934D01*
X133184900Y-100972211D01*
X134122177Y-100034934D01*
X134019726Y-99778960D01*
X133926771Y-99746298D01*
X134286344Y-99387353D01*
X134484674Y-98909721D01*
X134484697Y-98882697D01*
X134549696Y-98882697D01*
X134728202Y-99314715D01*
X135058447Y-99645536D01*
X135297721Y-99744891D01*
X134965347Y-99882565D01*
X134878276Y-100125587D01*
X135724900Y-100972211D01*
X136571524Y-100125587D01*
X136484453Y-99882565D01*
X136120459Y-99757911D01*
X136389615Y-99646698D01*
X136435875Y-99600518D01*
X137355116Y-99600518D01*
X137516455Y-99990989D01*
X137814940Y-100289995D01*
X138205128Y-100452015D01*
X138627618Y-100452384D01*
X139018089Y-100291045D01*
X139317095Y-99992560D01*
X139479115Y-99602372D01*
X139479116Y-99600518D01*
X140568216Y-99600518D01*
X140729555Y-99990989D01*
X141028040Y-100289995D01*
X141418228Y-100452015D01*
X141840718Y-100452384D01*
X142231189Y-100291045D01*
X142530195Y-99992560D01*
X142692215Y-99602372D01*
X142692216Y-99600518D01*
X143108216Y-99600518D01*
X143269555Y-99990989D01*
X143568040Y-100289995D01*
X143958228Y-100452015D01*
X144380718Y-100452384D01*
X144771189Y-100291045D01*
X145070195Y-99992560D01*
X145232215Y-99602372D01*
X145232216Y-99600518D01*
X145648216Y-99600518D01*
X145809555Y-99990989D01*
X146108040Y-100289995D01*
X146498228Y-100452015D01*
X146920718Y-100452384D01*
X147311189Y-100291045D01*
X147610195Y-99992560D01*
X147772215Y-99602372D01*
X147772584Y-99179882D01*
X147655928Y-98897550D01*
X166059583Y-98897550D01*
X166249484Y-99357143D01*
X166600807Y-99709081D01*
X166687199Y-99744954D01*
X166505076Y-99820392D01*
X166408773Y-100071185D01*
X167309800Y-100972211D01*
X168210827Y-100071185D01*
X168114524Y-99820392D01*
X167916939Y-99751637D01*
X168016943Y-99710316D01*
X168368881Y-99358993D01*
X168559583Y-98899731D01*
X168559584Y-98897550D01*
X168599583Y-98897550D01*
X168789484Y-99357143D01*
X169140807Y-99709081D01*
X169227199Y-99744954D01*
X169045076Y-99820392D01*
X168948773Y-100071185D01*
X169849800Y-100972211D01*
X170750827Y-100071185D01*
X170654524Y-99820392D01*
X170456939Y-99751637D01*
X170556943Y-99710316D01*
X170908881Y-99358993D01*
X171099583Y-98899731D01*
X171100017Y-98402450D01*
X170910116Y-97942857D01*
X170558793Y-97590919D01*
X170099531Y-97400217D01*
X169602250Y-97399783D01*
X169142657Y-97589684D01*
X168790719Y-97941007D01*
X168600017Y-98400269D01*
X168599583Y-98897550D01*
X168559584Y-98897550D01*
X168560017Y-98402450D01*
X168370116Y-97942857D01*
X168018793Y-97590919D01*
X167559531Y-97400217D01*
X167062250Y-97399783D01*
X166602657Y-97589684D01*
X166250719Y-97941007D01*
X166060017Y-98400269D01*
X166059583Y-98897550D01*
X147655928Y-98897550D01*
X147611245Y-98789411D01*
X147312760Y-98490405D01*
X146922572Y-98328385D01*
X146500082Y-98328016D01*
X146109611Y-98489355D01*
X145810605Y-98787840D01*
X145648585Y-99178028D01*
X145648216Y-99600518D01*
X145232216Y-99600518D01*
X145232584Y-99179882D01*
X145071245Y-98789411D01*
X144772760Y-98490405D01*
X144382572Y-98328385D01*
X143960082Y-98328016D01*
X143569611Y-98489355D01*
X143270605Y-98787840D01*
X143108585Y-99178028D01*
X143108216Y-99600518D01*
X142692216Y-99600518D01*
X142692584Y-99179882D01*
X142531245Y-98789411D01*
X142232760Y-98490405D01*
X141842572Y-98328385D01*
X141420082Y-98328016D01*
X141029611Y-98489355D01*
X140730605Y-98787840D01*
X140568585Y-99178028D01*
X140568216Y-99600518D01*
X139479116Y-99600518D01*
X139479484Y-99179882D01*
X139318145Y-98789411D01*
X139019660Y-98490405D01*
X138629472Y-98328385D01*
X138206982Y-98328016D01*
X137816511Y-98489355D01*
X137517505Y-98787840D01*
X137355485Y-99178028D01*
X137355116Y-99600518D01*
X136435875Y-99600518D01*
X136720436Y-99316453D01*
X136899696Y-98884747D01*
X136900104Y-98417303D01*
X136721598Y-97985285D01*
X136391353Y-97654464D01*
X135959647Y-97475204D01*
X135492203Y-97474796D01*
X135060185Y-97653302D01*
X134729364Y-97983547D01*
X134550104Y-98415253D01*
X134549696Y-98882697D01*
X134484697Y-98882697D01*
X134485126Y-98392548D01*
X134287629Y-97914571D01*
X133922253Y-97548556D01*
X133444621Y-97350226D01*
X132927448Y-97349774D01*
X132449471Y-97547271D01*
X132083456Y-97912647D01*
X131885126Y-98390279D01*
X131884674Y-98907452D01*
X123475000Y-98907452D01*
X123475000Y-96088200D01*
X137349423Y-96088200D01*
X137349423Y-97612200D01*
X137370342Y-97723373D01*
X137436045Y-97825479D01*
X137536297Y-97893978D01*
X137655300Y-97918077D01*
X139179300Y-97918077D01*
X139290473Y-97897158D01*
X139392579Y-97831455D01*
X139461078Y-97731203D01*
X139485177Y-97612200D01*
X139485177Y-97060518D01*
X140568216Y-97060518D01*
X140729555Y-97450989D01*
X141028040Y-97749995D01*
X141418228Y-97912015D01*
X141840718Y-97912384D01*
X142231189Y-97751045D01*
X142530195Y-97452560D01*
X142692215Y-97062372D01*
X142692216Y-97060518D01*
X143108216Y-97060518D01*
X143269555Y-97450989D01*
X143568040Y-97749995D01*
X143958228Y-97912015D01*
X144380718Y-97912384D01*
X144771189Y-97751045D01*
X145070195Y-97452560D01*
X145193254Y-97156200D01*
X145340400Y-97156200D01*
X145340400Y-97733138D01*
X145432962Y-97956604D01*
X145603995Y-98127637D01*
X145827461Y-98220200D01*
X146404400Y-98220200D01*
X146556400Y-98068200D01*
X146556400Y-97004200D01*
X146864400Y-97004200D01*
X146864400Y-98068200D01*
X147016400Y-98220200D01*
X147593339Y-98220200D01*
X147816805Y-98127637D01*
X147987838Y-97956604D01*
X148080400Y-97733138D01*
X148080400Y-97156200D01*
X147928400Y-97004200D01*
X146864400Y-97004200D01*
X146556400Y-97004200D01*
X145492400Y-97004200D01*
X145340400Y-97156200D01*
X145193254Y-97156200D01*
X145232215Y-97062372D01*
X145232584Y-96639882D01*
X145071245Y-96249411D01*
X144789588Y-95967262D01*
X145340400Y-95967262D01*
X145340400Y-96544200D01*
X145492400Y-96696200D01*
X146556400Y-96696200D01*
X146556400Y-95632200D01*
X146864400Y-95632200D01*
X146864400Y-96696200D01*
X147928400Y-96696200D01*
X148080400Y-96544200D01*
X148080400Y-95967262D01*
X147987838Y-95743796D01*
X147816805Y-95572763D01*
X147593339Y-95480200D01*
X147016400Y-95480200D01*
X146864400Y-95632200D01*
X146556400Y-95632200D01*
X146404400Y-95480200D01*
X145827461Y-95480200D01*
X145603995Y-95572763D01*
X145432962Y-95743796D01*
X145340400Y-95967262D01*
X144789588Y-95967262D01*
X144772760Y-95950405D01*
X144382572Y-95788385D01*
X143960082Y-95788016D01*
X143569611Y-95949355D01*
X143270605Y-96247840D01*
X143108585Y-96638028D01*
X143108216Y-97060518D01*
X142692216Y-97060518D01*
X142692584Y-96639882D01*
X142531245Y-96249411D01*
X142232760Y-95950405D01*
X141842572Y-95788385D01*
X141420082Y-95788016D01*
X141029611Y-95949355D01*
X140730605Y-96247840D01*
X140568585Y-96638028D01*
X140568216Y-97060518D01*
X139485177Y-97060518D01*
X139485177Y-96088200D01*
X139464258Y-95977027D01*
X139398555Y-95874921D01*
X139298303Y-95806422D01*
X139179300Y-95782323D01*
X137655300Y-95782323D01*
X137544127Y-95803242D01*
X137442021Y-95868945D01*
X137373522Y-95969197D01*
X137349423Y-96088200D01*
X123475000Y-96088200D01*
X123475000Y-95215000D01*
X173525000Y-95215000D01*
X173525000Y-114785000D01*
M02*
