G04 #@! TF.FileFunction,Copper,L2,Bot,Signal*
%FSLAX46Y46*%
G04 Gerber Fmt 4.6, Leading zero omitted, Abs format (unit mm)*
G04 Created by KiCad (PCBNEW 4.0.2+dfsg1-stable) date ven. 15 mars 2019 11:09:51 CET*
%MOMM*%
G01*
G04 APERTURE LIST*
%ADD10C,0.100000*%
%ADD11R,2.000000X1.900000*%
%ADD12C,1.900000*%
%ADD13R,2.540000X2.540000*%
%ADD14C,2.540000*%
%ADD15C,0.711200*%
%ADD16C,0.304800*%
%ADD17C,0.203200*%
G04 APERTURE END LIST*
D10*
D11*
X136030000Y-98650000D03*
D12*
X136030000Y-101190000D03*
X136030000Y-103730000D03*
X136030000Y-106270000D03*
X136030000Y-108810000D03*
X136030000Y-111350000D03*
X133490000Y-98650000D03*
X133490000Y-101190000D03*
X133490000Y-103730000D03*
X133490000Y-106270000D03*
X133490000Y-108810000D03*
X133490000Y-111350000D03*
D13*
X162470000Y-102460000D03*
D14*
X162470000Y-107540000D03*
D15*
X149540000Y-104020000D03*
X144510000Y-108400000D03*
X138830000Y-108110000D03*
D16*
X149540000Y-104020000D02*
X148630000Y-104020000D01*
X147780000Y-104870000D02*
X147780000Y-107160000D01*
X147780000Y-107160000D02*
X146540000Y-108400000D01*
X144510000Y-108400000D02*
X146540000Y-108400000D01*
X148630000Y-104020000D02*
X147780000Y-104870000D01*
X138830000Y-108110000D02*
X141840000Y-108110000D01*
X142130000Y-108400000D02*
X144510000Y-108400000D01*
X141840000Y-108110000D02*
X142130000Y-108400000D01*
D17*
G36*
X167170200Y-114780200D02*
X129829800Y-114780200D01*
X129829800Y-111598500D01*
X132234983Y-111598500D01*
X132425612Y-112059859D01*
X132778285Y-112413147D01*
X133239310Y-112604582D01*
X133738500Y-112605017D01*
X134199859Y-112414388D01*
X134553147Y-112061715D01*
X134744582Y-111600690D01*
X134744583Y-111598500D01*
X134774983Y-111598500D01*
X134965612Y-112059859D01*
X135318285Y-112413147D01*
X135779310Y-112604582D01*
X136278500Y-112605017D01*
X136739859Y-112414388D01*
X137093147Y-112061715D01*
X137284582Y-111600690D01*
X137285017Y-111101500D01*
X137094388Y-110640141D01*
X136741715Y-110286853D01*
X136280690Y-110095418D01*
X135781500Y-110094983D01*
X135320141Y-110285612D01*
X134966853Y-110638285D01*
X134775418Y-111099310D01*
X134774983Y-111598500D01*
X134744583Y-111598500D01*
X134745017Y-111101500D01*
X134554388Y-110640141D01*
X134201715Y-110286853D01*
X133740690Y-110095418D01*
X133241500Y-110094983D01*
X132780141Y-110285612D01*
X132426853Y-110638285D01*
X132235418Y-111099310D01*
X132234983Y-111598500D01*
X129829800Y-111598500D01*
X129829800Y-109761689D01*
X132753837Y-109761689D01*
X132866646Y-109927251D01*
X133341649Y-110080753D01*
X133839237Y-110040794D01*
X134113354Y-109927251D01*
X134226163Y-109761689D01*
X135293837Y-109761689D01*
X135406646Y-109927251D01*
X135881649Y-110080753D01*
X136379237Y-110040794D01*
X136653354Y-109927251D01*
X136766163Y-109761689D01*
X136030000Y-109025526D01*
X135293837Y-109761689D01*
X134226163Y-109761689D01*
X133490000Y-109025526D01*
X132753837Y-109761689D01*
X129829800Y-109761689D01*
X129829800Y-108661649D01*
X132219247Y-108661649D01*
X132259206Y-109159237D01*
X132372749Y-109433354D01*
X132538311Y-109546163D01*
X133274474Y-108810000D01*
X133705526Y-108810000D01*
X134441689Y-109546163D01*
X134607251Y-109433354D01*
X134760753Y-108958351D01*
X134736927Y-108661649D01*
X134759247Y-108661649D01*
X134799206Y-109159237D01*
X134912749Y-109433354D01*
X135078311Y-109546163D01*
X135814474Y-108810000D01*
X136245526Y-108810000D01*
X136981689Y-109546163D01*
X137147251Y-109433354D01*
X137300753Y-108958351D01*
X137260794Y-108460763D01*
X137147251Y-108186646D01*
X136981689Y-108073837D01*
X136245526Y-108810000D01*
X135814474Y-108810000D01*
X135078311Y-108073837D01*
X134912749Y-108186646D01*
X134759247Y-108661649D01*
X134736927Y-108661649D01*
X134720794Y-108460763D01*
X134607251Y-108186646D01*
X134441689Y-108073837D01*
X133705526Y-108810000D01*
X133274474Y-108810000D01*
X132538311Y-108073837D01*
X132372749Y-108186646D01*
X132219247Y-108661649D01*
X129829800Y-108661649D01*
X129829800Y-107858311D01*
X132753837Y-107858311D01*
X133490000Y-108594474D01*
X134226163Y-107858311D01*
X135293837Y-107858311D01*
X136030000Y-108594474D01*
X136766163Y-107858311D01*
X136761777Y-107851873D01*
X160894927Y-107851873D01*
X161134171Y-108430887D01*
X161576783Y-108874272D01*
X162155379Y-109114526D01*
X162781873Y-109115073D01*
X163360887Y-108875829D01*
X163804272Y-108433217D01*
X164044526Y-107854621D01*
X164045073Y-107228127D01*
X163805829Y-106649113D01*
X163363217Y-106205728D01*
X162784621Y-105965474D01*
X162158127Y-105964927D01*
X161579113Y-106204171D01*
X161135728Y-106646783D01*
X160895474Y-107225379D01*
X160894927Y-107851873D01*
X136761777Y-107851873D01*
X136653354Y-107692749D01*
X136178351Y-107539247D01*
X135680763Y-107579206D01*
X135406646Y-107692749D01*
X135293837Y-107858311D01*
X134226163Y-107858311D01*
X134113354Y-107692749D01*
X133638351Y-107539247D01*
X133140763Y-107579206D01*
X132866646Y-107692749D01*
X132753837Y-107858311D01*
X129829800Y-107858311D01*
X129829800Y-106518500D01*
X132234983Y-106518500D01*
X132425612Y-106979859D01*
X132778285Y-107333147D01*
X133239310Y-107524582D01*
X133738500Y-107525017D01*
X134199859Y-107334388D01*
X134553147Y-106981715D01*
X134744582Y-106520690D01*
X134744583Y-106518500D01*
X134774983Y-106518500D01*
X134965612Y-106979859D01*
X135318285Y-107333147D01*
X135779310Y-107524582D01*
X136278500Y-107525017D01*
X136739859Y-107334388D01*
X137093147Y-106981715D01*
X137284582Y-106520690D01*
X137285017Y-106021500D01*
X137094388Y-105560141D01*
X136741715Y-105206853D01*
X136280690Y-105015418D01*
X135781500Y-105014983D01*
X135320141Y-105205612D01*
X134966853Y-105558285D01*
X134775418Y-106019310D01*
X134774983Y-106518500D01*
X134744583Y-106518500D01*
X134745017Y-106021500D01*
X134554388Y-105560141D01*
X134201715Y-105206853D01*
X133740690Y-105015418D01*
X133241500Y-105014983D01*
X132780141Y-105205612D01*
X132426853Y-105558285D01*
X132235418Y-106019310D01*
X132234983Y-106518500D01*
X129829800Y-106518500D01*
X129829800Y-103978500D01*
X132234983Y-103978500D01*
X132425612Y-104439859D01*
X132778285Y-104793147D01*
X133239310Y-104984582D01*
X133738500Y-104985017D01*
X134199859Y-104794388D01*
X134553147Y-104441715D01*
X134744582Y-103980690D01*
X134744583Y-103978500D01*
X134774983Y-103978500D01*
X134965612Y-104439859D01*
X135318285Y-104793147D01*
X135779310Y-104984582D01*
X136278500Y-104985017D01*
X136739859Y-104794388D01*
X137093147Y-104441715D01*
X137284582Y-103980690D01*
X137285017Y-103481500D01*
X137094388Y-103020141D01*
X136741715Y-102666853D01*
X136280690Y-102475418D01*
X135781500Y-102474983D01*
X135320141Y-102665612D01*
X134966853Y-103018285D01*
X134775418Y-103479310D01*
X134774983Y-103978500D01*
X134744583Y-103978500D01*
X134745017Y-103481500D01*
X134554388Y-103020141D01*
X134201715Y-102666853D01*
X133740690Y-102475418D01*
X133241500Y-102474983D01*
X132780141Y-102665612D01*
X132426853Y-103018285D01*
X132235418Y-103479310D01*
X132234983Y-103978500D01*
X129829800Y-103978500D01*
X129829800Y-101438500D01*
X132234983Y-101438500D01*
X132425612Y-101899859D01*
X132778285Y-102253147D01*
X133239310Y-102444582D01*
X133738500Y-102445017D01*
X134199859Y-102254388D01*
X134553147Y-101901715D01*
X134744582Y-101440690D01*
X134744583Y-101438500D01*
X134774983Y-101438500D01*
X134965612Y-101899859D01*
X135318285Y-102253147D01*
X135779310Y-102444582D01*
X136278500Y-102445017D01*
X136739859Y-102254388D01*
X137093147Y-101901715D01*
X137284582Y-101440690D01*
X137284800Y-101190000D01*
X160889229Y-101190000D01*
X160889229Y-103730000D01*
X160910482Y-103842952D01*
X160977237Y-103946692D01*
X161079093Y-104016287D01*
X161200000Y-104040771D01*
X163740000Y-104040771D01*
X163852952Y-104019518D01*
X163956692Y-103952763D01*
X164026287Y-103850907D01*
X164050771Y-103730000D01*
X164050771Y-101190000D01*
X164029518Y-101077048D01*
X163962763Y-100973308D01*
X163860907Y-100903713D01*
X163740000Y-100879229D01*
X161200000Y-100879229D01*
X161087048Y-100900482D01*
X160983308Y-100967237D01*
X160913713Y-101069093D01*
X160889229Y-101190000D01*
X137284800Y-101190000D01*
X137285017Y-100941500D01*
X137094388Y-100480141D01*
X136741715Y-100126853D01*
X136280690Y-99935418D01*
X135781500Y-99934983D01*
X135320141Y-100125612D01*
X134966853Y-100478285D01*
X134775418Y-100939310D01*
X134774983Y-101438500D01*
X134744583Y-101438500D01*
X134745017Y-100941500D01*
X134554388Y-100480141D01*
X134201715Y-100126853D01*
X133740690Y-99935418D01*
X133241500Y-99934983D01*
X132780141Y-100125612D01*
X132426853Y-100478285D01*
X132235418Y-100939310D01*
X132234983Y-101438500D01*
X129829800Y-101438500D01*
X129829800Y-98898500D01*
X132234983Y-98898500D01*
X132425612Y-99359859D01*
X132778285Y-99713147D01*
X133239310Y-99904582D01*
X133738500Y-99905017D01*
X134199859Y-99714388D01*
X134553147Y-99361715D01*
X134719229Y-98961747D01*
X134719229Y-99600000D01*
X134740482Y-99712952D01*
X134807237Y-99816692D01*
X134909093Y-99886287D01*
X135030000Y-99910771D01*
X137030000Y-99910771D01*
X137142952Y-99889518D01*
X137246692Y-99822763D01*
X137316287Y-99720907D01*
X137340771Y-99600000D01*
X137340771Y-97700000D01*
X137319518Y-97587048D01*
X137252763Y-97483308D01*
X137150907Y-97413713D01*
X137030000Y-97389229D01*
X135030000Y-97389229D01*
X134917048Y-97410482D01*
X134813308Y-97477237D01*
X134743713Y-97579093D01*
X134719229Y-97700000D01*
X134719229Y-98339088D01*
X134554388Y-97940141D01*
X134201715Y-97586853D01*
X133740690Y-97395418D01*
X133241500Y-97394983D01*
X132780141Y-97585612D01*
X132426853Y-97938285D01*
X132235418Y-98399310D01*
X132234983Y-98898500D01*
X129829800Y-98898500D01*
X129829800Y-95219800D01*
X167170200Y-95219800D01*
X167170200Y-114780200D01*
X167170200Y-114780200D01*
G37*
X167170200Y-114780200D02*
X129829800Y-114780200D01*
X129829800Y-111598500D01*
X132234983Y-111598500D01*
X132425612Y-112059859D01*
X132778285Y-112413147D01*
X133239310Y-112604582D01*
X133738500Y-112605017D01*
X134199859Y-112414388D01*
X134553147Y-112061715D01*
X134744582Y-111600690D01*
X134744583Y-111598500D01*
X134774983Y-111598500D01*
X134965612Y-112059859D01*
X135318285Y-112413147D01*
X135779310Y-112604582D01*
X136278500Y-112605017D01*
X136739859Y-112414388D01*
X137093147Y-112061715D01*
X137284582Y-111600690D01*
X137285017Y-111101500D01*
X137094388Y-110640141D01*
X136741715Y-110286853D01*
X136280690Y-110095418D01*
X135781500Y-110094983D01*
X135320141Y-110285612D01*
X134966853Y-110638285D01*
X134775418Y-111099310D01*
X134774983Y-111598500D01*
X134744583Y-111598500D01*
X134745017Y-111101500D01*
X134554388Y-110640141D01*
X134201715Y-110286853D01*
X133740690Y-110095418D01*
X133241500Y-110094983D01*
X132780141Y-110285612D01*
X132426853Y-110638285D01*
X132235418Y-111099310D01*
X132234983Y-111598500D01*
X129829800Y-111598500D01*
X129829800Y-109761689D01*
X132753837Y-109761689D01*
X132866646Y-109927251D01*
X133341649Y-110080753D01*
X133839237Y-110040794D01*
X134113354Y-109927251D01*
X134226163Y-109761689D01*
X135293837Y-109761689D01*
X135406646Y-109927251D01*
X135881649Y-110080753D01*
X136379237Y-110040794D01*
X136653354Y-109927251D01*
X136766163Y-109761689D01*
X136030000Y-109025526D01*
X135293837Y-109761689D01*
X134226163Y-109761689D01*
X133490000Y-109025526D01*
X132753837Y-109761689D01*
X129829800Y-109761689D01*
X129829800Y-108661649D01*
X132219247Y-108661649D01*
X132259206Y-109159237D01*
X132372749Y-109433354D01*
X132538311Y-109546163D01*
X133274474Y-108810000D01*
X133705526Y-108810000D01*
X134441689Y-109546163D01*
X134607251Y-109433354D01*
X134760753Y-108958351D01*
X134736927Y-108661649D01*
X134759247Y-108661649D01*
X134799206Y-109159237D01*
X134912749Y-109433354D01*
X135078311Y-109546163D01*
X135814474Y-108810000D01*
X136245526Y-108810000D01*
X136981689Y-109546163D01*
X137147251Y-109433354D01*
X137300753Y-108958351D01*
X137260794Y-108460763D01*
X137147251Y-108186646D01*
X136981689Y-108073837D01*
X136245526Y-108810000D01*
X135814474Y-108810000D01*
X135078311Y-108073837D01*
X134912749Y-108186646D01*
X134759247Y-108661649D01*
X134736927Y-108661649D01*
X134720794Y-108460763D01*
X134607251Y-108186646D01*
X134441689Y-108073837D01*
X133705526Y-108810000D01*
X133274474Y-108810000D01*
X132538311Y-108073837D01*
X132372749Y-108186646D01*
X132219247Y-108661649D01*
X129829800Y-108661649D01*
X129829800Y-107858311D01*
X132753837Y-107858311D01*
X133490000Y-108594474D01*
X134226163Y-107858311D01*
X135293837Y-107858311D01*
X136030000Y-108594474D01*
X136766163Y-107858311D01*
X136761777Y-107851873D01*
X160894927Y-107851873D01*
X161134171Y-108430887D01*
X161576783Y-108874272D01*
X162155379Y-109114526D01*
X162781873Y-109115073D01*
X163360887Y-108875829D01*
X163804272Y-108433217D01*
X164044526Y-107854621D01*
X164045073Y-107228127D01*
X163805829Y-106649113D01*
X163363217Y-106205728D01*
X162784621Y-105965474D01*
X162158127Y-105964927D01*
X161579113Y-106204171D01*
X161135728Y-106646783D01*
X160895474Y-107225379D01*
X160894927Y-107851873D01*
X136761777Y-107851873D01*
X136653354Y-107692749D01*
X136178351Y-107539247D01*
X135680763Y-107579206D01*
X135406646Y-107692749D01*
X135293837Y-107858311D01*
X134226163Y-107858311D01*
X134113354Y-107692749D01*
X133638351Y-107539247D01*
X133140763Y-107579206D01*
X132866646Y-107692749D01*
X132753837Y-107858311D01*
X129829800Y-107858311D01*
X129829800Y-106518500D01*
X132234983Y-106518500D01*
X132425612Y-106979859D01*
X132778285Y-107333147D01*
X133239310Y-107524582D01*
X133738500Y-107525017D01*
X134199859Y-107334388D01*
X134553147Y-106981715D01*
X134744582Y-106520690D01*
X134744583Y-106518500D01*
X134774983Y-106518500D01*
X134965612Y-106979859D01*
X135318285Y-107333147D01*
X135779310Y-107524582D01*
X136278500Y-107525017D01*
X136739859Y-107334388D01*
X137093147Y-106981715D01*
X137284582Y-106520690D01*
X137285017Y-106021500D01*
X137094388Y-105560141D01*
X136741715Y-105206853D01*
X136280690Y-105015418D01*
X135781500Y-105014983D01*
X135320141Y-105205612D01*
X134966853Y-105558285D01*
X134775418Y-106019310D01*
X134774983Y-106518500D01*
X134744583Y-106518500D01*
X134745017Y-106021500D01*
X134554388Y-105560141D01*
X134201715Y-105206853D01*
X133740690Y-105015418D01*
X133241500Y-105014983D01*
X132780141Y-105205612D01*
X132426853Y-105558285D01*
X132235418Y-106019310D01*
X132234983Y-106518500D01*
X129829800Y-106518500D01*
X129829800Y-103978500D01*
X132234983Y-103978500D01*
X132425612Y-104439859D01*
X132778285Y-104793147D01*
X133239310Y-104984582D01*
X133738500Y-104985017D01*
X134199859Y-104794388D01*
X134553147Y-104441715D01*
X134744582Y-103980690D01*
X134744583Y-103978500D01*
X134774983Y-103978500D01*
X134965612Y-104439859D01*
X135318285Y-104793147D01*
X135779310Y-104984582D01*
X136278500Y-104985017D01*
X136739859Y-104794388D01*
X137093147Y-104441715D01*
X137284582Y-103980690D01*
X137285017Y-103481500D01*
X137094388Y-103020141D01*
X136741715Y-102666853D01*
X136280690Y-102475418D01*
X135781500Y-102474983D01*
X135320141Y-102665612D01*
X134966853Y-103018285D01*
X134775418Y-103479310D01*
X134774983Y-103978500D01*
X134744583Y-103978500D01*
X134745017Y-103481500D01*
X134554388Y-103020141D01*
X134201715Y-102666853D01*
X133740690Y-102475418D01*
X133241500Y-102474983D01*
X132780141Y-102665612D01*
X132426853Y-103018285D01*
X132235418Y-103479310D01*
X132234983Y-103978500D01*
X129829800Y-103978500D01*
X129829800Y-101438500D01*
X132234983Y-101438500D01*
X132425612Y-101899859D01*
X132778285Y-102253147D01*
X133239310Y-102444582D01*
X133738500Y-102445017D01*
X134199859Y-102254388D01*
X134553147Y-101901715D01*
X134744582Y-101440690D01*
X134744583Y-101438500D01*
X134774983Y-101438500D01*
X134965612Y-101899859D01*
X135318285Y-102253147D01*
X135779310Y-102444582D01*
X136278500Y-102445017D01*
X136739859Y-102254388D01*
X137093147Y-101901715D01*
X137284582Y-101440690D01*
X137284800Y-101190000D01*
X160889229Y-101190000D01*
X160889229Y-103730000D01*
X160910482Y-103842952D01*
X160977237Y-103946692D01*
X161079093Y-104016287D01*
X161200000Y-104040771D01*
X163740000Y-104040771D01*
X163852952Y-104019518D01*
X163956692Y-103952763D01*
X164026287Y-103850907D01*
X164050771Y-103730000D01*
X164050771Y-101190000D01*
X164029518Y-101077048D01*
X163962763Y-100973308D01*
X163860907Y-100903713D01*
X163740000Y-100879229D01*
X161200000Y-100879229D01*
X161087048Y-100900482D01*
X160983308Y-100967237D01*
X160913713Y-101069093D01*
X160889229Y-101190000D01*
X137284800Y-101190000D01*
X137285017Y-100941500D01*
X137094388Y-100480141D01*
X136741715Y-100126853D01*
X136280690Y-99935418D01*
X135781500Y-99934983D01*
X135320141Y-100125612D01*
X134966853Y-100478285D01*
X134775418Y-100939310D01*
X134774983Y-101438500D01*
X134744583Y-101438500D01*
X134745017Y-100941500D01*
X134554388Y-100480141D01*
X134201715Y-100126853D01*
X133740690Y-99935418D01*
X133241500Y-99934983D01*
X132780141Y-100125612D01*
X132426853Y-100478285D01*
X132235418Y-100939310D01*
X132234983Y-101438500D01*
X129829800Y-101438500D01*
X129829800Y-98898500D01*
X132234983Y-98898500D01*
X132425612Y-99359859D01*
X132778285Y-99713147D01*
X133239310Y-99904582D01*
X133738500Y-99905017D01*
X134199859Y-99714388D01*
X134553147Y-99361715D01*
X134719229Y-98961747D01*
X134719229Y-99600000D01*
X134740482Y-99712952D01*
X134807237Y-99816692D01*
X134909093Y-99886287D01*
X135030000Y-99910771D01*
X137030000Y-99910771D01*
X137142952Y-99889518D01*
X137246692Y-99822763D01*
X137316287Y-99720907D01*
X137340771Y-99600000D01*
X137340771Y-97700000D01*
X137319518Y-97587048D01*
X137252763Y-97483308D01*
X137150907Y-97413713D01*
X137030000Y-97389229D01*
X135030000Y-97389229D01*
X134917048Y-97410482D01*
X134813308Y-97477237D01*
X134743713Y-97579093D01*
X134719229Y-97700000D01*
X134719229Y-98339088D01*
X134554388Y-97940141D01*
X134201715Y-97586853D01*
X133740690Y-97395418D01*
X133241500Y-97394983D01*
X132780141Y-97585612D01*
X132426853Y-97938285D01*
X132235418Y-98399310D01*
X132234983Y-98898500D01*
X129829800Y-98898500D01*
X129829800Y-95219800D01*
X167170200Y-95219800D01*
X167170200Y-114780200D01*
M02*
