G04 #@! TF.FileFunction,Legend,Top*
%FSLAX46Y46*%
G04 Gerber Fmt 4.6, Leading zero omitted, Abs format (unit mm)*
G04 Created by KiCad (PCBNEW 4.0.2+dfsg1-stable) date ven. 15 mars 2019 11:09:51 CET*
%MOMM*%
G01*
G04 APERTURE LIST*
%ADD10C,0.100000*%
%ADD11C,0.150000*%
%ADD12C,0.127000*%
%ADD13C,0.101600*%
%ADD14C,0.027940*%
G04 APERTURE END LIST*
D10*
D11*
X123450000Y-98650000D02*
X129450000Y-98650000D01*
X123450000Y-101190000D02*
X129450000Y-101190000D01*
X123450000Y-103730000D02*
X129450000Y-103730000D01*
X123450000Y-106270000D02*
X129450000Y-106270000D01*
X123450000Y-108810000D02*
X129450000Y-108810000D01*
X123450000Y-111350000D02*
X129450000Y-111350000D01*
X131990000Y-112620000D02*
X131990000Y-97380000D01*
X131990000Y-97380000D02*
X129450000Y-97380000D01*
X129450000Y-97380000D02*
X129450000Y-112620000D01*
X131990000Y-112620000D02*
X129450000Y-112620000D01*
D12*
X139592000Y-110588000D02*
X139592000Y-111604000D01*
X139592000Y-111604000D02*
X138068000Y-111604000D01*
X138068000Y-111604000D02*
X138068000Y-110588000D01*
X138068000Y-109572000D02*
X138068000Y-108556000D01*
X138068000Y-108556000D02*
X139592000Y-108556000D01*
X139592000Y-108556000D02*
X139592000Y-109572000D01*
X145145000Y-105597000D02*
X145145000Y-107883000D01*
X145145000Y-107883000D02*
X143875000Y-107883000D01*
X143875000Y-107883000D02*
X143875000Y-105597000D01*
X143875000Y-105597000D02*
X145145000Y-105597000D01*
X154742000Y-108302000D02*
X153726000Y-108302000D01*
X153726000Y-108302000D02*
X153726000Y-106778000D01*
X153726000Y-106778000D02*
X154742000Y-106778000D01*
X155758000Y-106778000D02*
X156774000Y-106778000D01*
X156774000Y-106778000D02*
X156774000Y-108302000D01*
X156774000Y-108302000D02*
X155758000Y-108302000D01*
D13*
X167550000Y-99920000D02*
X157390000Y-99920000D01*
X157390000Y-99920000D02*
X157390000Y-110080000D01*
X157390000Y-110080000D02*
X167550000Y-110080000D01*
X167550000Y-110080000D02*
X167550000Y-99920000D01*
D14*
X148334900Y-107688600D02*
X148588900Y-107688600D01*
X148182500Y-107714000D02*
X148817500Y-107714000D01*
X148182500Y-107739400D02*
X148817500Y-107739400D01*
X148157100Y-107764800D02*
X148842900Y-107764800D01*
X148157100Y-107790200D02*
X148842900Y-107790200D01*
X148157100Y-107815600D02*
X148842900Y-107815600D01*
X148157100Y-107841000D02*
X148842900Y-107841000D01*
X148157100Y-107866400D02*
X148842900Y-107866400D01*
X148157100Y-107891800D02*
X148842900Y-107891800D01*
X148131700Y-107917200D02*
X148868300Y-107917200D01*
X148131700Y-107942600D02*
X148868300Y-107942600D01*
X148131700Y-107968000D02*
X148868300Y-107968000D01*
X148131700Y-107993400D02*
X148868300Y-107993400D01*
X148131700Y-108018800D02*
X148868300Y-108018800D01*
X148106300Y-108044200D02*
X148868300Y-108044200D01*
X148106300Y-108069600D02*
X148893700Y-108069600D01*
X148106300Y-108095000D02*
X148893700Y-108095000D01*
X148106300Y-108120400D02*
X148893700Y-108120400D01*
X148106300Y-108145800D02*
X148893700Y-108145800D01*
X147064900Y-108171200D02*
X147141100Y-108171200D01*
X148106300Y-108171200D02*
X148893700Y-108171200D01*
X149833500Y-108171200D02*
X149935100Y-108171200D01*
X147039500Y-108196600D02*
X147166500Y-108196600D01*
X148080900Y-108196600D02*
X148893700Y-108196600D01*
X149782700Y-108196600D02*
X149960500Y-108196600D01*
X147014100Y-108222000D02*
X147217300Y-108222000D01*
X148080900Y-108222000D02*
X148893700Y-108222000D01*
X149757300Y-108222000D02*
X149985900Y-108222000D01*
X146963300Y-108247400D02*
X147242700Y-108247400D01*
X148080900Y-108247400D02*
X148919100Y-108247400D01*
X149706500Y-108247400D02*
X150036700Y-108247400D01*
X146937900Y-108272800D02*
X147293500Y-108272800D01*
X148080900Y-108272800D02*
X148919100Y-108272800D01*
X149681100Y-108272800D02*
X150062100Y-108272800D01*
X146912500Y-108298200D02*
X147318900Y-108298200D01*
X148080900Y-108298200D02*
X148919100Y-108298200D01*
X149630300Y-108298200D02*
X150087500Y-108298200D01*
X146887100Y-108323600D02*
X147344300Y-108323600D01*
X148055500Y-108323600D02*
X148919100Y-108323600D01*
X149604900Y-108323600D02*
X150112900Y-108323600D01*
X146861700Y-108349000D02*
X147395100Y-108349000D01*
X147979300Y-108349000D02*
X149020700Y-108349000D01*
X149554100Y-108349000D02*
X150138300Y-108349000D01*
X146836300Y-108374400D02*
X147420500Y-108374400D01*
X147903100Y-108374400D02*
X149096900Y-108374400D01*
X149528700Y-108374400D02*
X150163700Y-108374400D01*
X146810900Y-108399800D02*
X147471300Y-108399800D01*
X147826900Y-108399800D02*
X149147700Y-108399800D01*
X149477900Y-108399800D02*
X150189100Y-108399800D01*
X146785500Y-108425200D02*
X147496700Y-108425200D01*
X147776100Y-108425200D02*
X149223900Y-108425200D01*
X149452500Y-108425200D02*
X150214500Y-108425200D01*
X146760100Y-108450600D02*
X147522100Y-108450600D01*
X147725300Y-108450600D02*
X149274700Y-108450600D01*
X149427100Y-108450600D02*
X150239900Y-108450600D01*
X146734700Y-108476000D02*
X147572900Y-108476000D01*
X147674500Y-108476000D02*
X149325500Y-108476000D01*
X149376300Y-108476000D02*
X150265300Y-108476000D01*
X146709300Y-108501400D02*
X147598300Y-108501400D01*
X147623700Y-108501400D02*
X150290700Y-108501400D01*
X146683900Y-108526800D02*
X150290700Y-108526800D01*
X146683900Y-108552200D02*
X150316100Y-108552200D01*
X146658500Y-108577600D02*
X150316100Y-108577600D01*
X146658500Y-108603000D02*
X150316100Y-108603000D01*
X146683900Y-108628400D02*
X150316100Y-108628400D01*
X146683900Y-108653800D02*
X150290700Y-108653800D01*
X146709300Y-108679200D02*
X150290700Y-108679200D01*
X146734700Y-108704600D02*
X150265300Y-108704600D01*
X146734700Y-108730000D02*
X150239900Y-108730000D01*
X146760100Y-108755400D02*
X150214500Y-108755400D01*
X146785500Y-108780800D02*
X150214500Y-108780800D01*
X146810900Y-108806200D02*
X150189100Y-108806200D01*
X146810900Y-108831600D02*
X150163700Y-108831600D01*
X146836300Y-108857000D02*
X150163700Y-108857000D01*
X146861700Y-108882400D02*
X150138300Y-108882400D01*
X146861700Y-108907800D02*
X150112900Y-108907800D01*
X146887100Y-108933200D02*
X150087500Y-108933200D01*
X146912500Y-108958600D02*
X150087500Y-108958600D01*
X146912500Y-108984000D02*
X150062100Y-108984000D01*
X146937900Y-109009400D02*
X150036700Y-109009400D01*
X146963300Y-109034800D02*
X150011300Y-109034800D01*
X146963300Y-109060200D02*
X150011300Y-109060200D01*
X146988700Y-109085600D02*
X149985900Y-109085600D01*
X146988700Y-109111000D02*
X149985900Y-109111000D01*
X146988700Y-109136400D02*
X150011300Y-109136400D01*
X146963300Y-109161800D02*
X150036700Y-109161800D01*
X146963300Y-109187200D02*
X150036700Y-109187200D01*
X146937900Y-109212600D02*
X150062100Y-109212600D01*
X146937900Y-109238000D02*
X150062100Y-109238000D01*
X146912500Y-109263400D02*
X150087500Y-109263400D01*
X146912500Y-109288800D02*
X150087500Y-109288800D01*
X146887100Y-109314200D02*
X150112900Y-109314200D01*
X146887100Y-109339600D02*
X150112900Y-109339600D01*
X146861700Y-109365000D02*
X150112900Y-109365000D01*
X146861700Y-109390400D02*
X148385700Y-109390400D01*
X148614300Y-109390400D02*
X150138300Y-109390400D01*
X146861700Y-109415800D02*
X148309500Y-109415800D01*
X148690500Y-109415800D02*
X150138300Y-109415800D01*
X146836300Y-109441200D02*
X148233300Y-109441200D01*
X148766700Y-109441200D02*
X150163700Y-109441200D01*
X146836300Y-109466600D02*
X148182500Y-109466600D01*
X148817500Y-109466600D02*
X150163700Y-109466600D01*
X146836300Y-109492000D02*
X148157100Y-109492000D01*
X148842900Y-109492000D02*
X150163700Y-109492000D01*
X146810900Y-109517400D02*
X148106300Y-109517400D01*
X148893700Y-109517400D02*
X150189100Y-109517400D01*
X146810900Y-109542800D02*
X148080900Y-109542800D01*
X148919100Y-109542800D02*
X150265300Y-109542800D01*
X146810900Y-109568200D02*
X148055500Y-109568200D01*
X148944500Y-109568200D02*
X150417700Y-109568200D01*
X146785500Y-109593600D02*
X148030100Y-109593600D01*
X148969900Y-109593600D02*
X150544700Y-109593600D01*
X146633100Y-109619000D02*
X148004700Y-109619000D01*
X148995300Y-109619000D02*
X150697100Y-109619000D01*
X146480700Y-109644400D02*
X148004700Y-109644400D01*
X148995300Y-109644400D02*
X150798700Y-109644400D01*
X146328300Y-109669800D02*
X147979300Y-109669800D01*
X149020700Y-109669800D02*
X150798700Y-109669800D01*
X146201300Y-109695200D02*
X147953900Y-109695200D01*
X149046100Y-109695200D02*
X150824100Y-109695200D01*
X146175900Y-109720600D02*
X147953900Y-109720600D01*
X149046100Y-109720600D02*
X150824100Y-109720600D01*
X146175900Y-109746000D02*
X147928500Y-109746000D01*
X149071500Y-109746000D02*
X150824100Y-109746000D01*
X146175900Y-109771400D02*
X147928500Y-109771400D01*
X149071500Y-109771400D02*
X150824100Y-109771400D01*
X146175900Y-109796800D02*
X147903100Y-109796800D01*
X149096900Y-109796800D02*
X150824100Y-109796800D01*
X146175900Y-109822200D02*
X147903100Y-109822200D01*
X149096900Y-109822200D02*
X150824100Y-109822200D01*
X146175900Y-109847600D02*
X147903100Y-109847600D01*
X149096900Y-109847600D02*
X150824100Y-109847600D01*
X146175900Y-109873000D02*
X147903100Y-109873000D01*
X149122300Y-109873000D02*
X150824100Y-109873000D01*
X146175900Y-109898400D02*
X147877700Y-109898400D01*
X149122300Y-109898400D02*
X150824100Y-109898400D01*
X146175900Y-109923800D02*
X147877700Y-109923800D01*
X149122300Y-109923800D02*
X150849500Y-109923800D01*
X146150500Y-109949200D02*
X147877700Y-109949200D01*
X149122300Y-109949200D02*
X150849500Y-109949200D01*
X146150500Y-109974600D02*
X147877700Y-109974600D01*
X149122300Y-109974600D02*
X150849500Y-109974600D01*
X146150500Y-110000000D02*
X147877700Y-110000000D01*
X149122300Y-110000000D02*
X150849500Y-110000000D01*
X146150500Y-110025400D02*
X147877700Y-110025400D01*
X149122300Y-110025400D02*
X150849500Y-110025400D01*
X146150500Y-110050800D02*
X147877700Y-110050800D01*
X149122300Y-110050800D02*
X150849500Y-110050800D01*
X146150500Y-110076200D02*
X147877700Y-110076200D01*
X149122300Y-110076200D02*
X150849500Y-110076200D01*
X146150500Y-110101600D02*
X147877700Y-110101600D01*
X149122300Y-110101600D02*
X150849500Y-110101600D01*
X146150500Y-110127000D02*
X147877700Y-110127000D01*
X149122300Y-110127000D02*
X150849500Y-110127000D01*
X146150500Y-110152400D02*
X147903100Y-110152400D01*
X149122300Y-110152400D02*
X150849500Y-110152400D01*
X146175900Y-110177800D02*
X147903100Y-110177800D01*
X149096900Y-110177800D02*
X150849500Y-110177800D01*
X146175900Y-110203200D02*
X147903100Y-110203200D01*
X149096900Y-110203200D02*
X150824100Y-110203200D01*
X146175900Y-110228600D02*
X147928500Y-110228600D01*
X149096900Y-110228600D02*
X150824100Y-110228600D01*
X146175900Y-110254000D02*
X147928500Y-110254000D01*
X149071500Y-110254000D02*
X150824100Y-110254000D01*
X146175900Y-110279400D02*
X147928500Y-110279400D01*
X149071500Y-110279400D02*
X150798700Y-110279400D01*
X146175900Y-110304800D02*
X147953900Y-110304800D01*
X149046100Y-110304800D02*
X150646300Y-110304800D01*
X146277500Y-110330200D02*
X147979300Y-110330200D01*
X149046100Y-110330200D02*
X150493900Y-110330200D01*
X146404500Y-110355600D02*
X147979300Y-110355600D01*
X149020700Y-110355600D02*
X150316100Y-110355600D01*
X146556900Y-110381000D02*
X148004700Y-110381000D01*
X148995300Y-110381000D02*
X150214500Y-110381000D01*
X146683900Y-110406400D02*
X148030100Y-110406400D01*
X148969900Y-110406400D02*
X150214500Y-110406400D01*
X146785500Y-110431800D02*
X148055500Y-110431800D01*
X148969900Y-110431800D02*
X150214500Y-110431800D01*
X146810900Y-110457200D02*
X148055500Y-110457200D01*
X148944500Y-110457200D02*
X150189100Y-110457200D01*
X146810900Y-110482600D02*
X148106300Y-110482600D01*
X148893700Y-110482600D02*
X150189100Y-110482600D01*
X146810900Y-110508000D02*
X148131700Y-110508000D01*
X148868300Y-110508000D02*
X150189100Y-110508000D01*
X146810900Y-110533400D02*
X148157100Y-110533400D01*
X148842900Y-110533400D02*
X150189100Y-110533400D01*
X146836300Y-110558800D02*
X148207900Y-110558800D01*
X148792100Y-110558800D02*
X150163700Y-110558800D01*
X146836300Y-110584200D02*
X148258700Y-110584200D01*
X148741300Y-110584200D02*
X150163700Y-110584200D01*
X146836300Y-110609600D02*
X148284100Y-110609600D01*
X148741300Y-110609600D02*
X150163700Y-110609600D01*
X146861700Y-110635000D02*
X148284100Y-110635000D01*
X148741300Y-110635000D02*
X150138300Y-110635000D01*
X146861700Y-110660400D02*
X148284100Y-110660400D01*
X148741300Y-110660400D02*
X150138300Y-110660400D01*
X146861700Y-110685800D02*
X148258700Y-110685800D01*
X148766700Y-110685800D02*
X150112900Y-110685800D01*
X146887100Y-110711200D02*
X148258700Y-110711200D01*
X148766700Y-110711200D02*
X150112900Y-110711200D01*
X146887100Y-110736600D02*
X148258700Y-110736600D01*
X148766700Y-110736600D02*
X150112900Y-110736600D01*
X146912500Y-110762000D02*
X148233300Y-110762000D01*
X148792100Y-110762000D02*
X150087500Y-110762000D01*
X146912500Y-110787400D02*
X148233300Y-110787400D01*
X148792100Y-110787400D02*
X150087500Y-110787400D01*
X146937900Y-110812800D02*
X148207900Y-110812800D01*
X148817500Y-110812800D02*
X150062100Y-110812800D01*
X146937900Y-110838200D02*
X148207900Y-110838200D01*
X148817500Y-110838200D02*
X150062100Y-110838200D01*
X146963300Y-110863600D02*
X148207900Y-110863600D01*
X148817500Y-110863600D02*
X150036700Y-110863600D01*
X146963300Y-110889000D02*
X148182500Y-110889000D01*
X148842900Y-110889000D02*
X150062100Y-110889000D01*
X146988700Y-110914400D02*
X148182500Y-110914400D01*
X148842900Y-110914400D02*
X150062100Y-110914400D01*
X146988700Y-110939800D02*
X148182500Y-110939800D01*
X148868300Y-110939800D02*
X150087500Y-110939800D01*
X146988700Y-110965200D02*
X148157100Y-110965200D01*
X148868300Y-110965200D02*
X150112900Y-110965200D01*
X146988700Y-110990600D02*
X148157100Y-110990600D01*
X148868300Y-110990600D02*
X150138300Y-110990600D01*
X146963300Y-111016000D02*
X148157100Y-111016000D01*
X148893700Y-111016000D02*
X150138300Y-111016000D01*
X146937900Y-111041400D02*
X148131700Y-111041400D01*
X148893700Y-111041400D02*
X150163700Y-111041400D01*
X146912500Y-111066800D02*
X148131700Y-111066800D01*
X148893700Y-111066800D02*
X150189100Y-111066800D01*
X146912500Y-111092200D02*
X148131700Y-111092200D01*
X148919100Y-111092200D02*
X150189100Y-111092200D01*
X146887100Y-111117600D02*
X148106300Y-111117600D01*
X148919100Y-111117600D02*
X150214500Y-111117600D01*
X146861700Y-111143000D02*
X148106300Y-111143000D01*
X148944500Y-111143000D02*
X150239900Y-111143000D01*
X146836300Y-111168400D02*
X148106300Y-111168400D01*
X148944500Y-111168400D02*
X150239900Y-111168400D01*
X146836300Y-111193800D02*
X148080900Y-111193800D01*
X148944500Y-111193800D02*
X150265300Y-111193800D01*
X146810900Y-111219200D02*
X148080900Y-111219200D01*
X148969900Y-111219200D02*
X150290700Y-111219200D01*
X146785500Y-111244600D02*
X148055500Y-111244600D01*
X148969900Y-111244600D02*
X150290700Y-111244600D01*
X146785500Y-111270000D02*
X148055500Y-111270000D01*
X148995300Y-111270000D02*
X150316100Y-111270000D01*
X146760100Y-111295400D02*
X148055500Y-111295400D01*
X148995300Y-111295400D02*
X150341500Y-111295400D01*
X146734700Y-111320800D02*
X148030100Y-111320800D01*
X148995300Y-111320800D02*
X150366900Y-111320800D01*
X146709300Y-111346200D02*
X148030100Y-111346200D01*
X149020700Y-111346200D02*
X150366900Y-111346200D01*
X146709300Y-111371600D02*
X148030100Y-111371600D01*
X149020700Y-111371600D02*
X150392300Y-111371600D01*
X146683900Y-111397000D02*
X148004700Y-111397000D01*
X149046100Y-111397000D02*
X150392300Y-111397000D01*
X146658500Y-111422400D02*
X148004700Y-111422400D01*
X149046100Y-111422400D02*
X150392300Y-111422400D01*
X146658500Y-111447800D02*
X148004700Y-111447800D01*
X149046100Y-111447800D02*
X150366900Y-111447800D01*
X146658500Y-111473200D02*
X147979300Y-111473200D01*
X149071500Y-111473200D02*
X150341500Y-111473200D01*
X146658500Y-111498600D02*
X147979300Y-111498600D01*
X149071500Y-111498600D02*
X150316100Y-111498600D01*
X146683900Y-111524000D02*
X147979300Y-111524000D01*
X149071500Y-111524000D02*
X150290700Y-111524000D01*
X146709300Y-111549400D02*
X147953900Y-111549400D01*
X149096900Y-111549400D02*
X150290700Y-111549400D01*
X146734700Y-111574800D02*
X147953900Y-111574800D01*
X149096900Y-111574800D02*
X149452500Y-111574800D01*
X149503300Y-111574800D02*
X150265300Y-111574800D01*
X146760100Y-111600200D02*
X147953900Y-111600200D01*
X149122300Y-111600200D02*
X149376300Y-111600200D01*
X149579500Y-111600200D02*
X150239900Y-111600200D01*
X146785500Y-111625600D02*
X147547500Y-111625600D01*
X147674500Y-111625600D02*
X147928500Y-111625600D01*
X149122300Y-111625600D02*
X149325500Y-111625600D01*
X149604900Y-111625600D02*
X150214500Y-111625600D01*
X146810900Y-111651000D02*
X147496700Y-111651000D01*
X147750700Y-111651000D02*
X147928500Y-111651000D01*
X149122300Y-111651000D02*
X149274700Y-111651000D01*
X149630300Y-111651000D02*
X150189100Y-111651000D01*
X146836300Y-111676400D02*
X147445900Y-111676400D01*
X147801500Y-111676400D02*
X147903100Y-111676400D01*
X149147700Y-111676400D02*
X149223900Y-111676400D01*
X149655700Y-111676400D02*
X150214500Y-111676400D01*
X146861700Y-111701800D02*
X147420500Y-111701800D01*
X147852300Y-111701800D02*
X147903100Y-111701800D01*
X149147700Y-111701800D02*
X149173100Y-111701800D01*
X149655700Y-111701800D02*
X150214500Y-111701800D01*
X146887100Y-111727200D02*
X147369700Y-111727200D01*
X149706500Y-111727200D02*
X150214500Y-111727200D01*
X146912500Y-111752600D02*
X147344300Y-111752600D01*
X149731900Y-111752600D02*
X150214500Y-111752600D01*
X146912500Y-111778000D02*
X147293500Y-111778000D01*
X149757300Y-111778000D02*
X150214500Y-111778000D01*
X146912500Y-111803400D02*
X147268100Y-111803400D01*
X149808100Y-111803400D02*
X150214500Y-111803400D01*
X146912500Y-111828800D02*
X147242700Y-111828800D01*
X149858900Y-111828800D02*
X150189100Y-111828800D01*
X146937900Y-111854200D02*
X147217300Y-111854200D01*
X149909700Y-111854200D02*
X150189100Y-111854200D01*
X146937900Y-111879600D02*
X147191900Y-111879600D01*
X149935100Y-111879600D02*
X150163700Y-111879600D01*
X146963300Y-111905000D02*
X147191900Y-111905000D01*
X149960500Y-111905000D02*
X150163700Y-111905000D01*
X146988700Y-111930400D02*
X147166500Y-111930400D01*
X149985900Y-111930400D02*
X150138300Y-111930400D01*
X147014100Y-111955800D02*
X147166500Y-111955800D01*
X150011300Y-111955800D02*
X150112900Y-111955800D01*
X147039500Y-111981200D02*
X147141100Y-111981200D01*
X150036700Y-111981200D02*
X150087500Y-111981200D01*
X147064900Y-112006600D02*
X147141100Y-112006600D01*
X155936440Y-111464920D02*
X157587440Y-111464920D01*
X155911040Y-111490320D02*
X157587440Y-111490320D01*
X155885640Y-111515720D02*
X157587440Y-111515720D01*
X155860240Y-111541120D02*
X157587440Y-111541120D01*
X155834840Y-111566520D02*
X157587440Y-111566520D01*
X155809440Y-111591920D02*
X157587440Y-111591920D01*
X155784040Y-111617320D02*
X157587440Y-111617320D01*
X159314640Y-111617320D02*
X159340040Y-111617320D01*
X155758640Y-111642720D02*
X156063440Y-111642720D01*
X159289240Y-111642720D02*
X159365440Y-111642720D01*
X155733240Y-111668120D02*
X156038040Y-111668120D01*
X159289240Y-111668120D02*
X159365440Y-111668120D01*
X155707840Y-111693520D02*
X156012640Y-111693520D01*
X159263840Y-111693520D02*
X159390840Y-111693520D01*
X155682440Y-111718920D02*
X155987240Y-111718920D01*
X156063440Y-111718920D02*
X157739840Y-111718920D01*
X159263840Y-111718920D02*
X159390840Y-111718920D01*
X155657040Y-111744320D02*
X155961840Y-111744320D01*
X156038040Y-111744320D02*
X157739840Y-111744320D01*
X159238440Y-111744320D02*
X159416240Y-111744320D01*
X155631640Y-111769720D02*
X155936440Y-111769720D01*
X156012640Y-111769720D02*
X157689040Y-111769720D01*
X159238440Y-111769720D02*
X159416240Y-111769720D01*
X155606240Y-111795120D02*
X155911040Y-111795120D01*
X155987240Y-111795120D02*
X157663640Y-111795120D01*
X159213040Y-111795120D02*
X159441640Y-111795120D01*
X155580840Y-111820520D02*
X155885640Y-111820520D01*
X155961840Y-111820520D02*
X157638240Y-111820520D01*
X159213040Y-111820520D02*
X159441640Y-111820520D01*
X155555440Y-111845920D02*
X155860240Y-111845920D01*
X155936440Y-111845920D02*
X157612840Y-111845920D01*
X159187640Y-111845920D02*
X159467040Y-111845920D01*
X155530040Y-111871320D02*
X155834840Y-111871320D01*
X155911040Y-111871320D02*
X157587440Y-111871320D01*
X159187640Y-111871320D02*
X159467040Y-111871320D01*
X155504640Y-111896720D02*
X155809440Y-111896720D01*
X155885640Y-111896720D02*
X157562040Y-111896720D01*
X159162240Y-111896720D02*
X159492440Y-111896720D01*
X155479240Y-111922120D02*
X155784040Y-111922120D01*
X155860240Y-111922120D02*
X157536640Y-111922120D01*
X159162240Y-111922120D02*
X159492440Y-111922120D01*
X155453840Y-111947520D02*
X155758640Y-111947520D01*
X155834840Y-111947520D02*
X157511240Y-111947520D01*
X157663640Y-111947520D02*
X157739840Y-111947520D01*
X159136840Y-111947520D02*
X159517840Y-111947520D01*
X155428440Y-111972920D02*
X155733240Y-111972920D01*
X155809440Y-111972920D02*
X157485840Y-111972920D01*
X157663640Y-111972920D02*
X157739840Y-111972920D01*
X159136840Y-111972920D02*
X159517840Y-111972920D01*
X155428440Y-111998320D02*
X155710000Y-111998320D01*
X155784040Y-111998320D02*
X157460440Y-111998320D01*
X157612840Y-111998320D02*
X157739840Y-111998320D01*
X159111440Y-111998320D02*
X159543240Y-111998320D01*
X155428440Y-112023720D02*
X155680000Y-112023720D01*
X155758640Y-112023720D02*
X157435040Y-112023720D01*
X157587440Y-112023720D02*
X157739840Y-112023720D01*
X159111440Y-112023720D02*
X159543240Y-112023720D01*
X161702240Y-112023720D02*
X161956240Y-112023720D01*
X162134040Y-112023720D02*
X162388040Y-112023720D01*
X163404040Y-112023720D02*
X163683440Y-112023720D01*
X164699440Y-112023720D02*
X165156640Y-112023720D01*
X165715440Y-112023720D02*
X165969440Y-112023720D01*
X166502840Y-112023720D02*
X166858440Y-112023720D01*
X155428440Y-112049120D02*
X155657040Y-112049120D01*
X155733240Y-112049120D02*
X157409640Y-112049120D01*
X157562040Y-112049120D02*
X157739840Y-112049120D01*
X159086040Y-112049120D02*
X159568640Y-112049120D01*
X160635440Y-112049120D02*
X161067240Y-112049120D01*
X161702240Y-112049120D02*
X161956240Y-112049120D01*
X162134040Y-112049120D02*
X162388040Y-112049120D01*
X163378640Y-112049120D02*
X163683440Y-112049120D01*
X164623240Y-112049120D02*
X165258240Y-112049120D01*
X165715440Y-112049120D02*
X165969440Y-112049120D01*
X166477440Y-112049120D02*
X166833040Y-112049120D01*
X155428440Y-112074520D02*
X155640000Y-112074520D01*
X155707840Y-112074520D02*
X157384240Y-112074520D01*
X157536640Y-112074520D02*
X157739840Y-112074520D01*
X159086040Y-112074520D02*
X159568640Y-112074520D01*
X160533840Y-112074520D02*
X161143440Y-112074520D01*
X161702240Y-112074520D02*
X161956240Y-112074520D01*
X162134040Y-112074520D02*
X162388040Y-112074520D01*
X163378640Y-112074520D02*
X163708840Y-112074520D01*
X164572440Y-112074520D02*
X165309040Y-112074520D01*
X165715440Y-112074520D02*
X165969440Y-112074520D01*
X166452040Y-112074520D02*
X166807640Y-112074520D01*
X155428440Y-112099920D02*
X155620000Y-112099920D01*
X155682440Y-112099920D02*
X157358840Y-112099920D01*
X157511240Y-112099920D02*
X157739840Y-112099920D01*
X159060640Y-112099920D02*
X159594040Y-112099920D01*
X160483040Y-112099920D02*
X161219640Y-112099920D01*
X161702240Y-112099920D02*
X161956240Y-112099920D01*
X162134040Y-112099920D02*
X162388040Y-112099920D01*
X163378640Y-112099920D02*
X163708840Y-112099920D01*
X164521640Y-112099920D02*
X165359840Y-112099920D01*
X165715440Y-112099920D02*
X165969440Y-112099920D01*
X166426640Y-112099920D02*
X166782240Y-112099920D01*
X155428440Y-112125320D02*
X155606240Y-112125320D01*
X155682440Y-112125320D02*
X157333440Y-112125320D01*
X157485840Y-112125320D02*
X157689040Y-112125320D01*
X159060640Y-112125320D02*
X159594040Y-112125320D01*
X160432240Y-112125320D02*
X161270440Y-112125320D01*
X161702240Y-112125320D02*
X161956240Y-112125320D01*
X162134040Y-112125320D02*
X162388040Y-112125320D01*
X163353240Y-112125320D02*
X163708840Y-112125320D01*
X164470840Y-112125320D02*
X165359840Y-112125320D01*
X165715440Y-112125320D02*
X165969440Y-112125320D01*
X166401240Y-112125320D02*
X166756840Y-112125320D01*
X155428440Y-112150720D02*
X155606240Y-112150720D01*
X155682440Y-112150720D02*
X157308040Y-112150720D01*
X157460440Y-112150720D02*
X157663640Y-112150720D01*
X159035240Y-112150720D02*
X159619440Y-112150720D01*
X160406840Y-112150720D02*
X161321240Y-112150720D01*
X161702240Y-112150720D02*
X161956240Y-112150720D01*
X162134040Y-112150720D02*
X162388040Y-112150720D01*
X163353240Y-112150720D02*
X163734240Y-112150720D01*
X164445440Y-112150720D02*
X165359840Y-112150720D01*
X165715440Y-112150720D02*
X165969440Y-112150720D01*
X166375840Y-112150720D02*
X166731440Y-112150720D01*
X155428440Y-112176120D02*
X155606240Y-112176120D01*
X155682440Y-112176120D02*
X157282640Y-112176120D01*
X157435040Y-112176120D02*
X157638240Y-112176120D01*
X159035240Y-112176120D02*
X159619440Y-112176120D01*
X160356040Y-112176120D02*
X161346640Y-112176120D01*
X161702240Y-112176120D02*
X161956240Y-112176120D01*
X162134040Y-112176120D02*
X162388040Y-112176120D01*
X163353240Y-112176120D02*
X163734240Y-112176120D01*
X164394640Y-112176120D02*
X165334440Y-112176120D01*
X165715440Y-112176120D02*
X165969440Y-112176120D01*
X166350440Y-112176120D02*
X166706040Y-112176120D01*
X155428440Y-112201520D02*
X155606240Y-112201520D01*
X155682440Y-112201520D02*
X157257240Y-112201520D01*
X157409640Y-112201520D02*
X157612840Y-112201520D01*
X159009840Y-112201520D02*
X159644840Y-112201520D01*
X160330640Y-112201520D02*
X161346640Y-112201520D01*
X161702240Y-112201520D02*
X161956240Y-112201520D01*
X162134040Y-112201520D02*
X162388040Y-112201520D01*
X163327840Y-112201520D02*
X163759640Y-112201520D01*
X164369240Y-112201520D02*
X165334440Y-112201520D01*
X165715440Y-112201520D02*
X165969440Y-112201520D01*
X166350440Y-112201520D02*
X166680640Y-112201520D01*
X155428440Y-112226920D02*
X155606240Y-112226920D01*
X155682440Y-112226920D02*
X157231840Y-112226920D01*
X157384240Y-112226920D02*
X157587440Y-112226920D01*
X159009840Y-112226920D02*
X159644840Y-112226920D01*
X160305240Y-112226920D02*
X161346640Y-112226920D01*
X161702240Y-112226920D02*
X161956240Y-112226920D01*
X162134040Y-112226920D02*
X162388040Y-112226920D01*
X163327840Y-112226920D02*
X163759640Y-112226920D01*
X164343840Y-112226920D02*
X165309040Y-112226920D01*
X165715440Y-112226920D02*
X165969440Y-112226920D01*
X166325040Y-112226920D02*
X166655240Y-112226920D01*
X155428440Y-112252320D02*
X155606240Y-112252320D01*
X155682440Y-112252320D02*
X157206440Y-112252320D01*
X157358840Y-112252320D02*
X157562040Y-112252320D01*
X157689040Y-112252320D02*
X157739840Y-112252320D01*
X158984440Y-112252320D02*
X159670240Y-112252320D01*
X160279840Y-112252320D02*
X161321240Y-112252320D01*
X161702240Y-112252320D02*
X161956240Y-112252320D01*
X162134040Y-112252320D02*
X162388040Y-112252320D01*
X163327840Y-112252320D02*
X163759640Y-112252320D01*
X164343840Y-112252320D02*
X165309040Y-112252320D01*
X165715440Y-112252320D02*
X165969440Y-112252320D01*
X166299640Y-112252320D02*
X166629840Y-112252320D01*
X155428440Y-112277720D02*
X155606240Y-112277720D01*
X155682440Y-112277720D02*
X157181040Y-112277720D01*
X157333440Y-112277720D02*
X157536640Y-112277720D01*
X157663640Y-112277720D02*
X157739840Y-112277720D01*
X158984440Y-112277720D02*
X159670240Y-112277720D01*
X160254440Y-112277720D02*
X161295840Y-112277720D01*
X161702240Y-112277720D02*
X161956240Y-112277720D01*
X162134040Y-112277720D02*
X162388040Y-112277720D01*
X163302440Y-112277720D02*
X163785040Y-112277720D01*
X164318440Y-112277720D02*
X164775640Y-112277720D01*
X165131240Y-112277720D02*
X165309040Y-112277720D01*
X165715440Y-112277720D02*
X165969440Y-112277720D01*
X166274240Y-112277720D02*
X166604440Y-112277720D01*
X155428440Y-112303120D02*
X155606240Y-112303120D01*
X155682440Y-112303120D02*
X157155640Y-112303120D01*
X157308040Y-112303120D02*
X157511240Y-112303120D01*
X157638240Y-112303120D02*
X157739840Y-112303120D01*
X158959040Y-112303120D02*
X159314640Y-112303120D01*
X159340040Y-112303120D02*
X159695640Y-112303120D01*
X160254440Y-112303120D02*
X160711640Y-112303120D01*
X161016440Y-112303120D02*
X161295840Y-112303120D01*
X161702240Y-112303120D02*
X161956240Y-112303120D01*
X162134040Y-112303120D02*
X162388040Y-112303120D01*
X163302440Y-112303120D02*
X163785040Y-112303120D01*
X164293040Y-112303120D02*
X164724840Y-112303120D01*
X165207440Y-112303120D02*
X165283640Y-112303120D01*
X165715440Y-112303120D02*
X165969440Y-112303120D01*
X166248840Y-112303120D02*
X166579040Y-112303120D01*
X155428440Y-112328520D02*
X155606240Y-112328520D01*
X155682440Y-112328520D02*
X156596840Y-112328520D01*
X156800040Y-112328520D02*
X157130240Y-112328520D01*
X157282640Y-112328520D02*
X157485840Y-112328520D01*
X157612840Y-112328520D02*
X157739840Y-112328520D01*
X158959040Y-112328520D02*
X159314640Y-112328520D01*
X159340040Y-112328520D02*
X159695640Y-112328520D01*
X160229040Y-112328520D02*
X160635440Y-112328520D01*
X161118040Y-112328520D02*
X161270440Y-112328520D01*
X161702240Y-112328520D02*
X161956240Y-112328520D01*
X162134040Y-112328520D02*
X162388040Y-112328520D01*
X163277040Y-112328520D02*
X163785040Y-112328520D01*
X164267640Y-112328520D02*
X164674040Y-112328520D01*
X165715440Y-112328520D02*
X165969440Y-112328520D01*
X166223440Y-112328520D02*
X166579040Y-112328520D01*
X155428440Y-112353920D02*
X155606240Y-112353920D01*
X155682440Y-112353920D02*
X156520640Y-112353920D01*
X156876240Y-112353920D02*
X157104840Y-112353920D01*
X157257240Y-112353920D02*
X157460440Y-112353920D01*
X157587440Y-112353920D02*
X157739840Y-112353920D01*
X158933640Y-112353920D02*
X159289240Y-112353920D01*
X159365440Y-112353920D02*
X159721040Y-112353920D01*
X160203640Y-112353920D02*
X160610040Y-112353920D01*
X161168840Y-112353920D02*
X161270440Y-112353920D01*
X161702240Y-112353920D02*
X161956240Y-112353920D01*
X162134040Y-112353920D02*
X162388040Y-112353920D01*
X163277040Y-112353920D02*
X163810440Y-112353920D01*
X164267640Y-112353920D02*
X164623240Y-112353920D01*
X165715440Y-112353920D02*
X165969440Y-112353920D01*
X166198040Y-112353920D02*
X166553640Y-112353920D01*
X155428440Y-112379320D02*
X155606240Y-112379320D01*
X155682440Y-112379320D02*
X156495240Y-112379320D01*
X156927040Y-112379320D02*
X157079440Y-112379320D01*
X157231840Y-112379320D02*
X157435040Y-112379320D01*
X157562040Y-112379320D02*
X157739840Y-112379320D01*
X158933640Y-112379320D02*
X159289240Y-112379320D01*
X159365440Y-112379320D02*
X159721040Y-112379320D01*
X160203640Y-112379320D02*
X160559240Y-112379320D01*
X161219640Y-112379320D02*
X161245040Y-112379320D01*
X161702240Y-112379320D02*
X161956240Y-112379320D01*
X162134040Y-112379320D02*
X162388040Y-112379320D01*
X163277040Y-112379320D02*
X163531040Y-112379320D01*
X163556440Y-112379320D02*
X163810440Y-112379320D01*
X164242240Y-112379320D02*
X164597840Y-112379320D01*
X165715440Y-112379320D02*
X165969440Y-112379320D01*
X166172640Y-112379320D02*
X166528240Y-112379320D01*
X155428440Y-112404720D02*
X155606240Y-112404720D01*
X155682440Y-112404720D02*
X156444440Y-112404720D01*
X156952440Y-112404720D02*
X157054040Y-112404720D01*
X157206440Y-112404720D02*
X157409640Y-112404720D01*
X157536640Y-112404720D02*
X157739840Y-112404720D01*
X158908240Y-112404720D02*
X159263840Y-112404720D01*
X159390840Y-112404720D02*
X159746440Y-112404720D01*
X160178240Y-112404720D02*
X160533840Y-112404720D01*
X161702240Y-112404720D02*
X161956240Y-112404720D01*
X162134040Y-112404720D02*
X162388040Y-112404720D01*
X163251640Y-112404720D02*
X163505640Y-112404720D01*
X163556440Y-112404720D02*
X163835840Y-112404720D01*
X164242240Y-112404720D02*
X164572440Y-112404720D01*
X165715440Y-112404720D02*
X165969440Y-112404720D01*
X166172640Y-112404720D02*
X166502840Y-112404720D01*
X155428440Y-112430120D02*
X155606240Y-112430120D01*
X155682440Y-112430120D02*
X156419040Y-112430120D01*
X156977840Y-112430120D02*
X157028640Y-112430120D01*
X157181040Y-112430120D02*
X157384240Y-112430120D01*
X157511240Y-112430120D02*
X157739840Y-112430120D01*
X158908240Y-112430120D02*
X159263840Y-112430120D01*
X159390840Y-112430120D02*
X159746440Y-112430120D01*
X160178240Y-112430120D02*
X160508440Y-112430120D01*
X161702240Y-112430120D02*
X161956240Y-112430120D01*
X162134040Y-112430120D02*
X162388040Y-112430120D01*
X163251640Y-112430120D02*
X163505640Y-112430120D01*
X163556440Y-112430120D02*
X163835840Y-112430120D01*
X164216840Y-112430120D02*
X164547040Y-112430120D01*
X165715440Y-112430120D02*
X165969440Y-112430120D01*
X166147240Y-112430120D02*
X166477440Y-112430120D01*
X155428440Y-112455520D02*
X155606240Y-112455520D01*
X155682440Y-112455520D02*
X156393640Y-112455520D01*
X156622240Y-112455520D02*
X156800040Y-112455520D01*
X157003240Y-112455520D02*
X157028640Y-112455520D01*
X157155640Y-112455520D02*
X157358840Y-112455520D01*
X157485840Y-112455520D02*
X157739840Y-112455520D01*
X158882840Y-112455520D02*
X159263840Y-112455520D01*
X159416240Y-112455520D02*
X159771840Y-112455520D01*
X160152840Y-112455520D02*
X160483040Y-112455520D01*
X161702240Y-112455520D02*
X161956240Y-112455520D01*
X162134040Y-112455520D02*
X162388040Y-112455520D01*
X163251640Y-112455520D02*
X163505640Y-112455520D01*
X163581840Y-112455520D02*
X163835840Y-112455520D01*
X164216840Y-112455520D02*
X164547040Y-112455520D01*
X165715440Y-112455520D02*
X165969440Y-112455520D01*
X166121840Y-112455520D02*
X166452040Y-112455520D01*
X155428440Y-112480920D02*
X155606240Y-112480920D01*
X155682440Y-112480920D02*
X156368240Y-112480920D01*
X156571440Y-112480920D02*
X156850840Y-112480920D01*
X157130240Y-112480920D02*
X157333440Y-112480920D01*
X157460440Y-112480920D02*
X157739840Y-112480920D01*
X158882840Y-112480920D02*
X159238440Y-112480920D01*
X159416240Y-112480920D02*
X159771840Y-112480920D01*
X160152840Y-112480920D02*
X160457640Y-112480920D01*
X161702240Y-112480920D02*
X161956240Y-112480920D01*
X162134040Y-112480920D02*
X162388040Y-112480920D01*
X163226240Y-112480920D02*
X163480240Y-112480920D01*
X163581840Y-112480920D02*
X163861240Y-112480920D01*
X164216840Y-112480920D02*
X164521640Y-112480920D01*
X165715440Y-112480920D02*
X165969440Y-112480920D01*
X166096440Y-112480920D02*
X166426640Y-112480920D01*
X155428440Y-112506320D02*
X155606240Y-112506320D01*
X155682440Y-112506320D02*
X156342840Y-112506320D01*
X156546040Y-112506320D02*
X156876240Y-112506320D01*
X157104840Y-112506320D02*
X157308040Y-112506320D01*
X157435040Y-112506320D02*
X157739840Y-112506320D01*
X158857440Y-112506320D02*
X159238440Y-112506320D01*
X159441640Y-112506320D02*
X159797240Y-112506320D01*
X160152840Y-112506320D02*
X160457640Y-112506320D01*
X161702240Y-112506320D02*
X161956240Y-112506320D01*
X162134040Y-112506320D02*
X162388040Y-112506320D01*
X163226240Y-112506320D02*
X163480240Y-112506320D01*
X163581840Y-112506320D02*
X163861240Y-112506320D01*
X164216840Y-112506320D02*
X164521640Y-112506320D01*
X165715440Y-112506320D02*
X165969440Y-112506320D01*
X166071040Y-112506320D02*
X166401240Y-112506320D01*
X155428440Y-112531720D02*
X155606240Y-112531720D01*
X155682440Y-112531720D02*
X156317440Y-112531720D01*
X156520640Y-112531720D02*
X156901640Y-112531720D01*
X157104840Y-112531720D02*
X157282640Y-112531720D01*
X157409640Y-112531720D02*
X157739840Y-112531720D01*
X158857440Y-112531720D02*
X159213040Y-112531720D01*
X159441640Y-112531720D02*
X159822640Y-112531720D01*
X160152840Y-112531720D02*
X160432240Y-112531720D01*
X161702240Y-112531720D02*
X161956240Y-112531720D01*
X162134040Y-112531720D02*
X162388040Y-112531720D01*
X163200840Y-112531720D02*
X163480240Y-112531720D01*
X163607240Y-112531720D02*
X163861240Y-112531720D01*
X164191440Y-112531720D02*
X164496240Y-112531720D01*
X165715440Y-112531720D02*
X165969440Y-112531720D01*
X166045640Y-112531720D02*
X166375840Y-112531720D01*
X155428440Y-112557120D02*
X155606240Y-112557120D01*
X155682440Y-112557120D02*
X156292040Y-112557120D01*
X156495240Y-112557120D02*
X156927040Y-112557120D01*
X157104840Y-112557120D02*
X157257240Y-112557120D01*
X157384240Y-112557120D02*
X157739840Y-112557120D01*
X158832040Y-112557120D02*
X159213040Y-112557120D01*
X159467040Y-112557120D02*
X159822640Y-112557120D01*
X160127440Y-112557120D02*
X160432240Y-112557120D01*
X161702240Y-112557120D02*
X161956240Y-112557120D01*
X162134040Y-112557120D02*
X162388040Y-112557120D01*
X163200840Y-112557120D02*
X163454840Y-112557120D01*
X163607240Y-112557120D02*
X163886640Y-112557120D01*
X164191440Y-112557120D02*
X164496240Y-112557120D01*
X165715440Y-112557120D02*
X165969440Y-112557120D01*
X166020240Y-112557120D02*
X166350440Y-112557120D01*
X155428440Y-112582520D02*
X155606240Y-112582520D01*
X155682440Y-112582520D02*
X156266640Y-112582520D01*
X156495240Y-112582520D02*
X156927040Y-112582520D01*
X157104840Y-112582520D02*
X157206440Y-112582520D01*
X157358840Y-112582520D02*
X157739840Y-112582520D01*
X158832040Y-112582520D02*
X159187640Y-112582520D01*
X159467040Y-112582520D02*
X159848040Y-112582520D01*
X160127440Y-112582520D02*
X160432240Y-112582520D01*
X161702240Y-112582520D02*
X161956240Y-112582520D01*
X162134040Y-112582520D02*
X162388040Y-112582520D01*
X163200840Y-112582520D02*
X163454840Y-112582520D01*
X163607240Y-112582520D02*
X163886640Y-112582520D01*
X164191440Y-112582520D02*
X164470840Y-112582520D01*
X165715440Y-112582520D02*
X165969440Y-112582520D01*
X165994840Y-112582520D02*
X166325040Y-112582520D01*
X155428440Y-112607920D02*
X155606240Y-112607920D01*
X155682440Y-112607920D02*
X156241240Y-112607920D01*
X156469840Y-112607920D02*
X156927040Y-112607920D01*
X157104840Y-112607920D02*
X157181040Y-112607920D01*
X157333440Y-112607920D02*
X157739840Y-112607920D01*
X158806640Y-112607920D02*
X159187640Y-112607920D01*
X159492440Y-112607920D02*
X159848040Y-112607920D01*
X160127440Y-112607920D02*
X160406840Y-112607920D01*
X161702240Y-112607920D02*
X161956240Y-112607920D01*
X162134040Y-112607920D02*
X162388040Y-112607920D01*
X163175440Y-112607920D02*
X163454840Y-112607920D01*
X163632640Y-112607920D02*
X163886640Y-112607920D01*
X164191440Y-112607920D02*
X164470840Y-112607920D01*
X165715440Y-112607920D02*
X165969440Y-112607920D01*
X165994840Y-112607920D02*
X166299640Y-112607920D01*
X155428440Y-112633320D02*
X155606240Y-112633320D01*
X155682440Y-112633320D02*
X156215840Y-112633320D01*
X156469840Y-112633320D02*
X156952440Y-112633320D01*
X157104840Y-112633320D02*
X157155640Y-112633320D01*
X157308040Y-112633320D02*
X157739840Y-112633320D01*
X158806640Y-112633320D02*
X159162240Y-112633320D01*
X159492440Y-112633320D02*
X159873440Y-112633320D01*
X160127440Y-112633320D02*
X160406840Y-112633320D01*
X161702240Y-112633320D02*
X161956240Y-112633320D01*
X162134040Y-112633320D02*
X162388040Y-112633320D01*
X163175440Y-112633320D02*
X163429440Y-112633320D01*
X163632640Y-112633320D02*
X163912040Y-112633320D01*
X164191440Y-112633320D02*
X164470840Y-112633320D01*
X165715440Y-112633320D02*
X166274240Y-112633320D01*
X155428440Y-112658720D02*
X155606240Y-112658720D01*
X155682440Y-112658720D02*
X156190440Y-112658720D01*
X156469840Y-112658720D02*
X156952440Y-112658720D01*
X157104840Y-112658720D02*
X157130240Y-112658720D01*
X157282640Y-112658720D02*
X157739840Y-112658720D01*
X158781240Y-112658720D02*
X159162240Y-112658720D01*
X159517840Y-112658720D02*
X159873440Y-112658720D01*
X160127440Y-112658720D02*
X160406840Y-112658720D01*
X160762440Y-112658720D02*
X161397440Y-112658720D01*
X161702240Y-112658720D02*
X161956240Y-112658720D01*
X162134040Y-112658720D02*
X162388040Y-112658720D01*
X163175440Y-112658720D02*
X163429440Y-112658720D01*
X163632640Y-112658720D02*
X163912040Y-112658720D01*
X164191440Y-112658720D02*
X164470840Y-112658720D01*
X165715440Y-112658720D02*
X166248840Y-112658720D01*
X155428440Y-112684120D02*
X155606240Y-112684120D01*
X155682440Y-112684120D02*
X156165040Y-112684120D01*
X156469840Y-112684120D02*
X156952440Y-112684120D01*
X157257240Y-112684120D02*
X157739840Y-112684120D01*
X158781240Y-112684120D02*
X159136840Y-112684120D01*
X159517840Y-112684120D02*
X159898840Y-112684120D01*
X160127440Y-112684120D02*
X160406840Y-112684120D01*
X160762440Y-112684120D02*
X161397440Y-112684120D01*
X161702240Y-112684120D02*
X161956240Y-112684120D01*
X162134040Y-112684120D02*
X162388040Y-112684120D01*
X163150040Y-112684120D02*
X163429440Y-112684120D01*
X163658040Y-112684120D02*
X163937440Y-112684120D01*
X164191440Y-112684120D02*
X164470840Y-112684120D01*
X165715440Y-112684120D02*
X166248840Y-112684120D01*
X155428440Y-112709520D02*
X155606240Y-112709520D01*
X155682440Y-112709520D02*
X156139640Y-112709520D01*
X156469840Y-112709520D02*
X156952440Y-112709520D01*
X157231840Y-112709520D02*
X157739840Y-112709520D01*
X158755840Y-112709520D02*
X159136840Y-112709520D01*
X159543240Y-112709520D02*
X159898840Y-112709520D01*
X160127440Y-112709520D02*
X160406840Y-112709520D01*
X160762440Y-112709520D02*
X161397440Y-112709520D01*
X161702240Y-112709520D02*
X161956240Y-112709520D01*
X162134040Y-112709520D02*
X162388040Y-112709520D01*
X163150040Y-112709520D02*
X163404040Y-112709520D01*
X163658040Y-112709520D02*
X163937440Y-112709520D01*
X164191440Y-112709520D02*
X164470840Y-112709520D01*
X165715440Y-112709520D02*
X166274240Y-112709520D01*
X155428440Y-112734920D02*
X155606240Y-112734920D01*
X155682440Y-112734920D02*
X156114240Y-112734920D01*
X156292040Y-112734920D02*
X156317440Y-112734920D01*
X156469840Y-112734920D02*
X156952440Y-112734920D01*
X157206440Y-112734920D02*
X157739840Y-112734920D01*
X158755840Y-112734920D02*
X159111440Y-112734920D01*
X159543240Y-112734920D02*
X159924240Y-112734920D01*
X160127440Y-112734920D02*
X160406840Y-112734920D01*
X160762440Y-112734920D02*
X161397440Y-112734920D01*
X161702240Y-112734920D02*
X161956240Y-112734920D01*
X162134040Y-112734920D02*
X162388040Y-112734920D01*
X163150040Y-112734920D02*
X163404040Y-112734920D01*
X163658040Y-112734920D02*
X163937440Y-112734920D01*
X164191440Y-112734920D02*
X164470840Y-112734920D01*
X165715440Y-112734920D02*
X166299640Y-112734920D01*
X155428440Y-112760320D02*
X155606240Y-112760320D01*
X155682440Y-112760320D02*
X156088840Y-112760320D01*
X156266640Y-112760320D02*
X156317440Y-112760320D01*
X156469840Y-112760320D02*
X156952440Y-112760320D01*
X157181040Y-112760320D02*
X157739840Y-112760320D01*
X158730440Y-112760320D02*
X159111440Y-112760320D01*
X159568640Y-112760320D02*
X159924240Y-112760320D01*
X160127440Y-112760320D02*
X160406840Y-112760320D01*
X160762440Y-112760320D02*
X161397440Y-112760320D01*
X161702240Y-112760320D02*
X161956240Y-112760320D01*
X162134040Y-112760320D02*
X162388040Y-112760320D01*
X163124640Y-112760320D02*
X163404040Y-112760320D01*
X163683440Y-112760320D02*
X163962840Y-112760320D01*
X164191440Y-112760320D02*
X164470840Y-112760320D01*
X165715440Y-112760320D02*
X166325040Y-112760320D01*
X155428440Y-112785720D02*
X155606240Y-112785720D01*
X155682440Y-112785720D02*
X156063440Y-112785720D01*
X156241240Y-112785720D02*
X156317440Y-112785720D01*
X156469840Y-112785720D02*
X156952440Y-112785720D01*
X157155640Y-112785720D02*
X157739840Y-112785720D01*
X158730440Y-112785720D02*
X159111440Y-112785720D01*
X159568640Y-112785720D02*
X159949640Y-112785720D01*
X160127440Y-112785720D02*
X160406840Y-112785720D01*
X160762440Y-112785720D02*
X161397440Y-112785720D01*
X161702240Y-112785720D02*
X161956240Y-112785720D01*
X162134040Y-112785720D02*
X162388040Y-112785720D01*
X163124640Y-112785720D02*
X163378640Y-112785720D01*
X163683440Y-112785720D02*
X163962840Y-112785720D01*
X164191440Y-112785720D02*
X164470840Y-112785720D01*
X165715440Y-112785720D02*
X165969440Y-112785720D01*
X165994840Y-112785720D02*
X166325040Y-112785720D01*
X155428440Y-112811120D02*
X155606240Y-112811120D01*
X155682440Y-112811120D02*
X156038040Y-112811120D01*
X156215840Y-112811120D02*
X156317440Y-112811120D01*
X156469840Y-112811120D02*
X156927040Y-112811120D01*
X157130240Y-112811120D02*
X157739840Y-112811120D01*
X158705040Y-112811120D02*
X159086040Y-112811120D01*
X159594040Y-112811120D02*
X159949640Y-112811120D01*
X160127440Y-112811120D02*
X160406840Y-112811120D01*
X160762440Y-112811120D02*
X161397440Y-112811120D01*
X161702240Y-112811120D02*
X161956240Y-112811120D01*
X162134040Y-112811120D02*
X162388040Y-112811120D01*
X163099240Y-112811120D02*
X163378640Y-112811120D01*
X163683440Y-112811120D02*
X163962840Y-112811120D01*
X164191440Y-112811120D02*
X164470840Y-112811120D01*
X165715440Y-112811120D02*
X165969440Y-112811120D01*
X166020240Y-112811120D02*
X166350440Y-112811120D01*
X155428440Y-112836520D02*
X155606240Y-112836520D01*
X155682440Y-112836520D02*
X156012640Y-112836520D01*
X156190440Y-112836520D02*
X156317440Y-112836520D01*
X156495240Y-112836520D02*
X156927040Y-112836520D01*
X157104840Y-112836520D02*
X157739840Y-112836520D01*
X158705040Y-112836520D02*
X159086040Y-112836520D01*
X159594040Y-112836520D02*
X159975040Y-112836520D01*
X160127440Y-112836520D02*
X160406840Y-112836520D01*
X160762440Y-112836520D02*
X161397440Y-112836520D01*
X161702240Y-112836520D02*
X161956240Y-112836520D01*
X162134040Y-112836520D02*
X162388040Y-112836520D01*
X163099240Y-112836520D02*
X163988240Y-112836520D01*
X164191440Y-112836520D02*
X164470840Y-112836520D01*
X165715440Y-112836520D02*
X165969440Y-112836520D01*
X166045640Y-112836520D02*
X166375840Y-112836520D01*
X155428440Y-112861920D02*
X155606240Y-112861920D01*
X155682440Y-112861920D02*
X155987240Y-112861920D01*
X156165040Y-112861920D02*
X156317440Y-112861920D01*
X156495240Y-112861920D02*
X156901640Y-112861920D01*
X157079440Y-112861920D02*
X157739840Y-112861920D01*
X158679640Y-112861920D02*
X159060640Y-112861920D01*
X159619440Y-112861920D02*
X159975040Y-112861920D01*
X160127440Y-112861920D02*
X160406840Y-112861920D01*
X160762440Y-112861920D02*
X161397440Y-112861920D01*
X161702240Y-112861920D02*
X161956240Y-112861920D01*
X162134040Y-112861920D02*
X162388040Y-112861920D01*
X163099240Y-112861920D02*
X163988240Y-112861920D01*
X164191440Y-112861920D02*
X164496240Y-112861920D01*
X165715440Y-112861920D02*
X165969440Y-112861920D01*
X166071040Y-112861920D02*
X166401240Y-112861920D01*
X155428440Y-112887320D02*
X155606240Y-112887320D01*
X155682440Y-112887320D02*
X155961840Y-112887320D01*
X156139640Y-112887320D02*
X156317440Y-112887320D01*
X156520640Y-112887320D02*
X156901640Y-112887320D01*
X157054040Y-112887320D02*
X157739840Y-112887320D01*
X158679640Y-112887320D02*
X159060640Y-112887320D01*
X159619440Y-112887320D02*
X160000440Y-112887320D01*
X160127440Y-112887320D02*
X160432240Y-112887320D01*
X161143440Y-112887320D02*
X161397440Y-112887320D01*
X161702240Y-112887320D02*
X161956240Y-112887320D01*
X162134040Y-112887320D02*
X162388040Y-112887320D01*
X163073840Y-112887320D02*
X163988240Y-112887320D01*
X164191440Y-112887320D02*
X164496240Y-112887320D01*
X165715440Y-112887320D02*
X165969440Y-112887320D01*
X166071040Y-112887320D02*
X166426640Y-112887320D01*
X155428440Y-112912720D02*
X155606240Y-112912720D01*
X155682440Y-112912720D02*
X155936440Y-112912720D01*
X156114240Y-112912720D02*
X156292040Y-112912720D01*
X156546040Y-112912720D02*
X156850840Y-112912720D01*
X157028640Y-112912720D02*
X157739840Y-112912720D01*
X158654240Y-112912720D02*
X159035240Y-112912720D01*
X159644840Y-112912720D02*
X160000440Y-112912720D01*
X160127440Y-112912720D02*
X160432240Y-112912720D01*
X161143440Y-112912720D02*
X161397440Y-112912720D01*
X161702240Y-112912720D02*
X161956240Y-112912720D01*
X162134040Y-112912720D02*
X162388040Y-112912720D01*
X163073840Y-112912720D02*
X164013640Y-112912720D01*
X164191440Y-112912720D02*
X164496240Y-112912720D01*
X165715440Y-112912720D02*
X165969440Y-112912720D01*
X166096440Y-112912720D02*
X166452040Y-112912720D01*
X155428440Y-112938120D02*
X155606240Y-112938120D01*
X155682440Y-112938120D02*
X155911040Y-112938120D01*
X156088840Y-112938120D02*
X156266640Y-112938120D01*
X156596840Y-112938120D02*
X156825440Y-112938120D01*
X157003240Y-112938120D02*
X157739840Y-112938120D01*
X158654240Y-112938120D02*
X159035240Y-112938120D01*
X159644840Y-112938120D02*
X160025840Y-112938120D01*
X160152840Y-112938120D02*
X160432240Y-112938120D01*
X161143440Y-112938120D02*
X161397440Y-112938120D01*
X161702240Y-112938120D02*
X161956240Y-112938120D01*
X162134040Y-112938120D02*
X162388040Y-112938120D01*
X163073840Y-112938120D02*
X164013640Y-112938120D01*
X164216840Y-112938120D02*
X164521640Y-112938120D01*
X165715440Y-112938120D02*
X165969440Y-112938120D01*
X166121840Y-112938120D02*
X166477440Y-112938120D01*
X155428440Y-112963520D02*
X155606240Y-112963520D01*
X155682440Y-112963520D02*
X155911040Y-112963520D01*
X156063440Y-112963520D02*
X156241240Y-112963520D01*
X156393640Y-112963520D02*
X156419040Y-112963520D01*
X156673040Y-112963520D02*
X156723840Y-112963520D01*
X157003240Y-112963520D02*
X157739840Y-112963520D01*
X158628840Y-112963520D02*
X159009840Y-112963520D01*
X159670240Y-112963520D02*
X160025840Y-112963520D01*
X160152840Y-112963520D02*
X160457640Y-112963520D01*
X161143440Y-112963520D02*
X161397440Y-112963520D01*
X161702240Y-112963520D02*
X161956240Y-112963520D01*
X162134040Y-112963520D02*
X162388040Y-112963520D01*
X163048440Y-112963520D02*
X164039040Y-112963520D01*
X164216840Y-112963520D02*
X164521640Y-112963520D01*
X165715440Y-112963520D02*
X165969440Y-112963520D01*
X166147240Y-112963520D02*
X166502840Y-112963520D01*
X155428440Y-112988920D02*
X155606240Y-112988920D01*
X155682440Y-112988920D02*
X155885640Y-112988920D01*
X156038040Y-112988920D02*
X156215840Y-112988920D01*
X156368240Y-112988920D02*
X156444440Y-112988920D01*
X156977840Y-112988920D02*
X157739840Y-112988920D01*
X158628840Y-112988920D02*
X159009840Y-112988920D01*
X159670240Y-112988920D02*
X160051240Y-112988920D01*
X160152840Y-112988920D02*
X160483040Y-112988920D01*
X161143440Y-112988920D02*
X161397440Y-112988920D01*
X161702240Y-112988920D02*
X161956240Y-112988920D01*
X162134040Y-112988920D02*
X162388040Y-112988920D01*
X163048440Y-112988920D02*
X164039040Y-112988920D01*
X164216840Y-112988920D02*
X164547040Y-112988920D01*
X165715440Y-112988920D02*
X165969440Y-112988920D01*
X166172640Y-112988920D02*
X166528240Y-112988920D01*
X155428440Y-113014320D02*
X155606240Y-113014320D01*
X155682440Y-113014320D02*
X155860240Y-113014320D01*
X156012640Y-113014320D02*
X156190440Y-113014320D01*
X156342840Y-113014320D02*
X156469840Y-113014320D01*
X156927040Y-113014320D02*
X157739840Y-113014320D01*
X158603440Y-113014320D02*
X159543240Y-113014320D01*
X159695640Y-113014320D02*
X160051240Y-113014320D01*
X160152840Y-113014320D02*
X160483040Y-113014320D01*
X161143440Y-113014320D02*
X161397440Y-113014320D01*
X161702240Y-113014320D02*
X161956240Y-113014320D01*
X162134040Y-113014320D02*
X162388040Y-113014320D01*
X163048440Y-113014320D02*
X164039040Y-113014320D01*
X164242240Y-113014320D02*
X164572440Y-113014320D01*
X165715440Y-113014320D02*
X165969440Y-113014320D01*
X166198040Y-113014320D02*
X166553640Y-113014320D01*
X155428440Y-113039720D02*
X155606240Y-113039720D01*
X155682440Y-113039720D02*
X155834840Y-113039720D01*
X155987240Y-113039720D02*
X156165040Y-113039720D01*
X156317440Y-113039720D02*
X156495240Y-113039720D01*
X156901640Y-113039720D02*
X157739840Y-113039720D01*
X158603440Y-113039720D02*
X159543240Y-113039720D01*
X159695640Y-113039720D02*
X160076640Y-113039720D01*
X160178240Y-113039720D02*
X160508440Y-113039720D01*
X161143440Y-113039720D02*
X161397440Y-113039720D01*
X161702240Y-113039720D02*
X161956240Y-113039720D01*
X162134040Y-113039720D02*
X162388040Y-113039720D01*
X163023040Y-113039720D02*
X164064440Y-113039720D01*
X164242240Y-113039720D02*
X164597840Y-113039720D01*
X165715440Y-113039720D02*
X165969440Y-113039720D01*
X166223440Y-113039720D02*
X166553640Y-113039720D01*
X155428440Y-113065120D02*
X155606240Y-113065120D01*
X155682440Y-113065120D02*
X155809440Y-113065120D01*
X155961840Y-113065120D02*
X156139640Y-113065120D01*
X156292040Y-113065120D02*
X156571440Y-113065120D01*
X156850840Y-113065120D02*
X157739840Y-113065120D01*
X158578040Y-113065120D02*
X159568640Y-113065120D01*
X159721040Y-113065120D02*
X160076640Y-113065120D01*
X160178240Y-113065120D02*
X160533840Y-113065120D01*
X161143440Y-113065120D02*
X161397440Y-113065120D01*
X161702240Y-113065120D02*
X161956240Y-113065120D01*
X162134040Y-113065120D02*
X162388040Y-113065120D01*
X163023040Y-113065120D02*
X163302440Y-113065120D01*
X163785040Y-113065120D02*
X164064440Y-113065120D01*
X164242240Y-113065120D02*
X164623240Y-113065120D01*
X165715440Y-113065120D02*
X165969440Y-113065120D01*
X166223440Y-113065120D02*
X166579040Y-113065120D01*
X155428440Y-113090520D02*
X155606240Y-113090520D01*
X155682440Y-113090520D02*
X155784040Y-113090520D01*
X155936440Y-113090520D02*
X156114240Y-113090520D01*
X156266640Y-113090520D02*
X156647640Y-113090520D01*
X156749240Y-113090520D02*
X157739840Y-113090520D01*
X158578040Y-113090520D02*
X159568640Y-113090520D01*
X159721040Y-113090520D02*
X160102040Y-113090520D01*
X160203640Y-113090520D02*
X160559240Y-113090520D01*
X161143440Y-113090520D02*
X161397440Y-113090520D01*
X161702240Y-113090520D02*
X161956240Y-113090520D01*
X162134040Y-113090520D02*
X162388040Y-113090520D01*
X162997640Y-113090520D02*
X163277040Y-113090520D01*
X163785040Y-113090520D02*
X164064440Y-113090520D01*
X164267640Y-113090520D02*
X164648640Y-113090520D01*
X165715440Y-113090520D02*
X165969440Y-113090520D01*
X166248840Y-113090520D02*
X166604440Y-113090520D01*
X155428440Y-113115920D02*
X155606240Y-113115920D01*
X155682440Y-113115920D02*
X155758640Y-113115920D01*
X155911040Y-113115920D02*
X156088840Y-113115920D01*
X156241240Y-113115920D02*
X157739840Y-113115920D01*
X158552640Y-113115920D02*
X159594040Y-113115920D01*
X159746440Y-113115920D02*
X160102040Y-113115920D01*
X160203640Y-113115920D02*
X160584640Y-113115920D01*
X161143440Y-113115920D02*
X161397440Y-113115920D01*
X161702240Y-113115920D02*
X161956240Y-113115920D01*
X162134040Y-113115920D02*
X162388040Y-113115920D01*
X162997640Y-113115920D02*
X163277040Y-113115920D01*
X163785040Y-113115920D02*
X164089840Y-113115920D01*
X164293040Y-113115920D02*
X164674040Y-113115920D01*
X165715440Y-113115920D02*
X165969440Y-113115920D01*
X166274240Y-113115920D02*
X166629840Y-113115920D01*
X155428440Y-113141320D02*
X155606240Y-113141320D01*
X155682440Y-113141320D02*
X155733240Y-113141320D01*
X155885640Y-113141320D02*
X156063440Y-113141320D01*
X156215840Y-113141320D02*
X157739840Y-113141320D01*
X158552640Y-113141320D02*
X159594040Y-113141320D01*
X159746440Y-113141320D02*
X160127440Y-113141320D01*
X160229040Y-113141320D02*
X160610040Y-113141320D01*
X161118040Y-113141320D02*
X161397440Y-113141320D01*
X161702240Y-113141320D02*
X161956240Y-113141320D01*
X162134040Y-113141320D02*
X162388040Y-113141320D01*
X162997640Y-113141320D02*
X163277040Y-113141320D01*
X163810440Y-113141320D02*
X164089840Y-113141320D01*
X164293040Y-113141320D02*
X164724840Y-113141320D01*
X165207440Y-113141320D02*
X165309040Y-113141320D01*
X165715440Y-113141320D02*
X165969440Y-113141320D01*
X166299640Y-113141320D02*
X166655240Y-113141320D01*
X155428440Y-113166720D02*
X155606240Y-113166720D01*
X155860240Y-113166720D02*
X156038040Y-113166720D01*
X156190440Y-113166720D02*
X157739840Y-113166720D01*
X158527240Y-113166720D02*
X159619440Y-113166720D01*
X159771840Y-113166720D02*
X160127440Y-113166720D01*
X160229040Y-113166720D02*
X160660840Y-113166720D01*
X161092640Y-113166720D02*
X161397440Y-113166720D01*
X161702240Y-113166720D02*
X161956240Y-113166720D01*
X162134040Y-113166720D02*
X162388040Y-113166720D01*
X162972240Y-113166720D02*
X163251640Y-113166720D01*
X163810440Y-113166720D02*
X164115240Y-113166720D01*
X164318440Y-113166720D02*
X164801040Y-113166720D01*
X165131240Y-113166720D02*
X165309040Y-113166720D01*
X165715440Y-113166720D02*
X165969440Y-113166720D01*
X166325040Y-113166720D02*
X166680640Y-113166720D01*
X155428440Y-113192120D02*
X155606240Y-113192120D01*
X155834840Y-113192120D02*
X156012640Y-113192120D01*
X156165040Y-113192120D02*
X157739840Y-113192120D01*
X158527240Y-113192120D02*
X159619440Y-113192120D01*
X159771840Y-113192120D02*
X160152840Y-113192120D01*
X160254440Y-113192120D02*
X160737040Y-113192120D01*
X161016440Y-113192120D02*
X161397440Y-113192120D01*
X161702240Y-113192120D02*
X161956240Y-113192120D01*
X162134040Y-113192120D02*
X163251640Y-113192120D01*
X163810440Y-113192120D02*
X164115240Y-113192120D01*
X164343840Y-113192120D02*
X165334440Y-113192120D01*
X165715440Y-113192120D02*
X165969440Y-113192120D01*
X166350440Y-113192120D02*
X166706040Y-113192120D01*
X155428440Y-113217520D02*
X155606240Y-113217520D01*
X155809440Y-113217520D02*
X155987240Y-113217520D01*
X156139640Y-113217520D02*
X157739840Y-113217520D01*
X158501840Y-113217520D02*
X159644840Y-113217520D01*
X159797240Y-113217520D02*
X160152840Y-113217520D01*
X160279840Y-113217520D02*
X161397440Y-113217520D01*
X161702240Y-113217520D02*
X161956240Y-113217520D01*
X162134040Y-113217520D02*
X163226240Y-113217520D01*
X163835840Y-113217520D02*
X164115240Y-113217520D01*
X164343840Y-113217520D02*
X165334440Y-113217520D01*
X165715440Y-113217520D02*
X165969440Y-113217520D01*
X166375840Y-113217520D02*
X166731440Y-113217520D01*
X155428440Y-113242920D02*
X155606240Y-113242920D01*
X155784040Y-113242920D02*
X155961840Y-113242920D01*
X156114240Y-113242920D02*
X157739840Y-113242920D01*
X158501840Y-113242920D02*
X159644840Y-113242920D01*
X159797240Y-113242920D02*
X160178240Y-113242920D01*
X160305240Y-113242920D02*
X161397440Y-113242920D01*
X161702240Y-113242920D02*
X161956240Y-113242920D01*
X162134040Y-113242920D02*
X163226240Y-113242920D01*
X163835840Y-113242920D02*
X164140640Y-113242920D01*
X164369240Y-113242920D02*
X165359840Y-113242920D01*
X165715440Y-113242920D02*
X165969440Y-113242920D01*
X166401240Y-113242920D02*
X166756840Y-113242920D01*
X155428440Y-113268320D02*
X155606240Y-113268320D01*
X155758640Y-113268320D02*
X155936440Y-113268320D01*
X156088840Y-113268320D02*
X157739840Y-113268320D01*
X158476440Y-113268320D02*
X159670240Y-113268320D01*
X159822640Y-113268320D02*
X160178240Y-113268320D01*
X160330640Y-113268320D02*
X161397440Y-113268320D01*
X161702240Y-113268320D02*
X161956240Y-113268320D01*
X162134040Y-113268320D02*
X163226240Y-113268320D01*
X163861240Y-113268320D02*
X164140640Y-113268320D01*
X164394640Y-113268320D02*
X165359840Y-113268320D01*
X165715440Y-113268320D02*
X165969440Y-113268320D01*
X166401240Y-113268320D02*
X166782240Y-113268320D01*
X155428440Y-113293720D02*
X155580840Y-113293720D01*
X155733240Y-113293720D02*
X155911040Y-113293720D01*
X156063440Y-113293720D02*
X157739840Y-113293720D01*
X158476440Y-113293720D02*
X159670240Y-113293720D01*
X159822640Y-113293720D02*
X160203640Y-113293720D01*
X160330640Y-113293720D02*
X161372040Y-113293720D01*
X161702240Y-113293720D02*
X161956240Y-113293720D01*
X162134040Y-113293720D02*
X163200840Y-113293720D01*
X163861240Y-113293720D02*
X164140640Y-113293720D01*
X164445440Y-113293720D02*
X165359840Y-113293720D01*
X165715440Y-113293720D02*
X165969440Y-113293720D01*
X166426640Y-113293720D02*
X166782240Y-113293720D01*
X155428440Y-113319120D02*
X155555440Y-113319120D01*
X155682440Y-113319120D02*
X155885640Y-113319120D01*
X156038040Y-113319120D02*
X157714440Y-113319120D01*
X158476440Y-113319120D02*
X159670240Y-113319120D01*
X159848040Y-113319120D02*
X160203640Y-113319120D01*
X160381440Y-113319120D02*
X161346640Y-113319120D01*
X161702240Y-113319120D02*
X161956240Y-113319120D01*
X162134040Y-113319120D02*
X163200840Y-113319120D01*
X163861240Y-113319120D02*
X164166040Y-113319120D01*
X164470840Y-113319120D02*
X165385240Y-113319120D01*
X165715440Y-113319120D02*
X165969440Y-113319120D01*
X166452040Y-113319120D02*
X166807640Y-113319120D01*
X155428440Y-113344520D02*
X155530040Y-113344520D01*
X155682440Y-113344520D02*
X155860240Y-113344520D01*
X156012640Y-113344520D02*
X157689040Y-113344520D01*
X159848040Y-113344520D02*
X160229040Y-113344520D01*
X160406840Y-113344520D02*
X161295840Y-113344520D01*
X161702240Y-113344520D02*
X161956240Y-113344520D01*
X162134040Y-113344520D02*
X163200840Y-113344520D01*
X163886640Y-113344520D02*
X164166040Y-113344520D01*
X164521640Y-113344520D02*
X165385240Y-113344520D01*
X165715440Y-113344520D02*
X165969440Y-113344520D01*
X166477440Y-113344520D02*
X166833040Y-113344520D01*
X155428440Y-113369920D02*
X155504640Y-113369920D01*
X155682440Y-113369920D02*
X155834840Y-113369920D01*
X155987240Y-113369920D02*
X157663640Y-113369920D01*
X159873440Y-113369920D02*
X160229040Y-113369920D01*
X160432240Y-113369920D02*
X161270440Y-113369920D01*
X161702240Y-113369920D02*
X161956240Y-113369920D01*
X162134040Y-113369920D02*
X163175440Y-113369920D01*
X163886640Y-113369920D02*
X164166040Y-113369920D01*
X164547040Y-113369920D02*
X165309040Y-113369920D01*
X165715440Y-113369920D02*
X165969440Y-113369920D01*
X166502840Y-113369920D02*
X166858440Y-113369920D01*
X155682440Y-113395320D02*
X155809440Y-113395320D01*
X155961840Y-113395320D02*
X157638240Y-113395320D01*
X159873440Y-113395320D02*
X160254440Y-113395320D01*
X160483040Y-113395320D02*
X161219640Y-113395320D01*
X161702240Y-113395320D02*
X161956240Y-113395320D01*
X162134040Y-113395320D02*
X163175440Y-113395320D01*
X163912040Y-113395320D02*
X164191440Y-113395320D01*
X164623240Y-113395320D02*
X165232840Y-113395320D01*
X165715440Y-113395320D02*
X165969440Y-113395320D01*
X166528240Y-113395320D02*
X166883840Y-113395320D01*
X155682440Y-113420720D02*
X155784040Y-113420720D01*
X155936440Y-113420720D02*
X157612840Y-113420720D01*
X159898840Y-113420720D02*
X160254440Y-113420720D01*
X160559240Y-113420720D02*
X161143440Y-113420720D01*
X164699440Y-113420720D02*
X165131240Y-113420720D01*
X155682440Y-113446120D02*
X155758640Y-113446120D01*
X155911040Y-113446120D02*
X157587440Y-113446120D01*
X159898840Y-113446120D02*
X160279840Y-113446120D01*
X160635440Y-113446120D02*
X161067240Y-113446120D01*
X155682440Y-113471520D02*
X155733240Y-113471520D01*
X155885640Y-113471520D02*
X157562040Y-113471520D01*
X159924240Y-113471520D02*
X160279840Y-113471520D01*
X155682440Y-113496920D02*
X155707840Y-113496920D01*
X155860240Y-113496920D02*
X157536640Y-113496920D01*
X158197040Y-113496920D02*
X159670240Y-113496920D01*
X159924240Y-113496920D02*
X160305240Y-113496920D01*
X155834840Y-113522320D02*
X157511240Y-113522320D01*
X158197040Y-113522320D02*
X159670240Y-113522320D01*
X159949640Y-113522320D02*
X160305240Y-113522320D01*
X155809440Y-113547720D02*
X157485840Y-113547720D01*
X158197040Y-113547720D02*
X159670240Y-113547720D01*
X159949640Y-113547720D02*
X160330640Y-113547720D01*
X155784040Y-113573120D02*
X157460440Y-113573120D01*
X158197040Y-113573120D02*
X159670240Y-113573120D01*
X159975040Y-113573120D02*
X160330640Y-113573120D01*
X155758640Y-113598520D02*
X157435040Y-113598520D01*
X158197040Y-113598520D02*
X159670240Y-113598520D01*
X159975040Y-113598520D02*
X160356040Y-113598520D01*
X155733240Y-113623920D02*
X157409640Y-113623920D01*
X158197040Y-113623920D02*
X159670240Y-113623920D01*
X160000440Y-113623920D02*
X160381440Y-113623920D01*
X155682440Y-113649320D02*
X157384240Y-113649320D01*
X158197040Y-113649320D02*
X159670240Y-113649320D01*
X160000440Y-113649320D02*
X160381440Y-113649320D01*
X155682440Y-113674720D02*
X157358840Y-113674720D01*
X158197040Y-113674720D02*
X159670240Y-113674720D01*
X160025840Y-113674720D02*
X160406840Y-113674720D01*
X155682440Y-113700120D02*
X157333440Y-113700120D01*
X158197040Y-113700120D02*
X159670240Y-113700120D01*
X160025840Y-113700120D02*
X160406840Y-113700120D01*
X158197040Y-113725520D02*
X159670240Y-113725520D01*
X160051240Y-113725520D02*
X160432240Y-113725520D01*
X160051240Y-113750920D02*
X160432240Y-113750920D01*
X160076640Y-113776320D02*
X160457640Y-113776320D01*
X160076640Y-113801720D02*
X160457640Y-113801720D01*
X160102040Y-113827120D02*
X160483040Y-113827120D01*
X160102040Y-113852520D02*
X160483040Y-113852520D01*
X160127440Y-113877920D02*
X160508440Y-113877920D01*
X160127440Y-113903320D02*
X160508440Y-113903320D01*
X160152840Y-113928720D02*
X160533840Y-113928720D01*
D12*
X150000000Y-103500000D02*
X150000000Y-106500000D01*
X150000000Y-106500000D02*
X147000000Y-106500000D01*
X147000000Y-106500000D02*
X147000000Y-103500000D01*
X147000000Y-103500000D02*
X150000000Y-103500000D01*
D11*
X138438181Y-105738095D02*
X137438181Y-105738095D01*
X137438181Y-105357142D01*
X137485800Y-105261904D01*
X137533419Y-105214285D01*
X137628657Y-105166666D01*
X137771514Y-105166666D01*
X137866752Y-105214285D01*
X137914371Y-105261904D01*
X137961990Y-105357142D01*
X137961990Y-105738095D01*
X138438181Y-104214285D02*
X138438181Y-104785714D01*
X138438181Y-104500000D02*
X137438181Y-104500000D01*
X137581038Y-104595238D01*
X137676276Y-104690476D01*
X137723895Y-104785714D01*
D13*
X140602143Y-110207000D02*
X140638429Y-110243286D01*
X140674714Y-110352143D01*
X140674714Y-110424714D01*
X140638429Y-110533571D01*
X140565857Y-110606143D01*
X140493286Y-110642428D01*
X140348143Y-110678714D01*
X140239286Y-110678714D01*
X140094143Y-110642428D01*
X140021571Y-110606143D01*
X139949000Y-110533571D01*
X139912714Y-110424714D01*
X139912714Y-110352143D01*
X139949000Y-110243286D01*
X139985286Y-110207000D01*
X140674714Y-109481286D02*
X140674714Y-109916714D01*
X140674714Y-109699000D02*
X139912714Y-109699000D01*
X140021571Y-109771571D01*
X140094143Y-109844143D01*
X140130429Y-109916714D01*
X143342143Y-106867000D02*
X143378429Y-106903286D01*
X143414714Y-107012143D01*
X143414714Y-107084714D01*
X143378429Y-107193571D01*
X143305857Y-107266143D01*
X143233286Y-107302428D01*
X143088143Y-107338714D01*
X142979286Y-107338714D01*
X142834143Y-107302428D01*
X142761571Y-107266143D01*
X142689000Y-107193571D01*
X142652714Y-107084714D01*
X142652714Y-107012143D01*
X142689000Y-106903286D01*
X142725286Y-106867000D01*
X142725286Y-106576714D02*
X142689000Y-106540428D01*
X142652714Y-106467857D01*
X142652714Y-106286428D01*
X142689000Y-106213857D01*
X142725286Y-106177571D01*
X142797857Y-106141286D01*
X142870429Y-106141286D01*
X142979286Y-106177571D01*
X143414714Y-106613000D01*
X143414714Y-106141286D01*
X155123000Y-109334714D02*
X154869000Y-108971857D01*
X154687572Y-109334714D02*
X154687572Y-108572714D01*
X154977857Y-108572714D01*
X155050429Y-108609000D01*
X155086714Y-108645286D01*
X155123000Y-108717857D01*
X155123000Y-108826714D01*
X155086714Y-108899286D01*
X155050429Y-108935571D01*
X154977857Y-108971857D01*
X154687572Y-108971857D01*
X155848714Y-109334714D02*
X155413286Y-109334714D01*
X155631000Y-109334714D02*
X155631000Y-108572714D01*
X155558429Y-108681571D01*
X155485857Y-108754143D01*
X155413286Y-108790429D01*
D11*
X156512381Y-105738095D02*
X155512381Y-105738095D01*
X155512381Y-105357142D01*
X155560000Y-105261904D01*
X155607619Y-105214285D01*
X155702857Y-105166666D01*
X155845714Y-105166666D01*
X155940952Y-105214285D01*
X155988571Y-105261904D01*
X156036190Y-105357142D01*
X156036190Y-105738095D01*
X155607619Y-104785714D02*
X155560000Y-104738095D01*
X155512381Y-104642857D01*
X155512381Y-104404761D01*
X155560000Y-104309523D01*
X155607619Y-104261904D01*
X155702857Y-104214285D01*
X155798095Y-104214285D01*
X155940952Y-104261904D01*
X156512381Y-104833333D01*
X156512381Y-104214285D01*
D13*
X147919429Y-102302714D02*
X147919429Y-102919571D01*
X147955714Y-102992143D01*
X147992000Y-103028429D01*
X148064571Y-103064714D01*
X148209714Y-103064714D01*
X148282286Y-103028429D01*
X148318571Y-102992143D01*
X148354857Y-102919571D01*
X148354857Y-102302714D01*
X149116857Y-103064714D02*
X148681429Y-103064714D01*
X148899143Y-103064714D02*
X148899143Y-102302714D01*
X148826572Y-102411571D01*
X148754000Y-102484143D01*
X148681429Y-102520429D01*
M02*
