G04 #@! TF.FileFunction,Copper,L1,Top,Signal*
%FSLAX46Y46*%
G04 Gerber Fmt 4.6, Leading zero omitted, Abs format (unit mm)*
G04 Created by KiCad (PCBNEW 4.0.2+dfsg1-stable) date ven. 15 mars 2019 11:09:51 CET*
%MOMM*%
G01*
G04 APERTURE LIST*
%ADD10C,0.100000*%
%ADD11C,0.101600*%
%ADD12C,0.200000*%
%ADD13R,2.000000X1.900000*%
%ADD14C,1.900000*%
%ADD15R,1.397000X0.889000*%
%ADD16R,1.143000X0.635000*%
%ADD17R,0.889000X1.397000*%
%ADD18R,2.540000X2.540000*%
%ADD19C,2.540000*%
%ADD20R,1.350000X0.350000*%
%ADD21C,0.711200*%
%ADD22C,0.203200*%
%ADD23C,0.304800*%
G04 APERTURE END LIST*
D10*
D11*
X143640134Y-97678533D02*
X143978800Y-97678533D01*
X143572400Y-97881733D02*
X143809467Y-97170533D01*
X144046534Y-97881733D01*
X144588400Y-97407600D02*
X144588400Y-97983333D01*
X144554534Y-98051067D01*
X144520667Y-98084933D01*
X144452934Y-98118800D01*
X144351334Y-98118800D01*
X144283600Y-98084933D01*
X144588400Y-97847867D02*
X144520667Y-97881733D01*
X144385200Y-97881733D01*
X144317467Y-97847867D01*
X144283600Y-97814000D01*
X144249734Y-97746267D01*
X144249734Y-97543067D01*
X144283600Y-97475333D01*
X144317467Y-97441467D01*
X144385200Y-97407600D01*
X144520667Y-97407600D01*
X144588400Y-97441467D01*
X144927067Y-97881733D02*
X144927067Y-97407600D01*
X144927067Y-97170533D02*
X144893201Y-97204400D01*
X144927067Y-97238267D01*
X144960934Y-97204400D01*
X144927067Y-97170533D01*
X144927067Y-97238267D01*
X145367334Y-97881733D02*
X145299601Y-97847867D01*
X145265734Y-97780133D01*
X145265734Y-97170533D01*
X145943067Y-97881733D02*
X145943067Y-97509200D01*
X145909201Y-97441467D01*
X145841467Y-97407600D01*
X145706001Y-97407600D01*
X145638267Y-97441467D01*
X145943067Y-97847867D02*
X145875334Y-97881733D01*
X145706001Y-97881733D01*
X145638267Y-97847867D01*
X145604401Y-97780133D01*
X145604401Y-97712400D01*
X145638267Y-97644667D01*
X145706001Y-97610800D01*
X145875334Y-97610800D01*
X145943067Y-97576933D01*
X146586534Y-97847867D02*
X146518801Y-97881733D01*
X146383334Y-97881733D01*
X146315601Y-97847867D01*
X146281734Y-97814000D01*
X146247868Y-97746267D01*
X146247868Y-97543067D01*
X146281734Y-97475333D01*
X146315601Y-97441467D01*
X146383334Y-97407600D01*
X146518801Y-97407600D01*
X146586534Y-97441467D01*
X146891334Y-97881733D02*
X146891334Y-97170533D01*
X146959068Y-97610800D02*
X147162268Y-97881733D01*
X147162268Y-97407600D02*
X146891334Y-97678533D01*
X148415334Y-97814000D02*
X148381468Y-97847867D01*
X148279868Y-97881733D01*
X148212134Y-97881733D01*
X148110534Y-97847867D01*
X148042801Y-97780133D01*
X148008934Y-97712400D01*
X147975068Y-97576933D01*
X147975068Y-97475333D01*
X148008934Y-97339867D01*
X148042801Y-97272133D01*
X148110534Y-97204400D01*
X148212134Y-97170533D01*
X148279868Y-97170533D01*
X148381468Y-97204400D01*
X148415334Y-97238267D01*
X149126534Y-97814000D02*
X149092668Y-97847867D01*
X148991068Y-97881733D01*
X148923334Y-97881733D01*
X148821734Y-97847867D01*
X148754001Y-97780133D01*
X148720134Y-97712400D01*
X148686268Y-97576933D01*
X148686268Y-97475333D01*
X148720134Y-97339867D01*
X148754001Y-97272133D01*
X148821734Y-97204400D01*
X148923334Y-97170533D01*
X148991068Y-97170533D01*
X149092668Y-97204400D01*
X149126534Y-97238267D01*
X149431334Y-97610800D02*
X149973201Y-97610800D01*
X150311867Y-97881733D02*
X150311867Y-97170533D01*
X150311867Y-97441467D02*
X150379601Y-97407600D01*
X150515067Y-97407600D01*
X150582801Y-97441467D01*
X150616667Y-97475333D01*
X150650534Y-97543067D01*
X150650534Y-97746267D01*
X150616667Y-97814000D01*
X150582801Y-97847867D01*
X150515067Y-97881733D01*
X150379601Y-97881733D01*
X150311867Y-97847867D01*
X150887601Y-97407600D02*
X151056934Y-97881733D01*
X151226268Y-97407600D02*
X151056934Y-97881733D01*
X150989201Y-98051067D01*
X150955334Y-98084933D01*
X150887601Y-98118800D01*
X151497201Y-97610800D02*
X152039068Y-97610800D01*
X152343868Y-97847867D02*
X152445468Y-97881733D01*
X152614801Y-97881733D01*
X152682534Y-97847867D01*
X152716401Y-97814000D01*
X152750268Y-97746267D01*
X152750268Y-97678533D01*
X152716401Y-97610800D01*
X152682534Y-97576933D01*
X152614801Y-97543067D01*
X152479334Y-97509200D01*
X152411601Y-97475333D01*
X152377734Y-97441467D01*
X152343868Y-97373733D01*
X152343868Y-97306000D01*
X152377734Y-97238267D01*
X152411601Y-97204400D01*
X152479334Y-97170533D01*
X152648668Y-97170533D01*
X152750268Y-97204400D01*
X153021201Y-97678533D02*
X153359867Y-97678533D01*
X152953467Y-97881733D02*
X153190534Y-97170533D01*
X153427601Y-97881733D01*
D12*
X141952380Y-96712381D02*
X141952380Y-95712381D01*
X142333333Y-95712381D01*
X142428571Y-95760000D01*
X142476190Y-95807619D01*
X142523809Y-95902857D01*
X142523809Y-96045714D01*
X142476190Y-96140952D01*
X142428571Y-96188571D01*
X142333333Y-96236190D01*
X141952380Y-96236190D01*
X142952380Y-96712381D02*
X142952380Y-95712381D01*
X143285714Y-96426667D01*
X143619047Y-95712381D01*
X143619047Y-96712381D01*
X144285713Y-95712381D02*
X144476190Y-95712381D01*
X144571428Y-95760000D01*
X144666666Y-95855238D01*
X144714285Y-96045714D01*
X144714285Y-96379048D01*
X144666666Y-96569524D01*
X144571428Y-96664762D01*
X144476190Y-96712381D01*
X144285713Y-96712381D01*
X144190475Y-96664762D01*
X144095237Y-96569524D01*
X144047618Y-96379048D01*
X144047618Y-96045714D01*
X144095237Y-95855238D01*
X144190475Y-95760000D01*
X144285713Y-95712381D01*
X145142856Y-96712381D02*
X145142856Y-95712381D01*
X145380951Y-95712381D01*
X145523809Y-95760000D01*
X145619047Y-95855238D01*
X145666666Y-95950476D01*
X145714285Y-96140952D01*
X145714285Y-96283810D01*
X145666666Y-96474286D01*
X145619047Y-96569524D01*
X145523809Y-96664762D01*
X145380951Y-96712381D01*
X145142856Y-96712381D01*
X146904761Y-96712381D02*
X146904761Y-95712381D01*
X147476190Y-96712381D01*
X147476190Y-95712381D01*
X147809523Y-95712381D02*
X148380952Y-95712381D01*
X148095237Y-96712381D02*
X148095237Y-95712381D01*
X149285714Y-96617143D02*
X149238095Y-96664762D01*
X149095238Y-96712381D01*
X149000000Y-96712381D01*
X148857142Y-96664762D01*
X148761904Y-96569524D01*
X148714285Y-96474286D01*
X148666666Y-96283810D01*
X148666666Y-96140952D01*
X148714285Y-95950476D01*
X148761904Y-95855238D01*
X148857142Y-95760000D01*
X149000000Y-95712381D01*
X149095238Y-95712381D01*
X149238095Y-95760000D01*
X149285714Y-95807619D01*
X150428571Y-96664762D02*
X150571428Y-96712381D01*
X150809524Y-96712381D01*
X150904762Y-96664762D01*
X150952381Y-96617143D01*
X151000000Y-96521905D01*
X151000000Y-96426667D01*
X150952381Y-96331429D01*
X150904762Y-96283810D01*
X150809524Y-96236190D01*
X150619047Y-96188571D01*
X150523809Y-96140952D01*
X150476190Y-96093333D01*
X150428571Y-95998095D01*
X150428571Y-95902857D01*
X150476190Y-95807619D01*
X150523809Y-95760000D01*
X150619047Y-95712381D01*
X150857143Y-95712381D01*
X151000000Y-95760000D01*
X151809524Y-96664762D02*
X151714286Y-96712381D01*
X151523809Y-96712381D01*
X151428571Y-96664762D01*
X151380952Y-96569524D01*
X151380952Y-96188571D01*
X151428571Y-96093333D01*
X151523809Y-96045714D01*
X151714286Y-96045714D01*
X151809524Y-96093333D01*
X151857143Y-96188571D01*
X151857143Y-96283810D01*
X151380952Y-96379048D01*
X152285714Y-96045714D02*
X152285714Y-96712381D01*
X152285714Y-96140952D02*
X152333333Y-96093333D01*
X152428571Y-96045714D01*
X152571429Y-96045714D01*
X152666667Y-96093333D01*
X152714286Y-96188571D01*
X152714286Y-96712381D01*
X153142857Y-96664762D02*
X153238095Y-96712381D01*
X153428571Y-96712381D01*
X153523810Y-96664762D01*
X153571429Y-96569524D01*
X153571429Y-96521905D01*
X153523810Y-96426667D01*
X153428571Y-96379048D01*
X153285714Y-96379048D01*
X153190476Y-96331429D01*
X153142857Y-96236190D01*
X153142857Y-96188571D01*
X153190476Y-96093333D01*
X153285714Y-96045714D01*
X153428571Y-96045714D01*
X153523810Y-96093333D01*
X154142857Y-96712381D02*
X154047619Y-96664762D01*
X154000000Y-96617143D01*
X153952381Y-96521905D01*
X153952381Y-96236190D01*
X154000000Y-96140952D01*
X154047619Y-96093333D01*
X154142857Y-96045714D01*
X154285715Y-96045714D01*
X154380953Y-96093333D01*
X154428572Y-96140952D01*
X154476191Y-96236190D01*
X154476191Y-96521905D01*
X154428572Y-96617143D01*
X154380953Y-96664762D01*
X154285715Y-96712381D01*
X154142857Y-96712381D01*
X154904762Y-96712381D02*
X154904762Y-96045714D01*
X154904762Y-96236190D02*
X154952381Y-96140952D01*
X155000000Y-96093333D01*
X155095238Y-96045714D01*
X155190477Y-96045714D01*
D13*
X136030000Y-98650000D03*
D14*
X136030000Y-101190000D03*
X136030000Y-103730000D03*
X136030000Y-106270000D03*
X136030000Y-108810000D03*
X136030000Y-111350000D03*
X133490000Y-98650000D03*
X133490000Y-101190000D03*
X133490000Y-103730000D03*
X133490000Y-106270000D03*
X133490000Y-108810000D03*
X133490000Y-111350000D03*
D15*
X138830000Y-111032500D03*
X138830000Y-109127500D03*
D16*
X144510000Y-105978000D03*
X144510000Y-107502000D03*
D17*
X154297500Y-107540000D03*
X156202500Y-107540000D03*
D18*
X162470000Y-102460000D03*
D19*
X162470000Y-107540000D03*
D20*
X150800000Y-104675000D03*
X150800000Y-105325000D03*
X150800000Y-105975000D03*
X150800000Y-104025000D03*
X146200000Y-104025000D03*
X146200000Y-104675000D03*
X146200000Y-105325000D03*
X146200000Y-105975000D03*
D21*
X149540000Y-104020000D03*
X144510000Y-108400000D03*
X138830000Y-108110000D03*
D22*
X149895000Y-104025000D02*
X149890000Y-104020000D01*
X149890000Y-104020000D02*
X149540000Y-104020000D01*
X149895000Y-104025000D02*
X150800000Y-104025000D01*
D23*
X144510000Y-107502000D02*
X144510000Y-108400000D01*
X138830000Y-108110000D02*
X138830000Y-109127500D01*
X136030000Y-108810000D02*
X137420000Y-108810000D01*
X137737500Y-109127500D02*
X138830000Y-109127500D01*
X137420000Y-108810000D02*
X137737500Y-109127500D01*
X133490000Y-108810000D02*
X136030000Y-108810000D01*
D22*
X144510000Y-105978000D02*
X146197000Y-105978000D01*
X146197000Y-105978000D02*
X146200000Y-105975000D01*
D23*
X144510000Y-105978000D02*
X143392000Y-105978000D01*
X141147500Y-111032500D02*
X138830000Y-111032500D01*
X141960000Y-110220000D02*
X141147500Y-111032500D01*
X141960000Y-107410000D02*
X141960000Y-110220000D01*
X143392000Y-105978000D02*
X141960000Y-107410000D01*
D22*
X144513000Y-105975000D02*
X144510000Y-105978000D01*
D23*
X136030000Y-111350000D02*
X137410000Y-111350000D01*
X137410000Y-111350000D02*
X137727500Y-111032500D01*
X137727500Y-111032500D02*
X138830000Y-111032500D01*
X133490000Y-111350000D02*
X136030000Y-111350000D01*
D22*
X146200000Y-104025000D02*
X143705000Y-104025000D01*
X143705000Y-104025000D02*
X138330000Y-98650000D01*
X138330000Y-98650000D02*
X136030000Y-98650000D01*
X146200000Y-104675000D02*
X141445000Y-104675000D01*
X140500000Y-103730000D02*
X141445000Y-104675000D01*
X140500000Y-103730000D02*
X136030000Y-103730000D01*
X146200000Y-105325000D02*
X141445000Y-105325000D01*
X140500000Y-106270000D02*
X141445000Y-105325000D01*
X140500000Y-106270000D02*
X136030000Y-106270000D01*
X150800000Y-105325000D02*
X151855000Y-105325000D01*
D23*
X152335000Y-105325000D02*
X154297500Y-107287500D01*
X151855000Y-105325000D02*
X152335000Y-105325000D01*
X154297500Y-107287500D02*
X154297500Y-107540000D01*
X154297500Y-107287500D02*
X154297500Y-107540000D01*
X162470000Y-107540000D02*
X156202500Y-107540000D01*
D22*
X150800000Y-104675000D02*
X151855000Y-104675000D01*
D23*
X153315000Y-104675000D02*
X155530000Y-102460000D01*
X155530000Y-102460000D02*
X162470000Y-102460000D01*
X151855000Y-104675000D02*
X153315000Y-104675000D01*
M02*
