M48
;DRILL file {KiCad 4.0.2+dfsg1-stable} date ven. 30 juin 2017 17:47:46 CEST
;FORMAT={-:-/ absolute / inch / decimal}
FMAT,2
INCH,TZ
T1C0.012
T2C0.041
T3C0.043
T4C0.047
T5C0.122
%
G90
G05
M72
T1
X6.0935Y-3.9425
X6.1295Y-4.39
X6.196Y-3.89
X6.232Y-3.953
X6.4205Y-3.904
X6.437Y-4.329
X6.4465Y-4.184
X6.473Y-4.006
T2
X5.2349Y-4.078
X5.2894Y-4.1898
X5.3439Y-4.078
X5.3985Y-4.1898
X5.453Y-4.078
X5.5075Y-4.1898
X5.5621Y-4.078
X5.6166Y-4.1898
X5.6711Y-4.078
T3
X6.587Y-4.3839
T4
X6.587Y-3.8839
X6.587Y-3.9839
X6.587Y-4.0839
X6.587Y-4.1839
X6.587Y-4.2839
X6.687Y-3.8839
X6.687Y-3.9839
X6.687Y-4.0839
X6.687Y-4.1839
X6.687Y-4.2839
X6.687Y-4.3839
T5
X4.9611Y-4.1339
X5.9449Y-4.1339
T0
M30
