G04 #@! TF.FileFunction,Legend,Top*
%FSLAX46Y46*%
G04 Gerber Fmt 4.6, Leading zero omitted, Abs format (unit mm)*
G04 Created by KiCad (PCBNEW 4.0.2+dfsg1-stable) date ven. 30 juin 2017 17:47:39 CEST*
%MOMM*%
G01*
G04 APERTURE LIST*
%ADD10C,0.100000*%
%ADD11C,0.150000*%
%ADD12C,0.203200*%
%ADD13C,0.127000*%
%ADD14C,0.027940*%
%ADD15C,0.124460*%
%ADD16C,0.101600*%
%ADD17C,2.178000*%
%ADD18C,4.900000*%
%ADD19R,0.699720X2.180540*%
%ADD20R,1.035000X1.543000*%
%ADD21R,1.543000X1.035000*%
%ADD22R,2.400000X2.300000*%
%ADD23C,2.300000*%
G04 APERTURE END LIST*
D10*
D11*
X123106200Y-110275000D02*
G75*
G03X124106200Y-111275000I1000000J0D01*
G01*
X152906200Y-111275000D02*
G75*
G03X153906200Y-110275000I0J1000000D01*
G01*
X153906200Y-99725000D02*
G75*
G03X152906200Y-98725000I-1000000J0D01*
G01*
X124106200Y-98725000D02*
G75*
G03X123106200Y-99725000I0J-1000000D01*
G01*
X124106200Y-98725000D02*
X152906200Y-98725000D01*
X153906200Y-99725000D02*
X153906200Y-110275000D01*
X152906200Y-111275000D02*
X124106200Y-111275000D01*
X123106200Y-110275000D02*
X123106200Y-99725000D01*
D12*
X157218400Y-103252480D02*
X157218400Y-106747520D01*
X162618400Y-106747520D02*
X162618400Y-103252480D01*
D13*
X157048200Y-109321600D02*
X159334200Y-109321600D01*
X159334200Y-109321600D02*
X159334200Y-110591600D01*
X159334200Y-110591600D02*
X157048200Y-110591600D01*
X157048200Y-110591600D02*
X157048200Y-109321600D01*
X158775400Y-110845600D02*
X161061400Y-110845600D01*
X161061400Y-110845600D02*
X161061400Y-112115600D01*
X161061400Y-112115600D02*
X158775400Y-112115600D01*
X158775400Y-112115600D02*
X158775400Y-110845600D01*
X158521400Y-112141000D02*
X156235400Y-112141000D01*
X156235400Y-112141000D02*
X156235400Y-110871000D01*
X156235400Y-110871000D02*
X158521400Y-110871000D01*
X158521400Y-110871000D02*
X158521400Y-112141000D01*
X162788600Y-110591600D02*
X160502600Y-110591600D01*
X160502600Y-110591600D02*
X160502600Y-109321600D01*
X160502600Y-109321600D02*
X162788600Y-109321600D01*
X162788600Y-109321600D02*
X162788600Y-110591600D01*
X165049200Y-98780600D02*
X165049200Y-101066600D01*
X165049200Y-101066600D02*
X163779200Y-101066600D01*
X163779200Y-101066600D02*
X163779200Y-98780600D01*
X163779200Y-98780600D02*
X165049200Y-98780600D01*
X157759400Y-100774500D02*
X155473400Y-100774500D01*
X155473400Y-100774500D02*
X155473400Y-99504500D01*
X155473400Y-99504500D02*
X157759400Y-99504500D01*
X157759400Y-99504500D02*
X157759400Y-100774500D01*
D11*
X179889800Y-111350000D02*
X173889800Y-111350000D01*
X179889800Y-108810000D02*
X173889800Y-108810000D01*
X179889800Y-106270000D02*
X173889800Y-106270000D01*
X179889800Y-103730000D02*
X173889800Y-103730000D01*
X179889800Y-101190000D02*
X173889800Y-101190000D01*
X179889800Y-98650000D02*
X173889800Y-98650000D01*
X171349800Y-97380000D02*
X171349800Y-112620000D01*
X171349800Y-112620000D02*
X173889800Y-112620000D01*
X173889800Y-112620000D02*
X173889800Y-97380000D01*
X171349800Y-97380000D02*
X173889800Y-97380000D01*
D14*
X159994600Y-95250000D02*
X160248600Y-95250000D01*
X159842200Y-95275400D02*
X160477200Y-95275400D01*
X159842200Y-95300800D02*
X160477200Y-95300800D01*
X159816800Y-95326200D02*
X160502600Y-95326200D01*
X159816800Y-95351600D02*
X160502600Y-95351600D01*
X159816800Y-95377000D02*
X160502600Y-95377000D01*
X159816800Y-95402400D02*
X160502600Y-95402400D01*
X159816800Y-95427800D02*
X160502600Y-95427800D01*
X159816800Y-95453200D02*
X160502600Y-95453200D01*
X159791400Y-95478600D02*
X160528000Y-95478600D01*
X159791400Y-95504000D02*
X160528000Y-95504000D01*
X159791400Y-95529400D02*
X160528000Y-95529400D01*
X159791400Y-95554800D02*
X160528000Y-95554800D01*
X159791400Y-95580200D02*
X160528000Y-95580200D01*
X159766000Y-95605600D02*
X160528000Y-95605600D01*
X159766000Y-95631000D02*
X160553400Y-95631000D01*
X159766000Y-95656400D02*
X160553400Y-95656400D01*
X159766000Y-95681800D02*
X160553400Y-95681800D01*
X159766000Y-95707200D02*
X160553400Y-95707200D01*
X158724600Y-95732600D02*
X158800800Y-95732600D01*
X159766000Y-95732600D02*
X160553400Y-95732600D01*
X161493200Y-95732600D02*
X161594800Y-95732600D01*
X158699200Y-95758000D02*
X158826200Y-95758000D01*
X159740600Y-95758000D02*
X160553400Y-95758000D01*
X161442400Y-95758000D02*
X161620200Y-95758000D01*
X158673800Y-95783400D02*
X158877000Y-95783400D01*
X159740600Y-95783400D02*
X160553400Y-95783400D01*
X161417000Y-95783400D02*
X161645600Y-95783400D01*
X158623000Y-95808800D02*
X158902400Y-95808800D01*
X159740600Y-95808800D02*
X160578800Y-95808800D01*
X161366200Y-95808800D02*
X161696400Y-95808800D01*
X158597600Y-95834200D02*
X158953200Y-95834200D01*
X159740600Y-95834200D02*
X160578800Y-95834200D01*
X161340800Y-95834200D02*
X161721800Y-95834200D01*
X158572200Y-95859600D02*
X158978600Y-95859600D01*
X159740600Y-95859600D02*
X160578800Y-95859600D01*
X161290000Y-95859600D02*
X161747200Y-95859600D01*
X158546800Y-95885000D02*
X159004000Y-95885000D01*
X159715200Y-95885000D02*
X160578800Y-95885000D01*
X161264600Y-95885000D02*
X161772600Y-95885000D01*
X158521400Y-95910400D02*
X159054800Y-95910400D01*
X159639000Y-95910400D02*
X160680400Y-95910400D01*
X161213800Y-95910400D02*
X161798000Y-95910400D01*
X158496000Y-95935800D02*
X159080200Y-95935800D01*
X159562800Y-95935800D02*
X160756600Y-95935800D01*
X161188400Y-95935800D02*
X161823400Y-95935800D01*
X158470600Y-95961200D02*
X159131000Y-95961200D01*
X159486600Y-95961200D02*
X160807400Y-95961200D01*
X161137600Y-95961200D02*
X161848800Y-95961200D01*
X158445200Y-95986600D02*
X159156400Y-95986600D01*
X159435800Y-95986600D02*
X160883600Y-95986600D01*
X161112200Y-95986600D02*
X161874200Y-95986600D01*
X158419800Y-96012000D02*
X159181800Y-96012000D01*
X159385000Y-96012000D02*
X160934400Y-96012000D01*
X161086800Y-96012000D02*
X161899600Y-96012000D01*
X158394400Y-96037400D02*
X159232600Y-96037400D01*
X159334200Y-96037400D02*
X160985200Y-96037400D01*
X161036000Y-96037400D02*
X161925000Y-96037400D01*
X158369000Y-96062800D02*
X159258000Y-96062800D01*
X159283400Y-96062800D02*
X161950400Y-96062800D01*
X158343600Y-96088200D02*
X161950400Y-96088200D01*
X158343600Y-96113600D02*
X161975800Y-96113600D01*
X158318200Y-96139000D02*
X161975800Y-96139000D01*
X158318200Y-96164400D02*
X161975800Y-96164400D01*
X158343600Y-96189800D02*
X161975800Y-96189800D01*
X158343600Y-96215200D02*
X161950400Y-96215200D01*
X158369000Y-96240600D02*
X161950400Y-96240600D01*
X158394400Y-96266000D02*
X161925000Y-96266000D01*
X158394400Y-96291400D02*
X161899600Y-96291400D01*
X158419800Y-96316800D02*
X161874200Y-96316800D01*
X158445200Y-96342200D02*
X161874200Y-96342200D01*
X158470600Y-96367600D02*
X161848800Y-96367600D01*
X158470600Y-96393000D02*
X161823400Y-96393000D01*
X158496000Y-96418400D02*
X161823400Y-96418400D01*
X158521400Y-96443800D02*
X161798000Y-96443800D01*
X158521400Y-96469200D02*
X161772600Y-96469200D01*
X158546800Y-96494600D02*
X161747200Y-96494600D01*
X158572200Y-96520000D02*
X161747200Y-96520000D01*
X158572200Y-96545400D02*
X161721800Y-96545400D01*
X158597600Y-96570800D02*
X161696400Y-96570800D01*
X158623000Y-96596200D02*
X161671000Y-96596200D01*
X158623000Y-96621600D02*
X161671000Y-96621600D01*
X158648400Y-96647000D02*
X161645600Y-96647000D01*
X158648400Y-96672400D02*
X161645600Y-96672400D01*
X158648400Y-96697800D02*
X161671000Y-96697800D01*
X158623000Y-96723200D02*
X161696400Y-96723200D01*
X158623000Y-96748600D02*
X161696400Y-96748600D01*
X158597600Y-96774000D02*
X161721800Y-96774000D01*
X158597600Y-96799400D02*
X161721800Y-96799400D01*
X158572200Y-96824800D02*
X161747200Y-96824800D01*
X158572200Y-96850200D02*
X161747200Y-96850200D01*
X158546800Y-96875600D02*
X161772600Y-96875600D01*
X158546800Y-96901000D02*
X161772600Y-96901000D01*
X158521400Y-96926400D02*
X161772600Y-96926400D01*
X158521400Y-96951800D02*
X160045400Y-96951800D01*
X160274000Y-96951800D02*
X161798000Y-96951800D01*
X158521400Y-96977200D02*
X159969200Y-96977200D01*
X160350200Y-96977200D02*
X161798000Y-96977200D01*
X158496000Y-97002600D02*
X159893000Y-97002600D01*
X160426400Y-97002600D02*
X161823400Y-97002600D01*
X158496000Y-97028000D02*
X159842200Y-97028000D01*
X160477200Y-97028000D02*
X161823400Y-97028000D01*
X158496000Y-97053400D02*
X159816800Y-97053400D01*
X160502600Y-97053400D02*
X161823400Y-97053400D01*
X158470600Y-97078800D02*
X159766000Y-97078800D01*
X160553400Y-97078800D02*
X161848800Y-97078800D01*
X158470600Y-97104200D02*
X159740600Y-97104200D01*
X160578800Y-97104200D02*
X161925000Y-97104200D01*
X158470600Y-97129600D02*
X159715200Y-97129600D01*
X160604200Y-97129600D02*
X162077400Y-97129600D01*
X158445200Y-97155000D02*
X159689800Y-97155000D01*
X160629600Y-97155000D02*
X162204400Y-97155000D01*
X158292800Y-97180400D02*
X159664400Y-97180400D01*
X160655000Y-97180400D02*
X162356800Y-97180400D01*
X158140400Y-97205800D02*
X159664400Y-97205800D01*
X160655000Y-97205800D02*
X162458400Y-97205800D01*
X157988000Y-97231200D02*
X159639000Y-97231200D01*
X160680400Y-97231200D02*
X162458400Y-97231200D01*
X157861000Y-97256600D02*
X159613600Y-97256600D01*
X160705800Y-97256600D02*
X162483800Y-97256600D01*
X157835600Y-97282000D02*
X159613600Y-97282000D01*
X160705800Y-97282000D02*
X162483800Y-97282000D01*
X157835600Y-97307400D02*
X159588200Y-97307400D01*
X160731200Y-97307400D02*
X162483800Y-97307400D01*
X157835600Y-97332800D02*
X159588200Y-97332800D01*
X160731200Y-97332800D02*
X162483800Y-97332800D01*
X157835600Y-97358200D02*
X159562800Y-97358200D01*
X160756600Y-97358200D02*
X162483800Y-97358200D01*
X157835600Y-97383600D02*
X159562800Y-97383600D01*
X160756600Y-97383600D02*
X162483800Y-97383600D01*
X157835600Y-97409000D02*
X159562800Y-97409000D01*
X160756600Y-97409000D02*
X162483800Y-97409000D01*
X157835600Y-97434400D02*
X159562800Y-97434400D01*
X160782000Y-97434400D02*
X162483800Y-97434400D01*
X157835600Y-97459800D02*
X159537400Y-97459800D01*
X160782000Y-97459800D02*
X162483800Y-97459800D01*
X157835600Y-97485200D02*
X159537400Y-97485200D01*
X160782000Y-97485200D02*
X162509200Y-97485200D01*
X157810200Y-97510600D02*
X159537400Y-97510600D01*
X160782000Y-97510600D02*
X162509200Y-97510600D01*
X157810200Y-97536000D02*
X159537400Y-97536000D01*
X160782000Y-97536000D02*
X162509200Y-97536000D01*
X157810200Y-97561400D02*
X159537400Y-97561400D01*
X160782000Y-97561400D02*
X162509200Y-97561400D01*
X157810200Y-97586800D02*
X159537400Y-97586800D01*
X160782000Y-97586800D02*
X162509200Y-97586800D01*
X157810200Y-97612200D02*
X159537400Y-97612200D01*
X160782000Y-97612200D02*
X162509200Y-97612200D01*
X157810200Y-97637600D02*
X159537400Y-97637600D01*
X160782000Y-97637600D02*
X162509200Y-97637600D01*
X157810200Y-97663000D02*
X159537400Y-97663000D01*
X160782000Y-97663000D02*
X162509200Y-97663000D01*
X157810200Y-97688400D02*
X159537400Y-97688400D01*
X160782000Y-97688400D02*
X162509200Y-97688400D01*
X157810200Y-97713800D02*
X159562800Y-97713800D01*
X160782000Y-97713800D02*
X162509200Y-97713800D01*
X157835600Y-97739200D02*
X159562800Y-97739200D01*
X160756600Y-97739200D02*
X162509200Y-97739200D01*
X157835600Y-97764600D02*
X159562800Y-97764600D01*
X160756600Y-97764600D02*
X162483800Y-97764600D01*
X157835600Y-97790000D02*
X159588200Y-97790000D01*
X160756600Y-97790000D02*
X162483800Y-97790000D01*
X157835600Y-97815400D02*
X159588200Y-97815400D01*
X160731200Y-97815400D02*
X162483800Y-97815400D01*
X157835600Y-97840800D02*
X159588200Y-97840800D01*
X160731200Y-97840800D02*
X162458400Y-97840800D01*
X157835600Y-97866200D02*
X159613600Y-97866200D01*
X160705800Y-97866200D02*
X162306000Y-97866200D01*
X157937200Y-97891600D02*
X159639000Y-97891600D01*
X160705800Y-97891600D02*
X162153600Y-97891600D01*
X158064200Y-97917000D02*
X159639000Y-97917000D01*
X160680400Y-97917000D02*
X161975800Y-97917000D01*
X158216600Y-97942400D02*
X159664400Y-97942400D01*
X160655000Y-97942400D02*
X161874200Y-97942400D01*
X158343600Y-97967800D02*
X159689800Y-97967800D01*
X160629600Y-97967800D02*
X161874200Y-97967800D01*
X158445200Y-97993200D02*
X159715200Y-97993200D01*
X160629600Y-97993200D02*
X161874200Y-97993200D01*
X158470600Y-98018600D02*
X159715200Y-98018600D01*
X160604200Y-98018600D02*
X161848800Y-98018600D01*
X158470600Y-98044000D02*
X159766000Y-98044000D01*
X160553400Y-98044000D02*
X161848800Y-98044000D01*
X158470600Y-98069400D02*
X159791400Y-98069400D01*
X160528000Y-98069400D02*
X161848800Y-98069400D01*
X158470600Y-98094800D02*
X159816800Y-98094800D01*
X160502600Y-98094800D02*
X161848800Y-98094800D01*
X158496000Y-98120200D02*
X159867600Y-98120200D01*
X160451800Y-98120200D02*
X161823400Y-98120200D01*
X158496000Y-98145600D02*
X159918400Y-98145600D01*
X160401000Y-98145600D02*
X161823400Y-98145600D01*
X158496000Y-98171000D02*
X159943800Y-98171000D01*
X160401000Y-98171000D02*
X161823400Y-98171000D01*
X158521400Y-98196400D02*
X159943800Y-98196400D01*
X160401000Y-98196400D02*
X161798000Y-98196400D01*
X158521400Y-98221800D02*
X159943800Y-98221800D01*
X160401000Y-98221800D02*
X161798000Y-98221800D01*
X158521400Y-98247200D02*
X159918400Y-98247200D01*
X160426400Y-98247200D02*
X161772600Y-98247200D01*
X158546800Y-98272600D02*
X159918400Y-98272600D01*
X160426400Y-98272600D02*
X161772600Y-98272600D01*
X158546800Y-98298000D02*
X159918400Y-98298000D01*
X160426400Y-98298000D02*
X161772600Y-98298000D01*
X158572200Y-98323400D02*
X159893000Y-98323400D01*
X160451800Y-98323400D02*
X161747200Y-98323400D01*
X158572200Y-98348800D02*
X159893000Y-98348800D01*
X160451800Y-98348800D02*
X161747200Y-98348800D01*
X158597600Y-98374200D02*
X159867600Y-98374200D01*
X160477200Y-98374200D02*
X161721800Y-98374200D01*
X158597600Y-98399600D02*
X159867600Y-98399600D01*
X160477200Y-98399600D02*
X161721800Y-98399600D01*
X158623000Y-98425000D02*
X159867600Y-98425000D01*
X160477200Y-98425000D02*
X161696400Y-98425000D01*
X158623000Y-98450400D02*
X159842200Y-98450400D01*
X160502600Y-98450400D02*
X161721800Y-98450400D01*
X158648400Y-98475800D02*
X159842200Y-98475800D01*
X160502600Y-98475800D02*
X161721800Y-98475800D01*
X158648400Y-98501200D02*
X159842200Y-98501200D01*
X160528000Y-98501200D02*
X161747200Y-98501200D01*
X158648400Y-98526600D02*
X159816800Y-98526600D01*
X160528000Y-98526600D02*
X161772600Y-98526600D01*
X158648400Y-98552000D02*
X159816800Y-98552000D01*
X160528000Y-98552000D02*
X161798000Y-98552000D01*
X158623000Y-98577400D02*
X159816800Y-98577400D01*
X160553400Y-98577400D02*
X161798000Y-98577400D01*
X158597600Y-98602800D02*
X159791400Y-98602800D01*
X160553400Y-98602800D02*
X161823400Y-98602800D01*
X158572200Y-98628200D02*
X159791400Y-98628200D01*
X160553400Y-98628200D02*
X161848800Y-98628200D01*
X158572200Y-98653600D02*
X159791400Y-98653600D01*
X160578800Y-98653600D02*
X161848800Y-98653600D01*
X158546800Y-98679000D02*
X159766000Y-98679000D01*
X160578800Y-98679000D02*
X161874200Y-98679000D01*
X158521400Y-98704400D02*
X159766000Y-98704400D01*
X160604200Y-98704400D02*
X161899600Y-98704400D01*
X158496000Y-98729800D02*
X159766000Y-98729800D01*
X160604200Y-98729800D02*
X161899600Y-98729800D01*
X158496000Y-98755200D02*
X159740600Y-98755200D01*
X160604200Y-98755200D02*
X161925000Y-98755200D01*
X158470600Y-98780600D02*
X159740600Y-98780600D01*
X160629600Y-98780600D02*
X161950400Y-98780600D01*
X158445200Y-98806000D02*
X159715200Y-98806000D01*
X160629600Y-98806000D02*
X161950400Y-98806000D01*
X158445200Y-98831400D02*
X159715200Y-98831400D01*
X160655000Y-98831400D02*
X161975800Y-98831400D01*
X158419800Y-98856800D02*
X159715200Y-98856800D01*
X160655000Y-98856800D02*
X162001200Y-98856800D01*
X158394400Y-98882200D02*
X159689800Y-98882200D01*
X160655000Y-98882200D02*
X162026600Y-98882200D01*
X158369000Y-98907600D02*
X159689800Y-98907600D01*
X160680400Y-98907600D02*
X162026600Y-98907600D01*
X158369000Y-98933000D02*
X159689800Y-98933000D01*
X160680400Y-98933000D02*
X162052000Y-98933000D01*
X158343600Y-98958400D02*
X159664400Y-98958400D01*
X160705800Y-98958400D02*
X162052000Y-98958400D01*
X158318200Y-98983800D02*
X159664400Y-98983800D01*
X160705800Y-98983800D02*
X162052000Y-98983800D01*
X158318200Y-99009200D02*
X159664400Y-99009200D01*
X160705800Y-99009200D02*
X162026600Y-99009200D01*
X158318200Y-99034600D02*
X159639000Y-99034600D01*
X160731200Y-99034600D02*
X162001200Y-99034600D01*
X158318200Y-99060000D02*
X159639000Y-99060000D01*
X160731200Y-99060000D02*
X161975800Y-99060000D01*
X158343600Y-99085400D02*
X159639000Y-99085400D01*
X160731200Y-99085400D02*
X161950400Y-99085400D01*
X158369000Y-99110800D02*
X159613600Y-99110800D01*
X160756600Y-99110800D02*
X161950400Y-99110800D01*
X158394400Y-99136200D02*
X159613600Y-99136200D01*
X160756600Y-99136200D02*
X161112200Y-99136200D01*
X161163000Y-99136200D02*
X161925000Y-99136200D01*
X158419800Y-99161600D02*
X159613600Y-99161600D01*
X160782000Y-99161600D02*
X161036000Y-99161600D01*
X161239200Y-99161600D02*
X161899600Y-99161600D01*
X158445200Y-99187000D02*
X159207200Y-99187000D01*
X159334200Y-99187000D02*
X159588200Y-99187000D01*
X160782000Y-99187000D02*
X160985200Y-99187000D01*
X161264600Y-99187000D02*
X161874200Y-99187000D01*
X158470600Y-99212400D02*
X159156400Y-99212400D01*
X159410400Y-99212400D02*
X159588200Y-99212400D01*
X160782000Y-99212400D02*
X160934400Y-99212400D01*
X161290000Y-99212400D02*
X161848800Y-99212400D01*
X158496000Y-99237800D02*
X159105600Y-99237800D01*
X159461200Y-99237800D02*
X159562800Y-99237800D01*
X160807400Y-99237800D02*
X160883600Y-99237800D01*
X161315400Y-99237800D02*
X161874200Y-99237800D01*
X158521400Y-99263200D02*
X159080200Y-99263200D01*
X159512000Y-99263200D02*
X159562800Y-99263200D01*
X160807400Y-99263200D02*
X160832800Y-99263200D01*
X161315400Y-99263200D02*
X161874200Y-99263200D01*
X158546800Y-99288600D02*
X159029400Y-99288600D01*
X161366200Y-99288600D02*
X161874200Y-99288600D01*
X158572200Y-99314000D02*
X159004000Y-99314000D01*
X161391600Y-99314000D02*
X161874200Y-99314000D01*
X158572200Y-99339400D02*
X158953200Y-99339400D01*
X161417000Y-99339400D02*
X161874200Y-99339400D01*
X158572200Y-99364800D02*
X158927800Y-99364800D01*
X161467800Y-99364800D02*
X161874200Y-99364800D01*
X158572200Y-99390200D02*
X158902400Y-99390200D01*
X161518600Y-99390200D02*
X161848800Y-99390200D01*
X158597600Y-99415600D02*
X158877000Y-99415600D01*
X161569400Y-99415600D02*
X161848800Y-99415600D01*
X158597600Y-99441000D02*
X158851600Y-99441000D01*
X161594800Y-99441000D02*
X161823400Y-99441000D01*
X158623000Y-99466400D02*
X158851600Y-99466400D01*
X161620200Y-99466400D02*
X161823400Y-99466400D01*
X158648400Y-99491800D02*
X158826200Y-99491800D01*
X161645600Y-99491800D02*
X161798000Y-99491800D01*
X158673800Y-99517200D02*
X158826200Y-99517200D01*
X161671000Y-99517200D02*
X161772600Y-99517200D01*
X158699200Y-99542600D02*
X158800800Y-99542600D01*
X161696400Y-99542600D02*
X161747200Y-99542600D01*
X158724600Y-99568000D02*
X158800800Y-99568000D01*
X162295840Y-112351820D02*
X163946840Y-112351820D01*
X162270440Y-112377220D02*
X163946840Y-112377220D01*
X162245040Y-112402620D02*
X163946840Y-112402620D01*
X162219640Y-112428020D02*
X163946840Y-112428020D01*
X162194240Y-112453420D02*
X163946840Y-112453420D01*
X162168840Y-112478820D02*
X163946840Y-112478820D01*
X162143440Y-112504220D02*
X163946840Y-112504220D01*
X165674040Y-112504220D02*
X165699440Y-112504220D01*
X162118040Y-112529620D02*
X162422840Y-112529620D01*
X165648640Y-112529620D02*
X165724840Y-112529620D01*
X162092640Y-112555020D02*
X162397440Y-112555020D01*
X165648640Y-112555020D02*
X165724840Y-112555020D01*
X162067240Y-112580420D02*
X162372040Y-112580420D01*
X165623240Y-112580420D02*
X165750240Y-112580420D01*
X162041840Y-112605820D02*
X162346640Y-112605820D01*
X162422840Y-112605820D02*
X164099240Y-112605820D01*
X165623240Y-112605820D02*
X165750240Y-112605820D01*
X162016440Y-112631220D02*
X162321240Y-112631220D01*
X162397440Y-112631220D02*
X164099240Y-112631220D01*
X165597840Y-112631220D02*
X165775640Y-112631220D01*
X161991040Y-112656620D02*
X162295840Y-112656620D01*
X162372040Y-112656620D02*
X164048440Y-112656620D01*
X164073840Y-112656620D02*
X164099240Y-112656620D01*
X165597840Y-112656620D02*
X165775640Y-112656620D01*
X161965640Y-112682020D02*
X162270440Y-112682020D01*
X162346640Y-112682020D02*
X164023040Y-112682020D01*
X164073840Y-112682020D02*
X164099240Y-112682020D01*
X165572440Y-112682020D02*
X165801040Y-112682020D01*
X161940240Y-112707420D02*
X162245040Y-112707420D01*
X162321240Y-112707420D02*
X163997640Y-112707420D01*
X164073840Y-112707420D02*
X164099240Y-112707420D01*
X165572440Y-112707420D02*
X165801040Y-112707420D01*
X161914840Y-112732820D02*
X162219640Y-112732820D01*
X162295840Y-112732820D02*
X163972240Y-112732820D01*
X164073840Y-112732820D02*
X164099240Y-112732820D01*
X165547040Y-112732820D02*
X165826440Y-112732820D01*
X161889440Y-112758220D02*
X162194240Y-112758220D01*
X162270440Y-112758220D02*
X163946840Y-112758220D01*
X164073840Y-112758220D02*
X164099240Y-112758220D01*
X165547040Y-112758220D02*
X165826440Y-112758220D01*
X161864040Y-112783620D02*
X162168840Y-112783620D01*
X162245040Y-112783620D02*
X163921440Y-112783620D01*
X164073840Y-112783620D02*
X164099240Y-112783620D01*
X165521640Y-112783620D02*
X165851840Y-112783620D01*
X161838640Y-112809020D02*
X162143440Y-112809020D01*
X162219640Y-112809020D02*
X163896040Y-112809020D01*
X164073840Y-112809020D02*
X164099240Y-112809020D01*
X165521640Y-112809020D02*
X165851840Y-112809020D01*
X161813240Y-112834420D02*
X162118040Y-112834420D01*
X162194240Y-112834420D02*
X163870640Y-112834420D01*
X164023040Y-112834420D02*
X164099240Y-112834420D01*
X165496240Y-112834420D02*
X165877240Y-112834420D01*
X161787840Y-112859820D02*
X162092640Y-112859820D01*
X162168840Y-112859820D02*
X163845240Y-112859820D01*
X164023040Y-112859820D02*
X164099240Y-112859820D01*
X165496240Y-112859820D02*
X165877240Y-112859820D01*
X161787840Y-112885220D02*
X162092640Y-112885220D01*
X162143440Y-112885220D02*
X163819840Y-112885220D01*
X163972240Y-112885220D02*
X164099240Y-112885220D01*
X165470840Y-112885220D02*
X165902640Y-112885220D01*
X161787840Y-112910620D02*
X162067240Y-112910620D01*
X162118040Y-112910620D02*
X163794440Y-112910620D01*
X163946840Y-112910620D02*
X164099240Y-112910620D01*
X165470840Y-112910620D02*
X165902640Y-112910620D01*
X168061640Y-112910620D02*
X168315640Y-112910620D01*
X168493440Y-112910620D02*
X168747440Y-112910620D01*
X169763440Y-112910620D02*
X170042840Y-112910620D01*
X171058840Y-112910620D02*
X171516040Y-112910620D01*
X172074840Y-112910620D02*
X172328840Y-112910620D01*
X172862240Y-112910620D02*
X173217840Y-112910620D01*
X161787840Y-112936020D02*
X162016440Y-112936020D01*
X162092640Y-112936020D02*
X163769040Y-112936020D01*
X163921440Y-112936020D02*
X164099240Y-112936020D01*
X165445440Y-112936020D02*
X165928040Y-112936020D01*
X166994840Y-112936020D02*
X167426640Y-112936020D01*
X168061640Y-112936020D02*
X168315640Y-112936020D01*
X168493440Y-112936020D02*
X168747440Y-112936020D01*
X169738040Y-112936020D02*
X170042840Y-112936020D01*
X170982640Y-112936020D02*
X171617640Y-112936020D01*
X172074840Y-112936020D02*
X172328840Y-112936020D01*
X172836840Y-112936020D02*
X173192440Y-112936020D01*
X161787840Y-112961420D02*
X162016440Y-112961420D01*
X162067240Y-112961420D02*
X163743640Y-112961420D01*
X163896040Y-112961420D02*
X164099240Y-112961420D01*
X165445440Y-112961420D02*
X165928040Y-112961420D01*
X166893240Y-112961420D02*
X167502840Y-112961420D01*
X168061640Y-112961420D02*
X168315640Y-112961420D01*
X168493440Y-112961420D02*
X168747440Y-112961420D01*
X169738040Y-112961420D02*
X170068240Y-112961420D01*
X170931840Y-112961420D02*
X171668440Y-112961420D01*
X172074840Y-112961420D02*
X172328840Y-112961420D01*
X172811440Y-112961420D02*
X173167040Y-112961420D01*
X161787840Y-112986820D02*
X161991040Y-112986820D01*
X162041840Y-112986820D02*
X163718240Y-112986820D01*
X163870640Y-112986820D02*
X164099240Y-112986820D01*
X165420040Y-112986820D02*
X165953440Y-112986820D01*
X166842440Y-112986820D02*
X167579040Y-112986820D01*
X168061640Y-112986820D02*
X168315640Y-112986820D01*
X168493440Y-112986820D02*
X168747440Y-112986820D01*
X169738040Y-112986820D02*
X170068240Y-112986820D01*
X170881040Y-112986820D02*
X171719240Y-112986820D01*
X172074840Y-112986820D02*
X172328840Y-112986820D01*
X172786040Y-112986820D02*
X173141640Y-112986820D01*
X161787840Y-113012220D02*
X161965640Y-113012220D01*
X162041840Y-113012220D02*
X163692840Y-113012220D01*
X163845240Y-113012220D02*
X164048440Y-113012220D01*
X164073840Y-113012220D02*
X164099240Y-113012220D01*
X165420040Y-113012220D02*
X165953440Y-113012220D01*
X166791640Y-113012220D02*
X167629840Y-113012220D01*
X168061640Y-113012220D02*
X168315640Y-113012220D01*
X168493440Y-113012220D02*
X168747440Y-113012220D01*
X169712640Y-113012220D02*
X170068240Y-113012220D01*
X170830240Y-113012220D02*
X171719240Y-113012220D01*
X172074840Y-113012220D02*
X172328840Y-113012220D01*
X172760640Y-113012220D02*
X173116240Y-113012220D01*
X161787840Y-113037620D02*
X161965640Y-113037620D01*
X162041840Y-113037620D02*
X163667440Y-113037620D01*
X163819840Y-113037620D02*
X164023040Y-113037620D01*
X164073840Y-113037620D02*
X164099240Y-113037620D01*
X165394640Y-113037620D02*
X165978840Y-113037620D01*
X166766240Y-113037620D02*
X167680640Y-113037620D01*
X168061640Y-113037620D02*
X168315640Y-113037620D01*
X168493440Y-113037620D02*
X168747440Y-113037620D01*
X169712640Y-113037620D02*
X170093640Y-113037620D01*
X170804840Y-113037620D02*
X171719240Y-113037620D01*
X172074840Y-113037620D02*
X172328840Y-113037620D01*
X172735240Y-113037620D02*
X173090840Y-113037620D01*
X161787840Y-113063020D02*
X161965640Y-113063020D01*
X162041840Y-113063020D02*
X163642040Y-113063020D01*
X163794440Y-113063020D02*
X163997640Y-113063020D01*
X164073840Y-113063020D02*
X164099240Y-113063020D01*
X165394640Y-113063020D02*
X165978840Y-113063020D01*
X166715440Y-113063020D02*
X167706040Y-113063020D01*
X168061640Y-113063020D02*
X168315640Y-113063020D01*
X168493440Y-113063020D02*
X168747440Y-113063020D01*
X169712640Y-113063020D02*
X170093640Y-113063020D01*
X170754040Y-113063020D02*
X171693840Y-113063020D01*
X172074840Y-113063020D02*
X172328840Y-113063020D01*
X172709840Y-113063020D02*
X173065440Y-113063020D01*
X161787840Y-113088420D02*
X161965640Y-113088420D01*
X162041840Y-113088420D02*
X163616640Y-113088420D01*
X163769040Y-113088420D02*
X163972240Y-113088420D01*
X164073840Y-113088420D02*
X164099240Y-113088420D01*
X165369240Y-113088420D02*
X166004240Y-113088420D01*
X166690040Y-113088420D02*
X167706040Y-113088420D01*
X168061640Y-113088420D02*
X168315640Y-113088420D01*
X168493440Y-113088420D02*
X168747440Y-113088420D01*
X169687240Y-113088420D02*
X170119040Y-113088420D01*
X170728640Y-113088420D02*
X171693840Y-113088420D01*
X172074840Y-113088420D02*
X172328840Y-113088420D01*
X172709840Y-113088420D02*
X173040040Y-113088420D01*
X161787840Y-113113820D02*
X161965640Y-113113820D01*
X162041840Y-113113820D02*
X163591240Y-113113820D01*
X163743640Y-113113820D02*
X163946840Y-113113820D01*
X164073840Y-113113820D02*
X164099240Y-113113820D01*
X165369240Y-113113820D02*
X166004240Y-113113820D01*
X166664640Y-113113820D02*
X167706040Y-113113820D01*
X168061640Y-113113820D02*
X168315640Y-113113820D01*
X168493440Y-113113820D02*
X168747440Y-113113820D01*
X169687240Y-113113820D02*
X170119040Y-113113820D01*
X170703240Y-113113820D02*
X171668440Y-113113820D01*
X172074840Y-113113820D02*
X172328840Y-113113820D01*
X172684440Y-113113820D02*
X173014640Y-113113820D01*
X161787840Y-113139220D02*
X161965640Y-113139220D01*
X162041840Y-113139220D02*
X163565840Y-113139220D01*
X163718240Y-113139220D02*
X163921440Y-113139220D01*
X164048440Y-113139220D02*
X164099240Y-113139220D01*
X165343840Y-113139220D02*
X166029640Y-113139220D01*
X166639240Y-113139220D02*
X167680640Y-113139220D01*
X168061640Y-113139220D02*
X168315640Y-113139220D01*
X168493440Y-113139220D02*
X168747440Y-113139220D01*
X169687240Y-113139220D02*
X170119040Y-113139220D01*
X170703240Y-113139220D02*
X171668440Y-113139220D01*
X172074840Y-113139220D02*
X172328840Y-113139220D01*
X172659040Y-113139220D02*
X172989240Y-113139220D01*
X161787840Y-113164620D02*
X161965640Y-113164620D01*
X162041840Y-113164620D02*
X163540440Y-113164620D01*
X163692840Y-113164620D02*
X163896040Y-113164620D01*
X164023040Y-113164620D02*
X164099240Y-113164620D01*
X165343840Y-113164620D02*
X166029640Y-113164620D01*
X166613840Y-113164620D02*
X167655240Y-113164620D01*
X168061640Y-113164620D02*
X168315640Y-113164620D01*
X168493440Y-113164620D02*
X168747440Y-113164620D01*
X169661840Y-113164620D02*
X170144440Y-113164620D01*
X170677840Y-113164620D02*
X171135040Y-113164620D01*
X171490640Y-113164620D02*
X171668440Y-113164620D01*
X172074840Y-113164620D02*
X172328840Y-113164620D01*
X172633640Y-113164620D02*
X172963840Y-113164620D01*
X161787840Y-113190020D02*
X161965640Y-113190020D01*
X162041840Y-113190020D02*
X163515040Y-113190020D01*
X163667440Y-113190020D02*
X163870640Y-113190020D01*
X163997640Y-113190020D02*
X164099240Y-113190020D01*
X165318440Y-113190020D02*
X165674040Y-113190020D01*
X165699440Y-113190020D02*
X166055040Y-113190020D01*
X166613840Y-113190020D02*
X167071040Y-113190020D01*
X167375840Y-113190020D02*
X167655240Y-113190020D01*
X168061640Y-113190020D02*
X168315640Y-113190020D01*
X168493440Y-113190020D02*
X168747440Y-113190020D01*
X169661840Y-113190020D02*
X170144440Y-113190020D01*
X170652440Y-113190020D02*
X171084240Y-113190020D01*
X171566840Y-113190020D02*
X171643040Y-113190020D01*
X172074840Y-113190020D02*
X172328840Y-113190020D01*
X172608240Y-113190020D02*
X172938440Y-113190020D01*
X161787840Y-113215420D02*
X161965640Y-113215420D01*
X162041840Y-113215420D02*
X162956240Y-113215420D01*
X163159440Y-113215420D02*
X163489640Y-113215420D01*
X163642040Y-113215420D02*
X163845240Y-113215420D01*
X163972240Y-113215420D02*
X164099240Y-113215420D01*
X165318440Y-113215420D02*
X165674040Y-113215420D01*
X165699440Y-113215420D02*
X166055040Y-113215420D01*
X166588440Y-113215420D02*
X166994840Y-113215420D01*
X167477440Y-113215420D02*
X167629840Y-113215420D01*
X168061640Y-113215420D02*
X168315640Y-113215420D01*
X168493440Y-113215420D02*
X168747440Y-113215420D01*
X169636440Y-113215420D02*
X170144440Y-113215420D01*
X170627040Y-113215420D02*
X171033440Y-113215420D01*
X172074840Y-113215420D02*
X172328840Y-113215420D01*
X172582840Y-113215420D02*
X172938440Y-113215420D01*
X161787840Y-113240820D02*
X161965640Y-113240820D01*
X162041840Y-113240820D02*
X162880040Y-113240820D01*
X163235640Y-113240820D02*
X163464240Y-113240820D01*
X163616640Y-113240820D02*
X163819840Y-113240820D01*
X163946840Y-113240820D02*
X164099240Y-113240820D01*
X165293040Y-113240820D02*
X165648640Y-113240820D01*
X165724840Y-113240820D02*
X166080440Y-113240820D01*
X166563040Y-113240820D02*
X166969440Y-113240820D01*
X167528240Y-113240820D02*
X167629840Y-113240820D01*
X168061640Y-113240820D02*
X168315640Y-113240820D01*
X168493440Y-113240820D02*
X168747440Y-113240820D01*
X169636440Y-113240820D02*
X170169840Y-113240820D01*
X170627040Y-113240820D02*
X170982640Y-113240820D01*
X172074840Y-113240820D02*
X172328840Y-113240820D01*
X172557440Y-113240820D02*
X172913040Y-113240820D01*
X161787840Y-113266220D02*
X161965640Y-113266220D01*
X162041840Y-113266220D02*
X162854640Y-113266220D01*
X163286440Y-113266220D02*
X163438840Y-113266220D01*
X163591240Y-113266220D02*
X163794440Y-113266220D01*
X163921440Y-113266220D02*
X164099240Y-113266220D01*
X165293040Y-113266220D02*
X165648640Y-113266220D01*
X165724840Y-113266220D02*
X166080440Y-113266220D01*
X166563040Y-113266220D02*
X166918640Y-113266220D01*
X167579040Y-113266220D02*
X167604440Y-113266220D01*
X168061640Y-113266220D02*
X168315640Y-113266220D01*
X168493440Y-113266220D02*
X168747440Y-113266220D01*
X169636440Y-113266220D02*
X169890440Y-113266220D01*
X169915840Y-113266220D02*
X170169840Y-113266220D01*
X170601640Y-113266220D02*
X170957240Y-113266220D01*
X172074840Y-113266220D02*
X172328840Y-113266220D01*
X172532040Y-113266220D02*
X172887640Y-113266220D01*
X161787840Y-113291620D02*
X161965640Y-113291620D01*
X162041840Y-113291620D02*
X162803840Y-113291620D01*
X163311840Y-113291620D02*
X163413440Y-113291620D01*
X163565840Y-113291620D02*
X163769040Y-113291620D01*
X163896040Y-113291620D02*
X164099240Y-113291620D01*
X165267640Y-113291620D02*
X165623240Y-113291620D01*
X165750240Y-113291620D02*
X166105840Y-113291620D01*
X166537640Y-113291620D02*
X166893240Y-113291620D01*
X168061640Y-113291620D02*
X168315640Y-113291620D01*
X168493440Y-113291620D02*
X168747440Y-113291620D01*
X169611040Y-113291620D02*
X169865040Y-113291620D01*
X169915840Y-113291620D02*
X170195240Y-113291620D01*
X170601640Y-113291620D02*
X170931840Y-113291620D01*
X172074840Y-113291620D02*
X172328840Y-113291620D01*
X172532040Y-113291620D02*
X172862240Y-113291620D01*
X161787840Y-113317020D02*
X161965640Y-113317020D01*
X162041840Y-113317020D02*
X162778440Y-113317020D01*
X163337240Y-113317020D02*
X163388040Y-113317020D01*
X163540440Y-113317020D02*
X163743640Y-113317020D01*
X163870640Y-113317020D02*
X164099240Y-113317020D01*
X165267640Y-113317020D02*
X165623240Y-113317020D01*
X165750240Y-113317020D02*
X166105840Y-113317020D01*
X166537640Y-113317020D02*
X166867840Y-113317020D01*
X168061640Y-113317020D02*
X168315640Y-113317020D01*
X168493440Y-113317020D02*
X168747440Y-113317020D01*
X169611040Y-113317020D02*
X169865040Y-113317020D01*
X169915840Y-113317020D02*
X170195240Y-113317020D01*
X170576240Y-113317020D02*
X170906440Y-113317020D01*
X172074840Y-113317020D02*
X172328840Y-113317020D01*
X172506640Y-113317020D02*
X172836840Y-113317020D01*
X161787840Y-113342420D02*
X161965640Y-113342420D01*
X162041840Y-113342420D02*
X162753040Y-113342420D01*
X162981640Y-113342420D02*
X163159440Y-113342420D01*
X163362640Y-113342420D02*
X163388040Y-113342420D01*
X163515040Y-113342420D02*
X163718240Y-113342420D01*
X163845240Y-113342420D02*
X164099240Y-113342420D01*
X165242240Y-113342420D02*
X165623240Y-113342420D01*
X165775640Y-113342420D02*
X166131240Y-113342420D01*
X166512240Y-113342420D02*
X166842440Y-113342420D01*
X168061640Y-113342420D02*
X168315640Y-113342420D01*
X168493440Y-113342420D02*
X168747440Y-113342420D01*
X169611040Y-113342420D02*
X169865040Y-113342420D01*
X169941240Y-113342420D02*
X170195240Y-113342420D01*
X170576240Y-113342420D02*
X170906440Y-113342420D01*
X172074840Y-113342420D02*
X172328840Y-113342420D01*
X172481240Y-113342420D02*
X172811440Y-113342420D01*
X161787840Y-113367820D02*
X161965640Y-113367820D01*
X162041840Y-113367820D02*
X162727640Y-113367820D01*
X162930840Y-113367820D02*
X163210240Y-113367820D01*
X163489640Y-113367820D02*
X163692840Y-113367820D01*
X163819840Y-113367820D02*
X164099240Y-113367820D01*
X165242240Y-113367820D02*
X165597840Y-113367820D01*
X165775640Y-113367820D02*
X166131240Y-113367820D01*
X166512240Y-113367820D02*
X166817040Y-113367820D01*
X168061640Y-113367820D02*
X168315640Y-113367820D01*
X168493440Y-113367820D02*
X168747440Y-113367820D01*
X169585640Y-113367820D02*
X169839640Y-113367820D01*
X169941240Y-113367820D02*
X170220640Y-113367820D01*
X170576240Y-113367820D02*
X170881040Y-113367820D01*
X172074840Y-113367820D02*
X172328840Y-113367820D01*
X172455840Y-113367820D02*
X172786040Y-113367820D01*
X161787840Y-113393220D02*
X161965640Y-113393220D01*
X162041840Y-113393220D02*
X162702240Y-113393220D01*
X162905440Y-113393220D02*
X163235640Y-113393220D01*
X163464240Y-113393220D02*
X163667440Y-113393220D01*
X163794440Y-113393220D02*
X164099240Y-113393220D01*
X165216840Y-113393220D02*
X165597840Y-113393220D01*
X165801040Y-113393220D02*
X166156640Y-113393220D01*
X166512240Y-113393220D02*
X166817040Y-113393220D01*
X168061640Y-113393220D02*
X168315640Y-113393220D01*
X168493440Y-113393220D02*
X168747440Y-113393220D01*
X169585640Y-113393220D02*
X169839640Y-113393220D01*
X169941240Y-113393220D02*
X170220640Y-113393220D01*
X170576240Y-113393220D02*
X170881040Y-113393220D01*
X172074840Y-113393220D02*
X172328840Y-113393220D01*
X172430440Y-113393220D02*
X172760640Y-113393220D01*
X161787840Y-113418620D02*
X161965640Y-113418620D01*
X162041840Y-113418620D02*
X162676840Y-113418620D01*
X162880040Y-113418620D02*
X163261040Y-113418620D01*
X163464240Y-113418620D02*
X163642040Y-113418620D01*
X163769040Y-113418620D02*
X164099240Y-113418620D01*
X165216840Y-113418620D02*
X165572440Y-113418620D01*
X165801040Y-113418620D02*
X166182040Y-113418620D01*
X166512240Y-113418620D02*
X166791640Y-113418620D01*
X168061640Y-113418620D02*
X168315640Y-113418620D01*
X168493440Y-113418620D02*
X168747440Y-113418620D01*
X169560240Y-113418620D02*
X169839640Y-113418620D01*
X169966640Y-113418620D02*
X170220640Y-113418620D01*
X170550840Y-113418620D02*
X170855640Y-113418620D01*
X172074840Y-113418620D02*
X172328840Y-113418620D01*
X172405040Y-113418620D02*
X172735240Y-113418620D01*
X161787840Y-113444020D02*
X161965640Y-113444020D01*
X162041840Y-113444020D02*
X162651440Y-113444020D01*
X162854640Y-113444020D02*
X163286440Y-113444020D01*
X163464240Y-113444020D02*
X163616640Y-113444020D01*
X163743640Y-113444020D02*
X164099240Y-113444020D01*
X165191440Y-113444020D02*
X165572440Y-113444020D01*
X165826440Y-113444020D02*
X166182040Y-113444020D01*
X166486840Y-113444020D02*
X166791640Y-113444020D01*
X168061640Y-113444020D02*
X168315640Y-113444020D01*
X168493440Y-113444020D02*
X168747440Y-113444020D01*
X169560240Y-113444020D02*
X169814240Y-113444020D01*
X169966640Y-113444020D02*
X170246040Y-113444020D01*
X170550840Y-113444020D02*
X170855640Y-113444020D01*
X172074840Y-113444020D02*
X172328840Y-113444020D01*
X172379640Y-113444020D02*
X172709840Y-113444020D01*
X161787840Y-113469420D02*
X161965640Y-113469420D01*
X162041840Y-113469420D02*
X162626040Y-113469420D01*
X162854640Y-113469420D02*
X163286440Y-113469420D01*
X163464240Y-113469420D02*
X163565840Y-113469420D01*
X163718240Y-113469420D02*
X164099240Y-113469420D01*
X165191440Y-113469420D02*
X165547040Y-113469420D01*
X165826440Y-113469420D02*
X166207440Y-113469420D01*
X166486840Y-113469420D02*
X166791640Y-113469420D01*
X168061640Y-113469420D02*
X168315640Y-113469420D01*
X168493440Y-113469420D02*
X168747440Y-113469420D01*
X169560240Y-113469420D02*
X169814240Y-113469420D01*
X169966640Y-113469420D02*
X170246040Y-113469420D01*
X170550840Y-113469420D02*
X170830240Y-113469420D01*
X172074840Y-113469420D02*
X172328840Y-113469420D01*
X172354240Y-113469420D02*
X172684440Y-113469420D01*
X161787840Y-113494820D02*
X161965640Y-113494820D01*
X162041840Y-113494820D02*
X162600640Y-113494820D01*
X162829240Y-113494820D02*
X163286440Y-113494820D01*
X163464240Y-113494820D02*
X163540440Y-113494820D01*
X163692840Y-113494820D02*
X164099240Y-113494820D01*
X165166040Y-113494820D02*
X165547040Y-113494820D01*
X165851840Y-113494820D02*
X166207440Y-113494820D01*
X166486840Y-113494820D02*
X166766240Y-113494820D01*
X168061640Y-113494820D02*
X168315640Y-113494820D01*
X168493440Y-113494820D02*
X168747440Y-113494820D01*
X169534840Y-113494820D02*
X169814240Y-113494820D01*
X169992040Y-113494820D02*
X170246040Y-113494820D01*
X170550840Y-113494820D02*
X170830240Y-113494820D01*
X172074840Y-113494820D02*
X172328840Y-113494820D01*
X172354240Y-113494820D02*
X172659040Y-113494820D01*
X161787840Y-113520220D02*
X161965640Y-113520220D01*
X162041840Y-113520220D02*
X162575240Y-113520220D01*
X162829240Y-113520220D02*
X163311840Y-113520220D01*
X163464240Y-113520220D02*
X163515040Y-113520220D01*
X163667440Y-113520220D02*
X164099240Y-113520220D01*
X165166040Y-113520220D02*
X165521640Y-113520220D01*
X165851840Y-113520220D02*
X166232840Y-113520220D01*
X166486840Y-113520220D02*
X166766240Y-113520220D01*
X168061640Y-113520220D02*
X168315640Y-113520220D01*
X168493440Y-113520220D02*
X168747440Y-113520220D01*
X169534840Y-113520220D02*
X169788840Y-113520220D01*
X169992040Y-113520220D02*
X170271440Y-113520220D01*
X170550840Y-113520220D02*
X170830240Y-113520220D01*
X172074840Y-113520220D02*
X172633640Y-113520220D01*
X161787840Y-113545620D02*
X161965640Y-113545620D01*
X162041840Y-113545620D02*
X162549840Y-113545620D01*
X162829240Y-113545620D02*
X163311840Y-113545620D01*
X163464240Y-113545620D02*
X163489640Y-113545620D01*
X163642040Y-113545620D02*
X164099240Y-113545620D01*
X165140640Y-113545620D02*
X165521640Y-113545620D01*
X165877240Y-113545620D02*
X166232840Y-113545620D01*
X166486840Y-113545620D02*
X166766240Y-113545620D01*
X167121840Y-113545620D02*
X167756840Y-113545620D01*
X168061640Y-113545620D02*
X168315640Y-113545620D01*
X168493440Y-113545620D02*
X168747440Y-113545620D01*
X169534840Y-113545620D02*
X169788840Y-113545620D01*
X169992040Y-113545620D02*
X170271440Y-113545620D01*
X170550840Y-113545620D02*
X170830240Y-113545620D01*
X172074840Y-113545620D02*
X172608240Y-113545620D01*
X161787840Y-113571020D02*
X161965640Y-113571020D01*
X162041840Y-113571020D02*
X162524440Y-113571020D01*
X162829240Y-113571020D02*
X163311840Y-113571020D01*
X163616640Y-113571020D02*
X164099240Y-113571020D01*
X165140640Y-113571020D02*
X165496240Y-113571020D01*
X165877240Y-113571020D02*
X166258240Y-113571020D01*
X166486840Y-113571020D02*
X166766240Y-113571020D01*
X167121840Y-113571020D02*
X167756840Y-113571020D01*
X168061640Y-113571020D02*
X168315640Y-113571020D01*
X168493440Y-113571020D02*
X168747440Y-113571020D01*
X169509440Y-113571020D02*
X169788840Y-113571020D01*
X170017440Y-113571020D02*
X170296840Y-113571020D01*
X170550840Y-113571020D02*
X170830240Y-113571020D01*
X172074840Y-113571020D02*
X172608240Y-113571020D01*
X161787840Y-113596420D02*
X161965640Y-113596420D01*
X162041840Y-113596420D02*
X162499040Y-113596420D01*
X162829240Y-113596420D02*
X163311840Y-113596420D01*
X163591240Y-113596420D02*
X164099240Y-113596420D01*
X165115240Y-113596420D02*
X165496240Y-113596420D01*
X165902640Y-113596420D02*
X166258240Y-113596420D01*
X166486840Y-113596420D02*
X166766240Y-113596420D01*
X167121840Y-113596420D02*
X167756840Y-113596420D01*
X168061640Y-113596420D02*
X168315640Y-113596420D01*
X168493440Y-113596420D02*
X168747440Y-113596420D01*
X169509440Y-113596420D02*
X169763440Y-113596420D01*
X170017440Y-113596420D02*
X170296840Y-113596420D01*
X170550840Y-113596420D02*
X170830240Y-113596420D01*
X172074840Y-113596420D02*
X172633640Y-113596420D01*
X161787840Y-113621820D02*
X161965640Y-113621820D01*
X162041840Y-113621820D02*
X162473640Y-113621820D01*
X162651440Y-113621820D02*
X162676840Y-113621820D01*
X162829240Y-113621820D02*
X163311840Y-113621820D01*
X163565840Y-113621820D02*
X164099240Y-113621820D01*
X165115240Y-113621820D02*
X165470840Y-113621820D01*
X165902640Y-113621820D02*
X166283640Y-113621820D01*
X166486840Y-113621820D02*
X166766240Y-113621820D01*
X167121840Y-113621820D02*
X167756840Y-113621820D01*
X168061640Y-113621820D02*
X168315640Y-113621820D01*
X168493440Y-113621820D02*
X168747440Y-113621820D01*
X169509440Y-113621820D02*
X169763440Y-113621820D01*
X170017440Y-113621820D02*
X170296840Y-113621820D01*
X170550840Y-113621820D02*
X170830240Y-113621820D01*
X172074840Y-113621820D02*
X172659040Y-113621820D01*
X161787840Y-113647220D02*
X161965640Y-113647220D01*
X162041840Y-113647220D02*
X162448240Y-113647220D01*
X162626040Y-113647220D02*
X162676840Y-113647220D01*
X162829240Y-113647220D02*
X163311840Y-113647220D01*
X163540440Y-113647220D02*
X164099240Y-113647220D01*
X165089840Y-113647220D02*
X165470840Y-113647220D01*
X165928040Y-113647220D02*
X166283640Y-113647220D01*
X166486840Y-113647220D02*
X166766240Y-113647220D01*
X167121840Y-113647220D02*
X167756840Y-113647220D01*
X168061640Y-113647220D02*
X168315640Y-113647220D01*
X168493440Y-113647220D02*
X168747440Y-113647220D01*
X169484040Y-113647220D02*
X169763440Y-113647220D01*
X170042840Y-113647220D02*
X170322240Y-113647220D01*
X170550840Y-113647220D02*
X170830240Y-113647220D01*
X172074840Y-113647220D02*
X172684440Y-113647220D01*
X161787840Y-113672620D02*
X161965640Y-113672620D01*
X162041840Y-113672620D02*
X162422840Y-113672620D01*
X162600640Y-113672620D02*
X162676840Y-113672620D01*
X162829240Y-113672620D02*
X163311840Y-113672620D01*
X163515040Y-113672620D02*
X164099240Y-113672620D01*
X165089840Y-113672620D02*
X165470840Y-113672620D01*
X165928040Y-113672620D02*
X166309040Y-113672620D01*
X166486840Y-113672620D02*
X166766240Y-113672620D01*
X167121840Y-113672620D02*
X167756840Y-113672620D01*
X168061640Y-113672620D02*
X168315640Y-113672620D01*
X168493440Y-113672620D02*
X168747440Y-113672620D01*
X169484040Y-113672620D02*
X169738040Y-113672620D01*
X170042840Y-113672620D02*
X170322240Y-113672620D01*
X170550840Y-113672620D02*
X170830240Y-113672620D01*
X172074840Y-113672620D02*
X172328840Y-113672620D01*
X172354240Y-113672620D02*
X172684440Y-113672620D01*
X161787840Y-113698020D02*
X161965640Y-113698020D01*
X162041840Y-113698020D02*
X162397440Y-113698020D01*
X162575240Y-113698020D02*
X162676840Y-113698020D01*
X162829240Y-113698020D02*
X163286440Y-113698020D01*
X163489640Y-113698020D02*
X164099240Y-113698020D01*
X165064440Y-113698020D02*
X165445440Y-113698020D01*
X165953440Y-113698020D02*
X166309040Y-113698020D01*
X166486840Y-113698020D02*
X166766240Y-113698020D01*
X167121840Y-113698020D02*
X167756840Y-113698020D01*
X168061640Y-113698020D02*
X168315640Y-113698020D01*
X168493440Y-113698020D02*
X168747440Y-113698020D01*
X169458640Y-113698020D02*
X169738040Y-113698020D01*
X170042840Y-113698020D02*
X170322240Y-113698020D01*
X170550840Y-113698020D02*
X170830240Y-113698020D01*
X172074840Y-113698020D02*
X172328840Y-113698020D01*
X172379640Y-113698020D02*
X172709840Y-113698020D01*
X161787840Y-113723420D02*
X161965640Y-113723420D01*
X162041840Y-113723420D02*
X162372040Y-113723420D01*
X162549840Y-113723420D02*
X162676840Y-113723420D01*
X162854640Y-113723420D02*
X163286440Y-113723420D01*
X163464240Y-113723420D02*
X164099240Y-113723420D01*
X165064440Y-113723420D02*
X165445440Y-113723420D01*
X165953440Y-113723420D02*
X166334440Y-113723420D01*
X166486840Y-113723420D02*
X166766240Y-113723420D01*
X167121840Y-113723420D02*
X167756840Y-113723420D01*
X168061640Y-113723420D02*
X168315640Y-113723420D01*
X168493440Y-113723420D02*
X168747440Y-113723420D01*
X169458640Y-113723420D02*
X170347640Y-113723420D01*
X170550840Y-113723420D02*
X170830240Y-113723420D01*
X172074840Y-113723420D02*
X172328840Y-113723420D01*
X172405040Y-113723420D02*
X172735240Y-113723420D01*
X161787840Y-113748820D02*
X161965640Y-113748820D01*
X162041840Y-113748820D02*
X162346640Y-113748820D01*
X162524440Y-113748820D02*
X162676840Y-113748820D01*
X162854640Y-113748820D02*
X163261040Y-113748820D01*
X163438840Y-113748820D02*
X164099240Y-113748820D01*
X165039040Y-113748820D02*
X165420040Y-113748820D01*
X165978840Y-113748820D02*
X166334440Y-113748820D01*
X166486840Y-113748820D02*
X166766240Y-113748820D01*
X167121840Y-113748820D02*
X167756840Y-113748820D01*
X168061640Y-113748820D02*
X168315640Y-113748820D01*
X168493440Y-113748820D02*
X168747440Y-113748820D01*
X169458640Y-113748820D02*
X170347640Y-113748820D01*
X170550840Y-113748820D02*
X170855640Y-113748820D01*
X172074840Y-113748820D02*
X172328840Y-113748820D01*
X172430440Y-113748820D02*
X172760640Y-113748820D01*
X161787840Y-113774220D02*
X161965640Y-113774220D01*
X162041840Y-113774220D02*
X162321240Y-113774220D01*
X162499040Y-113774220D02*
X162676840Y-113774220D01*
X162880040Y-113774220D02*
X163261040Y-113774220D01*
X163413440Y-113774220D02*
X164099240Y-113774220D01*
X165039040Y-113774220D02*
X165420040Y-113774220D01*
X165978840Y-113774220D02*
X166359840Y-113774220D01*
X166486840Y-113774220D02*
X166791640Y-113774220D01*
X167502840Y-113774220D02*
X167756840Y-113774220D01*
X168061640Y-113774220D02*
X168315640Y-113774220D01*
X168493440Y-113774220D02*
X168747440Y-113774220D01*
X169433240Y-113774220D02*
X170347640Y-113774220D01*
X170550840Y-113774220D02*
X170855640Y-113774220D01*
X172074840Y-113774220D02*
X172328840Y-113774220D01*
X172430440Y-113774220D02*
X172786040Y-113774220D01*
X161787840Y-113799620D02*
X161965640Y-113799620D01*
X162041840Y-113799620D02*
X162295840Y-113799620D01*
X162473640Y-113799620D02*
X162651440Y-113799620D01*
X162905440Y-113799620D02*
X163210240Y-113799620D01*
X163388040Y-113799620D02*
X164099240Y-113799620D01*
X165013640Y-113799620D02*
X165394640Y-113799620D01*
X166004240Y-113799620D02*
X166359840Y-113799620D01*
X166486840Y-113799620D02*
X166791640Y-113799620D01*
X167502840Y-113799620D02*
X167756840Y-113799620D01*
X168061640Y-113799620D02*
X168315640Y-113799620D01*
X168493440Y-113799620D02*
X168747440Y-113799620D01*
X169433240Y-113799620D02*
X170373040Y-113799620D01*
X170550840Y-113799620D02*
X170855640Y-113799620D01*
X172074840Y-113799620D02*
X172328840Y-113799620D01*
X172455840Y-113799620D02*
X172811440Y-113799620D01*
X161787840Y-113825020D02*
X161965640Y-113825020D01*
X162041840Y-113825020D02*
X162270440Y-113825020D01*
X162448240Y-113825020D02*
X162626040Y-113825020D01*
X162956240Y-113825020D02*
X163184840Y-113825020D01*
X163362640Y-113825020D02*
X164099240Y-113825020D01*
X165013640Y-113825020D02*
X165394640Y-113825020D01*
X166004240Y-113825020D02*
X166385240Y-113825020D01*
X166512240Y-113825020D02*
X166791640Y-113825020D01*
X167502840Y-113825020D02*
X167756840Y-113825020D01*
X168061640Y-113825020D02*
X168315640Y-113825020D01*
X168493440Y-113825020D02*
X168747440Y-113825020D01*
X169433240Y-113825020D02*
X170373040Y-113825020D01*
X170576240Y-113825020D02*
X170881040Y-113825020D01*
X172074840Y-113825020D02*
X172328840Y-113825020D01*
X172481240Y-113825020D02*
X172836840Y-113825020D01*
X161787840Y-113850420D02*
X161965640Y-113850420D01*
X162041840Y-113850420D02*
X162270440Y-113850420D01*
X162422840Y-113850420D02*
X162600640Y-113850420D01*
X162753040Y-113850420D02*
X162778440Y-113850420D01*
X163032440Y-113850420D02*
X163083240Y-113850420D01*
X163362640Y-113850420D02*
X164099240Y-113850420D01*
X164988240Y-113850420D02*
X165369240Y-113850420D01*
X166029640Y-113850420D02*
X166385240Y-113850420D01*
X166512240Y-113850420D02*
X166817040Y-113850420D01*
X167502840Y-113850420D02*
X167756840Y-113850420D01*
X168061640Y-113850420D02*
X168315640Y-113850420D01*
X168493440Y-113850420D02*
X168747440Y-113850420D01*
X169407840Y-113850420D02*
X170398440Y-113850420D01*
X170576240Y-113850420D02*
X170881040Y-113850420D01*
X172074840Y-113850420D02*
X172328840Y-113850420D01*
X172506640Y-113850420D02*
X172862240Y-113850420D01*
X161787840Y-113875820D02*
X161965640Y-113875820D01*
X162041840Y-113875820D02*
X162245040Y-113875820D01*
X162397440Y-113875820D02*
X162575240Y-113875820D01*
X162727640Y-113875820D02*
X162803840Y-113875820D01*
X163337240Y-113875820D02*
X164099240Y-113875820D01*
X164988240Y-113875820D02*
X165369240Y-113875820D01*
X166029640Y-113875820D02*
X166410640Y-113875820D01*
X166512240Y-113875820D02*
X166842440Y-113875820D01*
X167502840Y-113875820D02*
X167756840Y-113875820D01*
X168061640Y-113875820D02*
X168315640Y-113875820D01*
X168493440Y-113875820D02*
X168747440Y-113875820D01*
X169407840Y-113875820D02*
X170398440Y-113875820D01*
X170576240Y-113875820D02*
X170906440Y-113875820D01*
X172074840Y-113875820D02*
X172328840Y-113875820D01*
X172532040Y-113875820D02*
X172887640Y-113875820D01*
X161787840Y-113901220D02*
X161965640Y-113901220D01*
X162041840Y-113901220D02*
X162219640Y-113901220D01*
X162372040Y-113901220D02*
X162549840Y-113901220D01*
X162702240Y-113901220D02*
X162829240Y-113901220D01*
X163286440Y-113901220D02*
X164099240Y-113901220D01*
X164962840Y-113901220D02*
X165902640Y-113901220D01*
X166055040Y-113901220D02*
X166410640Y-113901220D01*
X166512240Y-113901220D02*
X166842440Y-113901220D01*
X167502840Y-113901220D02*
X167756840Y-113901220D01*
X168061640Y-113901220D02*
X168315640Y-113901220D01*
X168493440Y-113901220D02*
X168747440Y-113901220D01*
X169407840Y-113901220D02*
X170398440Y-113901220D01*
X170601640Y-113901220D02*
X170931840Y-113901220D01*
X172074840Y-113901220D02*
X172328840Y-113901220D01*
X172557440Y-113901220D02*
X172913040Y-113901220D01*
X161787840Y-113926620D02*
X161965640Y-113926620D01*
X162041840Y-113926620D02*
X162194240Y-113926620D01*
X162346640Y-113926620D02*
X162524440Y-113926620D01*
X162676840Y-113926620D02*
X162854640Y-113926620D01*
X163261040Y-113926620D02*
X164099240Y-113926620D01*
X164962840Y-113926620D02*
X165902640Y-113926620D01*
X166055040Y-113926620D02*
X166436040Y-113926620D01*
X166537640Y-113926620D02*
X166867840Y-113926620D01*
X167502840Y-113926620D02*
X167756840Y-113926620D01*
X168061640Y-113926620D02*
X168315640Y-113926620D01*
X168493440Y-113926620D02*
X168747440Y-113926620D01*
X169382440Y-113926620D02*
X170423840Y-113926620D01*
X170601640Y-113926620D02*
X170957240Y-113926620D01*
X172074840Y-113926620D02*
X172328840Y-113926620D01*
X172582840Y-113926620D02*
X172913040Y-113926620D01*
X161787840Y-113952020D02*
X161965640Y-113952020D01*
X162041840Y-113952020D02*
X162168840Y-113952020D01*
X162321240Y-113952020D02*
X162499040Y-113952020D01*
X162651440Y-113952020D02*
X162930840Y-113952020D01*
X163210240Y-113952020D02*
X164099240Y-113952020D01*
X164937440Y-113952020D02*
X165928040Y-113952020D01*
X166080440Y-113952020D02*
X166436040Y-113952020D01*
X166537640Y-113952020D02*
X166893240Y-113952020D01*
X167502840Y-113952020D02*
X167756840Y-113952020D01*
X168061640Y-113952020D02*
X168315640Y-113952020D01*
X168493440Y-113952020D02*
X168747440Y-113952020D01*
X169382440Y-113952020D02*
X169661840Y-113952020D01*
X170144440Y-113952020D02*
X170423840Y-113952020D01*
X170601640Y-113952020D02*
X170982640Y-113952020D01*
X172074840Y-113952020D02*
X172328840Y-113952020D01*
X172582840Y-113952020D02*
X172938440Y-113952020D01*
X161787840Y-113977420D02*
X161965640Y-113977420D01*
X162041840Y-113977420D02*
X162143440Y-113977420D01*
X162295840Y-113977420D02*
X162473640Y-113977420D01*
X162626040Y-113977420D02*
X163007040Y-113977420D01*
X163108640Y-113977420D02*
X164099240Y-113977420D01*
X164937440Y-113977420D02*
X165928040Y-113977420D01*
X166080440Y-113977420D02*
X166461440Y-113977420D01*
X166563040Y-113977420D02*
X166918640Y-113977420D01*
X167502840Y-113977420D02*
X167756840Y-113977420D01*
X168061640Y-113977420D02*
X168315640Y-113977420D01*
X168493440Y-113977420D02*
X168747440Y-113977420D01*
X169357040Y-113977420D02*
X169636440Y-113977420D01*
X170144440Y-113977420D02*
X170423840Y-113977420D01*
X170627040Y-113977420D02*
X171008040Y-113977420D01*
X172074840Y-113977420D02*
X172328840Y-113977420D01*
X172608240Y-113977420D02*
X172963840Y-113977420D01*
X161787840Y-114002820D02*
X161965640Y-114002820D01*
X162041840Y-114002820D02*
X162118040Y-114002820D01*
X162270440Y-114002820D02*
X162448240Y-114002820D01*
X162600640Y-114002820D02*
X164099240Y-114002820D01*
X164912040Y-114002820D02*
X165953440Y-114002820D01*
X166105840Y-114002820D02*
X166461440Y-114002820D01*
X166563040Y-114002820D02*
X166944040Y-114002820D01*
X167502840Y-114002820D02*
X167756840Y-114002820D01*
X168061640Y-114002820D02*
X168315640Y-114002820D01*
X168493440Y-114002820D02*
X168747440Y-114002820D01*
X169357040Y-114002820D02*
X169636440Y-114002820D01*
X170144440Y-114002820D02*
X170449240Y-114002820D01*
X170652440Y-114002820D02*
X171033440Y-114002820D01*
X172074840Y-114002820D02*
X172328840Y-114002820D01*
X172633640Y-114002820D02*
X172989240Y-114002820D01*
X161787840Y-114028220D02*
X161965640Y-114028220D01*
X162041840Y-114028220D02*
X162092640Y-114028220D01*
X162245040Y-114028220D02*
X162422840Y-114028220D01*
X162575240Y-114028220D02*
X164099240Y-114028220D01*
X164912040Y-114028220D02*
X165953440Y-114028220D01*
X166105840Y-114028220D02*
X166486840Y-114028220D01*
X166588440Y-114028220D02*
X166969440Y-114028220D01*
X167477440Y-114028220D02*
X167756840Y-114028220D01*
X168061640Y-114028220D02*
X168315640Y-114028220D01*
X168493440Y-114028220D02*
X168747440Y-114028220D01*
X169357040Y-114028220D02*
X169636440Y-114028220D01*
X170169840Y-114028220D02*
X170449240Y-114028220D01*
X170652440Y-114028220D02*
X171084240Y-114028220D01*
X171566840Y-114028220D02*
X171668440Y-114028220D01*
X172074840Y-114028220D02*
X172328840Y-114028220D01*
X172659040Y-114028220D02*
X173014640Y-114028220D01*
X161787840Y-114053620D02*
X161965640Y-114053620D01*
X162041840Y-114053620D02*
X162067240Y-114053620D01*
X162219640Y-114053620D02*
X162397440Y-114053620D01*
X162549840Y-114053620D02*
X164099240Y-114053620D01*
X164886640Y-114053620D02*
X165978840Y-114053620D01*
X166131240Y-114053620D02*
X166486840Y-114053620D01*
X166588440Y-114053620D02*
X167020240Y-114053620D01*
X167452040Y-114053620D02*
X167756840Y-114053620D01*
X168061640Y-114053620D02*
X168315640Y-114053620D01*
X168493440Y-114053620D02*
X168747440Y-114053620D01*
X169331640Y-114053620D02*
X169611040Y-114053620D01*
X170169840Y-114053620D02*
X170474640Y-114053620D01*
X170677840Y-114053620D02*
X171160440Y-114053620D01*
X171490640Y-114053620D02*
X171668440Y-114053620D01*
X172074840Y-114053620D02*
X172328840Y-114053620D01*
X172684440Y-114053620D02*
X173040040Y-114053620D01*
X161787840Y-114079020D02*
X161965640Y-114079020D01*
X162041840Y-114079020D02*
X162067240Y-114079020D01*
X162194240Y-114079020D02*
X162372040Y-114079020D01*
X162524440Y-114079020D02*
X164099240Y-114079020D01*
X164886640Y-114079020D02*
X165978840Y-114079020D01*
X166131240Y-114079020D02*
X166512240Y-114079020D01*
X166613840Y-114079020D02*
X167096440Y-114079020D01*
X167375840Y-114079020D02*
X167756840Y-114079020D01*
X168061640Y-114079020D02*
X168315640Y-114079020D01*
X168493440Y-114079020D02*
X169611040Y-114079020D01*
X170169840Y-114079020D02*
X170474640Y-114079020D01*
X170703240Y-114079020D02*
X171693840Y-114079020D01*
X172074840Y-114079020D02*
X172328840Y-114079020D01*
X172709840Y-114079020D02*
X173065440Y-114079020D01*
X161787840Y-114104420D02*
X161965640Y-114104420D01*
X162041840Y-114104420D02*
X162067240Y-114104420D01*
X162168840Y-114104420D02*
X162346640Y-114104420D01*
X162499040Y-114104420D02*
X164099240Y-114104420D01*
X164861240Y-114104420D02*
X166004240Y-114104420D01*
X166156640Y-114104420D02*
X166512240Y-114104420D01*
X166639240Y-114104420D02*
X167756840Y-114104420D01*
X168061640Y-114104420D02*
X168315640Y-114104420D01*
X168493440Y-114104420D02*
X169585640Y-114104420D01*
X170195240Y-114104420D02*
X170474640Y-114104420D01*
X170703240Y-114104420D02*
X171693840Y-114104420D01*
X172074840Y-114104420D02*
X172328840Y-114104420D01*
X172735240Y-114104420D02*
X173090840Y-114104420D01*
X161787840Y-114129820D02*
X161965640Y-114129820D01*
X162041840Y-114129820D02*
X162067240Y-114129820D01*
X162143440Y-114129820D02*
X162321240Y-114129820D01*
X162473640Y-114129820D02*
X164099240Y-114129820D01*
X164861240Y-114129820D02*
X166004240Y-114129820D01*
X166156640Y-114129820D02*
X166537640Y-114129820D01*
X166664640Y-114129820D02*
X167756840Y-114129820D01*
X168061640Y-114129820D02*
X168315640Y-114129820D01*
X168493440Y-114129820D02*
X169585640Y-114129820D01*
X170195240Y-114129820D02*
X170500040Y-114129820D01*
X170728640Y-114129820D02*
X171719240Y-114129820D01*
X172074840Y-114129820D02*
X172328840Y-114129820D01*
X172760640Y-114129820D02*
X173116240Y-114129820D01*
X161787840Y-114155220D02*
X161965640Y-114155220D01*
X162041840Y-114155220D02*
X162067240Y-114155220D01*
X162118040Y-114155220D02*
X162295840Y-114155220D01*
X162448240Y-114155220D02*
X164099240Y-114155220D01*
X164835840Y-114155220D02*
X166029640Y-114155220D01*
X166182040Y-114155220D02*
X166537640Y-114155220D01*
X166690040Y-114155220D02*
X167756840Y-114155220D01*
X168061640Y-114155220D02*
X168315640Y-114155220D01*
X168493440Y-114155220D02*
X169585640Y-114155220D01*
X170220640Y-114155220D02*
X170500040Y-114155220D01*
X170754040Y-114155220D02*
X171719240Y-114155220D01*
X172074840Y-114155220D02*
X172328840Y-114155220D01*
X172760640Y-114155220D02*
X173141640Y-114155220D01*
X161787840Y-114180620D02*
X161940240Y-114180620D01*
X162041840Y-114180620D02*
X162067240Y-114180620D01*
X162092640Y-114180620D02*
X162270440Y-114180620D01*
X162422840Y-114180620D02*
X164099240Y-114180620D01*
X164835840Y-114180620D02*
X166029640Y-114180620D01*
X166182040Y-114180620D02*
X166563040Y-114180620D01*
X166690040Y-114180620D02*
X167731440Y-114180620D01*
X168061640Y-114180620D02*
X168315640Y-114180620D01*
X168493440Y-114180620D02*
X169560240Y-114180620D01*
X170220640Y-114180620D02*
X170500040Y-114180620D01*
X170804840Y-114180620D02*
X171719240Y-114180620D01*
X172074840Y-114180620D02*
X172328840Y-114180620D01*
X172786040Y-114180620D02*
X173141640Y-114180620D01*
X161787840Y-114206020D02*
X161914840Y-114206020D01*
X162041840Y-114206020D02*
X162245040Y-114206020D01*
X162397440Y-114206020D02*
X164073840Y-114206020D01*
X164835840Y-114206020D02*
X166029640Y-114206020D01*
X166207440Y-114206020D02*
X166563040Y-114206020D01*
X166740840Y-114206020D02*
X167706040Y-114206020D01*
X168061640Y-114206020D02*
X168315640Y-114206020D01*
X168493440Y-114206020D02*
X169560240Y-114206020D01*
X170220640Y-114206020D02*
X170525440Y-114206020D01*
X170830240Y-114206020D02*
X171744640Y-114206020D01*
X172074840Y-114206020D02*
X172328840Y-114206020D01*
X172811440Y-114206020D02*
X173167040Y-114206020D01*
X161787840Y-114231420D02*
X161889440Y-114231420D01*
X162041840Y-114231420D02*
X162219640Y-114231420D01*
X162372040Y-114231420D02*
X164048440Y-114231420D01*
X166207440Y-114231420D02*
X166588440Y-114231420D01*
X166766240Y-114231420D02*
X167655240Y-114231420D01*
X168061640Y-114231420D02*
X168315640Y-114231420D01*
X168493440Y-114231420D02*
X169560240Y-114231420D01*
X170246040Y-114231420D02*
X170525440Y-114231420D01*
X170881040Y-114231420D02*
X171744640Y-114231420D01*
X172074840Y-114231420D02*
X172328840Y-114231420D01*
X172836840Y-114231420D02*
X173192440Y-114231420D01*
X161787840Y-114256820D02*
X161864040Y-114256820D01*
X162041840Y-114256820D02*
X162194240Y-114256820D01*
X162346640Y-114256820D02*
X164023040Y-114256820D01*
X166232840Y-114256820D02*
X166588440Y-114256820D01*
X166791640Y-114256820D02*
X167629840Y-114256820D01*
X168061640Y-114256820D02*
X168315640Y-114256820D01*
X168493440Y-114256820D02*
X169534840Y-114256820D01*
X170246040Y-114256820D02*
X170525440Y-114256820D01*
X170906440Y-114256820D02*
X171668440Y-114256820D01*
X172074840Y-114256820D02*
X172328840Y-114256820D01*
X172862240Y-114256820D02*
X173217840Y-114256820D01*
X162041840Y-114282220D02*
X162168840Y-114282220D01*
X162321240Y-114282220D02*
X163997640Y-114282220D01*
X166232840Y-114282220D02*
X166613840Y-114282220D01*
X166842440Y-114282220D02*
X167579040Y-114282220D01*
X168061640Y-114282220D02*
X168315640Y-114282220D01*
X168493440Y-114282220D02*
X169534840Y-114282220D01*
X170271440Y-114282220D02*
X170550840Y-114282220D01*
X170982640Y-114282220D02*
X171592240Y-114282220D01*
X172074840Y-114282220D02*
X172328840Y-114282220D01*
X172887640Y-114282220D02*
X173243240Y-114282220D01*
X162041840Y-114307620D02*
X162143440Y-114307620D01*
X162295840Y-114307620D02*
X163972240Y-114307620D01*
X166258240Y-114307620D02*
X166613840Y-114307620D01*
X166918640Y-114307620D02*
X167502840Y-114307620D01*
X171058840Y-114307620D02*
X171490640Y-114307620D01*
X162041840Y-114333020D02*
X162118040Y-114333020D01*
X162270440Y-114333020D02*
X163946840Y-114333020D01*
X166258240Y-114333020D02*
X166639240Y-114333020D01*
X166994840Y-114333020D02*
X167426640Y-114333020D01*
X162041840Y-114358420D02*
X162092640Y-114358420D01*
X162245040Y-114358420D02*
X163921440Y-114358420D01*
X166283640Y-114358420D02*
X166639240Y-114358420D01*
X162041840Y-114383820D02*
X162067240Y-114383820D01*
X162219640Y-114383820D02*
X163896040Y-114383820D01*
X164556440Y-114383820D02*
X166029640Y-114383820D01*
X166283640Y-114383820D02*
X166664640Y-114383820D01*
X162041840Y-114409220D02*
X162067240Y-114409220D01*
X162194240Y-114409220D02*
X163870640Y-114409220D01*
X164556440Y-114409220D02*
X166029640Y-114409220D01*
X166309040Y-114409220D02*
X166664640Y-114409220D01*
X162041840Y-114434620D02*
X162067240Y-114434620D01*
X162168840Y-114434620D02*
X163845240Y-114434620D01*
X164556440Y-114434620D02*
X166029640Y-114434620D01*
X166309040Y-114434620D02*
X166690040Y-114434620D01*
X162041840Y-114460020D02*
X162067240Y-114460020D01*
X162143440Y-114460020D02*
X163819840Y-114460020D01*
X164556440Y-114460020D02*
X166029640Y-114460020D01*
X166334440Y-114460020D02*
X166690040Y-114460020D01*
X162041840Y-114485420D02*
X162067240Y-114485420D01*
X162118040Y-114485420D02*
X163794440Y-114485420D01*
X164556440Y-114485420D02*
X166029640Y-114485420D01*
X166334440Y-114485420D02*
X166715440Y-114485420D01*
X162041840Y-114510820D02*
X162067240Y-114510820D01*
X162092640Y-114510820D02*
X163769040Y-114510820D01*
X164556440Y-114510820D02*
X166029640Y-114510820D01*
X166359840Y-114510820D02*
X166740840Y-114510820D01*
X162041840Y-114536220D02*
X163743640Y-114536220D01*
X164556440Y-114536220D02*
X166029640Y-114536220D01*
X166359840Y-114536220D02*
X166740840Y-114536220D01*
X162041840Y-114561620D02*
X163718240Y-114561620D01*
X164556440Y-114561620D02*
X166029640Y-114561620D01*
X166385240Y-114561620D02*
X166766240Y-114561620D01*
X162041840Y-114587020D02*
X163692840Y-114587020D01*
X164556440Y-114587020D02*
X166029640Y-114587020D01*
X166385240Y-114587020D02*
X166766240Y-114587020D01*
X164556440Y-114612420D02*
X166029640Y-114612420D01*
X166410640Y-114612420D02*
X166791640Y-114612420D01*
X166410640Y-114637820D02*
X166791640Y-114637820D01*
X166436040Y-114663220D02*
X166817040Y-114663220D01*
X166436040Y-114688620D02*
X166817040Y-114688620D01*
X166461440Y-114714020D02*
X166842440Y-114714020D01*
X166461440Y-114739420D02*
X166842440Y-114739420D01*
X166486840Y-114764820D02*
X166867840Y-114764820D01*
X166486840Y-114790220D02*
X166867840Y-114790220D01*
X166512240Y-114815620D02*
X166893240Y-114815620D01*
D11*
X155374219Y-105749904D02*
X154358219Y-105749904D01*
X154358219Y-105362857D01*
X154406600Y-105266095D01*
X154454981Y-105217714D01*
X154551743Y-105169333D01*
X154696886Y-105169333D01*
X154793648Y-105217714D01*
X154842029Y-105266095D01*
X154890410Y-105362857D01*
X154890410Y-105749904D01*
X154454981Y-104782285D02*
X154406600Y-104733904D01*
X154358219Y-104637142D01*
X154358219Y-104395238D01*
X154406600Y-104298476D01*
X154454981Y-104250095D01*
X154551743Y-104201714D01*
X154648505Y-104201714D01*
X154793648Y-104250095D01*
X155374219Y-104830666D01*
X155374219Y-104201714D01*
D15*
X163071629Y-107735914D02*
X163071629Y-108352771D01*
X163107914Y-108425343D01*
X163144200Y-108461629D01*
X163216771Y-108497914D01*
X163361914Y-108497914D01*
X163434486Y-108461629D01*
X163470771Y-108425343D01*
X163507057Y-108352771D01*
X163507057Y-107735914D01*
X164269057Y-108497914D02*
X163833629Y-108497914D01*
X164051343Y-108497914D02*
X164051343Y-107735914D01*
X163978772Y-107844771D01*
X163906200Y-107917343D01*
X163833629Y-107953629D01*
D16*
X155879800Y-110228743D02*
X155843514Y-110265029D01*
X155734657Y-110301314D01*
X155662086Y-110301314D01*
X155553229Y-110265029D01*
X155480657Y-110192457D01*
X155444372Y-110119886D01*
X155408086Y-109974743D01*
X155408086Y-109865886D01*
X155444372Y-109720743D01*
X155480657Y-109648171D01*
X155553229Y-109575600D01*
X155662086Y-109539314D01*
X155734657Y-109539314D01*
X155843514Y-109575600D01*
X155879800Y-109611886D01*
X156605514Y-110301314D02*
X156170086Y-110301314D01*
X156387800Y-110301314D02*
X156387800Y-109539314D01*
X156315229Y-109648171D01*
X156242657Y-109720743D01*
X156170086Y-109757029D01*
X159791400Y-113276743D02*
X159755114Y-113313029D01*
X159646257Y-113349314D01*
X159573686Y-113349314D01*
X159464829Y-113313029D01*
X159392257Y-113240457D01*
X159355972Y-113167886D01*
X159319686Y-113022743D01*
X159319686Y-112913886D01*
X159355972Y-112768743D01*
X159392257Y-112696171D01*
X159464829Y-112623600D01*
X159573686Y-112587314D01*
X159646257Y-112587314D01*
X159755114Y-112623600D01*
X159791400Y-112659886D01*
X160081686Y-112659886D02*
X160117972Y-112623600D01*
X160190543Y-112587314D01*
X160371972Y-112587314D01*
X160444543Y-112623600D01*
X160480829Y-112659886D01*
X160517114Y-112732457D01*
X160517114Y-112805029D01*
X160480829Y-112913886D01*
X160045400Y-113349314D01*
X160517114Y-113349314D01*
X157251400Y-113302143D02*
X157215114Y-113338429D01*
X157106257Y-113374714D01*
X157033686Y-113374714D01*
X156924829Y-113338429D01*
X156852257Y-113265857D01*
X156815972Y-113193286D01*
X156779686Y-113048143D01*
X156779686Y-112939286D01*
X156815972Y-112794143D01*
X156852257Y-112721571D01*
X156924829Y-112649000D01*
X157033686Y-112612714D01*
X157106257Y-112612714D01*
X157215114Y-112649000D01*
X157251400Y-112685286D01*
X157505400Y-112612714D02*
X157977114Y-112612714D01*
X157723114Y-112903000D01*
X157831972Y-112903000D01*
X157904543Y-112939286D01*
X157940829Y-112975571D01*
X157977114Y-113048143D01*
X157977114Y-113229571D01*
X157940829Y-113302143D01*
X157904543Y-113338429D01*
X157831972Y-113374714D01*
X157614257Y-113374714D01*
X157541686Y-113338429D01*
X157505400Y-113302143D01*
X162204400Y-111625743D02*
X162168114Y-111662029D01*
X162059257Y-111698314D01*
X161986686Y-111698314D01*
X161877829Y-111662029D01*
X161805257Y-111589457D01*
X161768972Y-111516886D01*
X161732686Y-111371743D01*
X161732686Y-111262886D01*
X161768972Y-111117743D01*
X161805257Y-111045171D01*
X161877829Y-110972600D01*
X161986686Y-110936314D01*
X162059257Y-110936314D01*
X162168114Y-110972600D01*
X162204400Y-111008886D01*
X162857543Y-111190314D02*
X162857543Y-111698314D01*
X162676114Y-110900029D02*
X162494686Y-111444314D01*
X162966400Y-111444314D01*
X164686343Y-97904300D02*
X164722629Y-97940586D01*
X164758914Y-98049443D01*
X164758914Y-98122014D01*
X164722629Y-98230871D01*
X164650057Y-98303443D01*
X164577486Y-98339728D01*
X164432343Y-98376014D01*
X164323486Y-98376014D01*
X164178343Y-98339728D01*
X164105771Y-98303443D01*
X164033200Y-98230871D01*
X163996914Y-98122014D01*
X163996914Y-98049443D01*
X164033200Y-97940586D01*
X164069486Y-97904300D01*
X163996914Y-97214871D02*
X163996914Y-97577728D01*
X164359771Y-97614014D01*
X164323486Y-97577728D01*
X164287200Y-97505157D01*
X164287200Y-97323728D01*
X164323486Y-97251157D01*
X164359771Y-97214871D01*
X164432343Y-97178586D01*
X164613771Y-97178586D01*
X164686343Y-97214871D01*
X164722629Y-97251157D01*
X164758914Y-97323728D01*
X164758914Y-97505157D01*
X164722629Y-97577728D01*
X164686343Y-97614014D01*
X155714700Y-99078143D02*
X155678414Y-99114429D01*
X155569557Y-99150714D01*
X155496986Y-99150714D01*
X155388129Y-99114429D01*
X155315557Y-99041857D01*
X155279272Y-98969286D01*
X155242986Y-98824143D01*
X155242986Y-98715286D01*
X155279272Y-98570143D01*
X155315557Y-98497571D01*
X155388129Y-98425000D01*
X155496986Y-98388714D01*
X155569557Y-98388714D01*
X155678414Y-98425000D01*
X155714700Y-98461286D01*
X156367843Y-98388714D02*
X156222700Y-98388714D01*
X156150129Y-98425000D01*
X156113843Y-98461286D01*
X156041272Y-98570143D01*
X156004986Y-98715286D01*
X156004986Y-99005571D01*
X156041272Y-99078143D01*
X156077557Y-99114429D01*
X156150129Y-99150714D01*
X156295272Y-99150714D01*
X156367843Y-99114429D01*
X156404129Y-99078143D01*
X156440414Y-99005571D01*
X156440414Y-98824143D01*
X156404129Y-98751571D01*
X156367843Y-98715286D01*
X156295272Y-98679000D01*
X156150129Y-98679000D01*
X156077557Y-98715286D01*
X156041272Y-98751571D01*
X156004986Y-98824143D01*
D11*
X165806381Y-105738095D02*
X164806381Y-105738095D01*
X164806381Y-105357142D01*
X164854000Y-105261904D01*
X164901619Y-105214285D01*
X164996857Y-105166666D01*
X165139714Y-105166666D01*
X165234952Y-105214285D01*
X165282571Y-105261904D01*
X165330190Y-105357142D01*
X165330190Y-105738095D01*
X165806381Y-104214285D02*
X165806381Y-104785714D01*
X165806381Y-104500000D02*
X164806381Y-104500000D01*
X164949238Y-104595238D01*
X165044476Y-104690476D01*
X165092095Y-104785714D01*
%LPC*%
D17*
X132966200Y-103580000D03*
X135736200Y-103580000D03*
X138506200Y-103580000D03*
X141276200Y-103580000D03*
X144046200Y-103580000D03*
X134351200Y-106420000D03*
X137121200Y-106420000D03*
X139891200Y-106420000D03*
X142661200Y-106420000D03*
D18*
X126011200Y-105000000D03*
X151001200Y-105000000D03*
D19*
X157643400Y-107969260D03*
X158293400Y-107969260D03*
X158943400Y-107969260D03*
X159593400Y-107969260D03*
X160243400Y-107969260D03*
X160893400Y-107969260D03*
X161543400Y-107969260D03*
X162193400Y-107969260D03*
X162193400Y-102030740D03*
X161543400Y-102030740D03*
X160893400Y-102030740D03*
X160243400Y-102030740D03*
X159593400Y-102030740D03*
X158943400Y-102030740D03*
X158293400Y-102030740D03*
X157643400Y-102030740D03*
D20*
X157429200Y-109956600D03*
X158953200Y-109956600D03*
X159156400Y-111480600D03*
X160680400Y-111480600D03*
X158140400Y-111506000D03*
X156616400Y-111506000D03*
X162407600Y-109956600D03*
X160883600Y-109956600D03*
D21*
X164414200Y-99161600D03*
X164414200Y-100685600D03*
D20*
X157378400Y-100139500D03*
X155854400Y-100139500D03*
D22*
X167309800Y-111350000D03*
D23*
X167309800Y-108810000D03*
X167309800Y-106270000D03*
X167309800Y-103730000D03*
X167309800Y-101190000D03*
X167309800Y-98650000D03*
X169849800Y-111350000D03*
X169849800Y-108810000D03*
X169849800Y-106270000D03*
X169849800Y-103730000D03*
X169849800Y-101190000D03*
X169849800Y-98650000D03*
M02*
