G04 #@! TF.FileFunction,Legend,Top*
%FSLAX46Y46*%
G04 Gerber Fmt 4.6, Leading zero omitted, Abs format (unit mm)*
G04 Created by KiCad (PCBNEW 4.0.2+dfsg1-stable) date jeu. 05 avril 2018 11:17:12 CEST*
%MOMM*%
G01*
G04 APERTURE LIST*
%ADD10C,0.100000*%
%ADD11C,0.127000*%
%ADD12C,0.150000*%
%ADD13C,0.101600*%
%ADD14C,0.027940*%
G04 APERTURE END LIST*
D10*
D11*
X148069300Y-110553500D02*
X148069300Y-108267500D01*
X148069300Y-108267500D02*
X149339300Y-108267500D01*
X149339300Y-108267500D02*
X149339300Y-110553500D01*
X149339300Y-110553500D02*
X148069300Y-110553500D01*
X149644100Y-110553500D02*
X149644100Y-108267500D01*
X149644100Y-108267500D02*
X150914100Y-108267500D01*
X150914100Y-108267500D02*
X150914100Y-110553500D01*
X150914100Y-110553500D02*
X149644100Y-110553500D01*
X152793700Y-110553500D02*
X152793700Y-108267500D01*
X152793700Y-108267500D02*
X154063700Y-108267500D01*
X154063700Y-108267500D02*
X154063700Y-110553500D01*
X154063700Y-110553500D02*
X152793700Y-110553500D01*
X152488900Y-108267500D02*
X152488900Y-110553500D01*
X152488900Y-110553500D02*
X151218900Y-110553500D01*
X151218900Y-110553500D02*
X151218900Y-108267500D01*
X151218900Y-108267500D02*
X152488900Y-108267500D01*
X155333700Y-108775500D02*
X157619700Y-108775500D01*
X157619700Y-108775500D02*
X157619700Y-110045500D01*
X157619700Y-110045500D02*
X155333700Y-110045500D01*
X155333700Y-110045500D02*
X155333700Y-108775500D01*
X154063700Y-105079800D02*
X154063700Y-107365800D01*
X154063700Y-107365800D02*
X152793700Y-107365800D01*
X152793700Y-107365800D02*
X152793700Y-105079800D01*
X152793700Y-105079800D02*
X154063700Y-105079800D01*
X156870400Y-103936800D02*
X154584400Y-103936800D01*
X154584400Y-103936800D02*
X154584400Y-102666800D01*
X154584400Y-102666800D02*
X156870400Y-102666800D01*
X156870400Y-102666800D02*
X156870400Y-103936800D01*
X154584400Y-101117400D02*
X156870400Y-101117400D01*
X156870400Y-101117400D02*
X156870400Y-102387400D01*
X156870400Y-102387400D02*
X154584400Y-102387400D01*
X154584400Y-102387400D02*
X154584400Y-101117400D01*
X157911800Y-103670100D02*
X157911800Y-101384100D01*
X157911800Y-101384100D02*
X159181800Y-101384100D01*
X159181800Y-101384100D02*
X159181800Y-103670100D01*
X159181800Y-103670100D02*
X157911800Y-103670100D01*
X159181800Y-104622600D02*
X159181800Y-106908600D01*
X159181800Y-106908600D02*
X157911800Y-106908600D01*
X157911800Y-106908600D02*
X157911800Y-104622600D01*
X157911800Y-104622600D02*
X159181800Y-104622600D01*
X154584400Y-98018600D02*
X156870400Y-98018600D01*
X156870400Y-98018600D02*
X156870400Y-99288600D01*
X156870400Y-99288600D02*
X154584400Y-99288600D01*
X154584400Y-99288600D02*
X154584400Y-98018600D01*
X154584400Y-99568000D02*
X156870400Y-99568000D01*
X156870400Y-99568000D02*
X156870400Y-100838000D01*
X156870400Y-100838000D02*
X154584400Y-100838000D01*
X154584400Y-100838000D02*
X154584400Y-99568000D01*
X143827500Y-104051100D02*
X143827500Y-106337100D01*
X143827500Y-106337100D02*
X142557500Y-106337100D01*
X142557500Y-106337100D02*
X142557500Y-104051100D01*
X142557500Y-104051100D02*
X143827500Y-104051100D01*
X145376900Y-104051100D02*
X145376900Y-106337100D01*
X145376900Y-106337100D02*
X144106900Y-106337100D01*
X144106900Y-106337100D02*
X144106900Y-104051100D01*
X144106900Y-104051100D02*
X145376900Y-104051100D01*
X147701000Y-108267500D02*
X147701000Y-110553500D01*
X147701000Y-110553500D02*
X146431000Y-110553500D01*
X146431000Y-110553500D02*
X146431000Y-108267500D01*
X146431000Y-108267500D02*
X147701000Y-108267500D01*
X148475700Y-104051100D02*
X148475700Y-106337100D01*
X148475700Y-106337100D02*
X147205700Y-106337100D01*
X147205700Y-106337100D02*
X147205700Y-104051100D01*
X147205700Y-104051100D02*
X148475700Y-104051100D01*
D12*
X123450000Y-98650000D02*
X129450000Y-98650000D01*
X123450000Y-101190000D02*
X129450000Y-101190000D01*
X123450000Y-103730000D02*
X129450000Y-103730000D01*
X123450000Y-106270000D02*
X129450000Y-106270000D01*
X123450000Y-108810000D02*
X129450000Y-108810000D01*
X123450000Y-111350000D02*
X129450000Y-111350000D01*
X131990000Y-112620000D02*
X131990000Y-97380000D01*
X131990000Y-97380000D02*
X129450000Y-97380000D01*
X129450000Y-97380000D02*
X129450000Y-112620000D01*
X131990000Y-112620000D02*
X129450000Y-112620000D01*
D13*
X146366400Y-102514600D02*
X146163200Y-102514600D01*
X146163200Y-102514600D02*
X145985400Y-102336800D01*
X145985400Y-102336800D02*
X145985400Y-102133600D01*
X145985400Y-97485400D02*
X145985400Y-97866400D01*
X145985400Y-97485400D02*
X146366400Y-97485400D01*
X151014600Y-97485400D02*
X150633600Y-97485400D01*
X151014600Y-97485400D02*
X151014600Y-97866400D01*
X151014600Y-102514600D02*
X151014600Y-102133600D01*
X151014600Y-102514600D02*
X150633600Y-102514600D01*
D11*
X151775000Y-97763000D02*
X151775000Y-95477000D01*
X151775000Y-95477000D02*
X153045000Y-95477000D01*
X153045000Y-95477000D02*
X153045000Y-97763000D01*
X153045000Y-97763000D02*
X151775000Y-97763000D01*
X146926300Y-104051100D02*
X146926300Y-106337100D01*
X146926300Y-106337100D02*
X145656300Y-106337100D01*
X145656300Y-106337100D02*
X145656300Y-104051100D01*
X145656300Y-104051100D02*
X146926300Y-104051100D01*
X139575700Y-110585000D02*
X139575700Y-111601000D01*
X139575700Y-111601000D02*
X138051700Y-111601000D01*
X138051700Y-111601000D02*
X138051700Y-110585000D01*
X138051700Y-109569000D02*
X138051700Y-108553000D01*
X138051700Y-108553000D02*
X139575700Y-108553000D01*
X139575700Y-108553000D02*
X139575700Y-109569000D01*
X140106400Y-108407200D02*
X140106400Y-106121200D01*
X140106400Y-106121200D02*
X141376400Y-106121200D01*
X141376400Y-106121200D02*
X141376400Y-108407200D01*
X141376400Y-108407200D02*
X140106400Y-108407200D01*
X139327000Y-98265000D02*
X141613000Y-98265000D01*
X141613000Y-98265000D02*
X141613000Y-99535000D01*
X141613000Y-99535000D02*
X139327000Y-99535000D01*
X139327000Y-99535000D02*
X139327000Y-98265000D01*
X150025100Y-96215200D02*
X150025100Y-96723200D01*
X150025100Y-96723200D02*
X150787100Y-96723200D01*
X150787100Y-96723200D02*
X150787100Y-96215200D01*
X150025100Y-95707200D02*
X150025100Y-95199200D01*
X150025100Y-95199200D02*
X150787100Y-95199200D01*
X150787100Y-95199200D02*
X150787100Y-95707200D01*
D13*
X138811000Y-100253800D02*
X143840200Y-100253800D01*
X143840200Y-100253800D02*
X143840200Y-103454200D01*
X143840200Y-103454200D02*
X138811000Y-103454200D01*
X138811000Y-103454200D02*
X138811000Y-100253800D01*
D11*
X149771100Y-95707200D02*
X149771100Y-95199200D01*
X149771100Y-95199200D02*
X149009100Y-95199200D01*
X149009100Y-95199200D02*
X149009100Y-95707200D01*
X149771100Y-96215200D02*
X149771100Y-96723200D01*
X149771100Y-96723200D02*
X149009100Y-96723200D01*
X149009100Y-96723200D02*
X149009100Y-96215200D01*
D14*
X142506700Y-108699300D02*
X142760700Y-108699300D01*
X142354300Y-108724700D02*
X142989300Y-108724700D01*
X142354300Y-108750100D02*
X142989300Y-108750100D01*
X142328900Y-108775500D02*
X143014700Y-108775500D01*
X142328900Y-108800900D02*
X143014700Y-108800900D01*
X142328900Y-108826300D02*
X143014700Y-108826300D01*
X142328900Y-108851700D02*
X143014700Y-108851700D01*
X142328900Y-108877100D02*
X143014700Y-108877100D01*
X142328900Y-108902500D02*
X143014700Y-108902500D01*
X142303500Y-108927900D02*
X143040100Y-108927900D01*
X142303500Y-108953300D02*
X143040100Y-108953300D01*
X142303500Y-108978700D02*
X143040100Y-108978700D01*
X142303500Y-109004100D02*
X143040100Y-109004100D01*
X142303500Y-109029500D02*
X143040100Y-109029500D01*
X142278100Y-109054900D02*
X143040100Y-109054900D01*
X142278100Y-109080300D02*
X143065500Y-109080300D01*
X142278100Y-109105700D02*
X143065500Y-109105700D01*
X142278100Y-109131100D02*
X143065500Y-109131100D01*
X142278100Y-109156500D02*
X143065500Y-109156500D01*
X141236700Y-109181900D02*
X141312900Y-109181900D01*
X142278100Y-109181900D02*
X143065500Y-109181900D01*
X144005300Y-109181900D02*
X144106900Y-109181900D01*
X141211300Y-109207300D02*
X141338300Y-109207300D01*
X142252700Y-109207300D02*
X143065500Y-109207300D01*
X143954500Y-109207300D02*
X144132300Y-109207300D01*
X141185900Y-109232700D02*
X141389100Y-109232700D01*
X142252700Y-109232700D02*
X143065500Y-109232700D01*
X143929100Y-109232700D02*
X144157700Y-109232700D01*
X141135100Y-109258100D02*
X141414500Y-109258100D01*
X142252700Y-109258100D02*
X143090900Y-109258100D01*
X143878300Y-109258100D02*
X144208500Y-109258100D01*
X141109700Y-109283500D02*
X141465300Y-109283500D01*
X142252700Y-109283500D02*
X143090900Y-109283500D01*
X143852900Y-109283500D02*
X144233900Y-109283500D01*
X141084300Y-109308900D02*
X141490700Y-109308900D01*
X142252700Y-109308900D02*
X143090900Y-109308900D01*
X143802100Y-109308900D02*
X144259300Y-109308900D01*
X141058900Y-109334300D02*
X141516100Y-109334300D01*
X142227300Y-109334300D02*
X143090900Y-109334300D01*
X143776700Y-109334300D02*
X144284700Y-109334300D01*
X141033500Y-109359700D02*
X141566900Y-109359700D01*
X142151100Y-109359700D02*
X143192500Y-109359700D01*
X143725900Y-109359700D02*
X144310100Y-109359700D01*
X141008100Y-109385100D02*
X141592300Y-109385100D01*
X142074900Y-109385100D02*
X143268700Y-109385100D01*
X143700500Y-109385100D02*
X144335500Y-109385100D01*
X140982700Y-109410500D02*
X141643100Y-109410500D01*
X141998700Y-109410500D02*
X143319500Y-109410500D01*
X143649700Y-109410500D02*
X144360900Y-109410500D01*
X140957300Y-109435900D02*
X141668500Y-109435900D01*
X141947900Y-109435900D02*
X143395700Y-109435900D01*
X143624300Y-109435900D02*
X144386300Y-109435900D01*
X140931900Y-109461300D02*
X141693900Y-109461300D01*
X141897100Y-109461300D02*
X143446500Y-109461300D01*
X143598900Y-109461300D02*
X144411700Y-109461300D01*
X140906500Y-109486700D02*
X141744700Y-109486700D01*
X141846300Y-109486700D02*
X143497300Y-109486700D01*
X143548100Y-109486700D02*
X144437100Y-109486700D01*
X140881100Y-109512100D02*
X141770100Y-109512100D01*
X141795500Y-109512100D02*
X144462500Y-109512100D01*
X140855700Y-109537500D02*
X144462500Y-109537500D01*
X140855700Y-109562900D02*
X144487900Y-109562900D01*
X140830300Y-109588300D02*
X144487900Y-109588300D01*
X140830300Y-109613700D02*
X144487900Y-109613700D01*
X140855700Y-109639100D02*
X144487900Y-109639100D01*
X140855700Y-109664500D02*
X144462500Y-109664500D01*
X140881100Y-109689900D02*
X144462500Y-109689900D01*
X140906500Y-109715300D02*
X144437100Y-109715300D01*
X140906500Y-109740700D02*
X144411700Y-109740700D01*
X140931900Y-109766100D02*
X144386300Y-109766100D01*
X140957300Y-109791500D02*
X144386300Y-109791500D01*
X140982700Y-109816900D02*
X144360900Y-109816900D01*
X140982700Y-109842300D02*
X144335500Y-109842300D01*
X141008100Y-109867700D02*
X144335500Y-109867700D01*
X141033500Y-109893100D02*
X144310100Y-109893100D01*
X141033500Y-109918500D02*
X144284700Y-109918500D01*
X141058900Y-109943900D02*
X144259300Y-109943900D01*
X141084300Y-109969300D02*
X144259300Y-109969300D01*
X141084300Y-109994700D02*
X144233900Y-109994700D01*
X141109700Y-110020100D02*
X144208500Y-110020100D01*
X141135100Y-110045500D02*
X144183100Y-110045500D01*
X141135100Y-110070900D02*
X144183100Y-110070900D01*
X141160500Y-110096300D02*
X144157700Y-110096300D01*
X141160500Y-110121700D02*
X144157700Y-110121700D01*
X141160500Y-110147100D02*
X144183100Y-110147100D01*
X141135100Y-110172500D02*
X144208500Y-110172500D01*
X141135100Y-110197900D02*
X144208500Y-110197900D01*
X141109700Y-110223300D02*
X144233900Y-110223300D01*
X141109700Y-110248700D02*
X144233900Y-110248700D01*
X141084300Y-110274100D02*
X144259300Y-110274100D01*
X141084300Y-110299500D02*
X144259300Y-110299500D01*
X141058900Y-110324900D02*
X144284700Y-110324900D01*
X141058900Y-110350300D02*
X144284700Y-110350300D01*
X141033500Y-110375700D02*
X144284700Y-110375700D01*
X141033500Y-110401100D02*
X142557500Y-110401100D01*
X142786100Y-110401100D02*
X144310100Y-110401100D01*
X141033500Y-110426500D02*
X142481300Y-110426500D01*
X142862300Y-110426500D02*
X144310100Y-110426500D01*
X141008100Y-110451900D02*
X142405100Y-110451900D01*
X142938500Y-110451900D02*
X144335500Y-110451900D01*
X141008100Y-110477300D02*
X142354300Y-110477300D01*
X142989300Y-110477300D02*
X144335500Y-110477300D01*
X141008100Y-110502700D02*
X142328900Y-110502700D01*
X143014700Y-110502700D02*
X144335500Y-110502700D01*
X140982700Y-110528100D02*
X142278100Y-110528100D01*
X143065500Y-110528100D02*
X144360900Y-110528100D01*
X140982700Y-110553500D02*
X142252700Y-110553500D01*
X143090900Y-110553500D02*
X144437100Y-110553500D01*
X140982700Y-110578900D02*
X142227300Y-110578900D01*
X143116300Y-110578900D02*
X144589500Y-110578900D01*
X140957300Y-110604300D02*
X142201900Y-110604300D01*
X143141700Y-110604300D02*
X144716500Y-110604300D01*
X140804900Y-110629700D02*
X142176500Y-110629700D01*
X143167100Y-110629700D02*
X144868900Y-110629700D01*
X140652500Y-110655100D02*
X142176500Y-110655100D01*
X143167100Y-110655100D02*
X144970500Y-110655100D01*
X140500100Y-110680500D02*
X142151100Y-110680500D01*
X143192500Y-110680500D02*
X144970500Y-110680500D01*
X140373100Y-110705900D02*
X142125700Y-110705900D01*
X143217900Y-110705900D02*
X144995900Y-110705900D01*
X140347700Y-110731300D02*
X142125700Y-110731300D01*
X143217900Y-110731300D02*
X144995900Y-110731300D01*
X140347700Y-110756700D02*
X142100300Y-110756700D01*
X143243300Y-110756700D02*
X144995900Y-110756700D01*
X140347700Y-110782100D02*
X142100300Y-110782100D01*
X143243300Y-110782100D02*
X144995900Y-110782100D01*
X140347700Y-110807500D02*
X142074900Y-110807500D01*
X143268700Y-110807500D02*
X144995900Y-110807500D01*
X140347700Y-110832900D02*
X142074900Y-110832900D01*
X143268700Y-110832900D02*
X144995900Y-110832900D01*
X140347700Y-110858300D02*
X142074900Y-110858300D01*
X143268700Y-110858300D02*
X144995900Y-110858300D01*
X140347700Y-110883700D02*
X142074900Y-110883700D01*
X143294100Y-110883700D02*
X144995900Y-110883700D01*
X140347700Y-110909100D02*
X142049500Y-110909100D01*
X143294100Y-110909100D02*
X144995900Y-110909100D01*
X140347700Y-110934500D02*
X142049500Y-110934500D01*
X143294100Y-110934500D02*
X145021300Y-110934500D01*
X140322300Y-110959900D02*
X142049500Y-110959900D01*
X143294100Y-110959900D02*
X145021300Y-110959900D01*
X140322300Y-110985300D02*
X142049500Y-110985300D01*
X143294100Y-110985300D02*
X145021300Y-110985300D01*
X140322300Y-111010700D02*
X142049500Y-111010700D01*
X143294100Y-111010700D02*
X145021300Y-111010700D01*
X140322300Y-111036100D02*
X142049500Y-111036100D01*
X143294100Y-111036100D02*
X145021300Y-111036100D01*
X140322300Y-111061500D02*
X142049500Y-111061500D01*
X143294100Y-111061500D02*
X145021300Y-111061500D01*
X140322300Y-111086900D02*
X142049500Y-111086900D01*
X143294100Y-111086900D02*
X145021300Y-111086900D01*
X140322300Y-111112300D02*
X142049500Y-111112300D01*
X143294100Y-111112300D02*
X145021300Y-111112300D01*
X140322300Y-111137700D02*
X142049500Y-111137700D01*
X143294100Y-111137700D02*
X145021300Y-111137700D01*
X140322300Y-111163100D02*
X142074900Y-111163100D01*
X143294100Y-111163100D02*
X145021300Y-111163100D01*
X140347700Y-111188500D02*
X142074900Y-111188500D01*
X143268700Y-111188500D02*
X145021300Y-111188500D01*
X140347700Y-111213900D02*
X142074900Y-111213900D01*
X143268700Y-111213900D02*
X144995900Y-111213900D01*
X140347700Y-111239300D02*
X142100300Y-111239300D01*
X143268700Y-111239300D02*
X144995900Y-111239300D01*
X140347700Y-111264700D02*
X142100300Y-111264700D01*
X143243300Y-111264700D02*
X144995900Y-111264700D01*
X140347700Y-111290100D02*
X142100300Y-111290100D01*
X143243300Y-111290100D02*
X144970500Y-111290100D01*
X140347700Y-111315500D02*
X142125700Y-111315500D01*
X143217900Y-111315500D02*
X144818100Y-111315500D01*
X140449300Y-111340900D02*
X142151100Y-111340900D01*
X143217900Y-111340900D02*
X144665700Y-111340900D01*
X140576300Y-111366300D02*
X142151100Y-111366300D01*
X143192500Y-111366300D02*
X144487900Y-111366300D01*
X140728700Y-111391700D02*
X142176500Y-111391700D01*
X143167100Y-111391700D02*
X144386300Y-111391700D01*
X140855700Y-111417100D02*
X142201900Y-111417100D01*
X143141700Y-111417100D02*
X144386300Y-111417100D01*
X140957300Y-111442500D02*
X142227300Y-111442500D01*
X143141700Y-111442500D02*
X144386300Y-111442500D01*
X140982700Y-111467900D02*
X142227300Y-111467900D01*
X143116300Y-111467900D02*
X144360900Y-111467900D01*
X140982700Y-111493300D02*
X142278100Y-111493300D01*
X143065500Y-111493300D02*
X144360900Y-111493300D01*
X140982700Y-111518700D02*
X142303500Y-111518700D01*
X143040100Y-111518700D02*
X144360900Y-111518700D01*
X140982700Y-111544100D02*
X142328900Y-111544100D01*
X143014700Y-111544100D02*
X144360900Y-111544100D01*
X141008100Y-111569500D02*
X142379700Y-111569500D01*
X142963900Y-111569500D02*
X144335500Y-111569500D01*
X141008100Y-111594900D02*
X142430500Y-111594900D01*
X142913100Y-111594900D02*
X144335500Y-111594900D01*
X141008100Y-111620300D02*
X142455900Y-111620300D01*
X142913100Y-111620300D02*
X144335500Y-111620300D01*
X141033500Y-111645700D02*
X142455900Y-111645700D01*
X142913100Y-111645700D02*
X144310100Y-111645700D01*
X141033500Y-111671100D02*
X142455900Y-111671100D01*
X142913100Y-111671100D02*
X144310100Y-111671100D01*
X141033500Y-111696500D02*
X142430500Y-111696500D01*
X142938500Y-111696500D02*
X144284700Y-111696500D01*
X141058900Y-111721900D02*
X142430500Y-111721900D01*
X142938500Y-111721900D02*
X144284700Y-111721900D01*
X141058900Y-111747300D02*
X142430500Y-111747300D01*
X142938500Y-111747300D02*
X144284700Y-111747300D01*
X141084300Y-111772700D02*
X142405100Y-111772700D01*
X142963900Y-111772700D02*
X144259300Y-111772700D01*
X141084300Y-111798100D02*
X142405100Y-111798100D01*
X142963900Y-111798100D02*
X144259300Y-111798100D01*
X141109700Y-111823500D02*
X142379700Y-111823500D01*
X142989300Y-111823500D02*
X144233900Y-111823500D01*
X141109700Y-111848900D02*
X142379700Y-111848900D01*
X142989300Y-111848900D02*
X144233900Y-111848900D01*
X141135100Y-111874300D02*
X142379700Y-111874300D01*
X142989300Y-111874300D02*
X144208500Y-111874300D01*
X141135100Y-111899700D02*
X142354300Y-111899700D01*
X143014700Y-111899700D02*
X144233900Y-111899700D01*
X141160500Y-111925100D02*
X142354300Y-111925100D01*
X143014700Y-111925100D02*
X144233900Y-111925100D01*
X141160500Y-111950500D02*
X142354300Y-111950500D01*
X143040100Y-111950500D02*
X144259300Y-111950500D01*
X141160500Y-111975900D02*
X142328900Y-111975900D01*
X143040100Y-111975900D02*
X144284700Y-111975900D01*
X141160500Y-112001300D02*
X142328900Y-112001300D01*
X143040100Y-112001300D02*
X144310100Y-112001300D01*
X141135100Y-112026700D02*
X142328900Y-112026700D01*
X143065500Y-112026700D02*
X144310100Y-112026700D01*
X141109700Y-112052100D02*
X142303500Y-112052100D01*
X143065500Y-112052100D02*
X144335500Y-112052100D01*
X141084300Y-112077500D02*
X142303500Y-112077500D01*
X143065500Y-112077500D02*
X144360900Y-112077500D01*
X141084300Y-112102900D02*
X142303500Y-112102900D01*
X143090900Y-112102900D02*
X144360900Y-112102900D01*
X141058900Y-112128300D02*
X142278100Y-112128300D01*
X143090900Y-112128300D02*
X144386300Y-112128300D01*
X141033500Y-112153700D02*
X142278100Y-112153700D01*
X143116300Y-112153700D02*
X144411700Y-112153700D01*
X141008100Y-112179100D02*
X142278100Y-112179100D01*
X143116300Y-112179100D02*
X144411700Y-112179100D01*
X141008100Y-112204500D02*
X142252700Y-112204500D01*
X143116300Y-112204500D02*
X144437100Y-112204500D01*
X140982700Y-112229900D02*
X142252700Y-112229900D01*
X143141700Y-112229900D02*
X144462500Y-112229900D01*
X140957300Y-112255300D02*
X142227300Y-112255300D01*
X143141700Y-112255300D02*
X144462500Y-112255300D01*
X140957300Y-112280700D02*
X142227300Y-112280700D01*
X143167100Y-112280700D02*
X144487900Y-112280700D01*
X140931900Y-112306100D02*
X142227300Y-112306100D01*
X143167100Y-112306100D02*
X144513300Y-112306100D01*
X140906500Y-112331500D02*
X142201900Y-112331500D01*
X143167100Y-112331500D02*
X144538700Y-112331500D01*
X140881100Y-112356900D02*
X142201900Y-112356900D01*
X143192500Y-112356900D02*
X144538700Y-112356900D01*
X140881100Y-112382300D02*
X142201900Y-112382300D01*
X143192500Y-112382300D02*
X144564100Y-112382300D01*
X140855700Y-112407700D02*
X142176500Y-112407700D01*
X143217900Y-112407700D02*
X144564100Y-112407700D01*
X140830300Y-112433100D02*
X142176500Y-112433100D01*
X143217900Y-112433100D02*
X144564100Y-112433100D01*
X140830300Y-112458500D02*
X142176500Y-112458500D01*
X143217900Y-112458500D02*
X144538700Y-112458500D01*
X140830300Y-112483900D02*
X142151100Y-112483900D01*
X143243300Y-112483900D02*
X144513300Y-112483900D01*
X140830300Y-112509300D02*
X142151100Y-112509300D01*
X143243300Y-112509300D02*
X144487900Y-112509300D01*
X140855700Y-112534700D02*
X142151100Y-112534700D01*
X143243300Y-112534700D02*
X144462500Y-112534700D01*
X140881100Y-112560100D02*
X142125700Y-112560100D01*
X143268700Y-112560100D02*
X144462500Y-112560100D01*
X140906500Y-112585500D02*
X142125700Y-112585500D01*
X143268700Y-112585500D02*
X143624300Y-112585500D01*
X143675100Y-112585500D02*
X144437100Y-112585500D01*
X140931900Y-112610900D02*
X142125700Y-112610900D01*
X143294100Y-112610900D02*
X143548100Y-112610900D01*
X143751300Y-112610900D02*
X144411700Y-112610900D01*
X140957300Y-112636300D02*
X141719300Y-112636300D01*
X141846300Y-112636300D02*
X142100300Y-112636300D01*
X143294100Y-112636300D02*
X143497300Y-112636300D01*
X143776700Y-112636300D02*
X144386300Y-112636300D01*
X140982700Y-112661700D02*
X141668500Y-112661700D01*
X141922500Y-112661700D02*
X142100300Y-112661700D01*
X143294100Y-112661700D02*
X143446500Y-112661700D01*
X143802100Y-112661700D02*
X144360900Y-112661700D01*
X141008100Y-112687100D02*
X141617700Y-112687100D01*
X141973300Y-112687100D02*
X142074900Y-112687100D01*
X143319500Y-112687100D02*
X143395700Y-112687100D01*
X143827500Y-112687100D02*
X144386300Y-112687100D01*
X141033500Y-112712500D02*
X141592300Y-112712500D01*
X142024100Y-112712500D02*
X142074900Y-112712500D01*
X143319500Y-112712500D02*
X143344900Y-112712500D01*
X143827500Y-112712500D02*
X144386300Y-112712500D01*
X141058900Y-112737900D02*
X141541500Y-112737900D01*
X143878300Y-112737900D02*
X144386300Y-112737900D01*
X141084300Y-112763300D02*
X141516100Y-112763300D01*
X143903700Y-112763300D02*
X144386300Y-112763300D01*
X141084300Y-112788700D02*
X141465300Y-112788700D01*
X143929100Y-112788700D02*
X144386300Y-112788700D01*
X141084300Y-112814100D02*
X141439900Y-112814100D01*
X143979900Y-112814100D02*
X144386300Y-112814100D01*
X141084300Y-112839500D02*
X141414500Y-112839500D01*
X144030700Y-112839500D02*
X144360900Y-112839500D01*
X141109700Y-112864900D02*
X141389100Y-112864900D01*
X144081500Y-112864900D02*
X144360900Y-112864900D01*
X141109700Y-112890300D02*
X141363700Y-112890300D01*
X144106900Y-112890300D02*
X144335500Y-112890300D01*
X141135100Y-112915700D02*
X141363700Y-112915700D01*
X144132300Y-112915700D02*
X144335500Y-112915700D01*
X141160500Y-112941100D02*
X141338300Y-112941100D01*
X144157700Y-112941100D02*
X144310100Y-112941100D01*
X141185900Y-112966500D02*
X141338300Y-112966500D01*
X144183100Y-112966500D02*
X144284700Y-112966500D01*
X141211300Y-112991900D02*
X141312900Y-112991900D01*
X144208500Y-112991900D02*
X144259300Y-112991900D01*
X141236700Y-113017300D02*
X141312900Y-113017300D01*
X155706440Y-111634920D02*
X157357440Y-111634920D01*
X155681040Y-111660320D02*
X157357440Y-111660320D01*
X155655640Y-111685720D02*
X157357440Y-111685720D01*
X155630240Y-111711120D02*
X157357440Y-111711120D01*
X155604840Y-111736520D02*
X157357440Y-111736520D01*
X155579440Y-111761920D02*
X157357440Y-111761920D01*
X155554040Y-111787320D02*
X157357440Y-111787320D01*
X159084640Y-111787320D02*
X159110040Y-111787320D01*
X155528640Y-111812720D02*
X155833440Y-111812720D01*
X159059240Y-111812720D02*
X159135440Y-111812720D01*
X155503240Y-111838120D02*
X155808040Y-111838120D01*
X159059240Y-111838120D02*
X159135440Y-111838120D01*
X155477840Y-111863520D02*
X155782640Y-111863520D01*
X159033840Y-111863520D02*
X159160840Y-111863520D01*
X155452440Y-111888920D02*
X155757240Y-111888920D01*
X155833440Y-111888920D02*
X157509840Y-111888920D01*
X159033840Y-111888920D02*
X159160840Y-111888920D01*
X155427040Y-111914320D02*
X155731840Y-111914320D01*
X155808040Y-111914320D02*
X157509840Y-111914320D01*
X159008440Y-111914320D02*
X159186240Y-111914320D01*
X155401640Y-111939720D02*
X155706440Y-111939720D01*
X155782640Y-111939720D02*
X157459040Y-111939720D01*
X159008440Y-111939720D02*
X159186240Y-111939720D01*
X155376240Y-111965120D02*
X155681040Y-111965120D01*
X155757240Y-111965120D02*
X157433640Y-111965120D01*
X158983040Y-111965120D02*
X159211640Y-111965120D01*
X155350840Y-111990520D02*
X155655640Y-111990520D01*
X155731840Y-111990520D02*
X157408240Y-111990520D01*
X158983040Y-111990520D02*
X159211640Y-111990520D01*
X155325440Y-112015920D02*
X155630240Y-112015920D01*
X155706440Y-112015920D02*
X157382840Y-112015920D01*
X158957640Y-112015920D02*
X159237040Y-112015920D01*
X155300040Y-112041320D02*
X155604840Y-112041320D01*
X155681040Y-112041320D02*
X157357440Y-112041320D01*
X158957640Y-112041320D02*
X159237040Y-112041320D01*
X155274640Y-112066720D02*
X155579440Y-112066720D01*
X155655640Y-112066720D02*
X157332040Y-112066720D01*
X158932240Y-112066720D02*
X159262440Y-112066720D01*
X155249240Y-112092120D02*
X155554040Y-112092120D01*
X155630240Y-112092120D02*
X157306640Y-112092120D01*
X158932240Y-112092120D02*
X159262440Y-112092120D01*
X155223840Y-112117520D02*
X155528640Y-112117520D01*
X155604840Y-112117520D02*
X157281240Y-112117520D01*
X157433640Y-112117520D02*
X157509840Y-112117520D01*
X158906840Y-112117520D02*
X159287840Y-112117520D01*
X155198440Y-112142920D02*
X155503240Y-112142920D01*
X155579440Y-112142920D02*
X157255840Y-112142920D01*
X157433640Y-112142920D02*
X157509840Y-112142920D01*
X158906840Y-112142920D02*
X159287840Y-112142920D01*
X155198440Y-112168320D02*
X155480000Y-112168320D01*
X155554040Y-112168320D02*
X157230440Y-112168320D01*
X157382840Y-112168320D02*
X157509840Y-112168320D01*
X158881440Y-112168320D02*
X159313240Y-112168320D01*
X155198440Y-112193720D02*
X155450000Y-112193720D01*
X155528640Y-112193720D02*
X157205040Y-112193720D01*
X157357440Y-112193720D02*
X157509840Y-112193720D01*
X158881440Y-112193720D02*
X159313240Y-112193720D01*
X161472240Y-112193720D02*
X161726240Y-112193720D01*
X161904040Y-112193720D02*
X162158040Y-112193720D01*
X163174040Y-112193720D02*
X163453440Y-112193720D01*
X164469440Y-112193720D02*
X164926640Y-112193720D01*
X165485440Y-112193720D02*
X165739440Y-112193720D01*
X166272840Y-112193720D02*
X166628440Y-112193720D01*
X155198440Y-112219120D02*
X155427040Y-112219120D01*
X155503240Y-112219120D02*
X157179640Y-112219120D01*
X157332040Y-112219120D02*
X157509840Y-112219120D01*
X158856040Y-112219120D02*
X159338640Y-112219120D01*
X160405440Y-112219120D02*
X160837240Y-112219120D01*
X161472240Y-112219120D02*
X161726240Y-112219120D01*
X161904040Y-112219120D02*
X162158040Y-112219120D01*
X163148640Y-112219120D02*
X163453440Y-112219120D01*
X164393240Y-112219120D02*
X165028240Y-112219120D01*
X165485440Y-112219120D02*
X165739440Y-112219120D01*
X166247440Y-112219120D02*
X166603040Y-112219120D01*
X155198440Y-112244520D02*
X155410000Y-112244520D01*
X155477840Y-112244520D02*
X157154240Y-112244520D01*
X157306640Y-112244520D02*
X157509840Y-112244520D01*
X158856040Y-112244520D02*
X159338640Y-112244520D01*
X160303840Y-112244520D02*
X160913440Y-112244520D01*
X161472240Y-112244520D02*
X161726240Y-112244520D01*
X161904040Y-112244520D02*
X162158040Y-112244520D01*
X163148640Y-112244520D02*
X163478840Y-112244520D01*
X164342440Y-112244520D02*
X165079040Y-112244520D01*
X165485440Y-112244520D02*
X165739440Y-112244520D01*
X166222040Y-112244520D02*
X166577640Y-112244520D01*
X155198440Y-112269920D02*
X155390000Y-112269920D01*
X155452440Y-112269920D02*
X157128840Y-112269920D01*
X157281240Y-112269920D02*
X157509840Y-112269920D01*
X158830640Y-112269920D02*
X159364040Y-112269920D01*
X160253040Y-112269920D02*
X160989640Y-112269920D01*
X161472240Y-112269920D02*
X161726240Y-112269920D01*
X161904040Y-112269920D02*
X162158040Y-112269920D01*
X163148640Y-112269920D02*
X163478840Y-112269920D01*
X164291640Y-112269920D02*
X165129840Y-112269920D01*
X165485440Y-112269920D02*
X165739440Y-112269920D01*
X166196640Y-112269920D02*
X166552240Y-112269920D01*
X155198440Y-112295320D02*
X155376240Y-112295320D01*
X155452440Y-112295320D02*
X157103440Y-112295320D01*
X157255840Y-112295320D02*
X157459040Y-112295320D01*
X158830640Y-112295320D02*
X159364040Y-112295320D01*
X160202240Y-112295320D02*
X161040440Y-112295320D01*
X161472240Y-112295320D02*
X161726240Y-112295320D01*
X161904040Y-112295320D02*
X162158040Y-112295320D01*
X163123240Y-112295320D02*
X163478840Y-112295320D01*
X164240840Y-112295320D02*
X165129840Y-112295320D01*
X165485440Y-112295320D02*
X165739440Y-112295320D01*
X166171240Y-112295320D02*
X166526840Y-112295320D01*
X155198440Y-112320720D02*
X155376240Y-112320720D01*
X155452440Y-112320720D02*
X157078040Y-112320720D01*
X157230440Y-112320720D02*
X157433640Y-112320720D01*
X158805240Y-112320720D02*
X159389440Y-112320720D01*
X160176840Y-112320720D02*
X161091240Y-112320720D01*
X161472240Y-112320720D02*
X161726240Y-112320720D01*
X161904040Y-112320720D02*
X162158040Y-112320720D01*
X163123240Y-112320720D02*
X163504240Y-112320720D01*
X164215440Y-112320720D02*
X165129840Y-112320720D01*
X165485440Y-112320720D02*
X165739440Y-112320720D01*
X166145840Y-112320720D02*
X166501440Y-112320720D01*
X155198440Y-112346120D02*
X155376240Y-112346120D01*
X155452440Y-112346120D02*
X157052640Y-112346120D01*
X157205040Y-112346120D02*
X157408240Y-112346120D01*
X158805240Y-112346120D02*
X159389440Y-112346120D01*
X160126040Y-112346120D02*
X161116640Y-112346120D01*
X161472240Y-112346120D02*
X161726240Y-112346120D01*
X161904040Y-112346120D02*
X162158040Y-112346120D01*
X163123240Y-112346120D02*
X163504240Y-112346120D01*
X164164640Y-112346120D02*
X165104440Y-112346120D01*
X165485440Y-112346120D02*
X165739440Y-112346120D01*
X166120440Y-112346120D02*
X166476040Y-112346120D01*
X155198440Y-112371520D02*
X155376240Y-112371520D01*
X155452440Y-112371520D02*
X157027240Y-112371520D01*
X157179640Y-112371520D02*
X157382840Y-112371520D01*
X158779840Y-112371520D02*
X159414840Y-112371520D01*
X160100640Y-112371520D02*
X161116640Y-112371520D01*
X161472240Y-112371520D02*
X161726240Y-112371520D01*
X161904040Y-112371520D02*
X162158040Y-112371520D01*
X163097840Y-112371520D02*
X163529640Y-112371520D01*
X164139240Y-112371520D02*
X165104440Y-112371520D01*
X165485440Y-112371520D02*
X165739440Y-112371520D01*
X166120440Y-112371520D02*
X166450640Y-112371520D01*
X155198440Y-112396920D02*
X155376240Y-112396920D01*
X155452440Y-112396920D02*
X157001840Y-112396920D01*
X157154240Y-112396920D02*
X157357440Y-112396920D01*
X158779840Y-112396920D02*
X159414840Y-112396920D01*
X160075240Y-112396920D02*
X161116640Y-112396920D01*
X161472240Y-112396920D02*
X161726240Y-112396920D01*
X161904040Y-112396920D02*
X162158040Y-112396920D01*
X163097840Y-112396920D02*
X163529640Y-112396920D01*
X164113840Y-112396920D02*
X165079040Y-112396920D01*
X165485440Y-112396920D02*
X165739440Y-112396920D01*
X166095040Y-112396920D02*
X166425240Y-112396920D01*
X155198440Y-112422320D02*
X155376240Y-112422320D01*
X155452440Y-112422320D02*
X156976440Y-112422320D01*
X157128840Y-112422320D02*
X157332040Y-112422320D01*
X157459040Y-112422320D02*
X157509840Y-112422320D01*
X158754440Y-112422320D02*
X159440240Y-112422320D01*
X160049840Y-112422320D02*
X161091240Y-112422320D01*
X161472240Y-112422320D02*
X161726240Y-112422320D01*
X161904040Y-112422320D02*
X162158040Y-112422320D01*
X163097840Y-112422320D02*
X163529640Y-112422320D01*
X164113840Y-112422320D02*
X165079040Y-112422320D01*
X165485440Y-112422320D02*
X165739440Y-112422320D01*
X166069640Y-112422320D02*
X166399840Y-112422320D01*
X155198440Y-112447720D02*
X155376240Y-112447720D01*
X155452440Y-112447720D02*
X156951040Y-112447720D01*
X157103440Y-112447720D02*
X157306640Y-112447720D01*
X157433640Y-112447720D02*
X157509840Y-112447720D01*
X158754440Y-112447720D02*
X159440240Y-112447720D01*
X160024440Y-112447720D02*
X161065840Y-112447720D01*
X161472240Y-112447720D02*
X161726240Y-112447720D01*
X161904040Y-112447720D02*
X162158040Y-112447720D01*
X163072440Y-112447720D02*
X163555040Y-112447720D01*
X164088440Y-112447720D02*
X164545640Y-112447720D01*
X164901240Y-112447720D02*
X165079040Y-112447720D01*
X165485440Y-112447720D02*
X165739440Y-112447720D01*
X166044240Y-112447720D02*
X166374440Y-112447720D01*
X155198440Y-112473120D02*
X155376240Y-112473120D01*
X155452440Y-112473120D02*
X156925640Y-112473120D01*
X157078040Y-112473120D02*
X157281240Y-112473120D01*
X157408240Y-112473120D02*
X157509840Y-112473120D01*
X158729040Y-112473120D02*
X159084640Y-112473120D01*
X159110040Y-112473120D02*
X159465640Y-112473120D01*
X160024440Y-112473120D02*
X160481640Y-112473120D01*
X160786440Y-112473120D02*
X161065840Y-112473120D01*
X161472240Y-112473120D02*
X161726240Y-112473120D01*
X161904040Y-112473120D02*
X162158040Y-112473120D01*
X163072440Y-112473120D02*
X163555040Y-112473120D01*
X164063040Y-112473120D02*
X164494840Y-112473120D01*
X164977440Y-112473120D02*
X165053640Y-112473120D01*
X165485440Y-112473120D02*
X165739440Y-112473120D01*
X166018840Y-112473120D02*
X166349040Y-112473120D01*
X155198440Y-112498520D02*
X155376240Y-112498520D01*
X155452440Y-112498520D02*
X156366840Y-112498520D01*
X156570040Y-112498520D02*
X156900240Y-112498520D01*
X157052640Y-112498520D02*
X157255840Y-112498520D01*
X157382840Y-112498520D02*
X157509840Y-112498520D01*
X158729040Y-112498520D02*
X159084640Y-112498520D01*
X159110040Y-112498520D02*
X159465640Y-112498520D01*
X159999040Y-112498520D02*
X160405440Y-112498520D01*
X160888040Y-112498520D02*
X161040440Y-112498520D01*
X161472240Y-112498520D02*
X161726240Y-112498520D01*
X161904040Y-112498520D02*
X162158040Y-112498520D01*
X163047040Y-112498520D02*
X163555040Y-112498520D01*
X164037640Y-112498520D02*
X164444040Y-112498520D01*
X165485440Y-112498520D02*
X165739440Y-112498520D01*
X165993440Y-112498520D02*
X166349040Y-112498520D01*
X155198440Y-112523920D02*
X155376240Y-112523920D01*
X155452440Y-112523920D02*
X156290640Y-112523920D01*
X156646240Y-112523920D02*
X156874840Y-112523920D01*
X157027240Y-112523920D02*
X157230440Y-112523920D01*
X157357440Y-112523920D02*
X157509840Y-112523920D01*
X158703640Y-112523920D02*
X159059240Y-112523920D01*
X159135440Y-112523920D02*
X159491040Y-112523920D01*
X159973640Y-112523920D02*
X160380040Y-112523920D01*
X160938840Y-112523920D02*
X161040440Y-112523920D01*
X161472240Y-112523920D02*
X161726240Y-112523920D01*
X161904040Y-112523920D02*
X162158040Y-112523920D01*
X163047040Y-112523920D02*
X163580440Y-112523920D01*
X164037640Y-112523920D02*
X164393240Y-112523920D01*
X165485440Y-112523920D02*
X165739440Y-112523920D01*
X165968040Y-112523920D02*
X166323640Y-112523920D01*
X155198440Y-112549320D02*
X155376240Y-112549320D01*
X155452440Y-112549320D02*
X156265240Y-112549320D01*
X156697040Y-112549320D02*
X156849440Y-112549320D01*
X157001840Y-112549320D02*
X157205040Y-112549320D01*
X157332040Y-112549320D02*
X157509840Y-112549320D01*
X158703640Y-112549320D02*
X159059240Y-112549320D01*
X159135440Y-112549320D02*
X159491040Y-112549320D01*
X159973640Y-112549320D02*
X160329240Y-112549320D01*
X160989640Y-112549320D02*
X161015040Y-112549320D01*
X161472240Y-112549320D02*
X161726240Y-112549320D01*
X161904040Y-112549320D02*
X162158040Y-112549320D01*
X163047040Y-112549320D02*
X163301040Y-112549320D01*
X163326440Y-112549320D02*
X163580440Y-112549320D01*
X164012240Y-112549320D02*
X164367840Y-112549320D01*
X165485440Y-112549320D02*
X165739440Y-112549320D01*
X165942640Y-112549320D02*
X166298240Y-112549320D01*
X155198440Y-112574720D02*
X155376240Y-112574720D01*
X155452440Y-112574720D02*
X156214440Y-112574720D01*
X156722440Y-112574720D02*
X156824040Y-112574720D01*
X156976440Y-112574720D02*
X157179640Y-112574720D01*
X157306640Y-112574720D02*
X157509840Y-112574720D01*
X158678240Y-112574720D02*
X159033840Y-112574720D01*
X159160840Y-112574720D02*
X159516440Y-112574720D01*
X159948240Y-112574720D02*
X160303840Y-112574720D01*
X161472240Y-112574720D02*
X161726240Y-112574720D01*
X161904040Y-112574720D02*
X162158040Y-112574720D01*
X163021640Y-112574720D02*
X163275640Y-112574720D01*
X163326440Y-112574720D02*
X163605840Y-112574720D01*
X164012240Y-112574720D02*
X164342440Y-112574720D01*
X165485440Y-112574720D02*
X165739440Y-112574720D01*
X165942640Y-112574720D02*
X166272840Y-112574720D01*
X155198440Y-112600120D02*
X155376240Y-112600120D01*
X155452440Y-112600120D02*
X156189040Y-112600120D01*
X156747840Y-112600120D02*
X156798640Y-112600120D01*
X156951040Y-112600120D02*
X157154240Y-112600120D01*
X157281240Y-112600120D02*
X157509840Y-112600120D01*
X158678240Y-112600120D02*
X159033840Y-112600120D01*
X159160840Y-112600120D02*
X159516440Y-112600120D01*
X159948240Y-112600120D02*
X160278440Y-112600120D01*
X161472240Y-112600120D02*
X161726240Y-112600120D01*
X161904040Y-112600120D02*
X162158040Y-112600120D01*
X163021640Y-112600120D02*
X163275640Y-112600120D01*
X163326440Y-112600120D02*
X163605840Y-112600120D01*
X163986840Y-112600120D02*
X164317040Y-112600120D01*
X165485440Y-112600120D02*
X165739440Y-112600120D01*
X165917240Y-112600120D02*
X166247440Y-112600120D01*
X155198440Y-112625520D02*
X155376240Y-112625520D01*
X155452440Y-112625520D02*
X156163640Y-112625520D01*
X156392240Y-112625520D02*
X156570040Y-112625520D01*
X156773240Y-112625520D02*
X156798640Y-112625520D01*
X156925640Y-112625520D02*
X157128840Y-112625520D01*
X157255840Y-112625520D02*
X157509840Y-112625520D01*
X158652840Y-112625520D02*
X159033840Y-112625520D01*
X159186240Y-112625520D02*
X159541840Y-112625520D01*
X159922840Y-112625520D02*
X160253040Y-112625520D01*
X161472240Y-112625520D02*
X161726240Y-112625520D01*
X161904040Y-112625520D02*
X162158040Y-112625520D01*
X163021640Y-112625520D02*
X163275640Y-112625520D01*
X163351840Y-112625520D02*
X163605840Y-112625520D01*
X163986840Y-112625520D02*
X164317040Y-112625520D01*
X165485440Y-112625520D02*
X165739440Y-112625520D01*
X165891840Y-112625520D02*
X166222040Y-112625520D01*
X155198440Y-112650920D02*
X155376240Y-112650920D01*
X155452440Y-112650920D02*
X156138240Y-112650920D01*
X156341440Y-112650920D02*
X156620840Y-112650920D01*
X156900240Y-112650920D02*
X157103440Y-112650920D01*
X157230440Y-112650920D02*
X157509840Y-112650920D01*
X158652840Y-112650920D02*
X159008440Y-112650920D01*
X159186240Y-112650920D02*
X159541840Y-112650920D01*
X159922840Y-112650920D02*
X160227640Y-112650920D01*
X161472240Y-112650920D02*
X161726240Y-112650920D01*
X161904040Y-112650920D02*
X162158040Y-112650920D01*
X162996240Y-112650920D02*
X163250240Y-112650920D01*
X163351840Y-112650920D02*
X163631240Y-112650920D01*
X163986840Y-112650920D02*
X164291640Y-112650920D01*
X165485440Y-112650920D02*
X165739440Y-112650920D01*
X165866440Y-112650920D02*
X166196640Y-112650920D01*
X155198440Y-112676320D02*
X155376240Y-112676320D01*
X155452440Y-112676320D02*
X156112840Y-112676320D01*
X156316040Y-112676320D02*
X156646240Y-112676320D01*
X156874840Y-112676320D02*
X157078040Y-112676320D01*
X157205040Y-112676320D02*
X157509840Y-112676320D01*
X158627440Y-112676320D02*
X159008440Y-112676320D01*
X159211640Y-112676320D02*
X159567240Y-112676320D01*
X159922840Y-112676320D02*
X160227640Y-112676320D01*
X161472240Y-112676320D02*
X161726240Y-112676320D01*
X161904040Y-112676320D02*
X162158040Y-112676320D01*
X162996240Y-112676320D02*
X163250240Y-112676320D01*
X163351840Y-112676320D02*
X163631240Y-112676320D01*
X163986840Y-112676320D02*
X164291640Y-112676320D01*
X165485440Y-112676320D02*
X165739440Y-112676320D01*
X165841040Y-112676320D02*
X166171240Y-112676320D01*
X155198440Y-112701720D02*
X155376240Y-112701720D01*
X155452440Y-112701720D02*
X156087440Y-112701720D01*
X156290640Y-112701720D02*
X156671640Y-112701720D01*
X156874840Y-112701720D02*
X157052640Y-112701720D01*
X157179640Y-112701720D02*
X157509840Y-112701720D01*
X158627440Y-112701720D02*
X158983040Y-112701720D01*
X159211640Y-112701720D02*
X159592640Y-112701720D01*
X159922840Y-112701720D02*
X160202240Y-112701720D01*
X161472240Y-112701720D02*
X161726240Y-112701720D01*
X161904040Y-112701720D02*
X162158040Y-112701720D01*
X162970840Y-112701720D02*
X163250240Y-112701720D01*
X163377240Y-112701720D02*
X163631240Y-112701720D01*
X163961440Y-112701720D02*
X164266240Y-112701720D01*
X165485440Y-112701720D02*
X165739440Y-112701720D01*
X165815640Y-112701720D02*
X166145840Y-112701720D01*
X155198440Y-112727120D02*
X155376240Y-112727120D01*
X155452440Y-112727120D02*
X156062040Y-112727120D01*
X156265240Y-112727120D02*
X156697040Y-112727120D01*
X156874840Y-112727120D02*
X157027240Y-112727120D01*
X157154240Y-112727120D02*
X157509840Y-112727120D01*
X158602040Y-112727120D02*
X158983040Y-112727120D01*
X159237040Y-112727120D02*
X159592640Y-112727120D01*
X159897440Y-112727120D02*
X160202240Y-112727120D01*
X161472240Y-112727120D02*
X161726240Y-112727120D01*
X161904040Y-112727120D02*
X162158040Y-112727120D01*
X162970840Y-112727120D02*
X163224840Y-112727120D01*
X163377240Y-112727120D02*
X163656640Y-112727120D01*
X163961440Y-112727120D02*
X164266240Y-112727120D01*
X165485440Y-112727120D02*
X165739440Y-112727120D01*
X165790240Y-112727120D02*
X166120440Y-112727120D01*
X155198440Y-112752520D02*
X155376240Y-112752520D01*
X155452440Y-112752520D02*
X156036640Y-112752520D01*
X156265240Y-112752520D02*
X156697040Y-112752520D01*
X156874840Y-112752520D02*
X156976440Y-112752520D01*
X157128840Y-112752520D02*
X157509840Y-112752520D01*
X158602040Y-112752520D02*
X158957640Y-112752520D01*
X159237040Y-112752520D02*
X159618040Y-112752520D01*
X159897440Y-112752520D02*
X160202240Y-112752520D01*
X161472240Y-112752520D02*
X161726240Y-112752520D01*
X161904040Y-112752520D02*
X162158040Y-112752520D01*
X162970840Y-112752520D02*
X163224840Y-112752520D01*
X163377240Y-112752520D02*
X163656640Y-112752520D01*
X163961440Y-112752520D02*
X164240840Y-112752520D01*
X165485440Y-112752520D02*
X165739440Y-112752520D01*
X165764840Y-112752520D02*
X166095040Y-112752520D01*
X155198440Y-112777920D02*
X155376240Y-112777920D01*
X155452440Y-112777920D02*
X156011240Y-112777920D01*
X156239840Y-112777920D02*
X156697040Y-112777920D01*
X156874840Y-112777920D02*
X156951040Y-112777920D01*
X157103440Y-112777920D02*
X157509840Y-112777920D01*
X158576640Y-112777920D02*
X158957640Y-112777920D01*
X159262440Y-112777920D02*
X159618040Y-112777920D01*
X159897440Y-112777920D02*
X160176840Y-112777920D01*
X161472240Y-112777920D02*
X161726240Y-112777920D01*
X161904040Y-112777920D02*
X162158040Y-112777920D01*
X162945440Y-112777920D02*
X163224840Y-112777920D01*
X163402640Y-112777920D02*
X163656640Y-112777920D01*
X163961440Y-112777920D02*
X164240840Y-112777920D01*
X165485440Y-112777920D02*
X165739440Y-112777920D01*
X165764840Y-112777920D02*
X166069640Y-112777920D01*
X155198440Y-112803320D02*
X155376240Y-112803320D01*
X155452440Y-112803320D02*
X155985840Y-112803320D01*
X156239840Y-112803320D02*
X156722440Y-112803320D01*
X156874840Y-112803320D02*
X156925640Y-112803320D01*
X157078040Y-112803320D02*
X157509840Y-112803320D01*
X158576640Y-112803320D02*
X158932240Y-112803320D01*
X159262440Y-112803320D02*
X159643440Y-112803320D01*
X159897440Y-112803320D02*
X160176840Y-112803320D01*
X161472240Y-112803320D02*
X161726240Y-112803320D01*
X161904040Y-112803320D02*
X162158040Y-112803320D01*
X162945440Y-112803320D02*
X163199440Y-112803320D01*
X163402640Y-112803320D02*
X163682040Y-112803320D01*
X163961440Y-112803320D02*
X164240840Y-112803320D01*
X165485440Y-112803320D02*
X166044240Y-112803320D01*
X155198440Y-112828720D02*
X155376240Y-112828720D01*
X155452440Y-112828720D02*
X155960440Y-112828720D01*
X156239840Y-112828720D02*
X156722440Y-112828720D01*
X156874840Y-112828720D02*
X156900240Y-112828720D01*
X157052640Y-112828720D02*
X157509840Y-112828720D01*
X158551240Y-112828720D02*
X158932240Y-112828720D01*
X159287840Y-112828720D02*
X159643440Y-112828720D01*
X159897440Y-112828720D02*
X160176840Y-112828720D01*
X160532440Y-112828720D02*
X161167440Y-112828720D01*
X161472240Y-112828720D02*
X161726240Y-112828720D01*
X161904040Y-112828720D02*
X162158040Y-112828720D01*
X162945440Y-112828720D02*
X163199440Y-112828720D01*
X163402640Y-112828720D02*
X163682040Y-112828720D01*
X163961440Y-112828720D02*
X164240840Y-112828720D01*
X165485440Y-112828720D02*
X166018840Y-112828720D01*
X155198440Y-112854120D02*
X155376240Y-112854120D01*
X155452440Y-112854120D02*
X155935040Y-112854120D01*
X156239840Y-112854120D02*
X156722440Y-112854120D01*
X157027240Y-112854120D02*
X157509840Y-112854120D01*
X158551240Y-112854120D02*
X158906840Y-112854120D01*
X159287840Y-112854120D02*
X159668840Y-112854120D01*
X159897440Y-112854120D02*
X160176840Y-112854120D01*
X160532440Y-112854120D02*
X161167440Y-112854120D01*
X161472240Y-112854120D02*
X161726240Y-112854120D01*
X161904040Y-112854120D02*
X162158040Y-112854120D01*
X162920040Y-112854120D02*
X163199440Y-112854120D01*
X163428040Y-112854120D02*
X163707440Y-112854120D01*
X163961440Y-112854120D02*
X164240840Y-112854120D01*
X165485440Y-112854120D02*
X166018840Y-112854120D01*
X155198440Y-112879520D02*
X155376240Y-112879520D01*
X155452440Y-112879520D02*
X155909640Y-112879520D01*
X156239840Y-112879520D02*
X156722440Y-112879520D01*
X157001840Y-112879520D02*
X157509840Y-112879520D01*
X158525840Y-112879520D02*
X158906840Y-112879520D01*
X159313240Y-112879520D02*
X159668840Y-112879520D01*
X159897440Y-112879520D02*
X160176840Y-112879520D01*
X160532440Y-112879520D02*
X161167440Y-112879520D01*
X161472240Y-112879520D02*
X161726240Y-112879520D01*
X161904040Y-112879520D02*
X162158040Y-112879520D01*
X162920040Y-112879520D02*
X163174040Y-112879520D01*
X163428040Y-112879520D02*
X163707440Y-112879520D01*
X163961440Y-112879520D02*
X164240840Y-112879520D01*
X165485440Y-112879520D02*
X166044240Y-112879520D01*
X155198440Y-112904920D02*
X155376240Y-112904920D01*
X155452440Y-112904920D02*
X155884240Y-112904920D01*
X156062040Y-112904920D02*
X156087440Y-112904920D01*
X156239840Y-112904920D02*
X156722440Y-112904920D01*
X156976440Y-112904920D02*
X157509840Y-112904920D01*
X158525840Y-112904920D02*
X158881440Y-112904920D01*
X159313240Y-112904920D02*
X159694240Y-112904920D01*
X159897440Y-112904920D02*
X160176840Y-112904920D01*
X160532440Y-112904920D02*
X161167440Y-112904920D01*
X161472240Y-112904920D02*
X161726240Y-112904920D01*
X161904040Y-112904920D02*
X162158040Y-112904920D01*
X162920040Y-112904920D02*
X163174040Y-112904920D01*
X163428040Y-112904920D02*
X163707440Y-112904920D01*
X163961440Y-112904920D02*
X164240840Y-112904920D01*
X165485440Y-112904920D02*
X166069640Y-112904920D01*
X155198440Y-112930320D02*
X155376240Y-112930320D01*
X155452440Y-112930320D02*
X155858840Y-112930320D01*
X156036640Y-112930320D02*
X156087440Y-112930320D01*
X156239840Y-112930320D02*
X156722440Y-112930320D01*
X156951040Y-112930320D02*
X157509840Y-112930320D01*
X158500440Y-112930320D02*
X158881440Y-112930320D01*
X159338640Y-112930320D02*
X159694240Y-112930320D01*
X159897440Y-112930320D02*
X160176840Y-112930320D01*
X160532440Y-112930320D02*
X161167440Y-112930320D01*
X161472240Y-112930320D02*
X161726240Y-112930320D01*
X161904040Y-112930320D02*
X162158040Y-112930320D01*
X162894640Y-112930320D02*
X163174040Y-112930320D01*
X163453440Y-112930320D02*
X163732840Y-112930320D01*
X163961440Y-112930320D02*
X164240840Y-112930320D01*
X165485440Y-112930320D02*
X166095040Y-112930320D01*
X155198440Y-112955720D02*
X155376240Y-112955720D01*
X155452440Y-112955720D02*
X155833440Y-112955720D01*
X156011240Y-112955720D02*
X156087440Y-112955720D01*
X156239840Y-112955720D02*
X156722440Y-112955720D01*
X156925640Y-112955720D02*
X157509840Y-112955720D01*
X158500440Y-112955720D02*
X158881440Y-112955720D01*
X159338640Y-112955720D02*
X159719640Y-112955720D01*
X159897440Y-112955720D02*
X160176840Y-112955720D01*
X160532440Y-112955720D02*
X161167440Y-112955720D01*
X161472240Y-112955720D02*
X161726240Y-112955720D01*
X161904040Y-112955720D02*
X162158040Y-112955720D01*
X162894640Y-112955720D02*
X163148640Y-112955720D01*
X163453440Y-112955720D02*
X163732840Y-112955720D01*
X163961440Y-112955720D02*
X164240840Y-112955720D01*
X165485440Y-112955720D02*
X165739440Y-112955720D01*
X165764840Y-112955720D02*
X166095040Y-112955720D01*
X155198440Y-112981120D02*
X155376240Y-112981120D01*
X155452440Y-112981120D02*
X155808040Y-112981120D01*
X155985840Y-112981120D02*
X156087440Y-112981120D01*
X156239840Y-112981120D02*
X156697040Y-112981120D01*
X156900240Y-112981120D02*
X157509840Y-112981120D01*
X158475040Y-112981120D02*
X158856040Y-112981120D01*
X159364040Y-112981120D02*
X159719640Y-112981120D01*
X159897440Y-112981120D02*
X160176840Y-112981120D01*
X160532440Y-112981120D02*
X161167440Y-112981120D01*
X161472240Y-112981120D02*
X161726240Y-112981120D01*
X161904040Y-112981120D02*
X162158040Y-112981120D01*
X162869240Y-112981120D02*
X163148640Y-112981120D01*
X163453440Y-112981120D02*
X163732840Y-112981120D01*
X163961440Y-112981120D02*
X164240840Y-112981120D01*
X165485440Y-112981120D02*
X165739440Y-112981120D01*
X165790240Y-112981120D02*
X166120440Y-112981120D01*
X155198440Y-113006520D02*
X155376240Y-113006520D01*
X155452440Y-113006520D02*
X155782640Y-113006520D01*
X155960440Y-113006520D02*
X156087440Y-113006520D01*
X156265240Y-113006520D02*
X156697040Y-113006520D01*
X156874840Y-113006520D02*
X157509840Y-113006520D01*
X158475040Y-113006520D02*
X158856040Y-113006520D01*
X159364040Y-113006520D02*
X159745040Y-113006520D01*
X159897440Y-113006520D02*
X160176840Y-113006520D01*
X160532440Y-113006520D02*
X161167440Y-113006520D01*
X161472240Y-113006520D02*
X161726240Y-113006520D01*
X161904040Y-113006520D02*
X162158040Y-113006520D01*
X162869240Y-113006520D02*
X163758240Y-113006520D01*
X163961440Y-113006520D02*
X164240840Y-113006520D01*
X165485440Y-113006520D02*
X165739440Y-113006520D01*
X165815640Y-113006520D02*
X166145840Y-113006520D01*
X155198440Y-113031920D02*
X155376240Y-113031920D01*
X155452440Y-113031920D02*
X155757240Y-113031920D01*
X155935040Y-113031920D02*
X156087440Y-113031920D01*
X156265240Y-113031920D02*
X156671640Y-113031920D01*
X156849440Y-113031920D02*
X157509840Y-113031920D01*
X158449640Y-113031920D02*
X158830640Y-113031920D01*
X159389440Y-113031920D02*
X159745040Y-113031920D01*
X159897440Y-113031920D02*
X160176840Y-113031920D01*
X160532440Y-113031920D02*
X161167440Y-113031920D01*
X161472240Y-113031920D02*
X161726240Y-113031920D01*
X161904040Y-113031920D02*
X162158040Y-113031920D01*
X162869240Y-113031920D02*
X163758240Y-113031920D01*
X163961440Y-113031920D02*
X164266240Y-113031920D01*
X165485440Y-113031920D02*
X165739440Y-113031920D01*
X165841040Y-113031920D02*
X166171240Y-113031920D01*
X155198440Y-113057320D02*
X155376240Y-113057320D01*
X155452440Y-113057320D02*
X155731840Y-113057320D01*
X155909640Y-113057320D02*
X156087440Y-113057320D01*
X156290640Y-113057320D02*
X156671640Y-113057320D01*
X156824040Y-113057320D02*
X157509840Y-113057320D01*
X158449640Y-113057320D02*
X158830640Y-113057320D01*
X159389440Y-113057320D02*
X159770440Y-113057320D01*
X159897440Y-113057320D02*
X160202240Y-113057320D01*
X160913440Y-113057320D02*
X161167440Y-113057320D01*
X161472240Y-113057320D02*
X161726240Y-113057320D01*
X161904040Y-113057320D02*
X162158040Y-113057320D01*
X162843840Y-113057320D02*
X163758240Y-113057320D01*
X163961440Y-113057320D02*
X164266240Y-113057320D01*
X165485440Y-113057320D02*
X165739440Y-113057320D01*
X165841040Y-113057320D02*
X166196640Y-113057320D01*
X155198440Y-113082720D02*
X155376240Y-113082720D01*
X155452440Y-113082720D02*
X155706440Y-113082720D01*
X155884240Y-113082720D02*
X156062040Y-113082720D01*
X156316040Y-113082720D02*
X156620840Y-113082720D01*
X156798640Y-113082720D02*
X157509840Y-113082720D01*
X158424240Y-113082720D02*
X158805240Y-113082720D01*
X159414840Y-113082720D02*
X159770440Y-113082720D01*
X159897440Y-113082720D02*
X160202240Y-113082720D01*
X160913440Y-113082720D02*
X161167440Y-113082720D01*
X161472240Y-113082720D02*
X161726240Y-113082720D01*
X161904040Y-113082720D02*
X162158040Y-113082720D01*
X162843840Y-113082720D02*
X163783640Y-113082720D01*
X163961440Y-113082720D02*
X164266240Y-113082720D01*
X165485440Y-113082720D02*
X165739440Y-113082720D01*
X165866440Y-113082720D02*
X166222040Y-113082720D01*
X155198440Y-113108120D02*
X155376240Y-113108120D01*
X155452440Y-113108120D02*
X155681040Y-113108120D01*
X155858840Y-113108120D02*
X156036640Y-113108120D01*
X156366840Y-113108120D02*
X156595440Y-113108120D01*
X156773240Y-113108120D02*
X157509840Y-113108120D01*
X158424240Y-113108120D02*
X158805240Y-113108120D01*
X159414840Y-113108120D02*
X159795840Y-113108120D01*
X159922840Y-113108120D02*
X160202240Y-113108120D01*
X160913440Y-113108120D02*
X161167440Y-113108120D01*
X161472240Y-113108120D02*
X161726240Y-113108120D01*
X161904040Y-113108120D02*
X162158040Y-113108120D01*
X162843840Y-113108120D02*
X163783640Y-113108120D01*
X163986840Y-113108120D02*
X164291640Y-113108120D01*
X165485440Y-113108120D02*
X165739440Y-113108120D01*
X165891840Y-113108120D02*
X166247440Y-113108120D01*
X155198440Y-113133520D02*
X155376240Y-113133520D01*
X155452440Y-113133520D02*
X155681040Y-113133520D01*
X155833440Y-113133520D02*
X156011240Y-113133520D01*
X156163640Y-113133520D02*
X156189040Y-113133520D01*
X156443040Y-113133520D02*
X156493840Y-113133520D01*
X156773240Y-113133520D02*
X157509840Y-113133520D01*
X158398840Y-113133520D02*
X158779840Y-113133520D01*
X159440240Y-113133520D02*
X159795840Y-113133520D01*
X159922840Y-113133520D02*
X160227640Y-113133520D01*
X160913440Y-113133520D02*
X161167440Y-113133520D01*
X161472240Y-113133520D02*
X161726240Y-113133520D01*
X161904040Y-113133520D02*
X162158040Y-113133520D01*
X162818440Y-113133520D02*
X163809040Y-113133520D01*
X163986840Y-113133520D02*
X164291640Y-113133520D01*
X165485440Y-113133520D02*
X165739440Y-113133520D01*
X165917240Y-113133520D02*
X166272840Y-113133520D01*
X155198440Y-113158920D02*
X155376240Y-113158920D01*
X155452440Y-113158920D02*
X155655640Y-113158920D01*
X155808040Y-113158920D02*
X155985840Y-113158920D01*
X156138240Y-113158920D02*
X156214440Y-113158920D01*
X156747840Y-113158920D02*
X157509840Y-113158920D01*
X158398840Y-113158920D02*
X158779840Y-113158920D01*
X159440240Y-113158920D02*
X159821240Y-113158920D01*
X159922840Y-113158920D02*
X160253040Y-113158920D01*
X160913440Y-113158920D02*
X161167440Y-113158920D01*
X161472240Y-113158920D02*
X161726240Y-113158920D01*
X161904040Y-113158920D02*
X162158040Y-113158920D01*
X162818440Y-113158920D02*
X163809040Y-113158920D01*
X163986840Y-113158920D02*
X164317040Y-113158920D01*
X165485440Y-113158920D02*
X165739440Y-113158920D01*
X165942640Y-113158920D02*
X166298240Y-113158920D01*
X155198440Y-113184320D02*
X155376240Y-113184320D01*
X155452440Y-113184320D02*
X155630240Y-113184320D01*
X155782640Y-113184320D02*
X155960440Y-113184320D01*
X156112840Y-113184320D02*
X156239840Y-113184320D01*
X156697040Y-113184320D02*
X157509840Y-113184320D01*
X158373440Y-113184320D02*
X159313240Y-113184320D01*
X159465640Y-113184320D02*
X159821240Y-113184320D01*
X159922840Y-113184320D02*
X160253040Y-113184320D01*
X160913440Y-113184320D02*
X161167440Y-113184320D01*
X161472240Y-113184320D02*
X161726240Y-113184320D01*
X161904040Y-113184320D02*
X162158040Y-113184320D01*
X162818440Y-113184320D02*
X163809040Y-113184320D01*
X164012240Y-113184320D02*
X164342440Y-113184320D01*
X165485440Y-113184320D02*
X165739440Y-113184320D01*
X165968040Y-113184320D02*
X166323640Y-113184320D01*
X155198440Y-113209720D02*
X155376240Y-113209720D01*
X155452440Y-113209720D02*
X155604840Y-113209720D01*
X155757240Y-113209720D02*
X155935040Y-113209720D01*
X156087440Y-113209720D02*
X156265240Y-113209720D01*
X156671640Y-113209720D02*
X157509840Y-113209720D01*
X158373440Y-113209720D02*
X159313240Y-113209720D01*
X159465640Y-113209720D02*
X159846640Y-113209720D01*
X159948240Y-113209720D02*
X160278440Y-113209720D01*
X160913440Y-113209720D02*
X161167440Y-113209720D01*
X161472240Y-113209720D02*
X161726240Y-113209720D01*
X161904040Y-113209720D02*
X162158040Y-113209720D01*
X162793040Y-113209720D02*
X163834440Y-113209720D01*
X164012240Y-113209720D02*
X164367840Y-113209720D01*
X165485440Y-113209720D02*
X165739440Y-113209720D01*
X165993440Y-113209720D02*
X166323640Y-113209720D01*
X155198440Y-113235120D02*
X155376240Y-113235120D01*
X155452440Y-113235120D02*
X155579440Y-113235120D01*
X155731840Y-113235120D02*
X155909640Y-113235120D01*
X156062040Y-113235120D02*
X156341440Y-113235120D01*
X156620840Y-113235120D02*
X157509840Y-113235120D01*
X158348040Y-113235120D02*
X159338640Y-113235120D01*
X159491040Y-113235120D02*
X159846640Y-113235120D01*
X159948240Y-113235120D02*
X160303840Y-113235120D01*
X160913440Y-113235120D02*
X161167440Y-113235120D01*
X161472240Y-113235120D02*
X161726240Y-113235120D01*
X161904040Y-113235120D02*
X162158040Y-113235120D01*
X162793040Y-113235120D02*
X163072440Y-113235120D01*
X163555040Y-113235120D02*
X163834440Y-113235120D01*
X164012240Y-113235120D02*
X164393240Y-113235120D01*
X165485440Y-113235120D02*
X165739440Y-113235120D01*
X165993440Y-113235120D02*
X166349040Y-113235120D01*
X155198440Y-113260520D02*
X155376240Y-113260520D01*
X155452440Y-113260520D02*
X155554040Y-113260520D01*
X155706440Y-113260520D02*
X155884240Y-113260520D01*
X156036640Y-113260520D02*
X156417640Y-113260520D01*
X156519240Y-113260520D02*
X157509840Y-113260520D01*
X158348040Y-113260520D02*
X159338640Y-113260520D01*
X159491040Y-113260520D02*
X159872040Y-113260520D01*
X159973640Y-113260520D02*
X160329240Y-113260520D01*
X160913440Y-113260520D02*
X161167440Y-113260520D01*
X161472240Y-113260520D02*
X161726240Y-113260520D01*
X161904040Y-113260520D02*
X162158040Y-113260520D01*
X162767640Y-113260520D02*
X163047040Y-113260520D01*
X163555040Y-113260520D02*
X163834440Y-113260520D01*
X164037640Y-113260520D02*
X164418640Y-113260520D01*
X165485440Y-113260520D02*
X165739440Y-113260520D01*
X166018840Y-113260520D02*
X166374440Y-113260520D01*
X155198440Y-113285920D02*
X155376240Y-113285920D01*
X155452440Y-113285920D02*
X155528640Y-113285920D01*
X155681040Y-113285920D02*
X155858840Y-113285920D01*
X156011240Y-113285920D02*
X157509840Y-113285920D01*
X158322640Y-113285920D02*
X159364040Y-113285920D01*
X159516440Y-113285920D02*
X159872040Y-113285920D01*
X159973640Y-113285920D02*
X160354640Y-113285920D01*
X160913440Y-113285920D02*
X161167440Y-113285920D01*
X161472240Y-113285920D02*
X161726240Y-113285920D01*
X161904040Y-113285920D02*
X162158040Y-113285920D01*
X162767640Y-113285920D02*
X163047040Y-113285920D01*
X163555040Y-113285920D02*
X163859840Y-113285920D01*
X164063040Y-113285920D02*
X164444040Y-113285920D01*
X165485440Y-113285920D02*
X165739440Y-113285920D01*
X166044240Y-113285920D02*
X166399840Y-113285920D01*
X155198440Y-113311320D02*
X155376240Y-113311320D01*
X155452440Y-113311320D02*
X155503240Y-113311320D01*
X155655640Y-113311320D02*
X155833440Y-113311320D01*
X155985840Y-113311320D02*
X157509840Y-113311320D01*
X158322640Y-113311320D02*
X159364040Y-113311320D01*
X159516440Y-113311320D02*
X159897440Y-113311320D01*
X159999040Y-113311320D02*
X160380040Y-113311320D01*
X160888040Y-113311320D02*
X161167440Y-113311320D01*
X161472240Y-113311320D02*
X161726240Y-113311320D01*
X161904040Y-113311320D02*
X162158040Y-113311320D01*
X162767640Y-113311320D02*
X163047040Y-113311320D01*
X163580440Y-113311320D02*
X163859840Y-113311320D01*
X164063040Y-113311320D02*
X164494840Y-113311320D01*
X164977440Y-113311320D02*
X165079040Y-113311320D01*
X165485440Y-113311320D02*
X165739440Y-113311320D01*
X166069640Y-113311320D02*
X166425240Y-113311320D01*
X155198440Y-113336720D02*
X155376240Y-113336720D01*
X155630240Y-113336720D02*
X155808040Y-113336720D01*
X155960440Y-113336720D02*
X157509840Y-113336720D01*
X158297240Y-113336720D02*
X159389440Y-113336720D01*
X159541840Y-113336720D02*
X159897440Y-113336720D01*
X159999040Y-113336720D02*
X160430840Y-113336720D01*
X160862640Y-113336720D02*
X161167440Y-113336720D01*
X161472240Y-113336720D02*
X161726240Y-113336720D01*
X161904040Y-113336720D02*
X162158040Y-113336720D01*
X162742240Y-113336720D02*
X163021640Y-113336720D01*
X163580440Y-113336720D02*
X163885240Y-113336720D01*
X164088440Y-113336720D02*
X164571040Y-113336720D01*
X164901240Y-113336720D02*
X165079040Y-113336720D01*
X165485440Y-113336720D02*
X165739440Y-113336720D01*
X166095040Y-113336720D02*
X166450640Y-113336720D01*
X155198440Y-113362120D02*
X155376240Y-113362120D01*
X155604840Y-113362120D02*
X155782640Y-113362120D01*
X155935040Y-113362120D02*
X157509840Y-113362120D01*
X158297240Y-113362120D02*
X159389440Y-113362120D01*
X159541840Y-113362120D02*
X159922840Y-113362120D01*
X160024440Y-113362120D02*
X160507040Y-113362120D01*
X160786440Y-113362120D02*
X161167440Y-113362120D01*
X161472240Y-113362120D02*
X161726240Y-113362120D01*
X161904040Y-113362120D02*
X163021640Y-113362120D01*
X163580440Y-113362120D02*
X163885240Y-113362120D01*
X164113840Y-113362120D02*
X165104440Y-113362120D01*
X165485440Y-113362120D02*
X165739440Y-113362120D01*
X166120440Y-113362120D02*
X166476040Y-113362120D01*
X155198440Y-113387520D02*
X155376240Y-113387520D01*
X155579440Y-113387520D02*
X155757240Y-113387520D01*
X155909640Y-113387520D02*
X157509840Y-113387520D01*
X158271840Y-113387520D02*
X159414840Y-113387520D01*
X159567240Y-113387520D02*
X159922840Y-113387520D01*
X160049840Y-113387520D02*
X161167440Y-113387520D01*
X161472240Y-113387520D02*
X161726240Y-113387520D01*
X161904040Y-113387520D02*
X162996240Y-113387520D01*
X163605840Y-113387520D02*
X163885240Y-113387520D01*
X164113840Y-113387520D02*
X165104440Y-113387520D01*
X165485440Y-113387520D02*
X165739440Y-113387520D01*
X166145840Y-113387520D02*
X166501440Y-113387520D01*
X155198440Y-113412920D02*
X155376240Y-113412920D01*
X155554040Y-113412920D02*
X155731840Y-113412920D01*
X155884240Y-113412920D02*
X157509840Y-113412920D01*
X158271840Y-113412920D02*
X159414840Y-113412920D01*
X159567240Y-113412920D02*
X159948240Y-113412920D01*
X160075240Y-113412920D02*
X161167440Y-113412920D01*
X161472240Y-113412920D02*
X161726240Y-113412920D01*
X161904040Y-113412920D02*
X162996240Y-113412920D01*
X163605840Y-113412920D02*
X163910640Y-113412920D01*
X164139240Y-113412920D02*
X165129840Y-113412920D01*
X165485440Y-113412920D02*
X165739440Y-113412920D01*
X166171240Y-113412920D02*
X166526840Y-113412920D01*
X155198440Y-113438320D02*
X155376240Y-113438320D01*
X155528640Y-113438320D02*
X155706440Y-113438320D01*
X155858840Y-113438320D02*
X157509840Y-113438320D01*
X158246440Y-113438320D02*
X159440240Y-113438320D01*
X159592640Y-113438320D02*
X159948240Y-113438320D01*
X160100640Y-113438320D02*
X161167440Y-113438320D01*
X161472240Y-113438320D02*
X161726240Y-113438320D01*
X161904040Y-113438320D02*
X162996240Y-113438320D01*
X163631240Y-113438320D02*
X163910640Y-113438320D01*
X164164640Y-113438320D02*
X165129840Y-113438320D01*
X165485440Y-113438320D02*
X165739440Y-113438320D01*
X166171240Y-113438320D02*
X166552240Y-113438320D01*
X155198440Y-113463720D02*
X155350840Y-113463720D01*
X155503240Y-113463720D02*
X155681040Y-113463720D01*
X155833440Y-113463720D02*
X157509840Y-113463720D01*
X158246440Y-113463720D02*
X159440240Y-113463720D01*
X159592640Y-113463720D02*
X159973640Y-113463720D01*
X160100640Y-113463720D02*
X161142040Y-113463720D01*
X161472240Y-113463720D02*
X161726240Y-113463720D01*
X161904040Y-113463720D02*
X162970840Y-113463720D01*
X163631240Y-113463720D02*
X163910640Y-113463720D01*
X164215440Y-113463720D02*
X165129840Y-113463720D01*
X165485440Y-113463720D02*
X165739440Y-113463720D01*
X166196640Y-113463720D02*
X166552240Y-113463720D01*
X155198440Y-113489120D02*
X155325440Y-113489120D01*
X155452440Y-113489120D02*
X155655640Y-113489120D01*
X155808040Y-113489120D02*
X157484440Y-113489120D01*
X158246440Y-113489120D02*
X159440240Y-113489120D01*
X159618040Y-113489120D02*
X159973640Y-113489120D01*
X160151440Y-113489120D02*
X161116640Y-113489120D01*
X161472240Y-113489120D02*
X161726240Y-113489120D01*
X161904040Y-113489120D02*
X162970840Y-113489120D01*
X163631240Y-113489120D02*
X163936040Y-113489120D01*
X164240840Y-113489120D02*
X165155240Y-113489120D01*
X165485440Y-113489120D02*
X165739440Y-113489120D01*
X166222040Y-113489120D02*
X166577640Y-113489120D01*
X155198440Y-113514520D02*
X155300040Y-113514520D01*
X155452440Y-113514520D02*
X155630240Y-113514520D01*
X155782640Y-113514520D02*
X157459040Y-113514520D01*
X159618040Y-113514520D02*
X159999040Y-113514520D01*
X160176840Y-113514520D02*
X161065840Y-113514520D01*
X161472240Y-113514520D02*
X161726240Y-113514520D01*
X161904040Y-113514520D02*
X162970840Y-113514520D01*
X163656640Y-113514520D02*
X163936040Y-113514520D01*
X164291640Y-113514520D02*
X165155240Y-113514520D01*
X165485440Y-113514520D02*
X165739440Y-113514520D01*
X166247440Y-113514520D02*
X166603040Y-113514520D01*
X155198440Y-113539920D02*
X155274640Y-113539920D01*
X155452440Y-113539920D02*
X155604840Y-113539920D01*
X155757240Y-113539920D02*
X157433640Y-113539920D01*
X159643440Y-113539920D02*
X159999040Y-113539920D01*
X160202240Y-113539920D02*
X161040440Y-113539920D01*
X161472240Y-113539920D02*
X161726240Y-113539920D01*
X161904040Y-113539920D02*
X162945440Y-113539920D01*
X163656640Y-113539920D02*
X163936040Y-113539920D01*
X164317040Y-113539920D02*
X165079040Y-113539920D01*
X165485440Y-113539920D02*
X165739440Y-113539920D01*
X166272840Y-113539920D02*
X166628440Y-113539920D01*
X155452440Y-113565320D02*
X155579440Y-113565320D01*
X155731840Y-113565320D02*
X157408240Y-113565320D01*
X159643440Y-113565320D02*
X160024440Y-113565320D01*
X160253040Y-113565320D02*
X160989640Y-113565320D01*
X161472240Y-113565320D02*
X161726240Y-113565320D01*
X161904040Y-113565320D02*
X162945440Y-113565320D01*
X163682040Y-113565320D02*
X163961440Y-113565320D01*
X164393240Y-113565320D02*
X165002840Y-113565320D01*
X165485440Y-113565320D02*
X165739440Y-113565320D01*
X166298240Y-113565320D02*
X166653840Y-113565320D01*
X155452440Y-113590720D02*
X155554040Y-113590720D01*
X155706440Y-113590720D02*
X157382840Y-113590720D01*
X159668840Y-113590720D02*
X160024440Y-113590720D01*
X160329240Y-113590720D02*
X160913440Y-113590720D01*
X164469440Y-113590720D02*
X164901240Y-113590720D01*
X155452440Y-113616120D02*
X155528640Y-113616120D01*
X155681040Y-113616120D02*
X157357440Y-113616120D01*
X159668840Y-113616120D02*
X160049840Y-113616120D01*
X160405440Y-113616120D02*
X160837240Y-113616120D01*
X155452440Y-113641520D02*
X155503240Y-113641520D01*
X155655640Y-113641520D02*
X157332040Y-113641520D01*
X159694240Y-113641520D02*
X160049840Y-113641520D01*
X155452440Y-113666920D02*
X155477840Y-113666920D01*
X155630240Y-113666920D02*
X157306640Y-113666920D01*
X157967040Y-113666920D02*
X159440240Y-113666920D01*
X159694240Y-113666920D02*
X160075240Y-113666920D01*
X155604840Y-113692320D02*
X157281240Y-113692320D01*
X157967040Y-113692320D02*
X159440240Y-113692320D01*
X159719640Y-113692320D02*
X160075240Y-113692320D01*
X155579440Y-113717720D02*
X157255840Y-113717720D01*
X157967040Y-113717720D02*
X159440240Y-113717720D01*
X159719640Y-113717720D02*
X160100640Y-113717720D01*
X155554040Y-113743120D02*
X157230440Y-113743120D01*
X157967040Y-113743120D02*
X159440240Y-113743120D01*
X159745040Y-113743120D02*
X160100640Y-113743120D01*
X155528640Y-113768520D02*
X157205040Y-113768520D01*
X157967040Y-113768520D02*
X159440240Y-113768520D01*
X159745040Y-113768520D02*
X160126040Y-113768520D01*
X155503240Y-113793920D02*
X157179640Y-113793920D01*
X157967040Y-113793920D02*
X159440240Y-113793920D01*
X159770440Y-113793920D02*
X160151440Y-113793920D01*
X155452440Y-113819320D02*
X157154240Y-113819320D01*
X157967040Y-113819320D02*
X159440240Y-113819320D01*
X159770440Y-113819320D02*
X160151440Y-113819320D01*
X155452440Y-113844720D02*
X157128840Y-113844720D01*
X157967040Y-113844720D02*
X159440240Y-113844720D01*
X159795840Y-113844720D02*
X160176840Y-113844720D01*
X155452440Y-113870120D02*
X157103440Y-113870120D01*
X157967040Y-113870120D02*
X159440240Y-113870120D01*
X159795840Y-113870120D02*
X160176840Y-113870120D01*
X157967040Y-113895520D02*
X159440240Y-113895520D01*
X159821240Y-113895520D02*
X160202240Y-113895520D01*
X159821240Y-113920920D02*
X160202240Y-113920920D01*
X159846640Y-113946320D02*
X160227640Y-113946320D01*
X159846640Y-113971720D02*
X160227640Y-113971720D01*
X159872040Y-113997120D02*
X160253040Y-113997120D01*
X159872040Y-114022520D02*
X160253040Y-114022520D01*
X159897440Y-114047920D02*
X160278440Y-114047920D01*
X159897440Y-114073320D02*
X160278440Y-114073320D01*
X159922840Y-114098720D02*
X160303840Y-114098720D01*
D13*
X148976443Y-111569500D02*
X149012729Y-111605786D01*
X149049014Y-111714643D01*
X149049014Y-111787214D01*
X149012729Y-111896071D01*
X148940157Y-111968643D01*
X148867586Y-112004928D01*
X148722443Y-112041214D01*
X148613586Y-112041214D01*
X148468443Y-112004928D01*
X148395871Y-111968643D01*
X148323300Y-111896071D01*
X148287014Y-111787214D01*
X148287014Y-111714643D01*
X148323300Y-111605786D01*
X148359586Y-111569500D01*
X149049014Y-110843786D02*
X149049014Y-111279214D01*
X149049014Y-111061500D02*
X148287014Y-111061500D01*
X148395871Y-111134071D01*
X148468443Y-111206643D01*
X148504729Y-111279214D01*
X150678243Y-107467400D02*
X150714529Y-107503686D01*
X150750814Y-107612543D01*
X150750814Y-107685114D01*
X150714529Y-107793971D01*
X150641957Y-107866543D01*
X150569386Y-107902828D01*
X150424243Y-107939114D01*
X150315386Y-107939114D01*
X150170243Y-107902828D01*
X150097671Y-107866543D01*
X150025100Y-107793971D01*
X149988814Y-107685114D01*
X149988814Y-107612543D01*
X150025100Y-107503686D01*
X150061386Y-107467400D01*
X150061386Y-107177114D02*
X150025100Y-107140828D01*
X149988814Y-107068257D01*
X149988814Y-106886828D01*
X150025100Y-106814257D01*
X150061386Y-106777971D01*
X150133957Y-106741686D01*
X150206529Y-106741686D01*
X150315386Y-106777971D01*
X150750814Y-107213400D01*
X150750814Y-106741686D01*
X154881943Y-111582200D02*
X154918229Y-111618486D01*
X154954514Y-111727343D01*
X154954514Y-111799914D01*
X154918229Y-111908771D01*
X154845657Y-111981343D01*
X154773086Y-112017628D01*
X154627943Y-112053914D01*
X154519086Y-112053914D01*
X154373943Y-112017628D01*
X154301371Y-111981343D01*
X154228800Y-111908771D01*
X154192514Y-111799914D01*
X154192514Y-111727343D01*
X154228800Y-111618486D01*
X154265086Y-111582200D01*
X154192514Y-111328200D02*
X154192514Y-110856486D01*
X154482800Y-111110486D01*
X154482800Y-111001628D01*
X154519086Y-110929057D01*
X154555371Y-110892771D01*
X154627943Y-110856486D01*
X154809371Y-110856486D01*
X154881943Y-110892771D01*
X154918229Y-110929057D01*
X154954514Y-111001628D01*
X154954514Y-111219343D01*
X154918229Y-111291914D01*
X154881943Y-111328200D01*
X151668843Y-107454700D02*
X151705129Y-107490986D01*
X151741414Y-107599843D01*
X151741414Y-107672414D01*
X151705129Y-107781271D01*
X151632557Y-107853843D01*
X151559986Y-107890128D01*
X151414843Y-107926414D01*
X151305986Y-107926414D01*
X151160843Y-107890128D01*
X151088271Y-107853843D01*
X151015700Y-107781271D01*
X150979414Y-107672414D01*
X150979414Y-107599843D01*
X151015700Y-107490986D01*
X151051986Y-107454700D01*
X151233414Y-106801557D02*
X151741414Y-106801557D01*
X150943129Y-106982986D02*
X151487414Y-107164414D01*
X151487414Y-106692700D01*
X155968700Y-111130443D02*
X155932414Y-111166729D01*
X155823557Y-111203014D01*
X155750986Y-111203014D01*
X155642129Y-111166729D01*
X155569557Y-111094157D01*
X155533272Y-111021586D01*
X155496986Y-110876443D01*
X155496986Y-110767586D01*
X155533272Y-110622443D01*
X155569557Y-110549871D01*
X155642129Y-110477300D01*
X155750986Y-110441014D01*
X155823557Y-110441014D01*
X155932414Y-110477300D01*
X155968700Y-110513586D01*
X156658129Y-110441014D02*
X156295272Y-110441014D01*
X156258986Y-110803871D01*
X156295272Y-110767586D01*
X156367843Y-110731300D01*
X156549272Y-110731300D01*
X156621843Y-110767586D01*
X156658129Y-110803871D01*
X156694414Y-110876443D01*
X156694414Y-111057871D01*
X156658129Y-111130443D01*
X156621843Y-111166729D01*
X156549272Y-111203014D01*
X156367843Y-111203014D01*
X156295272Y-111166729D01*
X156258986Y-111130443D01*
X152354643Y-105689400D02*
X152390929Y-105725686D01*
X152427214Y-105834543D01*
X152427214Y-105907114D01*
X152390929Y-106015971D01*
X152318357Y-106088543D01*
X152245786Y-106124828D01*
X152100643Y-106161114D01*
X151991786Y-106161114D01*
X151846643Y-106124828D01*
X151774071Y-106088543D01*
X151701500Y-106015971D01*
X151665214Y-105907114D01*
X151665214Y-105834543D01*
X151701500Y-105725686D01*
X151737786Y-105689400D01*
X151665214Y-105036257D02*
X151665214Y-105181400D01*
X151701500Y-105253971D01*
X151737786Y-105290257D01*
X151846643Y-105362828D01*
X151991786Y-105399114D01*
X152282071Y-105399114D01*
X152354643Y-105362828D01*
X152390929Y-105326543D01*
X152427214Y-105253971D01*
X152427214Y-105108828D01*
X152390929Y-105036257D01*
X152354643Y-104999971D01*
X152282071Y-104963686D01*
X152100643Y-104963686D01*
X152028071Y-104999971D01*
X151991786Y-105036257D01*
X151955500Y-105108828D01*
X151955500Y-105253971D01*
X151991786Y-105326543D01*
X152028071Y-105362828D01*
X152100643Y-105399114D01*
X153390600Y-103573943D02*
X153354314Y-103610229D01*
X153245457Y-103646514D01*
X153172886Y-103646514D01*
X153064029Y-103610229D01*
X152991457Y-103537657D01*
X152955172Y-103465086D01*
X152918886Y-103319943D01*
X152918886Y-103211086D01*
X152955172Y-103065943D01*
X152991457Y-102993371D01*
X153064029Y-102920800D01*
X153172886Y-102884514D01*
X153245457Y-102884514D01*
X153354314Y-102920800D01*
X153390600Y-102957086D01*
X153644600Y-102884514D02*
X154152600Y-102884514D01*
X153826029Y-103646514D01*
X153390600Y-102024543D02*
X153354314Y-102060829D01*
X153245457Y-102097114D01*
X153172886Y-102097114D01*
X153064029Y-102060829D01*
X152991457Y-101988257D01*
X152955172Y-101915686D01*
X152918886Y-101770543D01*
X152918886Y-101661686D01*
X152955172Y-101516543D01*
X152991457Y-101443971D01*
X153064029Y-101371400D01*
X153172886Y-101335114D01*
X153245457Y-101335114D01*
X153354314Y-101371400D01*
X153390600Y-101407686D01*
X153826029Y-101661686D02*
X153753457Y-101625400D01*
X153717172Y-101589114D01*
X153680886Y-101516543D01*
X153680886Y-101480257D01*
X153717172Y-101407686D01*
X153753457Y-101371400D01*
X153826029Y-101335114D01*
X153971172Y-101335114D01*
X154043743Y-101371400D01*
X154080029Y-101407686D01*
X154116314Y-101480257D01*
X154116314Y-101516543D01*
X154080029Y-101589114D01*
X154043743Y-101625400D01*
X153971172Y-101661686D01*
X153826029Y-101661686D01*
X153753457Y-101697971D01*
X153717172Y-101734257D01*
X153680886Y-101806829D01*
X153680886Y-101951971D01*
X153717172Y-102024543D01*
X153753457Y-102060829D01*
X153826029Y-102097114D01*
X153971172Y-102097114D01*
X154043743Y-102060829D01*
X154080029Y-102024543D01*
X154116314Y-101951971D01*
X154116314Y-101806829D01*
X154080029Y-101734257D01*
X154043743Y-101697971D01*
X153971172Y-101661686D01*
X158818943Y-100622100D02*
X158855229Y-100658386D01*
X158891514Y-100767243D01*
X158891514Y-100839814D01*
X158855229Y-100948671D01*
X158782657Y-101021243D01*
X158710086Y-101057528D01*
X158564943Y-101093814D01*
X158456086Y-101093814D01*
X158310943Y-101057528D01*
X158238371Y-101021243D01*
X158165800Y-100948671D01*
X158129514Y-100839814D01*
X158129514Y-100767243D01*
X158165800Y-100658386D01*
X158202086Y-100622100D01*
X158891514Y-100259243D02*
X158891514Y-100114100D01*
X158855229Y-100041528D01*
X158818943Y-100005243D01*
X158710086Y-99932671D01*
X158564943Y-99896386D01*
X158274657Y-99896386D01*
X158202086Y-99932671D01*
X158165800Y-99968957D01*
X158129514Y-100041528D01*
X158129514Y-100186671D01*
X158165800Y-100259243D01*
X158202086Y-100295528D01*
X158274657Y-100331814D01*
X158456086Y-100331814D01*
X158528657Y-100295528D01*
X158564943Y-100259243D01*
X158601229Y-100186671D01*
X158601229Y-100041528D01*
X158564943Y-99968957D01*
X158528657Y-99932671D01*
X158456086Y-99896386D01*
X159441243Y-109506657D02*
X159477529Y-109542943D01*
X159513814Y-109651800D01*
X159513814Y-109724371D01*
X159477529Y-109833228D01*
X159404957Y-109905800D01*
X159332386Y-109942085D01*
X159187243Y-109978371D01*
X159078386Y-109978371D01*
X158933243Y-109942085D01*
X158860671Y-109905800D01*
X158788100Y-109833228D01*
X158751814Y-109724371D01*
X158751814Y-109651800D01*
X158788100Y-109542943D01*
X158824386Y-109506657D01*
X159513814Y-108780943D02*
X159513814Y-109216371D01*
X159513814Y-108998657D02*
X158751814Y-108998657D01*
X158860671Y-109071228D01*
X158933243Y-109143800D01*
X158969529Y-109216371D01*
X158751814Y-108309229D02*
X158751814Y-108236657D01*
X158788100Y-108164086D01*
X158824386Y-108127800D01*
X158896957Y-108091514D01*
X159042100Y-108055229D01*
X159223529Y-108055229D01*
X159368671Y-108091514D01*
X159441243Y-108127800D01*
X159477529Y-108164086D01*
X159513814Y-108236657D01*
X159513814Y-108309229D01*
X159477529Y-108381800D01*
X159441243Y-108418086D01*
X159368671Y-108454371D01*
X159223529Y-108490657D01*
X159042100Y-108490657D01*
X158896957Y-108454371D01*
X158824386Y-108418086D01*
X158788100Y-108381800D01*
X158751814Y-108309229D01*
X158336343Y-98925743D02*
X158300057Y-98962029D01*
X158191200Y-98998314D01*
X158118629Y-98998314D01*
X158009772Y-98962029D01*
X157937200Y-98889457D01*
X157900915Y-98816886D01*
X157864629Y-98671743D01*
X157864629Y-98562886D01*
X157900915Y-98417743D01*
X157937200Y-98345171D01*
X158009772Y-98272600D01*
X158118629Y-98236314D01*
X158191200Y-98236314D01*
X158300057Y-98272600D01*
X158336343Y-98308886D01*
X159062057Y-98998314D02*
X158626629Y-98998314D01*
X158844343Y-98998314D02*
X158844343Y-98236314D01*
X158771772Y-98345171D01*
X158699200Y-98417743D01*
X158626629Y-98454029D01*
X159787771Y-98998314D02*
X159352343Y-98998314D01*
X159570057Y-98998314D02*
X159570057Y-98236314D01*
X159497486Y-98345171D01*
X159424914Y-98417743D01*
X159352343Y-98454029D01*
X152722943Y-100475143D02*
X152686657Y-100511429D01*
X152577800Y-100547714D01*
X152505229Y-100547714D01*
X152396372Y-100511429D01*
X152323800Y-100438857D01*
X152287515Y-100366286D01*
X152251229Y-100221143D01*
X152251229Y-100112286D01*
X152287515Y-99967143D01*
X152323800Y-99894571D01*
X152396372Y-99822000D01*
X152505229Y-99785714D01*
X152577800Y-99785714D01*
X152686657Y-99822000D01*
X152722943Y-99858286D01*
X153448657Y-100547714D02*
X153013229Y-100547714D01*
X153230943Y-100547714D02*
X153230943Y-99785714D01*
X153158372Y-99894571D01*
X153085800Y-99967143D01*
X153013229Y-100003429D01*
X153738943Y-99858286D02*
X153775229Y-99822000D01*
X153847800Y-99785714D01*
X154029229Y-99785714D01*
X154101800Y-99822000D01*
X154138086Y-99858286D01*
X154174371Y-99930857D01*
X154174371Y-100003429D01*
X154138086Y-100112286D01*
X153702657Y-100547714D01*
X154174371Y-100547714D01*
X142242143Y-105679857D02*
X142278429Y-105716143D01*
X142314714Y-105825000D01*
X142314714Y-105897571D01*
X142278429Y-106006428D01*
X142205857Y-106079000D01*
X142133286Y-106115285D01*
X141988143Y-106151571D01*
X141879286Y-106151571D01*
X141734143Y-106115285D01*
X141661571Y-106079000D01*
X141589000Y-106006428D01*
X141552714Y-105897571D01*
X141552714Y-105825000D01*
X141589000Y-105716143D01*
X141625286Y-105679857D01*
X142314714Y-104954143D02*
X142314714Y-105389571D01*
X142314714Y-105171857D02*
X141552714Y-105171857D01*
X141661571Y-105244428D01*
X141734143Y-105317000D01*
X141770429Y-105389571D01*
X141552714Y-104700143D02*
X141552714Y-104228429D01*
X141843000Y-104482429D01*
X141843000Y-104373571D01*
X141879286Y-104301000D01*
X141915571Y-104264714D01*
X141988143Y-104228429D01*
X142169571Y-104228429D01*
X142242143Y-104264714D01*
X142278429Y-104301000D01*
X142314714Y-104373571D01*
X142314714Y-104591286D01*
X142278429Y-104663857D01*
X142242143Y-104700143D01*
X145212143Y-103279857D02*
X145248429Y-103316143D01*
X145284714Y-103425000D01*
X145284714Y-103497571D01*
X145248429Y-103606428D01*
X145175857Y-103679000D01*
X145103286Y-103715285D01*
X144958143Y-103751571D01*
X144849286Y-103751571D01*
X144704143Y-103715285D01*
X144631571Y-103679000D01*
X144559000Y-103606428D01*
X144522714Y-103497571D01*
X144522714Y-103425000D01*
X144559000Y-103316143D01*
X144595286Y-103279857D01*
X145284714Y-102554143D02*
X145284714Y-102989571D01*
X145284714Y-102771857D02*
X144522714Y-102771857D01*
X144631571Y-102844428D01*
X144704143Y-102917000D01*
X144740429Y-102989571D01*
X144776714Y-101901000D02*
X145284714Y-101901000D01*
X144486429Y-102082429D02*
X145030714Y-102263857D01*
X145030714Y-101792143D01*
X146017343Y-109900357D02*
X146053629Y-109936643D01*
X146089914Y-110045500D01*
X146089914Y-110118071D01*
X146053629Y-110226928D01*
X145981057Y-110299500D01*
X145908486Y-110335785D01*
X145763343Y-110372071D01*
X145654486Y-110372071D01*
X145509343Y-110335785D01*
X145436771Y-110299500D01*
X145364200Y-110226928D01*
X145327914Y-110118071D01*
X145327914Y-110045500D01*
X145364200Y-109936643D01*
X145400486Y-109900357D01*
X146089914Y-109174643D02*
X146089914Y-109610071D01*
X146089914Y-109392357D02*
X145327914Y-109392357D01*
X145436771Y-109464928D01*
X145509343Y-109537500D01*
X145545629Y-109610071D01*
X145327914Y-108485214D02*
X145327914Y-108848071D01*
X145690771Y-108884357D01*
X145654486Y-108848071D01*
X145618200Y-108775500D01*
X145618200Y-108594071D01*
X145654486Y-108521500D01*
X145690771Y-108485214D01*
X145763343Y-108448929D01*
X145944771Y-108448929D01*
X146017343Y-108485214D01*
X146053629Y-108521500D01*
X146089914Y-108594071D01*
X146089914Y-108775500D01*
X146053629Y-108848071D01*
X146017343Y-108884357D01*
D12*
X138438181Y-105738095D02*
X137438181Y-105738095D01*
X137438181Y-105357142D01*
X137485800Y-105261904D01*
X137533419Y-105214285D01*
X137628657Y-105166666D01*
X137771514Y-105166666D01*
X137866752Y-105214285D01*
X137914371Y-105261904D01*
X137961990Y-105357142D01*
X137961990Y-105738095D01*
X138438181Y-104214285D02*
X138438181Y-104785714D01*
X138438181Y-104500000D02*
X137438181Y-104500000D01*
X137581038Y-104595238D01*
X137676276Y-104690476D01*
X137723895Y-104785714D01*
D13*
X144643929Y-96305914D02*
X144643929Y-96922771D01*
X144680214Y-96995343D01*
X144716500Y-97031629D01*
X144789071Y-97067914D01*
X144934214Y-97067914D01*
X145006786Y-97031629D01*
X145043071Y-96995343D01*
X145079357Y-96922771D01*
X145079357Y-96305914D01*
X145841357Y-97067914D02*
X145405929Y-97067914D01*
X145623643Y-97067914D02*
X145623643Y-96305914D01*
X145551072Y-96414771D01*
X145478500Y-96487343D01*
X145405929Y-96523629D01*
X149684014Y-113220499D02*
X149684014Y-113583356D01*
X148922014Y-113583356D01*
X149684014Y-112567357D02*
X149684014Y-113002785D01*
X149684014Y-112785071D02*
X148922014Y-112785071D01*
X149030871Y-112857642D01*
X149103443Y-112930214D01*
X149139729Y-113002785D01*
X155081514Y-108851699D02*
X155081514Y-109214556D01*
X154319514Y-109214556D01*
X154392086Y-108633985D02*
X154355800Y-108597699D01*
X154319514Y-108525128D01*
X154319514Y-108343699D01*
X154355800Y-108271128D01*
X154392086Y-108234842D01*
X154464657Y-108198557D01*
X154537229Y-108198557D01*
X154646086Y-108234842D01*
X155081514Y-108670271D01*
X155081514Y-108198557D01*
X154840214Y-97570471D02*
X154840214Y-97135042D01*
X155602214Y-97352756D02*
X154840214Y-97352756D01*
X155602214Y-96881042D02*
X154840214Y-96881042D01*
X154840214Y-96590757D01*
X154876500Y-96518185D01*
X154912786Y-96481900D01*
X154985357Y-96445614D01*
X155094214Y-96445614D01*
X155166786Y-96481900D01*
X155203071Y-96518185D01*
X155239357Y-96590757D01*
X155239357Y-96881042D01*
X155602214Y-95719900D02*
X155602214Y-96155328D01*
X155602214Y-95937614D02*
X154840214Y-95937614D01*
X154949071Y-96010185D01*
X155021643Y-96082757D01*
X155057929Y-96155328D01*
X157380214Y-97570471D02*
X157380214Y-97135042D01*
X158142214Y-97352756D02*
X157380214Y-97352756D01*
X158142214Y-96881042D02*
X157380214Y-96881042D01*
X157380214Y-96590757D01*
X157416500Y-96518185D01*
X157452786Y-96481900D01*
X157525357Y-96445614D01*
X157634214Y-96445614D01*
X157706786Y-96481900D01*
X157743071Y-96518185D01*
X157779357Y-96590757D01*
X157779357Y-96881042D01*
X157452786Y-96155328D02*
X157416500Y-96119042D01*
X157380214Y-96046471D01*
X157380214Y-95865042D01*
X157416500Y-95792471D01*
X157452786Y-95756185D01*
X157525357Y-95719900D01*
X157597929Y-95719900D01*
X157706786Y-95756185D01*
X158142214Y-96191614D01*
X158142214Y-95719900D01*
X162985450Y-100942350D02*
X162985450Y-100142250D01*
X163290250Y-100142250D01*
X163366450Y-100180350D01*
X163404550Y-100218450D01*
X163442650Y-100294650D01*
X163442650Y-100408950D01*
X163404550Y-100485150D01*
X163366450Y-100523250D01*
X163290250Y-100561350D01*
X162985450Y-100561350D01*
X163747450Y-100218450D02*
X163785550Y-100180350D01*
X163861750Y-100142250D01*
X164052250Y-100142250D01*
X164128450Y-100180350D01*
X164166550Y-100218450D01*
X164204650Y-100294650D01*
X164204650Y-100370850D01*
X164166550Y-100485150D01*
X163709350Y-100942350D01*
X164204650Y-100942350D01*
X139085843Y-107785557D02*
X139122129Y-107821843D01*
X139158414Y-107930700D01*
X139158414Y-108003271D01*
X139122129Y-108112128D01*
X139049557Y-108184700D01*
X138976986Y-108220985D01*
X138831843Y-108257271D01*
X138722986Y-108257271D01*
X138577843Y-108220985D01*
X138505271Y-108184700D01*
X138432700Y-108112128D01*
X138396414Y-108003271D01*
X138396414Y-107930700D01*
X138432700Y-107821843D01*
X138468986Y-107785557D01*
X138468986Y-107495271D02*
X138432700Y-107458985D01*
X138396414Y-107386414D01*
X138396414Y-107204985D01*
X138432700Y-107132414D01*
X138468986Y-107096128D01*
X138541557Y-107059843D01*
X138614129Y-107059843D01*
X138722986Y-107096128D01*
X139158414Y-107531557D01*
X139158414Y-107059843D01*
X138396414Y-106588129D02*
X138396414Y-106515557D01*
X138432700Y-106442986D01*
X138468986Y-106406700D01*
X138541557Y-106370414D01*
X138686700Y-106334129D01*
X138868129Y-106334129D01*
X139013271Y-106370414D01*
X139085843Y-106406700D01*
X139122129Y-106442986D01*
X139158414Y-106515557D01*
X139158414Y-106588129D01*
X139122129Y-106660700D01*
X139085843Y-106696986D01*
X139013271Y-106733271D01*
X138868129Y-106769557D01*
X138686700Y-106769557D01*
X138541557Y-106733271D01*
X138468986Y-106696986D01*
X138432700Y-106660700D01*
X138396414Y-106588129D01*
X142474714Y-107386999D02*
X142474714Y-107749856D01*
X141712714Y-107749856D01*
X141712714Y-107205571D02*
X141712714Y-106733857D01*
X142003000Y-106987857D01*
X142003000Y-106878999D01*
X142039286Y-106806428D01*
X142075571Y-106770142D01*
X142148143Y-106733857D01*
X142329571Y-106733857D01*
X142402143Y-106770142D01*
X142438429Y-106806428D01*
X142474714Y-106878999D01*
X142474714Y-107096714D01*
X142438429Y-107169285D01*
X142402143Y-107205571D01*
X140343000Y-98034714D02*
X140089000Y-97671857D01*
X139907572Y-98034714D02*
X139907572Y-97272714D01*
X140197857Y-97272714D01*
X140270429Y-97309000D01*
X140306714Y-97345286D01*
X140343000Y-97417857D01*
X140343000Y-97526714D01*
X140306714Y-97599286D01*
X140270429Y-97635571D01*
X140197857Y-97671857D01*
X139907572Y-97671857D01*
X141068714Y-98034714D02*
X140633286Y-98034714D01*
X140851000Y-98034714D02*
X140851000Y-97272714D01*
X140778429Y-97381571D01*
X140705857Y-97454143D01*
X140633286Y-97490429D01*
X142128429Y-97442714D02*
X142563858Y-97442714D01*
X142346144Y-98204714D02*
X142346144Y-97442714D01*
X142817858Y-98204714D02*
X142817858Y-97442714D01*
X143108143Y-97442714D01*
X143180715Y-97479000D01*
X143217000Y-97515286D01*
X143253286Y-97587857D01*
X143253286Y-97696714D01*
X143217000Y-97769286D01*
X143180715Y-97805571D01*
X143108143Y-97841857D01*
X142817858Y-97841857D01*
X143507286Y-97442714D02*
X143979000Y-97442714D01*
X143725000Y-97733000D01*
X143833858Y-97733000D01*
X143906429Y-97769286D01*
X143942715Y-97805571D01*
X143979000Y-97878143D01*
X143979000Y-98059571D01*
X143942715Y-98132143D01*
X143906429Y-98168429D01*
X143833858Y-98204714D01*
X143616143Y-98204714D01*
X143543572Y-98168429D01*
X143507286Y-98132143D01*
X139343143Y-104032714D02*
X139851143Y-104794714D01*
X139851143Y-104032714D02*
X139343143Y-104794714D01*
X140540571Y-104794714D02*
X140105143Y-104794714D01*
X140322857Y-104794714D02*
X140322857Y-104032714D01*
X140250286Y-104141571D01*
X140177714Y-104214143D01*
X140105143Y-104250429D01*
M02*
