M48
;DRILL file {KiCad 4.0.2+dfsg1-stable} date jeu. 05 avril 2018 11:17:15 CEST
;FORMAT={-:-/ absolute / inch / decimal}
FMAT,2
INCH,TZ
T1C0.012
T2C0.047
T3C0.063
%
G90
G05
M72
T1
X5.3559Y-3.7598
X5.4055Y-4.0339
X5.4256Y-3.8461
X5.4912Y-3.9608
X5.6368Y-4.0592
X5.6375Y-4.207
X5.6985Y-4.207
X5.6995Y-3.947
X5.6996Y-3.8555
X5.7595Y-4.207
X5.79Y-4.2345
X5.79Y-4.373
X5.8161Y-3.7598
X5.8205Y-4.207
X5.827Y-4.076
X5.8465Y-3.937
X5.8472Y-3.785
X5.8799Y-4.508
X5.886Y-4.076
X5.886Y-4.116
X5.886Y-4.156
X5.886Y-4.207
X5.9495Y-3.834
X5.9555Y-3.7605
X5.993Y-3.8875
X5.993Y-3.99
X5.993Y-4.076
X5.993Y-4.207
X6.0485Y-3.8875
X6.1905Y-4.353
X6.1965Y-3.884
X6.1965Y-3.945
X6.1965Y-4.006
X6.242Y-4.234
X6.5713Y-4.5087
T2
X5.2555Y-3.8839
X5.2555Y-3.9839
X5.2555Y-4.0839
X5.2555Y-4.1839
X5.2555Y-4.2839
X5.2555Y-4.3839
X5.3555Y-3.8839
X5.3555Y-3.9839
X5.3555Y-4.0839
X5.3555Y-4.1839
X5.3555Y-4.2839
X5.3555Y-4.3839
T3
X6.34Y-4.0339
X6.34Y-4.2339
X6.44Y-4.1339
X6.54Y-4.0339
X6.54Y-4.2339
T0
M30
