G04 #@! TF.FileFunction,Paste,Top*
%FSLAX46Y46*%
G04 Gerber Fmt 4.6, Leading zero omitted, Abs format (unit mm)*
G04 Created by KiCad (PCBNEW 4.0.2+dfsg1-stable) date jeu. 05 avril 2018 11:17:12 CEST*
%MOMM*%
G01*
G04 APERTURE LIST*
%ADD10C,0.100000*%
%ADD11R,1.143000X0.635000*%
%ADD12R,0.635000X1.143000*%
%ADD13R,0.850900X0.279400*%
%ADD14R,0.279400X0.850900*%
%ADD15R,2.999740X2.999740*%
%ADD16R,1.020000X2.540000*%
%ADD17R,2.540000X1.020000*%
%ADD18C,1.198880*%
%ADD19R,1.397000X0.889000*%
%ADD20R,0.599440X0.398780*%
%ADD21R,2.000000X1.198880*%
G04 APERTURE END LIST*
D10*
D11*
X148704300Y-110172500D03*
X148704300Y-108648500D03*
X150279100Y-110172500D03*
X150279100Y-108648500D03*
X153428700Y-110172500D03*
X153428700Y-108648500D03*
X151853900Y-108648500D03*
X151853900Y-110172500D03*
D12*
X155714700Y-109410500D03*
X157238700Y-109410500D03*
D11*
X153428700Y-105460800D03*
X153428700Y-106984800D03*
D12*
X156489400Y-103301800D03*
X154965400Y-103301800D03*
X154965400Y-101752400D03*
X156489400Y-101752400D03*
D11*
X158546800Y-103289100D03*
X158546800Y-101765100D03*
X158546800Y-105003600D03*
X158546800Y-106527600D03*
D12*
X154965400Y-98653600D03*
X156489400Y-98653600D03*
X154965400Y-100203000D03*
X156489400Y-100203000D03*
D11*
X143192500Y-104432100D03*
X143192500Y-105956100D03*
X144741900Y-104432100D03*
X144741900Y-105956100D03*
X147066000Y-108648500D03*
X147066000Y-110172500D03*
X147840700Y-104432100D03*
X147840700Y-105956100D03*
D13*
X150999360Y-98249940D03*
D14*
X150250060Y-97500640D03*
D13*
X146000640Y-98249940D03*
X146000640Y-98750320D03*
X146000640Y-99250700D03*
X146000640Y-99751080D03*
X146000640Y-100749300D03*
X146000640Y-101249680D03*
D14*
X148748920Y-102499360D03*
D13*
X146000640Y-101750060D03*
D14*
X146749940Y-102499360D03*
X147250320Y-102499360D03*
X147750700Y-102499360D03*
X148251080Y-102499360D03*
X149249300Y-102499360D03*
X149749680Y-102499360D03*
X150250060Y-102499360D03*
D13*
X150999360Y-101750060D03*
X150999360Y-101249680D03*
X150999360Y-100749300D03*
X150999360Y-100248920D03*
X150999360Y-99751080D03*
X150999360Y-99250700D03*
X150999360Y-98750320D03*
D15*
X148500000Y-100000000D03*
D13*
X146000640Y-100248920D03*
D14*
X146749940Y-97500640D03*
X147250320Y-97500640D03*
X147750700Y-97500640D03*
X148251080Y-97500640D03*
X148748920Y-97500640D03*
X149249300Y-97500640D03*
X149749680Y-97500640D03*
D11*
X152410000Y-97382000D03*
X152410000Y-95858000D03*
D16*
X150708900Y-112649000D03*
X152998900Y-112649000D03*
D17*
X155727400Y-107367800D03*
X155727400Y-105077800D03*
D18*
X153949400Y-96608900D03*
X156489400Y-96608900D03*
D11*
X146291300Y-104432100D03*
X146291300Y-105956100D03*
D19*
X138813700Y-111029500D03*
X138813700Y-109124500D03*
D11*
X140741400Y-108026200D03*
X140741400Y-106502200D03*
D12*
X139708000Y-98900000D03*
X141232000Y-98900000D03*
D20*
X150406100Y-96410780D03*
X150406100Y-95511620D03*
D18*
X143180000Y-99180000D03*
D21*
X139475600Y-103104000D03*
X143175600Y-103104000D03*
X143175600Y-100604000D03*
X139475600Y-100604000D03*
D20*
X149390100Y-95511620D03*
X149390100Y-96410780D03*
M02*
