G04 #@! TF.FileFunction,Copper,L1,Top,Signal*
%FSLAX46Y46*%
G04 Gerber Fmt 4.6, Leading zero omitted, Abs format (unit mm)*
G04 Created by KiCad (PCBNEW 4.0.2+dfsg1-stable) date jeu. 05 avril 2018 11:17:12 CEST*
%MOMM*%
G01*
G04 APERTURE LIST*
%ADD10C,0.100000*%
%ADD11C,0.101600*%
%ADD12C,0.200000*%
%ADD13R,1.143000X0.635000*%
%ADD14R,0.635000X1.143000*%
%ADD15R,2.000000X1.900000*%
%ADD16C,1.900000*%
%ADD17R,0.850900X0.279400*%
%ADD18R,0.279400X0.850900*%
%ADD19R,2.999740X2.999740*%
%ADD20R,1.020000X2.540000*%
%ADD21R,2.540000X1.020000*%
%ADD22C,1.198880*%
%ADD23C,2.199640*%
%ADD24R,1.397000X0.889000*%
%ADD25R,0.599440X0.398780*%
%ADD26R,2.000000X1.198880*%
%ADD27C,0.711200*%
%ADD28C,0.304800*%
%ADD29C,0.406400*%
%ADD30C,0.203200*%
%ADD31C,0.250000*%
G04 APERTURE END LIST*
D10*
D11*
X138670134Y-114188533D02*
X139008800Y-114188533D01*
X138602400Y-114391733D02*
X138839467Y-113680533D01*
X139076534Y-114391733D01*
X139618400Y-113917600D02*
X139618400Y-114493333D01*
X139584534Y-114561067D01*
X139550667Y-114594933D01*
X139482934Y-114628800D01*
X139381334Y-114628800D01*
X139313600Y-114594933D01*
X139618400Y-114357867D02*
X139550667Y-114391733D01*
X139415200Y-114391733D01*
X139347467Y-114357867D01*
X139313600Y-114324000D01*
X139279734Y-114256267D01*
X139279734Y-114053067D01*
X139313600Y-113985333D01*
X139347467Y-113951467D01*
X139415200Y-113917600D01*
X139550667Y-113917600D01*
X139618400Y-113951467D01*
X139957067Y-114391733D02*
X139957067Y-113917600D01*
X139957067Y-113680533D02*
X139923201Y-113714400D01*
X139957067Y-113748267D01*
X139990934Y-113714400D01*
X139957067Y-113680533D01*
X139957067Y-113748267D01*
X140397334Y-114391733D02*
X140329601Y-114357867D01*
X140295734Y-114290133D01*
X140295734Y-113680533D01*
X140973067Y-114391733D02*
X140973067Y-114019200D01*
X140939201Y-113951467D01*
X140871467Y-113917600D01*
X140736001Y-113917600D01*
X140668267Y-113951467D01*
X140973067Y-114357867D02*
X140905334Y-114391733D01*
X140736001Y-114391733D01*
X140668267Y-114357867D01*
X140634401Y-114290133D01*
X140634401Y-114222400D01*
X140668267Y-114154667D01*
X140736001Y-114120800D01*
X140905334Y-114120800D01*
X140973067Y-114086933D01*
X141616534Y-114357867D02*
X141548801Y-114391733D01*
X141413334Y-114391733D01*
X141345601Y-114357867D01*
X141311734Y-114324000D01*
X141277868Y-114256267D01*
X141277868Y-114053067D01*
X141311734Y-113985333D01*
X141345601Y-113951467D01*
X141413334Y-113917600D01*
X141548801Y-113917600D01*
X141616534Y-113951467D01*
X141921334Y-114391733D02*
X141921334Y-113680533D01*
X141989068Y-114120800D02*
X142192268Y-114391733D01*
X142192268Y-113917600D02*
X141921334Y-114188533D01*
X143445334Y-114324000D02*
X143411468Y-114357867D01*
X143309868Y-114391733D01*
X143242134Y-114391733D01*
X143140534Y-114357867D01*
X143072801Y-114290133D01*
X143038934Y-114222400D01*
X143005068Y-114086933D01*
X143005068Y-113985333D01*
X143038934Y-113849867D01*
X143072801Y-113782133D01*
X143140534Y-113714400D01*
X143242134Y-113680533D01*
X143309868Y-113680533D01*
X143411468Y-113714400D01*
X143445334Y-113748267D01*
X144156534Y-114324000D02*
X144122668Y-114357867D01*
X144021068Y-114391733D01*
X143953334Y-114391733D01*
X143851734Y-114357867D01*
X143784001Y-114290133D01*
X143750134Y-114222400D01*
X143716268Y-114086933D01*
X143716268Y-113985333D01*
X143750134Y-113849867D01*
X143784001Y-113782133D01*
X143851734Y-113714400D01*
X143953334Y-113680533D01*
X144021068Y-113680533D01*
X144122668Y-113714400D01*
X144156534Y-113748267D01*
X144461334Y-114120800D02*
X145003201Y-114120800D01*
X145341867Y-114391733D02*
X145341867Y-113680533D01*
X145341867Y-113951467D02*
X145409601Y-113917600D01*
X145545067Y-113917600D01*
X145612801Y-113951467D01*
X145646667Y-113985333D01*
X145680534Y-114053067D01*
X145680534Y-114256267D01*
X145646667Y-114324000D01*
X145612801Y-114357867D01*
X145545067Y-114391733D01*
X145409601Y-114391733D01*
X145341867Y-114357867D01*
X145917601Y-113917600D02*
X146086934Y-114391733D01*
X146256268Y-113917600D02*
X146086934Y-114391733D01*
X146019201Y-114561067D01*
X145985334Y-114594933D01*
X145917601Y-114628800D01*
X146527201Y-114120800D02*
X147069068Y-114120800D01*
X147373868Y-114357867D02*
X147475468Y-114391733D01*
X147644801Y-114391733D01*
X147712534Y-114357867D01*
X147746401Y-114324000D01*
X147780268Y-114256267D01*
X147780268Y-114188533D01*
X147746401Y-114120800D01*
X147712534Y-114086933D01*
X147644801Y-114053067D01*
X147509334Y-114019200D01*
X147441601Y-113985333D01*
X147407734Y-113951467D01*
X147373868Y-113883733D01*
X147373868Y-113816000D01*
X147407734Y-113748267D01*
X147441601Y-113714400D01*
X147509334Y-113680533D01*
X147678668Y-113680533D01*
X147780268Y-113714400D01*
X148051201Y-114188533D02*
X148389867Y-114188533D01*
X147983467Y-114391733D02*
X148220534Y-113680533D01*
X148457601Y-114391733D01*
D12*
X130135238Y-114342381D02*
X130135238Y-113342381D01*
X130516191Y-113342381D01*
X130611429Y-113390000D01*
X130659048Y-113437619D01*
X130706667Y-113532857D01*
X130706667Y-113675714D01*
X130659048Y-113770952D01*
X130611429Y-113818571D01*
X130516191Y-113866190D01*
X130135238Y-113866190D01*
X131135238Y-114342381D02*
X131135238Y-113342381D01*
X131468572Y-114056667D01*
X131801905Y-113342381D01*
X131801905Y-114342381D01*
X132468571Y-113342381D02*
X132659048Y-113342381D01*
X132754286Y-113390000D01*
X132849524Y-113485238D01*
X132897143Y-113675714D01*
X132897143Y-114009048D01*
X132849524Y-114199524D01*
X132754286Y-114294762D01*
X132659048Y-114342381D01*
X132468571Y-114342381D01*
X132373333Y-114294762D01*
X132278095Y-114199524D01*
X132230476Y-114009048D01*
X132230476Y-113675714D01*
X132278095Y-113485238D01*
X132373333Y-113390000D01*
X132468571Y-113342381D01*
X133325714Y-114342381D02*
X133325714Y-113342381D01*
X133563809Y-113342381D01*
X133706667Y-113390000D01*
X133801905Y-113485238D01*
X133849524Y-113580476D01*
X133897143Y-113770952D01*
X133897143Y-113913810D01*
X133849524Y-114104286D01*
X133801905Y-114199524D01*
X133706667Y-114294762D01*
X133563809Y-114342381D01*
X133325714Y-114342381D01*
X135659048Y-114342381D02*
X135325714Y-113866190D01*
X135087619Y-114342381D02*
X135087619Y-113342381D01*
X135468572Y-113342381D01*
X135563810Y-113390000D01*
X135611429Y-113437619D01*
X135659048Y-113532857D01*
X135659048Y-113675714D01*
X135611429Y-113770952D01*
X135563810Y-113818571D01*
X135468572Y-113866190D01*
X135087619Y-113866190D01*
X136420953Y-113818571D02*
X136087619Y-113818571D01*
X136087619Y-114342381D02*
X136087619Y-113342381D01*
X136563810Y-113342381D01*
X136944762Y-114342381D02*
X136944762Y-113342381D01*
X137420952Y-114342381D02*
X137420952Y-113342381D01*
X137659047Y-113342381D01*
X137801905Y-113390000D01*
X137897143Y-113485238D01*
X137944762Y-113580476D01*
X137992381Y-113770952D01*
X137992381Y-113913810D01*
X137944762Y-114104286D01*
X137897143Y-114199524D01*
X137801905Y-114294762D01*
X137659047Y-114342381D01*
X137420952Y-114342381D01*
D13*
X148704300Y-110172500D03*
X148704300Y-108648500D03*
X150279100Y-110172500D03*
X150279100Y-108648500D03*
X153428700Y-110172500D03*
X153428700Y-108648500D03*
X151853900Y-108648500D03*
X151853900Y-110172500D03*
D14*
X155714700Y-109410500D03*
X157238700Y-109410500D03*
D13*
X153428700Y-105460800D03*
X153428700Y-106984800D03*
D14*
X156489400Y-103301800D03*
X154965400Y-103301800D03*
X154965400Y-101752400D03*
X156489400Y-101752400D03*
D13*
X158546800Y-103289100D03*
X158546800Y-101765100D03*
X158546800Y-105003600D03*
X158546800Y-106527600D03*
D14*
X154965400Y-98653600D03*
X156489400Y-98653600D03*
X154965400Y-100203000D03*
X156489400Y-100203000D03*
D13*
X143192500Y-104432100D03*
X143192500Y-105956100D03*
X144741900Y-104432100D03*
X144741900Y-105956100D03*
X147066000Y-108648500D03*
X147066000Y-110172500D03*
X147840700Y-104432100D03*
X147840700Y-105956100D03*
D15*
X136030000Y-98650000D03*
D16*
X136030000Y-101190000D03*
X136030000Y-103730000D03*
X136030000Y-106270000D03*
X136030000Y-108810000D03*
X136030000Y-111350000D03*
X133490000Y-98650000D03*
X133490000Y-101190000D03*
X133490000Y-103730000D03*
X133490000Y-106270000D03*
X133490000Y-108810000D03*
X133490000Y-111350000D03*
D17*
X150999360Y-98249940D03*
D18*
X150250060Y-97500640D03*
D17*
X146000640Y-98249940D03*
X146000640Y-98750320D03*
X146000640Y-99250700D03*
X146000640Y-99751080D03*
X146000640Y-100749300D03*
X146000640Y-101249680D03*
D18*
X148748920Y-102499360D03*
D17*
X146000640Y-101750060D03*
D18*
X146749940Y-102499360D03*
X147250320Y-102499360D03*
X147750700Y-102499360D03*
X148251080Y-102499360D03*
X149249300Y-102499360D03*
X149749680Y-102499360D03*
X150250060Y-102499360D03*
D17*
X150999360Y-101750060D03*
X150999360Y-101249680D03*
X150999360Y-100749300D03*
X150999360Y-100248920D03*
X150999360Y-99751080D03*
X150999360Y-99250700D03*
X150999360Y-98750320D03*
D19*
X148500000Y-100000000D03*
D17*
X146000640Y-100248920D03*
D18*
X146749940Y-97500640D03*
X147250320Y-97500640D03*
X147750700Y-97500640D03*
X148251080Y-97500640D03*
X148748920Y-97500640D03*
X149249300Y-97500640D03*
X149749680Y-97500640D03*
D13*
X152410000Y-97382000D03*
X152410000Y-95858000D03*
D20*
X150708900Y-112649000D03*
X152998900Y-112649000D03*
D21*
X155727400Y-107367800D03*
X155727400Y-105077800D03*
D22*
X153949400Y-96608900D03*
X156489400Y-96608900D03*
D23*
X161036000Y-102460000D03*
X166116000Y-102460000D03*
X161036000Y-107540000D03*
X166116000Y-107540000D03*
X163576000Y-105000000D03*
D13*
X146291300Y-104432100D03*
X146291300Y-105956100D03*
D24*
X138813700Y-111029500D03*
X138813700Y-109124500D03*
D13*
X140741400Y-108026200D03*
X140741400Y-106502200D03*
D14*
X139708000Y-98900000D03*
X141232000Y-98900000D03*
D25*
X150406100Y-96410780D03*
X150406100Y-95511620D03*
D22*
X143180000Y-99180000D03*
D26*
X139475600Y-103104000D03*
X143175600Y-103104000D03*
X143175600Y-100604000D03*
X139475600Y-100604000D03*
D25*
X149390100Y-95511620D03*
X149390100Y-96410780D03*
D27*
X148005800Y-103530400D03*
X147066000Y-107556300D03*
X136040000Y-95500000D03*
X151117300Y-97383600D03*
X148520000Y-96140000D03*
X153631900Y-98742500D03*
X147730000Y-95500000D03*
X137300000Y-102460000D03*
X137810000Y-97690000D03*
X149350000Y-114503200D03*
X144770000Y-97930000D03*
X143175600Y-103104000D03*
X139475600Y-100604000D03*
X166910000Y-114520000D03*
X152222200Y-106857800D03*
X152222200Y-103530400D03*
X144767300Y-100253800D03*
X148500000Y-100000000D03*
X143192500Y-106857800D03*
X144741900Y-106857800D03*
X151269700Y-95516700D03*
X146291300Y-106857800D03*
X147066000Y-111074200D03*
X147840700Y-106857800D03*
X149504400Y-106857800D03*
X149504400Y-104546400D03*
X149504400Y-105562400D03*
X157238700Y-110566200D03*
X149504400Y-103530400D03*
X157391100Y-100203000D03*
X157391100Y-101752400D03*
X158546800Y-107543600D03*
X157391100Y-98653600D03*
X152222200Y-101346000D03*
X152222200Y-98742500D03*
D28*
X148704300Y-110172500D02*
X150279100Y-110172500D01*
D29*
X150708900Y-112649000D02*
X150708900Y-111161100D01*
X150279100Y-110731300D02*
X150279100Y-110172500D01*
X150708900Y-111161100D02*
X150279100Y-110731300D01*
X148704300Y-108648500D02*
X150279100Y-108648500D01*
D30*
X148748920Y-102499360D02*
X148748920Y-107981580D01*
X148704300Y-108026200D02*
X148704300Y-108648500D01*
X148748920Y-107981580D02*
X148704300Y-108026200D01*
D29*
X152998900Y-112649000D02*
X152998900Y-111161100D01*
X153428700Y-110731300D02*
X153428700Y-110172500D01*
X152998900Y-111161100D02*
X153428700Y-110731300D01*
X155714700Y-109410500D02*
X155714700Y-107380500D01*
D28*
X155714700Y-107380500D02*
X155727400Y-107367800D01*
D29*
X153428700Y-110172500D02*
X154292300Y-110172500D01*
X154292300Y-110172500D02*
X155054300Y-109410500D01*
X155054300Y-109410500D02*
X155714700Y-109410500D01*
D30*
X153428700Y-106984800D02*
X155344400Y-106984800D01*
X155344400Y-106984800D02*
X155727400Y-107367800D01*
X150250060Y-102499360D02*
X150250060Y-103425160D01*
X151853900Y-108026200D02*
X151853900Y-108648500D01*
X151307800Y-107480100D02*
X151853900Y-108026200D01*
X151307800Y-104482900D02*
X151307800Y-107480100D01*
X150250060Y-103425160D02*
X151307800Y-104482900D01*
D29*
X151853900Y-108648500D02*
X153428700Y-108648500D01*
D30*
X150250060Y-97500640D02*
X150250060Y-96566820D01*
X150250060Y-96566820D02*
X150406100Y-96410780D01*
X153428700Y-105460800D02*
X155344400Y-105460800D01*
X155344400Y-105460800D02*
X155727400Y-105077800D01*
D28*
X156489400Y-103301800D02*
X156489400Y-104315800D01*
X156489400Y-104315800D02*
X155727400Y-105077800D01*
D29*
X163576000Y-105000000D02*
X158550400Y-105000000D01*
X158550400Y-105000000D02*
X158546800Y-105003600D01*
X158546800Y-105003600D02*
X158546800Y-103289100D01*
X158546800Y-103289100D02*
X156502100Y-103289100D01*
D28*
X156502100Y-103289100D02*
X156489400Y-103301800D01*
X154965400Y-103301800D02*
X154965400Y-101752400D01*
D30*
X150999360Y-101750060D02*
X151673760Y-101750060D01*
X152768300Y-101752400D02*
X154965400Y-101752400D01*
X152501600Y-102019100D02*
X152768300Y-101752400D01*
X151942800Y-102019100D02*
X152501600Y-102019100D01*
X151673760Y-101750060D02*
X151942800Y-102019100D01*
X150999360Y-100749300D02*
X151675900Y-100749300D01*
X151752300Y-100672900D02*
X153403300Y-100672900D01*
X151675900Y-100749300D02*
X151752300Y-100672900D01*
D28*
X154965400Y-100203000D02*
X154965400Y-98653600D01*
D30*
X154965400Y-100203000D02*
X153873200Y-100203000D01*
X153873200Y-100203000D02*
X153403300Y-100672900D01*
D28*
X143192500Y-104432100D02*
X144741900Y-104432100D01*
D30*
X146749940Y-102499360D02*
X146749940Y-103186060D01*
X144741900Y-103860600D02*
X144741900Y-104432100D01*
X145122900Y-103479600D02*
X144741900Y-103860600D01*
X146456400Y-103479600D02*
X145122900Y-103479600D01*
X146749940Y-103186060D02*
X146456400Y-103479600D01*
D28*
X147066000Y-107556300D02*
X147066000Y-108648500D01*
X148005800Y-103530400D02*
X148005800Y-104267000D01*
X148005800Y-104267000D02*
X147840700Y-104432100D01*
D30*
X147750700Y-102499360D02*
X147750700Y-103275300D01*
X148251080Y-103285120D02*
X148005800Y-103530400D01*
X148251080Y-103285120D02*
X148251080Y-102499360D01*
X147750700Y-103275300D02*
X148005800Y-103530400D01*
X149749680Y-97500640D02*
X149749680Y-96770360D01*
X149749680Y-96770360D02*
X149390100Y-96410780D01*
X149249300Y-97500640D02*
X149249300Y-96551580D01*
X149249300Y-96551580D02*
X149390100Y-96410780D01*
D29*
X132360000Y-107540000D02*
X131510000Y-106690000D01*
X140741400Y-106502200D02*
X138637800Y-106502200D01*
X137600000Y-107540000D02*
X136950000Y-107540000D01*
X138637800Y-106502200D02*
X137600000Y-107540000D01*
D30*
X132360000Y-107540000D02*
X136950000Y-107540000D01*
D29*
X133070000Y-95500000D02*
X136040000Y-95500000D01*
X131510000Y-97060000D02*
X133070000Y-95500000D01*
X131510000Y-106690000D02*
X131510000Y-97060000D01*
D31*
X152410000Y-97382000D02*
X151118900Y-97382000D01*
X151118900Y-97382000D02*
X151117300Y-97383600D01*
D30*
X148688380Y-95511620D02*
X148520000Y-95680000D01*
X148688380Y-95511620D02*
X149390100Y-95511620D01*
X148520000Y-95680000D02*
X148520000Y-96140000D01*
D28*
X149378480Y-95500000D02*
X149390100Y-95511620D01*
D30*
X149378480Y-95500000D02*
X149390100Y-95511620D01*
D28*
X140741400Y-106502200D02*
X140741400Y-105816400D01*
X140741400Y-105816400D02*
X141363700Y-105194100D01*
X141363700Y-105194100D02*
X146126200Y-105194100D01*
X146126200Y-105194100D02*
X146291300Y-105029000D01*
X146291300Y-105029000D02*
X146291300Y-104432100D01*
D30*
X147250320Y-102499360D02*
X147250320Y-103473080D01*
X147250320Y-103473080D02*
X146291300Y-104432100D01*
X150999360Y-98249940D02*
X151724160Y-98249940D01*
X152120600Y-97671400D02*
X152410000Y-97382000D01*
X152120600Y-97853500D02*
X152120600Y-97671400D01*
X151724160Y-98249940D02*
X152120600Y-97853500D01*
X146000640Y-98750320D02*
X144320320Y-98750320D01*
X138160000Y-104140000D02*
X136030000Y-106270000D01*
X138160000Y-99010000D02*
X138160000Y-104140000D01*
X139170000Y-98000000D02*
X138160000Y-99010000D01*
X142100000Y-98000000D02*
X139170000Y-98000000D01*
X142160000Y-98060000D02*
X142100000Y-98000000D01*
X143630000Y-98060000D02*
X142160000Y-98060000D01*
X144320320Y-98750320D02*
X143630000Y-98060000D01*
D31*
X143180000Y-99180000D02*
X142210000Y-99180000D01*
X141930000Y-98900000D02*
X141232000Y-98900000D01*
X142210000Y-99180000D02*
X141930000Y-98900000D01*
X146000640Y-99751080D02*
X145251080Y-99751080D01*
X144100000Y-99180000D02*
X143180000Y-99180000D01*
X144480000Y-99560000D02*
X144100000Y-99180000D01*
X145060000Y-99560000D02*
X144480000Y-99560000D01*
X145251080Y-99751080D02*
X145060000Y-99560000D01*
D30*
X145021300Y-100952300D02*
X143523900Y-100952300D01*
X143523900Y-100952300D02*
X143175600Y-100604000D01*
X146000640Y-100749300D02*
X145224300Y-100749300D01*
X145224300Y-100749300D02*
X145021300Y-100952300D01*
X144716500Y-101854000D02*
X141122400Y-101854000D01*
X141122400Y-101854000D02*
X139872400Y-103104000D01*
X139872400Y-103104000D02*
X139475600Y-103104000D01*
X146000640Y-101249680D02*
X145320820Y-101249680D01*
X145320820Y-101249680D02*
X144716500Y-101854000D01*
X154317700Y-99021900D02*
X154317700Y-97866200D01*
X153090680Y-100248920D02*
X154317700Y-99021900D01*
X150999360Y-100248920D02*
X153090680Y-100248920D01*
X155575000Y-96608900D02*
X156489400Y-96608900D01*
X154317700Y-97866200D02*
X155575000Y-96608900D01*
X147730000Y-95500000D02*
X147250000Y-95500000D01*
X152846182Y-99845718D02*
X153339800Y-99352100D01*
X153339800Y-99352100D02*
X153339800Y-99034600D01*
X151752300Y-99834700D02*
X151752300Y-99845718D01*
X153631900Y-98742500D02*
X153339800Y-99034600D01*
X151752300Y-99845718D02*
X152846182Y-99845718D01*
X133490000Y-97400000D02*
X133490000Y-98650000D01*
X134310000Y-96580000D02*
X133490000Y-97400000D01*
X136070000Y-96580000D02*
X134310000Y-96580000D01*
X137280000Y-95370000D02*
X136070000Y-96580000D01*
X147120000Y-95370000D02*
X137280000Y-95370000D01*
X147250000Y-95500000D02*
X147120000Y-95370000D01*
X151668680Y-99751080D02*
X151752300Y-99834700D01*
X151752300Y-99834700D02*
X151752300Y-99834700D01*
X150999360Y-99751080D02*
X151668680Y-99751080D01*
X152920700Y-98488500D02*
X152920700Y-99139398D01*
X153949400Y-96608900D02*
X153949400Y-97459800D01*
X151739800Y-99250700D02*
X150999360Y-99250700D01*
X151739800Y-99250700D02*
X151904700Y-99415600D01*
X151904700Y-99415600D02*
X152644498Y-99415600D01*
X152920700Y-98488500D02*
X153949400Y-97459800D01*
X152920700Y-99139398D02*
X152644498Y-99415600D01*
X146749940Y-97500640D02*
X146749940Y-96819940D01*
X137670000Y-99550000D02*
X136030000Y-101190000D01*
X137670000Y-98790000D02*
X137670000Y-99550000D01*
X139790000Y-96670000D02*
X137670000Y-98790000D01*
X146600000Y-96670000D02*
X139790000Y-96670000D01*
X146749940Y-96819940D02*
X146600000Y-96670000D01*
X136030000Y-103730000D02*
X137300000Y-102460000D01*
X146760000Y-96230000D02*
X139270000Y-96230000D01*
X147250320Y-96720320D02*
X146760000Y-96230000D01*
X147250320Y-96720320D02*
X147250320Y-97500640D01*
X139270000Y-96230000D02*
X137810000Y-97690000D01*
X136030000Y-98650000D02*
X136030000Y-97390000D01*
X137610000Y-95810000D02*
X146950000Y-95810000D01*
X136030000Y-97390000D02*
X137610000Y-95810000D01*
X148251080Y-96821080D02*
X148100000Y-96670000D01*
X148251080Y-97500640D02*
X148251080Y-96821080D01*
X148100000Y-96670000D02*
X147810000Y-96670000D01*
X147810000Y-96670000D02*
X146950000Y-95810000D01*
D29*
X149350000Y-114503200D02*
X149350000Y-113358200D01*
X151853900Y-114503200D02*
X149350000Y-114503200D01*
X149350000Y-113358200D02*
X147066000Y-111074200D01*
D30*
X145089940Y-98249940D02*
X144770000Y-97930000D01*
X146000640Y-98249940D02*
X145089940Y-98249940D01*
X139708000Y-100371600D02*
X139475600Y-100604000D01*
X139708000Y-98900000D02*
X139708000Y-100371600D01*
D29*
X136030000Y-108810000D02*
X133490000Y-108810000D01*
X136030000Y-108810000D02*
X137508600Y-108810000D01*
X137823100Y-109124500D02*
X138813700Y-109124500D01*
X137823100Y-109124500D02*
X137508600Y-108810000D01*
X158546800Y-107543600D02*
X158546800Y-108839000D01*
X157975300Y-109410500D02*
X157238700Y-109410500D01*
X158546800Y-108839000D02*
X157975300Y-109410500D01*
D30*
X146000640Y-100248920D02*
X148251080Y-100248920D01*
X148251080Y-100248920D02*
X148500000Y-100000000D01*
X145343680Y-100248920D02*
X145338800Y-100253800D01*
X145343680Y-100248920D02*
X146000640Y-100248920D01*
X145338800Y-100253800D02*
X144767300Y-100253800D01*
X149749680Y-98750320D02*
X148500000Y-100000000D01*
D28*
X143192500Y-105956100D02*
X144741900Y-105956100D01*
X143192500Y-105956100D02*
X143192500Y-106857800D01*
X144741900Y-105956100D02*
X144741900Y-106857800D01*
D30*
X152410000Y-95858000D02*
X151611000Y-95858000D01*
X150921720Y-95511620D02*
X150926800Y-95516700D01*
X150926800Y-95516700D02*
X151269700Y-95516700D01*
X150921720Y-95511620D02*
X150406100Y-95511620D01*
X151611000Y-95858000D02*
X151269700Y-95516700D01*
D28*
X146291300Y-105956100D02*
X146291300Y-106857800D01*
X147066000Y-110172500D02*
X147066000Y-111074200D01*
X147840700Y-105956100D02*
X147840700Y-106857800D01*
D30*
X149504400Y-105562400D02*
X149504400Y-104546400D01*
X149504400Y-104546400D02*
X149504400Y-103530400D01*
D29*
X149504400Y-106857800D02*
X149504400Y-105562400D01*
X157238700Y-110566200D02*
X157238700Y-113919000D01*
X157238700Y-110566200D02*
X157238700Y-109410500D01*
X151853900Y-114503200D02*
X156654500Y-114503200D01*
X157238700Y-113919000D02*
X156654500Y-114503200D01*
X151853900Y-110172500D02*
X151853900Y-114503200D01*
X158546800Y-107543600D02*
X161032400Y-107543600D01*
X161032400Y-107543600D02*
X161036000Y-107540000D01*
X157391100Y-100203000D02*
X158779000Y-100203000D01*
X158779000Y-100203000D02*
X161036000Y-102460000D01*
D30*
X149749680Y-102499360D02*
X149749680Y-103285120D01*
X149749680Y-103285120D02*
X149504400Y-103530400D01*
X149249300Y-103275300D02*
X149504400Y-103530400D01*
X149249300Y-103275300D02*
X149249300Y-102499360D01*
D28*
X157391100Y-100203000D02*
X156489400Y-100203000D01*
D29*
X158546800Y-107543600D02*
X158546800Y-106527600D01*
D28*
X158534100Y-101752400D02*
X157391100Y-101752400D01*
X157391100Y-101752400D02*
X156489400Y-101752400D01*
X158534100Y-101752400D02*
X158546800Y-101765100D01*
X156489400Y-98653600D02*
X157391100Y-98653600D01*
X156489400Y-100203000D02*
X156489400Y-101752400D01*
X156489400Y-98653600D02*
X156489400Y-100203000D01*
D30*
X150999360Y-101249680D02*
X151681380Y-101249680D01*
X151777700Y-101346000D02*
X152222200Y-101346000D01*
X151681380Y-101249680D02*
X151777700Y-101346000D01*
X151701500Y-98742500D02*
X152222200Y-98742500D01*
X151701500Y-98742500D02*
X151693680Y-98750320D01*
X151693680Y-98750320D02*
X150999360Y-98750320D01*
X150999360Y-98750320D02*
X149749680Y-98750320D01*
D28*
X140741400Y-108026200D02*
X140741400Y-110158600D01*
X139870500Y-111029500D02*
X138813700Y-111029500D01*
X140741400Y-110158600D02*
X139870500Y-111029500D01*
D29*
X133490000Y-111350000D02*
X136030000Y-111350000D01*
X136030000Y-111350000D02*
X137502600Y-111350000D01*
X137502600Y-111350000D02*
X137823100Y-111029500D01*
X137823100Y-111029500D02*
X138813700Y-111029500D01*
D30*
G36*
X167170200Y-101621327D02*
X166331526Y-102460000D01*
X167170200Y-103298673D01*
X167170200Y-106701327D01*
X166331526Y-107540000D01*
X167170200Y-108378673D01*
X167170200Y-114780200D01*
X154791600Y-114780200D01*
X154791600Y-111281600D01*
X156110000Y-111281600D01*
X156149528Y-111273595D01*
X156181842Y-111251842D01*
X157171842Y-110261842D01*
X157194132Y-110228231D01*
X157201600Y-110190000D01*
X157201600Y-109562900D01*
X157391100Y-109562900D01*
X157391100Y-110210600D01*
X157467300Y-110286800D01*
X157616828Y-110286800D01*
X157728855Y-110240397D01*
X157814597Y-110154656D01*
X157861000Y-110042629D01*
X157861000Y-109639100D01*
X157784800Y-109562900D01*
X157391100Y-109562900D01*
X157201600Y-109562900D01*
X157201600Y-109238100D01*
X157391100Y-109238100D01*
X157391100Y-109258100D01*
X157784800Y-109258100D01*
X157861000Y-109181900D01*
X157861000Y-108778371D01*
X157814597Y-108666344D01*
X157748734Y-108600481D01*
X160191046Y-108600481D01*
X160322284Y-108781624D01*
X160851760Y-108960238D01*
X161409287Y-108922635D01*
X161749716Y-108781624D01*
X161880954Y-108600481D01*
X165271046Y-108600481D01*
X165402284Y-108781624D01*
X165931760Y-108960238D01*
X166489287Y-108922635D01*
X166829716Y-108781624D01*
X166960954Y-108600481D01*
X166116000Y-107755526D01*
X165271046Y-108600481D01*
X161880954Y-108600481D01*
X161036000Y-107755526D01*
X160191046Y-108600481D01*
X157748734Y-108600481D01*
X157728855Y-108580603D01*
X157616828Y-108534200D01*
X157467300Y-108534200D01*
X157391102Y-108610398D01*
X157391102Y-108534200D01*
X157319401Y-108534200D01*
X158207920Y-107645181D01*
X159635239Y-107644535D01*
X159653365Y-107913287D01*
X159794376Y-108253716D01*
X159975519Y-108384954D01*
X160716428Y-107644046D01*
X161355283Y-107643757D01*
X162096481Y-108384954D01*
X162277624Y-108253716D01*
X162456238Y-107724240D01*
X162450776Y-107643261D01*
X164715084Y-107642236D01*
X164733365Y-107913287D01*
X164874376Y-108253716D01*
X165055519Y-108384954D01*
X165798728Y-107641745D01*
X166120046Y-107641600D01*
X166159570Y-107633577D01*
X166192860Y-107610810D01*
X166214668Y-107576884D01*
X166221600Y-107540000D01*
X166221600Y-107218874D01*
X166960954Y-106479519D01*
X166829716Y-106298376D01*
X166300240Y-106119762D01*
X166221600Y-106125066D01*
X166221600Y-103860689D01*
X166489287Y-103842635D01*
X166829716Y-103701624D01*
X166960954Y-103520481D01*
X166221600Y-102781126D01*
X166221600Y-102460000D01*
X166213595Y-102420472D01*
X166190843Y-102387172D01*
X166156927Y-102365348D01*
X166120000Y-102358400D01*
X165798874Y-102358400D01*
X165055519Y-101615046D01*
X164874376Y-101746284D01*
X164695762Y-102275760D01*
X164701336Y-102358400D01*
X162436959Y-102358400D01*
X162418635Y-102086713D01*
X162277624Y-101746284D01*
X162096481Y-101615046D01*
X161353126Y-102358400D01*
X160718874Y-102358400D01*
X159975519Y-101615046D01*
X159794376Y-101746284D01*
X159634348Y-102220664D01*
X159423100Y-102009416D01*
X159423100Y-101993700D01*
X159346900Y-101917500D01*
X159331184Y-101917500D01*
X159091842Y-101678158D01*
X159058231Y-101655868D01*
X159020000Y-101648400D01*
X158374400Y-101648400D01*
X158374400Y-101612700D01*
X158394400Y-101612700D01*
X158394400Y-101219000D01*
X158699200Y-101219000D01*
X158699200Y-101612700D01*
X159346900Y-101612700D01*
X159423100Y-101536500D01*
X159423100Y-101399519D01*
X160191046Y-101399519D01*
X161036000Y-102244474D01*
X161880954Y-101399519D01*
X165271046Y-101399519D01*
X166116000Y-102244474D01*
X166960954Y-101399519D01*
X166829716Y-101218376D01*
X166300240Y-101039762D01*
X165742713Y-101077365D01*
X165402284Y-101218376D01*
X165271046Y-101399519D01*
X161880954Y-101399519D01*
X161749716Y-101218376D01*
X161220240Y-101039762D01*
X160662713Y-101077365D01*
X160322284Y-101218376D01*
X160191046Y-101399519D01*
X159423100Y-101399519D01*
X159423100Y-101386972D01*
X159376697Y-101274945D01*
X159290956Y-101189203D01*
X159178929Y-101142800D01*
X158775400Y-101142800D01*
X158699200Y-101219000D01*
X158394400Y-101219000D01*
X158318200Y-101142800D01*
X157914671Y-101142800D01*
X157802644Y-101189203D01*
X157716903Y-101274945D01*
X157670500Y-101386972D01*
X157670500Y-101536500D01*
X157746698Y-101612698D01*
X157670500Y-101612698D01*
X157670500Y-101648400D01*
X157111700Y-101648400D01*
X157111700Y-101599998D01*
X157035502Y-101599998D01*
X157111700Y-101523800D01*
X157111700Y-101120271D01*
X157065297Y-101008244D01*
X157034753Y-100977700D01*
X157065297Y-100947156D01*
X157111700Y-100835129D01*
X157111700Y-100431600D01*
X157035500Y-100355400D01*
X156641800Y-100355400D01*
X156641800Y-100375400D01*
X156601600Y-100375400D01*
X156601600Y-100030600D01*
X156641800Y-100030600D01*
X156641800Y-100050600D01*
X157035500Y-100050600D01*
X157111700Y-99974400D01*
X157111700Y-99570871D01*
X157065297Y-99458844D01*
X157034753Y-99428300D01*
X157065297Y-99397756D01*
X157111700Y-99285729D01*
X157111700Y-98882200D01*
X157035500Y-98806000D01*
X156641800Y-98806000D01*
X156641800Y-98826000D01*
X156601600Y-98826000D01*
X156601600Y-98481200D01*
X156641800Y-98481200D01*
X156641800Y-98501200D01*
X157035500Y-98501200D01*
X157111700Y-98425000D01*
X157111700Y-98021471D01*
X157065297Y-97909444D01*
X156979555Y-97823703D01*
X156867528Y-97777300D01*
X156718000Y-97777300D01*
X156641802Y-97853498D01*
X156641802Y-97777300D01*
X156601600Y-97777300D01*
X156601600Y-97513239D01*
X156668475Y-97513297D01*
X157000942Y-97375924D01*
X157255530Y-97121780D01*
X157393483Y-96789554D01*
X157393797Y-96429825D01*
X157256424Y-96097358D01*
X157002280Y-95842770D01*
X156670054Y-95704817D01*
X156601600Y-95704757D01*
X156601600Y-95219800D01*
X167170200Y-95219800D01*
X167170200Y-101621327D01*
X167170200Y-101621327D01*
G37*
X167170200Y-101621327D02*
X166331526Y-102460000D01*
X167170200Y-103298673D01*
X167170200Y-106701327D01*
X166331526Y-107540000D01*
X167170200Y-108378673D01*
X167170200Y-114780200D01*
X154791600Y-114780200D01*
X154791600Y-111281600D01*
X156110000Y-111281600D01*
X156149528Y-111273595D01*
X156181842Y-111251842D01*
X157171842Y-110261842D01*
X157194132Y-110228231D01*
X157201600Y-110190000D01*
X157201600Y-109562900D01*
X157391100Y-109562900D01*
X157391100Y-110210600D01*
X157467300Y-110286800D01*
X157616828Y-110286800D01*
X157728855Y-110240397D01*
X157814597Y-110154656D01*
X157861000Y-110042629D01*
X157861000Y-109639100D01*
X157784800Y-109562900D01*
X157391100Y-109562900D01*
X157201600Y-109562900D01*
X157201600Y-109238100D01*
X157391100Y-109238100D01*
X157391100Y-109258100D01*
X157784800Y-109258100D01*
X157861000Y-109181900D01*
X157861000Y-108778371D01*
X157814597Y-108666344D01*
X157748734Y-108600481D01*
X160191046Y-108600481D01*
X160322284Y-108781624D01*
X160851760Y-108960238D01*
X161409287Y-108922635D01*
X161749716Y-108781624D01*
X161880954Y-108600481D01*
X165271046Y-108600481D01*
X165402284Y-108781624D01*
X165931760Y-108960238D01*
X166489287Y-108922635D01*
X166829716Y-108781624D01*
X166960954Y-108600481D01*
X166116000Y-107755526D01*
X165271046Y-108600481D01*
X161880954Y-108600481D01*
X161036000Y-107755526D01*
X160191046Y-108600481D01*
X157748734Y-108600481D01*
X157728855Y-108580603D01*
X157616828Y-108534200D01*
X157467300Y-108534200D01*
X157391102Y-108610398D01*
X157391102Y-108534200D01*
X157319401Y-108534200D01*
X158207920Y-107645181D01*
X159635239Y-107644535D01*
X159653365Y-107913287D01*
X159794376Y-108253716D01*
X159975519Y-108384954D01*
X160716428Y-107644046D01*
X161355283Y-107643757D01*
X162096481Y-108384954D01*
X162277624Y-108253716D01*
X162456238Y-107724240D01*
X162450776Y-107643261D01*
X164715084Y-107642236D01*
X164733365Y-107913287D01*
X164874376Y-108253716D01*
X165055519Y-108384954D01*
X165798728Y-107641745D01*
X166120046Y-107641600D01*
X166159570Y-107633577D01*
X166192860Y-107610810D01*
X166214668Y-107576884D01*
X166221600Y-107540000D01*
X166221600Y-107218874D01*
X166960954Y-106479519D01*
X166829716Y-106298376D01*
X166300240Y-106119762D01*
X166221600Y-106125066D01*
X166221600Y-103860689D01*
X166489287Y-103842635D01*
X166829716Y-103701624D01*
X166960954Y-103520481D01*
X166221600Y-102781126D01*
X166221600Y-102460000D01*
X166213595Y-102420472D01*
X166190843Y-102387172D01*
X166156927Y-102365348D01*
X166120000Y-102358400D01*
X165798874Y-102358400D01*
X165055519Y-101615046D01*
X164874376Y-101746284D01*
X164695762Y-102275760D01*
X164701336Y-102358400D01*
X162436959Y-102358400D01*
X162418635Y-102086713D01*
X162277624Y-101746284D01*
X162096481Y-101615046D01*
X161353126Y-102358400D01*
X160718874Y-102358400D01*
X159975519Y-101615046D01*
X159794376Y-101746284D01*
X159634348Y-102220664D01*
X159423100Y-102009416D01*
X159423100Y-101993700D01*
X159346900Y-101917500D01*
X159331184Y-101917500D01*
X159091842Y-101678158D01*
X159058231Y-101655868D01*
X159020000Y-101648400D01*
X158374400Y-101648400D01*
X158374400Y-101612700D01*
X158394400Y-101612700D01*
X158394400Y-101219000D01*
X158699200Y-101219000D01*
X158699200Y-101612700D01*
X159346900Y-101612700D01*
X159423100Y-101536500D01*
X159423100Y-101399519D01*
X160191046Y-101399519D01*
X161036000Y-102244474D01*
X161880954Y-101399519D01*
X165271046Y-101399519D01*
X166116000Y-102244474D01*
X166960954Y-101399519D01*
X166829716Y-101218376D01*
X166300240Y-101039762D01*
X165742713Y-101077365D01*
X165402284Y-101218376D01*
X165271046Y-101399519D01*
X161880954Y-101399519D01*
X161749716Y-101218376D01*
X161220240Y-101039762D01*
X160662713Y-101077365D01*
X160322284Y-101218376D01*
X160191046Y-101399519D01*
X159423100Y-101399519D01*
X159423100Y-101386972D01*
X159376697Y-101274945D01*
X159290956Y-101189203D01*
X159178929Y-101142800D01*
X158775400Y-101142800D01*
X158699200Y-101219000D01*
X158394400Y-101219000D01*
X158318200Y-101142800D01*
X157914671Y-101142800D01*
X157802644Y-101189203D01*
X157716903Y-101274945D01*
X157670500Y-101386972D01*
X157670500Y-101536500D01*
X157746698Y-101612698D01*
X157670500Y-101612698D01*
X157670500Y-101648400D01*
X157111700Y-101648400D01*
X157111700Y-101599998D01*
X157035502Y-101599998D01*
X157111700Y-101523800D01*
X157111700Y-101120271D01*
X157065297Y-101008244D01*
X157034753Y-100977700D01*
X157065297Y-100947156D01*
X157111700Y-100835129D01*
X157111700Y-100431600D01*
X157035500Y-100355400D01*
X156641800Y-100355400D01*
X156641800Y-100375400D01*
X156601600Y-100375400D01*
X156601600Y-100030600D01*
X156641800Y-100030600D01*
X156641800Y-100050600D01*
X157035500Y-100050600D01*
X157111700Y-99974400D01*
X157111700Y-99570871D01*
X157065297Y-99458844D01*
X157034753Y-99428300D01*
X157065297Y-99397756D01*
X157111700Y-99285729D01*
X157111700Y-98882200D01*
X157035500Y-98806000D01*
X156641800Y-98806000D01*
X156641800Y-98826000D01*
X156601600Y-98826000D01*
X156601600Y-98481200D01*
X156641800Y-98481200D01*
X156641800Y-98501200D01*
X157035500Y-98501200D01*
X157111700Y-98425000D01*
X157111700Y-98021471D01*
X157065297Y-97909444D01*
X156979555Y-97823703D01*
X156867528Y-97777300D01*
X156718000Y-97777300D01*
X156641802Y-97853498D01*
X156641802Y-97777300D01*
X156601600Y-97777300D01*
X156601600Y-97513239D01*
X156668475Y-97513297D01*
X157000942Y-97375924D01*
X157255530Y-97121780D01*
X157393483Y-96789554D01*
X157393797Y-96429825D01*
X157256424Y-96097358D01*
X157002280Y-95842770D01*
X156670054Y-95704817D01*
X156601600Y-95704757D01*
X156601600Y-95219800D01*
X167170200Y-95219800D01*
X167170200Y-101621327D01*
G36*
X149395350Y-103229610D02*
X149449628Y-103229610D01*
X149499490Y-103208957D01*
X149549352Y-103229610D01*
X149603630Y-103229610D01*
X149651640Y-103181600D01*
X149843660Y-103181600D01*
X149843660Y-103425160D01*
X149874595Y-103580683D01*
X149929156Y-103662338D01*
X149962692Y-103712528D01*
X150901400Y-104651236D01*
X150901400Y-107398400D01*
X149211600Y-107398400D01*
X149211600Y-103181600D01*
X149347340Y-103181600D01*
X149395350Y-103229610D01*
X149395350Y-103229610D01*
G37*
X149395350Y-103229610D02*
X149449628Y-103229610D01*
X149499490Y-103208957D01*
X149549352Y-103229610D01*
X149603630Y-103229610D01*
X149651640Y-103181600D01*
X149843660Y-103181600D01*
X149843660Y-103425160D01*
X149874595Y-103580683D01*
X149929156Y-103662338D01*
X149962692Y-103712528D01*
X150901400Y-104651236D01*
X150901400Y-107398400D01*
X149211600Y-107398400D01*
X149211600Y-103181600D01*
X149347340Y-103181600D01*
X149395350Y-103229610D01*
G36*
X153938400Y-104308400D02*
X152750000Y-104308400D01*
X152710472Y-104316405D01*
X152677172Y-104339157D01*
X152655348Y-104373073D01*
X152648400Y-104410000D01*
X152648400Y-104915459D01*
X152640508Y-104920537D01*
X152570913Y-105022393D01*
X152546429Y-105143300D01*
X152546429Y-105778300D01*
X152567682Y-105891252D01*
X152634437Y-105994992D01*
X152648400Y-106004532D01*
X152648400Y-106439459D01*
X152640508Y-106444537D01*
X152570913Y-106546393D01*
X152546429Y-106667300D01*
X152546429Y-107302300D01*
X152564511Y-107398400D01*
X151800836Y-107398400D01*
X151714200Y-107311764D01*
X151714200Y-104482900D01*
X151683265Y-104327377D01*
X151595168Y-104195532D01*
X150656460Y-103256824D01*
X150656460Y-103181600D01*
X151020000Y-103181600D01*
X151059528Y-103173595D01*
X151092828Y-103150843D01*
X151114652Y-103116927D01*
X151121600Y-103080000D01*
X151121600Y-102621600D01*
X153938400Y-102621600D01*
X153938400Y-104308400D01*
X153938400Y-104308400D01*
G37*
X153938400Y-104308400D02*
X152750000Y-104308400D01*
X152710472Y-104316405D01*
X152677172Y-104339157D01*
X152655348Y-104373073D01*
X152648400Y-104410000D01*
X152648400Y-104915459D01*
X152640508Y-104920537D01*
X152570913Y-105022393D01*
X152546429Y-105143300D01*
X152546429Y-105778300D01*
X152567682Y-105891252D01*
X152634437Y-105994992D01*
X152648400Y-106004532D01*
X152648400Y-106439459D01*
X152640508Y-106444537D01*
X152570913Y-106546393D01*
X152546429Y-106667300D01*
X152546429Y-107302300D01*
X152564511Y-107398400D01*
X151800836Y-107398400D01*
X151714200Y-107311764D01*
X151714200Y-104482900D01*
X151683265Y-104327377D01*
X151595168Y-104195532D01*
X150656460Y-103256824D01*
X150656460Y-103181600D01*
X151020000Y-103181600D01*
X151059528Y-103173595D01*
X151092828Y-103150843D01*
X151114652Y-103116927D01*
X151121600Y-103080000D01*
X151121600Y-102621600D01*
X153938400Y-102621600D01*
X153938400Y-104308400D01*
M02*
