G04 #@! TF.FileFunction,Paste,Top*
%FSLAX46Y46*%
G04 Gerber Fmt 4.6, Leading zero omitted, Abs format (unit mm)*
G04 Created by KiCad (PCBNEW 4.0.2+dfsg1-stable) date ven. 29 sept. 2017 08:41:15 CEST*
%MOMM*%
G01*
G04 APERTURE LIST*
%ADD10C,0.100000*%
%ADD11R,1.143000X0.508000*%
%ADD12R,2.032000X1.524000*%
%ADD13R,1.780540X0.304800*%
%ADD14R,1.780540X0.299720*%
%ADD15R,1.397000X0.889000*%
%ADD16R,0.635000X1.143000*%
%ADD17R,1.143000X0.635000*%
%ADD18R,0.889000X1.397000*%
%ADD19R,0.701040X1.000760*%
%ADD20R,3.200000X1.120000*%
%ADD21C,1.200000*%
%ADD22R,0.449200X0.449200*%
%ADD23R,0.900000X1.100000*%
G04 APERTURE END LIST*
D10*
D11*
X156237000Y-101195000D03*
X150903000Y-101195000D03*
X156237000Y-102465000D03*
X156237000Y-103735000D03*
X156237000Y-105005000D03*
X150903000Y-102465000D03*
X150903000Y-103735000D03*
X150903000Y-105005000D03*
D12*
X155090000Y-99251000D03*
X155090000Y-95949000D03*
D13*
X147038060Y-105373600D03*
X147038060Y-104723600D03*
X147038060Y-104073600D03*
X147038060Y-103423600D03*
X147038060Y-102773600D03*
X147038060Y-102123600D03*
X147038060Y-101473600D03*
X147038060Y-100823600D03*
D14*
X141099540Y-100823600D03*
X141099540Y-101473600D03*
X141099540Y-102123600D03*
X141099540Y-102773600D03*
X141099540Y-103423600D03*
X141099540Y-104073600D03*
X141099540Y-104723600D03*
X141099540Y-105373600D03*
D13*
X147040600Y-106023600D03*
X147040600Y-100173600D03*
X141099540Y-100173600D03*
D14*
X141099540Y-106023600D03*
D15*
X151511000Y-110528100D03*
X151511000Y-112433100D03*
D16*
X159766000Y-96139000D03*
X161290000Y-96139000D03*
D17*
X156387800Y-110794800D03*
X156387800Y-109270800D03*
D16*
X154863800Y-109270800D03*
X153339800Y-109270800D03*
D18*
X136029700Y-113588800D03*
X134124700Y-113588800D03*
D17*
X156387800Y-106400600D03*
X156387800Y-107924600D03*
D16*
X139496800Y-107289600D03*
X141020800Y-107289600D03*
D15*
X156387800Y-112026700D03*
X156387800Y-113931700D03*
D19*
X152971500Y-110769400D03*
X153924000Y-110769400D03*
X154876500Y-110769400D03*
X154876500Y-113309400D03*
X153924000Y-113309400D03*
X152971500Y-113309400D03*
D20*
X148793200Y-111228000D03*
X148793200Y-113308000D03*
D16*
X150825200Y-107162600D03*
X152349200Y-107162600D03*
D21*
X158445200Y-96139000D03*
D22*
X149098000Y-103548600D03*
X149098000Y-102648600D03*
X146590600Y-107086400D03*
X147490600Y-107086400D03*
D23*
X147100000Y-96561400D03*
X145000000Y-96561400D03*
X145000000Y-98561400D03*
X147100000Y-98561400D03*
D17*
X148564600Y-97688400D03*
X148564600Y-99212400D03*
D16*
X146050000Y-108508800D03*
X147574000Y-108508800D03*
X143027400Y-108508800D03*
X144551400Y-108508800D03*
M02*
