G04 #@! TF.FileFunction,Legend,Top*
%FSLAX46Y46*%
G04 Gerber Fmt 4.6, Leading zero omitted, Abs format (unit mm)*
G04 Created by KiCad (PCBNEW 4.0.2+dfsg1-stable) date ven. 29 sept. 2017 08:41:15 CEST*
%MOMM*%
G01*
G04 APERTURE LIST*
%ADD10C,0.100000*%
%ADD11C,0.150000*%
%ADD12C,0.101600*%
%ADD13C,0.127000*%
%ADD14C,0.152400*%
%ADD15C,0.203200*%
%ADD16C,0.027940*%
%ADD17C,0.076200*%
G04 APERTURE END LIST*
D10*
D11*
X149591781Y-99421724D02*
X149591781Y-98850295D01*
X150591781Y-99136010D02*
X149591781Y-99136010D01*
X150067971Y-98516962D02*
X150067971Y-98183628D01*
X150591781Y-98040771D02*
X150591781Y-98516962D01*
X149591781Y-98516962D01*
X149591781Y-98040771D01*
X150591781Y-97040771D02*
X150115590Y-97374105D01*
X150591781Y-97612200D02*
X149591781Y-97612200D01*
X149591781Y-97231247D01*
X149639400Y-97136009D01*
X149687019Y-97088390D01*
X149782257Y-97040771D01*
X149925114Y-97040771D01*
X150020352Y-97088390D01*
X150067971Y-97136009D01*
X150115590Y-97231247D01*
X150115590Y-97612200D01*
X150591781Y-96612200D02*
X149591781Y-96612200D01*
X150306067Y-96278866D01*
X149591781Y-95945533D01*
X150591781Y-95945533D01*
X123450000Y-98650000D02*
X129450000Y-98650000D01*
X123450000Y-101190000D02*
X129450000Y-101190000D01*
X123450000Y-103730000D02*
X129450000Y-103730000D01*
X123450000Y-106270000D02*
X129450000Y-106270000D01*
X123450000Y-108810000D02*
X129450000Y-108810000D01*
X123450000Y-111350000D02*
X129450000Y-111350000D01*
X131990000Y-112620000D02*
X131990000Y-97380000D01*
X131990000Y-97380000D02*
X129450000Y-97380000D01*
X129450000Y-97380000D02*
X129450000Y-112620000D01*
X131990000Y-112620000D02*
X129450000Y-112620000D01*
D12*
X167550000Y-112620000D02*
X167550000Y-97380000D01*
X157390000Y-112620000D02*
X157390000Y-97380000D01*
X167550000Y-112620000D02*
X157390000Y-112620000D01*
X157390000Y-97380000D02*
X167550000Y-97380000D01*
D13*
X151792000Y-100433000D02*
X151665000Y-100433000D01*
X151665000Y-100433000D02*
X151665000Y-105767000D01*
X155475000Y-105767000D02*
X155475000Y-100433000D01*
X155475000Y-100433000D02*
X151792000Y-100433000D01*
X154078000Y-100433000D02*
X154078000Y-100941000D01*
X154078000Y-100941000D02*
X153062000Y-100941000D01*
X153062000Y-100941000D02*
X153062000Y-100433000D01*
X155475000Y-105767000D02*
X151665000Y-105767000D01*
D14*
X150900000Y-95060000D02*
X153440000Y-95060000D01*
X153440000Y-95060000D02*
X153440000Y-100140000D01*
X153440000Y-100140000D02*
X150900000Y-100140000D01*
X150900000Y-100140000D02*
X150900000Y-95060000D01*
D13*
X153947000Y-100140000D02*
X156233000Y-100140000D01*
X156233000Y-100140000D02*
X156233000Y-98489000D01*
X153947000Y-96711000D02*
X153947000Y-95060000D01*
X153947000Y-95060000D02*
X156233000Y-95060000D01*
X156233000Y-95060000D02*
X156233000Y-96711000D01*
X153947000Y-98489000D02*
X153947000Y-100140000D01*
D15*
X142321280Y-106398600D02*
X145816320Y-106398600D01*
X145816320Y-99798600D02*
X142321280Y-99798600D01*
D13*
X150749000Y-110972600D02*
X150749000Y-109956600D01*
X150749000Y-109956600D02*
X152273000Y-109956600D01*
X152273000Y-109956600D02*
X152273000Y-110972600D01*
X152273000Y-111988600D02*
X152273000Y-113004600D01*
X152273000Y-113004600D02*
X150749000Y-113004600D01*
X150749000Y-113004600D02*
X150749000Y-111988600D01*
X159385000Y-95504000D02*
X161671000Y-95504000D01*
X161671000Y-95504000D02*
X161671000Y-96774000D01*
X161671000Y-96774000D02*
X159385000Y-96774000D01*
X159385000Y-96774000D02*
X159385000Y-95504000D01*
X155752800Y-111175800D02*
X155752800Y-108889800D01*
X155752800Y-108889800D02*
X157022800Y-108889800D01*
X157022800Y-108889800D02*
X157022800Y-111175800D01*
X157022800Y-111175800D02*
X155752800Y-111175800D01*
X155244800Y-109905800D02*
X152958800Y-109905800D01*
X152958800Y-109905800D02*
X152958800Y-108635800D01*
X152958800Y-108635800D02*
X155244800Y-108635800D01*
X155244800Y-108635800D02*
X155244800Y-109905800D01*
X135585200Y-112826800D02*
X136601200Y-112826800D01*
X136601200Y-112826800D02*
X136601200Y-114350800D01*
X136601200Y-114350800D02*
X135585200Y-114350800D01*
X134569200Y-114350800D02*
X133553200Y-114350800D01*
X133553200Y-114350800D02*
X133553200Y-112826800D01*
X133553200Y-112826800D02*
X134569200Y-112826800D01*
X157022800Y-106019600D02*
X157022800Y-108305600D01*
X157022800Y-108305600D02*
X155752800Y-108305600D01*
X155752800Y-108305600D02*
X155752800Y-106019600D01*
X155752800Y-106019600D02*
X157022800Y-106019600D01*
X139115800Y-106654600D02*
X141401800Y-106654600D01*
X141401800Y-106654600D02*
X141401800Y-107924600D01*
X141401800Y-107924600D02*
X139115800Y-107924600D01*
X139115800Y-107924600D02*
X139115800Y-106654600D01*
X155625800Y-112471200D02*
X155625800Y-111455200D01*
X155625800Y-111455200D02*
X157149800Y-111455200D01*
X157149800Y-111455200D02*
X157149800Y-112471200D01*
X157149800Y-113487200D02*
X157149800Y-114503200D01*
X157149800Y-114503200D02*
X155625800Y-114503200D01*
X155625800Y-114503200D02*
X155625800Y-113487200D01*
X153416000Y-112801400D02*
X152654000Y-112293400D01*
X155194000Y-112801400D02*
X152590500Y-112801400D01*
X152590500Y-112801400D02*
X152590500Y-111277400D01*
X152590500Y-111277400D02*
X155194000Y-111277400D01*
X155194000Y-111277400D02*
X155194000Y-112801400D01*
X150444200Y-106527600D02*
X152730200Y-106527600D01*
X152730200Y-106527600D02*
X152730200Y-107797600D01*
X152730200Y-107797600D02*
X150444200Y-107797600D01*
X150444200Y-107797600D02*
X150444200Y-106527600D01*
D12*
X148698000Y-103948600D02*
X148698000Y-103648600D01*
X148698000Y-103948600D02*
X149498000Y-103948600D01*
X149498000Y-103948600D02*
X149498000Y-103648600D01*
X148698000Y-102548600D02*
X148698000Y-102248600D01*
X148698000Y-102248600D02*
X149498000Y-102248600D01*
X149498000Y-102248600D02*
X149498000Y-102548600D01*
X146190600Y-106686400D02*
X146490600Y-106686400D01*
X146190600Y-106686400D02*
X146190600Y-107486400D01*
X146190600Y-107486400D02*
X146490600Y-107486400D01*
X147590600Y-106686400D02*
X147890600Y-106686400D01*
X147890600Y-106686400D02*
X147890600Y-107486400D01*
X147890600Y-107486400D02*
X147590600Y-107486400D01*
D10*
X144450000Y-98811400D02*
X144450000Y-96311400D01*
X146550000Y-96311400D02*
X145550000Y-96311400D01*
X146550000Y-98811400D02*
X145550000Y-98811400D01*
X147650000Y-98811400D02*
X147650000Y-96311400D01*
D13*
X149199600Y-97307400D02*
X149199600Y-99593400D01*
X149199600Y-99593400D02*
X147929600Y-99593400D01*
X147929600Y-99593400D02*
X147929600Y-97307400D01*
X147929600Y-97307400D02*
X149199600Y-97307400D01*
X145669000Y-107873800D02*
X147955000Y-107873800D01*
X147955000Y-107873800D02*
X147955000Y-109143800D01*
X147955000Y-109143800D02*
X145669000Y-109143800D01*
X145669000Y-109143800D02*
X145669000Y-107873800D01*
X142646400Y-107873800D02*
X144932400Y-107873800D01*
X144932400Y-107873800D02*
X144932400Y-109143800D01*
X144932400Y-109143800D02*
X142646400Y-109143800D01*
X142646400Y-109143800D02*
X142646400Y-107873800D01*
D16*
X141871700Y-109664500D02*
X142125700Y-109664500D01*
X141719300Y-109689900D02*
X142354300Y-109689900D01*
X141719300Y-109715300D02*
X142354300Y-109715300D01*
X141693900Y-109740700D02*
X142379700Y-109740700D01*
X141693900Y-109766100D02*
X142379700Y-109766100D01*
X141693900Y-109791500D02*
X142379700Y-109791500D01*
X141693900Y-109816900D02*
X142379700Y-109816900D01*
X141693900Y-109842300D02*
X142379700Y-109842300D01*
X141693900Y-109867700D02*
X142379700Y-109867700D01*
X141668500Y-109893100D02*
X142405100Y-109893100D01*
X141668500Y-109918500D02*
X142405100Y-109918500D01*
X141668500Y-109943900D02*
X142405100Y-109943900D01*
X141668500Y-109969300D02*
X142405100Y-109969300D01*
X141668500Y-109994700D02*
X142405100Y-109994700D01*
X141643100Y-110020100D02*
X142405100Y-110020100D01*
X141643100Y-110045500D02*
X142430500Y-110045500D01*
X141643100Y-110070900D02*
X142430500Y-110070900D01*
X141643100Y-110096300D02*
X142430500Y-110096300D01*
X141643100Y-110121700D02*
X142430500Y-110121700D01*
X140601700Y-110147100D02*
X140677900Y-110147100D01*
X141643100Y-110147100D02*
X142430500Y-110147100D01*
X143370300Y-110147100D02*
X143471900Y-110147100D01*
X140576300Y-110172500D02*
X140703300Y-110172500D01*
X141617700Y-110172500D02*
X142430500Y-110172500D01*
X143319500Y-110172500D02*
X143497300Y-110172500D01*
X140550900Y-110197900D02*
X140754100Y-110197900D01*
X141617700Y-110197900D02*
X142430500Y-110197900D01*
X143294100Y-110197900D02*
X143522700Y-110197900D01*
X140500100Y-110223300D02*
X140779500Y-110223300D01*
X141617700Y-110223300D02*
X142455900Y-110223300D01*
X143243300Y-110223300D02*
X143573500Y-110223300D01*
X140474700Y-110248700D02*
X140830300Y-110248700D01*
X141617700Y-110248700D02*
X142455900Y-110248700D01*
X143217900Y-110248700D02*
X143598900Y-110248700D01*
X140449300Y-110274100D02*
X140855700Y-110274100D01*
X141617700Y-110274100D02*
X142455900Y-110274100D01*
X143167100Y-110274100D02*
X143624300Y-110274100D01*
X140423900Y-110299500D02*
X140881100Y-110299500D01*
X141592300Y-110299500D02*
X142455900Y-110299500D01*
X143141700Y-110299500D02*
X143649700Y-110299500D01*
X140398500Y-110324900D02*
X140931900Y-110324900D01*
X141516100Y-110324900D02*
X142557500Y-110324900D01*
X143090900Y-110324900D02*
X143675100Y-110324900D01*
X140373100Y-110350300D02*
X140957300Y-110350300D01*
X141439900Y-110350300D02*
X142633700Y-110350300D01*
X143065500Y-110350300D02*
X143700500Y-110350300D01*
X140347700Y-110375700D02*
X141008100Y-110375700D01*
X141363700Y-110375700D02*
X142684500Y-110375700D01*
X143014700Y-110375700D02*
X143725900Y-110375700D01*
X140322300Y-110401100D02*
X141033500Y-110401100D01*
X141312900Y-110401100D02*
X142760700Y-110401100D01*
X142989300Y-110401100D02*
X143751300Y-110401100D01*
X140296900Y-110426500D02*
X141058900Y-110426500D01*
X141262100Y-110426500D02*
X142811500Y-110426500D01*
X142963900Y-110426500D02*
X143776700Y-110426500D01*
X140271500Y-110451900D02*
X141109700Y-110451900D01*
X141211300Y-110451900D02*
X142862300Y-110451900D01*
X142913100Y-110451900D02*
X143802100Y-110451900D01*
X140246100Y-110477300D02*
X141135100Y-110477300D01*
X141160500Y-110477300D02*
X143827500Y-110477300D01*
X140220700Y-110502700D02*
X143827500Y-110502700D01*
X140220700Y-110528100D02*
X143852900Y-110528100D01*
X140195300Y-110553500D02*
X143852900Y-110553500D01*
X140195300Y-110578900D02*
X143852900Y-110578900D01*
X140220700Y-110604300D02*
X143852900Y-110604300D01*
X140220700Y-110629700D02*
X143827500Y-110629700D01*
X140246100Y-110655100D02*
X143827500Y-110655100D01*
X140271500Y-110680500D02*
X143802100Y-110680500D01*
X140271500Y-110705900D02*
X143776700Y-110705900D01*
X140296900Y-110731300D02*
X143751300Y-110731300D01*
X140322300Y-110756700D02*
X143751300Y-110756700D01*
X140347700Y-110782100D02*
X143725900Y-110782100D01*
X140347700Y-110807500D02*
X143700500Y-110807500D01*
X140373100Y-110832900D02*
X143700500Y-110832900D01*
X140398500Y-110858300D02*
X143675100Y-110858300D01*
X140398500Y-110883700D02*
X143649700Y-110883700D01*
X140423900Y-110909100D02*
X143624300Y-110909100D01*
X140449300Y-110934500D02*
X143624300Y-110934500D01*
X140449300Y-110959900D02*
X143598900Y-110959900D01*
X140474700Y-110985300D02*
X143573500Y-110985300D01*
X140500100Y-111010700D02*
X143548100Y-111010700D01*
X140500100Y-111036100D02*
X143548100Y-111036100D01*
X140525500Y-111061500D02*
X143522700Y-111061500D01*
X140525500Y-111086900D02*
X143522700Y-111086900D01*
X140525500Y-111112300D02*
X143548100Y-111112300D01*
X140500100Y-111137700D02*
X143573500Y-111137700D01*
X140500100Y-111163100D02*
X143573500Y-111163100D01*
X140474700Y-111188500D02*
X143598900Y-111188500D01*
X140474700Y-111213900D02*
X143598900Y-111213900D01*
X140449300Y-111239300D02*
X143624300Y-111239300D01*
X140449300Y-111264700D02*
X143624300Y-111264700D01*
X140423900Y-111290100D02*
X143649700Y-111290100D01*
X140423900Y-111315500D02*
X143649700Y-111315500D01*
X140398500Y-111340900D02*
X143649700Y-111340900D01*
X140398500Y-111366300D02*
X141922500Y-111366300D01*
X142151100Y-111366300D02*
X143675100Y-111366300D01*
X140398500Y-111391700D02*
X141846300Y-111391700D01*
X142227300Y-111391700D02*
X143675100Y-111391700D01*
X140373100Y-111417100D02*
X141770100Y-111417100D01*
X142303500Y-111417100D02*
X143700500Y-111417100D01*
X140373100Y-111442500D02*
X141719300Y-111442500D01*
X142354300Y-111442500D02*
X143700500Y-111442500D01*
X140373100Y-111467900D02*
X141693900Y-111467900D01*
X142379700Y-111467900D02*
X143700500Y-111467900D01*
X140347700Y-111493300D02*
X141643100Y-111493300D01*
X142430500Y-111493300D02*
X143725900Y-111493300D01*
X140347700Y-111518700D02*
X141617700Y-111518700D01*
X142455900Y-111518700D02*
X143802100Y-111518700D01*
X140347700Y-111544100D02*
X141592300Y-111544100D01*
X142481300Y-111544100D02*
X143954500Y-111544100D01*
X140322300Y-111569500D02*
X141566900Y-111569500D01*
X142506700Y-111569500D02*
X144081500Y-111569500D01*
X140169900Y-111594900D02*
X141541500Y-111594900D01*
X142532100Y-111594900D02*
X144233900Y-111594900D01*
X140017500Y-111620300D02*
X141541500Y-111620300D01*
X142532100Y-111620300D02*
X144335500Y-111620300D01*
X139865100Y-111645700D02*
X141516100Y-111645700D01*
X142557500Y-111645700D02*
X144335500Y-111645700D01*
X139738100Y-111671100D02*
X141490700Y-111671100D01*
X142582900Y-111671100D02*
X144360900Y-111671100D01*
X139712700Y-111696500D02*
X141490700Y-111696500D01*
X142582900Y-111696500D02*
X144360900Y-111696500D01*
X139712700Y-111721900D02*
X141465300Y-111721900D01*
X142608300Y-111721900D02*
X144360900Y-111721900D01*
X139712700Y-111747300D02*
X141465300Y-111747300D01*
X142608300Y-111747300D02*
X144360900Y-111747300D01*
X139712700Y-111772700D02*
X141439900Y-111772700D01*
X142633700Y-111772700D02*
X144360900Y-111772700D01*
X139712700Y-111798100D02*
X141439900Y-111798100D01*
X142633700Y-111798100D02*
X144360900Y-111798100D01*
X139712700Y-111823500D02*
X141439900Y-111823500D01*
X142633700Y-111823500D02*
X144360900Y-111823500D01*
X139712700Y-111848900D02*
X141439900Y-111848900D01*
X142659100Y-111848900D02*
X144360900Y-111848900D01*
X139712700Y-111874300D02*
X141414500Y-111874300D01*
X142659100Y-111874300D02*
X144360900Y-111874300D01*
X139712700Y-111899700D02*
X141414500Y-111899700D01*
X142659100Y-111899700D02*
X144386300Y-111899700D01*
X139687300Y-111925100D02*
X141414500Y-111925100D01*
X142659100Y-111925100D02*
X144386300Y-111925100D01*
X139687300Y-111950500D02*
X141414500Y-111950500D01*
X142659100Y-111950500D02*
X144386300Y-111950500D01*
X139687300Y-111975900D02*
X141414500Y-111975900D01*
X142659100Y-111975900D02*
X144386300Y-111975900D01*
X139687300Y-112001300D02*
X141414500Y-112001300D01*
X142659100Y-112001300D02*
X144386300Y-112001300D01*
X139687300Y-112026700D02*
X141414500Y-112026700D01*
X142659100Y-112026700D02*
X144386300Y-112026700D01*
X139687300Y-112052100D02*
X141414500Y-112052100D01*
X142659100Y-112052100D02*
X144386300Y-112052100D01*
X139687300Y-112077500D02*
X141414500Y-112077500D01*
X142659100Y-112077500D02*
X144386300Y-112077500D01*
X139687300Y-112102900D02*
X141414500Y-112102900D01*
X142659100Y-112102900D02*
X144386300Y-112102900D01*
X139687300Y-112128300D02*
X141439900Y-112128300D01*
X142659100Y-112128300D02*
X144386300Y-112128300D01*
X139712700Y-112153700D02*
X141439900Y-112153700D01*
X142633700Y-112153700D02*
X144386300Y-112153700D01*
X139712700Y-112179100D02*
X141439900Y-112179100D01*
X142633700Y-112179100D02*
X144360900Y-112179100D01*
X139712700Y-112204500D02*
X141465300Y-112204500D01*
X142633700Y-112204500D02*
X144360900Y-112204500D01*
X139712700Y-112229900D02*
X141465300Y-112229900D01*
X142608300Y-112229900D02*
X144360900Y-112229900D01*
X139712700Y-112255300D02*
X141465300Y-112255300D01*
X142608300Y-112255300D02*
X144335500Y-112255300D01*
X139712700Y-112280700D02*
X141490700Y-112280700D01*
X142582900Y-112280700D02*
X144183100Y-112280700D01*
X139814300Y-112306100D02*
X141516100Y-112306100D01*
X142582900Y-112306100D02*
X144030700Y-112306100D01*
X139941300Y-112331500D02*
X141516100Y-112331500D01*
X142557500Y-112331500D02*
X143852900Y-112331500D01*
X140093700Y-112356900D02*
X141541500Y-112356900D01*
X142532100Y-112356900D02*
X143751300Y-112356900D01*
X140220700Y-112382300D02*
X141566900Y-112382300D01*
X142506700Y-112382300D02*
X143751300Y-112382300D01*
X140322300Y-112407700D02*
X141592300Y-112407700D01*
X142506700Y-112407700D02*
X143751300Y-112407700D01*
X140347700Y-112433100D02*
X141592300Y-112433100D01*
X142481300Y-112433100D02*
X143725900Y-112433100D01*
X140347700Y-112458500D02*
X141643100Y-112458500D01*
X142430500Y-112458500D02*
X143725900Y-112458500D01*
X140347700Y-112483900D02*
X141668500Y-112483900D01*
X142405100Y-112483900D02*
X143725900Y-112483900D01*
X140347700Y-112509300D02*
X141693900Y-112509300D01*
X142379700Y-112509300D02*
X143725900Y-112509300D01*
X140373100Y-112534700D02*
X141744700Y-112534700D01*
X142328900Y-112534700D02*
X143700500Y-112534700D01*
X140373100Y-112560100D02*
X141795500Y-112560100D01*
X142278100Y-112560100D02*
X143700500Y-112560100D01*
X140373100Y-112585500D02*
X141820900Y-112585500D01*
X142278100Y-112585500D02*
X143700500Y-112585500D01*
X140398500Y-112610900D02*
X141820900Y-112610900D01*
X142278100Y-112610900D02*
X143675100Y-112610900D01*
X140398500Y-112636300D02*
X141820900Y-112636300D01*
X142278100Y-112636300D02*
X143675100Y-112636300D01*
X140398500Y-112661700D02*
X141795500Y-112661700D01*
X142303500Y-112661700D02*
X143649700Y-112661700D01*
X140423900Y-112687100D02*
X141795500Y-112687100D01*
X142303500Y-112687100D02*
X143649700Y-112687100D01*
X140423900Y-112712500D02*
X141795500Y-112712500D01*
X142303500Y-112712500D02*
X143649700Y-112712500D01*
X140449300Y-112737900D02*
X141770100Y-112737900D01*
X142328900Y-112737900D02*
X143624300Y-112737900D01*
X140449300Y-112763300D02*
X141770100Y-112763300D01*
X142328900Y-112763300D02*
X143624300Y-112763300D01*
X140474700Y-112788700D02*
X141744700Y-112788700D01*
X142354300Y-112788700D02*
X143598900Y-112788700D01*
X140474700Y-112814100D02*
X141744700Y-112814100D01*
X142354300Y-112814100D02*
X143598900Y-112814100D01*
X140500100Y-112839500D02*
X141744700Y-112839500D01*
X142354300Y-112839500D02*
X143573500Y-112839500D01*
X140500100Y-112864900D02*
X141719300Y-112864900D01*
X142379700Y-112864900D02*
X143598900Y-112864900D01*
X140525500Y-112890300D02*
X141719300Y-112890300D01*
X142379700Y-112890300D02*
X143598900Y-112890300D01*
X140525500Y-112915700D02*
X141719300Y-112915700D01*
X142405100Y-112915700D02*
X143624300Y-112915700D01*
X140525500Y-112941100D02*
X141693900Y-112941100D01*
X142405100Y-112941100D02*
X143649700Y-112941100D01*
X140525500Y-112966500D02*
X141693900Y-112966500D01*
X142405100Y-112966500D02*
X143675100Y-112966500D01*
X140500100Y-112991900D02*
X141693900Y-112991900D01*
X142430500Y-112991900D02*
X143675100Y-112991900D01*
X140474700Y-113017300D02*
X141668500Y-113017300D01*
X142430500Y-113017300D02*
X143700500Y-113017300D01*
X140449300Y-113042700D02*
X141668500Y-113042700D01*
X142430500Y-113042700D02*
X143725900Y-113042700D01*
X140449300Y-113068100D02*
X141668500Y-113068100D01*
X142455900Y-113068100D02*
X143725900Y-113068100D01*
X140423900Y-113093500D02*
X141643100Y-113093500D01*
X142455900Y-113093500D02*
X143751300Y-113093500D01*
X140398500Y-113118900D02*
X141643100Y-113118900D01*
X142481300Y-113118900D02*
X143776700Y-113118900D01*
X140373100Y-113144300D02*
X141643100Y-113144300D01*
X142481300Y-113144300D02*
X143776700Y-113144300D01*
X140373100Y-113169700D02*
X141617700Y-113169700D01*
X142481300Y-113169700D02*
X143802100Y-113169700D01*
X140347700Y-113195100D02*
X141617700Y-113195100D01*
X142506700Y-113195100D02*
X143827500Y-113195100D01*
X140322300Y-113220500D02*
X141592300Y-113220500D01*
X142506700Y-113220500D02*
X143827500Y-113220500D01*
X140322300Y-113245900D02*
X141592300Y-113245900D01*
X142532100Y-113245900D02*
X143852900Y-113245900D01*
X140296900Y-113271300D02*
X141592300Y-113271300D01*
X142532100Y-113271300D02*
X143878300Y-113271300D01*
X140271500Y-113296700D02*
X141566900Y-113296700D01*
X142532100Y-113296700D02*
X143903700Y-113296700D01*
X140246100Y-113322100D02*
X141566900Y-113322100D01*
X142557500Y-113322100D02*
X143903700Y-113322100D01*
X140246100Y-113347500D02*
X141566900Y-113347500D01*
X142557500Y-113347500D02*
X143929100Y-113347500D01*
X140220700Y-113372900D02*
X141541500Y-113372900D01*
X142582900Y-113372900D02*
X143929100Y-113372900D01*
X140195300Y-113398300D02*
X141541500Y-113398300D01*
X142582900Y-113398300D02*
X143929100Y-113398300D01*
X140195300Y-113423700D02*
X141541500Y-113423700D01*
X142582900Y-113423700D02*
X143903700Y-113423700D01*
X140195300Y-113449100D02*
X141516100Y-113449100D01*
X142608300Y-113449100D02*
X143878300Y-113449100D01*
X140195300Y-113474500D02*
X141516100Y-113474500D01*
X142608300Y-113474500D02*
X143852900Y-113474500D01*
X140220700Y-113499900D02*
X141516100Y-113499900D01*
X142608300Y-113499900D02*
X143827500Y-113499900D01*
X140246100Y-113525300D02*
X141490700Y-113525300D01*
X142633700Y-113525300D02*
X143827500Y-113525300D01*
X140271500Y-113550700D02*
X141490700Y-113550700D01*
X142633700Y-113550700D02*
X142989300Y-113550700D01*
X143040100Y-113550700D02*
X143802100Y-113550700D01*
X140296900Y-113576100D02*
X141490700Y-113576100D01*
X142659100Y-113576100D02*
X142913100Y-113576100D01*
X143116300Y-113576100D02*
X143776700Y-113576100D01*
X140322300Y-113601500D02*
X141084300Y-113601500D01*
X141211300Y-113601500D02*
X141465300Y-113601500D01*
X142659100Y-113601500D02*
X142862300Y-113601500D01*
X143141700Y-113601500D02*
X143751300Y-113601500D01*
X140347700Y-113626900D02*
X141033500Y-113626900D01*
X141287500Y-113626900D02*
X141465300Y-113626900D01*
X142659100Y-113626900D02*
X142811500Y-113626900D01*
X143167100Y-113626900D02*
X143725900Y-113626900D01*
X140373100Y-113652300D02*
X140982700Y-113652300D01*
X141338300Y-113652300D02*
X141439900Y-113652300D01*
X142684500Y-113652300D02*
X142760700Y-113652300D01*
X143192500Y-113652300D02*
X143751300Y-113652300D01*
X140398500Y-113677700D02*
X140957300Y-113677700D01*
X141389100Y-113677700D02*
X141439900Y-113677700D01*
X142684500Y-113677700D02*
X142709900Y-113677700D01*
X143192500Y-113677700D02*
X143751300Y-113677700D01*
X140423900Y-113703100D02*
X140906500Y-113703100D01*
X143243300Y-113703100D02*
X143751300Y-113703100D01*
X140449300Y-113728500D02*
X140881100Y-113728500D01*
X143268700Y-113728500D02*
X143751300Y-113728500D01*
X140449300Y-113753900D02*
X140830300Y-113753900D01*
X143294100Y-113753900D02*
X143751300Y-113753900D01*
X140449300Y-113779300D02*
X140804900Y-113779300D01*
X143344900Y-113779300D02*
X143751300Y-113779300D01*
X140449300Y-113804700D02*
X140779500Y-113804700D01*
X143395700Y-113804700D02*
X143725900Y-113804700D01*
X140474700Y-113830100D02*
X140754100Y-113830100D01*
X143446500Y-113830100D02*
X143725900Y-113830100D01*
X140474700Y-113855500D02*
X140728700Y-113855500D01*
X143471900Y-113855500D02*
X143700500Y-113855500D01*
X140500100Y-113880900D02*
X140728700Y-113880900D01*
X143497300Y-113880900D02*
X143700500Y-113880900D01*
X140525500Y-113906300D02*
X140703300Y-113906300D01*
X143522700Y-113906300D02*
X143675100Y-113906300D01*
X140550900Y-113931700D02*
X140703300Y-113931700D01*
X143548100Y-113931700D02*
X143649700Y-113931700D01*
X140576300Y-113957100D02*
X140677900Y-113957100D01*
X143573500Y-113957100D02*
X143624300Y-113957100D01*
X140601700Y-113982500D02*
X140677900Y-113982500D01*
D11*
X130151905Y-114302381D02*
X130151905Y-113302381D01*
X130532858Y-113302381D01*
X130628096Y-113350000D01*
X130675715Y-113397619D01*
X130723334Y-113492857D01*
X130723334Y-113635714D01*
X130675715Y-113730952D01*
X130628096Y-113778571D01*
X130532858Y-113826190D01*
X130151905Y-113826190D01*
X131675715Y-114302381D02*
X131104286Y-114302381D01*
X131390000Y-114302381D02*
X131390000Y-113302381D01*
X131294762Y-113445238D01*
X131199524Y-113540476D01*
X131104286Y-113588095D01*
X162921905Y-114232381D02*
X162921905Y-113232381D01*
X163302858Y-113232381D01*
X163398096Y-113280000D01*
X163445715Y-113327619D01*
X163493334Y-113422857D01*
X163493334Y-113565714D01*
X163445715Y-113660952D01*
X163398096Y-113708571D01*
X163302858Y-113756190D01*
X162921905Y-113756190D01*
X163874286Y-113327619D02*
X163921905Y-113280000D01*
X164017143Y-113232381D01*
X164255239Y-113232381D01*
X164350477Y-113280000D01*
X164398096Y-113327619D01*
X164445715Y-113422857D01*
X164445715Y-113518095D01*
X164398096Y-113660952D01*
X163826667Y-114232381D01*
X164445715Y-114232381D01*
D12*
X149112514Y-105622271D02*
X149729371Y-105622271D01*
X149801943Y-105585986D01*
X149838229Y-105549700D01*
X149874514Y-105477129D01*
X149874514Y-105331986D01*
X149838229Y-105259414D01*
X149801943Y-105223129D01*
X149729371Y-105186843D01*
X149112514Y-105186843D01*
X149874514Y-104424843D02*
X149874514Y-104860271D01*
X149874514Y-104642557D02*
X149112514Y-104642557D01*
X149221371Y-104715128D01*
X149293943Y-104787700D01*
X149330229Y-104860271D01*
X152003334Y-97346190D02*
X152003334Y-97703333D01*
X151979524Y-97774762D01*
X151931905Y-97822381D01*
X151860477Y-97846190D01*
X151812858Y-97846190D01*
X152503333Y-97846190D02*
X152217619Y-97846190D01*
X152360476Y-97846190D02*
X152360476Y-97346190D01*
X152312857Y-97417619D01*
X152265238Y-97465238D01*
X152217619Y-97489048D01*
D13*
X157434714Y-96097000D02*
X157071857Y-96351000D01*
X157434714Y-96532428D02*
X156672714Y-96532428D01*
X156672714Y-96242143D01*
X156709000Y-96169571D01*
X156745286Y-96133286D01*
X156817857Y-96097000D01*
X156926714Y-96097000D01*
X156999286Y-96133286D01*
X157035571Y-96169571D01*
X157071857Y-96242143D01*
X157071857Y-96532428D01*
X157434714Y-95371286D02*
X157434714Y-95806714D01*
X157434714Y-95589000D02*
X156672714Y-95589000D01*
X156781571Y-95661571D01*
X156854143Y-95734143D01*
X156890429Y-95806714D01*
D12*
X138914414Y-105634971D02*
X139531271Y-105634971D01*
X139603843Y-105598686D01*
X139640129Y-105562400D01*
X139676414Y-105489829D01*
X139676414Y-105344686D01*
X139640129Y-105272114D01*
X139603843Y-105235829D01*
X139531271Y-105199543D01*
X138914414Y-105199543D01*
X138986986Y-104872971D02*
X138950700Y-104836685D01*
X138914414Y-104764114D01*
X138914414Y-104582685D01*
X138950700Y-104510114D01*
X138986986Y-104473828D01*
X139059557Y-104437543D01*
X139132129Y-104437543D01*
X139240986Y-104473828D01*
X139676414Y-104909257D01*
X139676414Y-104437543D01*
X150411543Y-109728000D02*
X150447829Y-109764286D01*
X150484114Y-109873143D01*
X150484114Y-109945714D01*
X150447829Y-110054571D01*
X150375257Y-110127143D01*
X150302686Y-110163428D01*
X150157543Y-110199714D01*
X150048686Y-110199714D01*
X149903543Y-110163428D01*
X149830971Y-110127143D01*
X149758400Y-110054571D01*
X149722114Y-109945714D01*
X149722114Y-109873143D01*
X149758400Y-109764286D01*
X149794686Y-109728000D01*
X149976114Y-109074857D02*
X150484114Y-109074857D01*
X149685829Y-109256286D02*
X150230114Y-109437714D01*
X150230114Y-108966000D01*
X163245800Y-96483714D02*
X162991800Y-96120857D01*
X162810372Y-96483714D02*
X162810372Y-95721714D01*
X163100657Y-95721714D01*
X163173229Y-95758000D01*
X163209514Y-95794286D01*
X163245800Y-95866857D01*
X163245800Y-95975714D01*
X163209514Y-96048286D01*
X163173229Y-96084571D01*
X163100657Y-96120857D01*
X162810372Y-96120857D01*
X163536086Y-95794286D02*
X163572372Y-95758000D01*
X163644943Y-95721714D01*
X163826372Y-95721714D01*
X163898943Y-95758000D01*
X163935229Y-95794286D01*
X163971514Y-95866857D01*
X163971514Y-95939429D01*
X163935229Y-96048286D01*
X163499800Y-96483714D01*
X163971514Y-96483714D01*
X158434314Y-110210600D02*
X158071457Y-110464600D01*
X158434314Y-110646028D02*
X157672314Y-110646028D01*
X157672314Y-110355743D01*
X157708600Y-110283171D01*
X157744886Y-110246886D01*
X157817457Y-110210600D01*
X157926314Y-110210600D01*
X157998886Y-110246886D01*
X158035171Y-110283171D01*
X158071457Y-110355743D01*
X158071457Y-110646028D01*
X157672314Y-109521171D02*
X157672314Y-109884028D01*
X158035171Y-109920314D01*
X157998886Y-109884028D01*
X157962600Y-109811457D01*
X157962600Y-109630028D01*
X157998886Y-109557457D01*
X158035171Y-109521171D01*
X158107743Y-109484886D01*
X158289171Y-109484886D01*
X158361743Y-109521171D01*
X158398029Y-109557457D01*
X158434314Y-109630028D01*
X158434314Y-109811457D01*
X158398029Y-109884028D01*
X158361743Y-109920314D01*
X153695400Y-108370914D02*
X153441400Y-108008057D01*
X153259972Y-108370914D02*
X153259972Y-107608914D01*
X153550257Y-107608914D01*
X153622829Y-107645200D01*
X153659114Y-107681486D01*
X153695400Y-107754057D01*
X153695400Y-107862914D01*
X153659114Y-107935486D01*
X153622829Y-107971771D01*
X153550257Y-108008057D01*
X153259972Y-108008057D01*
X154348543Y-107608914D02*
X154203400Y-107608914D01*
X154130829Y-107645200D01*
X154094543Y-107681486D01*
X154021972Y-107790343D01*
X153985686Y-107935486D01*
X153985686Y-108225771D01*
X154021972Y-108298343D01*
X154058257Y-108334629D01*
X154130829Y-108370914D01*
X154275972Y-108370914D01*
X154348543Y-108334629D01*
X154384829Y-108298343D01*
X154421114Y-108225771D01*
X154421114Y-108044343D01*
X154384829Y-107971771D01*
X154348543Y-107935486D01*
X154275972Y-107899200D01*
X154130829Y-107899200D01*
X154058257Y-107935486D01*
X154021972Y-107971771D01*
X153985686Y-108044343D01*
X137853000Y-114782143D02*
X137816714Y-114818429D01*
X137707857Y-114854714D01*
X137635286Y-114854714D01*
X137526429Y-114818429D01*
X137453857Y-114745857D01*
X137417572Y-114673286D01*
X137381286Y-114528143D01*
X137381286Y-114419286D01*
X137417572Y-114274143D01*
X137453857Y-114201571D01*
X137526429Y-114129000D01*
X137635286Y-114092714D01*
X137707857Y-114092714D01*
X137816714Y-114129000D01*
X137853000Y-114165286D01*
X138578714Y-114854714D02*
X138143286Y-114854714D01*
X138361000Y-114854714D02*
X138361000Y-114092714D01*
X138288429Y-114201571D01*
X138215857Y-114274143D01*
X138143286Y-114310429D01*
X155339143Y-106908600D02*
X155375429Y-106944886D01*
X155411714Y-107053743D01*
X155411714Y-107126314D01*
X155375429Y-107235171D01*
X155302857Y-107307743D01*
X155230286Y-107344028D01*
X155085143Y-107380314D01*
X154976286Y-107380314D01*
X154831143Y-107344028D01*
X154758571Y-107307743D01*
X154686000Y-107235171D01*
X154649714Y-107126314D01*
X154649714Y-107053743D01*
X154686000Y-106944886D01*
X154722286Y-106908600D01*
X154722286Y-106618314D02*
X154686000Y-106582028D01*
X154649714Y-106509457D01*
X154649714Y-106328028D01*
X154686000Y-106255457D01*
X154722286Y-106219171D01*
X154794857Y-106182886D01*
X154867429Y-106182886D01*
X154976286Y-106219171D01*
X155411714Y-106654600D01*
X155411714Y-106182886D01*
X137998200Y-107561743D02*
X137961914Y-107598029D01*
X137853057Y-107634314D01*
X137780486Y-107634314D01*
X137671629Y-107598029D01*
X137599057Y-107525457D01*
X137562772Y-107452886D01*
X137526486Y-107307743D01*
X137526486Y-107198886D01*
X137562772Y-107053743D01*
X137599057Y-106981171D01*
X137671629Y-106908600D01*
X137780486Y-106872314D01*
X137853057Y-106872314D01*
X137961914Y-106908600D01*
X137998200Y-106944886D01*
X138252200Y-106872314D02*
X138723914Y-106872314D01*
X138469914Y-107162600D01*
X138578772Y-107162600D01*
X138651343Y-107198886D01*
X138687629Y-107235171D01*
X138723914Y-107307743D01*
X138723914Y-107489171D01*
X138687629Y-107561743D01*
X138651343Y-107598029D01*
X138578772Y-107634314D01*
X138361057Y-107634314D01*
X138288486Y-107598029D01*
X138252200Y-107561743D01*
X159022143Y-114020600D02*
X159058429Y-114056886D01*
X159094714Y-114165743D01*
X159094714Y-114238314D01*
X159058429Y-114347171D01*
X158985857Y-114419743D01*
X158913286Y-114456028D01*
X158768143Y-114492314D01*
X158659286Y-114492314D01*
X158514143Y-114456028D01*
X158441571Y-114419743D01*
X158369000Y-114347171D01*
X158332714Y-114238314D01*
X158332714Y-114165743D01*
X158369000Y-114056886D01*
X158405286Y-114020600D01*
X158332714Y-113331171D02*
X158332714Y-113694028D01*
X158695571Y-113730314D01*
X158659286Y-113694028D01*
X158623000Y-113621457D01*
X158623000Y-113440028D01*
X158659286Y-113367457D01*
X158695571Y-113331171D01*
X158768143Y-113294886D01*
X158949571Y-113294886D01*
X159022143Y-113331171D01*
X159058429Y-113367457D01*
X159094714Y-113440028D01*
X159094714Y-113621457D01*
X159058429Y-113694028D01*
X159022143Y-113730314D01*
D17*
X152200429Y-114136714D02*
X152200429Y-114753571D01*
X152236714Y-114826143D01*
X152273000Y-114862429D01*
X152345571Y-114898714D01*
X152490714Y-114898714D01*
X152563286Y-114862429D01*
X152599571Y-114826143D01*
X152635857Y-114753571D01*
X152635857Y-114136714D01*
X152926143Y-114136714D02*
X153397857Y-114136714D01*
X153143857Y-114427000D01*
X153252715Y-114427000D01*
X153325286Y-114463286D01*
X153361572Y-114499571D01*
X153397857Y-114572143D01*
X153397857Y-114753571D01*
X153361572Y-114826143D01*
X153325286Y-114862429D01*
X153252715Y-114898714D01*
X153035000Y-114898714D01*
X152962429Y-114862429D01*
X152926143Y-114826143D01*
D12*
X148234401Y-110105371D02*
X147944115Y-110105371D01*
X147944115Y-109495771D01*
X148756915Y-110105371D02*
X148408572Y-110105371D01*
X148582744Y-110105371D02*
X148582744Y-109495771D01*
X148524687Y-109582857D01*
X148466629Y-109640914D01*
X148408572Y-109669943D01*
X151155400Y-108904314D02*
X150901400Y-108541457D01*
X150719972Y-108904314D02*
X150719972Y-108142314D01*
X151010257Y-108142314D01*
X151082829Y-108178600D01*
X151119114Y-108214886D01*
X151155400Y-108287457D01*
X151155400Y-108396314D01*
X151119114Y-108468886D01*
X151082829Y-108505171D01*
X151010257Y-108541457D01*
X150719972Y-108541457D01*
X151409400Y-108142314D02*
X151917400Y-108142314D01*
X151590829Y-108904314D01*
X143435614Y-98508457D02*
X144197614Y-98000457D01*
X143435614Y-98000457D02*
X144197614Y-98508457D01*
X144197614Y-97311029D02*
X144197614Y-97746457D01*
X144197614Y-97528743D02*
X143435614Y-97528743D01*
X143544471Y-97601314D01*
X143617043Y-97673886D01*
X143653329Y-97746457D01*
X148836743Y-96443800D02*
X148873029Y-96480086D01*
X148909314Y-96588943D01*
X148909314Y-96661514D01*
X148873029Y-96770371D01*
X148800457Y-96842943D01*
X148727886Y-96879228D01*
X148582743Y-96915514D01*
X148473886Y-96915514D01*
X148328743Y-96879228D01*
X148256171Y-96842943D01*
X148183600Y-96770371D01*
X148147314Y-96661514D01*
X148147314Y-96588943D01*
X148183600Y-96480086D01*
X148219886Y-96443800D01*
X148147314Y-95790657D02*
X148147314Y-95935800D01*
X148183600Y-96008371D01*
X148219886Y-96044657D01*
X148328743Y-96117228D01*
X148473886Y-96153514D01*
X148764171Y-96153514D01*
X148836743Y-96117228D01*
X148873029Y-96080943D01*
X148909314Y-96008371D01*
X148909314Y-95863228D01*
X148873029Y-95790657D01*
X148836743Y-95754371D01*
X148764171Y-95718086D01*
X148582743Y-95718086D01*
X148510171Y-95754371D01*
X148473886Y-95790657D01*
X148437600Y-95863228D01*
X148437600Y-96008371D01*
X148473886Y-96080943D01*
X148510171Y-96117228D01*
X148582743Y-96153514D01*
X146380200Y-110127143D02*
X146343914Y-110163429D01*
X146235057Y-110199714D01*
X146162486Y-110199714D01*
X146053629Y-110163429D01*
X145981057Y-110090857D01*
X145944772Y-110018286D01*
X145908486Y-109873143D01*
X145908486Y-109764286D01*
X145944772Y-109619143D01*
X145981057Y-109546571D01*
X146053629Y-109474000D01*
X146162486Y-109437714D01*
X146235057Y-109437714D01*
X146343914Y-109474000D01*
X146380200Y-109510286D01*
X146634200Y-109437714D02*
X147142200Y-109437714D01*
X146815629Y-110199714D01*
X144068800Y-107583514D02*
X143814800Y-107220657D01*
X143633372Y-107583514D02*
X143633372Y-106821514D01*
X143923657Y-106821514D01*
X143996229Y-106857800D01*
X144032514Y-106894086D01*
X144068800Y-106966657D01*
X144068800Y-107075514D01*
X144032514Y-107148086D01*
X143996229Y-107184371D01*
X143923657Y-107220657D01*
X143633372Y-107220657D01*
X144504229Y-107148086D02*
X144431657Y-107111800D01*
X144395372Y-107075514D01*
X144359086Y-107002943D01*
X144359086Y-106966657D01*
X144395372Y-106894086D01*
X144431657Y-106857800D01*
X144504229Y-106821514D01*
X144649372Y-106821514D01*
X144721943Y-106857800D01*
X144758229Y-106894086D01*
X144794514Y-106966657D01*
X144794514Y-107002943D01*
X144758229Y-107075514D01*
X144721943Y-107111800D01*
X144649372Y-107148086D01*
X144504229Y-107148086D01*
X144431657Y-107184371D01*
X144395372Y-107220657D01*
X144359086Y-107293229D01*
X144359086Y-107438371D01*
X144395372Y-107510943D01*
X144431657Y-107547229D01*
X144504229Y-107583514D01*
X144649372Y-107583514D01*
X144721943Y-107547229D01*
X144758229Y-107510943D01*
X144794514Y-107438371D01*
X144794514Y-107293229D01*
X144758229Y-107220657D01*
X144721943Y-107184371D01*
X144649372Y-107148086D01*
M02*
