G04 #@! TF.FileFunction,Copper,L2,Bot,Signal*
%FSLAX46Y46*%
G04 Gerber Fmt 4.6, Leading zero omitted, Abs format (unit mm)*
G04 Created by KiCad (PCBNEW 4.0.2+dfsg1-stable) date ven. 29 sept. 2017 08:41:15 CEST*
%MOMM*%
G01*
G04 APERTURE LIST*
%ADD10C,0.100000*%
%ADD11R,2.000000X1.900000*%
%ADD12C,1.900000*%
%ADD13R,2.540000X2.540000*%
%ADD14C,2.540000*%
%ADD15R,1.524000X1.524000*%
%ADD16C,1.524000*%
%ADD17C,1.200000*%
%ADD18C,0.711200*%
%ADD19C,0.406400*%
%ADD20C,0.203200*%
G04 APERTURE END LIST*
D10*
D11*
X136030000Y-98650000D03*
D12*
X136030000Y-101190000D03*
X136030000Y-103730000D03*
X136030000Y-106270000D03*
X136030000Y-108810000D03*
X136030000Y-111350000D03*
X133490000Y-98650000D03*
X133490000Y-101190000D03*
X133490000Y-103730000D03*
X133490000Y-106270000D03*
X133490000Y-108810000D03*
X133490000Y-111350000D03*
D13*
X162470000Y-110080000D03*
D14*
X162470000Y-99920000D03*
X162470000Y-105000000D03*
D15*
X152170000Y-96330000D03*
D16*
X152170000Y-98870000D03*
D17*
X152120600Y-101193600D03*
X152476200Y-105003600D03*
D18*
X148564600Y-108458000D03*
X143967200Y-96570800D03*
X146685000Y-114503200D03*
X153924000Y-114503200D03*
X151511000Y-114503200D03*
X133045200Y-113588800D03*
X141935200Y-107289600D03*
X148590000Y-100177600D03*
X162229800Y-96139000D03*
X152120600Y-102463600D03*
X155168600Y-107975400D03*
X157734000Y-113944400D03*
X152958800Y-112039400D03*
X152400000Y-109270800D03*
X137109200Y-113588800D03*
X160248600Y-113106200D03*
X158445200Y-96139000D03*
X152120600Y-101193600D03*
X152476200Y-105003600D03*
X144729200Y-105384600D03*
X142748000Y-105384600D03*
X139420600Y-102463600D03*
D19*
X152120600Y-102463600D02*
X152857200Y-102463600D01*
X155168600Y-104775000D02*
X155168600Y-107975400D01*
X152857200Y-102463600D02*
X155168600Y-104775000D01*
D20*
X148590000Y-100177600D02*
X150012400Y-100177600D01*
X151333200Y-102463600D02*
X152120600Y-102463600D01*
X150647400Y-101777800D02*
X151333200Y-102463600D01*
X150647400Y-100812600D02*
X150647400Y-101777800D01*
X150012400Y-100177600D02*
X150647400Y-100812600D01*
D19*
X150825200Y-108458000D02*
X151638000Y-109270800D01*
X151638000Y-109270800D02*
X152400000Y-109270800D01*
X148564600Y-108458000D02*
X150825200Y-108458000D01*
D20*
X143967200Y-96570800D02*
X143967200Y-98628200D01*
X145516600Y-100177600D02*
X148590000Y-100177600D01*
X143967200Y-98628200D02*
X145516600Y-100177600D01*
D19*
X131648200Y-110651800D02*
X131648200Y-112191800D01*
X133490000Y-108810000D02*
X131648200Y-110651800D01*
X131648200Y-112191800D02*
X133045200Y-113588800D01*
X133045200Y-113588800D02*
X134848600Y-113588800D01*
X134848600Y-113588800D02*
X135763000Y-114503200D01*
X146685000Y-114503200D02*
X138023600Y-114503200D01*
X138023600Y-114503200D02*
X135763000Y-114503200D01*
X141935200Y-107289600D02*
X137550400Y-107289600D01*
X137550400Y-107289600D02*
X136030000Y-108810000D01*
X162229800Y-96139000D02*
X164312600Y-96139000D01*
X165357600Y-110080000D02*
X162470000Y-110080000D01*
X165912800Y-109524800D02*
X165357600Y-110080000D01*
X165912800Y-97739200D02*
X165912800Y-109524800D01*
X164312600Y-96139000D02*
X165912800Y-97739200D01*
X152120600Y-102463600D02*
X152120600Y-102489000D01*
X152933400Y-107975400D02*
X155168600Y-107975400D01*
X152908000Y-108000800D02*
X152933400Y-107975400D01*
X152400000Y-108508800D02*
X152908000Y-108000800D01*
X152400000Y-108508800D02*
X152400000Y-109270800D01*
X162470000Y-110080000D02*
X162470000Y-113170800D01*
X161696400Y-113944400D02*
X157734000Y-113944400D01*
X162470000Y-113170800D02*
X161696400Y-113944400D01*
X152400000Y-109270800D02*
X152400000Y-110693200D01*
X152958800Y-111252000D02*
X152958800Y-112039400D01*
X152400000Y-110693200D02*
X152958800Y-111252000D01*
X157403800Y-113106200D02*
X156921200Y-113588800D01*
X156921200Y-113588800D02*
X137109200Y-113588800D01*
X160248600Y-113106200D02*
X157403800Y-113106200D01*
D20*
X144729200Y-105384600D02*
X142748000Y-105384600D01*
X136030000Y-106270000D02*
X137595400Y-106270000D01*
X139420600Y-102463600D02*
X139420600Y-104444800D01*
X137595400Y-106270000D02*
X139420600Y-104444800D01*
G36*
X167170200Y-114780200D02*
X129829800Y-114780200D01*
X129829800Y-113719585D01*
X136448686Y-113719585D01*
X136549014Y-113962398D01*
X136734625Y-114148333D01*
X136977262Y-114249085D01*
X137239985Y-114249314D01*
X137482798Y-114148986D01*
X137535075Y-114096800D01*
X156921200Y-114096800D01*
X157115603Y-114058131D01*
X157280410Y-113948010D01*
X157614221Y-113614200D01*
X159822582Y-113614200D01*
X159874025Y-113665733D01*
X160116662Y-113766485D01*
X160379385Y-113766714D01*
X160622198Y-113666386D01*
X160808133Y-113480775D01*
X160908885Y-113238138D01*
X160909114Y-112975415D01*
X160808786Y-112732602D01*
X160623175Y-112546667D01*
X160380538Y-112445915D01*
X160117815Y-112445686D01*
X159875002Y-112546014D01*
X159822725Y-112598200D01*
X157403800Y-112598200D01*
X157209397Y-112636869D01*
X157209395Y-112636870D01*
X157209396Y-112636870D01*
X157044589Y-112746990D01*
X156710780Y-113080800D01*
X137535218Y-113080800D01*
X137483775Y-113029267D01*
X137241138Y-112928515D01*
X136978415Y-112928286D01*
X136735602Y-113028614D01*
X136549667Y-113214225D01*
X136448915Y-113456862D01*
X136448686Y-113719585D01*
X129829800Y-113719585D01*
X129829800Y-111598500D01*
X132234983Y-111598500D01*
X132425612Y-112059859D01*
X132778285Y-112413147D01*
X133239310Y-112604582D01*
X133738500Y-112605017D01*
X134199859Y-112414388D01*
X134553147Y-112061715D01*
X134744582Y-111600690D01*
X134744583Y-111598500D01*
X134774983Y-111598500D01*
X134965612Y-112059859D01*
X135318285Y-112413147D01*
X135779310Y-112604582D01*
X136278500Y-112605017D01*
X136739859Y-112414388D01*
X137093147Y-112061715D01*
X137284582Y-111600690D01*
X137285017Y-111101500D01*
X137094388Y-110640141D01*
X136763425Y-110308600D01*
X160895200Y-110308600D01*
X160895200Y-111410628D01*
X160941603Y-111522655D01*
X161027344Y-111608397D01*
X161139371Y-111654800D01*
X162241400Y-111654800D01*
X162317600Y-111578600D01*
X162317600Y-110232400D01*
X162622400Y-110232400D01*
X162622400Y-111578600D01*
X162698600Y-111654800D01*
X163800629Y-111654800D01*
X163912656Y-111608397D01*
X163998397Y-111522655D01*
X164044800Y-111410628D01*
X164044800Y-110308600D01*
X163968600Y-110232400D01*
X162622400Y-110232400D01*
X162317600Y-110232400D01*
X160971400Y-110232400D01*
X160895200Y-110308600D01*
X136763425Y-110308600D01*
X136741715Y-110286853D01*
X136280690Y-110095418D01*
X135781500Y-110094983D01*
X135320141Y-110285612D01*
X134966853Y-110638285D01*
X134775418Y-111099310D01*
X134774983Y-111598500D01*
X134744583Y-111598500D01*
X134745017Y-111101500D01*
X134554388Y-110640141D01*
X134201715Y-110286853D01*
X133740690Y-110095418D01*
X133241500Y-110094983D01*
X132780141Y-110285612D01*
X132426853Y-110638285D01*
X132235418Y-111099310D01*
X132234983Y-111598500D01*
X129829800Y-111598500D01*
X129829800Y-109761689D01*
X132753837Y-109761689D01*
X132866646Y-109927251D01*
X133341649Y-110080753D01*
X133839237Y-110040794D01*
X134113354Y-109927251D01*
X134226163Y-109761689D01*
X135293837Y-109761689D01*
X135406646Y-109927251D01*
X135881649Y-110080753D01*
X136379237Y-110040794D01*
X136653354Y-109927251D01*
X136766163Y-109761689D01*
X136030000Y-109025526D01*
X135293837Y-109761689D01*
X134226163Y-109761689D01*
X133490000Y-109025526D01*
X132753837Y-109761689D01*
X129829800Y-109761689D01*
X129829800Y-108661649D01*
X132219247Y-108661649D01*
X132259206Y-109159237D01*
X132372749Y-109433354D01*
X132538311Y-109546163D01*
X133274474Y-108810000D01*
X133705526Y-108810000D01*
X134441689Y-109546163D01*
X134607251Y-109433354D01*
X134760753Y-108958351D01*
X134736927Y-108661649D01*
X134759247Y-108661649D01*
X134799206Y-109159237D01*
X134912749Y-109433354D01*
X135078311Y-109546163D01*
X135814474Y-108810000D01*
X136245526Y-108810000D01*
X136981689Y-109546163D01*
X137147251Y-109433354D01*
X137300753Y-108958351D01*
X137283971Y-108749372D01*
X160895200Y-108749372D01*
X160895200Y-109851400D01*
X160971400Y-109927600D01*
X162317600Y-109927600D01*
X162317600Y-108581400D01*
X162622400Y-108581400D01*
X162622400Y-109927600D01*
X163968600Y-109927600D01*
X164044800Y-109851400D01*
X164044800Y-108749372D01*
X163998397Y-108637345D01*
X163912656Y-108551603D01*
X163800629Y-108505200D01*
X162698600Y-108505200D01*
X162622400Y-108581400D01*
X162317600Y-108581400D01*
X162241400Y-108505200D01*
X161139371Y-108505200D01*
X161027344Y-108551603D01*
X160941603Y-108637345D01*
X160895200Y-108749372D01*
X137283971Y-108749372D01*
X137260794Y-108460763D01*
X137147251Y-108186646D01*
X136981689Y-108073837D01*
X136245526Y-108810000D01*
X135814474Y-108810000D01*
X135078311Y-108073837D01*
X134912749Y-108186646D01*
X134759247Y-108661649D01*
X134736927Y-108661649D01*
X134720794Y-108460763D01*
X134607251Y-108186646D01*
X134441689Y-108073837D01*
X133705526Y-108810000D01*
X133274474Y-108810000D01*
X132538311Y-108073837D01*
X132372749Y-108186646D01*
X132219247Y-108661649D01*
X129829800Y-108661649D01*
X129829800Y-107858311D01*
X132753837Y-107858311D01*
X133490000Y-108594474D01*
X134226163Y-107858311D01*
X135293837Y-107858311D01*
X136030000Y-108594474D01*
X136766163Y-107858311D01*
X136653354Y-107692749D01*
X136178351Y-107539247D01*
X135680763Y-107579206D01*
X135406646Y-107692749D01*
X135293837Y-107858311D01*
X134226163Y-107858311D01*
X134113354Y-107692749D01*
X133638351Y-107539247D01*
X133140763Y-107579206D01*
X132866646Y-107692749D01*
X132753837Y-107858311D01*
X129829800Y-107858311D01*
X129829800Y-106518500D01*
X132234983Y-106518500D01*
X132425612Y-106979859D01*
X132778285Y-107333147D01*
X133239310Y-107524582D01*
X133738500Y-107525017D01*
X134199859Y-107334388D01*
X134553147Y-106981715D01*
X134744582Y-106520690D01*
X134744583Y-106518500D01*
X134774983Y-106518500D01*
X134965612Y-106979859D01*
X135318285Y-107333147D01*
X135779310Y-107524582D01*
X136278500Y-107525017D01*
X136739859Y-107334388D01*
X137093147Y-106981715D01*
X137219925Y-106676400D01*
X137595400Y-106676400D01*
X137750923Y-106645465D01*
X137882768Y-106557368D01*
X138924751Y-105515385D01*
X142087486Y-105515385D01*
X142187814Y-105758198D01*
X142373425Y-105944133D01*
X142616062Y-106044885D01*
X142878785Y-106045114D01*
X143121598Y-105944786D01*
X143275652Y-105791000D01*
X144201759Y-105791000D01*
X144354625Y-105944133D01*
X144597262Y-106044885D01*
X144859985Y-106045114D01*
X145102798Y-105944786D01*
X145288733Y-105759175D01*
X145389485Y-105516538D01*
X145389714Y-105253815D01*
X145360366Y-105182786D01*
X151571243Y-105182786D01*
X151708701Y-105515458D01*
X151963003Y-105770205D01*
X152295435Y-105908243D01*
X152655386Y-105908557D01*
X152988058Y-105771099D01*
X153242805Y-105516797D01*
X153327896Y-105311873D01*
X160894927Y-105311873D01*
X161134171Y-105890887D01*
X161576783Y-106334272D01*
X162155379Y-106574526D01*
X162781873Y-106575073D01*
X163360887Y-106335829D01*
X163804272Y-105893217D01*
X164044526Y-105314621D01*
X164045073Y-104688127D01*
X163805829Y-104109113D01*
X163363217Y-103665728D01*
X162784621Y-103425474D01*
X162158127Y-103424927D01*
X161579113Y-103664171D01*
X161135728Y-104106783D01*
X160895474Y-104685379D01*
X160894927Y-105311873D01*
X153327896Y-105311873D01*
X153380843Y-105184365D01*
X153381157Y-104824414D01*
X153243699Y-104491742D01*
X152989397Y-104236995D01*
X152656965Y-104098957D01*
X152297014Y-104098643D01*
X151964342Y-104236101D01*
X151709595Y-104490403D01*
X151571557Y-104822835D01*
X151571243Y-105182786D01*
X145360366Y-105182786D01*
X145289386Y-105011002D01*
X145103775Y-104825067D01*
X144861138Y-104724315D01*
X144598415Y-104724086D01*
X144355602Y-104824414D01*
X144201548Y-104978200D01*
X143275441Y-104978200D01*
X143122575Y-104825067D01*
X142879938Y-104724315D01*
X142617215Y-104724086D01*
X142374402Y-104824414D01*
X142188467Y-105010025D01*
X142087715Y-105252662D01*
X142087486Y-105515385D01*
X138924751Y-105515385D01*
X139707968Y-104732168D01*
X139796066Y-104600322D01*
X139827000Y-104444800D01*
X139827000Y-102991041D01*
X139980133Y-102838175D01*
X140080885Y-102595538D01*
X140081114Y-102332815D01*
X139980786Y-102090002D01*
X139795175Y-101904067D01*
X139552538Y-101803315D01*
X139289815Y-101803086D01*
X139047002Y-101903414D01*
X138861067Y-102089025D01*
X138760315Y-102331662D01*
X138760086Y-102594385D01*
X138860414Y-102837198D01*
X139014200Y-102991252D01*
X139014200Y-104276464D01*
X137427064Y-105863600D01*
X137219774Y-105863600D01*
X137094388Y-105560141D01*
X136741715Y-105206853D01*
X136280690Y-105015418D01*
X135781500Y-105014983D01*
X135320141Y-105205612D01*
X134966853Y-105558285D01*
X134775418Y-106019310D01*
X134774983Y-106518500D01*
X134744583Y-106518500D01*
X134745017Y-106021500D01*
X134554388Y-105560141D01*
X134201715Y-105206853D01*
X133740690Y-105015418D01*
X133241500Y-105014983D01*
X132780141Y-105205612D01*
X132426853Y-105558285D01*
X132235418Y-106019310D01*
X132234983Y-106518500D01*
X129829800Y-106518500D01*
X129829800Y-103978500D01*
X132234983Y-103978500D01*
X132425612Y-104439859D01*
X132778285Y-104793147D01*
X133239310Y-104984582D01*
X133738500Y-104985017D01*
X134199859Y-104794388D01*
X134553147Y-104441715D01*
X134744582Y-103980690D01*
X134744583Y-103978500D01*
X134774983Y-103978500D01*
X134965612Y-104439859D01*
X135318285Y-104793147D01*
X135779310Y-104984582D01*
X136278500Y-104985017D01*
X136739859Y-104794388D01*
X137093147Y-104441715D01*
X137284582Y-103980690D01*
X137285017Y-103481500D01*
X137094388Y-103020141D01*
X136741715Y-102666853D01*
X136280690Y-102475418D01*
X135781500Y-102474983D01*
X135320141Y-102665612D01*
X134966853Y-103018285D01*
X134775418Y-103479310D01*
X134774983Y-103978500D01*
X134744583Y-103978500D01*
X134745017Y-103481500D01*
X134554388Y-103020141D01*
X134201715Y-102666853D01*
X133740690Y-102475418D01*
X133241500Y-102474983D01*
X132780141Y-102665612D01*
X132426853Y-103018285D01*
X132235418Y-103479310D01*
X132234983Y-103978500D01*
X129829800Y-103978500D01*
X129829800Y-101438500D01*
X132234983Y-101438500D01*
X132425612Y-101899859D01*
X132778285Y-102253147D01*
X133239310Y-102444582D01*
X133738500Y-102445017D01*
X134199859Y-102254388D01*
X134553147Y-101901715D01*
X134744582Y-101440690D01*
X134744583Y-101438500D01*
X134774983Y-101438500D01*
X134965612Y-101899859D01*
X135318285Y-102253147D01*
X135779310Y-102444582D01*
X136278500Y-102445017D01*
X136739859Y-102254388D01*
X137093147Y-101901715D01*
X137284582Y-101440690D01*
X137284641Y-101372786D01*
X151215643Y-101372786D01*
X151353101Y-101705458D01*
X151607403Y-101960205D01*
X151939835Y-102098243D01*
X152299786Y-102098557D01*
X152632458Y-101961099D01*
X152887205Y-101706797D01*
X153025243Y-101374365D01*
X153025557Y-101014414D01*
X152888099Y-100681742D01*
X152633797Y-100426995D01*
X152301365Y-100288957D01*
X151941414Y-100288643D01*
X151608742Y-100426101D01*
X151353995Y-100680403D01*
X151215957Y-101012835D01*
X151215643Y-101372786D01*
X137284641Y-101372786D01*
X137285017Y-100941500D01*
X137094388Y-100480141D01*
X136846553Y-100231873D01*
X160894927Y-100231873D01*
X161134171Y-100810887D01*
X161576783Y-101254272D01*
X162155379Y-101494526D01*
X162781873Y-101495073D01*
X163360887Y-101255829D01*
X163804272Y-100813217D01*
X164044526Y-100234621D01*
X164045073Y-99608127D01*
X163805829Y-99029113D01*
X163363217Y-98585728D01*
X162784621Y-98345474D01*
X162158127Y-98344927D01*
X161579113Y-98584171D01*
X161135728Y-99026783D01*
X160895474Y-99605379D01*
X160894927Y-100231873D01*
X136846553Y-100231873D01*
X136741715Y-100126853D01*
X136280690Y-99935418D01*
X135781500Y-99934983D01*
X135320141Y-100125612D01*
X134966853Y-100478285D01*
X134775418Y-100939310D01*
X134774983Y-101438500D01*
X134744583Y-101438500D01*
X134745017Y-100941500D01*
X134554388Y-100480141D01*
X134201715Y-100126853D01*
X133740690Y-99935418D01*
X133241500Y-99934983D01*
X132780141Y-100125612D01*
X132426853Y-100478285D01*
X132235418Y-100939310D01*
X132234983Y-101438500D01*
X129829800Y-101438500D01*
X129829800Y-98898500D01*
X132234983Y-98898500D01*
X132425612Y-99359859D01*
X132778285Y-99713147D01*
X133239310Y-99904582D01*
X133738500Y-99905017D01*
X134199859Y-99714388D01*
X134553147Y-99361715D01*
X134719229Y-98961747D01*
X134719229Y-99600000D01*
X134740482Y-99712952D01*
X134807237Y-99816692D01*
X134909093Y-99886287D01*
X135030000Y-99910771D01*
X137030000Y-99910771D01*
X137142952Y-99889518D01*
X137246692Y-99822763D01*
X137316287Y-99720907D01*
X137340771Y-99600000D01*
X137340771Y-99081269D01*
X151103015Y-99081269D01*
X151265084Y-99473504D01*
X151564917Y-99773862D01*
X151956869Y-99936615D01*
X152381269Y-99936985D01*
X152773504Y-99774916D01*
X153073862Y-99475083D01*
X153236615Y-99083131D01*
X153236985Y-98658731D01*
X153074916Y-98266496D01*
X152775083Y-97966138D01*
X152383131Y-97803385D01*
X151958731Y-97803015D01*
X151566496Y-97965084D01*
X151266138Y-98264917D01*
X151103385Y-98656869D01*
X151103015Y-99081269D01*
X137340771Y-99081269D01*
X137340771Y-97700000D01*
X137319518Y-97587048D01*
X137252763Y-97483308D01*
X137150907Y-97413713D01*
X137030000Y-97389229D01*
X135030000Y-97389229D01*
X134917048Y-97410482D01*
X134813308Y-97477237D01*
X134743713Y-97579093D01*
X134719229Y-97700000D01*
X134719229Y-98339088D01*
X134554388Y-97940141D01*
X134201715Y-97586853D01*
X133740690Y-97395418D01*
X133241500Y-97394983D01*
X132780141Y-97585612D01*
X132426853Y-97938285D01*
X132235418Y-98399310D01*
X132234983Y-98898500D01*
X129829800Y-98898500D01*
X129829800Y-95568000D01*
X151097229Y-95568000D01*
X151097229Y-97092000D01*
X151118482Y-97204952D01*
X151185237Y-97308692D01*
X151287093Y-97378287D01*
X151408000Y-97402771D01*
X152932000Y-97402771D01*
X153044952Y-97381518D01*
X153148692Y-97314763D01*
X153218287Y-97212907D01*
X153242771Y-97092000D01*
X153242771Y-96269785D01*
X157784686Y-96269785D01*
X157885014Y-96512598D01*
X158070625Y-96698533D01*
X158313262Y-96799285D01*
X158575985Y-96799514D01*
X158818798Y-96699186D01*
X159004733Y-96513575D01*
X159105485Y-96270938D01*
X159105714Y-96008215D01*
X159005386Y-95765402D01*
X158819775Y-95579467D01*
X158577138Y-95478715D01*
X158314415Y-95478486D01*
X158071602Y-95578814D01*
X157885667Y-95764425D01*
X157784915Y-96007062D01*
X157784686Y-96269785D01*
X153242771Y-96269785D01*
X153242771Y-95568000D01*
X153221518Y-95455048D01*
X153154763Y-95351308D01*
X153052907Y-95281713D01*
X152932000Y-95257229D01*
X151408000Y-95257229D01*
X151295048Y-95278482D01*
X151191308Y-95345237D01*
X151121713Y-95447093D01*
X151097229Y-95568000D01*
X129829800Y-95568000D01*
X129829800Y-95219800D01*
X167170200Y-95219800D01*
X167170200Y-114780200D01*
X167170200Y-114780200D01*
G37*
X167170200Y-114780200D02*
X129829800Y-114780200D01*
X129829800Y-113719585D01*
X136448686Y-113719585D01*
X136549014Y-113962398D01*
X136734625Y-114148333D01*
X136977262Y-114249085D01*
X137239985Y-114249314D01*
X137482798Y-114148986D01*
X137535075Y-114096800D01*
X156921200Y-114096800D01*
X157115603Y-114058131D01*
X157280410Y-113948010D01*
X157614221Y-113614200D01*
X159822582Y-113614200D01*
X159874025Y-113665733D01*
X160116662Y-113766485D01*
X160379385Y-113766714D01*
X160622198Y-113666386D01*
X160808133Y-113480775D01*
X160908885Y-113238138D01*
X160909114Y-112975415D01*
X160808786Y-112732602D01*
X160623175Y-112546667D01*
X160380538Y-112445915D01*
X160117815Y-112445686D01*
X159875002Y-112546014D01*
X159822725Y-112598200D01*
X157403800Y-112598200D01*
X157209397Y-112636869D01*
X157209395Y-112636870D01*
X157209396Y-112636870D01*
X157044589Y-112746990D01*
X156710780Y-113080800D01*
X137535218Y-113080800D01*
X137483775Y-113029267D01*
X137241138Y-112928515D01*
X136978415Y-112928286D01*
X136735602Y-113028614D01*
X136549667Y-113214225D01*
X136448915Y-113456862D01*
X136448686Y-113719585D01*
X129829800Y-113719585D01*
X129829800Y-111598500D01*
X132234983Y-111598500D01*
X132425612Y-112059859D01*
X132778285Y-112413147D01*
X133239310Y-112604582D01*
X133738500Y-112605017D01*
X134199859Y-112414388D01*
X134553147Y-112061715D01*
X134744582Y-111600690D01*
X134744583Y-111598500D01*
X134774983Y-111598500D01*
X134965612Y-112059859D01*
X135318285Y-112413147D01*
X135779310Y-112604582D01*
X136278500Y-112605017D01*
X136739859Y-112414388D01*
X137093147Y-112061715D01*
X137284582Y-111600690D01*
X137285017Y-111101500D01*
X137094388Y-110640141D01*
X136763425Y-110308600D01*
X160895200Y-110308600D01*
X160895200Y-111410628D01*
X160941603Y-111522655D01*
X161027344Y-111608397D01*
X161139371Y-111654800D01*
X162241400Y-111654800D01*
X162317600Y-111578600D01*
X162317600Y-110232400D01*
X162622400Y-110232400D01*
X162622400Y-111578600D01*
X162698600Y-111654800D01*
X163800629Y-111654800D01*
X163912656Y-111608397D01*
X163998397Y-111522655D01*
X164044800Y-111410628D01*
X164044800Y-110308600D01*
X163968600Y-110232400D01*
X162622400Y-110232400D01*
X162317600Y-110232400D01*
X160971400Y-110232400D01*
X160895200Y-110308600D01*
X136763425Y-110308600D01*
X136741715Y-110286853D01*
X136280690Y-110095418D01*
X135781500Y-110094983D01*
X135320141Y-110285612D01*
X134966853Y-110638285D01*
X134775418Y-111099310D01*
X134774983Y-111598500D01*
X134744583Y-111598500D01*
X134745017Y-111101500D01*
X134554388Y-110640141D01*
X134201715Y-110286853D01*
X133740690Y-110095418D01*
X133241500Y-110094983D01*
X132780141Y-110285612D01*
X132426853Y-110638285D01*
X132235418Y-111099310D01*
X132234983Y-111598500D01*
X129829800Y-111598500D01*
X129829800Y-109761689D01*
X132753837Y-109761689D01*
X132866646Y-109927251D01*
X133341649Y-110080753D01*
X133839237Y-110040794D01*
X134113354Y-109927251D01*
X134226163Y-109761689D01*
X135293837Y-109761689D01*
X135406646Y-109927251D01*
X135881649Y-110080753D01*
X136379237Y-110040794D01*
X136653354Y-109927251D01*
X136766163Y-109761689D01*
X136030000Y-109025526D01*
X135293837Y-109761689D01*
X134226163Y-109761689D01*
X133490000Y-109025526D01*
X132753837Y-109761689D01*
X129829800Y-109761689D01*
X129829800Y-108661649D01*
X132219247Y-108661649D01*
X132259206Y-109159237D01*
X132372749Y-109433354D01*
X132538311Y-109546163D01*
X133274474Y-108810000D01*
X133705526Y-108810000D01*
X134441689Y-109546163D01*
X134607251Y-109433354D01*
X134760753Y-108958351D01*
X134736927Y-108661649D01*
X134759247Y-108661649D01*
X134799206Y-109159237D01*
X134912749Y-109433354D01*
X135078311Y-109546163D01*
X135814474Y-108810000D01*
X136245526Y-108810000D01*
X136981689Y-109546163D01*
X137147251Y-109433354D01*
X137300753Y-108958351D01*
X137283971Y-108749372D01*
X160895200Y-108749372D01*
X160895200Y-109851400D01*
X160971400Y-109927600D01*
X162317600Y-109927600D01*
X162317600Y-108581400D01*
X162622400Y-108581400D01*
X162622400Y-109927600D01*
X163968600Y-109927600D01*
X164044800Y-109851400D01*
X164044800Y-108749372D01*
X163998397Y-108637345D01*
X163912656Y-108551603D01*
X163800629Y-108505200D01*
X162698600Y-108505200D01*
X162622400Y-108581400D01*
X162317600Y-108581400D01*
X162241400Y-108505200D01*
X161139371Y-108505200D01*
X161027344Y-108551603D01*
X160941603Y-108637345D01*
X160895200Y-108749372D01*
X137283971Y-108749372D01*
X137260794Y-108460763D01*
X137147251Y-108186646D01*
X136981689Y-108073837D01*
X136245526Y-108810000D01*
X135814474Y-108810000D01*
X135078311Y-108073837D01*
X134912749Y-108186646D01*
X134759247Y-108661649D01*
X134736927Y-108661649D01*
X134720794Y-108460763D01*
X134607251Y-108186646D01*
X134441689Y-108073837D01*
X133705526Y-108810000D01*
X133274474Y-108810000D01*
X132538311Y-108073837D01*
X132372749Y-108186646D01*
X132219247Y-108661649D01*
X129829800Y-108661649D01*
X129829800Y-107858311D01*
X132753837Y-107858311D01*
X133490000Y-108594474D01*
X134226163Y-107858311D01*
X135293837Y-107858311D01*
X136030000Y-108594474D01*
X136766163Y-107858311D01*
X136653354Y-107692749D01*
X136178351Y-107539247D01*
X135680763Y-107579206D01*
X135406646Y-107692749D01*
X135293837Y-107858311D01*
X134226163Y-107858311D01*
X134113354Y-107692749D01*
X133638351Y-107539247D01*
X133140763Y-107579206D01*
X132866646Y-107692749D01*
X132753837Y-107858311D01*
X129829800Y-107858311D01*
X129829800Y-106518500D01*
X132234983Y-106518500D01*
X132425612Y-106979859D01*
X132778285Y-107333147D01*
X133239310Y-107524582D01*
X133738500Y-107525017D01*
X134199859Y-107334388D01*
X134553147Y-106981715D01*
X134744582Y-106520690D01*
X134744583Y-106518500D01*
X134774983Y-106518500D01*
X134965612Y-106979859D01*
X135318285Y-107333147D01*
X135779310Y-107524582D01*
X136278500Y-107525017D01*
X136739859Y-107334388D01*
X137093147Y-106981715D01*
X137219925Y-106676400D01*
X137595400Y-106676400D01*
X137750923Y-106645465D01*
X137882768Y-106557368D01*
X138924751Y-105515385D01*
X142087486Y-105515385D01*
X142187814Y-105758198D01*
X142373425Y-105944133D01*
X142616062Y-106044885D01*
X142878785Y-106045114D01*
X143121598Y-105944786D01*
X143275652Y-105791000D01*
X144201759Y-105791000D01*
X144354625Y-105944133D01*
X144597262Y-106044885D01*
X144859985Y-106045114D01*
X145102798Y-105944786D01*
X145288733Y-105759175D01*
X145389485Y-105516538D01*
X145389714Y-105253815D01*
X145360366Y-105182786D01*
X151571243Y-105182786D01*
X151708701Y-105515458D01*
X151963003Y-105770205D01*
X152295435Y-105908243D01*
X152655386Y-105908557D01*
X152988058Y-105771099D01*
X153242805Y-105516797D01*
X153327896Y-105311873D01*
X160894927Y-105311873D01*
X161134171Y-105890887D01*
X161576783Y-106334272D01*
X162155379Y-106574526D01*
X162781873Y-106575073D01*
X163360887Y-106335829D01*
X163804272Y-105893217D01*
X164044526Y-105314621D01*
X164045073Y-104688127D01*
X163805829Y-104109113D01*
X163363217Y-103665728D01*
X162784621Y-103425474D01*
X162158127Y-103424927D01*
X161579113Y-103664171D01*
X161135728Y-104106783D01*
X160895474Y-104685379D01*
X160894927Y-105311873D01*
X153327896Y-105311873D01*
X153380843Y-105184365D01*
X153381157Y-104824414D01*
X153243699Y-104491742D01*
X152989397Y-104236995D01*
X152656965Y-104098957D01*
X152297014Y-104098643D01*
X151964342Y-104236101D01*
X151709595Y-104490403D01*
X151571557Y-104822835D01*
X151571243Y-105182786D01*
X145360366Y-105182786D01*
X145289386Y-105011002D01*
X145103775Y-104825067D01*
X144861138Y-104724315D01*
X144598415Y-104724086D01*
X144355602Y-104824414D01*
X144201548Y-104978200D01*
X143275441Y-104978200D01*
X143122575Y-104825067D01*
X142879938Y-104724315D01*
X142617215Y-104724086D01*
X142374402Y-104824414D01*
X142188467Y-105010025D01*
X142087715Y-105252662D01*
X142087486Y-105515385D01*
X138924751Y-105515385D01*
X139707968Y-104732168D01*
X139796066Y-104600322D01*
X139827000Y-104444800D01*
X139827000Y-102991041D01*
X139980133Y-102838175D01*
X140080885Y-102595538D01*
X140081114Y-102332815D01*
X139980786Y-102090002D01*
X139795175Y-101904067D01*
X139552538Y-101803315D01*
X139289815Y-101803086D01*
X139047002Y-101903414D01*
X138861067Y-102089025D01*
X138760315Y-102331662D01*
X138760086Y-102594385D01*
X138860414Y-102837198D01*
X139014200Y-102991252D01*
X139014200Y-104276464D01*
X137427064Y-105863600D01*
X137219774Y-105863600D01*
X137094388Y-105560141D01*
X136741715Y-105206853D01*
X136280690Y-105015418D01*
X135781500Y-105014983D01*
X135320141Y-105205612D01*
X134966853Y-105558285D01*
X134775418Y-106019310D01*
X134774983Y-106518500D01*
X134744583Y-106518500D01*
X134745017Y-106021500D01*
X134554388Y-105560141D01*
X134201715Y-105206853D01*
X133740690Y-105015418D01*
X133241500Y-105014983D01*
X132780141Y-105205612D01*
X132426853Y-105558285D01*
X132235418Y-106019310D01*
X132234983Y-106518500D01*
X129829800Y-106518500D01*
X129829800Y-103978500D01*
X132234983Y-103978500D01*
X132425612Y-104439859D01*
X132778285Y-104793147D01*
X133239310Y-104984582D01*
X133738500Y-104985017D01*
X134199859Y-104794388D01*
X134553147Y-104441715D01*
X134744582Y-103980690D01*
X134744583Y-103978500D01*
X134774983Y-103978500D01*
X134965612Y-104439859D01*
X135318285Y-104793147D01*
X135779310Y-104984582D01*
X136278500Y-104985017D01*
X136739859Y-104794388D01*
X137093147Y-104441715D01*
X137284582Y-103980690D01*
X137285017Y-103481500D01*
X137094388Y-103020141D01*
X136741715Y-102666853D01*
X136280690Y-102475418D01*
X135781500Y-102474983D01*
X135320141Y-102665612D01*
X134966853Y-103018285D01*
X134775418Y-103479310D01*
X134774983Y-103978500D01*
X134744583Y-103978500D01*
X134745017Y-103481500D01*
X134554388Y-103020141D01*
X134201715Y-102666853D01*
X133740690Y-102475418D01*
X133241500Y-102474983D01*
X132780141Y-102665612D01*
X132426853Y-103018285D01*
X132235418Y-103479310D01*
X132234983Y-103978500D01*
X129829800Y-103978500D01*
X129829800Y-101438500D01*
X132234983Y-101438500D01*
X132425612Y-101899859D01*
X132778285Y-102253147D01*
X133239310Y-102444582D01*
X133738500Y-102445017D01*
X134199859Y-102254388D01*
X134553147Y-101901715D01*
X134744582Y-101440690D01*
X134744583Y-101438500D01*
X134774983Y-101438500D01*
X134965612Y-101899859D01*
X135318285Y-102253147D01*
X135779310Y-102444582D01*
X136278500Y-102445017D01*
X136739859Y-102254388D01*
X137093147Y-101901715D01*
X137284582Y-101440690D01*
X137284641Y-101372786D01*
X151215643Y-101372786D01*
X151353101Y-101705458D01*
X151607403Y-101960205D01*
X151939835Y-102098243D01*
X152299786Y-102098557D01*
X152632458Y-101961099D01*
X152887205Y-101706797D01*
X153025243Y-101374365D01*
X153025557Y-101014414D01*
X152888099Y-100681742D01*
X152633797Y-100426995D01*
X152301365Y-100288957D01*
X151941414Y-100288643D01*
X151608742Y-100426101D01*
X151353995Y-100680403D01*
X151215957Y-101012835D01*
X151215643Y-101372786D01*
X137284641Y-101372786D01*
X137285017Y-100941500D01*
X137094388Y-100480141D01*
X136846553Y-100231873D01*
X160894927Y-100231873D01*
X161134171Y-100810887D01*
X161576783Y-101254272D01*
X162155379Y-101494526D01*
X162781873Y-101495073D01*
X163360887Y-101255829D01*
X163804272Y-100813217D01*
X164044526Y-100234621D01*
X164045073Y-99608127D01*
X163805829Y-99029113D01*
X163363217Y-98585728D01*
X162784621Y-98345474D01*
X162158127Y-98344927D01*
X161579113Y-98584171D01*
X161135728Y-99026783D01*
X160895474Y-99605379D01*
X160894927Y-100231873D01*
X136846553Y-100231873D01*
X136741715Y-100126853D01*
X136280690Y-99935418D01*
X135781500Y-99934983D01*
X135320141Y-100125612D01*
X134966853Y-100478285D01*
X134775418Y-100939310D01*
X134774983Y-101438500D01*
X134744583Y-101438500D01*
X134745017Y-100941500D01*
X134554388Y-100480141D01*
X134201715Y-100126853D01*
X133740690Y-99935418D01*
X133241500Y-99934983D01*
X132780141Y-100125612D01*
X132426853Y-100478285D01*
X132235418Y-100939310D01*
X132234983Y-101438500D01*
X129829800Y-101438500D01*
X129829800Y-98898500D01*
X132234983Y-98898500D01*
X132425612Y-99359859D01*
X132778285Y-99713147D01*
X133239310Y-99904582D01*
X133738500Y-99905017D01*
X134199859Y-99714388D01*
X134553147Y-99361715D01*
X134719229Y-98961747D01*
X134719229Y-99600000D01*
X134740482Y-99712952D01*
X134807237Y-99816692D01*
X134909093Y-99886287D01*
X135030000Y-99910771D01*
X137030000Y-99910771D01*
X137142952Y-99889518D01*
X137246692Y-99822763D01*
X137316287Y-99720907D01*
X137340771Y-99600000D01*
X137340771Y-99081269D01*
X151103015Y-99081269D01*
X151265084Y-99473504D01*
X151564917Y-99773862D01*
X151956869Y-99936615D01*
X152381269Y-99936985D01*
X152773504Y-99774916D01*
X153073862Y-99475083D01*
X153236615Y-99083131D01*
X153236985Y-98658731D01*
X153074916Y-98266496D01*
X152775083Y-97966138D01*
X152383131Y-97803385D01*
X151958731Y-97803015D01*
X151566496Y-97965084D01*
X151266138Y-98264917D01*
X151103385Y-98656869D01*
X151103015Y-99081269D01*
X137340771Y-99081269D01*
X137340771Y-97700000D01*
X137319518Y-97587048D01*
X137252763Y-97483308D01*
X137150907Y-97413713D01*
X137030000Y-97389229D01*
X135030000Y-97389229D01*
X134917048Y-97410482D01*
X134813308Y-97477237D01*
X134743713Y-97579093D01*
X134719229Y-97700000D01*
X134719229Y-98339088D01*
X134554388Y-97940141D01*
X134201715Y-97586853D01*
X133740690Y-97395418D01*
X133241500Y-97394983D01*
X132780141Y-97585612D01*
X132426853Y-97938285D01*
X132235418Y-98399310D01*
X132234983Y-98898500D01*
X129829800Y-98898500D01*
X129829800Y-95568000D01*
X151097229Y-95568000D01*
X151097229Y-97092000D01*
X151118482Y-97204952D01*
X151185237Y-97308692D01*
X151287093Y-97378287D01*
X151408000Y-97402771D01*
X152932000Y-97402771D01*
X153044952Y-97381518D01*
X153148692Y-97314763D01*
X153218287Y-97212907D01*
X153242771Y-97092000D01*
X153242771Y-96269785D01*
X157784686Y-96269785D01*
X157885014Y-96512598D01*
X158070625Y-96698533D01*
X158313262Y-96799285D01*
X158575985Y-96799514D01*
X158818798Y-96699186D01*
X159004733Y-96513575D01*
X159105485Y-96270938D01*
X159105714Y-96008215D01*
X159005386Y-95765402D01*
X158819775Y-95579467D01*
X158577138Y-95478715D01*
X158314415Y-95478486D01*
X158071602Y-95578814D01*
X157885667Y-95764425D01*
X157784915Y-96007062D01*
X157784686Y-96269785D01*
X153242771Y-96269785D01*
X153242771Y-95568000D01*
X153221518Y-95455048D01*
X153154763Y-95351308D01*
X153052907Y-95281713D01*
X152932000Y-95257229D01*
X151408000Y-95257229D01*
X151295048Y-95278482D01*
X151191308Y-95345237D01*
X151121713Y-95447093D01*
X151097229Y-95568000D01*
X129829800Y-95568000D01*
X129829800Y-95219800D01*
X167170200Y-95219800D01*
X167170200Y-114780200D01*
M02*
