M48
;DRILL file {KiCad 4.0.2+dfsg1-stable} date ven. 29 sept. 2017 08:41:17 CEST
;FORMAT={-:-/ absolute / inch / decimal}
FMAT,2
INCH,TZ
T1C0.012
T2C0.040
T3C0.043
T4C0.047
T5C0.060
%
G90
G05
M72
T1
X5.238Y-4.472
X5.398Y-4.472
X5.489Y-4.034
X5.588Y-4.224
X5.62Y-4.149
X5.668Y-3.802
X5.698Y-4.149
X5.775Y-4.508
X5.849Y-4.27
X5.85Y-3.944
X5.965Y-4.508
X5.989Y-3.984
X5.989Y-4.034
X6.Y-4.302
X6.003Y-4.134
X6.022Y-4.411
X6.06Y-4.508
X6.109Y-4.251
X6.21Y-4.486
X6.238Y-3.785
X6.309Y-4.453
X6.387Y-3.785
T2
X5.9909Y-3.7925
X5.9909Y-3.8925
T3
X5.3555Y-3.8839
T4
X5.2555Y-3.8839
X5.2555Y-3.9839
X5.2555Y-4.0839
X5.2555Y-4.1839
X5.2555Y-4.2839
X5.2555Y-4.3839
X5.3555Y-3.9839
X5.3555Y-4.0839
X5.3555Y-4.1839
X5.3555Y-4.2839
X5.3555Y-4.3839
T5
X6.3965Y-3.9339
X6.3965Y-4.1339
X6.3965Y-4.3339
T0
M30
