G04 #@! TF.FileFunction,Copper,L1,Top,Signal*
%FSLAX46Y46*%
G04 Gerber Fmt 4.6, Leading zero omitted, Abs format (unit mm)*
G04 Created by KiCad (PCBNEW 4.0.2+dfsg1-stable) date lun. 14 janv. 2019 10:15:00 CET*
%MOMM*%
G01*
G04 APERTURE LIST*
%ADD10C,0.100000*%
%ADD11C,0.101600*%
%ADD12R,2.540000X2.540000*%
%ADD13C,2.540000*%
%ADD14R,1.070000X0.310000*%
%ADD15R,2.000000X1.900000*%
%ADD16C,1.900000*%
%ADD17R,1.143000X0.635000*%
%ADD18R,0.635000X1.143000*%
%ADD19R,0.508000X1.143000*%
%ADD20C,1.198880*%
%ADD21R,1.000000X0.300000*%
%ADD22R,1.397000X0.889000*%
%ADD23R,2.000000X1.198880*%
%ADD24C,1.524000*%
%ADD25R,2.032000X1.524000*%
%ADD26C,0.711200*%
%ADD27C,0.203200*%
%ADD28C,0.406400*%
%ADD29C,0.304800*%
G04 APERTURE END LIST*
D10*
D11*
X167850001Y-112156667D02*
X167850001Y-111690000D01*
X167850001Y-111823333D02*
X167883334Y-111756667D01*
X167916667Y-111723333D01*
X167983334Y-111690000D01*
X168050001Y-111690000D01*
X168550000Y-112123333D02*
X168483334Y-112156667D01*
X168350000Y-112156667D01*
X168283334Y-112123333D01*
X168250000Y-112056667D01*
X168250000Y-111790000D01*
X168283334Y-111723333D01*
X168350000Y-111690000D01*
X168483334Y-111690000D01*
X168550000Y-111723333D01*
X168583334Y-111790000D01*
X168583334Y-111856667D01*
X168250000Y-111923333D01*
X168816667Y-111690000D02*
X168983334Y-112156667D01*
X169150000Y-111690000D01*
X169783333Y-112156667D02*
X169383333Y-112156667D01*
X169583333Y-112156667D02*
X169583333Y-111456667D01*
X169516667Y-111556667D01*
X169450000Y-111623333D01*
X169383333Y-111656667D01*
X166819048Y-97022533D02*
X167200000Y-97022533D01*
X166742857Y-97251105D02*
X167009524Y-96451105D01*
X167276191Y-97251105D01*
X167885714Y-96717771D02*
X167885714Y-97365390D01*
X167847619Y-97441581D01*
X167809524Y-97479676D01*
X167733333Y-97517771D01*
X167619048Y-97517771D01*
X167542857Y-97479676D01*
X167885714Y-97213010D02*
X167809524Y-97251105D01*
X167657143Y-97251105D01*
X167580952Y-97213010D01*
X167542857Y-97174914D01*
X167504762Y-97098724D01*
X167504762Y-96870152D01*
X167542857Y-96793962D01*
X167580952Y-96755867D01*
X167657143Y-96717771D01*
X167809524Y-96717771D01*
X167885714Y-96755867D01*
X168266667Y-97251105D02*
X168266667Y-96717771D01*
X168266667Y-96451105D02*
X168228572Y-96489200D01*
X168266667Y-96527295D01*
X168304762Y-96489200D01*
X168266667Y-96451105D01*
X168266667Y-96527295D01*
X168761905Y-97251105D02*
X168685714Y-97213010D01*
X168647619Y-97136819D01*
X168647619Y-96451105D01*
X169409524Y-97251105D02*
X169409524Y-96832057D01*
X169371429Y-96755867D01*
X169295239Y-96717771D01*
X169142858Y-96717771D01*
X169066667Y-96755867D01*
X169409524Y-97213010D02*
X169333334Y-97251105D01*
X169142858Y-97251105D01*
X169066667Y-97213010D01*
X169028572Y-97136819D01*
X169028572Y-97060629D01*
X169066667Y-96984438D01*
X169142858Y-96946343D01*
X169333334Y-96946343D01*
X169409524Y-96908248D01*
X170133334Y-97213010D02*
X170057144Y-97251105D01*
X169904763Y-97251105D01*
X169828572Y-97213010D01*
X169790477Y-97174914D01*
X169752382Y-97098724D01*
X169752382Y-96870152D01*
X169790477Y-96793962D01*
X169828572Y-96755867D01*
X169904763Y-96717771D01*
X170057144Y-96717771D01*
X170133334Y-96755867D01*
X170476191Y-97251105D02*
X170476191Y-96451105D01*
X170552382Y-96946343D02*
X170780953Y-97251105D01*
X170780953Y-96717771D02*
X170476191Y-97022533D01*
X166266667Y-98396514D02*
X166228572Y-98434610D01*
X166114286Y-98472705D01*
X166038096Y-98472705D01*
X165923810Y-98434610D01*
X165847619Y-98358419D01*
X165809524Y-98282229D01*
X165771429Y-98129848D01*
X165771429Y-98015562D01*
X165809524Y-97863181D01*
X165847619Y-97786990D01*
X165923810Y-97710800D01*
X166038096Y-97672705D01*
X166114286Y-97672705D01*
X166228572Y-97710800D01*
X166266667Y-97748895D01*
X167066667Y-98396514D02*
X167028572Y-98434610D01*
X166914286Y-98472705D01*
X166838096Y-98472705D01*
X166723810Y-98434610D01*
X166647619Y-98358419D01*
X166609524Y-98282229D01*
X166571429Y-98129848D01*
X166571429Y-98015562D01*
X166609524Y-97863181D01*
X166647619Y-97786990D01*
X166723810Y-97710800D01*
X166838096Y-97672705D01*
X166914286Y-97672705D01*
X167028572Y-97710800D01*
X167066667Y-97748895D01*
X167409524Y-98167943D02*
X168019048Y-98167943D01*
X168400000Y-98472705D02*
X168400000Y-97672705D01*
X168400000Y-97977467D02*
X168476191Y-97939371D01*
X168628572Y-97939371D01*
X168704762Y-97977467D01*
X168742857Y-98015562D01*
X168780953Y-98091752D01*
X168780953Y-98320324D01*
X168742857Y-98396514D01*
X168704762Y-98434610D01*
X168628572Y-98472705D01*
X168476191Y-98472705D01*
X168400000Y-98434610D01*
X169047620Y-97939371D02*
X169238096Y-98472705D01*
X169428572Y-97939371D02*
X169238096Y-98472705D01*
X169161905Y-98663181D01*
X169123810Y-98701276D01*
X169047620Y-98739371D01*
X169733334Y-98167943D02*
X170342858Y-98167943D01*
X170685715Y-98434610D02*
X170800001Y-98472705D01*
X170990477Y-98472705D01*
X171066667Y-98434610D01*
X171104763Y-98396514D01*
X171142858Y-98320324D01*
X171142858Y-98244133D01*
X171104763Y-98167943D01*
X171066667Y-98129848D01*
X170990477Y-98091752D01*
X170838096Y-98053657D01*
X170761905Y-98015562D01*
X170723810Y-97977467D01*
X170685715Y-97901276D01*
X170685715Y-97825086D01*
X170723810Y-97748895D01*
X170761905Y-97710800D01*
X170838096Y-97672705D01*
X171028572Y-97672705D01*
X171142858Y-97710800D01*
X171447620Y-98244133D02*
X171828572Y-98244133D01*
X171371429Y-98472705D02*
X171638096Y-97672705D01*
X171904763Y-98472705D01*
X162426667Y-114046667D02*
X162426667Y-113346667D01*
X162693333Y-113346667D01*
X162760000Y-113380000D01*
X162793333Y-113413333D01*
X162826667Y-113480000D01*
X162826667Y-113580000D01*
X162793333Y-113646667D01*
X162760000Y-113680000D01*
X162693333Y-113713333D01*
X162426667Y-113713333D01*
X163126667Y-114046667D02*
X163126667Y-113346667D01*
X163360000Y-113846667D01*
X163593333Y-113346667D01*
X163593333Y-114046667D01*
X164060000Y-113346667D02*
X164193333Y-113346667D01*
X164260000Y-113380000D01*
X164326667Y-113446667D01*
X164360000Y-113580000D01*
X164360000Y-113813333D01*
X164326667Y-113946667D01*
X164260000Y-114013333D01*
X164193333Y-114046667D01*
X164060000Y-114046667D01*
X163993333Y-114013333D01*
X163926667Y-113946667D01*
X163893333Y-113813333D01*
X163893333Y-113580000D01*
X163926667Y-113446667D01*
X163993333Y-113380000D01*
X164060000Y-113346667D01*
X164660000Y-114046667D02*
X164660000Y-113346667D01*
X164826666Y-113346667D01*
X164926666Y-113380000D01*
X164993333Y-113446667D01*
X165026666Y-113513333D01*
X165060000Y-113646667D01*
X165060000Y-113746667D01*
X165026666Y-113880000D01*
X164993333Y-113946667D01*
X164926666Y-114013333D01*
X164826666Y-114046667D01*
X164660000Y-114046667D01*
X165360000Y-113780000D02*
X165893333Y-113780000D01*
X166193333Y-114013333D02*
X166293333Y-114046667D01*
X166460000Y-114046667D01*
X166526667Y-114013333D01*
X166560000Y-113980000D01*
X166593333Y-113913333D01*
X166593333Y-113846667D01*
X166560000Y-113780000D01*
X166526667Y-113746667D01*
X166460000Y-113713333D01*
X166326667Y-113680000D01*
X166260000Y-113646667D01*
X166226667Y-113613333D01*
X166193333Y-113546667D01*
X166193333Y-113480000D01*
X166226667Y-113413333D01*
X166260000Y-113380000D01*
X166326667Y-113346667D01*
X166493333Y-113346667D01*
X166593333Y-113380000D01*
X166893334Y-113680000D02*
X167126667Y-113680000D01*
X167226667Y-114046667D02*
X166893334Y-114046667D01*
X166893334Y-113346667D01*
X167226667Y-113346667D01*
X167526667Y-114046667D02*
X167526667Y-113346667D01*
X167926667Y-114046667D01*
X167926667Y-113346667D01*
X168226666Y-114013333D02*
X168326666Y-114046667D01*
X168493333Y-114046667D01*
X168560000Y-114013333D01*
X168593333Y-113980000D01*
X168626666Y-113913333D01*
X168626666Y-113846667D01*
X168593333Y-113780000D01*
X168560000Y-113746667D01*
X168493333Y-113713333D01*
X168360000Y-113680000D01*
X168293333Y-113646667D01*
X168260000Y-113613333D01*
X168226666Y-113546667D01*
X168226666Y-113480000D01*
X168260000Y-113413333D01*
X168293333Y-113380000D01*
X168360000Y-113346667D01*
X168526666Y-113346667D01*
X168626666Y-113380000D01*
X169060000Y-113346667D02*
X169193333Y-113346667D01*
X169260000Y-113380000D01*
X169326667Y-113446667D01*
X169360000Y-113580000D01*
X169360000Y-113813333D01*
X169326667Y-113946667D01*
X169260000Y-114013333D01*
X169193333Y-114046667D01*
X169060000Y-114046667D01*
X168993333Y-114013333D01*
X168926667Y-113946667D01*
X168893333Y-113813333D01*
X168893333Y-113580000D01*
X168926667Y-113446667D01*
X168993333Y-113380000D01*
X169060000Y-113346667D01*
X170060000Y-114046667D02*
X169826666Y-113713333D01*
X169660000Y-114046667D02*
X169660000Y-113346667D01*
X169926666Y-113346667D01*
X169993333Y-113380000D01*
X170026666Y-113413333D01*
X170060000Y-113480000D01*
X170060000Y-113580000D01*
X170026666Y-113646667D01*
X169993333Y-113680000D01*
X169926666Y-113713333D01*
X169660000Y-113713333D01*
X170360000Y-113780000D02*
X170893333Y-113780000D01*
X171626667Y-114046667D02*
X171393333Y-113713333D01*
X171226667Y-114046667D02*
X171226667Y-113346667D01*
X171493333Y-113346667D01*
X171560000Y-113380000D01*
X171593333Y-113413333D01*
X171626667Y-113480000D01*
X171626667Y-113580000D01*
X171593333Y-113646667D01*
X171560000Y-113680000D01*
X171493333Y-113713333D01*
X171226667Y-113713333D01*
X171926667Y-113680000D02*
X172160000Y-113680000D01*
X172260000Y-114046667D02*
X171926667Y-114046667D01*
X171926667Y-113346667D01*
X172260000Y-113346667D01*
X172526666Y-114013333D02*
X172626666Y-114046667D01*
X172793333Y-114046667D01*
X172860000Y-114013333D01*
X172893333Y-113980000D01*
X172926666Y-113913333D01*
X172926666Y-113846667D01*
X172893333Y-113780000D01*
X172860000Y-113746667D01*
X172793333Y-113713333D01*
X172660000Y-113680000D01*
X172593333Y-113646667D01*
X172560000Y-113613333D01*
X172526666Y-113546667D01*
X172526666Y-113480000D01*
X172560000Y-113413333D01*
X172593333Y-113380000D01*
X172660000Y-113346667D01*
X172826666Y-113346667D01*
X172926666Y-113380000D01*
D12*
X168820000Y-102460000D03*
D13*
X168820000Y-107540000D03*
D14*
X161452500Y-110675000D03*
X161452500Y-111325000D03*
X161452500Y-111975000D03*
X161452500Y-110025000D03*
X156547500Y-110025000D03*
X156547500Y-110675000D03*
X156547500Y-111325000D03*
X156547500Y-111975000D03*
D15*
X129690200Y-98650000D03*
D16*
X129690200Y-101190000D03*
X129690200Y-103730000D03*
X129690200Y-106270000D03*
X129690200Y-108810000D03*
X129690200Y-111350000D03*
X127150200Y-98650000D03*
X127150200Y-101190000D03*
X127150200Y-103730000D03*
X127150200Y-106270000D03*
X127150200Y-108810000D03*
X127150200Y-111350000D03*
D17*
X159000000Y-107762000D03*
X159000000Y-106238000D03*
X157000000Y-106238000D03*
X157000000Y-107762000D03*
X161000000Y-106238000D03*
X161000000Y-107762000D03*
D18*
X152988000Y-112000000D03*
X154512000Y-112000000D03*
X154512000Y-110000000D03*
X152988000Y-110000000D03*
D19*
X160405000Y-101917000D03*
X160405000Y-96583000D03*
X159135000Y-101917000D03*
X157865000Y-101917000D03*
X156595000Y-101917000D03*
X159135000Y-96583000D03*
X157865000Y-96583000D03*
X156595000Y-96583000D03*
D17*
X154500000Y-96738000D03*
X154500000Y-98262000D03*
X163000000Y-98262000D03*
X163000000Y-96738000D03*
D18*
X160008000Y-103790000D03*
X161532000Y-103790000D03*
D20*
X154510000Y-103790000D03*
D17*
X135000000Y-102512000D03*
X135000000Y-100988000D03*
X137000000Y-100988000D03*
X137000000Y-102512000D03*
D21*
X141450000Y-106000000D03*
X141450000Y-105500000D03*
X141450000Y-105000000D03*
X141450000Y-104500000D03*
X141450000Y-104000000D03*
X136550000Y-104000000D03*
X136550000Y-104500000D03*
X136550000Y-105000000D03*
X136550000Y-105500000D03*
X136550000Y-106000000D03*
D22*
X132500000Y-111352500D03*
X132500000Y-109447500D03*
D17*
X134500000Y-111162000D03*
X134500000Y-109638000D03*
X139000000Y-102512000D03*
X139000000Y-100988000D03*
D18*
X158238000Y-113750000D03*
X159762000Y-113750000D03*
X149262000Y-106000000D03*
X147738000Y-106000000D03*
D23*
X140430000Y-109150000D03*
X136730000Y-109150000D03*
X136730000Y-111650000D03*
X140430000Y-111650000D03*
D17*
X142710000Y-111162000D03*
X142710000Y-109638000D03*
D24*
X124600000Y-113660000D03*
D25*
X148500000Y-113651000D03*
X148500000Y-110349000D03*
X148500000Y-96739000D03*
X148500000Y-100041000D03*
D26*
X142710000Y-106000000D03*
X148500000Y-108830000D03*
X148500000Y-101560000D03*
X142710000Y-108490000D03*
X136730000Y-107800000D03*
X160840000Y-113750000D03*
X139000000Y-99990000D03*
X135000000Y-99990000D03*
X134500000Y-108500000D03*
X142710000Y-104750000D03*
X162940000Y-111970000D03*
X157000000Y-105160000D03*
X162610000Y-103790000D03*
X160160000Y-110020000D03*
X154500000Y-99340000D03*
X163000000Y-95500000D03*
X157870000Y-97910000D03*
D27*
X142710000Y-106000000D02*
X141450000Y-106000000D01*
D28*
X148500000Y-110349000D02*
X148500000Y-108830000D01*
X148500000Y-100041000D02*
X148500000Y-101560000D01*
D29*
X142710000Y-109638000D02*
X142710000Y-108490000D01*
D28*
X136730000Y-109150000D02*
X136730000Y-107800000D01*
X160840000Y-113750000D02*
X159762000Y-113750000D01*
X139000000Y-100988000D02*
X139000000Y-99990000D01*
X135000000Y-99990000D02*
X135000000Y-100988000D01*
X134500000Y-109638000D02*
X134500000Y-108500000D01*
X132500000Y-109447500D02*
X131517500Y-109447500D01*
X131517500Y-109447500D02*
X130880000Y-108810000D01*
X130880000Y-108810000D02*
X129690200Y-108810000D01*
X134500000Y-109638000D02*
X132690500Y-109638000D01*
X132690500Y-109638000D02*
X132500000Y-109447500D01*
D27*
X141450000Y-104500000D02*
X142460000Y-104500000D01*
X142460000Y-105000000D02*
X142710000Y-104750000D01*
X142460000Y-105000000D02*
X141450000Y-105000000D01*
X142460000Y-104500000D02*
X142710000Y-104750000D01*
X162340000Y-111970000D02*
X162335000Y-111975000D01*
X162335000Y-111975000D02*
X161452500Y-111975000D01*
X162940000Y-111970000D02*
X162340000Y-111970000D01*
D29*
X129690200Y-108810000D02*
X127150200Y-108810000D01*
X157000000Y-106238000D02*
X157000000Y-105160000D01*
X162610000Y-103790000D02*
X161532000Y-103790000D01*
D27*
X160695000Y-110025000D02*
X160690000Y-110020000D01*
X160690000Y-110020000D02*
X160160000Y-110020000D01*
X161452500Y-110025000D02*
X160695000Y-110025000D01*
D29*
X156595000Y-96583000D02*
X156595000Y-98755000D01*
X165350000Y-102460000D02*
X168820000Y-102460000D01*
X163640000Y-100750000D02*
X165350000Y-102460000D01*
X158590000Y-100750000D02*
X163640000Y-100750000D01*
X156595000Y-98755000D02*
X158590000Y-100750000D01*
X154500000Y-98262000D02*
X154500000Y-99340000D01*
X163000000Y-96738000D02*
X163000000Y-95500000D01*
X157865000Y-97505000D02*
X157870000Y-97510000D01*
X157870000Y-97510000D02*
X157870000Y-97910000D01*
X157865000Y-97505000D02*
X157865000Y-96583000D01*
X168820000Y-107540000D02*
X165950000Y-107540000D01*
X163490000Y-107760000D02*
X162940000Y-108310000D01*
X165730000Y-107760000D02*
X163490000Y-107760000D01*
X165950000Y-107540000D02*
X165730000Y-107760000D01*
X161000000Y-107762000D02*
X162392000Y-107762000D01*
X162392000Y-107762000D02*
X162940000Y-108310000D01*
X162940000Y-110090000D02*
X162940000Y-108310000D01*
X162355000Y-110675000D02*
X162940000Y-110090000D01*
X161452500Y-110675000D02*
X162355000Y-110675000D01*
X158040000Y-109180000D02*
X160185000Y-111325000D01*
D27*
X161452500Y-111325000D02*
X160595000Y-111325000D01*
D29*
X160185000Y-111325000D02*
X160595000Y-111325000D01*
X158040000Y-109180000D02*
X158040000Y-108720000D01*
X159000000Y-107762000D02*
X158998000Y-107762000D01*
X158998000Y-107762000D02*
X158040000Y-108720000D01*
X158040000Y-108720000D02*
X158000000Y-108760000D01*
X157000000Y-107762000D02*
X157002000Y-107762000D01*
X157002000Y-107762000D02*
X158000000Y-108760000D01*
D28*
X148500000Y-113651000D02*
X144869000Y-113651000D01*
X148500000Y-113651000D02*
X150121000Y-113651000D01*
X156170000Y-113750000D02*
X155790000Y-114130000D01*
X156170000Y-113750000D02*
X158238000Y-113750000D01*
X150600000Y-114130000D02*
X155790000Y-114130000D01*
X150121000Y-113651000D02*
X150600000Y-114130000D01*
X148500000Y-96739000D02*
X139001000Y-96739000D01*
X139001000Y-96739000D02*
X139000000Y-96738000D01*
X154500000Y-96738000D02*
X148501000Y-96738000D01*
X148501000Y-96738000D02*
X148500000Y-96739000D01*
X144869000Y-113651000D02*
X144869000Y-112149000D01*
X144869000Y-112149000D02*
X143882000Y-111162000D01*
X143882000Y-111162000D02*
X142710000Y-111162000D01*
X136130000Y-114130000D02*
X144390000Y-114130000D01*
X144390000Y-114130000D02*
X144869000Y-113651000D01*
X134500000Y-112500000D02*
X136130000Y-114130000D01*
X132870000Y-114130000D02*
X127160000Y-114130000D01*
X127160000Y-114130000D02*
X124360000Y-111330000D01*
X132870000Y-114130000D02*
X134500000Y-112500000D01*
X126292000Y-96738000D02*
X134238000Y-96738000D01*
X124360000Y-98670000D02*
X124360000Y-111330000D01*
X126292000Y-96738000D02*
X124360000Y-98670000D01*
X139000000Y-96738000D02*
X134238000Y-96738000D01*
X140430000Y-111650000D02*
X141970000Y-111650000D01*
X141970000Y-111650000D02*
X142458000Y-111162000D01*
X142458000Y-111162000D02*
X142710000Y-111162000D01*
D27*
X156547500Y-110025000D02*
X157435000Y-110025000D01*
D29*
X158238000Y-110678000D02*
X158238000Y-113750000D01*
X158238000Y-110678000D02*
X157585000Y-110025000D01*
X157585000Y-110025000D02*
X157435000Y-110025000D01*
D28*
X141000000Y-99500000D02*
X141000000Y-101490000D01*
X139000000Y-97500000D02*
X141000000Y-99500000D01*
X139978000Y-102512000D02*
X139000000Y-102512000D01*
X141000000Y-101490000D02*
X139978000Y-102512000D01*
X139000000Y-96738000D02*
X139000000Y-97500000D01*
X137000000Y-99500000D02*
X137000000Y-100988000D01*
X139000000Y-97500000D02*
X137000000Y-99500000D01*
D27*
X136550000Y-104500000D02*
X137450000Y-104500000D01*
D28*
X139000000Y-103520000D02*
X139000000Y-102512000D01*
X138020000Y-104500000D02*
X137450000Y-104500000D01*
X139000000Y-103520000D02*
X138020000Y-104500000D01*
X137000000Y-100988000D02*
X136742000Y-100988000D01*
X134500000Y-111162000D02*
X134500000Y-112500000D01*
X134500000Y-111162000D02*
X132690500Y-111162000D01*
X132690500Y-111162000D02*
X132500000Y-111352500D01*
X132500000Y-111352500D02*
X129692700Y-111352500D01*
X129692700Y-111352500D02*
X129690200Y-111350000D01*
D29*
X129690200Y-111350000D02*
X127150200Y-111350000D01*
X159135000Y-96583000D02*
X159135000Y-95655000D01*
X159135000Y-95655000D02*
X158760000Y-95280000D01*
X158760000Y-95280000D02*
X155280000Y-95280000D01*
X155280000Y-95280000D02*
X154500000Y-96060000D01*
X154500000Y-96060000D02*
X154500000Y-96738000D01*
D27*
X156547500Y-111325000D02*
X155545000Y-111325000D01*
X155545000Y-111325000D02*
X155220000Y-111000000D01*
X155220000Y-111000000D02*
X153730000Y-111000000D01*
X152988000Y-112000000D02*
X152988000Y-111742000D01*
X152988000Y-111742000D02*
X153730000Y-111000000D01*
X153730000Y-111000000D02*
X152988000Y-110258000D01*
X152988000Y-110258000D02*
X152988000Y-110000000D01*
D29*
X149262000Y-106000000D02*
X150140000Y-106000000D01*
X154150000Y-113410000D02*
X152200000Y-113410000D01*
X154512000Y-113048000D02*
X154512000Y-112000000D01*
X154512000Y-113048000D02*
X154150000Y-113410000D01*
X151140000Y-112350000D02*
X152200000Y-113410000D01*
X151140000Y-107000000D02*
X151140000Y-112350000D01*
X150140000Y-106000000D02*
X151140000Y-107000000D01*
X147738000Y-106000000D02*
X149262000Y-106000000D01*
X147738000Y-106000000D02*
X146420000Y-106000000D01*
X146420000Y-106000000D02*
X144420000Y-104000000D01*
D27*
X141450000Y-104000000D02*
X142300000Y-104000000D01*
D29*
X144420000Y-104000000D02*
X142300000Y-104000000D01*
X154537000Y-111975000D02*
X155705000Y-111975000D01*
D27*
X155705000Y-111975000D02*
X156547500Y-111975000D01*
D29*
X154537000Y-111975000D02*
X154512000Y-112000000D01*
X154537000Y-111975000D02*
X154512000Y-112000000D01*
D27*
X154537000Y-111975000D02*
X154512000Y-112000000D01*
X141450000Y-105500000D02*
X140550000Y-105500000D01*
D28*
X149010000Y-103790000D02*
X148360000Y-103140000D01*
X148360000Y-103140000D02*
X140560000Y-103140000D01*
X140560000Y-103140000D02*
X139810000Y-103890000D01*
X139810000Y-103890000D02*
X139810000Y-105100000D01*
X139810000Y-105100000D02*
X140210000Y-105500000D01*
X140210000Y-105500000D02*
X140550000Y-105500000D01*
X149010000Y-103790000D02*
X154510000Y-103790000D01*
D29*
X159135000Y-101917000D02*
X159135000Y-102917000D01*
X159135000Y-102917000D02*
X160008000Y-103790000D01*
X154510000Y-103790000D02*
X154510000Y-109998000D01*
X154510000Y-109998000D02*
X154512000Y-110000000D01*
X154510000Y-103790000D02*
X154510000Y-101450000D01*
X157865000Y-100995000D02*
X157865000Y-101917000D01*
X157210000Y-100340000D02*
X157865000Y-100995000D01*
X155620000Y-100340000D02*
X157210000Y-100340000D01*
X154510000Y-101450000D02*
X155620000Y-100340000D01*
X154510000Y-103790000D02*
X160008000Y-103790000D01*
X160440000Y-105000000D02*
X160286000Y-105000000D01*
X161000000Y-105560000D02*
X160440000Y-105000000D01*
X161000000Y-106238000D02*
X161000000Y-105560000D01*
X160286000Y-105000000D02*
X160008000Y-104722000D01*
X160008000Y-103790000D02*
X160008000Y-104722000D01*
X159000000Y-105560000D02*
X159560000Y-105000000D01*
X159000000Y-105560000D02*
X159000000Y-106238000D01*
X159730000Y-105000000D02*
X159560000Y-105000000D01*
X160008000Y-104722000D02*
X159730000Y-105000000D01*
D27*
X156547500Y-110675000D02*
X155705000Y-110675000D01*
X155705000Y-110675000D02*
X155030000Y-110000000D01*
X155030000Y-110000000D02*
X154512000Y-110000000D01*
D29*
X160405000Y-96583000D02*
X160405000Y-97705000D01*
X160962000Y-98262000D02*
X163000000Y-98262000D01*
X160405000Y-97705000D02*
X160962000Y-98262000D01*
D28*
X137000000Y-102512000D02*
X135000000Y-102512000D01*
D27*
X136550000Y-104000000D02*
X135700000Y-104000000D01*
D29*
X135000000Y-103630000D02*
X135370000Y-104000000D01*
X135370000Y-104000000D02*
X135700000Y-104000000D01*
X135000000Y-103630000D02*
X135000000Y-102512000D01*
D27*
X136550000Y-105000000D02*
X133500000Y-105000000D01*
X132230000Y-103730000D02*
X129690200Y-103730000D01*
X132230000Y-103730000D02*
X133500000Y-105000000D01*
X136550000Y-105500000D02*
X133500000Y-105500000D01*
X132730000Y-106270000D02*
X133500000Y-105500000D01*
X132730000Y-106270000D02*
X129690200Y-106270000D01*
X136550000Y-106000000D02*
X137550000Y-106000000D01*
X138230000Y-110550000D02*
X137130000Y-111650000D01*
X138230000Y-106680000D02*
X138230000Y-110550000D01*
X137550000Y-106000000D02*
X138230000Y-106680000D01*
X137130000Y-111650000D02*
X136730000Y-111650000D01*
M02*
