M48
;DRILL file {KiCad 4.0.2+dfsg1-stable} date lun. 14 janv. 2019 10:15:04 CET
;FORMAT={-:-/ absolute / inch / decimal}
FMAT,2
INCH,TZ
T1C0.012
T2C0.031
T3C0.043
T4C0.047
T5C0.060
%
G90
G05
M72
T1
X5.2953Y-4.2717
X5.315Y-3.9366
X5.3831Y-4.2441
X5.4724Y-3.9366
X5.6185Y-4.124
X5.6185Y-4.1732
X5.6185Y-4.2713
X5.8465Y-3.9984
X5.8465Y-4.2846
X6.0827Y-3.911
X6.1811Y-4.1402
X6.2154Y-3.8547
X6.3055Y-4.3315
X6.3323Y-4.4783
X6.402Y-4.0862
X6.415Y-4.4083
X6.4173Y-3.7598
T2
X4.9055Y-4.4748
T3
X5.1059Y-3.8839
T4
X5.0059Y-3.8839
X5.0059Y-3.9839
X5.0059Y-4.0839
X5.0059Y-4.1839
X5.0059Y-4.2839
X5.0059Y-4.3839
X5.1059Y-3.9839
X5.1059Y-4.0839
X5.1059Y-4.1839
X5.1059Y-4.2839
X5.1059Y-4.3839
T5
X6.6465Y-4.0339
X6.6465Y-4.2339
T0
M30
