G04 #@! TF.FileFunction,Paste,Top*
%FSLAX46Y46*%
G04 Gerber Fmt 4.6, Leading zero omitted, Abs format (unit mm)*
G04 Created by KiCad (PCBNEW 4.0.2+dfsg1-stable) date lun. 14 janv. 2019 10:15:00 CET*
%MOMM*%
G01*
G04 APERTURE LIST*
%ADD10C,0.100000*%
%ADD11R,1.070000X0.310000*%
%ADD12R,1.143000X0.635000*%
%ADD13R,0.635000X1.143000*%
%ADD14R,0.508000X1.143000*%
%ADD15C,1.198880*%
%ADD16R,1.000000X0.300000*%
%ADD17R,1.397000X0.889000*%
%ADD18R,2.000000X1.198880*%
%ADD19R,2.032000X1.524000*%
G04 APERTURE END LIST*
D10*
D11*
X161452500Y-110675000D03*
X161452500Y-111325000D03*
X161452500Y-111975000D03*
X161452500Y-110025000D03*
X156547500Y-110025000D03*
X156547500Y-110675000D03*
X156547500Y-111325000D03*
X156547500Y-111975000D03*
D12*
X159000000Y-107762000D03*
X159000000Y-106238000D03*
X157000000Y-106238000D03*
X157000000Y-107762000D03*
X161000000Y-106238000D03*
X161000000Y-107762000D03*
D13*
X152988000Y-112000000D03*
X154512000Y-112000000D03*
X154512000Y-110000000D03*
X152988000Y-110000000D03*
D14*
X160405000Y-101917000D03*
X160405000Y-96583000D03*
X159135000Y-101917000D03*
X157865000Y-101917000D03*
X156595000Y-101917000D03*
X159135000Y-96583000D03*
X157865000Y-96583000D03*
X156595000Y-96583000D03*
D12*
X154500000Y-96738000D03*
X154500000Y-98262000D03*
X163000000Y-98262000D03*
X163000000Y-96738000D03*
D13*
X160008000Y-103790000D03*
X161532000Y-103790000D03*
D15*
X154510000Y-103790000D03*
D12*
X135000000Y-102512000D03*
X135000000Y-100988000D03*
X137000000Y-100988000D03*
X137000000Y-102512000D03*
D16*
X141450000Y-106000000D03*
X141450000Y-105500000D03*
X141450000Y-105000000D03*
X141450000Y-104500000D03*
X141450000Y-104000000D03*
X136550000Y-104000000D03*
X136550000Y-104500000D03*
X136550000Y-105000000D03*
X136550000Y-105500000D03*
X136550000Y-106000000D03*
D17*
X132500000Y-111352500D03*
X132500000Y-109447500D03*
D12*
X134500000Y-111162000D03*
X134500000Y-109638000D03*
X139000000Y-102512000D03*
X139000000Y-100988000D03*
D13*
X158238000Y-113750000D03*
X159762000Y-113750000D03*
X149262000Y-106000000D03*
X147738000Y-106000000D03*
D18*
X140430000Y-109150000D03*
X136730000Y-109150000D03*
X136730000Y-111650000D03*
X140430000Y-111650000D03*
D12*
X142710000Y-111162000D03*
X142710000Y-109638000D03*
D19*
X148500000Y-113651000D03*
X148500000Y-110349000D03*
X148500000Y-96739000D03*
X148500000Y-100041000D03*
M02*
