G04 #@! TF.FileFunction,Copper,L2,Bot,Signal*
%FSLAX46Y46*%
G04 Gerber Fmt 4.6, Leading zero omitted, Abs format (unit mm)*
G04 Created by KiCad (PCBNEW 4.0.2+dfsg1-stable) date mar. 12 sept. 2017 13:22:42 CEST*
%MOMM*%
G01*
G04 APERTURE LIST*
%ADD10C,0.100000*%
%ADD11R,2.000000X1.900000*%
%ADD12C,1.900000*%
%ADD13C,1.524000*%
%ADD14C,0.711200*%
%ADD15C,0.304800*%
%ADD16C,0.203200*%
%ADD17C,0.406400*%
%ADD18C,0.200000*%
G04 APERTURE END LIST*
D10*
D11*
X129680000Y-98650000D03*
D12*
X129680000Y-101190000D03*
X129680000Y-103730000D03*
X129680000Y-106270000D03*
X129680000Y-108810000D03*
X129680000Y-111350000D03*
X127140000Y-98650000D03*
X127140000Y-101190000D03*
X127140000Y-103730000D03*
X127140000Y-106270000D03*
X127140000Y-108810000D03*
X127140000Y-111350000D03*
D13*
X134620000Y-96520000D03*
X137160000Y-96520000D03*
X139700000Y-96520000D03*
X142240000Y-96520000D03*
X144780000Y-96520000D03*
D14*
X142150000Y-105000000D03*
X145669000Y-105968800D03*
X151375000Y-100775000D03*
X130125000Y-113800000D03*
X152150000Y-103400000D03*
X148000000Y-103875000D03*
X144500000Y-98125000D03*
X136275000Y-105300000D03*
X135375000Y-99125000D03*
X139950000Y-99125000D03*
X154150000Y-109400000D03*
X159650000Y-109400000D03*
X159650000Y-100600000D03*
X154150000Y-100600000D03*
X151150000Y-105800000D03*
X149950000Y-104600000D03*
X133925000Y-106725000D03*
X136775000Y-106725000D03*
X142900000Y-101575000D03*
X147325000Y-101575000D03*
D15*
X142150000Y-105000000D02*
X144700200Y-105000000D01*
X144700200Y-105000000D02*
X145669000Y-105968800D01*
D16*
X136275000Y-105300000D02*
X137675000Y-105300000D01*
X137675000Y-105300000D02*
X137975000Y-105000000D01*
X142150000Y-105000000D02*
X137975000Y-105000000D01*
D15*
X145669000Y-105968800D02*
X147091400Y-105968800D01*
X148000000Y-105060200D02*
X148000000Y-103875000D01*
X147091400Y-105968800D02*
X148000000Y-105060200D01*
X151375000Y-100775000D02*
X151375000Y-99432000D01*
X146761200Y-98501200D02*
X144780000Y-96520000D01*
X150444200Y-98501200D02*
X146761200Y-98501200D01*
X151375000Y-99432000D02*
X150444200Y-98501200D01*
X152150000Y-103400000D02*
X152150000Y-101550000D01*
X152150000Y-101550000D02*
X151375000Y-100775000D01*
X136275000Y-105300000D02*
X136275000Y-104100000D01*
X139600000Y-103025000D02*
X144500000Y-98125000D01*
X137350000Y-103025000D02*
X139600000Y-103025000D01*
X136275000Y-104100000D02*
X137350000Y-103025000D01*
X130125000Y-113800000D02*
X130850000Y-113800000D01*
X131400000Y-110530000D02*
X129680000Y-108810000D01*
X131400000Y-113250000D02*
X131400000Y-110530000D01*
X130850000Y-113800000D02*
X131400000Y-113250000D01*
X152150000Y-103400000D02*
X149750000Y-103400000D01*
X149275000Y-103875000D02*
X148000000Y-103875000D01*
X149750000Y-103400000D02*
X149275000Y-103875000D01*
D16*
X136275000Y-105300000D02*
X133190000Y-105300000D01*
X133190000Y-105300000D02*
X129680000Y-108810000D01*
D17*
X135375000Y-99125000D02*
X139950000Y-99125000D01*
D16*
X151150000Y-105800000D02*
X149950000Y-104600000D01*
X133925000Y-106725000D02*
X136775000Y-106725000D01*
X147325000Y-101575000D02*
X142900000Y-101575000D01*
D18*
G36*
X144088551Y-95306302D02*
X144015421Y-95537632D01*
X144780000Y-96302211D01*
X145544579Y-95537632D01*
X145471449Y-95306302D01*
X145197310Y-95215000D01*
X160825000Y-95215000D01*
X160825000Y-114785000D01*
X123475000Y-114785000D01*
X123475000Y-111597550D01*
X125889783Y-111597550D01*
X126079684Y-112057143D01*
X126431007Y-112409081D01*
X126890269Y-112599783D01*
X127387550Y-112600217D01*
X127847143Y-112410316D01*
X128199081Y-112058993D01*
X128389783Y-111599731D01*
X128389784Y-111597550D01*
X128429783Y-111597550D01*
X128619684Y-112057143D01*
X128971007Y-112409081D01*
X129430269Y-112599783D01*
X129927550Y-112600217D01*
X130387143Y-112410316D01*
X130739081Y-112058993D01*
X130929783Y-111599731D01*
X130930217Y-111102450D01*
X130740316Y-110642857D01*
X130388993Y-110290919D01*
X130302601Y-110255046D01*
X130484724Y-110179608D01*
X130581027Y-109928815D01*
X129680000Y-109027789D01*
X128778973Y-109928815D01*
X128875276Y-110179608D01*
X129072861Y-110248363D01*
X128972857Y-110289684D01*
X128620919Y-110641007D01*
X128430217Y-111100269D01*
X128429783Y-111597550D01*
X128389784Y-111597550D01*
X128390217Y-111102450D01*
X128200316Y-110642857D01*
X127848993Y-110290919D01*
X127762601Y-110255046D01*
X127944724Y-110179608D01*
X128041027Y-109928815D01*
X127140000Y-109027789D01*
X126238973Y-109928815D01*
X126335276Y-110179608D01*
X126532861Y-110248363D01*
X126432857Y-110289684D01*
X126080919Y-110641007D01*
X125890217Y-111100269D01*
X125889783Y-111597550D01*
X123475000Y-111597550D01*
X123475000Y-108590658D01*
X125566692Y-108590658D01*
X125602514Y-109209433D01*
X125770392Y-109614724D01*
X126021185Y-109711027D01*
X126922211Y-108810000D01*
X127357789Y-108810000D01*
X128258815Y-109711027D01*
X128410000Y-109652973D01*
X128561185Y-109711027D01*
X129462211Y-108810000D01*
X129897789Y-108810000D01*
X130798815Y-109711027D01*
X131049608Y-109614724D01*
X131079147Y-109529835D01*
X153494286Y-109529835D01*
X153593885Y-109770882D01*
X153778148Y-109955467D01*
X154019021Y-110055486D01*
X154279835Y-110055714D01*
X154520882Y-109956115D01*
X154705467Y-109771852D01*
X154805486Y-109530979D01*
X154805487Y-109529835D01*
X158994286Y-109529835D01*
X159093885Y-109770882D01*
X159278148Y-109955467D01*
X159519021Y-110055486D01*
X159779835Y-110055714D01*
X160020882Y-109956115D01*
X160205467Y-109771852D01*
X160305486Y-109530979D01*
X160305714Y-109270165D01*
X160206115Y-109029118D01*
X160021852Y-108844533D01*
X159780979Y-108744514D01*
X159520165Y-108744286D01*
X159279118Y-108843885D01*
X159094533Y-109028148D01*
X158994514Y-109269021D01*
X158994286Y-109529835D01*
X154805487Y-109529835D01*
X154805714Y-109270165D01*
X154706115Y-109029118D01*
X154521852Y-108844533D01*
X154280979Y-108744514D01*
X154020165Y-108744286D01*
X153779118Y-108843885D01*
X153594533Y-109028148D01*
X153494514Y-109269021D01*
X153494286Y-109529835D01*
X131079147Y-109529835D01*
X131253308Y-109029342D01*
X131217486Y-108410567D01*
X131049608Y-108005276D01*
X130798815Y-107908973D01*
X129897789Y-108810000D01*
X129462211Y-108810000D01*
X128561185Y-107908973D01*
X128410000Y-107967027D01*
X128258815Y-107908973D01*
X127357789Y-108810000D01*
X126922211Y-108810000D01*
X126021185Y-107908973D01*
X125770392Y-108005276D01*
X125566692Y-108590658D01*
X123475000Y-108590658D01*
X123475000Y-106517550D01*
X125889783Y-106517550D01*
X126079684Y-106977143D01*
X126431007Y-107329081D01*
X126517399Y-107364954D01*
X126335276Y-107440392D01*
X126238973Y-107691185D01*
X127140000Y-108592211D01*
X128041027Y-107691185D01*
X127944724Y-107440392D01*
X127747139Y-107371637D01*
X127847143Y-107330316D01*
X128199081Y-106978993D01*
X128389783Y-106519731D01*
X128389784Y-106517550D01*
X128429783Y-106517550D01*
X128619684Y-106977143D01*
X128971007Y-107329081D01*
X129057399Y-107364954D01*
X128875276Y-107440392D01*
X128778973Y-107691185D01*
X129680000Y-108592211D01*
X130581027Y-107691185D01*
X130484724Y-107440392D01*
X130287139Y-107371637D01*
X130387143Y-107330316D01*
X130739081Y-106978993D01*
X130790635Y-106854835D01*
X133269286Y-106854835D01*
X133368885Y-107095882D01*
X133553148Y-107280467D01*
X133794021Y-107380486D01*
X134054835Y-107380714D01*
X134295882Y-107281115D01*
X134450667Y-107126600D01*
X136249549Y-107126600D01*
X136403148Y-107280467D01*
X136644021Y-107380486D01*
X136904835Y-107380714D01*
X136982725Y-107348530D01*
X155999870Y-107348530D01*
X156113811Y-107624286D01*
X156324605Y-107835448D01*
X156600161Y-107949869D01*
X156898530Y-107950130D01*
X157174286Y-107836189D01*
X157385448Y-107625395D01*
X157499869Y-107349839D01*
X157500130Y-107051470D01*
X157386189Y-106775714D01*
X157175395Y-106564552D01*
X156899839Y-106450131D01*
X156601470Y-106449870D01*
X156325714Y-106563811D01*
X156114552Y-106774605D01*
X156000131Y-107050161D01*
X155999870Y-107348530D01*
X136982725Y-107348530D01*
X137145882Y-107281115D01*
X137330467Y-107096852D01*
X137430486Y-106855979D01*
X137430714Y-106595165D01*
X137331115Y-106354118D01*
X137146852Y-106169533D01*
X136905979Y-106069514D01*
X136645165Y-106069286D01*
X136404118Y-106168885D01*
X136249333Y-106323400D01*
X134450451Y-106323400D01*
X134296852Y-106169533D01*
X134055979Y-106069514D01*
X133795165Y-106069286D01*
X133554118Y-106168885D01*
X133369533Y-106353148D01*
X133269514Y-106594021D01*
X133269286Y-106854835D01*
X130790635Y-106854835D01*
X130929783Y-106519731D01*
X130930217Y-106022450D01*
X130740316Y-105562857D01*
X130388993Y-105210919D01*
X129929731Y-105020217D01*
X129432450Y-105019783D01*
X128972857Y-105209684D01*
X128620919Y-105561007D01*
X128430217Y-106020269D01*
X128429783Y-106517550D01*
X128389784Y-106517550D01*
X128390217Y-106022450D01*
X128200316Y-105562857D01*
X127848993Y-105210919D01*
X127389731Y-105020217D01*
X126892450Y-105019783D01*
X126432857Y-105209684D01*
X126080919Y-105561007D01*
X125890217Y-106020269D01*
X125889783Y-106517550D01*
X123475000Y-106517550D01*
X123475000Y-103977550D01*
X125889783Y-103977550D01*
X126079684Y-104437143D01*
X126431007Y-104789081D01*
X126890269Y-104979783D01*
X127387550Y-104980217D01*
X127847143Y-104790316D01*
X128199081Y-104438993D01*
X128389783Y-103979731D01*
X128389784Y-103977550D01*
X128429783Y-103977550D01*
X128619684Y-104437143D01*
X128971007Y-104789081D01*
X129430269Y-104979783D01*
X129927550Y-104980217D01*
X130387143Y-104790316D01*
X130447729Y-104729835D01*
X149294286Y-104729835D01*
X149393885Y-104970882D01*
X149578148Y-105155467D01*
X149819021Y-105255486D01*
X150037729Y-105255677D01*
X150494476Y-105712424D01*
X150494286Y-105929835D01*
X150593885Y-106170882D01*
X150778148Y-106355467D01*
X151019021Y-106455486D01*
X151279835Y-106455714D01*
X151520882Y-106356115D01*
X151705467Y-106171852D01*
X151805486Y-105930979D01*
X151805714Y-105670165D01*
X151706115Y-105429118D01*
X151521852Y-105244533D01*
X151280979Y-105144514D01*
X151062271Y-105144323D01*
X150605524Y-104687576D01*
X150605714Y-104470165D01*
X150506115Y-104229118D01*
X150321852Y-104044533D01*
X150080979Y-103944514D01*
X149820165Y-103944286D01*
X149579118Y-104043885D01*
X149394533Y-104228148D01*
X149294514Y-104469021D01*
X149294286Y-104729835D01*
X130447729Y-104729835D01*
X130739081Y-104438993D01*
X130929783Y-103979731D01*
X130930217Y-103482450D01*
X130740316Y-103022857D01*
X130666119Y-102948530D01*
X155999870Y-102948530D01*
X156113811Y-103224286D01*
X156324605Y-103435448D01*
X156600161Y-103549869D01*
X156898530Y-103550130D01*
X157174286Y-103436189D01*
X157385448Y-103225395D01*
X157499869Y-102949839D01*
X157500130Y-102651470D01*
X157386189Y-102375714D01*
X157175395Y-102164552D01*
X156899839Y-102050131D01*
X156601470Y-102049870D01*
X156325714Y-102163811D01*
X156114552Y-102374605D01*
X156000131Y-102650161D01*
X155999870Y-102948530D01*
X130666119Y-102948530D01*
X130388993Y-102670919D01*
X129929731Y-102480217D01*
X129432450Y-102479783D01*
X128972857Y-102669684D01*
X128620919Y-103021007D01*
X128430217Y-103480269D01*
X128429783Y-103977550D01*
X128389784Y-103977550D01*
X128390217Y-103482450D01*
X128200316Y-103022857D01*
X127848993Y-102670919D01*
X127389731Y-102480217D01*
X126892450Y-102479783D01*
X126432857Y-102669684D01*
X126080919Y-103021007D01*
X125890217Y-103480269D01*
X125889783Y-103977550D01*
X123475000Y-103977550D01*
X123475000Y-101437550D01*
X125889783Y-101437550D01*
X126079684Y-101897143D01*
X126431007Y-102249081D01*
X126890269Y-102439783D01*
X127387550Y-102440217D01*
X127847143Y-102250316D01*
X128199081Y-101898993D01*
X128389783Y-101439731D01*
X128389784Y-101437550D01*
X128429783Y-101437550D01*
X128619684Y-101897143D01*
X128971007Y-102249081D01*
X129430269Y-102439783D01*
X129927550Y-102440217D01*
X130387143Y-102250316D01*
X130739081Y-101898993D01*
X130819702Y-101704835D01*
X142244286Y-101704835D01*
X142343885Y-101945882D01*
X142528148Y-102130467D01*
X142769021Y-102230486D01*
X143029835Y-102230714D01*
X143270882Y-102131115D01*
X143425667Y-101976600D01*
X146799549Y-101976600D01*
X146953148Y-102130467D01*
X147194021Y-102230486D01*
X147454835Y-102230714D01*
X147695882Y-102131115D01*
X147880467Y-101946852D01*
X147980486Y-101705979D01*
X147980714Y-101445165D01*
X147881115Y-101204118D01*
X147696852Y-101019533D01*
X147455979Y-100919514D01*
X147195165Y-100919286D01*
X146954118Y-101018885D01*
X146799333Y-101173400D01*
X143425451Y-101173400D01*
X143271852Y-101019533D01*
X143030979Y-100919514D01*
X142770165Y-100919286D01*
X142529118Y-101018885D01*
X142344533Y-101203148D01*
X142244514Y-101444021D01*
X142244286Y-101704835D01*
X130819702Y-101704835D01*
X130929783Y-101439731D01*
X130930217Y-100942450D01*
X130842366Y-100729835D01*
X153494286Y-100729835D01*
X153593885Y-100970882D01*
X153778148Y-101155467D01*
X154019021Y-101255486D01*
X154279835Y-101255714D01*
X154520882Y-101156115D01*
X154705467Y-100971852D01*
X154805486Y-100730979D01*
X154805487Y-100729835D01*
X158994286Y-100729835D01*
X159093885Y-100970882D01*
X159278148Y-101155467D01*
X159519021Y-101255486D01*
X159779835Y-101255714D01*
X160020882Y-101156115D01*
X160205467Y-100971852D01*
X160305486Y-100730979D01*
X160305714Y-100470165D01*
X160206115Y-100229118D01*
X160021852Y-100044533D01*
X159780979Y-99944514D01*
X159520165Y-99944286D01*
X159279118Y-100043885D01*
X159094533Y-100228148D01*
X158994514Y-100469021D01*
X158994286Y-100729835D01*
X154805487Y-100729835D01*
X154805714Y-100470165D01*
X154706115Y-100229118D01*
X154521852Y-100044533D01*
X154280979Y-99944514D01*
X154020165Y-99944286D01*
X153779118Y-100043885D01*
X153594533Y-100228148D01*
X153494514Y-100469021D01*
X153494286Y-100729835D01*
X130842366Y-100729835D01*
X130740316Y-100482857D01*
X130388993Y-100130919D01*
X129929731Y-99940217D01*
X129432450Y-99939783D01*
X128972857Y-100129684D01*
X128620919Y-100481007D01*
X128430217Y-100940269D01*
X128429783Y-101437550D01*
X128389784Y-101437550D01*
X128390217Y-100942450D01*
X128200316Y-100482857D01*
X127848993Y-100130919D01*
X127389731Y-99940217D01*
X126892450Y-99939783D01*
X126432857Y-100129684D01*
X126080919Y-100481007D01*
X125890217Y-100940269D01*
X125889783Y-101437550D01*
X123475000Y-101437550D01*
X123475000Y-98897550D01*
X125889783Y-98897550D01*
X126079684Y-99357143D01*
X126431007Y-99709081D01*
X126890269Y-99899783D01*
X127387550Y-99900217D01*
X127847143Y-99710316D01*
X128199081Y-99358993D01*
X128374123Y-98937445D01*
X128374123Y-99600000D01*
X128395042Y-99711173D01*
X128460745Y-99813279D01*
X128560997Y-99881778D01*
X128680000Y-99905877D01*
X130680000Y-99905877D01*
X130791173Y-99884958D01*
X130893279Y-99819255D01*
X130961778Y-99719003D01*
X130985877Y-99600000D01*
X130985877Y-99254835D01*
X134719286Y-99254835D01*
X134818885Y-99495882D01*
X135003148Y-99680467D01*
X135244021Y-99780486D01*
X135504835Y-99780714D01*
X135745882Y-99681115D01*
X135798889Y-99628200D01*
X139525972Y-99628200D01*
X139578148Y-99680467D01*
X139819021Y-99780486D01*
X140079835Y-99780714D01*
X140320882Y-99681115D01*
X140505467Y-99496852D01*
X140605486Y-99255979D01*
X140605714Y-98995165D01*
X140506115Y-98754118D01*
X140321852Y-98569533D01*
X140080979Y-98469514D01*
X139820165Y-98469286D01*
X139579118Y-98568885D01*
X139526111Y-98621800D01*
X135799028Y-98621800D01*
X135746852Y-98569533D01*
X135505979Y-98469514D01*
X135245165Y-98469286D01*
X135004118Y-98568885D01*
X134819533Y-98753148D01*
X134719514Y-98994021D01*
X134719286Y-99254835D01*
X130985877Y-99254835D01*
X130985877Y-97700000D01*
X130964958Y-97588827D01*
X130899255Y-97486721D01*
X130799003Y-97418222D01*
X130680000Y-97394123D01*
X128680000Y-97394123D01*
X128568827Y-97415042D01*
X128466721Y-97480745D01*
X128398222Y-97580997D01*
X128374123Y-97700000D01*
X128374123Y-98363500D01*
X128200316Y-97942857D01*
X127848993Y-97590919D01*
X127389731Y-97400217D01*
X126892450Y-97399783D01*
X126432857Y-97589684D01*
X126080919Y-97941007D01*
X125890217Y-98400269D01*
X125889783Y-98897550D01*
X123475000Y-98897550D01*
X123475000Y-96730318D01*
X133557816Y-96730318D01*
X133719155Y-97120789D01*
X134017640Y-97419795D01*
X134407828Y-97581815D01*
X134830318Y-97582184D01*
X135220789Y-97420845D01*
X135519795Y-97122360D01*
X135681815Y-96732172D01*
X135681816Y-96730318D01*
X136097816Y-96730318D01*
X136259155Y-97120789D01*
X136557640Y-97419795D01*
X136947828Y-97581815D01*
X137370318Y-97582184D01*
X137760789Y-97420845D01*
X138059795Y-97122360D01*
X138221815Y-96732172D01*
X138221816Y-96730318D01*
X138637816Y-96730318D01*
X138799155Y-97120789D01*
X139097640Y-97419795D01*
X139487828Y-97581815D01*
X139910318Y-97582184D01*
X140300789Y-97420845D01*
X140599795Y-97122360D01*
X140761815Y-96732172D01*
X140761816Y-96730318D01*
X141177816Y-96730318D01*
X141339155Y-97120789D01*
X141637640Y-97419795D01*
X142027828Y-97581815D01*
X142450318Y-97582184D01*
X142643487Y-97502368D01*
X144015421Y-97502368D01*
X144088551Y-97733698D01*
X144605647Y-97905917D01*
X145149287Y-97867142D01*
X145471449Y-97733698D01*
X145544579Y-97502368D01*
X144780000Y-96737789D01*
X144015421Y-97502368D01*
X142643487Y-97502368D01*
X142840789Y-97420845D01*
X143139795Y-97122360D01*
X143301815Y-96732172D01*
X143302152Y-96345647D01*
X143394083Y-96345647D01*
X143432858Y-96889287D01*
X143566302Y-97211449D01*
X143797632Y-97284579D01*
X144562211Y-96520000D01*
X144997789Y-96520000D01*
X145762368Y-97284579D01*
X145993698Y-97211449D01*
X146165917Y-96694353D01*
X146127142Y-96150713D01*
X145993698Y-95828551D01*
X145762368Y-95755421D01*
X144997789Y-96520000D01*
X144562211Y-96520000D01*
X143797632Y-95755421D01*
X143566302Y-95828551D01*
X143394083Y-96345647D01*
X143302152Y-96345647D01*
X143302184Y-96309682D01*
X143140845Y-95919211D01*
X142842360Y-95620205D01*
X142452172Y-95458185D01*
X142029682Y-95457816D01*
X141639211Y-95619155D01*
X141340205Y-95917640D01*
X141178185Y-96307828D01*
X141177816Y-96730318D01*
X140761816Y-96730318D01*
X140762184Y-96309682D01*
X140600845Y-95919211D01*
X140302360Y-95620205D01*
X139912172Y-95458185D01*
X139489682Y-95457816D01*
X139099211Y-95619155D01*
X138800205Y-95917640D01*
X138638185Y-96307828D01*
X138637816Y-96730318D01*
X138221816Y-96730318D01*
X138222184Y-96309682D01*
X138060845Y-95919211D01*
X137762360Y-95620205D01*
X137372172Y-95458185D01*
X136949682Y-95457816D01*
X136559211Y-95619155D01*
X136260205Y-95917640D01*
X136098185Y-96307828D01*
X136097816Y-96730318D01*
X135681816Y-96730318D01*
X135682184Y-96309682D01*
X135520845Y-95919211D01*
X135222360Y-95620205D01*
X134832172Y-95458185D01*
X134409682Y-95457816D01*
X134019211Y-95619155D01*
X133720205Y-95917640D01*
X133558185Y-96307828D01*
X133557816Y-96730318D01*
X123475000Y-96730318D01*
X123475000Y-95215000D01*
X144308973Y-95215000D01*
X144088551Y-95306302D01*
X144088551Y-95306302D01*
G37*
X144088551Y-95306302D02*
X144015421Y-95537632D01*
X144780000Y-96302211D01*
X145544579Y-95537632D01*
X145471449Y-95306302D01*
X145197310Y-95215000D01*
X160825000Y-95215000D01*
X160825000Y-114785000D01*
X123475000Y-114785000D01*
X123475000Y-111597550D01*
X125889783Y-111597550D01*
X126079684Y-112057143D01*
X126431007Y-112409081D01*
X126890269Y-112599783D01*
X127387550Y-112600217D01*
X127847143Y-112410316D01*
X128199081Y-112058993D01*
X128389783Y-111599731D01*
X128389784Y-111597550D01*
X128429783Y-111597550D01*
X128619684Y-112057143D01*
X128971007Y-112409081D01*
X129430269Y-112599783D01*
X129927550Y-112600217D01*
X130387143Y-112410316D01*
X130739081Y-112058993D01*
X130929783Y-111599731D01*
X130930217Y-111102450D01*
X130740316Y-110642857D01*
X130388993Y-110290919D01*
X130302601Y-110255046D01*
X130484724Y-110179608D01*
X130581027Y-109928815D01*
X129680000Y-109027789D01*
X128778973Y-109928815D01*
X128875276Y-110179608D01*
X129072861Y-110248363D01*
X128972857Y-110289684D01*
X128620919Y-110641007D01*
X128430217Y-111100269D01*
X128429783Y-111597550D01*
X128389784Y-111597550D01*
X128390217Y-111102450D01*
X128200316Y-110642857D01*
X127848993Y-110290919D01*
X127762601Y-110255046D01*
X127944724Y-110179608D01*
X128041027Y-109928815D01*
X127140000Y-109027789D01*
X126238973Y-109928815D01*
X126335276Y-110179608D01*
X126532861Y-110248363D01*
X126432857Y-110289684D01*
X126080919Y-110641007D01*
X125890217Y-111100269D01*
X125889783Y-111597550D01*
X123475000Y-111597550D01*
X123475000Y-108590658D01*
X125566692Y-108590658D01*
X125602514Y-109209433D01*
X125770392Y-109614724D01*
X126021185Y-109711027D01*
X126922211Y-108810000D01*
X127357789Y-108810000D01*
X128258815Y-109711027D01*
X128410000Y-109652973D01*
X128561185Y-109711027D01*
X129462211Y-108810000D01*
X129897789Y-108810000D01*
X130798815Y-109711027D01*
X131049608Y-109614724D01*
X131079147Y-109529835D01*
X153494286Y-109529835D01*
X153593885Y-109770882D01*
X153778148Y-109955467D01*
X154019021Y-110055486D01*
X154279835Y-110055714D01*
X154520882Y-109956115D01*
X154705467Y-109771852D01*
X154805486Y-109530979D01*
X154805487Y-109529835D01*
X158994286Y-109529835D01*
X159093885Y-109770882D01*
X159278148Y-109955467D01*
X159519021Y-110055486D01*
X159779835Y-110055714D01*
X160020882Y-109956115D01*
X160205467Y-109771852D01*
X160305486Y-109530979D01*
X160305714Y-109270165D01*
X160206115Y-109029118D01*
X160021852Y-108844533D01*
X159780979Y-108744514D01*
X159520165Y-108744286D01*
X159279118Y-108843885D01*
X159094533Y-109028148D01*
X158994514Y-109269021D01*
X158994286Y-109529835D01*
X154805487Y-109529835D01*
X154805714Y-109270165D01*
X154706115Y-109029118D01*
X154521852Y-108844533D01*
X154280979Y-108744514D01*
X154020165Y-108744286D01*
X153779118Y-108843885D01*
X153594533Y-109028148D01*
X153494514Y-109269021D01*
X153494286Y-109529835D01*
X131079147Y-109529835D01*
X131253308Y-109029342D01*
X131217486Y-108410567D01*
X131049608Y-108005276D01*
X130798815Y-107908973D01*
X129897789Y-108810000D01*
X129462211Y-108810000D01*
X128561185Y-107908973D01*
X128410000Y-107967027D01*
X128258815Y-107908973D01*
X127357789Y-108810000D01*
X126922211Y-108810000D01*
X126021185Y-107908973D01*
X125770392Y-108005276D01*
X125566692Y-108590658D01*
X123475000Y-108590658D01*
X123475000Y-106517550D01*
X125889783Y-106517550D01*
X126079684Y-106977143D01*
X126431007Y-107329081D01*
X126517399Y-107364954D01*
X126335276Y-107440392D01*
X126238973Y-107691185D01*
X127140000Y-108592211D01*
X128041027Y-107691185D01*
X127944724Y-107440392D01*
X127747139Y-107371637D01*
X127847143Y-107330316D01*
X128199081Y-106978993D01*
X128389783Y-106519731D01*
X128389784Y-106517550D01*
X128429783Y-106517550D01*
X128619684Y-106977143D01*
X128971007Y-107329081D01*
X129057399Y-107364954D01*
X128875276Y-107440392D01*
X128778973Y-107691185D01*
X129680000Y-108592211D01*
X130581027Y-107691185D01*
X130484724Y-107440392D01*
X130287139Y-107371637D01*
X130387143Y-107330316D01*
X130739081Y-106978993D01*
X130790635Y-106854835D01*
X133269286Y-106854835D01*
X133368885Y-107095882D01*
X133553148Y-107280467D01*
X133794021Y-107380486D01*
X134054835Y-107380714D01*
X134295882Y-107281115D01*
X134450667Y-107126600D01*
X136249549Y-107126600D01*
X136403148Y-107280467D01*
X136644021Y-107380486D01*
X136904835Y-107380714D01*
X136982725Y-107348530D01*
X155999870Y-107348530D01*
X156113811Y-107624286D01*
X156324605Y-107835448D01*
X156600161Y-107949869D01*
X156898530Y-107950130D01*
X157174286Y-107836189D01*
X157385448Y-107625395D01*
X157499869Y-107349839D01*
X157500130Y-107051470D01*
X157386189Y-106775714D01*
X157175395Y-106564552D01*
X156899839Y-106450131D01*
X156601470Y-106449870D01*
X156325714Y-106563811D01*
X156114552Y-106774605D01*
X156000131Y-107050161D01*
X155999870Y-107348530D01*
X136982725Y-107348530D01*
X137145882Y-107281115D01*
X137330467Y-107096852D01*
X137430486Y-106855979D01*
X137430714Y-106595165D01*
X137331115Y-106354118D01*
X137146852Y-106169533D01*
X136905979Y-106069514D01*
X136645165Y-106069286D01*
X136404118Y-106168885D01*
X136249333Y-106323400D01*
X134450451Y-106323400D01*
X134296852Y-106169533D01*
X134055979Y-106069514D01*
X133795165Y-106069286D01*
X133554118Y-106168885D01*
X133369533Y-106353148D01*
X133269514Y-106594021D01*
X133269286Y-106854835D01*
X130790635Y-106854835D01*
X130929783Y-106519731D01*
X130930217Y-106022450D01*
X130740316Y-105562857D01*
X130388993Y-105210919D01*
X129929731Y-105020217D01*
X129432450Y-105019783D01*
X128972857Y-105209684D01*
X128620919Y-105561007D01*
X128430217Y-106020269D01*
X128429783Y-106517550D01*
X128389784Y-106517550D01*
X128390217Y-106022450D01*
X128200316Y-105562857D01*
X127848993Y-105210919D01*
X127389731Y-105020217D01*
X126892450Y-105019783D01*
X126432857Y-105209684D01*
X126080919Y-105561007D01*
X125890217Y-106020269D01*
X125889783Y-106517550D01*
X123475000Y-106517550D01*
X123475000Y-103977550D01*
X125889783Y-103977550D01*
X126079684Y-104437143D01*
X126431007Y-104789081D01*
X126890269Y-104979783D01*
X127387550Y-104980217D01*
X127847143Y-104790316D01*
X128199081Y-104438993D01*
X128389783Y-103979731D01*
X128389784Y-103977550D01*
X128429783Y-103977550D01*
X128619684Y-104437143D01*
X128971007Y-104789081D01*
X129430269Y-104979783D01*
X129927550Y-104980217D01*
X130387143Y-104790316D01*
X130447729Y-104729835D01*
X149294286Y-104729835D01*
X149393885Y-104970882D01*
X149578148Y-105155467D01*
X149819021Y-105255486D01*
X150037729Y-105255677D01*
X150494476Y-105712424D01*
X150494286Y-105929835D01*
X150593885Y-106170882D01*
X150778148Y-106355467D01*
X151019021Y-106455486D01*
X151279835Y-106455714D01*
X151520882Y-106356115D01*
X151705467Y-106171852D01*
X151805486Y-105930979D01*
X151805714Y-105670165D01*
X151706115Y-105429118D01*
X151521852Y-105244533D01*
X151280979Y-105144514D01*
X151062271Y-105144323D01*
X150605524Y-104687576D01*
X150605714Y-104470165D01*
X150506115Y-104229118D01*
X150321852Y-104044533D01*
X150080979Y-103944514D01*
X149820165Y-103944286D01*
X149579118Y-104043885D01*
X149394533Y-104228148D01*
X149294514Y-104469021D01*
X149294286Y-104729835D01*
X130447729Y-104729835D01*
X130739081Y-104438993D01*
X130929783Y-103979731D01*
X130930217Y-103482450D01*
X130740316Y-103022857D01*
X130666119Y-102948530D01*
X155999870Y-102948530D01*
X156113811Y-103224286D01*
X156324605Y-103435448D01*
X156600161Y-103549869D01*
X156898530Y-103550130D01*
X157174286Y-103436189D01*
X157385448Y-103225395D01*
X157499869Y-102949839D01*
X157500130Y-102651470D01*
X157386189Y-102375714D01*
X157175395Y-102164552D01*
X156899839Y-102050131D01*
X156601470Y-102049870D01*
X156325714Y-102163811D01*
X156114552Y-102374605D01*
X156000131Y-102650161D01*
X155999870Y-102948530D01*
X130666119Y-102948530D01*
X130388993Y-102670919D01*
X129929731Y-102480217D01*
X129432450Y-102479783D01*
X128972857Y-102669684D01*
X128620919Y-103021007D01*
X128430217Y-103480269D01*
X128429783Y-103977550D01*
X128389784Y-103977550D01*
X128390217Y-103482450D01*
X128200316Y-103022857D01*
X127848993Y-102670919D01*
X127389731Y-102480217D01*
X126892450Y-102479783D01*
X126432857Y-102669684D01*
X126080919Y-103021007D01*
X125890217Y-103480269D01*
X125889783Y-103977550D01*
X123475000Y-103977550D01*
X123475000Y-101437550D01*
X125889783Y-101437550D01*
X126079684Y-101897143D01*
X126431007Y-102249081D01*
X126890269Y-102439783D01*
X127387550Y-102440217D01*
X127847143Y-102250316D01*
X128199081Y-101898993D01*
X128389783Y-101439731D01*
X128389784Y-101437550D01*
X128429783Y-101437550D01*
X128619684Y-101897143D01*
X128971007Y-102249081D01*
X129430269Y-102439783D01*
X129927550Y-102440217D01*
X130387143Y-102250316D01*
X130739081Y-101898993D01*
X130819702Y-101704835D01*
X142244286Y-101704835D01*
X142343885Y-101945882D01*
X142528148Y-102130467D01*
X142769021Y-102230486D01*
X143029835Y-102230714D01*
X143270882Y-102131115D01*
X143425667Y-101976600D01*
X146799549Y-101976600D01*
X146953148Y-102130467D01*
X147194021Y-102230486D01*
X147454835Y-102230714D01*
X147695882Y-102131115D01*
X147880467Y-101946852D01*
X147980486Y-101705979D01*
X147980714Y-101445165D01*
X147881115Y-101204118D01*
X147696852Y-101019533D01*
X147455979Y-100919514D01*
X147195165Y-100919286D01*
X146954118Y-101018885D01*
X146799333Y-101173400D01*
X143425451Y-101173400D01*
X143271852Y-101019533D01*
X143030979Y-100919514D01*
X142770165Y-100919286D01*
X142529118Y-101018885D01*
X142344533Y-101203148D01*
X142244514Y-101444021D01*
X142244286Y-101704835D01*
X130819702Y-101704835D01*
X130929783Y-101439731D01*
X130930217Y-100942450D01*
X130842366Y-100729835D01*
X153494286Y-100729835D01*
X153593885Y-100970882D01*
X153778148Y-101155467D01*
X154019021Y-101255486D01*
X154279835Y-101255714D01*
X154520882Y-101156115D01*
X154705467Y-100971852D01*
X154805486Y-100730979D01*
X154805487Y-100729835D01*
X158994286Y-100729835D01*
X159093885Y-100970882D01*
X159278148Y-101155467D01*
X159519021Y-101255486D01*
X159779835Y-101255714D01*
X160020882Y-101156115D01*
X160205467Y-100971852D01*
X160305486Y-100730979D01*
X160305714Y-100470165D01*
X160206115Y-100229118D01*
X160021852Y-100044533D01*
X159780979Y-99944514D01*
X159520165Y-99944286D01*
X159279118Y-100043885D01*
X159094533Y-100228148D01*
X158994514Y-100469021D01*
X158994286Y-100729835D01*
X154805487Y-100729835D01*
X154805714Y-100470165D01*
X154706115Y-100229118D01*
X154521852Y-100044533D01*
X154280979Y-99944514D01*
X154020165Y-99944286D01*
X153779118Y-100043885D01*
X153594533Y-100228148D01*
X153494514Y-100469021D01*
X153494286Y-100729835D01*
X130842366Y-100729835D01*
X130740316Y-100482857D01*
X130388993Y-100130919D01*
X129929731Y-99940217D01*
X129432450Y-99939783D01*
X128972857Y-100129684D01*
X128620919Y-100481007D01*
X128430217Y-100940269D01*
X128429783Y-101437550D01*
X128389784Y-101437550D01*
X128390217Y-100942450D01*
X128200316Y-100482857D01*
X127848993Y-100130919D01*
X127389731Y-99940217D01*
X126892450Y-99939783D01*
X126432857Y-100129684D01*
X126080919Y-100481007D01*
X125890217Y-100940269D01*
X125889783Y-101437550D01*
X123475000Y-101437550D01*
X123475000Y-98897550D01*
X125889783Y-98897550D01*
X126079684Y-99357143D01*
X126431007Y-99709081D01*
X126890269Y-99899783D01*
X127387550Y-99900217D01*
X127847143Y-99710316D01*
X128199081Y-99358993D01*
X128374123Y-98937445D01*
X128374123Y-99600000D01*
X128395042Y-99711173D01*
X128460745Y-99813279D01*
X128560997Y-99881778D01*
X128680000Y-99905877D01*
X130680000Y-99905877D01*
X130791173Y-99884958D01*
X130893279Y-99819255D01*
X130961778Y-99719003D01*
X130985877Y-99600000D01*
X130985877Y-99254835D01*
X134719286Y-99254835D01*
X134818885Y-99495882D01*
X135003148Y-99680467D01*
X135244021Y-99780486D01*
X135504835Y-99780714D01*
X135745882Y-99681115D01*
X135798889Y-99628200D01*
X139525972Y-99628200D01*
X139578148Y-99680467D01*
X139819021Y-99780486D01*
X140079835Y-99780714D01*
X140320882Y-99681115D01*
X140505467Y-99496852D01*
X140605486Y-99255979D01*
X140605714Y-98995165D01*
X140506115Y-98754118D01*
X140321852Y-98569533D01*
X140080979Y-98469514D01*
X139820165Y-98469286D01*
X139579118Y-98568885D01*
X139526111Y-98621800D01*
X135799028Y-98621800D01*
X135746852Y-98569533D01*
X135505979Y-98469514D01*
X135245165Y-98469286D01*
X135004118Y-98568885D01*
X134819533Y-98753148D01*
X134719514Y-98994021D01*
X134719286Y-99254835D01*
X130985877Y-99254835D01*
X130985877Y-97700000D01*
X130964958Y-97588827D01*
X130899255Y-97486721D01*
X130799003Y-97418222D01*
X130680000Y-97394123D01*
X128680000Y-97394123D01*
X128568827Y-97415042D01*
X128466721Y-97480745D01*
X128398222Y-97580997D01*
X128374123Y-97700000D01*
X128374123Y-98363500D01*
X128200316Y-97942857D01*
X127848993Y-97590919D01*
X127389731Y-97400217D01*
X126892450Y-97399783D01*
X126432857Y-97589684D01*
X126080919Y-97941007D01*
X125890217Y-98400269D01*
X125889783Y-98897550D01*
X123475000Y-98897550D01*
X123475000Y-96730318D01*
X133557816Y-96730318D01*
X133719155Y-97120789D01*
X134017640Y-97419795D01*
X134407828Y-97581815D01*
X134830318Y-97582184D01*
X135220789Y-97420845D01*
X135519795Y-97122360D01*
X135681815Y-96732172D01*
X135681816Y-96730318D01*
X136097816Y-96730318D01*
X136259155Y-97120789D01*
X136557640Y-97419795D01*
X136947828Y-97581815D01*
X137370318Y-97582184D01*
X137760789Y-97420845D01*
X138059795Y-97122360D01*
X138221815Y-96732172D01*
X138221816Y-96730318D01*
X138637816Y-96730318D01*
X138799155Y-97120789D01*
X139097640Y-97419795D01*
X139487828Y-97581815D01*
X139910318Y-97582184D01*
X140300789Y-97420845D01*
X140599795Y-97122360D01*
X140761815Y-96732172D01*
X140761816Y-96730318D01*
X141177816Y-96730318D01*
X141339155Y-97120789D01*
X141637640Y-97419795D01*
X142027828Y-97581815D01*
X142450318Y-97582184D01*
X142643487Y-97502368D01*
X144015421Y-97502368D01*
X144088551Y-97733698D01*
X144605647Y-97905917D01*
X145149287Y-97867142D01*
X145471449Y-97733698D01*
X145544579Y-97502368D01*
X144780000Y-96737789D01*
X144015421Y-97502368D01*
X142643487Y-97502368D01*
X142840789Y-97420845D01*
X143139795Y-97122360D01*
X143301815Y-96732172D01*
X143302152Y-96345647D01*
X143394083Y-96345647D01*
X143432858Y-96889287D01*
X143566302Y-97211449D01*
X143797632Y-97284579D01*
X144562211Y-96520000D01*
X144997789Y-96520000D01*
X145762368Y-97284579D01*
X145993698Y-97211449D01*
X146165917Y-96694353D01*
X146127142Y-96150713D01*
X145993698Y-95828551D01*
X145762368Y-95755421D01*
X144997789Y-96520000D01*
X144562211Y-96520000D01*
X143797632Y-95755421D01*
X143566302Y-95828551D01*
X143394083Y-96345647D01*
X143302152Y-96345647D01*
X143302184Y-96309682D01*
X143140845Y-95919211D01*
X142842360Y-95620205D01*
X142452172Y-95458185D01*
X142029682Y-95457816D01*
X141639211Y-95619155D01*
X141340205Y-95917640D01*
X141178185Y-96307828D01*
X141177816Y-96730318D01*
X140761816Y-96730318D01*
X140762184Y-96309682D01*
X140600845Y-95919211D01*
X140302360Y-95620205D01*
X139912172Y-95458185D01*
X139489682Y-95457816D01*
X139099211Y-95619155D01*
X138800205Y-95917640D01*
X138638185Y-96307828D01*
X138637816Y-96730318D01*
X138221816Y-96730318D01*
X138222184Y-96309682D01*
X138060845Y-95919211D01*
X137762360Y-95620205D01*
X137372172Y-95458185D01*
X136949682Y-95457816D01*
X136559211Y-95619155D01*
X136260205Y-95917640D01*
X136098185Y-96307828D01*
X136097816Y-96730318D01*
X135681816Y-96730318D01*
X135682184Y-96309682D01*
X135520845Y-95919211D01*
X135222360Y-95620205D01*
X134832172Y-95458185D01*
X134409682Y-95457816D01*
X134019211Y-95619155D01*
X133720205Y-95917640D01*
X133558185Y-96307828D01*
X133557816Y-96730318D01*
X123475000Y-96730318D01*
X123475000Y-95215000D01*
X144308973Y-95215000D01*
X144088551Y-95306302D01*
M02*
