G04 #@! TF.FileFunction,Paste,Top*
%FSLAX46Y46*%
G04 Gerber Fmt 4.6, Leading zero omitted, Abs format (unit mm)*
G04 Created by KiCad (PCBNEW 4.0.2+dfsg1-stable) date mar. 12 sept. 2017 13:22:42 CEST*
%MOMM*%
G01*
G04 APERTURE LIST*
%ADD10C,0.100000*%
%ADD11R,2.499360X1.998980*%
%ADD12R,2.500000X0.500380*%
%ADD13R,0.900000X0.279400*%
%ADD14R,0.279400X0.900000*%
%ADD15R,2.600000X2.600000*%
%ADD16R,0.635000X1.143000*%
%ADD17R,1.143000X0.635000*%
%ADD18C,1.198880*%
G04 APERTURE END LIST*
D10*
D11*
X154150000Y-109400000D03*
D12*
X154150000Y-105000000D03*
X154150000Y-105800100D03*
X154150000Y-106600200D03*
X154150000Y-104199900D03*
X154150000Y-103399800D03*
D11*
X154150000Y-100600000D03*
X159650000Y-109400000D03*
X159650000Y-100600000D03*
D13*
X140100000Y-105300000D03*
X140100000Y-105800000D03*
X144200000Y-104300000D03*
X144200000Y-106300000D03*
X144200000Y-105800000D03*
X144200000Y-105300000D03*
X144200000Y-104800000D03*
X144200000Y-103800000D03*
D14*
X143400000Y-103000000D03*
X142900000Y-103000000D03*
X142400000Y-103000000D03*
X141900000Y-103000000D03*
X141400000Y-103000000D03*
X140900000Y-103000000D03*
D13*
X140100000Y-103800000D03*
X140100000Y-104300000D03*
X140100000Y-104800000D03*
D15*
X142150000Y-105000000D03*
D14*
X143400000Y-107100000D03*
X142900000Y-107100000D03*
X142400000Y-107100000D03*
X141900000Y-107100000D03*
X141400000Y-107100000D03*
X140900000Y-107100000D03*
D13*
X140100000Y-106300000D03*
D16*
X127638000Y-113800000D03*
X129162000Y-113800000D03*
X138737000Y-105300000D03*
X137213000Y-105300000D03*
D17*
X144500000Y-100662000D03*
X144500000Y-99138000D03*
D16*
X145563000Y-103875000D03*
X147087000Y-103875000D03*
D17*
X141325000Y-99138000D03*
X141325000Y-100662000D03*
D16*
X148763000Y-102375000D03*
X150287000Y-102375000D03*
X150287000Y-100775000D03*
X148763000Y-100775000D03*
D18*
X145923000Y-107264200D03*
M02*
