G04 #@! TF.FileFunction,Soldermask,Top*
%FSLAX46Y46*%
G04 Gerber Fmt 4.6, Leading zero omitted, Abs format (unit mm)*
G04 Created by KiCad (PCBNEW 4.0.2+dfsg1-stable) date mar. 12 sept. 2017 13:22:42 CEST*
%MOMM*%
G01*
G04 APERTURE LIST*
%ADD10C,0.100000*%
%ADD11R,2.400000X2.300000*%
%ADD12C,2.300000*%
%ADD13R,2.899360X2.398980*%
%ADD14R,2.900000X0.900380*%
%ADD15C,1.300000*%
%ADD16R,1.300000X0.679400*%
%ADD17R,0.679400X1.300000*%
%ADD18R,3.000000X3.000000*%
%ADD19R,1.035000X1.543000*%
%ADD20R,1.543000X1.035000*%
%ADD21C,1.924000*%
%ADD22C,1.598880*%
G04 APERTURE END LIST*
D10*
D11*
X129680000Y-98650000D03*
D12*
X129680000Y-101190000D03*
X129680000Y-103730000D03*
X129680000Y-106270000D03*
X129680000Y-108810000D03*
X129680000Y-111350000D03*
X127140000Y-98650000D03*
X127140000Y-101190000D03*
X127140000Y-103730000D03*
X127140000Y-106270000D03*
X127140000Y-108810000D03*
X127140000Y-111350000D03*
D13*
X154150000Y-109400000D03*
D14*
X154150000Y-105000000D03*
X154150000Y-105800100D03*
X154150000Y-106600200D03*
X154150000Y-104199900D03*
X154150000Y-103399800D03*
D13*
X154150000Y-100600000D03*
X159650000Y-109400000D03*
X159650000Y-100600000D03*
D15*
X156750000Y-107200000D03*
X156750000Y-102800000D03*
D16*
X140100000Y-105300000D03*
X140100000Y-105800000D03*
X144200000Y-104300000D03*
X144200000Y-106300000D03*
X144200000Y-105800000D03*
X144200000Y-105300000D03*
X144200000Y-104800000D03*
X144200000Y-103800000D03*
D17*
X143400000Y-103000000D03*
X142900000Y-103000000D03*
X142400000Y-103000000D03*
X141900000Y-103000000D03*
X141400000Y-103000000D03*
X140900000Y-103000000D03*
D16*
X140100000Y-103800000D03*
X140100000Y-104300000D03*
X140100000Y-104800000D03*
D18*
X142150000Y-105000000D03*
D17*
X143400000Y-107100000D03*
X142900000Y-107100000D03*
X142400000Y-107100000D03*
X141900000Y-107100000D03*
X141400000Y-107100000D03*
X140900000Y-107100000D03*
D16*
X140100000Y-106300000D03*
D19*
X127638000Y-113800000D03*
X129162000Y-113800000D03*
X138737000Y-105300000D03*
X137213000Y-105300000D03*
D20*
X144500000Y-100662000D03*
X144500000Y-99138000D03*
D19*
X145563000Y-103875000D03*
X147087000Y-103875000D03*
D20*
X141325000Y-99138000D03*
X141325000Y-100662000D03*
D19*
X148763000Y-102375000D03*
X150287000Y-102375000D03*
X150287000Y-100775000D03*
X148763000Y-100775000D03*
D21*
X134620000Y-96520000D03*
X137160000Y-96520000D03*
X139700000Y-96520000D03*
X142240000Y-96520000D03*
X144780000Y-96520000D03*
D22*
X145923000Y-107264200D03*
M02*
