G04 #@! TF.FileFunction,Legend,Top*
%FSLAX46Y46*%
G04 Gerber Fmt 4.6, Leading zero omitted, Abs format (unit mm)*
G04 Created by KiCad (PCBNEW 4.0.2+dfsg1-stable) date mar. 12 sept. 2017 13:22:42 CEST*
%MOMM*%
G01*
G04 APERTURE LIST*
%ADD10C,0.100000*%
%ADD11C,0.150000*%
%ADD12C,0.101600*%
%ADD13C,0.127000*%
%ADD14C,0.027940*%
%ADD15C,0.198120*%
G04 APERTURE END LIST*
D10*
D11*
X117100000Y-98650000D02*
X123100000Y-98650000D01*
X117100000Y-101190000D02*
X123100000Y-101190000D01*
X117100000Y-103730000D02*
X123100000Y-103730000D01*
X117100000Y-106270000D02*
X123100000Y-106270000D01*
X117100000Y-108810000D02*
X123100000Y-108810000D01*
X117100000Y-111350000D02*
X123100000Y-111350000D01*
X125640000Y-112620000D02*
X125640000Y-97380000D01*
X125640000Y-97380000D02*
X123100000Y-97380000D01*
X123100000Y-97380000D02*
X123100000Y-112620000D01*
X125640000Y-112620000D02*
X123100000Y-112620000D01*
D12*
X158061600Y-101139200D02*
X155724800Y-101139200D01*
X162650000Y-101139200D02*
X161211200Y-101139200D01*
X161211200Y-108860800D02*
X162650000Y-108860800D01*
X162650000Y-108860800D02*
X162650000Y-101139200D01*
X155724800Y-108860800D02*
X158061600Y-108860800D01*
X143877200Y-107082000D02*
X144029600Y-107082000D01*
X144029600Y-107082000D02*
X144182000Y-106929600D01*
X144182000Y-106929600D02*
X144182000Y-106777200D01*
X140118000Y-107082000D02*
X140422800Y-107082000D01*
X140118000Y-107082000D02*
X140118000Y-106777200D01*
X140118000Y-103018000D02*
X140118000Y-103322800D01*
X140118000Y-103018000D02*
X140422800Y-103018000D01*
X144182000Y-103018000D02*
X144182000Y-103322800D01*
X144182000Y-103018000D02*
X143877200Y-103018000D01*
D13*
X127257000Y-113165000D02*
X129543000Y-113165000D01*
X129543000Y-113165000D02*
X129543000Y-114435000D01*
X129543000Y-114435000D02*
X127257000Y-114435000D01*
X127257000Y-114435000D02*
X127257000Y-113165000D01*
X139118000Y-105935000D02*
X136832000Y-105935000D01*
X136832000Y-105935000D02*
X136832000Y-104665000D01*
X136832000Y-104665000D02*
X139118000Y-104665000D01*
X139118000Y-104665000D02*
X139118000Y-105935000D01*
X143865000Y-101043000D02*
X143865000Y-98757000D01*
X143865000Y-98757000D02*
X145135000Y-98757000D01*
X145135000Y-98757000D02*
X145135000Y-101043000D01*
X145135000Y-101043000D02*
X143865000Y-101043000D01*
X145182000Y-103240000D02*
X147468000Y-103240000D01*
X147468000Y-103240000D02*
X147468000Y-104510000D01*
X147468000Y-104510000D02*
X145182000Y-104510000D01*
X145182000Y-104510000D02*
X145182000Y-103240000D01*
X141960000Y-98757000D02*
X141960000Y-101043000D01*
X141960000Y-101043000D02*
X140690000Y-101043000D01*
X140690000Y-101043000D02*
X140690000Y-98757000D01*
X140690000Y-98757000D02*
X141960000Y-98757000D01*
X148382000Y-101740000D02*
X150668000Y-101740000D01*
X150668000Y-101740000D02*
X150668000Y-103010000D01*
X150668000Y-103010000D02*
X148382000Y-103010000D01*
X148382000Y-103010000D02*
X148382000Y-101740000D01*
X150668000Y-101410000D02*
X148382000Y-101410000D01*
X148382000Y-101410000D02*
X148382000Y-100140000D01*
X148382000Y-100140000D02*
X150668000Y-100140000D01*
X150668000Y-100140000D02*
X150668000Y-101410000D01*
D14*
X134683500Y-109461300D02*
X134937500Y-109461300D01*
X134531100Y-109486700D02*
X135166100Y-109486700D01*
X134531100Y-109512100D02*
X135166100Y-109512100D01*
X134505700Y-109537500D02*
X135191500Y-109537500D01*
X134505700Y-109562900D02*
X135191500Y-109562900D01*
X134505700Y-109588300D02*
X135191500Y-109588300D01*
X134505700Y-109613700D02*
X135191500Y-109613700D01*
X134505700Y-109639100D02*
X135191500Y-109639100D01*
X134505700Y-109664500D02*
X135191500Y-109664500D01*
X134480300Y-109689900D02*
X135216900Y-109689900D01*
X134480300Y-109715300D02*
X135216900Y-109715300D01*
X134480300Y-109740700D02*
X135216900Y-109740700D01*
X134480300Y-109766100D02*
X135216900Y-109766100D01*
X134480300Y-109791500D02*
X135216900Y-109791500D01*
X134454900Y-109816900D02*
X135216900Y-109816900D01*
X134454900Y-109842300D02*
X135242300Y-109842300D01*
X134454900Y-109867700D02*
X135242300Y-109867700D01*
X134454900Y-109893100D02*
X135242300Y-109893100D01*
X134454900Y-109918500D02*
X135242300Y-109918500D01*
X133413500Y-109943900D02*
X133489700Y-109943900D01*
X134454900Y-109943900D02*
X135242300Y-109943900D01*
X136182100Y-109943900D02*
X136283700Y-109943900D01*
X133388100Y-109969300D02*
X133515100Y-109969300D01*
X134429500Y-109969300D02*
X135242300Y-109969300D01*
X136131300Y-109969300D02*
X136309100Y-109969300D01*
X133362700Y-109994700D02*
X133565900Y-109994700D01*
X134429500Y-109994700D02*
X135242300Y-109994700D01*
X136105900Y-109994700D02*
X136334500Y-109994700D01*
X133311900Y-110020100D02*
X133591300Y-110020100D01*
X134429500Y-110020100D02*
X135267700Y-110020100D01*
X136055100Y-110020100D02*
X136385300Y-110020100D01*
X133286500Y-110045500D02*
X133642100Y-110045500D01*
X134429500Y-110045500D02*
X135267700Y-110045500D01*
X136029700Y-110045500D02*
X136410700Y-110045500D01*
X133261100Y-110070900D02*
X133667500Y-110070900D01*
X134429500Y-110070900D02*
X135267700Y-110070900D01*
X135978900Y-110070900D02*
X136436100Y-110070900D01*
X133235700Y-110096300D02*
X133692900Y-110096300D01*
X134404100Y-110096300D02*
X135267700Y-110096300D01*
X135953500Y-110096300D02*
X136461500Y-110096300D01*
X133210300Y-110121700D02*
X133743700Y-110121700D01*
X134327900Y-110121700D02*
X135369300Y-110121700D01*
X135902700Y-110121700D02*
X136486900Y-110121700D01*
X133184900Y-110147100D02*
X133769100Y-110147100D01*
X134251700Y-110147100D02*
X135445500Y-110147100D01*
X135877300Y-110147100D02*
X136512300Y-110147100D01*
X133159500Y-110172500D02*
X133819900Y-110172500D01*
X134175500Y-110172500D02*
X135496300Y-110172500D01*
X135826500Y-110172500D02*
X136537700Y-110172500D01*
X133134100Y-110197900D02*
X133845300Y-110197900D01*
X134124700Y-110197900D02*
X135572500Y-110197900D01*
X135801100Y-110197900D02*
X136563100Y-110197900D01*
X133108700Y-110223300D02*
X133870700Y-110223300D01*
X134073900Y-110223300D02*
X135623300Y-110223300D01*
X135775700Y-110223300D02*
X136588500Y-110223300D01*
X133083300Y-110248700D02*
X133921500Y-110248700D01*
X134023100Y-110248700D02*
X135674100Y-110248700D01*
X135724900Y-110248700D02*
X136613900Y-110248700D01*
X133057900Y-110274100D02*
X133946900Y-110274100D01*
X133972300Y-110274100D02*
X136639300Y-110274100D01*
X133032500Y-110299500D02*
X136639300Y-110299500D01*
X133032500Y-110324900D02*
X136664700Y-110324900D01*
X133007100Y-110350300D02*
X136664700Y-110350300D01*
X133007100Y-110375700D02*
X136664700Y-110375700D01*
X133032500Y-110401100D02*
X136664700Y-110401100D01*
X133032500Y-110426500D02*
X136639300Y-110426500D01*
X133057900Y-110451900D02*
X136639300Y-110451900D01*
X133083300Y-110477300D02*
X136613900Y-110477300D01*
X133083300Y-110502700D02*
X136588500Y-110502700D01*
X133108700Y-110528100D02*
X136563100Y-110528100D01*
X133134100Y-110553500D02*
X136563100Y-110553500D01*
X133159500Y-110578900D02*
X136537700Y-110578900D01*
X133159500Y-110604300D02*
X136512300Y-110604300D01*
X133184900Y-110629700D02*
X136512300Y-110629700D01*
X133210300Y-110655100D02*
X136486900Y-110655100D01*
X133210300Y-110680500D02*
X136461500Y-110680500D01*
X133235700Y-110705900D02*
X136436100Y-110705900D01*
X133261100Y-110731300D02*
X136436100Y-110731300D01*
X133261100Y-110756700D02*
X136410700Y-110756700D01*
X133286500Y-110782100D02*
X136385300Y-110782100D01*
X133311900Y-110807500D02*
X136359900Y-110807500D01*
X133311900Y-110832900D02*
X136359900Y-110832900D01*
X133337300Y-110858300D02*
X136334500Y-110858300D01*
X133337300Y-110883700D02*
X136334500Y-110883700D01*
X133337300Y-110909100D02*
X136359900Y-110909100D01*
X133311900Y-110934500D02*
X136385300Y-110934500D01*
X133311900Y-110959900D02*
X136385300Y-110959900D01*
X133286500Y-110985300D02*
X136410700Y-110985300D01*
X133286500Y-111010700D02*
X136410700Y-111010700D01*
X133261100Y-111036100D02*
X136436100Y-111036100D01*
X133261100Y-111061500D02*
X136436100Y-111061500D01*
X133235700Y-111086900D02*
X136461500Y-111086900D01*
X133235700Y-111112300D02*
X136461500Y-111112300D01*
X133210300Y-111137700D02*
X136461500Y-111137700D01*
X133210300Y-111163100D02*
X134734300Y-111163100D01*
X134962900Y-111163100D02*
X136486900Y-111163100D01*
X133210300Y-111188500D02*
X134658100Y-111188500D01*
X135039100Y-111188500D02*
X136486900Y-111188500D01*
X133184900Y-111213900D02*
X134581900Y-111213900D01*
X135115300Y-111213900D02*
X136512300Y-111213900D01*
X133184900Y-111239300D02*
X134531100Y-111239300D01*
X135166100Y-111239300D02*
X136512300Y-111239300D01*
X133184900Y-111264700D02*
X134505700Y-111264700D01*
X135191500Y-111264700D02*
X136512300Y-111264700D01*
X133159500Y-111290100D02*
X134454900Y-111290100D01*
X135242300Y-111290100D02*
X136537700Y-111290100D01*
X133159500Y-111315500D02*
X134429500Y-111315500D01*
X135267700Y-111315500D02*
X136613900Y-111315500D01*
X133159500Y-111340900D02*
X134404100Y-111340900D01*
X135293100Y-111340900D02*
X136766300Y-111340900D01*
X133134100Y-111366300D02*
X134378700Y-111366300D01*
X135318500Y-111366300D02*
X136893300Y-111366300D01*
X132981700Y-111391700D02*
X134353300Y-111391700D01*
X135343900Y-111391700D02*
X137045700Y-111391700D01*
X132829300Y-111417100D02*
X134353300Y-111417100D01*
X135343900Y-111417100D02*
X137147300Y-111417100D01*
X132676900Y-111442500D02*
X134327900Y-111442500D01*
X135369300Y-111442500D02*
X137147300Y-111442500D01*
X132549900Y-111467900D02*
X134302500Y-111467900D01*
X135394700Y-111467900D02*
X137172700Y-111467900D01*
X132524500Y-111493300D02*
X134302500Y-111493300D01*
X135394700Y-111493300D02*
X137172700Y-111493300D01*
X132524500Y-111518700D02*
X134277100Y-111518700D01*
X135420100Y-111518700D02*
X137172700Y-111518700D01*
X132524500Y-111544100D02*
X134277100Y-111544100D01*
X135420100Y-111544100D02*
X137172700Y-111544100D01*
X132524500Y-111569500D02*
X134251700Y-111569500D01*
X135445500Y-111569500D02*
X137172700Y-111569500D01*
X132524500Y-111594900D02*
X134251700Y-111594900D01*
X135445500Y-111594900D02*
X137172700Y-111594900D01*
X132524500Y-111620300D02*
X134251700Y-111620300D01*
X135445500Y-111620300D02*
X137172700Y-111620300D01*
X132524500Y-111645700D02*
X134251700Y-111645700D01*
X135470900Y-111645700D02*
X137172700Y-111645700D01*
X132524500Y-111671100D02*
X134226300Y-111671100D01*
X135470900Y-111671100D02*
X137172700Y-111671100D01*
X132524500Y-111696500D02*
X134226300Y-111696500D01*
X135470900Y-111696500D02*
X137198100Y-111696500D01*
X132499100Y-111721900D02*
X134226300Y-111721900D01*
X135470900Y-111721900D02*
X137198100Y-111721900D01*
X132499100Y-111747300D02*
X134226300Y-111747300D01*
X135470900Y-111747300D02*
X137198100Y-111747300D01*
X132499100Y-111772700D02*
X134226300Y-111772700D01*
X135470900Y-111772700D02*
X137198100Y-111772700D01*
X132499100Y-111798100D02*
X134226300Y-111798100D01*
X135470900Y-111798100D02*
X137198100Y-111798100D01*
X132499100Y-111823500D02*
X134226300Y-111823500D01*
X135470900Y-111823500D02*
X137198100Y-111823500D01*
X132499100Y-111848900D02*
X134226300Y-111848900D01*
X135470900Y-111848900D02*
X137198100Y-111848900D01*
X132499100Y-111874300D02*
X134226300Y-111874300D01*
X135470900Y-111874300D02*
X137198100Y-111874300D01*
X132499100Y-111899700D02*
X134226300Y-111899700D01*
X135470900Y-111899700D02*
X137198100Y-111899700D01*
X132499100Y-111925100D02*
X134251700Y-111925100D01*
X135470900Y-111925100D02*
X137198100Y-111925100D01*
X132524500Y-111950500D02*
X134251700Y-111950500D01*
X135445500Y-111950500D02*
X137198100Y-111950500D01*
X132524500Y-111975900D02*
X134251700Y-111975900D01*
X135445500Y-111975900D02*
X137172700Y-111975900D01*
X132524500Y-112001300D02*
X134277100Y-112001300D01*
X135445500Y-112001300D02*
X137172700Y-112001300D01*
X132524500Y-112026700D02*
X134277100Y-112026700D01*
X135420100Y-112026700D02*
X137172700Y-112026700D01*
X132524500Y-112052100D02*
X134277100Y-112052100D01*
X135420100Y-112052100D02*
X137147300Y-112052100D01*
X132524500Y-112077500D02*
X134302500Y-112077500D01*
X135394700Y-112077500D02*
X136994900Y-112077500D01*
X132626100Y-112102900D02*
X134327900Y-112102900D01*
X135394700Y-112102900D02*
X136842500Y-112102900D01*
X132753100Y-112128300D02*
X134327900Y-112128300D01*
X135369300Y-112128300D02*
X136664700Y-112128300D01*
X132905500Y-112153700D02*
X134353300Y-112153700D01*
X135343900Y-112153700D02*
X136563100Y-112153700D01*
X133032500Y-112179100D02*
X134378700Y-112179100D01*
X135318500Y-112179100D02*
X136563100Y-112179100D01*
X133134100Y-112204500D02*
X134404100Y-112204500D01*
X135318500Y-112204500D02*
X136563100Y-112204500D01*
X133159500Y-112229900D02*
X134404100Y-112229900D01*
X135293100Y-112229900D02*
X136537700Y-112229900D01*
X133159500Y-112255300D02*
X134454900Y-112255300D01*
X135242300Y-112255300D02*
X136537700Y-112255300D01*
X133159500Y-112280700D02*
X134480300Y-112280700D01*
X135216900Y-112280700D02*
X136537700Y-112280700D01*
X133159500Y-112306100D02*
X134505700Y-112306100D01*
X135191500Y-112306100D02*
X136537700Y-112306100D01*
X133184900Y-112331500D02*
X134556500Y-112331500D01*
X135140700Y-112331500D02*
X136512300Y-112331500D01*
X133184900Y-112356900D02*
X134607300Y-112356900D01*
X135089900Y-112356900D02*
X136512300Y-112356900D01*
X133184900Y-112382300D02*
X134632700Y-112382300D01*
X135089900Y-112382300D02*
X136512300Y-112382300D01*
X133210300Y-112407700D02*
X134632700Y-112407700D01*
X135089900Y-112407700D02*
X136486900Y-112407700D01*
X133210300Y-112433100D02*
X134632700Y-112433100D01*
X135089900Y-112433100D02*
X136486900Y-112433100D01*
X133210300Y-112458500D02*
X134607300Y-112458500D01*
X135115300Y-112458500D02*
X136461500Y-112458500D01*
X133235700Y-112483900D02*
X134607300Y-112483900D01*
X135115300Y-112483900D02*
X136461500Y-112483900D01*
X133235700Y-112509300D02*
X134607300Y-112509300D01*
X135115300Y-112509300D02*
X136461500Y-112509300D01*
X133261100Y-112534700D02*
X134581900Y-112534700D01*
X135140700Y-112534700D02*
X136436100Y-112534700D01*
X133261100Y-112560100D02*
X134581900Y-112560100D01*
X135140700Y-112560100D02*
X136436100Y-112560100D01*
X133286500Y-112585500D02*
X134556500Y-112585500D01*
X135166100Y-112585500D02*
X136410700Y-112585500D01*
X133286500Y-112610900D02*
X134556500Y-112610900D01*
X135166100Y-112610900D02*
X136410700Y-112610900D01*
X133311900Y-112636300D02*
X134556500Y-112636300D01*
X135166100Y-112636300D02*
X136385300Y-112636300D01*
X133311900Y-112661700D02*
X134531100Y-112661700D01*
X135191500Y-112661700D02*
X136410700Y-112661700D01*
X133337300Y-112687100D02*
X134531100Y-112687100D01*
X135191500Y-112687100D02*
X136410700Y-112687100D01*
X133337300Y-112712500D02*
X134531100Y-112712500D01*
X135216900Y-112712500D02*
X136436100Y-112712500D01*
X133337300Y-112737900D02*
X134505700Y-112737900D01*
X135216900Y-112737900D02*
X136461500Y-112737900D01*
X133337300Y-112763300D02*
X134505700Y-112763300D01*
X135216900Y-112763300D02*
X136486900Y-112763300D01*
X133311900Y-112788700D02*
X134505700Y-112788700D01*
X135242300Y-112788700D02*
X136486900Y-112788700D01*
X133286500Y-112814100D02*
X134480300Y-112814100D01*
X135242300Y-112814100D02*
X136512300Y-112814100D01*
X133261100Y-112839500D02*
X134480300Y-112839500D01*
X135242300Y-112839500D02*
X136537700Y-112839500D01*
X133261100Y-112864900D02*
X134480300Y-112864900D01*
X135267700Y-112864900D02*
X136537700Y-112864900D01*
X133235700Y-112890300D02*
X134454900Y-112890300D01*
X135267700Y-112890300D02*
X136563100Y-112890300D01*
X133210300Y-112915700D02*
X134454900Y-112915700D01*
X135293100Y-112915700D02*
X136588500Y-112915700D01*
X133184900Y-112941100D02*
X134454900Y-112941100D01*
X135293100Y-112941100D02*
X136588500Y-112941100D01*
X133184900Y-112966500D02*
X134429500Y-112966500D01*
X135293100Y-112966500D02*
X136613900Y-112966500D01*
X133159500Y-112991900D02*
X134429500Y-112991900D01*
X135318500Y-112991900D02*
X136639300Y-112991900D01*
X133134100Y-113017300D02*
X134404100Y-113017300D01*
X135318500Y-113017300D02*
X136639300Y-113017300D01*
X133134100Y-113042700D02*
X134404100Y-113042700D01*
X135343900Y-113042700D02*
X136664700Y-113042700D01*
X133108700Y-113068100D02*
X134404100Y-113068100D01*
X135343900Y-113068100D02*
X136690100Y-113068100D01*
X133083300Y-113093500D02*
X134378700Y-113093500D01*
X135343900Y-113093500D02*
X136715500Y-113093500D01*
X133057900Y-113118900D02*
X134378700Y-113118900D01*
X135369300Y-113118900D02*
X136715500Y-113118900D01*
X133057900Y-113144300D02*
X134378700Y-113144300D01*
X135369300Y-113144300D02*
X136740900Y-113144300D01*
X133032500Y-113169700D02*
X134353300Y-113169700D01*
X135394700Y-113169700D02*
X136740900Y-113169700D01*
X133007100Y-113195100D02*
X134353300Y-113195100D01*
X135394700Y-113195100D02*
X136740900Y-113195100D01*
X133007100Y-113220500D02*
X134353300Y-113220500D01*
X135394700Y-113220500D02*
X136715500Y-113220500D01*
X133007100Y-113245900D02*
X134327900Y-113245900D01*
X135420100Y-113245900D02*
X136690100Y-113245900D01*
X133007100Y-113271300D02*
X134327900Y-113271300D01*
X135420100Y-113271300D02*
X136664700Y-113271300D01*
X133032500Y-113296700D02*
X134327900Y-113296700D01*
X135420100Y-113296700D02*
X136639300Y-113296700D01*
X133057900Y-113322100D02*
X134302500Y-113322100D01*
X135445500Y-113322100D02*
X136639300Y-113322100D01*
X133083300Y-113347500D02*
X134302500Y-113347500D01*
X135445500Y-113347500D02*
X135801100Y-113347500D01*
X135851900Y-113347500D02*
X136613900Y-113347500D01*
X133108700Y-113372900D02*
X134302500Y-113372900D01*
X135470900Y-113372900D02*
X135724900Y-113372900D01*
X135928100Y-113372900D02*
X136588500Y-113372900D01*
X133134100Y-113398300D02*
X133896100Y-113398300D01*
X134023100Y-113398300D02*
X134277100Y-113398300D01*
X135470900Y-113398300D02*
X135674100Y-113398300D01*
X135953500Y-113398300D02*
X136563100Y-113398300D01*
X133159500Y-113423700D02*
X133845300Y-113423700D01*
X134099300Y-113423700D02*
X134277100Y-113423700D01*
X135470900Y-113423700D02*
X135623300Y-113423700D01*
X135978900Y-113423700D02*
X136537700Y-113423700D01*
X133184900Y-113449100D02*
X133794500Y-113449100D01*
X134150100Y-113449100D02*
X134251700Y-113449100D01*
X135496300Y-113449100D02*
X135572500Y-113449100D01*
X136004300Y-113449100D02*
X136563100Y-113449100D01*
X133210300Y-113474500D02*
X133769100Y-113474500D01*
X134200900Y-113474500D02*
X134251700Y-113474500D01*
X135496300Y-113474500D02*
X135521700Y-113474500D01*
X136004300Y-113474500D02*
X136563100Y-113474500D01*
X133235700Y-113499900D02*
X133718300Y-113499900D01*
X136055100Y-113499900D02*
X136563100Y-113499900D01*
X133261100Y-113525300D02*
X133692900Y-113525300D01*
X136080500Y-113525300D02*
X136563100Y-113525300D01*
X133261100Y-113550700D02*
X133642100Y-113550700D01*
X136105900Y-113550700D02*
X136563100Y-113550700D01*
X133261100Y-113576100D02*
X133616700Y-113576100D01*
X136156700Y-113576100D02*
X136563100Y-113576100D01*
X133261100Y-113601500D02*
X133591300Y-113601500D01*
X136207500Y-113601500D02*
X136537700Y-113601500D01*
X133286500Y-113626900D02*
X133565900Y-113626900D01*
X136258300Y-113626900D02*
X136537700Y-113626900D01*
X133286500Y-113652300D02*
X133540500Y-113652300D01*
X136283700Y-113652300D02*
X136512300Y-113652300D01*
X133311900Y-113677700D02*
X133540500Y-113677700D01*
X136309100Y-113677700D02*
X136512300Y-113677700D01*
X133337300Y-113703100D02*
X133515100Y-113703100D01*
X136334500Y-113703100D02*
X136486900Y-113703100D01*
X133362700Y-113728500D02*
X133515100Y-113728500D01*
X136359900Y-113728500D02*
X136461500Y-113728500D01*
X133388100Y-113753900D02*
X133489700Y-113753900D01*
X136385300Y-113753900D02*
X136436100Y-113753900D01*
X133413500Y-113779300D02*
X133489700Y-113779300D01*
X149494240Y-111704120D02*
X151145240Y-111704120D01*
X149468840Y-111729520D02*
X151145240Y-111729520D01*
X149443440Y-111754920D02*
X151145240Y-111754920D01*
X149418040Y-111780320D02*
X151145240Y-111780320D01*
X149392640Y-111805720D02*
X151145240Y-111805720D01*
X149367240Y-111831120D02*
X151145240Y-111831120D01*
X149341840Y-111856520D02*
X151145240Y-111856520D01*
X152872440Y-111856520D02*
X152897840Y-111856520D01*
X149316440Y-111881920D02*
X149621240Y-111881920D01*
X152847040Y-111881920D02*
X152923240Y-111881920D01*
X149291040Y-111907320D02*
X149595840Y-111907320D01*
X152847040Y-111907320D02*
X152923240Y-111907320D01*
X149265640Y-111932720D02*
X149570440Y-111932720D01*
X152821640Y-111932720D02*
X152948640Y-111932720D01*
X149240240Y-111958120D02*
X149545040Y-111958120D01*
X149621240Y-111958120D02*
X151297640Y-111958120D01*
X152821640Y-111958120D02*
X152948640Y-111958120D01*
X149214840Y-111983520D02*
X149519640Y-111983520D01*
X149595840Y-111983520D02*
X151297640Y-111983520D01*
X152796240Y-111983520D02*
X152974040Y-111983520D01*
X149189440Y-112008920D02*
X149494240Y-112008920D01*
X149570440Y-112008920D02*
X151246840Y-112008920D01*
X152796240Y-112008920D02*
X152974040Y-112008920D01*
X149164040Y-112034320D02*
X149468840Y-112034320D01*
X149545040Y-112034320D02*
X151221440Y-112034320D01*
X152770840Y-112034320D02*
X152999440Y-112034320D01*
X149138640Y-112059720D02*
X149443440Y-112059720D01*
X149519640Y-112059720D02*
X151196040Y-112059720D01*
X152770840Y-112059720D02*
X152999440Y-112059720D01*
X149113240Y-112085120D02*
X149418040Y-112085120D01*
X149494240Y-112085120D02*
X151170640Y-112085120D01*
X152745440Y-112085120D02*
X153024840Y-112085120D01*
X149087840Y-112110520D02*
X149392640Y-112110520D01*
X149468840Y-112110520D02*
X151145240Y-112110520D01*
X152745440Y-112110520D02*
X153024840Y-112110520D01*
X149062440Y-112135920D02*
X149367240Y-112135920D01*
X149443440Y-112135920D02*
X151119840Y-112135920D01*
X152720040Y-112135920D02*
X153050240Y-112135920D01*
X149037040Y-112161320D02*
X149341840Y-112161320D01*
X149418040Y-112161320D02*
X151094440Y-112161320D01*
X152720040Y-112161320D02*
X153050240Y-112161320D01*
X149011640Y-112186720D02*
X149316440Y-112186720D01*
X149392640Y-112186720D02*
X151069040Y-112186720D01*
X151221440Y-112186720D02*
X151297640Y-112186720D01*
X152694640Y-112186720D02*
X153075640Y-112186720D01*
X148986240Y-112212120D02*
X149291040Y-112212120D01*
X149367240Y-112212120D02*
X151043640Y-112212120D01*
X151221440Y-112212120D02*
X151297640Y-112212120D01*
X152694640Y-112212120D02*
X153075640Y-112212120D01*
X148986240Y-112237520D02*
X149267800Y-112237520D01*
X149341840Y-112237520D02*
X151018240Y-112237520D01*
X151170640Y-112237520D02*
X151297640Y-112237520D01*
X152669240Y-112237520D02*
X153101040Y-112237520D01*
X148986240Y-112262920D02*
X149237800Y-112262920D01*
X149316440Y-112262920D02*
X150992840Y-112262920D01*
X151145240Y-112262920D02*
X151297640Y-112262920D01*
X152669240Y-112262920D02*
X153101040Y-112262920D01*
X155260040Y-112262920D02*
X155514040Y-112262920D01*
X155691840Y-112262920D02*
X155945840Y-112262920D01*
X156961840Y-112262920D02*
X157241240Y-112262920D01*
X158257240Y-112262920D02*
X158714440Y-112262920D01*
X159273240Y-112262920D02*
X159527240Y-112262920D01*
X160060640Y-112262920D02*
X160416240Y-112262920D01*
X148986240Y-112288320D02*
X149214840Y-112288320D01*
X149291040Y-112288320D02*
X150967440Y-112288320D01*
X151119840Y-112288320D02*
X151297640Y-112288320D01*
X152643840Y-112288320D02*
X153126440Y-112288320D01*
X154193240Y-112288320D02*
X154625040Y-112288320D01*
X155260040Y-112288320D02*
X155514040Y-112288320D01*
X155691840Y-112288320D02*
X155945840Y-112288320D01*
X156936440Y-112288320D02*
X157241240Y-112288320D01*
X158181040Y-112288320D02*
X158816040Y-112288320D01*
X159273240Y-112288320D02*
X159527240Y-112288320D01*
X160035240Y-112288320D02*
X160390840Y-112288320D01*
X148986240Y-112313720D02*
X149197800Y-112313720D01*
X149265640Y-112313720D02*
X150942040Y-112313720D01*
X151094440Y-112313720D02*
X151297640Y-112313720D01*
X152643840Y-112313720D02*
X153126440Y-112313720D01*
X154091640Y-112313720D02*
X154701240Y-112313720D01*
X155260040Y-112313720D02*
X155514040Y-112313720D01*
X155691840Y-112313720D02*
X155945840Y-112313720D01*
X156936440Y-112313720D02*
X157266640Y-112313720D01*
X158130240Y-112313720D02*
X158866840Y-112313720D01*
X159273240Y-112313720D02*
X159527240Y-112313720D01*
X160009840Y-112313720D02*
X160365440Y-112313720D01*
X148986240Y-112339120D02*
X149177800Y-112339120D01*
X149240240Y-112339120D02*
X150916640Y-112339120D01*
X151069040Y-112339120D02*
X151297640Y-112339120D01*
X152618440Y-112339120D02*
X153151840Y-112339120D01*
X154040840Y-112339120D02*
X154777440Y-112339120D01*
X155260040Y-112339120D02*
X155514040Y-112339120D01*
X155691840Y-112339120D02*
X155945840Y-112339120D01*
X156936440Y-112339120D02*
X157266640Y-112339120D01*
X158079440Y-112339120D02*
X158917640Y-112339120D01*
X159273240Y-112339120D02*
X159527240Y-112339120D01*
X159984440Y-112339120D02*
X160340040Y-112339120D01*
X148986240Y-112364520D02*
X149164040Y-112364520D01*
X149240240Y-112364520D02*
X150891240Y-112364520D01*
X151043640Y-112364520D02*
X151246840Y-112364520D01*
X152618440Y-112364520D02*
X153151840Y-112364520D01*
X153990040Y-112364520D02*
X154828240Y-112364520D01*
X155260040Y-112364520D02*
X155514040Y-112364520D01*
X155691840Y-112364520D02*
X155945840Y-112364520D01*
X156911040Y-112364520D02*
X157266640Y-112364520D01*
X158028640Y-112364520D02*
X158917640Y-112364520D01*
X159273240Y-112364520D02*
X159527240Y-112364520D01*
X159959040Y-112364520D02*
X160314640Y-112364520D01*
X148986240Y-112389920D02*
X149164040Y-112389920D01*
X149240240Y-112389920D02*
X150865840Y-112389920D01*
X151018240Y-112389920D02*
X151221440Y-112389920D01*
X152593040Y-112389920D02*
X153177240Y-112389920D01*
X153964640Y-112389920D02*
X154879040Y-112389920D01*
X155260040Y-112389920D02*
X155514040Y-112389920D01*
X155691840Y-112389920D02*
X155945840Y-112389920D01*
X156911040Y-112389920D02*
X157292040Y-112389920D01*
X158003240Y-112389920D02*
X158917640Y-112389920D01*
X159273240Y-112389920D02*
X159527240Y-112389920D01*
X159933640Y-112389920D02*
X160289240Y-112389920D01*
X148986240Y-112415320D02*
X149164040Y-112415320D01*
X149240240Y-112415320D02*
X150840440Y-112415320D01*
X150992840Y-112415320D02*
X151196040Y-112415320D01*
X152593040Y-112415320D02*
X153177240Y-112415320D01*
X153913840Y-112415320D02*
X154904440Y-112415320D01*
X155260040Y-112415320D02*
X155514040Y-112415320D01*
X155691840Y-112415320D02*
X155945840Y-112415320D01*
X156911040Y-112415320D02*
X157292040Y-112415320D01*
X157952440Y-112415320D02*
X158892240Y-112415320D01*
X159273240Y-112415320D02*
X159527240Y-112415320D01*
X159908240Y-112415320D02*
X160263840Y-112415320D01*
X148986240Y-112440720D02*
X149164040Y-112440720D01*
X149240240Y-112440720D02*
X150815040Y-112440720D01*
X150967440Y-112440720D02*
X151170640Y-112440720D01*
X152567640Y-112440720D02*
X153202640Y-112440720D01*
X153888440Y-112440720D02*
X154904440Y-112440720D01*
X155260040Y-112440720D02*
X155514040Y-112440720D01*
X155691840Y-112440720D02*
X155945840Y-112440720D01*
X156885640Y-112440720D02*
X157317440Y-112440720D01*
X157927040Y-112440720D02*
X158892240Y-112440720D01*
X159273240Y-112440720D02*
X159527240Y-112440720D01*
X159908240Y-112440720D02*
X160238440Y-112440720D01*
X148986240Y-112466120D02*
X149164040Y-112466120D01*
X149240240Y-112466120D02*
X150789640Y-112466120D01*
X150942040Y-112466120D02*
X151145240Y-112466120D01*
X152567640Y-112466120D02*
X153202640Y-112466120D01*
X153863040Y-112466120D02*
X154904440Y-112466120D01*
X155260040Y-112466120D02*
X155514040Y-112466120D01*
X155691840Y-112466120D02*
X155945840Y-112466120D01*
X156885640Y-112466120D02*
X157317440Y-112466120D01*
X157901640Y-112466120D02*
X158866840Y-112466120D01*
X159273240Y-112466120D02*
X159527240Y-112466120D01*
X159882840Y-112466120D02*
X160213040Y-112466120D01*
X148986240Y-112491520D02*
X149164040Y-112491520D01*
X149240240Y-112491520D02*
X150764240Y-112491520D01*
X150916640Y-112491520D02*
X151119840Y-112491520D01*
X151246840Y-112491520D02*
X151297640Y-112491520D01*
X152542240Y-112491520D02*
X153228040Y-112491520D01*
X153837640Y-112491520D02*
X154879040Y-112491520D01*
X155260040Y-112491520D02*
X155514040Y-112491520D01*
X155691840Y-112491520D02*
X155945840Y-112491520D01*
X156885640Y-112491520D02*
X157317440Y-112491520D01*
X157901640Y-112491520D02*
X158866840Y-112491520D01*
X159273240Y-112491520D02*
X159527240Y-112491520D01*
X159857440Y-112491520D02*
X160187640Y-112491520D01*
X148986240Y-112516920D02*
X149164040Y-112516920D01*
X149240240Y-112516920D02*
X150738840Y-112516920D01*
X150891240Y-112516920D02*
X151094440Y-112516920D01*
X151221440Y-112516920D02*
X151297640Y-112516920D01*
X152542240Y-112516920D02*
X153228040Y-112516920D01*
X153812240Y-112516920D02*
X154853640Y-112516920D01*
X155260040Y-112516920D02*
X155514040Y-112516920D01*
X155691840Y-112516920D02*
X155945840Y-112516920D01*
X156860240Y-112516920D02*
X157342840Y-112516920D01*
X157876240Y-112516920D02*
X158333440Y-112516920D01*
X158689040Y-112516920D02*
X158866840Y-112516920D01*
X159273240Y-112516920D02*
X159527240Y-112516920D01*
X159832040Y-112516920D02*
X160162240Y-112516920D01*
X148986240Y-112542320D02*
X149164040Y-112542320D01*
X149240240Y-112542320D02*
X150713440Y-112542320D01*
X150865840Y-112542320D02*
X151069040Y-112542320D01*
X151196040Y-112542320D02*
X151297640Y-112542320D01*
X152516840Y-112542320D02*
X152872440Y-112542320D01*
X152897840Y-112542320D02*
X153253440Y-112542320D01*
X153812240Y-112542320D02*
X154269440Y-112542320D01*
X154574240Y-112542320D02*
X154853640Y-112542320D01*
X155260040Y-112542320D02*
X155514040Y-112542320D01*
X155691840Y-112542320D02*
X155945840Y-112542320D01*
X156860240Y-112542320D02*
X157342840Y-112542320D01*
X157850840Y-112542320D02*
X158282640Y-112542320D01*
X158765240Y-112542320D02*
X158841440Y-112542320D01*
X159273240Y-112542320D02*
X159527240Y-112542320D01*
X159806640Y-112542320D02*
X160136840Y-112542320D01*
X148986240Y-112567720D02*
X149164040Y-112567720D01*
X149240240Y-112567720D02*
X150154640Y-112567720D01*
X150357840Y-112567720D02*
X150688040Y-112567720D01*
X150840440Y-112567720D02*
X151043640Y-112567720D01*
X151170640Y-112567720D02*
X151297640Y-112567720D01*
X152516840Y-112567720D02*
X152872440Y-112567720D01*
X152897840Y-112567720D02*
X153253440Y-112567720D01*
X153786840Y-112567720D02*
X154193240Y-112567720D01*
X154675840Y-112567720D02*
X154828240Y-112567720D01*
X155260040Y-112567720D02*
X155514040Y-112567720D01*
X155691840Y-112567720D02*
X155945840Y-112567720D01*
X156834840Y-112567720D02*
X157342840Y-112567720D01*
X157825440Y-112567720D02*
X158231840Y-112567720D01*
X159273240Y-112567720D02*
X159527240Y-112567720D01*
X159781240Y-112567720D02*
X160136840Y-112567720D01*
X148986240Y-112593120D02*
X149164040Y-112593120D01*
X149240240Y-112593120D02*
X150078440Y-112593120D01*
X150434040Y-112593120D02*
X150662640Y-112593120D01*
X150815040Y-112593120D02*
X151018240Y-112593120D01*
X151145240Y-112593120D02*
X151297640Y-112593120D01*
X152491440Y-112593120D02*
X152847040Y-112593120D01*
X152923240Y-112593120D02*
X153278840Y-112593120D01*
X153761440Y-112593120D02*
X154167840Y-112593120D01*
X154726640Y-112593120D02*
X154828240Y-112593120D01*
X155260040Y-112593120D02*
X155514040Y-112593120D01*
X155691840Y-112593120D02*
X155945840Y-112593120D01*
X156834840Y-112593120D02*
X157368240Y-112593120D01*
X157825440Y-112593120D02*
X158181040Y-112593120D01*
X159273240Y-112593120D02*
X159527240Y-112593120D01*
X159755840Y-112593120D02*
X160111440Y-112593120D01*
X148986240Y-112618520D02*
X149164040Y-112618520D01*
X149240240Y-112618520D02*
X150053040Y-112618520D01*
X150484840Y-112618520D02*
X150637240Y-112618520D01*
X150789640Y-112618520D02*
X150992840Y-112618520D01*
X151119840Y-112618520D02*
X151297640Y-112618520D01*
X152491440Y-112618520D02*
X152847040Y-112618520D01*
X152923240Y-112618520D02*
X153278840Y-112618520D01*
X153761440Y-112618520D02*
X154117040Y-112618520D01*
X154777440Y-112618520D02*
X154802840Y-112618520D01*
X155260040Y-112618520D02*
X155514040Y-112618520D01*
X155691840Y-112618520D02*
X155945840Y-112618520D01*
X156834840Y-112618520D02*
X157088840Y-112618520D01*
X157114240Y-112618520D02*
X157368240Y-112618520D01*
X157800040Y-112618520D02*
X158155640Y-112618520D01*
X159273240Y-112618520D02*
X159527240Y-112618520D01*
X159730440Y-112618520D02*
X160086040Y-112618520D01*
X148986240Y-112643920D02*
X149164040Y-112643920D01*
X149240240Y-112643920D02*
X150002240Y-112643920D01*
X150510240Y-112643920D02*
X150611840Y-112643920D01*
X150764240Y-112643920D02*
X150967440Y-112643920D01*
X151094440Y-112643920D02*
X151297640Y-112643920D01*
X152466040Y-112643920D02*
X152821640Y-112643920D01*
X152948640Y-112643920D02*
X153304240Y-112643920D01*
X153736040Y-112643920D02*
X154091640Y-112643920D01*
X155260040Y-112643920D02*
X155514040Y-112643920D01*
X155691840Y-112643920D02*
X155945840Y-112643920D01*
X156809440Y-112643920D02*
X157063440Y-112643920D01*
X157114240Y-112643920D02*
X157393640Y-112643920D01*
X157800040Y-112643920D02*
X158130240Y-112643920D01*
X159273240Y-112643920D02*
X159527240Y-112643920D01*
X159730440Y-112643920D02*
X160060640Y-112643920D01*
X148986240Y-112669320D02*
X149164040Y-112669320D01*
X149240240Y-112669320D02*
X149976840Y-112669320D01*
X150535640Y-112669320D02*
X150586440Y-112669320D01*
X150738840Y-112669320D02*
X150942040Y-112669320D01*
X151069040Y-112669320D02*
X151297640Y-112669320D01*
X152466040Y-112669320D02*
X152821640Y-112669320D01*
X152948640Y-112669320D02*
X153304240Y-112669320D01*
X153736040Y-112669320D02*
X154066240Y-112669320D01*
X155260040Y-112669320D02*
X155514040Y-112669320D01*
X155691840Y-112669320D02*
X155945840Y-112669320D01*
X156809440Y-112669320D02*
X157063440Y-112669320D01*
X157114240Y-112669320D02*
X157393640Y-112669320D01*
X157774640Y-112669320D02*
X158104840Y-112669320D01*
X159273240Y-112669320D02*
X159527240Y-112669320D01*
X159705040Y-112669320D02*
X160035240Y-112669320D01*
X148986240Y-112694720D02*
X149164040Y-112694720D01*
X149240240Y-112694720D02*
X149951440Y-112694720D01*
X150180040Y-112694720D02*
X150357840Y-112694720D01*
X150561040Y-112694720D02*
X150586440Y-112694720D01*
X150713440Y-112694720D02*
X150916640Y-112694720D01*
X151043640Y-112694720D02*
X151297640Y-112694720D01*
X152440640Y-112694720D02*
X152821640Y-112694720D01*
X152974040Y-112694720D02*
X153329640Y-112694720D01*
X153710640Y-112694720D02*
X154040840Y-112694720D01*
X155260040Y-112694720D02*
X155514040Y-112694720D01*
X155691840Y-112694720D02*
X155945840Y-112694720D01*
X156809440Y-112694720D02*
X157063440Y-112694720D01*
X157139640Y-112694720D02*
X157393640Y-112694720D01*
X157774640Y-112694720D02*
X158104840Y-112694720D01*
X159273240Y-112694720D02*
X159527240Y-112694720D01*
X159679640Y-112694720D02*
X160009840Y-112694720D01*
X148986240Y-112720120D02*
X149164040Y-112720120D01*
X149240240Y-112720120D02*
X149926040Y-112720120D01*
X150129240Y-112720120D02*
X150408640Y-112720120D01*
X150688040Y-112720120D02*
X150891240Y-112720120D01*
X151018240Y-112720120D02*
X151297640Y-112720120D01*
X152440640Y-112720120D02*
X152796240Y-112720120D01*
X152974040Y-112720120D02*
X153329640Y-112720120D01*
X153710640Y-112720120D02*
X154015440Y-112720120D01*
X155260040Y-112720120D02*
X155514040Y-112720120D01*
X155691840Y-112720120D02*
X155945840Y-112720120D01*
X156784040Y-112720120D02*
X157038040Y-112720120D01*
X157139640Y-112720120D02*
X157419040Y-112720120D01*
X157774640Y-112720120D02*
X158079440Y-112720120D01*
X159273240Y-112720120D02*
X159527240Y-112720120D01*
X159654240Y-112720120D02*
X159984440Y-112720120D01*
X148986240Y-112745520D02*
X149164040Y-112745520D01*
X149240240Y-112745520D02*
X149900640Y-112745520D01*
X150103840Y-112745520D02*
X150434040Y-112745520D01*
X150662640Y-112745520D02*
X150865840Y-112745520D01*
X150992840Y-112745520D02*
X151297640Y-112745520D01*
X152415240Y-112745520D02*
X152796240Y-112745520D01*
X152999440Y-112745520D02*
X153355040Y-112745520D01*
X153710640Y-112745520D02*
X154015440Y-112745520D01*
X155260040Y-112745520D02*
X155514040Y-112745520D01*
X155691840Y-112745520D02*
X155945840Y-112745520D01*
X156784040Y-112745520D02*
X157038040Y-112745520D01*
X157139640Y-112745520D02*
X157419040Y-112745520D01*
X157774640Y-112745520D02*
X158079440Y-112745520D01*
X159273240Y-112745520D02*
X159527240Y-112745520D01*
X159628840Y-112745520D02*
X159959040Y-112745520D01*
X148986240Y-112770920D02*
X149164040Y-112770920D01*
X149240240Y-112770920D02*
X149875240Y-112770920D01*
X150078440Y-112770920D02*
X150459440Y-112770920D01*
X150662640Y-112770920D02*
X150840440Y-112770920D01*
X150967440Y-112770920D02*
X151297640Y-112770920D01*
X152415240Y-112770920D02*
X152770840Y-112770920D01*
X152999440Y-112770920D02*
X153380440Y-112770920D01*
X153710640Y-112770920D02*
X153990040Y-112770920D01*
X155260040Y-112770920D02*
X155514040Y-112770920D01*
X155691840Y-112770920D02*
X155945840Y-112770920D01*
X156758640Y-112770920D02*
X157038040Y-112770920D01*
X157165040Y-112770920D02*
X157419040Y-112770920D01*
X157749240Y-112770920D02*
X158054040Y-112770920D01*
X159273240Y-112770920D02*
X159527240Y-112770920D01*
X159603440Y-112770920D02*
X159933640Y-112770920D01*
X148986240Y-112796320D02*
X149164040Y-112796320D01*
X149240240Y-112796320D02*
X149849840Y-112796320D01*
X150053040Y-112796320D02*
X150484840Y-112796320D01*
X150662640Y-112796320D02*
X150815040Y-112796320D01*
X150942040Y-112796320D02*
X151297640Y-112796320D01*
X152389840Y-112796320D02*
X152770840Y-112796320D01*
X153024840Y-112796320D02*
X153380440Y-112796320D01*
X153685240Y-112796320D02*
X153990040Y-112796320D01*
X155260040Y-112796320D02*
X155514040Y-112796320D01*
X155691840Y-112796320D02*
X155945840Y-112796320D01*
X156758640Y-112796320D02*
X157012640Y-112796320D01*
X157165040Y-112796320D02*
X157444440Y-112796320D01*
X157749240Y-112796320D02*
X158054040Y-112796320D01*
X159273240Y-112796320D02*
X159527240Y-112796320D01*
X159578040Y-112796320D02*
X159908240Y-112796320D01*
X148986240Y-112821720D02*
X149164040Y-112821720D01*
X149240240Y-112821720D02*
X149824440Y-112821720D01*
X150053040Y-112821720D02*
X150484840Y-112821720D01*
X150662640Y-112821720D02*
X150764240Y-112821720D01*
X150916640Y-112821720D02*
X151297640Y-112821720D01*
X152389840Y-112821720D02*
X152745440Y-112821720D01*
X153024840Y-112821720D02*
X153405840Y-112821720D01*
X153685240Y-112821720D02*
X153990040Y-112821720D01*
X155260040Y-112821720D02*
X155514040Y-112821720D01*
X155691840Y-112821720D02*
X155945840Y-112821720D01*
X156758640Y-112821720D02*
X157012640Y-112821720D01*
X157165040Y-112821720D02*
X157444440Y-112821720D01*
X157749240Y-112821720D02*
X158028640Y-112821720D01*
X159273240Y-112821720D02*
X159527240Y-112821720D01*
X159552640Y-112821720D02*
X159882840Y-112821720D01*
X148986240Y-112847120D02*
X149164040Y-112847120D01*
X149240240Y-112847120D02*
X149799040Y-112847120D01*
X150027640Y-112847120D02*
X150484840Y-112847120D01*
X150662640Y-112847120D02*
X150738840Y-112847120D01*
X150891240Y-112847120D02*
X151297640Y-112847120D01*
X152364440Y-112847120D02*
X152745440Y-112847120D01*
X153050240Y-112847120D02*
X153405840Y-112847120D01*
X153685240Y-112847120D02*
X153964640Y-112847120D01*
X155260040Y-112847120D02*
X155514040Y-112847120D01*
X155691840Y-112847120D02*
X155945840Y-112847120D01*
X156733240Y-112847120D02*
X157012640Y-112847120D01*
X157190440Y-112847120D02*
X157444440Y-112847120D01*
X157749240Y-112847120D02*
X158028640Y-112847120D01*
X159273240Y-112847120D02*
X159527240Y-112847120D01*
X159552640Y-112847120D02*
X159857440Y-112847120D01*
X148986240Y-112872520D02*
X149164040Y-112872520D01*
X149240240Y-112872520D02*
X149773640Y-112872520D01*
X150027640Y-112872520D02*
X150510240Y-112872520D01*
X150662640Y-112872520D02*
X150713440Y-112872520D01*
X150865840Y-112872520D02*
X151297640Y-112872520D01*
X152364440Y-112872520D02*
X152720040Y-112872520D01*
X153050240Y-112872520D02*
X153431240Y-112872520D01*
X153685240Y-112872520D02*
X153964640Y-112872520D01*
X155260040Y-112872520D02*
X155514040Y-112872520D01*
X155691840Y-112872520D02*
X155945840Y-112872520D01*
X156733240Y-112872520D02*
X156987240Y-112872520D01*
X157190440Y-112872520D02*
X157469840Y-112872520D01*
X157749240Y-112872520D02*
X158028640Y-112872520D01*
X159273240Y-112872520D02*
X159832040Y-112872520D01*
X148986240Y-112897920D02*
X149164040Y-112897920D01*
X149240240Y-112897920D02*
X149748240Y-112897920D01*
X150027640Y-112897920D02*
X150510240Y-112897920D01*
X150662640Y-112897920D02*
X150688040Y-112897920D01*
X150840440Y-112897920D02*
X151297640Y-112897920D01*
X152339040Y-112897920D02*
X152720040Y-112897920D01*
X153075640Y-112897920D02*
X153431240Y-112897920D01*
X153685240Y-112897920D02*
X153964640Y-112897920D01*
X154320240Y-112897920D02*
X154955240Y-112897920D01*
X155260040Y-112897920D02*
X155514040Y-112897920D01*
X155691840Y-112897920D02*
X155945840Y-112897920D01*
X156733240Y-112897920D02*
X156987240Y-112897920D01*
X157190440Y-112897920D02*
X157469840Y-112897920D01*
X157749240Y-112897920D02*
X158028640Y-112897920D01*
X159273240Y-112897920D02*
X159806640Y-112897920D01*
X148986240Y-112923320D02*
X149164040Y-112923320D01*
X149240240Y-112923320D02*
X149722840Y-112923320D01*
X150027640Y-112923320D02*
X150510240Y-112923320D01*
X150815040Y-112923320D02*
X151297640Y-112923320D01*
X152339040Y-112923320D02*
X152694640Y-112923320D01*
X153075640Y-112923320D02*
X153456640Y-112923320D01*
X153685240Y-112923320D02*
X153964640Y-112923320D01*
X154320240Y-112923320D02*
X154955240Y-112923320D01*
X155260040Y-112923320D02*
X155514040Y-112923320D01*
X155691840Y-112923320D02*
X155945840Y-112923320D01*
X156707840Y-112923320D02*
X156987240Y-112923320D01*
X157215840Y-112923320D02*
X157495240Y-112923320D01*
X157749240Y-112923320D02*
X158028640Y-112923320D01*
X159273240Y-112923320D02*
X159806640Y-112923320D01*
X148986240Y-112948720D02*
X149164040Y-112948720D01*
X149240240Y-112948720D02*
X149697440Y-112948720D01*
X150027640Y-112948720D02*
X150510240Y-112948720D01*
X150789640Y-112948720D02*
X151297640Y-112948720D01*
X152313640Y-112948720D02*
X152694640Y-112948720D01*
X153101040Y-112948720D02*
X153456640Y-112948720D01*
X153685240Y-112948720D02*
X153964640Y-112948720D01*
X154320240Y-112948720D02*
X154955240Y-112948720D01*
X155260040Y-112948720D02*
X155514040Y-112948720D01*
X155691840Y-112948720D02*
X155945840Y-112948720D01*
X156707840Y-112948720D02*
X156961840Y-112948720D01*
X157215840Y-112948720D02*
X157495240Y-112948720D01*
X157749240Y-112948720D02*
X158028640Y-112948720D01*
X159273240Y-112948720D02*
X159832040Y-112948720D01*
X148986240Y-112974120D02*
X149164040Y-112974120D01*
X149240240Y-112974120D02*
X149672040Y-112974120D01*
X149849840Y-112974120D02*
X149875240Y-112974120D01*
X150027640Y-112974120D02*
X150510240Y-112974120D01*
X150764240Y-112974120D02*
X151297640Y-112974120D01*
X152313640Y-112974120D02*
X152669240Y-112974120D01*
X153101040Y-112974120D02*
X153482040Y-112974120D01*
X153685240Y-112974120D02*
X153964640Y-112974120D01*
X154320240Y-112974120D02*
X154955240Y-112974120D01*
X155260040Y-112974120D02*
X155514040Y-112974120D01*
X155691840Y-112974120D02*
X155945840Y-112974120D01*
X156707840Y-112974120D02*
X156961840Y-112974120D01*
X157215840Y-112974120D02*
X157495240Y-112974120D01*
X157749240Y-112974120D02*
X158028640Y-112974120D01*
X159273240Y-112974120D02*
X159857440Y-112974120D01*
X148986240Y-112999520D02*
X149164040Y-112999520D01*
X149240240Y-112999520D02*
X149646640Y-112999520D01*
X149824440Y-112999520D02*
X149875240Y-112999520D01*
X150027640Y-112999520D02*
X150510240Y-112999520D01*
X150738840Y-112999520D02*
X151297640Y-112999520D01*
X152288240Y-112999520D02*
X152669240Y-112999520D01*
X153126440Y-112999520D02*
X153482040Y-112999520D01*
X153685240Y-112999520D02*
X153964640Y-112999520D01*
X154320240Y-112999520D02*
X154955240Y-112999520D01*
X155260040Y-112999520D02*
X155514040Y-112999520D01*
X155691840Y-112999520D02*
X155945840Y-112999520D01*
X156682440Y-112999520D02*
X156961840Y-112999520D01*
X157241240Y-112999520D02*
X157520640Y-112999520D01*
X157749240Y-112999520D02*
X158028640Y-112999520D01*
X159273240Y-112999520D02*
X159882840Y-112999520D01*
X148986240Y-113024920D02*
X149164040Y-113024920D01*
X149240240Y-113024920D02*
X149621240Y-113024920D01*
X149799040Y-113024920D02*
X149875240Y-113024920D01*
X150027640Y-113024920D02*
X150510240Y-113024920D01*
X150713440Y-113024920D02*
X151297640Y-113024920D01*
X152288240Y-113024920D02*
X152669240Y-113024920D01*
X153126440Y-113024920D02*
X153507440Y-113024920D01*
X153685240Y-113024920D02*
X153964640Y-113024920D01*
X154320240Y-113024920D02*
X154955240Y-113024920D01*
X155260040Y-113024920D02*
X155514040Y-113024920D01*
X155691840Y-113024920D02*
X155945840Y-113024920D01*
X156682440Y-113024920D02*
X156936440Y-113024920D01*
X157241240Y-113024920D02*
X157520640Y-113024920D01*
X157749240Y-113024920D02*
X158028640Y-113024920D01*
X159273240Y-113024920D02*
X159527240Y-113024920D01*
X159552640Y-113024920D02*
X159882840Y-113024920D01*
X148986240Y-113050320D02*
X149164040Y-113050320D01*
X149240240Y-113050320D02*
X149595840Y-113050320D01*
X149773640Y-113050320D02*
X149875240Y-113050320D01*
X150027640Y-113050320D02*
X150484840Y-113050320D01*
X150688040Y-113050320D02*
X151297640Y-113050320D01*
X152262840Y-113050320D02*
X152643840Y-113050320D01*
X153151840Y-113050320D02*
X153507440Y-113050320D01*
X153685240Y-113050320D02*
X153964640Y-113050320D01*
X154320240Y-113050320D02*
X154955240Y-113050320D01*
X155260040Y-113050320D02*
X155514040Y-113050320D01*
X155691840Y-113050320D02*
X155945840Y-113050320D01*
X156657040Y-113050320D02*
X156936440Y-113050320D01*
X157241240Y-113050320D02*
X157520640Y-113050320D01*
X157749240Y-113050320D02*
X158028640Y-113050320D01*
X159273240Y-113050320D02*
X159527240Y-113050320D01*
X159578040Y-113050320D02*
X159908240Y-113050320D01*
X148986240Y-113075720D02*
X149164040Y-113075720D01*
X149240240Y-113075720D02*
X149570440Y-113075720D01*
X149748240Y-113075720D02*
X149875240Y-113075720D01*
X150053040Y-113075720D02*
X150484840Y-113075720D01*
X150662640Y-113075720D02*
X151297640Y-113075720D01*
X152262840Y-113075720D02*
X152643840Y-113075720D01*
X153151840Y-113075720D02*
X153532840Y-113075720D01*
X153685240Y-113075720D02*
X153964640Y-113075720D01*
X154320240Y-113075720D02*
X154955240Y-113075720D01*
X155260040Y-113075720D02*
X155514040Y-113075720D01*
X155691840Y-113075720D02*
X155945840Y-113075720D01*
X156657040Y-113075720D02*
X157546040Y-113075720D01*
X157749240Y-113075720D02*
X158028640Y-113075720D01*
X159273240Y-113075720D02*
X159527240Y-113075720D01*
X159603440Y-113075720D02*
X159933640Y-113075720D01*
X148986240Y-113101120D02*
X149164040Y-113101120D01*
X149240240Y-113101120D02*
X149545040Y-113101120D01*
X149722840Y-113101120D02*
X149875240Y-113101120D01*
X150053040Y-113101120D02*
X150459440Y-113101120D01*
X150637240Y-113101120D02*
X151297640Y-113101120D01*
X152237440Y-113101120D02*
X152618440Y-113101120D01*
X153177240Y-113101120D02*
X153532840Y-113101120D01*
X153685240Y-113101120D02*
X153964640Y-113101120D01*
X154320240Y-113101120D02*
X154955240Y-113101120D01*
X155260040Y-113101120D02*
X155514040Y-113101120D01*
X155691840Y-113101120D02*
X155945840Y-113101120D01*
X156657040Y-113101120D02*
X157546040Y-113101120D01*
X157749240Y-113101120D02*
X158054040Y-113101120D01*
X159273240Y-113101120D02*
X159527240Y-113101120D01*
X159628840Y-113101120D02*
X159959040Y-113101120D01*
X148986240Y-113126520D02*
X149164040Y-113126520D01*
X149240240Y-113126520D02*
X149519640Y-113126520D01*
X149697440Y-113126520D02*
X149875240Y-113126520D01*
X150078440Y-113126520D02*
X150459440Y-113126520D01*
X150611840Y-113126520D02*
X151297640Y-113126520D01*
X152237440Y-113126520D02*
X152618440Y-113126520D01*
X153177240Y-113126520D02*
X153558240Y-113126520D01*
X153685240Y-113126520D02*
X153990040Y-113126520D01*
X154701240Y-113126520D02*
X154955240Y-113126520D01*
X155260040Y-113126520D02*
X155514040Y-113126520D01*
X155691840Y-113126520D02*
X155945840Y-113126520D01*
X156631640Y-113126520D02*
X157546040Y-113126520D01*
X157749240Y-113126520D02*
X158054040Y-113126520D01*
X159273240Y-113126520D02*
X159527240Y-113126520D01*
X159628840Y-113126520D02*
X159984440Y-113126520D01*
X148986240Y-113151920D02*
X149164040Y-113151920D01*
X149240240Y-113151920D02*
X149494240Y-113151920D01*
X149672040Y-113151920D02*
X149849840Y-113151920D01*
X150103840Y-113151920D02*
X150408640Y-113151920D01*
X150586440Y-113151920D02*
X151297640Y-113151920D01*
X152212040Y-113151920D02*
X152593040Y-113151920D01*
X153202640Y-113151920D02*
X153558240Y-113151920D01*
X153685240Y-113151920D02*
X153990040Y-113151920D01*
X154701240Y-113151920D02*
X154955240Y-113151920D01*
X155260040Y-113151920D02*
X155514040Y-113151920D01*
X155691840Y-113151920D02*
X155945840Y-113151920D01*
X156631640Y-113151920D02*
X157571440Y-113151920D01*
X157749240Y-113151920D02*
X158054040Y-113151920D01*
X159273240Y-113151920D02*
X159527240Y-113151920D01*
X159654240Y-113151920D02*
X160009840Y-113151920D01*
X148986240Y-113177320D02*
X149164040Y-113177320D01*
X149240240Y-113177320D02*
X149468840Y-113177320D01*
X149646640Y-113177320D02*
X149824440Y-113177320D01*
X150154640Y-113177320D02*
X150383240Y-113177320D01*
X150561040Y-113177320D02*
X151297640Y-113177320D01*
X152212040Y-113177320D02*
X152593040Y-113177320D01*
X153202640Y-113177320D02*
X153583640Y-113177320D01*
X153710640Y-113177320D02*
X153990040Y-113177320D01*
X154701240Y-113177320D02*
X154955240Y-113177320D01*
X155260040Y-113177320D02*
X155514040Y-113177320D01*
X155691840Y-113177320D02*
X155945840Y-113177320D01*
X156631640Y-113177320D02*
X157571440Y-113177320D01*
X157774640Y-113177320D02*
X158079440Y-113177320D01*
X159273240Y-113177320D02*
X159527240Y-113177320D01*
X159679640Y-113177320D02*
X160035240Y-113177320D01*
X148986240Y-113202720D02*
X149164040Y-113202720D01*
X149240240Y-113202720D02*
X149468840Y-113202720D01*
X149621240Y-113202720D02*
X149799040Y-113202720D01*
X149951440Y-113202720D02*
X149976840Y-113202720D01*
X150230840Y-113202720D02*
X150281640Y-113202720D01*
X150561040Y-113202720D02*
X151297640Y-113202720D01*
X152186640Y-113202720D02*
X152567640Y-113202720D01*
X153228040Y-113202720D02*
X153583640Y-113202720D01*
X153710640Y-113202720D02*
X154015440Y-113202720D01*
X154701240Y-113202720D02*
X154955240Y-113202720D01*
X155260040Y-113202720D02*
X155514040Y-113202720D01*
X155691840Y-113202720D02*
X155945840Y-113202720D01*
X156606240Y-113202720D02*
X157596840Y-113202720D01*
X157774640Y-113202720D02*
X158079440Y-113202720D01*
X159273240Y-113202720D02*
X159527240Y-113202720D01*
X159705040Y-113202720D02*
X160060640Y-113202720D01*
X148986240Y-113228120D02*
X149164040Y-113228120D01*
X149240240Y-113228120D02*
X149443440Y-113228120D01*
X149595840Y-113228120D02*
X149773640Y-113228120D01*
X149926040Y-113228120D02*
X150002240Y-113228120D01*
X150535640Y-113228120D02*
X151297640Y-113228120D01*
X152186640Y-113228120D02*
X152567640Y-113228120D01*
X153228040Y-113228120D02*
X153609040Y-113228120D01*
X153710640Y-113228120D02*
X154040840Y-113228120D01*
X154701240Y-113228120D02*
X154955240Y-113228120D01*
X155260040Y-113228120D02*
X155514040Y-113228120D01*
X155691840Y-113228120D02*
X155945840Y-113228120D01*
X156606240Y-113228120D02*
X157596840Y-113228120D01*
X157774640Y-113228120D02*
X158104840Y-113228120D01*
X159273240Y-113228120D02*
X159527240Y-113228120D01*
X159730440Y-113228120D02*
X160086040Y-113228120D01*
X148986240Y-113253520D02*
X149164040Y-113253520D01*
X149240240Y-113253520D02*
X149418040Y-113253520D01*
X149570440Y-113253520D02*
X149748240Y-113253520D01*
X149900640Y-113253520D02*
X150027640Y-113253520D01*
X150484840Y-113253520D02*
X151297640Y-113253520D01*
X152161240Y-113253520D02*
X153101040Y-113253520D01*
X153253440Y-113253520D02*
X153609040Y-113253520D01*
X153710640Y-113253520D02*
X154040840Y-113253520D01*
X154701240Y-113253520D02*
X154955240Y-113253520D01*
X155260040Y-113253520D02*
X155514040Y-113253520D01*
X155691840Y-113253520D02*
X155945840Y-113253520D01*
X156606240Y-113253520D02*
X157596840Y-113253520D01*
X157800040Y-113253520D02*
X158130240Y-113253520D01*
X159273240Y-113253520D02*
X159527240Y-113253520D01*
X159755840Y-113253520D02*
X160111440Y-113253520D01*
X148986240Y-113278920D02*
X149164040Y-113278920D01*
X149240240Y-113278920D02*
X149392640Y-113278920D01*
X149545040Y-113278920D02*
X149722840Y-113278920D01*
X149875240Y-113278920D02*
X150053040Y-113278920D01*
X150459440Y-113278920D02*
X151297640Y-113278920D01*
X152161240Y-113278920D02*
X153101040Y-113278920D01*
X153253440Y-113278920D02*
X153634440Y-113278920D01*
X153736040Y-113278920D02*
X154066240Y-113278920D01*
X154701240Y-113278920D02*
X154955240Y-113278920D01*
X155260040Y-113278920D02*
X155514040Y-113278920D01*
X155691840Y-113278920D02*
X155945840Y-113278920D01*
X156580840Y-113278920D02*
X157622240Y-113278920D01*
X157800040Y-113278920D02*
X158155640Y-113278920D01*
X159273240Y-113278920D02*
X159527240Y-113278920D01*
X159781240Y-113278920D02*
X160111440Y-113278920D01*
X148986240Y-113304320D02*
X149164040Y-113304320D01*
X149240240Y-113304320D02*
X149367240Y-113304320D01*
X149519640Y-113304320D02*
X149697440Y-113304320D01*
X149849840Y-113304320D02*
X150129240Y-113304320D01*
X150408640Y-113304320D02*
X151297640Y-113304320D01*
X152135840Y-113304320D02*
X153126440Y-113304320D01*
X153278840Y-113304320D02*
X153634440Y-113304320D01*
X153736040Y-113304320D02*
X154091640Y-113304320D01*
X154701240Y-113304320D02*
X154955240Y-113304320D01*
X155260040Y-113304320D02*
X155514040Y-113304320D01*
X155691840Y-113304320D02*
X155945840Y-113304320D01*
X156580840Y-113304320D02*
X156860240Y-113304320D01*
X157342840Y-113304320D02*
X157622240Y-113304320D01*
X157800040Y-113304320D02*
X158181040Y-113304320D01*
X159273240Y-113304320D02*
X159527240Y-113304320D01*
X159781240Y-113304320D02*
X160136840Y-113304320D01*
X148986240Y-113329720D02*
X149164040Y-113329720D01*
X149240240Y-113329720D02*
X149341840Y-113329720D01*
X149494240Y-113329720D02*
X149672040Y-113329720D01*
X149824440Y-113329720D02*
X150205440Y-113329720D01*
X150307040Y-113329720D02*
X151297640Y-113329720D01*
X152135840Y-113329720D02*
X153126440Y-113329720D01*
X153278840Y-113329720D02*
X153659840Y-113329720D01*
X153761440Y-113329720D02*
X154117040Y-113329720D01*
X154701240Y-113329720D02*
X154955240Y-113329720D01*
X155260040Y-113329720D02*
X155514040Y-113329720D01*
X155691840Y-113329720D02*
X155945840Y-113329720D01*
X156555440Y-113329720D02*
X156834840Y-113329720D01*
X157342840Y-113329720D02*
X157622240Y-113329720D01*
X157825440Y-113329720D02*
X158206440Y-113329720D01*
X159273240Y-113329720D02*
X159527240Y-113329720D01*
X159806640Y-113329720D02*
X160162240Y-113329720D01*
X148986240Y-113355120D02*
X149164040Y-113355120D01*
X149240240Y-113355120D02*
X149316440Y-113355120D01*
X149468840Y-113355120D02*
X149646640Y-113355120D01*
X149799040Y-113355120D02*
X151297640Y-113355120D01*
X152110440Y-113355120D02*
X153151840Y-113355120D01*
X153304240Y-113355120D02*
X153659840Y-113355120D01*
X153761440Y-113355120D02*
X154142440Y-113355120D01*
X154701240Y-113355120D02*
X154955240Y-113355120D01*
X155260040Y-113355120D02*
X155514040Y-113355120D01*
X155691840Y-113355120D02*
X155945840Y-113355120D01*
X156555440Y-113355120D02*
X156834840Y-113355120D01*
X157342840Y-113355120D02*
X157647640Y-113355120D01*
X157850840Y-113355120D02*
X158231840Y-113355120D01*
X159273240Y-113355120D02*
X159527240Y-113355120D01*
X159832040Y-113355120D02*
X160187640Y-113355120D01*
X148986240Y-113380520D02*
X149164040Y-113380520D01*
X149240240Y-113380520D02*
X149291040Y-113380520D01*
X149443440Y-113380520D02*
X149621240Y-113380520D01*
X149773640Y-113380520D02*
X151297640Y-113380520D01*
X152110440Y-113380520D02*
X153151840Y-113380520D01*
X153304240Y-113380520D02*
X153685240Y-113380520D01*
X153786840Y-113380520D02*
X154167840Y-113380520D01*
X154675840Y-113380520D02*
X154955240Y-113380520D01*
X155260040Y-113380520D02*
X155514040Y-113380520D01*
X155691840Y-113380520D02*
X155945840Y-113380520D01*
X156555440Y-113380520D02*
X156834840Y-113380520D01*
X157368240Y-113380520D02*
X157647640Y-113380520D01*
X157850840Y-113380520D02*
X158282640Y-113380520D01*
X158765240Y-113380520D02*
X158866840Y-113380520D01*
X159273240Y-113380520D02*
X159527240Y-113380520D01*
X159857440Y-113380520D02*
X160213040Y-113380520D01*
X148986240Y-113405920D02*
X149164040Y-113405920D01*
X149418040Y-113405920D02*
X149595840Y-113405920D01*
X149748240Y-113405920D02*
X151297640Y-113405920D01*
X152085040Y-113405920D02*
X153177240Y-113405920D01*
X153329640Y-113405920D02*
X153685240Y-113405920D01*
X153786840Y-113405920D02*
X154218640Y-113405920D01*
X154650440Y-113405920D02*
X154955240Y-113405920D01*
X155260040Y-113405920D02*
X155514040Y-113405920D01*
X155691840Y-113405920D02*
X155945840Y-113405920D01*
X156530040Y-113405920D02*
X156809440Y-113405920D01*
X157368240Y-113405920D02*
X157673040Y-113405920D01*
X157876240Y-113405920D02*
X158358840Y-113405920D01*
X158689040Y-113405920D02*
X158866840Y-113405920D01*
X159273240Y-113405920D02*
X159527240Y-113405920D01*
X159882840Y-113405920D02*
X160238440Y-113405920D01*
X148986240Y-113431320D02*
X149164040Y-113431320D01*
X149392640Y-113431320D02*
X149570440Y-113431320D01*
X149722840Y-113431320D02*
X151297640Y-113431320D01*
X152085040Y-113431320D02*
X153177240Y-113431320D01*
X153329640Y-113431320D02*
X153710640Y-113431320D01*
X153812240Y-113431320D02*
X154294840Y-113431320D01*
X154574240Y-113431320D02*
X154955240Y-113431320D01*
X155260040Y-113431320D02*
X155514040Y-113431320D01*
X155691840Y-113431320D02*
X156809440Y-113431320D01*
X157368240Y-113431320D02*
X157673040Y-113431320D01*
X157901640Y-113431320D02*
X158892240Y-113431320D01*
X159273240Y-113431320D02*
X159527240Y-113431320D01*
X159908240Y-113431320D02*
X160263840Y-113431320D01*
X148986240Y-113456720D02*
X149164040Y-113456720D01*
X149367240Y-113456720D02*
X149545040Y-113456720D01*
X149697440Y-113456720D02*
X151297640Y-113456720D01*
X152059640Y-113456720D02*
X153202640Y-113456720D01*
X153355040Y-113456720D02*
X153710640Y-113456720D01*
X153837640Y-113456720D02*
X154955240Y-113456720D01*
X155260040Y-113456720D02*
X155514040Y-113456720D01*
X155691840Y-113456720D02*
X156784040Y-113456720D01*
X157393640Y-113456720D02*
X157673040Y-113456720D01*
X157901640Y-113456720D02*
X158892240Y-113456720D01*
X159273240Y-113456720D02*
X159527240Y-113456720D01*
X159933640Y-113456720D02*
X160289240Y-113456720D01*
X148986240Y-113482120D02*
X149164040Y-113482120D01*
X149341840Y-113482120D02*
X149519640Y-113482120D01*
X149672040Y-113482120D02*
X151297640Y-113482120D01*
X152059640Y-113482120D02*
X153202640Y-113482120D01*
X153355040Y-113482120D02*
X153736040Y-113482120D01*
X153863040Y-113482120D02*
X154955240Y-113482120D01*
X155260040Y-113482120D02*
X155514040Y-113482120D01*
X155691840Y-113482120D02*
X156784040Y-113482120D01*
X157393640Y-113482120D02*
X157698440Y-113482120D01*
X157927040Y-113482120D02*
X158917640Y-113482120D01*
X159273240Y-113482120D02*
X159527240Y-113482120D01*
X159959040Y-113482120D02*
X160314640Y-113482120D01*
X148986240Y-113507520D02*
X149164040Y-113507520D01*
X149316440Y-113507520D02*
X149494240Y-113507520D01*
X149646640Y-113507520D02*
X151297640Y-113507520D01*
X152034240Y-113507520D02*
X153228040Y-113507520D01*
X153380440Y-113507520D02*
X153736040Y-113507520D01*
X153888440Y-113507520D02*
X154955240Y-113507520D01*
X155260040Y-113507520D02*
X155514040Y-113507520D01*
X155691840Y-113507520D02*
X156784040Y-113507520D01*
X157419040Y-113507520D02*
X157698440Y-113507520D01*
X157952440Y-113507520D02*
X158917640Y-113507520D01*
X159273240Y-113507520D02*
X159527240Y-113507520D01*
X159959040Y-113507520D02*
X160340040Y-113507520D01*
X148986240Y-113532920D02*
X149138640Y-113532920D01*
X149291040Y-113532920D02*
X149468840Y-113532920D01*
X149621240Y-113532920D02*
X151297640Y-113532920D01*
X152034240Y-113532920D02*
X153228040Y-113532920D01*
X153380440Y-113532920D02*
X153761440Y-113532920D01*
X153888440Y-113532920D02*
X154929840Y-113532920D01*
X155260040Y-113532920D02*
X155514040Y-113532920D01*
X155691840Y-113532920D02*
X156758640Y-113532920D01*
X157419040Y-113532920D02*
X157698440Y-113532920D01*
X158003240Y-113532920D02*
X158917640Y-113532920D01*
X159273240Y-113532920D02*
X159527240Y-113532920D01*
X159984440Y-113532920D02*
X160340040Y-113532920D01*
X148986240Y-113558320D02*
X149113240Y-113558320D01*
X149240240Y-113558320D02*
X149443440Y-113558320D01*
X149595840Y-113558320D02*
X151272240Y-113558320D01*
X152034240Y-113558320D02*
X153228040Y-113558320D01*
X153405840Y-113558320D02*
X153761440Y-113558320D01*
X153939240Y-113558320D02*
X154904440Y-113558320D01*
X155260040Y-113558320D02*
X155514040Y-113558320D01*
X155691840Y-113558320D02*
X156758640Y-113558320D01*
X157419040Y-113558320D02*
X157723840Y-113558320D01*
X158028640Y-113558320D02*
X158943040Y-113558320D01*
X159273240Y-113558320D02*
X159527240Y-113558320D01*
X160009840Y-113558320D02*
X160365440Y-113558320D01*
X148986240Y-113583720D02*
X149087840Y-113583720D01*
X149240240Y-113583720D02*
X149418040Y-113583720D01*
X149570440Y-113583720D02*
X151246840Y-113583720D01*
X153405840Y-113583720D02*
X153786840Y-113583720D01*
X153964640Y-113583720D02*
X154853640Y-113583720D01*
X155260040Y-113583720D02*
X155514040Y-113583720D01*
X155691840Y-113583720D02*
X156758640Y-113583720D01*
X157444440Y-113583720D02*
X157723840Y-113583720D01*
X158079440Y-113583720D02*
X158943040Y-113583720D01*
X159273240Y-113583720D02*
X159527240Y-113583720D01*
X160035240Y-113583720D02*
X160390840Y-113583720D01*
X148986240Y-113609120D02*
X149062440Y-113609120D01*
X149240240Y-113609120D02*
X149392640Y-113609120D01*
X149545040Y-113609120D02*
X151221440Y-113609120D01*
X153431240Y-113609120D02*
X153786840Y-113609120D01*
X153990040Y-113609120D02*
X154828240Y-113609120D01*
X155260040Y-113609120D02*
X155514040Y-113609120D01*
X155691840Y-113609120D02*
X156733240Y-113609120D01*
X157444440Y-113609120D02*
X157723840Y-113609120D01*
X158104840Y-113609120D02*
X158866840Y-113609120D01*
X159273240Y-113609120D02*
X159527240Y-113609120D01*
X160060640Y-113609120D02*
X160416240Y-113609120D01*
X149240240Y-113634520D02*
X149367240Y-113634520D01*
X149519640Y-113634520D02*
X151196040Y-113634520D01*
X153431240Y-113634520D02*
X153812240Y-113634520D01*
X154040840Y-113634520D02*
X154777440Y-113634520D01*
X155260040Y-113634520D02*
X155514040Y-113634520D01*
X155691840Y-113634520D02*
X156733240Y-113634520D01*
X157469840Y-113634520D02*
X157749240Y-113634520D01*
X158181040Y-113634520D02*
X158790640Y-113634520D01*
X159273240Y-113634520D02*
X159527240Y-113634520D01*
X160086040Y-113634520D02*
X160441640Y-113634520D01*
X149240240Y-113659920D02*
X149341840Y-113659920D01*
X149494240Y-113659920D02*
X151170640Y-113659920D01*
X153456640Y-113659920D02*
X153812240Y-113659920D01*
X154117040Y-113659920D02*
X154701240Y-113659920D01*
X158257240Y-113659920D02*
X158689040Y-113659920D01*
X149240240Y-113685320D02*
X149316440Y-113685320D01*
X149468840Y-113685320D02*
X151145240Y-113685320D01*
X153456640Y-113685320D02*
X153837640Y-113685320D01*
X154193240Y-113685320D02*
X154625040Y-113685320D01*
X149240240Y-113710720D02*
X149291040Y-113710720D01*
X149443440Y-113710720D02*
X151119840Y-113710720D01*
X153482040Y-113710720D02*
X153837640Y-113710720D01*
X149240240Y-113736120D02*
X149265640Y-113736120D01*
X149418040Y-113736120D02*
X151094440Y-113736120D01*
X151754840Y-113736120D02*
X153228040Y-113736120D01*
X153482040Y-113736120D02*
X153863040Y-113736120D01*
X149392640Y-113761520D02*
X151069040Y-113761520D01*
X151754840Y-113761520D02*
X153228040Y-113761520D01*
X153507440Y-113761520D02*
X153863040Y-113761520D01*
X149367240Y-113786920D02*
X151043640Y-113786920D01*
X151754840Y-113786920D02*
X153228040Y-113786920D01*
X153507440Y-113786920D02*
X153888440Y-113786920D01*
X149341840Y-113812320D02*
X151018240Y-113812320D01*
X151754840Y-113812320D02*
X153228040Y-113812320D01*
X153532840Y-113812320D02*
X153888440Y-113812320D01*
X149316440Y-113837720D02*
X150992840Y-113837720D01*
X151754840Y-113837720D02*
X153228040Y-113837720D01*
X153532840Y-113837720D02*
X153913840Y-113837720D01*
X149291040Y-113863120D02*
X150967440Y-113863120D01*
X151754840Y-113863120D02*
X153228040Y-113863120D01*
X153558240Y-113863120D02*
X153939240Y-113863120D01*
X149240240Y-113888520D02*
X150942040Y-113888520D01*
X151754840Y-113888520D02*
X153228040Y-113888520D01*
X153558240Y-113888520D02*
X153939240Y-113888520D01*
X149240240Y-113913920D02*
X150916640Y-113913920D01*
X151754840Y-113913920D02*
X153228040Y-113913920D01*
X153583640Y-113913920D02*
X153964640Y-113913920D01*
X149240240Y-113939320D02*
X150891240Y-113939320D01*
X151754840Y-113939320D02*
X153228040Y-113939320D01*
X153583640Y-113939320D02*
X153964640Y-113939320D01*
X151754840Y-113964720D02*
X153228040Y-113964720D01*
X153609040Y-113964720D02*
X153990040Y-113964720D01*
X153609040Y-113990120D02*
X153990040Y-113990120D01*
X153634440Y-114015520D02*
X154015440Y-114015520D01*
X153634440Y-114040920D02*
X154015440Y-114040920D01*
X153659840Y-114066320D02*
X154040840Y-114066320D01*
X153659840Y-114091720D02*
X154040840Y-114091720D01*
X153685240Y-114117120D02*
X154066240Y-114117120D01*
X153685240Y-114142520D02*
X154066240Y-114142520D01*
X153710640Y-114167920D02*
X154091640Y-114167920D01*
D11*
X132088181Y-105738095D02*
X131088181Y-105738095D01*
X131088181Y-105357142D01*
X131135800Y-105261904D01*
X131183419Y-105214285D01*
X131278657Y-105166666D01*
X131421514Y-105166666D01*
X131516752Y-105214285D01*
X131564371Y-105261904D01*
X131611990Y-105357142D01*
X131611990Y-105738095D01*
X132088181Y-104214285D02*
X132088181Y-104785714D01*
X132088181Y-104500000D02*
X131088181Y-104500000D01*
X131231038Y-104595238D01*
X131326276Y-104690476D01*
X131373895Y-104785714D01*
D15*
X151760181Y-108992895D02*
X150760181Y-108992895D01*
X150760181Y-108611942D01*
X150807800Y-108516704D01*
X150855419Y-108469085D01*
X150950657Y-108421466D01*
X151093514Y-108421466D01*
X151188752Y-108469085D01*
X151236371Y-108516704D01*
X151283990Y-108611942D01*
X151283990Y-108992895D01*
X150855419Y-108040514D02*
X150807800Y-107992895D01*
X150760181Y-107897657D01*
X150760181Y-107659561D01*
X150807800Y-107564323D01*
X150855419Y-107516704D01*
X150950657Y-107469085D01*
X151045895Y-107469085D01*
X151188752Y-107516704D01*
X151760181Y-108088133D01*
X151760181Y-107469085D01*
D12*
X144494429Y-101807714D02*
X144494429Y-102424571D01*
X144530714Y-102497143D01*
X144567000Y-102533429D01*
X144639571Y-102569714D01*
X144784714Y-102569714D01*
X144857286Y-102533429D01*
X144893571Y-102497143D01*
X144929857Y-102424571D01*
X144929857Y-101807714D01*
X145691857Y-102569714D02*
X145256429Y-102569714D01*
X145474143Y-102569714D02*
X145474143Y-101807714D01*
X145401572Y-101916571D01*
X145329000Y-101989143D01*
X145256429Y-102025429D01*
X125973000Y-114072143D02*
X125936714Y-114108429D01*
X125827857Y-114144714D01*
X125755286Y-114144714D01*
X125646429Y-114108429D01*
X125573857Y-114035857D01*
X125537572Y-113963286D01*
X125501286Y-113818143D01*
X125501286Y-113709286D01*
X125537572Y-113564143D01*
X125573857Y-113491571D01*
X125646429Y-113419000D01*
X125755286Y-113382714D01*
X125827857Y-113382714D01*
X125936714Y-113419000D01*
X125973000Y-113455286D01*
X126698714Y-114144714D02*
X126263286Y-114144714D01*
X126481000Y-114144714D02*
X126481000Y-113382714D01*
X126408429Y-113491571D01*
X126335857Y-113564143D01*
X126263286Y-113600429D01*
X138198000Y-106922143D02*
X138161714Y-106958429D01*
X138052857Y-106994714D01*
X137980286Y-106994714D01*
X137871429Y-106958429D01*
X137798857Y-106885857D01*
X137762572Y-106813286D01*
X137726286Y-106668143D01*
X137726286Y-106559286D01*
X137762572Y-106414143D01*
X137798857Y-106341571D01*
X137871429Y-106269000D01*
X137980286Y-106232714D01*
X138052857Y-106232714D01*
X138161714Y-106269000D01*
X138198000Y-106305286D01*
X138452000Y-106232714D02*
X138923714Y-106232714D01*
X138669714Y-106523000D01*
X138778572Y-106523000D01*
X138851143Y-106559286D01*
X138887429Y-106595571D01*
X138923714Y-106668143D01*
X138923714Y-106849571D01*
X138887429Y-106922143D01*
X138851143Y-106958429D01*
X138778572Y-106994714D01*
X138560857Y-106994714D01*
X138488286Y-106958429D01*
X138452000Y-106922143D01*
X146247143Y-99652000D02*
X146283429Y-99688286D01*
X146319714Y-99797143D01*
X146319714Y-99869714D01*
X146283429Y-99978571D01*
X146210857Y-100051143D01*
X146138286Y-100087428D01*
X145993143Y-100123714D01*
X145884286Y-100123714D01*
X145739143Y-100087428D01*
X145666571Y-100051143D01*
X145594000Y-99978571D01*
X145557714Y-99869714D01*
X145557714Y-99797143D01*
X145594000Y-99688286D01*
X145630286Y-99652000D01*
X145811714Y-98998857D02*
X146319714Y-98998857D01*
X145521429Y-99180286D02*
X146065714Y-99361714D01*
X146065714Y-98890000D01*
X146673000Y-105722143D02*
X146636714Y-105758429D01*
X146527857Y-105794714D01*
X146455286Y-105794714D01*
X146346429Y-105758429D01*
X146273857Y-105685857D01*
X146237572Y-105613286D01*
X146201286Y-105468143D01*
X146201286Y-105359286D01*
X146237572Y-105214143D01*
X146273857Y-105141571D01*
X146346429Y-105069000D01*
X146455286Y-105032714D01*
X146527857Y-105032714D01*
X146636714Y-105069000D01*
X146673000Y-105105286D01*
X147362429Y-105032714D02*
X146999572Y-105032714D01*
X146963286Y-105395571D01*
X146999572Y-105359286D01*
X147072143Y-105323000D01*
X147253572Y-105323000D01*
X147326143Y-105359286D01*
X147362429Y-105395571D01*
X147398714Y-105468143D01*
X147398714Y-105649571D01*
X147362429Y-105722143D01*
X147326143Y-105758429D01*
X147253572Y-105794714D01*
X147072143Y-105794714D01*
X146999572Y-105758429D01*
X146963286Y-105722143D01*
X140244714Y-100527000D02*
X139881857Y-100781000D01*
X140244714Y-100962428D02*
X139482714Y-100962428D01*
X139482714Y-100672143D01*
X139519000Y-100599571D01*
X139555286Y-100563286D01*
X139627857Y-100527000D01*
X139736714Y-100527000D01*
X139809286Y-100563286D01*
X139845571Y-100599571D01*
X139881857Y-100672143D01*
X139881857Y-100962428D01*
X140244714Y-99801286D02*
X140244714Y-100236714D01*
X140244714Y-100019000D02*
X139482714Y-100019000D01*
X139591571Y-100091571D01*
X139664143Y-100164143D01*
X139700429Y-100236714D01*
X151523000Y-102719714D02*
X151269000Y-102356857D01*
X151087572Y-102719714D02*
X151087572Y-101957714D01*
X151377857Y-101957714D01*
X151450429Y-101994000D01*
X151486714Y-102030286D01*
X151523000Y-102102857D01*
X151523000Y-102211714D01*
X151486714Y-102284286D01*
X151450429Y-102320571D01*
X151377857Y-102356857D01*
X151087572Y-102356857D01*
X151813286Y-102030286D02*
X151849572Y-101994000D01*
X151922143Y-101957714D01*
X152103572Y-101957714D01*
X152176143Y-101994000D01*
X152212429Y-102030286D01*
X152248714Y-102102857D01*
X152248714Y-102175429D01*
X152212429Y-102284286D01*
X151777000Y-102719714D01*
X152248714Y-102719714D01*
X149398000Y-99819714D02*
X149144000Y-99456857D01*
X148962572Y-99819714D02*
X148962572Y-99057714D01*
X149252857Y-99057714D01*
X149325429Y-99094000D01*
X149361714Y-99130286D01*
X149398000Y-99202857D01*
X149398000Y-99311714D01*
X149361714Y-99384286D01*
X149325429Y-99420571D01*
X149252857Y-99456857D01*
X148962572Y-99456857D01*
X149652000Y-99057714D02*
X150123714Y-99057714D01*
X149869714Y-99348000D01*
X149978572Y-99348000D01*
X150051143Y-99384286D01*
X150087429Y-99420571D01*
X150123714Y-99493143D01*
X150123714Y-99674571D01*
X150087429Y-99747143D01*
X150051143Y-99783429D01*
X149978572Y-99819714D01*
X149760857Y-99819714D01*
X149688286Y-99783429D01*
X149652000Y-99747143D01*
M02*
