M48
;DRILL file {KiCad 4.0.2+dfsg1-stable} date mar. 12 sept. 2017 13:22:45 CEST
;FORMAT={-:-/ absolute / inch / decimal}
FMAT,2
INCH,TZ
T1C0.012
T2C0.031
T3C0.043
T4C0.047
%
G90
G05
M72
T1
X5.123Y-4.4803
X5.2726Y-4.2018
X5.3297Y-3.9026
X5.3652Y-4.1457
X5.3848Y-4.2018
X5.5098Y-3.9026
X5.5965Y-4.1339
X5.626Y-3.999
X5.689Y-3.8632
X5.735Y-4.172
X5.8002Y-3.999
X5.8268Y-4.0896
X5.9035Y-4.1181
X5.9508Y-4.1654
X5.9596Y-3.9675
X5.9902Y-4.0709
X6.0689Y-3.9606
X6.0689Y-4.3071
X6.2854Y-3.9606
X6.2854Y-4.3071
T2
X5.3Y-3.8
X5.4Y-3.8
X5.5Y-3.8
X5.6Y-3.8
X5.7Y-3.8
T3
X5.1055Y-3.8839
T4
X5.0055Y-3.8839
X5.0055Y-3.9839
X5.0055Y-4.0839
X5.0055Y-4.1839
X5.0055Y-4.2839
X5.0055Y-4.3839
X5.1055Y-3.9839
X5.1055Y-4.0839
X5.1055Y-4.1839
X5.1055Y-4.2839
X5.1055Y-4.3839
T0
M30
