M48
;DRILL file {KiCad 4.0.2+dfsg1-stable} date jeu. 13 juil. 2017 18:44:23 CEST
;FORMAT={-:-/ absolute / inch / decimal}
FMAT,2
INCH,TZ
T1C0.012
T2C0.040
T3C0.043
T4C0.047
T5C0.060
%
G90
G05
M72
T1
X5.644Y-4.0595
X5.644Y-4.2775
X5.688Y-4.0585
X5.6975Y-4.38
X6.04Y-4.059
X6.04Y-4.284
X6.6895Y-3.7915
T2
X5.7965Y-3.959
X5.8965Y-3.959
T3
X6.587Y-4.3839
T4
X6.587Y-3.8839
X6.587Y-3.9839
X6.587Y-4.0839
X6.587Y-4.1839
X6.587Y-4.2839
X6.687Y-3.8839
X6.687Y-3.9839
X6.687Y-4.0839
X6.687Y-4.1839
X6.687Y-4.2839
X6.687Y-4.3839
T5
X5.0465Y-3.9339
X5.0465Y-4.1339
X5.0465Y-4.3339
T0
M30
