G04 #@! TF.FileFunction,Legend,Top*
%FSLAX46Y46*%
G04 Gerber Fmt 4.6, Leading zero omitted, Abs format (unit mm)*
G04 Created by KiCad (PCBNEW 4.0.2+dfsg1-stable) date jeu. 13 juil. 2017 18:44:21 CEST*
%MOMM*%
G01*
G04 APERTURE LIST*
%ADD10C,0.100000*%
%ADD11C,0.127000*%
%ADD12C,0.150000*%
%ADD13C,0.152400*%
%ADD14C,0.101600*%
%ADD15R,1.035000X1.543000*%
%ADD16R,2.400000X2.300000*%
%ADD17C,2.300000*%
%ADD18R,1.543000X1.035000*%
%ADD19R,1.924000X1.924000*%
%ADD20C,1.924000*%
%ADD21R,2.940000X2.940000*%
%ADD22C,2.940000*%
%ADD23R,1.924000X2.432000*%
%ADD24R,1.543000X0.908000*%
G04 APERTURE END LIST*
D10*
D11*
X166928800Y-95669100D02*
X169214800Y-95669100D01*
X169214800Y-95669100D02*
X169214800Y-96939100D01*
X169214800Y-96939100D02*
X166928800Y-96939100D01*
X166928800Y-96939100D02*
X166928800Y-95669100D01*
D12*
X179889800Y-111350000D02*
X173889800Y-111350000D01*
X179889800Y-108810000D02*
X173889800Y-108810000D01*
X179889800Y-106270000D02*
X173889800Y-106270000D01*
X179889800Y-103730000D02*
X173889800Y-103730000D01*
X179889800Y-101190000D02*
X173889800Y-101190000D01*
X179889800Y-98650000D02*
X173889800Y-98650000D01*
X171349800Y-97380000D02*
X171349800Y-112620000D01*
X171349800Y-112620000D02*
X173889800Y-112620000D01*
X173889800Y-112620000D02*
X173889800Y-97380000D01*
X171349800Y-97380000D02*
X173889800Y-97380000D01*
D11*
X145351500Y-108267500D02*
X145351500Y-110553500D01*
X145351500Y-110553500D02*
X144081500Y-110553500D01*
X144081500Y-110553500D02*
X144081500Y-108267500D01*
X144081500Y-108267500D02*
X145351500Y-108267500D01*
D13*
X151041100Y-99288600D02*
X151041100Y-101828600D01*
X151041100Y-101828600D02*
X145961100Y-101828600D01*
X145961100Y-101828600D02*
X145961100Y-99288600D01*
X145961100Y-99288600D02*
X151041100Y-99288600D01*
D14*
X133261100Y-112620000D02*
X133261100Y-97380000D01*
X123101100Y-112620000D02*
X123101100Y-97380000D01*
X133261100Y-112620000D02*
X123101100Y-112620000D01*
X123101100Y-97380000D02*
X133261100Y-97380000D01*
D11*
X145961100Y-108267500D02*
X145961100Y-110553500D01*
X145961100Y-110553500D02*
X147612100Y-110553500D01*
X149390100Y-108267500D02*
X151041100Y-108267500D01*
X151041100Y-108267500D02*
X151041100Y-110553500D01*
X151041100Y-110553500D02*
X149390100Y-110553500D01*
X147612100Y-108267500D02*
X145961100Y-108267500D01*
X150279100Y-107667000D02*
X150406100Y-107667000D01*
X150406100Y-107667000D02*
X150406100Y-102333000D01*
X146596100Y-102333000D02*
X146596100Y-107667000D01*
X146596100Y-107667000D02*
X150279100Y-107667000D01*
X147993100Y-107667000D02*
X147993100Y-107159000D01*
X147993100Y-107159000D02*
X149009100Y-107159000D01*
X149009100Y-107159000D02*
X149009100Y-107667000D01*
X146596100Y-102333000D02*
X150406100Y-102333000D01*
X161658300Y-109448600D02*
X159372300Y-109448600D01*
X159372300Y-109448600D02*
X159372300Y-108178600D01*
X159372300Y-108178600D02*
X161658300Y-108178600D01*
X161658300Y-108178600D02*
X161658300Y-109448600D01*
X161658300Y-106146600D02*
X159372300Y-106146600D01*
X159372300Y-106146600D02*
X159372300Y-104876600D01*
X159372300Y-104876600D02*
X161658300Y-104876600D01*
X161658300Y-104876600D02*
X161658300Y-106146600D01*
X161658300Y-104495600D02*
X159372300Y-104495600D01*
X159372300Y-104495600D02*
X159372300Y-103225600D01*
X159372300Y-103225600D02*
X161658300Y-103225600D01*
X161658300Y-103225600D02*
X161658300Y-104495600D01*
X159372300Y-106527600D02*
X161658300Y-106527600D01*
X161658300Y-106527600D02*
X161658300Y-107797600D01*
X161658300Y-107797600D02*
X159372300Y-107797600D01*
X159372300Y-107797600D02*
X159372300Y-106527600D01*
D14*
X165582600Y-96576243D02*
X165546314Y-96612529D01*
X165437457Y-96648814D01*
X165364886Y-96648814D01*
X165256029Y-96612529D01*
X165183457Y-96539957D01*
X165147172Y-96467386D01*
X165110886Y-96322243D01*
X165110886Y-96213386D01*
X165147172Y-96068243D01*
X165183457Y-95995671D01*
X165256029Y-95923100D01*
X165364886Y-95886814D01*
X165437457Y-95886814D01*
X165546314Y-95923100D01*
X165582600Y-95959386D01*
X166308314Y-96648814D02*
X165872886Y-96648814D01*
X166090600Y-96648814D02*
X166090600Y-95886814D01*
X166018029Y-95995671D01*
X165945457Y-96068243D01*
X165872886Y-96104529D01*
D12*
X165806381Y-105738095D02*
X164806381Y-105738095D01*
X164806381Y-105357142D01*
X164854000Y-105261904D01*
X164901619Y-105214285D01*
X164996857Y-105166666D01*
X165139714Y-105166666D01*
X165234952Y-105214285D01*
X165282571Y-105261904D01*
X165330190Y-105357142D01*
X165330190Y-105738095D01*
X165806381Y-104214285D02*
X165806381Y-104785714D01*
X165806381Y-104500000D02*
X164806381Y-104500000D01*
X164949238Y-104595238D01*
X165044476Y-104690476D01*
X165092095Y-104785714D01*
D14*
X143553543Y-110261400D02*
X143589829Y-110297686D01*
X143626114Y-110406543D01*
X143626114Y-110479114D01*
X143589829Y-110587971D01*
X143517257Y-110660543D01*
X143444686Y-110696828D01*
X143299543Y-110733114D01*
X143190686Y-110733114D01*
X143045543Y-110696828D01*
X142972971Y-110660543D01*
X142900400Y-110587971D01*
X142864114Y-110479114D01*
X142864114Y-110406543D01*
X142900400Y-110297686D01*
X142936686Y-110261400D01*
X142936686Y-109971114D02*
X142900400Y-109934828D01*
X142864114Y-109862257D01*
X142864114Y-109680828D01*
X142900400Y-109608257D01*
X142936686Y-109571971D01*
X143009257Y-109535686D01*
X143081829Y-109535686D01*
X143190686Y-109571971D01*
X143626114Y-110007400D01*
X143626114Y-109535686D01*
D13*
X152031701Y-100141314D02*
X152031701Y-100685600D01*
X151995415Y-100794457D01*
X151922844Y-100867029D01*
X151813987Y-100903314D01*
X151741415Y-100903314D01*
X152793700Y-100903314D02*
X152358272Y-100903314D01*
X152575986Y-100903314D02*
X152575986Y-100141314D01*
X152503415Y-100250171D01*
X152430843Y-100322743D01*
X152358272Y-100359029D01*
D12*
X134881881Y-105738095D02*
X133881881Y-105738095D01*
X133881881Y-105357142D01*
X133929500Y-105261904D01*
X133977119Y-105214285D01*
X134072357Y-105166666D01*
X134215214Y-105166666D01*
X134310452Y-105214285D01*
X134358071Y-105261904D01*
X134405690Y-105357142D01*
X134405690Y-105738095D01*
X133977119Y-104785714D02*
X133929500Y-104738095D01*
X133881881Y-104642857D01*
X133881881Y-104404761D01*
X133929500Y-104309523D01*
X133977119Y-104261904D01*
X134072357Y-104214285D01*
X134167595Y-104214285D01*
X134310452Y-104261904D01*
X134881881Y-104833333D01*
X134881881Y-104214285D01*
D11*
X148374100Y-111761814D02*
X148120100Y-111398957D01*
X147938672Y-111761814D02*
X147938672Y-110999814D01*
X148228957Y-110999814D01*
X148301529Y-111036100D01*
X148337814Y-111072386D01*
X148374100Y-111144957D01*
X148374100Y-111253814D01*
X148337814Y-111326386D01*
X148301529Y-111362671D01*
X148228957Y-111398957D01*
X147938672Y-111398957D01*
X149099814Y-111761814D02*
X148664386Y-111761814D01*
X148882100Y-111761814D02*
X148882100Y-110999814D01*
X148809529Y-111108671D01*
X148736957Y-111181243D01*
X148664386Y-111217529D01*
D13*
X152439914Y-105580571D02*
X153056771Y-105580571D01*
X153129343Y-105544286D01*
X153165629Y-105508000D01*
X153201914Y-105435429D01*
X153201914Y-105290286D01*
X153165629Y-105217714D01*
X153129343Y-105181429D01*
X153056771Y-105145143D01*
X152439914Y-105145143D01*
X153201914Y-104383143D02*
X153201914Y-104818571D01*
X153201914Y-104600857D02*
X152439914Y-104600857D01*
X152548771Y-104673428D01*
X152621343Y-104746000D01*
X152657629Y-104818571D01*
%LPC*%
D15*
X167309800Y-96304100D03*
X168833800Y-96304100D03*
D16*
X167309800Y-111350000D03*
D17*
X167309800Y-108810000D03*
X167309800Y-106270000D03*
X167309800Y-103730000D03*
X167309800Y-101190000D03*
X167309800Y-98650000D03*
X169849800Y-111350000D03*
X169849800Y-108810000D03*
X169849800Y-106270000D03*
X169849800Y-103730000D03*
X169849800Y-101190000D03*
X169849800Y-98650000D03*
D18*
X144716500Y-108648500D03*
X144716500Y-110172500D03*
D19*
X149771100Y-100558600D03*
D20*
X147231100Y-100558600D03*
D21*
X128181100Y-110080000D03*
D22*
X128181100Y-99920000D03*
X128181100Y-105000000D03*
D23*
X146850100Y-109410500D03*
X150152100Y-109410500D03*
D24*
X145834100Y-106905000D03*
X151168100Y-106905000D03*
X145834100Y-105635000D03*
X145834100Y-104365000D03*
X145834100Y-103095000D03*
X151168100Y-105635000D03*
X151168100Y-104365000D03*
X151168100Y-103095000D03*
D15*
X161277300Y-108813600D03*
X159753300Y-108813600D03*
X161277300Y-105511600D03*
X159753300Y-105511600D03*
X161277300Y-103860600D03*
X159753300Y-103860600D03*
X159753300Y-107162600D03*
X161277300Y-107162600D03*
M02*
