G04 #@! TF.FileFunction,Copper,L1,Top,Signal*
%FSLAX46Y46*%
G04 Gerber Fmt 4.6, Leading zero omitted, Abs format (unit mm)*
G04 Created by KiCad (PCBNEW 4.0.2+dfsg1-stable) date jeu. 13 juil. 2017 18:44:21 CEST*
%MOMM*%
G01*
G04 APERTURE LIST*
%ADD10C,0.100000*%
%ADD11C,0.300000*%
%ADD12R,0.635000X1.143000*%
%ADD13R,2.000000X1.900000*%
%ADD14C,1.900000*%
%ADD15R,1.143000X0.635000*%
%ADD16R,1.524000X1.524000*%
%ADD17C,1.524000*%
%ADD18R,2.540000X2.540000*%
%ADD19C,2.540000*%
%ADD20R,1.524000X2.032000*%
%ADD21R,1.143000X0.508000*%
%ADD22C,0.711200*%
%ADD23C,0.406400*%
%ADD24C,0.203200*%
%ADD25C,0.304800*%
G04 APERTURE END LIST*
D10*
D11*
X123767972Y-114673771D02*
X123767972Y-113173771D01*
X124339400Y-113173771D01*
X124482258Y-113245200D01*
X124553686Y-113316629D01*
X124625115Y-113459486D01*
X124625115Y-113673771D01*
X124553686Y-113816629D01*
X124482258Y-113888057D01*
X124339400Y-113959486D01*
X123767972Y-113959486D01*
X125267972Y-114673771D02*
X125267972Y-113173771D01*
X125767972Y-114245200D01*
X126267972Y-113173771D01*
X126267972Y-114673771D01*
X127267972Y-113173771D02*
X127553686Y-113173771D01*
X127696544Y-113245200D01*
X127839401Y-113388057D01*
X127910829Y-113673771D01*
X127910829Y-114173771D01*
X127839401Y-114459486D01*
X127696544Y-114602343D01*
X127553686Y-114673771D01*
X127267972Y-114673771D01*
X127125115Y-114602343D01*
X126982258Y-114459486D01*
X126910829Y-114173771D01*
X126910829Y-113673771D01*
X126982258Y-113388057D01*
X127125115Y-113245200D01*
X127267972Y-113173771D01*
X128553687Y-114673771D02*
X128553687Y-113173771D01*
X128910830Y-113173771D01*
X129125115Y-113245200D01*
X129267973Y-113388057D01*
X129339401Y-113530914D01*
X129410830Y-113816629D01*
X129410830Y-114030914D01*
X129339401Y-114316629D01*
X129267973Y-114459486D01*
X129125115Y-114602343D01*
X128910830Y-114673771D01*
X128553687Y-114673771D01*
X130053687Y-114102343D02*
X131196544Y-114102343D01*
X132767973Y-114673771D02*
X132267973Y-113959486D01*
X131910830Y-114673771D02*
X131910830Y-113173771D01*
X132482258Y-113173771D01*
X132625116Y-113245200D01*
X132696544Y-113316629D01*
X132767973Y-113459486D01*
X132767973Y-113673771D01*
X132696544Y-113816629D01*
X132625116Y-113888057D01*
X132482258Y-113959486D01*
X131910830Y-113959486D01*
X133339401Y-114602343D02*
X133553687Y-114673771D01*
X133910830Y-114673771D01*
X134053687Y-114602343D01*
X134125116Y-114530914D01*
X134196544Y-114388057D01*
X134196544Y-114245200D01*
X134125116Y-114102343D01*
X134053687Y-114030914D01*
X133910830Y-113959486D01*
X133625116Y-113888057D01*
X133482258Y-113816629D01*
X133410830Y-113745200D01*
X133339401Y-113602343D01*
X133339401Y-113459486D01*
X133410830Y-113316629D01*
X133482258Y-113245200D01*
X133625116Y-113173771D01*
X133982258Y-113173771D01*
X134196544Y-113245200D01*
X135482258Y-113673771D02*
X135482258Y-114673771D01*
X135125115Y-113102343D02*
X134767972Y-114173771D01*
X135696544Y-114173771D01*
X136482258Y-113816629D02*
X136339400Y-113745200D01*
X136267972Y-113673771D01*
X136196543Y-113530914D01*
X136196543Y-113459486D01*
X136267972Y-113316629D01*
X136339400Y-113245200D01*
X136482258Y-113173771D01*
X136767972Y-113173771D01*
X136910829Y-113245200D01*
X136982258Y-113316629D01*
X137053686Y-113459486D01*
X137053686Y-113530914D01*
X136982258Y-113673771D01*
X136910829Y-113745200D01*
X136767972Y-113816629D01*
X136482258Y-113816629D01*
X136339400Y-113888057D01*
X136267972Y-113959486D01*
X136196543Y-114102343D01*
X136196543Y-114388057D01*
X136267972Y-114530914D01*
X136339400Y-114602343D01*
X136482258Y-114673771D01*
X136767972Y-114673771D01*
X136910829Y-114602343D01*
X136982258Y-114530914D01*
X137053686Y-114388057D01*
X137053686Y-114102343D01*
X136982258Y-113959486D01*
X136910829Y-113888057D01*
X136767972Y-113816629D01*
X138410829Y-113173771D02*
X137696543Y-113173771D01*
X137625114Y-113888057D01*
X137696543Y-113816629D01*
X137839400Y-113745200D01*
X138196543Y-113745200D01*
X138339400Y-113816629D01*
X138410829Y-113888057D01*
X138482257Y-114030914D01*
X138482257Y-114388057D01*
X138410829Y-114530914D01*
X138339400Y-114602343D01*
X138196543Y-114673771D01*
X137839400Y-114673771D01*
X137696543Y-114602343D01*
X137625114Y-114530914D01*
D12*
X167309800Y-96304100D03*
X168833800Y-96304100D03*
D13*
X167309800Y-111350000D03*
D14*
X167309800Y-108810000D03*
X167309800Y-106270000D03*
X167309800Y-103730000D03*
X167309800Y-101190000D03*
X167309800Y-98650000D03*
X169849800Y-111350000D03*
X169849800Y-108810000D03*
X169849800Y-106270000D03*
X169849800Y-103730000D03*
X169849800Y-101190000D03*
X169849800Y-98650000D03*
D15*
X144716500Y-108648500D03*
X144716500Y-110172500D03*
D16*
X149771100Y-100558600D03*
D17*
X147231100Y-100558600D03*
D18*
X128181100Y-110080000D03*
D19*
X128181100Y-99920000D03*
X128181100Y-105000000D03*
D20*
X146850100Y-109410500D03*
X150152100Y-109410500D03*
D21*
X145834100Y-106905000D03*
X151168100Y-106905000D03*
X145834100Y-105635000D03*
X145834100Y-104365000D03*
X145834100Y-103095000D03*
X151168100Y-105635000D03*
X151168100Y-104365000D03*
X151168100Y-103095000D03*
D12*
X161277300Y-108813600D03*
X159753300Y-108813600D03*
X161277300Y-105511600D03*
X159753300Y-105511600D03*
X161277300Y-103860600D03*
X159753300Y-103860600D03*
X159753300Y-107162600D03*
X161277300Y-107162600D03*
D22*
X169913300Y-96304100D03*
X144475200Y-103085900D03*
X144716500Y-111252000D03*
X143357600Y-108648500D03*
X143357600Y-103111300D03*
X153416000Y-103098600D03*
X153416000Y-108813600D03*
D23*
X128181100Y-110080000D02*
X142325300Y-110080000D01*
X143497300Y-111252000D02*
X144716500Y-111252000D01*
X142325300Y-110080000D02*
X143497300Y-111252000D01*
X168833800Y-96304100D02*
X169913300Y-96304100D01*
X144716500Y-110172500D02*
X144716500Y-111252000D01*
X144475200Y-103085900D02*
X144919700Y-103085900D01*
X144928800Y-103095000D02*
X145834100Y-103095000D01*
X144919700Y-103085900D02*
X144928800Y-103095000D01*
X144716500Y-108648500D02*
X143357600Y-108648500D01*
X144885200Y-98650000D02*
X143357600Y-100177600D01*
X143357600Y-103111300D02*
X143357600Y-100177600D01*
X144885200Y-98650000D02*
X167309800Y-98650000D01*
X167309800Y-98650000D02*
X167309800Y-96304100D01*
X144716500Y-108648500D02*
X144716500Y-107213400D01*
X144716500Y-107213400D02*
X145024900Y-106905000D01*
X145024900Y-106905000D02*
X145834100Y-106905000D01*
X169849800Y-98650000D02*
X167309800Y-98650000D01*
X149771100Y-100558600D02*
X149771100Y-101739700D01*
X150152100Y-107988100D02*
X150152100Y-109410500D01*
X148501100Y-106337100D02*
X150152100Y-107988100D01*
X148501100Y-103009700D02*
X148501100Y-106337100D01*
X149771100Y-101739700D02*
X148501100Y-103009700D01*
X149771100Y-109029500D02*
X150152100Y-109410500D01*
X132800300Y-101825000D02*
X140458400Y-101825000D01*
X128181100Y-99920000D02*
X130895300Y-99920000D01*
X132800300Y-101825000D02*
X130895300Y-99920000D01*
X142998400Y-104365000D02*
X145834100Y-104365000D01*
X140458400Y-101825000D02*
X142998400Y-104365000D01*
X145834100Y-104365000D02*
X146866400Y-104365000D01*
X147231100Y-104000300D02*
X147231100Y-100558600D01*
X146866400Y-104365000D02*
X147231100Y-104000300D01*
X132807500Y-103095000D02*
X140465600Y-103095000D01*
X132807500Y-103095000D02*
X130902500Y-105000000D01*
X128181100Y-105000000D02*
X130902500Y-105000000D01*
X143005600Y-105635000D02*
X145834100Y-105635000D01*
X140465600Y-103095000D02*
X143005600Y-105635000D01*
X145834100Y-105635000D02*
X146871900Y-105635000D01*
X147231100Y-105994200D02*
X147231100Y-109029500D01*
X146871900Y-105635000D02*
X147231100Y-105994200D01*
X147231100Y-109029500D02*
X146850100Y-109410500D01*
D24*
X159753300Y-108813600D02*
X161277300Y-108813600D01*
D23*
X151171700Y-103098600D02*
X153416000Y-103098600D01*
X153416000Y-108813600D02*
X159753300Y-108813600D01*
X151171700Y-103098600D02*
X151168100Y-103095000D01*
X161277300Y-108813600D02*
X167306200Y-108813600D01*
X167306200Y-108813600D02*
X167309800Y-108810000D01*
D24*
X159753300Y-107162600D02*
X161277300Y-107162600D01*
D23*
X161277300Y-107162600D02*
X164693600Y-107162600D01*
X164693600Y-107162600D02*
X165586200Y-106270000D01*
X165586200Y-106270000D02*
X167309800Y-106270000D01*
X159753300Y-107162600D02*
X152831800Y-107162600D01*
X152574200Y-106905000D02*
X151168100Y-106905000D01*
X152831800Y-107162600D02*
X152574200Y-106905000D01*
D25*
X159753300Y-103860600D02*
X161277300Y-103860600D01*
X161277300Y-105511600D02*
X159753300Y-105511600D01*
D23*
X162826700Y-104686100D02*
X164934900Y-104686100D01*
X165891000Y-103730000D02*
X167309800Y-103730000D01*
X164934900Y-104686100D02*
X165891000Y-103730000D01*
X161277300Y-103860600D02*
X162001200Y-103860600D01*
X162001200Y-103860600D02*
X162826700Y-104686100D01*
X162001200Y-105511600D02*
X162826700Y-104686100D01*
X162001200Y-105511600D02*
X161277300Y-105511600D01*
X159753300Y-103860600D02*
X154254200Y-103860600D01*
X153749800Y-104365000D02*
X151168100Y-104365000D01*
X154254200Y-103860600D02*
X153749800Y-104365000D01*
X159753300Y-105511600D02*
X152793700Y-105511600D01*
X152793700Y-105511600D02*
X152670300Y-105635000D01*
X152670300Y-105635000D02*
X151168100Y-105635000D01*
M02*
